<svg width="247" height="163" viewBox="0 0 247 163" fill="none" xmlns="http://www.w3.org/2000/svg">
<g clip-path="url(#clip0_72_11630)">
<path d="M216.452 0.151611H29.5378C24.1537 0.151611 19.7891 4.51625 19.7891 9.90031V142.73C19.7891 148.115 24.1537 152.479 29.5378 152.479H216.452C221.836 152.479 226.201 148.115 226.201 142.73V9.90031C226.201 4.51625 221.836 0.151611 216.452 0.151611Z" fill="#5C5B5B"/>
<path d="M205.261 12.9102H39.0497C36.3579 12.9102 34.1758 15.0923 34.1758 17.7841V134.86C34.1758 137.552 36.3579 139.734 39.0497 139.734H205.261C207.953 139.734 210.135 137.552 210.135 134.86V17.7841C210.135 15.0923 207.953 12.9102 205.261 12.9102Z" fill="white"/>
<path d="M34.2578 110.824H210.595V134.903C210.595 136.195 210.081 137.435 209.167 138.35C208.253 139.264 207.013 139.777 205.72 139.777H39.1326C38.4924 139.777 37.8584 139.651 37.2669 139.406C36.6754 139.161 36.138 138.802 35.6853 138.349C35.2326 137.896 34.8736 137.359 34.6286 136.767C34.3837 136.176 34.2577 135.542 34.2578 134.902V110.822V110.824Z" fill="#1CB0F6"/>
<path d="M71.875 125.13L75.2213 128.44C75.3383 128.555 75.4963 128.62 75.661 128.62C75.8257 128.62 75.9837 128.555 76.1007 128.44L82.4888 122.118" stroke="white" stroke-width="2.81149" stroke-linecap="round"/>
<path d="M176.887 33.3303H73.3463C71.4809 33.3303 69.9688 34.8425 69.9688 36.7079V36.7088C69.9688 38.5741 71.4809 40.0863 73.3463 40.0863H176.887C178.753 40.0863 180.265 38.5741 180.265 36.7088V36.7079C180.265 34.8425 178.753 33.3303 176.887 33.3303Z" fill="#D2E4E8"/>
<path d="M106.151 33.3303H73.3463C71.4809 33.3303 69.9688 34.8425 69.9688 36.7079V36.7088C69.9688 38.5741 71.4809 40.0863 73.3463 40.0863H106.151C108.017 40.0863 109.529 38.5741 109.529 36.7088V36.7079C109.529 34.8425 108.017 33.3303 106.151 33.3303Z" fill="#1CB0F6"/>
<path d="M1.62493 147.863H244.392C244.605 147.863 244.816 147.905 245.014 147.986C245.211 148.068 245.39 148.188 245.541 148.339C245.692 148.49 245.811 148.669 245.893 148.866C245.975 149.064 246.017 149.275 246.016 149.488V155.179C246.016 159.22 242.743 162.496 238.704 162.496H7.31219C3.27397 162.496 2.45303e-07 159.219 2.45303e-07 155.179V149.488C-0.000117043 149.275 0.0418265 149.064 0.123434 148.866C0.205042 148.669 0.324715 148.49 0.475616 148.339C0.626517 148.188 0.805687 148.068 1.00289 147.986C1.2001 147.905 1.41147 147.863 1.62493 147.863Z" fill="#C1C9CB"/>
<path opacity="0.25" d="M274.731 -40.1704V95.0561L45.2773 -40.1704H274.731Z" fill="white"/>
<path opacity="0.4" d="M148.039 121.958H92.0762C91.2769 121.958 90.6289 122.606 90.6289 123.406V123.407C90.6289 124.206 91.2769 124.854 92.0762 124.854H148.039C148.838 124.854 149.486 124.206 149.486 123.407V123.406C149.486 122.606 148.838 121.958 148.039 121.958Z" fill="white"/>
<path opacity="0.4" d="M120.057 127.756H92.0762C91.2769 127.756 90.6289 128.404 90.6289 129.203V129.204C90.6289 130.004 91.2769 130.652 92.0762 130.652H120.057C120.856 130.652 121.504 130.004 121.504 129.204V129.203C121.504 128.404 120.856 127.756 120.057 127.756Z" fill="white"/>
<path d="M93.9863 59.5586H75.4853C72.8226 59.5586 70.6641 61.7171 70.6641 64.3798V85.3004C70.6641 87.9631 72.8226 90.1216 75.4853 90.1216H93.9863C96.649 90.1216 98.8075 87.9631 98.8075 85.3004V64.3798C98.8075 61.7171 96.649 59.5586 93.9863 59.5586Z" stroke="#D2E4E8" stroke-width="1.60708"/>
<path d="M134.256 59.5586H115.755C113.092 59.5586 110.934 61.7171 110.934 64.3798V85.3004C110.934 87.9631 113.092 90.1216 115.755 90.1216H134.256C136.919 90.1216 139.077 87.9631 139.077 85.3004V64.3798C139.077 61.7171 136.919 59.5586 134.256 59.5586Z" fill="#D2E4E8" stroke="#D2E4E8" stroke-width="1.60708"/>
<path d="M174.451 59.5586H155.95C153.287 59.5586 151.129 61.7171 151.129 64.3798V85.3004C151.129 87.9631 153.287 90.1216 155.95 90.1216H174.451C177.114 90.1216 179.272 87.9631 179.272 85.3004V64.3798C179.272 61.7171 177.114 59.5586 174.451 59.5586Z" stroke="#D2E4E8" stroke-width="1.60708"/>
</g>
<defs>
<clipPath id="clip0_72_11630">
<rect width="246.418" height="162.493" fill="white"/>
</clipPath>
</defs>
</svg>
