<svg xmlns="http://www.w3.org/2000/svg" xmlns:xlink="http://www.w3.org/1999/xlink" width="500" zoomAndPan="magnify" viewBox="0 0 375 374.999991" height="500" preserveAspectRatio="xMidYMid meet" version="1.0"><defs><clipPath id="a88f68334a"><path d="M 182 231 L 213 231 L 213 262.5 L 182 262.5 Z M 182 231 " clip-rule="nonzero"/></clipPath><clipPath id="f3e8258dde"><path d="M 150 232 L 180 232 L 180 262.5 L 150 262.5 Z M 150 232 " clip-rule="nonzero"/></clipPath><clipPath id="d7721aa2ed"><path d="M 131.15625 137 L 152 137 L 152 168 L 131.15625 168 Z M 131.15625 137 " clip-rule="nonzero"/></clipPath><clipPath id="32bb4e28ef"><path d="M 173 98 L 209 98 L 209 113 L 173 113 Z M 173 98 " clip-rule="nonzero"/></clipPath><clipPath id="4b843c0b09"><path d="M 169.945312 96.695312 L 215.144531 103.769531 L 210.855469 131.183594 L 165.65625 124.113281 Z M 169.945312 96.695312 " clip-rule="nonzero"/></clipPath><clipPath id="3f049f5e9b"><path d="M 169.945312 96.695312 L 215.144531 103.769531 L 210.855469 131.183594 L 165.65625 124.113281 Z M 169.945312 96.695312 " clip-rule="nonzero"/></clipPath><clipPath id="1eb65d1a0b"><path d="M 173 105 L 209 105 L 209 120 L 173 120 Z M 173 105 " clip-rule="nonzero"/></clipPath><clipPath id="b9fb965b69"><path d="M 169.945312 96.695312 L 215.144531 103.769531 L 210.855469 131.183594 L 165.65625 124.113281 Z M 169.945312 96.695312 " clip-rule="nonzero"/></clipPath><clipPath id="b8699bf2c0"><path d="M 169.945312 96.695312 L 215.144531 103.769531 L 210.855469 131.183594 L 165.65625 124.113281 Z M 169.945312 96.695312 " clip-rule="nonzero"/></clipPath><clipPath id="ea96ba9c15"><path d="M 172 108 L 209 108 L 209 120 L 172 120 Z M 172 108 " clip-rule="nonzero"/></clipPath><clipPath id="51a5e60012"><path d="M 169.945312 96.695312 L 215.144531 103.769531 L 210.855469 131.183594 L 165.65625 124.113281 Z M 169.945312 96.695312 " clip-rule="nonzero"/></clipPath><clipPath id="e9e1e8917a"><path d="M 169.945312 96.695312 L 215.144531 103.769531 L 210.855469 131.183594 L 165.65625 124.113281 Z M 169.945312 96.695312 " clip-rule="nonzero"/></clipPath><clipPath id="0ae72459d1"><path d="M 166 105 L 212 105 L 212 130 L 166 130 Z M 166 105 " clip-rule="nonzero"/></clipPath><clipPath id="a9c9ce652c"><path d="M 169.945312 96.695312 L 215.144531 103.769531 L 210.855469 131.183594 L 165.65625 124.113281 Z M 169.945312 96.695312 " clip-rule="nonzero"/></clipPath><clipPath id="57c226b4fd"><path d="M 169.945312 96.695312 L 215.144531 103.769531 L 210.855469 131.183594 L 165.65625 124.113281 Z M 169.945312 96.695312 " clip-rule="nonzero"/></clipPath><clipPath id="d17ece971b"><path d="M 170 122 L 181 122 L 181 125 L 170 125 Z M 170 122 " clip-rule="nonzero"/></clipPath><clipPath id="38404c8ebd"><path d="M 169.945312 96.695312 L 215.144531 103.769531 L 210.855469 131.183594 L 165.65625 124.113281 Z M 169.945312 96.695312 " clip-rule="nonzero"/></clipPath><clipPath id="45f57c03f5"><path d="M 169.945312 96.695312 L 215.144531 103.769531 L 210.855469 131.183594 L 165.65625 124.113281 Z M 169.945312 96.695312 " clip-rule="nonzero"/></clipPath><clipPath id="2d191d873f"><path d="M 124 204 L 134 204 L 134 215 L 124 215 Z M 124 204 " clip-rule="nonzero"/></clipPath><clipPath id="24cfdaa884"><path d="M 122.160156 201.660156 L 169.796875 212.015625 L 161.351562 250.855469 L 113.714844 240.5 Z M 122.160156 201.660156 " clip-rule="nonzero"/></clipPath><clipPath id="42848e5907"><path d="M 122.160156 201.660156 L 169.796875 212.015625 L 161.351562 250.855469 L 113.714844 240.5 Z M 122.160156 201.660156 " clip-rule="nonzero"/></clipPath><clipPath id="baef87da7e"><path d="M 122.160156 201.660156 L 169.796875 212.015625 L 161.351562 250.855469 L 113.714844 240.5 Z M 122.160156 201.660156 " clip-rule="nonzero"/></clipPath><clipPath id="9099bfd86b"><path d="M 128 210 L 151 210 L 151 235 L 128 235 Z M 128 210 " clip-rule="nonzero"/></clipPath><clipPath id="c619d0bf27"><path d="M 122.160156 201.660156 L 169.796875 212.015625 L 161.351562 250.855469 L 113.714844 240.5 Z M 122.160156 201.660156 " clip-rule="nonzero"/></clipPath><clipPath id="6faeff3bf7"><path d="M 122.160156 201.660156 L 169.796875 212.015625 L 161.351562 250.855469 L 113.714844 240.5 Z M 122.160156 201.660156 " clip-rule="nonzero"/></clipPath><clipPath id="e99b1a3a28"><path d="M 122.160156 201.660156 L 169.796875 212.015625 L 161.351562 250.855469 L 113.714844 240.5 Z M 122.160156 201.660156 " clip-rule="nonzero"/></clipPath><clipPath id="9ae63d4b96"><path d="M 127 209 L 151 209 L 151 236 L 127 236 Z M 127 209 " clip-rule="nonzero"/></clipPath><clipPath id="e53607ede9"><path d="M 122.160156 201.660156 L 169.796875 212.015625 L 161.351562 250.855469 L 113.714844 240.5 Z M 122.160156 201.660156 " clip-rule="nonzero"/></clipPath><clipPath id="2759dc5315"><path d="M 122.160156 201.660156 L 169.796875 212.015625 L 161.351562 250.855469 L 113.714844 240.5 Z M 122.160156 201.660156 " clip-rule="nonzero"/></clipPath><clipPath id="36ac6d32af"><path d="M 122.160156 201.660156 L 169.796875 212.015625 L 161.351562 250.855469 L 113.714844 240.5 Z M 122.160156 201.660156 " clip-rule="nonzero"/></clipPath><clipPath id="d7f022bb91"><path d="M 131 213 L 148 213 L 148 232 L 131 232 Z M 131 213 " clip-rule="nonzero"/></clipPath><clipPath id="986997a978"><path d="M 122.160156 201.660156 L 169.796875 212.015625 L 161.351562 250.855469 L 113.714844 240.5 Z M 122.160156 201.660156 " clip-rule="nonzero"/></clipPath><clipPath id="18a8d5e751"><path d="M 122.160156 201.660156 L 169.796875 212.015625 L 161.351562 250.855469 L 113.714844 240.5 Z M 122.160156 201.660156 " clip-rule="nonzero"/></clipPath><clipPath id="06223b422e"><path d="M 122.160156 201.660156 L 169.796875 212.015625 L 161.351562 250.855469 L 113.714844 240.5 Z M 122.160156 201.660156 " clip-rule="nonzero"/></clipPath><clipPath id="f799b98450"><path d="M 130 213 L 148 213 L 148 232 L 130 232 Z M 130 213 " clip-rule="nonzero"/></clipPath><clipPath id="a58ce155a7"><path d="M 122.160156 201.660156 L 169.796875 212.015625 L 161.351562 250.855469 L 113.714844 240.5 Z M 122.160156 201.660156 " clip-rule="nonzero"/></clipPath><clipPath id="5296a4f9dd"><path d="M 122.160156 201.660156 L 169.796875 212.015625 L 161.351562 250.855469 L 113.714844 240.5 Z M 122.160156 201.660156 " clip-rule="nonzero"/></clipPath><clipPath id="5fef347e9f"><path d="M 122.160156 201.660156 L 169.796875 212.015625 L 161.351562 250.855469 L 113.714844 240.5 Z M 122.160156 201.660156 " clip-rule="nonzero"/></clipPath><clipPath id="915bd7d112"><path d="M 146 231 L 160 231 L 160 247 L 146 247 Z M 146 231 " clip-rule="nonzero"/></clipPath><clipPath id="b606e48492"><path d="M 122.160156 201.660156 L 169.796875 212.015625 L 161.351562 250.855469 L 113.714844 240.5 Z M 122.160156 201.660156 " clip-rule="nonzero"/></clipPath><clipPath id="619ce37ced"><path d="M 122.160156 201.660156 L 169.796875 212.015625 L 161.351562 250.855469 L 113.714844 240.5 Z M 122.160156 201.660156 " clip-rule="nonzero"/></clipPath><clipPath id="0373fc6af1"><path d="M 122.160156 201.660156 L 169.796875 212.015625 L 161.351562 250.855469 L 113.714844 240.5 Z M 122.160156 201.660156 " clip-rule="nonzero"/></clipPath><clipPath id="85adc35ce7"><path d="M 155 242 L 163 242 L 163 250 L 155 250 Z M 155 242 " clip-rule="nonzero"/></clipPath><clipPath id="326c538c9e"><path d="M 122.160156 201.660156 L 169.796875 212.015625 L 161.351562 250.855469 L 113.714844 240.5 Z M 122.160156 201.660156 " clip-rule="nonzero"/></clipPath><clipPath id="7cebee371e"><path d="M 122.160156 201.660156 L 169.796875 212.015625 L 161.351562 250.855469 L 113.714844 240.5 Z M 122.160156 201.660156 " clip-rule="nonzero"/></clipPath><clipPath id="e22c309cd3"><path d="M 122.160156 201.660156 L 169.796875 212.015625 L 161.351562 250.855469 L 113.714844 240.5 Z M 122.160156 201.660156 " clip-rule="nonzero"/></clipPath><clipPath id="ff14978c03"><path d="M 154 242 L 163 242 L 163 250 L 154 250 Z M 154 242 " clip-rule="nonzero"/></clipPath><clipPath id="e558051a93"><path d="M 122.160156 201.660156 L 169.796875 212.015625 L 161.351562 250.855469 L 113.714844 240.5 Z M 122.160156 201.660156 " clip-rule="nonzero"/></clipPath><clipPath id="9cb491db2a"><path d="M 122.160156 201.660156 L 169.796875 212.015625 L 161.351562 250.855469 L 113.714844 240.5 Z M 122.160156 201.660156 " clip-rule="nonzero"/></clipPath><clipPath id="77fb185449"><path d="M 122.160156 201.660156 L 169.796875 212.015625 L 161.351562 250.855469 L 113.714844 240.5 Z M 122.160156 201.660156 " clip-rule="nonzero"/></clipPath><clipPath id="69be8e77b8"><path d="M 141 227 L 154 227 L 154 238 L 141 238 Z M 141 227 " clip-rule="nonzero"/></clipPath><clipPath id="52d711deb8"><path d="M 122.160156 201.660156 L 169.796875 212.015625 L 161.351562 250.855469 L 113.714844 240.5 Z M 122.160156 201.660156 " clip-rule="nonzero"/></clipPath><clipPath id="deea10d4c7"><path d="M 122.160156 201.660156 L 169.796875 212.015625 L 161.351562 250.855469 L 113.714844 240.5 Z M 122.160156 201.660156 " clip-rule="nonzero"/></clipPath><clipPath id="c096719f28"><path d="M 122.160156 201.660156 L 169.796875 212.015625 L 161.351562 250.855469 L 113.714844 240.5 Z M 122.160156 201.660156 " clip-rule="nonzero"/></clipPath><clipPath id="da207ca27c"><path d="M 122 202 L 126 202 L 126 206 L 122 206 Z M 122 202 " clip-rule="nonzero"/></clipPath><clipPath id="8d3b51a4a4"><path d="M 122.160156 201.660156 L 169.796875 212.015625 L 161.351562 250.855469 L 113.714844 240.5 Z M 122.160156 201.660156 " clip-rule="nonzero"/></clipPath><clipPath id="c408687bd7"><path d="M 122.160156 201.660156 L 169.796875 212.015625 L 161.351562 250.855469 L 113.714844 240.5 Z M 122.160156 201.660156 " clip-rule="nonzero"/></clipPath><clipPath id="2e48f6d4f9"><path d="M 122.160156 201.660156 L 169.796875 212.015625 L 161.351562 250.855469 L 113.714844 240.5 Z M 122.160156 201.660156 " clip-rule="nonzero"/></clipPath><clipPath id="588baada04"><path d="M 122 201 L 126 201 L 126 207 L 122 207 Z M 122 201 " clip-rule="nonzero"/></clipPath><clipPath id="82968e0cb2"><path d="M 122.160156 201.660156 L 169.796875 212.015625 L 161.351562 250.855469 L 113.714844 240.5 Z M 122.160156 201.660156 " clip-rule="nonzero"/></clipPath><clipPath id="e03f82b3da"><path d="M 122.160156 201.660156 L 169.796875 212.015625 L 161.351562 250.855469 L 113.714844 240.5 Z M 122.160156 201.660156 " clip-rule="nonzero"/></clipPath><clipPath id="857d0bd94d"><path d="M 122.160156 201.660156 L 169.796875 212.015625 L 161.351562 250.855469 L 113.714844 240.5 Z M 122.160156 201.660156 " clip-rule="nonzero"/></clipPath><clipPath id="b750e7666f"><path d="M 140 227 L 143 227 L 143 229 L 140 229 Z M 140 227 " clip-rule="nonzero"/></clipPath><clipPath id="d3be2ae23e"><path d="M 122.160156 201.660156 L 169.796875 212.015625 L 161.351562 250.855469 L 113.714844 240.5 Z M 122.160156 201.660156 " clip-rule="nonzero"/></clipPath><clipPath id="b5a86e9d9a"><path d="M 122.160156 201.660156 L 169.796875 212.015625 L 161.351562 250.855469 L 113.714844 240.5 Z M 122.160156 201.660156 " clip-rule="nonzero"/></clipPath><clipPath id="9c78237ff8"><path d="M 122.160156 201.660156 L 169.796875 212.015625 L 161.351562 250.855469 L 113.714844 240.5 Z M 122.160156 201.660156 " clip-rule="nonzero"/></clipPath><clipPath id="91af8f29c6"><path d="M 140 226 L 143 226 L 143 230 L 140 230 Z M 140 226 " clip-rule="nonzero"/></clipPath><clipPath id="5fff7a02b9"><path d="M 122.160156 201.660156 L 169.796875 212.015625 L 161.351562 250.855469 L 113.714844 240.5 Z M 122.160156 201.660156 " clip-rule="nonzero"/></clipPath><clipPath id="a658db96d1"><path d="M 122.160156 201.660156 L 169.796875 212.015625 L 161.351562 250.855469 L 113.714844 240.5 Z M 122.160156 201.660156 " clip-rule="nonzero"/></clipPath><clipPath id="2b0aac6aaf"><path d="M 122.160156 201.660156 L 169.796875 212.015625 L 161.351562 250.855469 L 113.714844 240.5 Z M 122.160156 201.660156 " clip-rule="nonzero"/></clipPath><clipPath id="43e9d412bc"><path d="M 137 223 L 140 223 L 140 226 L 137 226 Z M 137 223 " clip-rule="nonzero"/></clipPath><clipPath id="e2fad5a434"><path d="M 122.160156 201.660156 L 169.796875 212.015625 L 161.351562 250.855469 L 113.714844 240.5 Z M 122.160156 201.660156 " clip-rule="nonzero"/></clipPath><clipPath id="e3a4b00f8c"><path d="M 122.160156 201.660156 L 169.796875 212.015625 L 161.351562 250.855469 L 113.714844 240.5 Z M 122.160156 201.660156 " clip-rule="nonzero"/></clipPath><clipPath id="f7513a9cc1"><path d="M 122.160156 201.660156 L 169.796875 212.015625 L 161.351562 250.855469 L 113.714844 240.5 Z M 122.160156 201.660156 " clip-rule="nonzero"/></clipPath><clipPath id="45220fe00e"><path d="M 134 220 L 137 220 L 137 222 L 134 222 Z M 134 220 " clip-rule="nonzero"/></clipPath><clipPath id="522f85bb5d"><path d="M 122.160156 201.660156 L 169.796875 212.015625 L 161.351562 250.855469 L 113.714844 240.5 Z M 122.160156 201.660156 " clip-rule="nonzero"/></clipPath><clipPath id="bc9c123659"><path d="M 122.160156 201.660156 L 169.796875 212.015625 L 161.351562 250.855469 L 113.714844 240.5 Z M 122.160156 201.660156 " clip-rule="nonzero"/></clipPath><clipPath id="c34b866f06"><path d="M 122.160156 201.660156 L 169.796875 212.015625 L 161.351562 250.855469 L 113.714844 240.5 Z M 122.160156 201.660156 " clip-rule="nonzero"/></clipPath><clipPath id="2ad085b888"><path d="M 134 219 L 138 219 L 138 223 L 134 223 Z M 134 219 " clip-rule="nonzero"/></clipPath><clipPath id="3dcbd0618c"><path d="M 122.160156 201.660156 L 169.796875 212.015625 L 161.351562 250.855469 L 113.714844 240.5 Z M 122.160156 201.660156 " clip-rule="nonzero"/></clipPath><clipPath id="daba6ea2e3"><path d="M 122.160156 201.660156 L 169.796875 212.015625 L 161.351562 250.855469 L 113.714844 240.5 Z M 122.160156 201.660156 " clip-rule="nonzero"/></clipPath><clipPath id="294a1c23bf"><path d="M 122.160156 201.660156 L 169.796875 212.015625 L 161.351562 250.855469 L 113.714844 240.5 Z M 122.160156 201.660156 " clip-rule="nonzero"/></clipPath><clipPath id="fa3bf4a206"><path d="M 126 206 L 131 206 L 131 212 L 126 212 Z M 126 206 " clip-rule="nonzero"/></clipPath><clipPath id="0c59eaa867"><path d="M 122.160156 201.660156 L 169.796875 212.015625 L 161.351562 250.855469 L 113.714844 240.5 Z M 122.160156 201.660156 " clip-rule="nonzero"/></clipPath><clipPath id="0eee1353a1"><path d="M 122.160156 201.660156 L 169.796875 212.015625 L 161.351562 250.855469 L 113.714844 240.5 Z M 122.160156 201.660156 " clip-rule="nonzero"/></clipPath><clipPath id="d9bd1d2920"><path d="M 122.160156 201.660156 L 169.796875 212.015625 L 161.351562 250.855469 L 113.714844 240.5 Z M 122.160156 201.660156 " clip-rule="nonzero"/></clipPath><clipPath id="4e5c20ff43"><path d="M 134 215 L 146 215 L 146 228 L 134 228 Z M 134 215 " clip-rule="nonzero"/></clipPath><clipPath id="ee9e58d7ea"><path d="M 122.160156 201.660156 L 169.796875 212.015625 L 161.351562 250.855469 L 113.714844 240.5 Z M 122.160156 201.660156 " clip-rule="nonzero"/></clipPath><clipPath id="6e38043e35"><path d="M 122.160156 201.660156 L 169.796875 212.015625 L 161.351562 250.855469 L 113.714844 240.5 Z M 122.160156 201.660156 " clip-rule="nonzero"/></clipPath><clipPath id="ca34a3c312"><path d="M 122.160156 201.660156 L 169.796875 212.015625 L 161.351562 250.855469 L 113.714844 240.5 Z M 122.160156 201.660156 " clip-rule="nonzero"/></clipPath><clipPath id="0efc43d0fc"><path d="M 148 233 L 158 233 L 158 245 L 148 245 Z M 148 233 " clip-rule="nonzero"/></clipPath><clipPath id="dd2b3ba62c"><path d="M 122.160156 201.660156 L 169.796875 212.015625 L 161.351562 250.855469 L 113.714844 240.5 Z M 122.160156 201.660156 " clip-rule="nonzero"/></clipPath><clipPath id="5ade2e09af"><path d="M 122.160156 201.660156 L 169.796875 212.015625 L 161.351562 250.855469 L 113.714844 240.5 Z M 122.160156 201.660156 " clip-rule="nonzero"/></clipPath><clipPath id="e96a5a05f8"><path d="M 122.160156 201.660156 L 169.796875 212.015625 L 161.351562 250.855469 L 113.714844 240.5 Z M 122.160156 201.660156 " clip-rule="nonzero"/></clipPath><clipPath id="1f11d58f0b"><path d="M 157 243 L 162 243 L 162 248 L 157 248 Z M 157 243 " clip-rule="nonzero"/></clipPath><clipPath id="dbfdb3e8e5"><path d="M 122.160156 201.660156 L 169.796875 212.015625 L 161.351562 250.855469 L 113.714844 240.5 Z M 122.160156 201.660156 " clip-rule="nonzero"/></clipPath><clipPath id="e2474c8b17"><path d="M 122.160156 201.660156 L 169.796875 212.015625 L 161.351562 250.855469 L 113.714844 240.5 Z M 122.160156 201.660156 " clip-rule="nonzero"/></clipPath><clipPath id="3be8023272"><path d="M 122.160156 201.660156 L 169.796875 212.015625 L 161.351562 250.855469 L 113.714844 240.5 Z M 122.160156 201.660156 " clip-rule="nonzero"/></clipPath></defs><g clip-path="url(#a88f68334a)"><path fill="#f6f6f6" d="M 183.871094 260.441406 C 186.050781 262.6875 208.941406 262.289062 210.65625 261.761719 C 212.371094 261.230469 212.769531 258.058594 210.921875 254.691406 C 209.074219 251.320312 201.355469 249.933594 201.355469 249.933594 C 201.355469 249.933594 201.089844 243.542969 200.863281 238.4375 C 200.71875 235.125 200.589844 232.351562 200.5625 232.222656 L 200.628906 231.957031 C 200.628906 231.957031 184.402344 236.980469 184.335938 236.847656 C 184.308594 236.800781 184.265625 239.128906 184.222656 242.054688 C 184.148438 246.894531 184.070312 253.367188 184.070312 253.367188 C 184.070312 253.367188 181.695312 258.191406 183.871094 260.441406 Z M 183.871094 260.441406 " fill-opacity="1" fill-rule="nonzero"/></g><path fill="#54a3e6" d="M 184.222656 242.054688 C 192.398438 241.832031 197.699219 240.015625 200.863281 238.4375 C 200.71875 235.125 200.589844 232.351562 200.5625 232.222656 L 200.628906 231.957031 C 200.628906 231.957031 184.402344 236.980469 184.335938 236.847656 C 184.308594 236.800781 184.265625 239.128906 184.222656 242.054688 Z M 184.222656 242.054688 " fill-opacity="1" fill-rule="nonzero"/><g clip-path="url(#f3e8258dde)"><path fill="#f6f6f6" d="M 178.578125 260.769531 C 176.398438 263.015625 153.507812 262.621094 151.792969 262.089844 C 150.078125 261.5625 149.683594 258.390625 151.527344 255.019531 C 153.375 251.648438 161.09375 250.261719 161.09375 250.261719 C 161.09375 250.261719 161.363281 243.875 161.585938 238.769531 C 161.730469 235.453125 161.859375 232.683594 161.886719 232.554688 L 161.820312 232.289062 C 161.820312 232.289062 178.050781 237.3125 178.117188 237.179688 C 178.140625 237.128906 178.183594 239.457031 178.230469 242.382812 C 178.300781 247.226562 178.378906 253.699219 178.378906 253.699219 C 178.378906 253.699219 180.753906 258.523438 178.578125 260.769531 Z M 178.578125 260.769531 " fill-opacity="1" fill-rule="nonzero"/></g><path fill="#54a3e6" d="M 178.230469 242.382812 C 170.050781 242.164062 164.75 240.347656 161.585938 238.769531 C 161.730469 235.453125 161.859375 232.683594 161.886719 232.554688 L 161.820312 232.289062 C 161.820312 232.289062 178.050781 237.3125 178.117188 237.179688 C 178.140625 237.128906 178.183594 239.460938 178.230469 242.382812 Z M 178.230469 242.382812 " fill-opacity="1" fill-rule="nonzero"/><path fill="#f6f6f6" d="M 177.871094 236.78125 C 177.871094 236.800781 177.871094 236.878906 177.871094 237.011719 C 178 237.035156 178.066406 237.046875 178.066406 237.046875 Z M 177.871094 236.78125 " fill-opacity="1" fill-rule="nonzero"/><path fill="#f6f6f6" d="M 163.15625 236.714844 C 174.109375 240.613281 201.222656 241.144531 205.90625 226.472656 C 207.070312 222.828125 207.519531 218.808594 207.527344 214.820312 C 207.527344 214.1875 207.519531 213.554688 207.5 212.925781 C 207.140625 201.554688 203.550781 190.949219 203.269531 190.523438 L 162.496094 194.886719 C 162.496094 194.886719 159.332031 197.992188 157.550781 204.667969 C 156.988281 206.773438 156.246094 210.355469 155.84375 214.394531 C 155.707031 215.734375 155.613281 217.125 155.570312 218.53125 C 155.339844 226.292969 156.8125 234.457031 163.15625 236.714844 Z M 163.15625 236.714844 " fill-opacity="1" fill-rule="nonzero"/><path fill="#f6f6f6" d="M 140.792969 241.9375 C 144.15625 248.941406 151.347656 252.179688 154.84375 249.601562 C 158.34375 247.023438 153.789062 241.605469 153.460938 241.078125 C 153.128906 240.550781 154.382812 241.804688 156.097656 241.9375 C 157.8125 242.070312 159.527344 240.550781 158.933594 238.632812 C 158.339844 236.714844 156.097656 230.109375 158.210938 217.882812 C 160.320312 205.65625 167.246094 197.597656 168.105469 197.132812 C 168.105469 197.132812 164.214844 195.152344 157.285156 197.199219 C 150.359375 199.25 145.542969 207.839844 143.367188 213.191406 C 143.113281 213.816406 142.835938 214.59375 142.550781 215.488281 C 142.269531 216.382812 141.976562 217.398438 141.691406 218.5 C 139.820312 225.699219 138.214844 236.570312 140.792969 241.9375 Z M 140.792969 241.9375 " fill-opacity="1" fill-rule="nonzero"/><path fill="#54a3e6" d="M 142.367188 216.085938 C 145.460938 218.460938 150.066406 220.710938 155.933594 218.972656 L 155.835938 222.542969 C 155.835938 222.542969 149.699219 224.425781 141.980469 219.371094 C 141.832031 219.273438 141.683594 219.175781 141.542969 219.078125 Z M 142.367188 216.085938 " fill-opacity="1" fill-rule="nonzero"/><path fill="#54a3e6" d="M 177.871094 236.78125 C 177.871094 236.800781 177.871094 236.878906 177.871094 237.011719 C 178 237.035156 178.066406 237.046875 178.066406 237.046875 Z M 177.871094 236.78125 " fill-opacity="1" fill-rule="nonzero"/><path fill="#54a3e6" d="M 155.570312 218.53125 C 160.042969 219.933594 190.601562 225.085938 207.527344 214.820312 C 207.527344 214.1875 207.519531 213.554688 207.5 212.925781 C 199.636719 215.011719 173.90625 221.75 155.769531 215.171875 C 155.632812 216.515625 155.613281 217.125 155.570312 218.53125 Z M 155.570312 218.53125 " fill-opacity="1" fill-rule="nonzero"/><path fill="#54a3e6" d="M 159.726562 203.476562 C 160.011719 203.238281 152.996094 211.671875 157.417969 229.710938 C 157.417969 229.710938 149.699219 211.871094 159.726562 203.476562 Z M 159.726562 203.476562 " fill-opacity="1" fill-rule="nonzero"/><path fill="#f6f6f6" d="M 143.0625 140.660156 C 143.234375 140.679688 143.933594 121.648438 143.933594 121.648438 L 139.496094 121.132812 C 139.496094 121.132812 135.976562 144.320312 136.410156 144.410156 C 136.839844 144.5 143.0625 140.660156 143.0625 140.660156 Z M 143.0625 140.660156 " fill-opacity="1" fill-rule="nonzero"/><path fill="#f6f6f6" d="M 145.042969 115.339844 C 145.230469 115.527344 145.394531 115.730469 145.542969 115.949219 C 145.6875 116.167969 145.8125 116.398438 145.910156 116.640625 C 146.011719 116.886719 146.089844 117.136719 146.140625 117.394531 C 146.191406 117.652344 146.21875 117.914062 146.21875 118.179688 C 146.21875 118.441406 146.191406 118.703125 146.140625 118.960938 C 146.089844 119.21875 146.011719 119.472656 145.910156 119.714844 C 145.8125 119.957031 145.6875 120.191406 145.542969 120.410156 C 145.394531 120.628906 145.230469 120.832031 145.042969 121.015625 C 144.855469 121.203125 144.65625 121.371094 144.4375 121.515625 C 144.21875 121.664062 143.984375 121.785156 143.742188 121.886719 C 143.5 121.988281 143.25 122.0625 142.992188 122.117188 C 142.734375 122.167969 142.472656 122.191406 142.210938 122.191406 C 141.945312 122.191406 141.683594 122.167969 141.425781 122.117188 C 141.167969 122.0625 140.917969 121.988281 140.675781 121.886719 C 140.433594 121.785156 140.203125 121.664062 139.984375 121.515625 C 139.765625 121.371094 139.5625 121.203125 139.375 121.015625 C 139.1875 120.832031 139.023438 120.628906 138.875 120.410156 C 138.730469 120.191406 138.605469 119.957031 138.507812 119.714844 C 138.40625 119.472656 138.328125 119.21875 138.277344 118.960938 C 138.226562 118.703125 138.203125 118.441406 138.203125 118.179688 C 138.203125 117.914062 138.226562 117.652344 138.277344 117.394531 C 138.328125 117.136719 138.40625 116.886719 138.507812 116.640625 C 138.605469 116.398438 138.730469 116.167969 138.875 115.949219 C 139.023438 115.730469 139.1875 115.527344 139.375 115.339844 C 139.5625 115.152344 139.765625 114.988281 139.984375 114.839844 C 140.203125 114.695312 140.433594 114.570312 140.675781 114.46875 C 140.917969 114.367188 141.167969 114.292969 141.425781 114.242188 C 141.683594 114.191406 141.945312 114.164062 142.210938 114.164062 C 142.472656 114.164062 142.734375 114.191406 142.992188 114.242188 C 143.25 114.292969 143.5 114.367188 143.742188 114.46875 C 143.984375 114.570312 144.21875 114.695312 144.4375 114.839844 C 144.65625 114.988281 144.855469 115.152344 145.042969 115.339844 Z M 145.042969 115.339844 " fill-opacity="1" fill-rule="nonzero"/><g clip-path="url(#d7721aa2ed)"><path fill="#54a3e6" d="M 137.828125 167.566406 L 139.671875 167.859375 C 143.972656 168.535156 148.007812 165.59375 148.6875 161.285156 L 150.972656 146.71875 C 151.648438 142.410156 148.710938 138.367188 144.40625 137.691406 L 142.566406 137.402344 C 138.261719 136.722656 134.226562 139.667969 133.550781 143.976562 L 131.265625 158.539062 C 130.589844 162.847656 133.527344 166.890625 137.828125 167.566406 Z M 137.828125 167.566406 " fill-opacity="1" fill-rule="nonzero"/></g><path fill="#f6f6f6" d="M 229.609375 153.617188 C 229.4375 153.574219 235.183594 135.421875 235.183594 135.421875 L 239.535156 136.433594 C 239.535156 136.433594 235.046875 159.453125 234.609375 159.390625 C 234.171875 159.332031 229.609375 153.617188 229.609375 153.617188 Z M 229.609375 153.617188 " fill-opacity="1" fill-rule="nonzero"/><path fill="#f6f6f6" d="M 240.808594 129.898438 C 240.996094 130.085938 241.160156 130.289062 241.308594 130.507812 C 241.453125 130.726562 241.578125 130.957031 241.679688 131.199219 C 241.777344 131.445312 241.855469 131.695312 241.90625 131.953125 C 241.957031 132.210938 241.984375 132.472656 241.984375 132.738281 C 241.984375 133 241.957031 133.261719 241.90625 133.519531 C 241.855469 133.777344 241.777344 134.03125 241.679688 134.273438 C 241.578125 134.515625 241.453125 134.746094 241.308594 134.96875 C 241.160156 135.1875 240.996094 135.390625 240.808594 135.574219 C 240.625 135.761719 240.421875 135.929688 240.203125 136.074219 C 239.984375 136.222656 239.753906 136.34375 239.507812 136.445312 C 239.265625 136.546875 239.015625 136.621094 238.757812 136.675781 C 238.5 136.726562 238.238281 136.75 237.976562 136.75 C 237.710938 136.75 237.453125 136.726562 237.195312 136.675781 C 236.933594 136.621094 236.683594 136.546875 236.441406 136.445312 C 236.199219 136.34375 235.96875 136.222656 235.75 136.074219 C 235.53125 135.929688 235.328125 135.761719 235.140625 135.574219 C 234.957031 135.390625 234.789062 135.1875 234.644531 134.96875 C 234.496094 134.746094 234.375 134.515625 234.273438 134.273438 C 234.171875 134.03125 234.097656 133.777344 234.042969 133.519531 C 233.992188 133.261719 233.96875 133 233.96875 132.738281 C 233.96875 132.472656 233.992188 132.210938 234.042969 131.953125 C 234.097656 131.695312 234.171875 131.445312 234.273438 131.199219 C 234.375 130.957031 234.496094 130.726562 234.644531 130.507812 C 234.789062 130.289062 234.957031 130.085938 235.140625 129.898438 C 235.328125 129.710938 235.53125 129.546875 235.75 129.398438 C 235.96875 129.253906 236.199219 129.128906 236.441406 129.027344 C 236.683594 128.925781 236.933594 128.851562 237.195312 128.800781 C 237.453125 128.746094 237.710938 128.722656 237.976562 128.722656 C 238.238281 128.722656 238.5 128.746094 238.757812 128.800781 C 239.015625 128.851562 239.265625 128.925781 239.507812 129.027344 C 239.753906 129.128906 239.984375 129.253906 240.203125 129.398438 C 240.421875 129.546875 240.625 129.710938 240.808594 129.898438 Z M 240.808594 129.898438 " fill-opacity="1" fill-rule="nonzero"/><path fill="#54a3e6" d="M 225.480469 180.714844 L 223.644531 180.367188 C 219.367188 179.550781 216.558594 175.417969 217.371094 171.132812 L 220.121094 156.648438 C 220.933594 152.363281 225.0625 149.550781 229.339844 150.367188 L 231.171875 150.714844 C 235.449219 151.527344 238.257812 155.664062 237.445312 159.949219 L 234.695312 174.429688 C 233.882812 178.714844 229.757812 181.53125 225.480469 180.714844 Z M 225.480469 180.714844 " fill-opacity="1" fill-rule="nonzero"/><path fill="#f6f6f6" d="M 139.128906 153.4375 C 135.273438 176.320312 152.570312 194.25 177.234375 198.417969 C 201.902344 202.585938 224.597656 191.414062 228.453125 168.53125 C 232.304688 145.648438 225.84375 121.769531 191.191406 115.550781 C 156.34375 109.292969 142.984375 130.554688 139.128906 153.4375 Z M 139.128906 153.4375 " fill-opacity="1" fill-rule="nonzero"/><path fill="#160e0b" d="M 203.5625 136.441406 C 203.5625 136.441406 218.476562 139.792969 219.511719 153.316406 C 220.480469 166.058594 218.171875 186.941406 193.121094 189.453125 C 168.070312 191.960938 150.09375 179.8125 147.734375 163.324219 C 145.371094 146.835938 152.648438 133.609375 162.238281 131.804688 C 175.421875 129.324219 203.5625 136.441406 203.5625 136.441406 Z M 203.5625 136.441406 " fill-opacity="1" fill-rule="nonzero"/><path fill="#54a3e6" d="M 166.652344 142.839844 C 167.015625 142.917969 167.359375 143.042969 167.695312 143.21875 C 168.027344 143.394531 168.339844 143.613281 168.632812 143.882812 C 168.925781 144.148438 169.191406 144.453125 169.429688 144.800781 C 169.671875 145.144531 169.878906 145.527344 170.058594 145.941406 C 170.238281 146.355469 170.382812 146.792969 170.492188 147.257812 C 170.605469 147.726562 170.679688 148.207031 170.714844 148.707031 C 170.753906 149.203125 170.753906 149.710938 170.71875 150.222656 C 170.683594 150.738281 170.613281 151.25 170.503906 151.757812 C 170.394531 152.265625 170.253906 152.761719 170.074219 153.242188 C 169.898438 153.726562 169.691406 154.1875 169.453125 154.628906 C 169.214844 155.066406 168.949219 155.476562 168.660156 155.859375 C 168.367188 156.238281 168.058594 156.578125 167.726562 156.882812 C 167.394531 157.1875 167.046875 157.449219 166.6875 157.667969 C 166.324219 157.886719 165.957031 158.054688 165.582031 158.179688 C 165.207031 158.300781 164.832031 158.375 164.457031 158.398438 C 164.082031 158.421875 163.714844 158.394531 163.351562 158.316406 C 162.992188 158.242188 162.644531 158.113281 162.308594 157.9375 C 161.976562 157.765625 161.664062 157.542969 161.371094 157.277344 C 161.078125 157.011719 160.8125 156.707031 160.574219 156.359375 C 160.332031 156.011719 160.125 155.632812 159.945312 155.21875 C 159.765625 154.804688 159.621094 154.363281 159.511719 153.898438 C 159.402344 153.433594 159.328125 152.953125 159.289062 152.453125 C 159.25 151.953125 159.25 151.449219 159.285156 150.933594 C 159.320312 150.421875 159.394531 149.910156 159.5 149.402344 C 159.609375 148.894531 159.753906 148.398438 159.929688 147.914062 C 160.105469 147.433594 160.3125 146.96875 160.550781 146.53125 C 160.789062 146.089844 161.054688 145.679688 161.34375 145.300781 C 161.636719 144.921875 161.949219 144.578125 162.28125 144.273438 C 162.613281 143.972656 162.957031 143.710938 163.316406 143.492188 C 163.679688 143.273438 164.046875 143.101562 164.421875 142.980469 C 164.796875 142.855469 165.171875 142.785156 165.546875 142.761719 C 165.921875 142.738281 166.292969 142.765625 166.652344 142.839844 Z M 166.652344 142.839844 " fill-opacity="1" fill-rule="nonzero"/><path fill="#54a3e6" d="M 203.945312 149.917969 C 204.304688 149.992188 204.652344 150.121094 204.988281 150.292969 C 205.320312 150.46875 205.632812 150.691406 205.925781 150.957031 C 206.214844 151.222656 206.484375 151.527344 206.722656 151.875 C 206.964844 152.222656 207.171875 152.601562 207.351562 153.015625 C 207.53125 153.429688 207.675781 153.867188 207.785156 154.335938 C 207.894531 154.800781 207.96875 155.28125 208.007812 155.78125 C 208.046875 156.28125 208.046875 156.785156 208.011719 157.300781 C 207.976562 157.8125 207.902344 158.324219 207.796875 158.832031 C 207.6875 159.339844 207.542969 159.835938 207.367188 160.320312 C 207.191406 160.800781 206.984375 161.261719 206.746094 161.703125 C 206.507812 162.144531 206.242188 162.554688 205.953125 162.933594 C 205.660156 163.3125 205.347656 163.652344 205.015625 163.957031 C 204.683594 164.261719 204.339844 164.523438 203.976562 164.742188 C 203.617188 164.960938 203.25 165.132812 202.875 165.253906 C 202.5 165.378906 202.125 165.449219 201.75 165.472656 C 201.375 165.496094 201.003906 165.46875 200.644531 165.394531 C 200.28125 165.316406 199.933594 165.1875 199.601562 165.015625 C 199.269531 164.839844 198.957031 164.617188 198.664062 164.351562 C 198.371094 164.085938 198.105469 163.78125 197.867188 163.433594 C 197.625 163.089844 197.417969 162.707031 197.238281 162.292969 C 197.058594 161.878906 196.914062 161.441406 196.804688 160.976562 C 196.691406 160.507812 196.617188 160.027344 196.582031 159.527344 C 196.542969 159.027344 196.539062 158.523438 196.578125 158.007812 C 196.613281 157.496094 196.683594 156.984375 196.792969 156.476562 C 196.902344 155.96875 197.042969 155.472656 197.222656 154.988281 C 197.398438 154.507812 197.605469 154.046875 197.84375 153.605469 C 198.082031 153.164062 198.347656 152.757812 198.636719 152.375 C 198.929688 151.996094 199.238281 151.65625 199.570312 151.351562 C 199.902344 151.046875 200.25 150.785156 200.609375 150.566406 C 200.972656 150.347656 201.339844 150.179688 201.714844 150.054688 C 202.089844 149.933594 202.464844 149.859375 202.839844 149.835938 C 203.214844 149.8125 203.582031 149.839844 203.945312 149.917969 Z M 203.945312 149.917969 " fill-opacity="1" fill-rule="nonzero"/><path fill="#f6f6f6" d="M 205.160156 194.074219 C 205.453125 194.203125 215.820312 202 216.589844 209.15625 C 217.359375 216.3125 212.851562 218.953125 212.632812 219.007812 C 212.414062 219.0625 197.960938 207.230469 197.46875 203.597656 C 196.972656 199.964844 203.511719 193.359375 205.160156 194.074219 Z M 205.160156 194.074219 " fill-opacity="1" fill-rule="nonzero"/><path fill="#f6f6f6" d="M 176.972656 200.15625 C 177.136719 203.128906 187.082031 211.277344 189.113281 211.277344 L 190.652344 211.277344 C 190.652344 211.277344 191.929688 212.839844 193.808594 214.597656 C 194.269531 215.03125 194.765625 215.472656 195.289062 215.910156 C 196.941406 217.285156 198.855469 218.578125 200.710938 219.148438 C 205.542969 220.632812 211.972656 219.640625 214.609375 216.726562 C 217.25 213.808594 212.90625 208.414062 210.601562 206.046875 C 209.820312 205.246094 208.464844 204.167969 207.015625 203.09375 C 206.5 202.710938 205.972656 202.324219 205.453125 201.957031 C 203.125 200.292969 200.984375 198.890625 200.984375 198.890625 L 201.039062 199.164062 C 201.011719 199.121094 199.949219 197.203125 200.652344 194.046875 C 201.367188 190.855469 203.183594 189.863281 201.039062 188.046875 C 198.894531 186.230469 196.972656 187.222656 195.820312 188.488281 C 194.664062 189.753906 194.226562 192.175781 194.28125 192.398438 C 194.335938 192.617188 183.234375 183.371094 180.597656 183.148438 C 177.960938 182.929688 177.082031 185.515625 177.519531 187.5 C 177.960938 189.480469 182.246094 191.902344 182.246094 191.902344 C 182.246094 191.902344 179.9375 192.121094 179.277344 193.773438 C 178.621094 195.425781 180.433594 197.351562 180.433594 197.351562 C 180.433594 197.351562 176.804688 197.1875 176.972656 200.15625 Z M 176.972656 200.15625 " fill-opacity="1" fill-rule="nonzero"/><path fill="#54a3e6" d="M 200.324219 209.589844 C 199.789062 210.128906 199.230469 210.648438 198.652344 211.144531 C 198.363281 211.394531 198.066406 211.640625 197.769531 211.878906 C 197.683594 211.949219 197.597656 212.015625 197.511719 212.082031 C 197.496094 212.09375 197.480469 212.109375 197.464844 212.121094 C 197.460938 212.121094 197.457031 212.125 197.453125 212.128906 C 197.453125 212.128906 197.449219 212.132812 197.445312 212.136719 C 197.4375 212.140625 197.429688 212.144531 197.425781 212.148438 C 197.285156 212.257812 197.148438 212.363281 197.007812 212.464844 C 195.976562 213.230469 194.90625 213.941406 193.808594 214.597656 C 194.269531 215.03125 194.765625 215.472656 195.289062 215.910156 C 195.359375 215.867188 195.429688 215.824219 195.496094 215.78125 C 197.09375 214.78125 198.625 213.664062 200.050781 212.429688 C 201.390625 211.269531 202.632812 209.988281 203.726562 208.589844 C 204.832031 207.175781 205.8125 205.667969 206.585938 204.042969 C 206.738281 203.730469 206.425781 204.109375 206.5625 203.789062 C 206.042969 203.40625 205.734375 203.003906 205.214844 202.632812 C 205.164062 202.761719 205.351562 202.207031 205.300781 202.332031 C 204.675781 203.78125 203.894531 205.15625 202.988281 206.441406 C 202.878906 206.597656 202.765625 206.753906 202.652344 206.90625 C 202.601562 206.976562 202.546875 207.042969 202.496094 207.113281 C 202.472656 207.144531 202.410156 207.222656 202.382812 207.257812 C 202.382812 207.261719 202.378906 207.265625 202.378906 207.265625 C 202.378906 207.265625 202.375 207.269531 202.375 207.269531 C 202.375 207.269531 202.375 207.269531 202.375 207.273438 C 202.375 207.273438 202.371094 207.273438 202.371094 207.273438 C 202.371094 207.277344 202.371094 207.277344 202.371094 207.277344 C 202.171875 207.527344 201.972656 207.777344 201.765625 208.019531 " fill-opacity="1" fill-rule="nonzero"/><path fill="#160e0b" d="M 200.710938 219.492188 C 200.675781 219.492188 200.640625 219.488281 200.609375 219.476562 C 198.550781 218.847656 196.203125 217.308594 193.632812 214.90625 C 191.726562 213.128906 190.398438 211.511719 190.386719 211.496094 C 190.378906 211.488281 190.375 211.484375 190.371094 211.476562 L 190.652344 211.597656 L 190.652344 211.273438 C 190.652344 211.273438 190.921875 211.054688 190.921875 211.054688 C 190.933594 211.070312 192.238281 212.660156 194.109375 214.40625 C 196.570312 216.699219 198.886719 218.222656 200.8125 218.8125 C 200.992188 218.871094 201.097656 219.066406 201.039062 219.246094 C 200.996094 219.398438 200.855469 219.492188 200.710938 219.492188 Z M 189.113281 211.621094 C 187.875 211.621094 184.617188 209.273438 182.113281 207.09375 C 180.621094 205.792969 179.332031 204.503906 178.386719 203.371094 C 177.261719 202.023438 176.667969 200.949219 176.625 200.175781 C 176.578125 199.296875 176.824219 198.578125 177.359375 198.035156 C 178.046875 197.339844 179.058594 197.109375 179.734375 197.035156 C 179.203125 196.292969 178.445312 194.921875 178.957031 193.644531 C 179.410156 192.507812 180.519531 191.980469 181.316406 191.742188 C 180.910156 191.484375 180.382812 191.132812 179.839844 190.71875 C 178.277344 189.535156 177.382812 188.476562 177.183594 187.574219 C 176.875 186.1875 177.1875 184.703125 177.980469 183.796875 C 178.625 183.058594 179.539062 182.714844 180.625 182.804688 C 181.566406 182.882812 183.464844 183.941406 186.425781 186.035156 C 188.8125 187.726562 191.382812 189.734375 192.917969 190.933594 C 193.335938 191.261719 193.722656 191.5625 194 191.777344 C 194.0625 191.449219 194.160156 191.070312 194.265625 190.730469 C 194.496094 190 194.90625 188.976562 195.5625 188.253906 C 196.070312 187.699219 196.902344 186.992188 197.988281 186.773438 C 199.105469 186.550781 200.207031 186.890625 201.261719 187.785156 C 202.03125 188.433594 202.378906 189.03125 202.398438 189.722656 C 202.414062 190.339844 202.15625 190.933594 201.835938 191.6875 C 201.542969 192.363281 201.214844 193.128906 200.992188 194.125 C 200.640625 195.695312 200.753906 196.9375 200.910156 197.699219 C 201.050781 198.375 201.246094 198.808594 201.3125 198.945312 L 209.257812 205.722656 C 209.402344 205.84375 209.421875 206.0625 209.296875 206.210938 C 209.175781 206.355469 208.957031 206.375 208.808594 206.25 L 200.816406 199.429688 C 200.785156 199.40625 200.757812 199.375 200.738281 199.339844 C 200.691406 199.253906 199.582031 197.257812 200.316406 193.972656 C 200.554688 192.914062 200.910156 192.082031 201.199219 191.414062 C 201.800781 190.015625 202.074219 189.378906 200.816406 188.3125 C 198.671875 186.496094 196.925781 187.789062 196.074219 188.722656 C 195.519531 189.332031 195.160156 190.21875 194.953125 190.855469 C 194.710938 191.605469 194.621094 192.207031 194.621094 192.339844 C 194.644531 192.476562 194.585938 192.613281 194.46875 192.691406 C 194.261719 192.824219 194.078125 192.695312 193.953125 192.609375 C 193.878906 192.554688 193.773438 192.476562 193.625 192.363281 C 193.351562 192.152344 192.972656 191.855469 192.492188 191.480469 C 190.960938 190.285156 188.398438 188.28125 186.023438 186.601562 C 182.515625 184.117188 181.121094 183.542969 180.570312 183.496094 C 179.699219 183.421875 179.003906 183.679688 178.5 184.253906 C 177.851562 185 177.597656 186.246094 177.859375 187.421875 C 178.191406 188.921875 181.261719 190.945312 182.417969 191.601562 C 182.546875 191.675781 182.617188 191.824219 182.585938 191.972656 C 182.554688 192.121094 182.429688 192.234375 182.277344 192.246094 C 182.257812 192.25 180.171875 192.46875 179.601562 193.902344 C 179.03125 195.324219 180.667969 197.09375 180.683594 197.113281 C 180.78125 197.214844 180.804688 197.367188 180.746094 197.496094 C 180.6875 197.625 180.558594 197.703125 180.417969 197.699219 C 180.402344 197.695312 178.726562 197.636719 177.851562 198.527344 C 177.453125 198.929688 177.28125 199.457031 177.316406 200.140625 C 177.382812 201.320312 179.445312 203.84375 182.570312 206.570312 C 185.699219 209.296875 188.355469 210.929688 189.113281 210.929688 L 189.910156 211.277344 Z M 193.933594 192.429688 C 193.9375 192.445312 193.941406 192.464844 193.945312 192.480469 C 193.941406 192.464844 193.9375 192.449219 193.933594 192.429688 Z M 194.617188 192.3125 Z M 190.371094 211.074219 C 190.433594 210.984375 190.539062 210.929688 190.652344 210.929688 L 190.707031 210.929688 Z M 190.371094 211.074219 " fill-opacity="1" fill-rule="nonzero"/><path fill="#160e0b" d="M 188.015625 195.851562 C 187.585938 195.644531 187.210938 195.355469 186.835938 195.070312 C 186.429688 194.769531 186.027344 194.460938 185.628906 194.152344 C 184.820312 193.527344 184.027344 192.890625 183.242188 192.242188 C 183.125 192.144531 182.957031 192.125 182.839844 192.242188 C 182.742188 192.34375 182.722656 192.542969 182.839844 192.644531 C 183.640625 193.304688 184.453125 193.953125 185.273438 194.589844 C 185.679688 194.90625 186.089844 195.21875 186.5 195.523438 C 186.910156 195.832031 187.28125 196.128906 187.730469 196.339844 C 187.867188 196.40625 188.035156 196.378906 188.117188 196.238281 C 188.1875 196.113281 188.152344 195.917969 188.015625 195.851562 Z M 188.015625 195.851562 " fill-opacity="1" fill-rule="nonzero"/><path fill="#160e0b" d="M 184.683594 200.527344 L 184.65625 200.414062 C 184.792969 200.359375 184.933594 200.300781 185.070312 200.246094 C 184.347656 199.929688 183.675781 199.496094 183.066406 198.996094 C 182.765625 198.746094 182.472656 198.484375 182.191406 198.210938 C 181.90625 197.933594 181.589844 197.648438 181.34375 197.335938 L 181.417969 197.460938 L 181.402344 197.421875 L 181.402344 197.574219 L 181.410156 197.539062 C 181.367188 197.59375 181.324219 197.652344 181.28125 197.707031 L 181.296875 197.699219 L 181.078125 197.726562 L 181.097656 197.734375 L 180.972656 197.660156 L 180.984375 197.675781 L 180.914062 197.550781 L 180.917969 197.566406 C 180.960938 197.460938 181.003906 197.351562 181.046875 197.246094 L 181.035156 197.253906 C 180.71875 197.4375 181.003906 197.925781 181.320312 197.742188 L 181.332031 197.734375 C 181.445312 197.671875 181.492188 197.539062 181.464844 197.414062 C 181.394531 197.113281 180.957031 197.089844 180.863281 197.386719 C 180.78125 197.660156 181.0625 197.867188 181.226562 198.042969 C 181.570312 198.402344 181.925781 198.753906 182.300781 199.085938 C 183.046875 199.75 183.867188 200.335938 184.785156 200.734375 C 184.957031 200.808594 185.140625 200.757812 185.203125 200.566406 C 185.25 200.410156 185.207031 200.234375 185.082031 200.128906 C 184.808594 199.890625 184.40625 200.289062 184.679688 200.527344 Z M 184.683594 200.527344 " fill-opacity="1" fill-rule="nonzero"/><path fill="#54a3e6" d="M 190.445312 174.8125 L 169.171875 169.851562 C 169.007812 169.8125 168.855469 169.746094 168.71875 169.644531 C 168.578125 169.546875 168.464844 169.425781 168.375 169.28125 C 168.285156 169.136719 168.226562 168.980469 168.199219 168.8125 C 168.171875 168.644531 168.179688 168.480469 168.214844 168.316406 C 168.253906 168.148438 168.324219 167.996094 168.421875 167.859375 C 168.519531 167.722656 168.640625 167.609375 168.785156 167.519531 C 168.929688 167.429688 169.085938 167.371094 169.253906 167.34375 C 169.417969 167.316406 169.585938 167.320312 169.75 167.359375 L 191.023438 172.320312 C 191.1875 172.359375 191.339844 172.429688 191.476562 172.527344 C 191.617188 172.625 191.730469 172.746094 191.820312 172.890625 C 191.90625 173.035156 191.964844 173.191406 191.996094 173.359375 C 192.023438 173.527344 192.015625 173.691406 191.976562 173.859375 C 191.941406 174.023438 191.871094 174.175781 191.773438 174.3125 C 191.671875 174.449219 191.550781 174.566406 191.410156 174.652344 C 191.265625 174.742188 191.109375 174.800781 190.941406 174.832031 C 190.773438 174.859375 190.609375 174.851562 190.445312 174.8125 Z M 190.445312 174.8125 " fill-opacity="1" fill-rule="nonzero"/><path fill="#54a3e6" d="M 202.371094 207.273438 C 202.371094 207.273438 202.371094 207.273438 202.375 207.273438 L 202.375 207.269531 C 202.375 207.269531 202.371094 207.273438 202.371094 207.273438 Z M 202.371094 207.273438 " fill-opacity="1" fill-rule="nonzero"/><g clip-path="url(#32bb4e28ef)"><g clip-path="url(#4b843c0b09)"><g clip-path="url(#3f049f5e9b)"><path fill="#002d75" d="M 208.605469 111.285156 C 208.550781 111.621094 208.480469 111.949219 208.390625 112.265625 C 207.652344 111.535156 206.839844 110.878906 205.96875 110.316406 C 201.597656 107.492188 196.832031 105.664062 191.816406 104.878906 C 186.796875 104.09375 181.703125 104.382812 176.675781 105.734375 C 175.671875 106.003906 174.699219 106.382812 173.773438 106.851562 C 173.785156 106.519531 173.816406 106.1875 173.871094 105.851562 C 174.589844 101.253906 178.917969 98.097656 183.515625 98.816406 L 201.566406 101.640625 C 206.167969 102.359375 209.324219 106.6875 208.605469 111.285156 Z M 208.605469 111.285156 " fill-opacity="1" fill-rule="nonzero"/></g></g></g><g clip-path="url(#1eb65d1a0b)"><g clip-path="url(#b9fb965b69)"><g clip-path="url(#b8699bf2c0)"><path fill="#002d75" d="M 207.902344 113.574219 C 207.15625 112.777344 206.285156 112.035156 205.28125 111.382812 C 201.058594 108.660156 196.460938 106.890625 191.617188 106.136719 C 186.777344 105.378906 181.859375 105.65625 177.003906 106.960938 C 175.847656 107.273438 174.792969 107.714844 173.839844 108.246094 C 173.636719 108.355469 173.4375 108.472656 173.246094 108.59375 C 173.847656 112.375 176.820312 115.503906 180.808594 116.128906 L 188.007812 117.253906 L 188.15625 116.308594 L 185.875 115.949219 C 184.945312 115.804688 184.324219 114.867188 184.480469 113.859375 C 184.640625 112.851562 185.519531 112.152344 186.445312 112.296875 L 188.726562 112.652344 L 189.082031 110.371094 C 189.230469 109.445312 190.164062 108.820312 191.171875 108.980469 C 192.179688 109.136719 192.882812 110.015625 192.738281 110.945312 L 192.378906 113.226562 L 194.664062 113.582031 C 195.589844 113.726562 196.210938 114.660156 196.054688 115.671875 C 195.894531 116.679688 195.015625 117.378906 194.089844 117.234375 L 191.808594 116.878906 L 191.660156 117.828125 L 198.859375 118.953125 C 202.847656 119.578125 206.632812 117.503906 208.363281 114.085938 C 208.214844 113.914062 208.0625 113.742188 207.902344 113.574219 Z M 207.902344 113.574219 " fill-opacity="1" fill-rule="nonzero"/></g></g></g><g clip-path="url(#ea96ba9c15)"><g clip-path="url(#51a5e60012)"><g clip-path="url(#e9e1e8917a)"><path fill="#ffffff" d="M 208.363281 114.085938 C 208.214844 113.914062 208.0625 113.742188 207.902344 113.574219 C 206.347656 116.878906 202.746094 118.917969 198.957031 118.324219 L 191.757812 117.199219 L 191.5625 118.453125 L 198.761719 119.582031 C 202.921875 120.230469 206.886719 118.125 208.796875 114.625 C 208.65625 114.445312 208.511719 114.265625 208.363281 114.085938 Z M 180.90625 115.5 C 177.117188 114.90625 174.308594 111.867188 173.839844 108.246094 C 173.636719 108.355469 173.4375 108.472656 173.242188 108.59375 C 173.046875 108.714844 172.855469 108.84375 172.667969 108.972656 C 173.414062 112.890625 176.550781 116.105469 180.707031 116.757812 L 187.910156 117.882812 L 188.105469 116.625 Z M 180.90625 115.5 " fill-opacity="1" fill-rule="nonzero"/></g></g></g><g clip-path="url(#0ae72459d1)"><g clip-path="url(#a9c9ce652c)"><g clip-path="url(#57c226b4fd)"><path fill="#002d75" d="M 211.667969 121.789062 C 211.480469 119.652344 210.613281 116.984375 208.796875 114.625 C 208.65625 114.445312 208.511719 114.265625 208.363281 114.085938 C 208.214844 113.914062 208.0625 113.742188 207.902344 113.574219 C 207.15625 112.777344 206.285156 112.035156 205.28125 111.386719 C 201.058594 108.660156 196.460938 106.890625 191.617188 106.136719 C 186.777344 105.378906 181.859375 105.65625 177.003906 106.960938 C 175.847656 107.273438 174.792969 107.714844 173.839844 108.246094 C 173.636719 108.355469 173.4375 108.472656 173.242188 108.59375 C 173.046875 108.714844 172.855469 108.84375 172.667969 108.972656 C 170.21875 110.667969 168.578125 112.941406 167.746094 114.914062 C 166.75 117.289062 166.6875 119.566406 167.582031 121.152344 C 168.082031 122.074219 168.699219 122.796875 169.375 123.371094 C 169.570312 123.433594 170.039062 123.578125 170.691406 123.722656 L 170.691406 123.726562 C 171.0625 123.808594 171.492188 123.894531 171.964844 123.96875 C 174.34375 124.339844 177.824219 124.414062 180.371094 122.457031 C 180.609375 122.277344 180.835938 122.078125 181.058594 121.859375 C 181.304688 121.613281 181.707031 121.613281 181.957031 121.863281 C 182.203125 122.109375 182.203125 122.511719 181.957031 122.761719 C 179.964844 124.746094 177.371094 125.386719 175.015625 125.460938 C 176.40625 125.550781 177.871094 125.417969 179.316406 125.066406 C 182.433594 124.230469 185.609375 124.050781 188.738281 124.539062 C 191.867188 125.027344 194.835938 126.171875 197.5625 127.929688 C 199.152344 128.902344 200.902344 129.5625 202.601562 129.828125 C 204.628906 130.144531 207.539062 130.046875 209.914062 127.78125 C 211.257812 126.535156 211.890625 124.355469 211.667969 121.789062 Z M 184.679688 120.839844 C 184.015625 121.328125 183.082031 121.179688 182.597656 120.515625 C 182.113281 119.847656 182.257812 118.917969 182.925781 118.433594 C 183.589844 117.949219 184.519531 118.09375 185.003906 118.757812 C 185.488281 119.421875 185.34375 120.355469 184.679688 120.839844 Z M 191.453125 119.160156 C 191.308594 120.085938 190.371094 120.710938 189.363281 120.550781 C 188.355469 120.394531 187.652344 119.515625 187.796875 118.589844 L 188.15625 116.308594 L 185.875 115.949219 C 184.945312 115.804688 184.324219 114.867188 184.480469 113.859375 C 184.636719 112.851562 185.519531 112.152344 186.445312 112.296875 L 188.726562 112.652344 L 189.082031 110.371094 C 189.230469 109.445312 190.164062 108.820312 191.171875 108.980469 C 192.179688 109.136719 192.882812 110.015625 192.738281 110.945312 L 192.378906 113.226562 L 194.660156 113.582031 C 195.589844 113.726562 196.210938 114.660156 196.054688 115.671875 C 195.894531 116.679688 195.015625 117.378906 194.089844 117.234375 L 191.808594 116.878906 Z M 191.453125 119.160156 " fill-opacity="1" fill-rule="nonzero"/><path fill="#002d75" d="M 211.667969 121.789062 C 211.480469 119.652344 210.613281 116.984375 208.796875 114.625 C 208.65625 114.445312 208.511719 114.265625 208.363281 114.085938 C 208.214844 113.914062 208.0625 113.742188 207.902344 113.574219 C 207.15625 112.777344 206.285156 112.035156 205.28125 111.386719 C 201.058594 108.660156 196.460938 106.890625 191.617188 106.136719 C 186.777344 105.378906 181.859375 105.65625 177.003906 106.960938 C 175.847656 107.273438 174.792969 107.714844 173.839844 108.246094 C 173.636719 108.355469 173.4375 108.472656 173.242188 108.59375 C 173.046875 108.714844 172.855469 108.84375 172.667969 108.972656 C 170.21875 110.667969 168.578125 112.941406 167.746094 114.914062 C 166.75 117.289062 166.6875 119.566406 167.582031 121.152344 C 168.082031 122.074219 168.699219 122.796875 169.375 123.371094 C 169.570312 123.433594 170.039062 123.578125 170.691406 123.722656 L 170.691406 123.726562 C 171.0625 123.808594 171.492188 123.894531 171.964844 123.96875 C 174.34375 124.339844 177.824219 124.414062 180.371094 122.457031 C 180.609375 122.277344 180.835938 122.078125 181.058594 121.859375 C 181.304688 121.613281 181.707031 121.613281 181.957031 121.863281 C 182.203125 122.109375 182.203125 122.511719 181.957031 122.761719 C 179.964844 124.746094 177.371094 125.386719 175.015625 125.460938 C 176.40625 125.550781 177.871094 125.417969 179.316406 125.066406 C 182.433594 124.230469 185.609375 124.050781 188.738281 124.539062 C 191.867188 125.027344 194.835938 126.171875 197.5625 127.929688 C 199.152344 128.902344 200.902344 129.5625 202.601562 129.828125 C 204.628906 130.144531 207.539062 130.046875 209.914062 127.78125 C 211.257812 126.535156 211.890625 124.355469 211.667969 121.789062 Z M 184.679688 120.839844 C 184.015625 121.328125 183.082031 121.179688 182.597656 120.515625 C 182.113281 119.847656 182.257812 118.917969 182.925781 118.433594 C 183.589844 117.949219 184.519531 118.09375 185.003906 118.757812 C 185.488281 119.421875 185.34375 120.355469 184.679688 120.839844 Z M 191.453125 119.160156 C 191.308594 120.085938 190.371094 120.710938 189.363281 120.550781 C 188.355469 120.394531 187.652344 119.515625 187.796875 118.589844 L 188.15625 116.308594 L 185.875 115.949219 C 184.945312 115.804688 184.324219 114.867188 184.480469 113.859375 C 184.636719 112.851562 185.519531 112.152344 186.445312 112.296875 L 188.726562 112.652344 L 189.082031 110.371094 C 189.230469 109.445312 190.164062 108.820312 191.171875 108.980469 C 192.179688 109.136719 192.882812 110.015625 192.738281 110.945312 L 192.378906 113.226562 L 194.660156 113.582031 C 195.589844 113.726562 196.210938 114.660156 196.054688 115.671875 C 195.894531 116.679688 195.015625 117.378906 194.089844 117.234375 L 191.808594 116.878906 Z M 191.453125 119.160156 " fill-opacity="1" fill-rule="nonzero"/></g></g></g><g clip-path="url(#d17ece971b)"><g clip-path="url(#38404c8ebd)"><g clip-path="url(#45f57c03f5)"><path fill="#002d75" d="M 180.371094 122.457031 C 177.824219 124.414062 174.34375 124.339844 171.960938 123.96875 C 171.492188 123.894531 171.0625 123.808594 170.691406 123.722656 Z M 180.371094 122.457031 " fill-opacity="1" fill-rule="nonzero"/></g></g></g><g clip-path="url(#2d191d873f)"><g clip-path="url(#24cfdaa884)"><g clip-path="url(#42848e5907)"><g clip-path="url(#baef87da7e)"><path fill="#b1b7bc" d="M 124.421875 207.128906 C 124.34375 207.039062 124.355469 206.898438 124.449219 206.824219 L 126.664062 205.011719 C 126.757812 204.933594 126.898438 204.949219 126.976562 205.042969 L 133.039062 212.402344 C 133.117188 212.496094 133.105469 212.636719 133.007812 212.710938 L 130.796875 214.523438 C 130.703125 214.601562 130.5625 214.585938 130.488281 214.492188 L 124.421875 207.128906 " fill-opacity="1" fill-rule="nonzero"/><path stroke-linecap="round" transform="matrix(0.0240714, 0.00523292, 0.00521475, -0.0239878, 79.127087, 265.674271)" fill="none" stroke-linejoin="round" d="M 1291.900409 2722.453306 C 1288.026547 2725.353615 1287.278723 2731.052824 1290.357602 2734.818493 L 1362.586609 2826.134281 C 1365.631802 2830.055444 1371.344907 2830.650379 1375.252455 2827.594576 L 1679.205809 2587.105555 C 1683.113357 2584.049751 1683.861181 2578.350543 1680.627348 2574.551071 L 1608.553295 2483.269086 C 1605.508102 2479.347922 1599.794997 2478.752987 1596.042404 2481.842594 Z M 1291.900409 2722.453306 " stroke="#24578f" stroke-width="30" stroke-opacity="1" stroke-miterlimit="10"/></g></g></g></g><g clip-path="url(#9099bfd86b)"><g clip-path="url(#c619d0bf27)"><g clip-path="url(#6faeff3bf7)"><g clip-path="url(#e99b1a3a28)"><path fill="#b1b7bc" d="M 128.085938 215.035156 C 128.007812 214.941406 128.023438 214.804688 128.113281 214.726562 L 133.730469 210.128906 C 133.824219 210.054688 133.960938 210.066406 134.039062 210.160156 L 150.21875 229.792969 C 150.296875 229.886719 150.285156 230.027344 150.191406 230.101562 L 144.574219 234.699219 C 144.480469 234.777344 144.34375 234.761719 144.265625 234.667969 L 128.085938 215.035156 " fill-opacity="1" fill-rule="nonzero"/></g></g></g></g><g clip-path="url(#9ae63d4b96)"><g clip-path="url(#e53607ede9)"><g clip-path="url(#2759dc5315)"><g clip-path="url(#36ac6d32af)"><path stroke-linecap="round" transform="matrix(0.0240714, 0.00523292, 0.00521475, -0.0239878, 79.127087, 265.674271)" fill="none" stroke-linejoin="round" d="M 1505.427708 2439.439942 C 1501.52016 2442.495745 1500.960976 2448.073262 1503.851214 2451.960623 L 1687.027643 2683.586462 C 1690.106521 2687.352131 1695.630986 2688.068757 1699.538534 2685.012954 L 2510.664698 2043.510585 C 2514.572246 2040.454782 2515.32007 2034.755574 2512.241191 2030.989904 L 2329.064763 1799.364065 C 2326.01957 1795.442902 2320.46142 1794.88177 2316.553872 1797.937573 Z M 1505.427708 2439.439942 " stroke="#24578f" stroke-width="30" stroke-opacity="1" stroke-miterlimit="10"/></g></g></g></g><g clip-path="url(#d7f022bb91)"><g clip-path="url(#986997a978)"><g clip-path="url(#18a8d5e751)"><g clip-path="url(#06223b422e)"><path fill="#72c3ee" d="M 131.144531 217.074219 C 131.089844 217.007812 131.097656 216.90625 131.167969 216.851562 L 135.230469 213.527344 C 135.296875 213.472656 135.398438 213.480469 135.453125 213.546875 L 147.160156 227.753906 C 147.214844 227.820312 147.207031 227.917969 147.136719 227.976562 L 143.074219 231.300781 C 143.007812 231.359375 142.90625 231.347656 142.851562 231.277344 L 131.144531 217.074219 " fill-opacity="1" fill-rule="nonzero"/></g></g></g></g><g clip-path="url(#f799b98450)"><g clip-path="url(#a58ce155a7)"><g clip-path="url(#5296a4f9dd)"><g clip-path="url(#5fef347e9f)"><path stroke-linecap="round" transform="matrix(0.0240714, 0.00523292, 0.00521475, -0.0239878, 79.127087, 265.674271)" fill="none" stroke-linejoin="round" d="M 1644.341047 2384.739709 C 1641.599026 2386.90987 1641.033105 2391.020331 1643.350686 2393.80571 L 1775.836781 2561.28672 C 1777.999407 2564.038296 1782.095596 2564.606188 1784.837617 2562.436027 L 2371.751359 2098.210818 C 2374.49338 2096.040657 2375.025615 2092.08569 2372.74172 2089.144817 L 2240.255624 1921.663807 C 2238.126684 1918.756737 2233.99681 1918.344339 2231.221103 1920.669994 Z M 1644.341047 2384.739709 " stroke="#24578f" stroke-width="30" stroke-opacity="1" stroke-miterlimit="10"/></g></g></g></g><g clip-path="url(#915bd7d112)"><g clip-path="url(#b606e48492)"><g clip-path="url(#619ce37ced)"><g clip-path="url(#0373fc6af1)"><path fill="#b1b7bc" d="M 146.507812 233.757812 L 148.890625 231.808594 L 159.097656 244.195312 L 156.714844 246.148438 L 146.507812 233.757812 " fill-opacity="1" fill-rule="nonzero"/><path stroke-linecap="round" transform="matrix(0.0240714, 0.00523292, 0.00521475, -0.0239878, 79.127087, 265.674271)" fill="none" stroke-linejoin="round" d="M 2397.648971 1853.570772 L 2475.362021 1951.782399 L 2987.075671 1547.037186 L 2909.396308 1448.670064 Z M 2397.648971 1853.570772 " stroke="#24578f" stroke-width="30" stroke-opacity="1" stroke-miterlimit="10"/></g></g></g></g><g clip-path="url(#85adc35ce7)"><g clip-path="url(#326c538c9e)"><g clip-path="url(#7cebee371e)"><g clip-path="url(#e22c309cd3)"><path fill="#b1b7bc" d="M 155.066406 247.777344 C 154.992188 247.6875 155.003906 247.546875 155.097656 247.46875 L 160.714844 242.875 C 160.808594 242.796875 160.949219 242.808594 161.023438 242.90625 L 162.238281 244.375 C 162.316406 244.472656 162.300781 244.609375 162.207031 244.6875 L 156.589844 249.28125 C 156.5 249.359375 156.359375 249.347656 156.28125 249.25 L 155.066406 247.777344 " fill-opacity="1" fill-rule="nonzero"/></g></g></g></g><g clip-path="url(#ff14978c03)"><g clip-path="url(#e558051a93)"><g clip-path="url(#9cb491db2a)"><g clip-path="url(#77fb185449)"><path stroke-linecap="round" transform="matrix(0.0240714, 0.00523292, 0.00521475, -0.0239878, 79.127087, 265.674271)" fill="none" stroke-linejoin="round" d="M 2858.052472 1369.563969 C 2854.333564 1372.498081 2853.58574 1378.197289 2856.630932 1382.118453 L 3039.841046 1613.588798 C 3042.886239 1617.509961 3048.565658 1618.260391 3052.351938 1615.01529 L 3113.208633 1567.062163 C 3117.149867 1563.850865 3117.70905 1558.273348 3114.663858 1554.352184 L 2931.453744 1322.88184 C 2928.563505 1318.994479 2922.884086 1318.24405 2918.942852 1321.455348 Z M 2858.052472 1369.563969 " stroke="#24578f" stroke-width="30" stroke-opacity="1" stroke-miterlimit="10"/></g></g></g></g><g clip-path="url(#69be8e77b8)"><g clip-path="url(#52d711deb8)"><g clip-path="url(#deea10d4c7)"><g clip-path="url(#c096719f28)"><path fill="#b1b7bc" d="M 141.660156 236.089844 C 141.582031 235.996094 141.59375 235.855469 141.6875 235.777344 L 151.8125 227.492188 C 151.910156 227.414062 152.046875 227.429688 152.125 227.523438 L 153.105469 228.710938 C 153.183594 228.808594 153.167969 228.945312 153.078125 229.023438 L 142.949219 237.308594 C 142.855469 237.386719 142.714844 237.375 142.640625 237.28125 L 141.660156 236.089844 " fill-opacity="1" fill-rule="nonzero"/><path stroke-linecap="round" transform="matrix(0.0240714, 0.00523292, 0.00521475, -0.0239878, 79.127087, 265.674271)" fill="none" stroke-linejoin="round" d="M 2225.460838 1718.790914 C 2221.55329 1721.846717 2220.805466 1727.545926 2223.850659 1731.467089 L 2554.04522 2148.888477 C 2557.245367 2152.843444 2562.803518 2153.404576 2566.711066 2150.348773 L 2615.845116 2111.563056 C 2619.78635 2108.351758 2620.345534 2102.774241 2617.455296 2098.886881 L 2287.10578 1681.431689 C 2284.060587 1677.510526 2278.381168 1676.760096 2274.628574 1679.849703 Z M 2225.460838 1718.790914 " stroke="#24578f" stroke-width="30" stroke-opacity="1" stroke-miterlimit="10"/></g></g></g></g><g clip-path="url(#da207ca27c)"><g clip-path="url(#8d3b51a4a4)"><g clip-path="url(#c408687bd7)"><g clip-path="url(#2e48f6d4f9)"><path fill="#b1b7bc" d="M 125.558594 205.917969 L 122.476562 202.179688 " fill-opacity="1" fill-rule="nonzero"/></g></g></g></g><g clip-path="url(#588baada04)"><g clip-path="url(#82968e0cb2)"><g clip-path="url(#e03f82b3da)"><g clip-path="url(#857d0bd94d)"><path stroke-linecap="round" transform="matrix(0.0240714, 0.00523292, 0.00521475, -0.0239878, 79.127087, 265.674271)" fill="none" stroke-linejoin="round" d="M 1326.549583 2780.493288 L 1172.053211 2902.630774 " stroke="#24578f" stroke-width="30" stroke-opacity="1" stroke-miterlimit="10"/></g></g></g></g><g clip-path="url(#b750e7666f)"><g clip-path="url(#d3be2ae23e)"><g clip-path="url(#b5a86e9d9a)"><g clip-path="url(#9c78237ff8)"><path fill="#b1b7bc" d="M 142.53125 227.292969 L 140.601562 228.871094 " fill-opacity="1" fill-rule="nonzero"/></g></g></g></g><g clip-path="url(#91af8f29c6)"><g clip-path="url(#5fff7a02b9)"><g clip-path="url(#a658db96d1)"><g clip-path="url(#2b0aac6aaf)"><path stroke-linecap="round" transform="matrix(0.0240714, 0.00523292, 0.00521475, -0.0239878, 79.127087, 265.674271)" fill="none" stroke-linejoin="round" d="M 2184.155359 2076.502445 L 2121.216884 1996.983951 " stroke="#24578f" stroke-width="30" stroke-opacity="1" stroke-miterlimit="10"/></g></g></g></g><g clip-path="url(#43e9d412bc)"><g clip-path="url(#e2fad5a434)"><g clip-path="url(#e3a4b00f8c)"><g clip-path="url(#f7513a9cc1)"><path stroke-linecap="round" transform="matrix(0.0240714, 0.00523292, 0.00521475, -0.0239878, 79.127087, 265.674271)" fill-opacity="1" fill="#b1b7bc" fill-rule="nonzero" stroke-linejoin="round" d="M 2036.874477 2193.048893 L 1973.781047 2113.496596 " stroke="#24578f" stroke-width="30" stroke-opacity="1" stroke-miterlimit="10"/></g></g></g></g><g clip-path="url(#45220fe00e)"><g clip-path="url(#522f85bb5d)"><g clip-path="url(#bc9c123659)"><g clip-path="url(#c34b866f06)"><path fill="#b1b7bc" d="M 136.652344 220.160156 L 134.722656 221.738281 " fill-opacity="1" fill-rule="nonzero"/></g></g></g></g><g clip-path="url(#2ad085b888)"><g clip-path="url(#3dcbd0618c)"><g clip-path="url(#daba6ea2e3)"><g clip-path="url(#294a1c23bf)"><path stroke-linecap="round" transform="matrix(0.0240714, 0.00523292, 0.00521475, -0.0239878, 79.127087, 265.674271)" fill="none" stroke-linejoin="round" d="M 1889.43864 2309.561537 L 1826.500165 2230.043044 " stroke="#24578f" stroke-width="30" stroke-opacity="1" stroke-miterlimit="10"/></g></g></g></g><g clip-path="url(#fa3bf4a206)"><g clip-path="url(#0c59eaa867)"><g clip-path="url(#0eee1353a1)"><g clip-path="url(#d9bd1d2920)"><path stroke-linecap="round" transform="matrix(0.0240714, 0.00523292, 0.00521475, -0.0239878, 79.127087, 265.674271)" fill="none" stroke-linejoin="round" d="M 1369.269864 2764.572012 L 1556.879338 2609.435906 " stroke="#ffffff" stroke-width="30" stroke-opacity="1" stroke-miterlimit="10"/></g></g></g></g><g clip-path="url(#4e5c20ff43)"><g clip-path="url(#ee9e58d7ea)"><g clip-path="url(#6e38043e35)"><g clip-path="url(#ca34a3c312)"><path stroke-linecap="round" transform="matrix(0.0240714, 0.00523292, 0.00521475, -0.0239878, 79.127087, 265.674271)" fill="none" stroke-linejoin="round" d="M 1776.753034 2479.902294 L 2286.829557 2089.455806 " stroke="#ffffff" stroke-width="30" stroke-opacity="1" stroke-miterlimit="10"/></g></g></g></g><g clip-path="url(#0efc43d0fc)"><g clip-path="url(#dd2b3ba62c)"><g clip-path="url(#5ade2e09af)"><g clip-path="url(#e96a5a05f8)"><path stroke-linecap="round" transform="matrix(0.0240714, 0.00523292, 0.00521475, -0.0239878, 79.127087, 265.674271)" fill="none" stroke-linejoin="round" d="M 2486.869077 1869.451485 L 2916.813912 1524.54458 " stroke="#ffffff" stroke-width="30" stroke-opacity="1" stroke-miterlimit="10"/></g></g></g></g><g clip-path="url(#1f11d58f0b)"><g clip-path="url(#dbfdb3e8e5)"><g clip-path="url(#e2474c8b17)"><g clip-path="url(#3be8023272)"><path stroke-linecap="round" transform="matrix(0.0240714, 0.00523292, 0.00521475, -0.0239878, 79.127087, 265.674271)" fill="none" stroke-linejoin="round" d="M 3052.837013 1567.082445 L 3070.151494 1554.575285 L 2949.879855 1406.368822 " stroke="#ffffff" stroke-width="30" stroke-opacity="1" stroke-miterlimit="10"/></g></g></g></g></svg>