<svg xmlns="http://www.w3.org/2000/svg" xmlns:xlink="http://www.w3.org/1999/xlink" width="500" zoomAndPan="magnify" viewBox="0 0 375 374.999991" height="500" preserveAspectRatio="xMidYMid meet" version="1.0"><defs><clipPath id="bb40eb875f"><path d="M 126.875 186 L 212 186 L 212 240 L 126.875 240 Z M 126.875 186 " clip-rule="nonzero"/></clipPath><clipPath id="51978e4ab5"><path d="M 193 228 L 221 228 L 221 262.5 L 193 262.5 Z M 193 228 " clip-rule="nonzero"/></clipPath><clipPath id="789a576616"><path d="M 175 97 L 211 97 L 211 110 L 175 110 Z M 175 97 " clip-rule="nonzero"/></clipPath><clipPath id="e78ba7e676"><path d="M 170.582031 96.613281 L 216.136719 100.816406 L 213.589844 128.449219 L 168.035156 124.246094 Z M 170.582031 96.613281 " clip-rule="nonzero"/></clipPath><clipPath id="21ac120ad5"><path d="M 170.582031 96.613281 L 216.136719 100.816406 L 213.589844 128.449219 L 168.035156 124.246094 Z M 170.582031 96.613281 " clip-rule="nonzero"/></clipPath><clipPath id="73ce0a7307"><path d="M 174 104 L 211 104 L 211 118 L 174 118 Z M 174 104 " clip-rule="nonzero"/></clipPath><clipPath id="f85ddb2167"><path d="M 170.582031 96.613281 L 216.136719 100.816406 L 213.589844 128.449219 L 168.035156 124.246094 Z M 170.582031 96.613281 " clip-rule="nonzero"/></clipPath><clipPath id="34abbdc73c"><path d="M 170.582031 96.613281 L 216.136719 100.816406 L 213.589844 128.449219 L 168.035156 124.246094 Z M 170.582031 96.613281 " clip-rule="nonzero"/></clipPath><clipPath id="98ce3ac75a"><path d="M 174 107 L 211 107 L 211 118 L 174 118 Z M 174 107 " clip-rule="nonzero"/></clipPath><clipPath id="cd9af7a32c"><path d="M 170.582031 96.613281 L 216.136719 100.816406 L 213.589844 128.449219 L 168.035156 124.246094 Z M 170.582031 96.613281 " clip-rule="nonzero"/></clipPath><clipPath id="5b246265de"><path d="M 170.582031 96.613281 L 216.136719 100.816406 L 213.589844 128.449219 L 168.035156 124.246094 Z M 170.582031 96.613281 " clip-rule="nonzero"/></clipPath><clipPath id="0b08cd7a3e"><path d="M 168 104 L 214 104 L 214 128 L 168 128 Z M 168 104 " clip-rule="nonzero"/></clipPath><clipPath id="67c6857534"><path d="M 170.582031 96.613281 L 216.136719 100.816406 L 213.589844 128.449219 L 168.035156 124.246094 Z M 170.582031 96.613281 " clip-rule="nonzero"/></clipPath><clipPath id="3e759a90bd"><path d="M 170.582031 96.613281 L 216.136719 100.816406 L 213.589844 128.449219 L 168.035156 124.246094 Z M 170.582031 96.613281 " clip-rule="nonzero"/></clipPath><clipPath id="a97066e89e"><path d="M 173 121 L 183 121 L 183 124 L 173 124 Z M 173 121 " clip-rule="nonzero"/></clipPath><clipPath id="003ec6f702"><path d="M 170.582031 96.613281 L 216.136719 100.816406 L 213.589844 128.449219 L 168.035156 124.246094 Z M 170.582031 96.613281 " clip-rule="nonzero"/></clipPath><clipPath id="f742619cc3"><path d="M 170.582031 96.613281 L 216.136719 100.816406 L 213.589844 128.449219 L 168.035156 124.246094 Z M 170.582031 96.613281 " clip-rule="nonzero"/></clipPath></defs><path fill="#f6f6f6" d="M 159.976562 259.445312 C 162.105469 263.214844 184.367188 261.28125 185.722656 259.347656 C 186.367188 258.433594 186.464844 252.21875 186.390625 245.945312 C 186.375 244.671875 186.351562 243.394531 186.328125 242.160156 C 186.210938 236.679688 186.015625 232.015625 186.015625 232.015625 C 185.820312 230.46875 169.945312 226.605469 168.882812 227.859375 C 168.210938 228.652344 169.113281 236.164062 169.871094 241.632812 C 170.082031 243.148438 170.285156 244.511719 170.4375 245.527344 C 170.609375 246.667969 170.71875 247.371094 170.71875 247.371094 C 170.71875 247.371094 168.976562 247.371094 166.074219 248.242188 C 163.171875 249.113281 157.847656 255.679688 159.976562 259.445312 Z M 159.976562 259.445312 " fill-opacity="1" fill-rule="nonzero"/><path fill="#54a3e6" d="M 169.871094 241.632812 C 170.082031 243.148438 170.285156 244.511719 170.4375 245.527344 C 170.59375 245.550781 170.753906 245.574219 170.914062 245.601562 C 173.613281 246.011719 176.332031 246.304688 179.0625 246.367188 C 181.503906 246.425781 183.96875 246.3125 186.390625 245.945312 C 186.375 244.671875 186.351562 243.394531 186.328125 242.160156 C 186.011719 242.21875 185.695312 242.269531 185.378906 242.316406 C 184.558594 242.417969 183.738281 242.488281 182.914062 242.539062 C 179.59375 242.738281 176.261719 242.550781 172.964844 242.121094 C 172.960938 242.121094 172.957031 242.121094 172.949219 242.121094 C 171.921875 241.980469 170.894531 241.8125 169.871094 241.632812 Z M 169.871094 241.632812 " fill-opacity="1" fill-rule="nonzero"/><path fill="#f6f6f6" d="M 216.507812 216.882812 C 216.507812 228.671875 205.480469 238.226562 191.875 238.226562 C 178.269531 238.226562 167.238281 228.671875 167.238281 216.882812 C 167.238281 205.089844 178.511719 191.671875 192.117188 191.671875 C 205.722656 191.671875 216.507812 205.089844 216.507812 216.882812 Z M 216.507812 216.882812 " fill-opacity="1" fill-rule="nonzero"/><path fill="#f6f6f6" d="M 128.132812 186.359375 C 128.132812 186.359375 133.941406 184.136719 134.425781 183.941406 C 134.910156 183.75 138.78125 185.875 146.71875 187.710938 C 154.65625 189.546875 158.527344 195.050781 159.496094 197.078125 C 160.464844 199.109375 160.367188 202.199219 160.367188 202.199219 C 160.367188 202.199219 165.304688 193.796875 176.820312 190.316406 C 188.339844 186.839844 196.472656 187.035156 197.148438 186.9375 C 197.828125 186.839844 202.472656 190.222656 202.375 190.609375 C 202.28125 190.992188 188.535156 203.746094 186.308594 204.808594 C 184.082031 205.871094 169.175781 212.632812 164.625 212.921875 C 160.074219 213.210938 149.039062 205.871094 147.6875 205.097656 C 146.332031 204.324219 140.8125 198.433594 139.75 197.753906 C 138.683594 197.078125 127.9375 187.128906 127.9375 187.128906 " fill-opacity="1" fill-rule="nonzero"/><path fill="#f6f6f6" d="M 138.585938 200.941406 C 138.984375 200.324219 166.367188 189.835938 171.402344 190.703125 C 176.433594 191.574219 171.59375 206.546875 165.398438 210.699219 C 159.207031 214.851562 135.007812 206.546875 138.585938 200.945312 Z M 138.585938 200.941406 " fill-opacity="1" fill-rule="nonzero"/><path fill="#54a3e6" d="M 144.222656 137.941406 C 143.941406 137.808594 140.207031 135.007812 135.855469 138.277344 C 131.5 141.550781 129.476562 154.246094 133.109375 162 C 136.742188 169.753906 144.453125 166.3125 144.472656 165.875 C 144.492188 165.441406 144.222656 137.941406 144.222656 137.941406 Z M 144.222656 137.941406 " fill-opacity="1" fill-rule="nonzero"/><path fill="#f6f6f6" d="M 141.488281 137.667969 C 141.261719 137.878906 134.808594 142.164062 135.398438 153.246094 C 135.988281 164.328125 140.210938 167.488281 146.195312 165.78125 C 152.179688 164.078125 152.644531 151.96875 151.976562 147.65625 C 151.308594 143.339844 148.574219 140.820312 148.574219 140.820312 L 152.253906 121.457031 L 148.222656 120.085938 Z M 141.488281 137.667969 " fill-opacity="1" fill-rule="nonzero"/><path fill="#f6f6f6" d="M 153.90625 115.316406 C 154.09375 115.5 154.257812 115.699219 154.402344 115.917969 C 154.550781 116.136719 154.671875 116.363281 154.773438 116.605469 C 154.871094 116.847656 154.949219 117.097656 155 117.351562 C 155.050781 117.609375 155.074219 117.867188 155.074219 118.128906 C 155.074219 118.390625 155.050781 118.648438 155 118.90625 C 154.949219 119.164062 154.871094 119.410156 154.773438 119.652344 C 154.671875 119.894531 154.550781 120.125 154.402344 120.339844 C 154.257812 120.558594 154.09375 120.757812 153.90625 120.945312 C 153.722656 121.128906 153.519531 121.292969 153.304688 121.4375 C 153.085938 121.582031 152.855469 121.707031 152.613281 121.804688 C 152.371094 121.90625 152.121094 121.980469 151.867188 122.03125 C 151.609375 122.082031 151.347656 122.109375 151.085938 122.109375 C 150.824219 122.109375 150.566406 122.082031 150.308594 122.03125 C 150.050781 121.980469 149.804688 121.90625 149.5625 121.804688 C 149.320312 121.707031 149.089844 121.582031 148.871094 121.4375 C 148.652344 121.292969 148.453125 121.128906 148.265625 120.945312 C 148.082031 120.757812 147.917969 120.558594 147.769531 120.339844 C 147.625 120.125 147.503906 119.894531 147.402344 119.652344 C 147.300781 119.410156 147.226562 119.164062 147.175781 118.90625 C 147.125 118.648438 147.097656 118.390625 147.097656 118.128906 C 147.097656 117.867188 147.125 117.609375 147.175781 117.351562 C 147.226562 117.097656 147.300781 116.847656 147.402344 116.605469 C 147.503906 116.363281 147.625 116.136719 147.769531 115.917969 C 147.917969 115.699219 148.082031 115.5 148.265625 115.316406 C 148.453125 115.128906 148.652344 114.964844 148.871094 114.820312 C 149.089844 114.675781 149.320312 114.550781 149.5625 114.453125 C 149.804688 114.351562 150.050781 114.277344 150.308594 114.226562 C 150.566406 114.175781 150.824219 114.148438 151.085938 114.148438 C 151.347656 114.148438 151.609375 114.175781 151.867188 114.226562 C 152.121094 114.277344 152.371094 114.351562 152.613281 114.453125 C 152.855469 114.550781 153.085938 114.675781 153.304688 114.820312 C 153.519531 114.964844 153.722656 115.128906 153.90625 115.316406 Z M 153.90625 115.316406 " fill-opacity="1" fill-rule="nonzero"/><path fill="#4ac95b" d="M 232.960938 141.726562 C 233.023438 141.714844 233.007812 141.621094 232.945312 141.628906 C 232.882812 141.640625 232.898438 141.734375 232.960938 141.726562 Z M 232.960938 141.726562 " fill-opacity="1" fill-rule="nonzero"/><path fill="#f6f6f6" d="M 146.441406 174.636719 C 146.429688 174.621094 146.378906 174.476562 146.296875 174.207031 C 145.148438 170.476562 138.066406 143.285156 155.875 126.527344 C 174.960938 108.566406 204.003906 110.78125 220.472656 122.210938 C 236.941406 133.640625 244.53125 161.683594 228.347656 178.964844 C 212.164062 196.246094 176.539062 194.441406 164.972656 191.175781 C 147.789062 186.324219 146.441406 174.636719 146.441406 174.636719 Z M 146.441406 174.636719 " fill-opacity="1" fill-rule="nonzero"/><path fill="#1e1915" d="M 149.074219 174.460938 C 146.703125 169.628906 142.636719 142.660156 154.683594 136.757812 C 166.730469 130.855469 199.238281 129.300781 206.53125 137.527344 C 213.824219 145.757812 215.007812 175.019531 202.796875 180.601562 C 190.585938 186.183594 156.453125 189.503906 149.074219 174.460938 Z M 149.074219 174.460938 " fill-opacity="1" fill-rule="nonzero"/><path fill="#54a3e6" d="M 190.617188 145.765625 C 191.023438 145.804688 191.421875 145.898438 191.808594 146.046875 C 192.199219 146.195312 192.570312 146.394531 192.921875 146.644531 C 193.277344 146.894531 193.609375 147.191406 193.917969 147.535156 C 194.222656 147.878906 194.503906 148.261719 194.75 148.6875 C 195 149.109375 195.214844 149.5625 195.394531 150.050781 C 195.574219 150.539062 195.71875 151.046875 195.824219 151.578125 C 195.929688 152.109375 195.992188 152.652344 196.019531 153.210938 C 196.042969 153.765625 196.03125 154.324219 195.976562 154.882812 C 195.921875 155.441406 195.828125 155.992188 195.695312 156.53125 C 195.5625 157.070312 195.390625 157.59375 195.1875 158.09375 C 194.980469 158.59375 194.742188 159.066406 194.46875 159.507812 C 194.199219 159.953125 193.902344 160.355469 193.574219 160.722656 C 193.25 161.09375 192.902344 161.414062 192.535156 161.691406 C 192.164062 161.96875 191.78125 162.195312 191.386719 162.375 C 190.988281 162.550781 190.585938 162.675781 190.179688 162.746094 C 189.769531 162.816406 189.359375 162.832031 188.953125 162.792969 C 188.546875 162.753906 188.152344 162.660156 187.761719 162.511719 C 187.375 162.363281 187.003906 162.164062 186.648438 161.914062 C 186.292969 161.664062 185.964844 161.367188 185.65625 161.023438 C 185.347656 160.679688 185.070312 160.296875 184.820312 159.871094 C 184.574219 159.449219 184.359375 158.996094 184.175781 158.507812 C 183.996094 158.019531 183.855469 157.511719 183.75 156.980469 C 183.644531 156.449219 183.578125 155.90625 183.554688 155.347656 C 183.527344 154.792969 183.542969 154.234375 183.597656 153.675781 C 183.652344 153.117188 183.746094 152.566406 183.878906 152.027344 C 184.011719 151.488281 184.179688 150.964844 184.386719 150.464844 C 184.59375 149.964844 184.832031 149.492188 185.101562 149.050781 C 185.375 148.605469 185.671875 148.203125 185.996094 147.835938 C 186.324219 147.46875 186.671875 147.144531 187.039062 146.867188 C 187.40625 146.589844 187.789062 146.363281 188.1875 146.183594 C 188.582031 146.007812 188.984375 145.882812 189.394531 145.8125 C 189.804688 145.742188 190.210938 145.726562 190.617188 145.765625 Z M 190.617188 145.765625 " fill-opacity="1" fill-rule="nonzero"/><path fill="#54a3e6" d="M 167.40625 155.117188 C 167.410156 155.675781 167.371094 156.234375 167.296875 156.785156 C 167.21875 157.335938 167.105469 157.871094 166.957031 158.390625 C 166.804688 158.910156 166.621094 159.402344 166.402344 159.871094 C 166.179688 160.339844 165.929688 160.769531 165.648438 161.167969 C 165.371094 161.566406 165.066406 161.921875 164.734375 162.234375 C 164.402344 162.550781 164.054688 162.8125 163.6875 163.03125 C 163.320312 163.246094 162.941406 163.410156 162.550781 163.519531 C 162.160156 163.632812 161.765625 163.6875 161.367188 163.6875 C 160.96875 163.691406 160.574219 163.636719 160.183594 163.527344 C 159.792969 163.421875 159.410156 163.261719 159.042969 163.046875 C 158.671875 162.832031 158.324219 162.570312 157.988281 162.257812 C 157.65625 161.949219 157.347656 161.59375 157.066406 161.199219 C 156.78125 160.804688 156.53125 160.371094 156.308594 159.90625 C 156.082031 159.441406 155.894531 158.949219 155.742188 158.429688 C 155.585938 157.910156 155.46875 157.375 155.390625 156.824219 C 155.308594 156.273438 155.269531 155.71875 155.265625 155.15625 C 155.265625 154.597656 155.300781 154.039062 155.378906 153.488281 C 155.453125 152.9375 155.566406 152.402344 155.71875 151.882812 C 155.867188 151.363281 156.054688 150.871094 156.273438 150.402344 C 156.492188 149.933594 156.742188 149.5 157.023438 149.105469 C 157.304688 148.707031 157.609375 148.351562 157.941406 148.035156 C 158.269531 147.722656 158.621094 147.460938 158.988281 147.242188 C 159.355469 147.027344 159.734375 146.863281 160.125 146.753906 C 160.515625 146.640625 160.910156 146.585938 161.308594 146.582031 C 161.707031 146.582031 162.101562 146.636719 162.492188 146.742188 C 162.882812 146.851562 163.261719 147.011719 163.632812 147.226562 C 164 147.441406 164.351562 147.703125 164.683594 148.011719 C 165.015625 148.324219 165.324219 148.675781 165.609375 149.074219 C 165.890625 149.46875 166.144531 149.902344 166.367188 150.367188 C 166.589844 150.832031 166.777344 151.324219 166.933594 151.84375 C 167.085938 152.363281 167.203125 152.898438 167.285156 153.445312 C 167.363281 153.996094 167.40625 154.554688 167.40625 155.117188 Z M 167.40625 155.117188 " fill-opacity="1" fill-rule="nonzero"/><path fill="#54a3e6" d="M 165.132812 165.863281 C 165.441406 165.75 168.085938 167.394531 175.082031 166.722656 C 181.804688 166.074219 183.984375 163.328125 184.746094 164.085938 C 185.824219 165.15625 182.761719 175.90625 175.1875 175.984375 C 167.613281 176.066406 163.097656 166.628906 165.132812 165.863281 Z M 165.132812 165.863281 " fill-opacity="1" fill-rule="nonzero"/><path fill="#54a3e6" d="M 235.867188 140.878906 C 235.585938 140.75 231.855469 137.949219 227.5 141.21875 C 223.148438 144.492188 221.125 157.1875 224.757812 164.941406 C 228.386719 172.695312 236.101562 169.253906 236.121094 168.816406 C 236.136719 168.378906 235.867188 140.882812 235.867188 140.882812 Z M 235.867188 140.878906 " fill-opacity="1" fill-rule="nonzero"/><path fill="#f6f6f6" d="M 233.132812 140.609375 C 232.90625 140.820312 226.453125 145.105469 227.042969 156.1875 C 227.632812 167.269531 231.855469 170.425781 237.839844 168.722656 C 243.824219 167.019531 244.289062 154.910156 243.621094 150.597656 C 242.953125 146.28125 240.21875 143.761719 240.21875 143.761719 L 243.898438 124.398438 L 239.867188 123.027344 Z M 233.132812 140.609375 " fill-opacity="1" fill-rule="nonzero"/><path fill="#f6f6f6" d="M 245.550781 118.257812 C 245.738281 118.441406 245.902344 118.640625 246.046875 118.859375 C 246.195312 119.078125 246.316406 119.304688 246.417969 119.546875 C 246.515625 119.789062 246.59375 120.039062 246.644531 120.292969 C 246.695312 120.550781 246.71875 120.808594 246.71875 121.070312 C 246.71875 121.332031 246.695312 121.589844 246.644531 121.847656 C 246.59375 122.101562 246.515625 122.351562 246.417969 122.59375 C 246.316406 122.835938 246.195312 123.0625 246.046875 123.28125 C 245.902344 123.5 245.738281 123.699219 245.550781 123.882812 C 245.367188 124.070312 245.164062 124.234375 244.949219 124.378906 C 244.730469 124.523438 244.5 124.648438 244.257812 124.746094 C 244.015625 124.847656 243.765625 124.921875 243.511719 124.972656 C 243.253906 125.023438 242.996094 125.050781 242.730469 125.050781 C 242.46875 125.050781 242.210938 125.023438 241.953125 124.972656 C 241.699219 124.921875 241.449219 124.847656 241.207031 124.746094 C 240.964844 124.648438 240.734375 124.523438 240.515625 124.378906 C 240.296875 124.234375 240.097656 124.070312 239.914062 123.882812 C 239.726562 123.699219 239.5625 123.5 239.417969 123.28125 C 239.269531 123.0625 239.148438 122.835938 239.046875 122.59375 C 238.949219 122.351562 238.871094 122.101562 238.820312 121.847656 C 238.769531 121.589844 238.742188 121.332031 238.742188 121.070312 C 238.742188 120.808594 238.769531 120.550781 238.820312 120.292969 C 238.871094 120.039062 238.949219 119.789062 239.046875 119.546875 C 239.148438 119.304688 239.269531 119.078125 239.417969 118.859375 C 239.5625 118.640625 239.726562 118.441406 239.914062 118.257812 C 240.097656 118.070312 240.296875 117.90625 240.515625 117.761719 C 240.734375 117.617188 240.964844 117.492188 241.207031 117.394531 C 241.449219 117.292969 241.699219 117.21875 241.953125 117.167969 C 242.210938 117.117188 242.46875 117.089844 242.730469 117.089844 C 242.996094 117.089844 243.253906 117.117188 243.511719 117.167969 C 243.765625 117.21875 244.015625 117.292969 244.257812 117.394531 C 244.5 117.492188 244.730469 117.617188 244.949219 117.761719 C 245.164062 117.90625 245.367188 118.070312 245.550781 118.257812 Z M 245.550781 118.257812 " fill-opacity="1" fill-rule="nonzero"/><path fill="#f6f6f6" d="M 224.46875 213.351562 C 223.929688 214.714844 223.164062 215.90625 222.21875 216.847656 C 221.285156 217.777344 220.175781 218.464844 218.929688 218.84375 C 213.21875 220.582031 209.152344 220.390625 209.152344 219.8125 C 209.152344 219.230469 200.632812 193.730469 202.570312 191.125 C 204.507812 188.515625 210.023438 190.0625 210.023438 190.0625 C 210.796875 190.351562 219.898438 192.863281 223.671875 200.878906 C 225.785156 205.367188 225.835938 209.914062 224.46875 213.351562 Z M 224.46875 213.351562 " fill-opacity="1" fill-rule="nonzero"/><path fill="#1e1915" d="M 207.707031 194.546875 C 208.292969 195.710938 208.902344 196.867188 209.4375 198.054688 C 209.945312 199.179688 210.378906 200.375 210.523438 201.605469 C 210.605469 202.308594 210.609375 203.03125 210.476562 203.726562 C 210.425781 203.992188 210.550781 204.265625 210.824219 204.339844 C 211.070312 204.40625 211.390625 204.257812 211.441406 203.992188 C 211.960938 201.207031 210.835938 198.5625 209.613281 196.125 C 209.265625 195.429688 208.917969 194.738281 208.566406 194.046875 C 208.445312 193.804688 208.109375 193.738281 207.886719 193.867188 C 207.640625 194.007812 207.585938 194.308594 207.707031 194.546875 Z M 207.707031 194.546875 " fill-opacity="1" fill-rule="nonzero"/><g clip-path="url(#bb40eb875f)"><path fill="#ad9079" d="M 203.441406 189.640625 C 203.34375 190.222656 212.445312 223.933594 211.863281 225.1875 C 211.28125 226.445312 176.433594 236.972656 176.433594 236.972656 C 176.433594 236.972656 173.628906 239.675781 170.628906 239.582031 C 167.625 239.484375 163.65625 236.585938 163.65625 236.585938 C 163.65625 236.585938 139.652344 222.675781 139.363281 222.578125 C 139.070312 222.484375 126.875 188.191406 126.875 188.191406 L 128.132812 186.359375 L 154.945312 201.8125 C 154.945312 201.8125 156.882812 203.9375 160.851562 203.9375 C 164.820312 203.9375 165.59375 201.8125 165.59375 201.8125 L 202.375 188.867188 Z M 203.441406 189.640625 " fill-opacity="1" fill-rule="nonzero"/></g><path fill="#f6f6f6" d="M 166.84375 205.152344 C 167.195312 206.078125 167.53125 207.007812 167.855469 207.945312 C 168.175781 208.882812 168.484375 209.820312 168.78125 210.765625 C 169.074219 211.710938 169.355469 212.660156 169.625 213.609375 C 169.898438 214.5625 170.15625 215.519531 170.40625 216.476562 C 170.652344 217.433594 170.894531 218.398438 171.125 219.359375 C 171.355469 220.324219 171.578125 221.289062 171.792969 222.257812 C 172.007812 223.226562 172.214844 224.191406 172.417969 225.160156 C 172.621094 226.125 172.820312 227.097656 173.015625 228.066406 C 173.210938 229.035156 173.402344 230.011719 173.589844 230.988281 C 173.78125 231.960938 173.964844 232.933594 174.152344 233.90625 C 174.199219 234.144531 174.242188 234.382812 174.289062 234.617188 C 174.300781 234.683594 174.398438 234.65625 174.386719 234.589844 C 174.199219 233.617188 174.015625 232.644531 173.824219 231.671875 C 173.636719 230.695312 173.449219 229.722656 173.253906 228.75 C 173.0625 227.777344 172.863281 226.804688 172.664062 225.832031 C 172.460938 224.859375 172.253906 223.890625 172.042969 222.921875 C 171.832031 221.953125 171.613281 220.988281 171.382812 220.019531 C 171.15625 219.054688 170.921875 218.09375 170.679688 217.132812 C 170.433594 216.175781 170.179688 215.222656 169.917969 214.269531 C 169.652344 213.320312 169.378906 212.371094 169.089844 211.429688 C 168.804688 210.484375 168.5 209.539062 168.183594 208.601562 C 167.871094 207.664062 167.539062 206.730469 167.195312 205.800781 C 167.113281 205.574219 167.027344 205.351562 166.941406 205.125 C 166.917969 205.0625 166.820312 205.089844 166.84375 205.152344 Z M 166.84375 205.152344 " fill-opacity="1" fill-rule="nonzero"/><path fill="#f6f6f6" d="M 157.234375 206.523438 C 157.5625 207.449219 157.878906 208.382812 158.1875 209.316406 C 158.496094 210.25 158.792969 211.1875 159.082031 212.125 C 159.371094 213.0625 159.652344 213.996094 159.921875 214.9375 C 160.191406 215.878906 160.457031 216.832031 160.710938 217.78125 C 160.964844 218.726562 161.207031 219.671875 161.441406 220.621094 C 161.675781 221.570312 161.898438 222.519531 162.117188 223.472656 C 162.332031 224.421875 162.535156 225.339844 162.746094 226.273438 C 162.957031 227.207031 163.175781 228.125 163.40625 229.050781 C 163.640625 229.972656 163.890625 230.898438 164.167969 231.8125 C 164.445312 232.71875 164.746094 233.617188 165.085938 234.503906 C 165.167969 234.722656 165.253906 234.941406 165.34375 235.15625 C 165.367188 235.214844 165.464844 235.191406 165.441406 235.128906 C 165.082031 234.246094 164.761719 233.347656 164.46875 232.4375 C 164.179688 231.527344 163.917969 230.609375 163.675781 229.6875 C 163.433594 228.761719 163.210938 227.839844 162.996094 226.914062 C 162.785156 225.988281 162.574219 225.046875 162.363281 224.113281 C 162.152344 223.179688 161.9375 222.234375 161.710938 221.296875 C 161.484375 220.359375 161.238281 219.386719 160.988281 218.433594 C 160.738281 217.484375 160.480469 216.535156 160.214844 215.589844 C 159.945312 214.648438 159.671875 213.710938 159.386719 212.773438 C 159.101562 211.832031 158.808594 210.894531 158.503906 209.960938 C 158.199219 209.027344 157.890625 208.101562 157.570312 207.175781 C 157.492188 206.949219 157.414062 206.722656 157.332031 206.496094 C 157.3125 206.433594 157.214844 206.460938 157.234375 206.523438 Z M 157.234375 206.523438 " fill-opacity="1" fill-rule="nonzero"/><path fill="#f6f6f6" d="M 207.894531 206.257812 C 207.894531 206.257812 198.019531 203.746094 197.441406 210.988281 C 196.859375 218.234375 203.152344 221.324219 207.992188 221.519531 C 212.832031 221.710938 215.832031 219.488281 216.21875 213.984375 C 216.605469 208.476562 212.25 202.972656 210.023438 201.714844 C 207.796875 200.460938 206.347656 201.621094 206.347656 201.621094 Z M 207.894531 206.257812 " fill-opacity="1" fill-rule="nonzero"/><path fill="#f6f6f6" d="M 131.714844 201.328125 C 132.015625 201.390625 131.523438 202.875 133.746094 203.359375 C 135.972656 203.839844 137.425781 204.132812 138.394531 207.703125 C 139.363281 211.277344 142.265625 218.910156 138.105469 218.425781 C 133.941406 217.945312 129.972656 214.175781 129.296875 210.023438 C 128.617188 205.871094 130.261719 201.039062 131.714844 201.328125 Z M 131.714844 201.328125 " fill-opacity="1" fill-rule="nonzero"/><g clip-path="url(#51978e4ab5)"><path fill="#f6f6f6" d="M 219.605469 260.347656 C 217.476562 264.113281 195.214844 262.183594 193.859375 260.25 C 193.214844 259.332031 193.117188 253.121094 193.191406 246.847656 C 193.207031 245.574219 193.230469 244.296875 193.257812 243.0625 C 193.371094 237.578125 193.570312 232.914062 193.570312 232.914062 C 193.761719 231.371094 209.636719 227.507812 210.703125 228.761719 C 211.371094 229.550781 210.472656 237.066406 209.710938 242.53125 C 209.5 244.050781 209.300781 245.414062 209.144531 246.425781 C 208.976562 247.570312 208.863281 248.273438 208.863281 248.273438 C 208.863281 248.273438 210.605469 248.273438 213.507812 249.144531 C 216.414062 250.011719 221.734375 256.582031 219.605469 260.347656 Z M 219.605469 260.347656 " fill-opacity="1" fill-rule="nonzero"/></g><path fill="#54a3e6" d="M 209.710938 242.53125 C 209.5 244.050781 209.300781 245.410156 209.144531 246.425781 C 208.988281 246.453125 208.828125 246.476562 208.667969 246.5 C 205.96875 246.914062 203.25 247.207031 200.523438 247.269531 C 198.078125 247.328125 195.613281 247.214844 193.191406 246.847656 C 193.207031 245.574219 193.230469 244.296875 193.257812 243.0625 C 193.570312 243.121094 193.886719 243.171875 194.203125 243.21875 C 195.023438 243.320312 195.84375 243.390625 196.667969 243.441406 C 199.988281 243.640625 203.320312 243.453125 206.617188 243.023438 C 206.621094 243.023438 206.628906 243.023438 206.632812 243.023438 C 207.660156 242.878906 208.6875 242.714844 209.710938 242.53125 Z M 209.710938 242.53125 " fill-opacity="1" fill-rule="nonzero"/><path fill="#54a3e6" d="M 223.410156 218.65625 C 223.472656 218.804688 223.539062 218.957031 223.601562 219.105469 C 223.570312 219.039062 223.542969 218.96875 223.511719 218.902344 C 223.480469 218.820312 223.445312 218.738281 223.410156 218.65625 Z M 223.410156 218.65625 " fill-opacity="1" fill-rule="nonzero"/><path fill="#54a3e6" d="M 224.664062 213.222656 C 224.121094 214.589844 223.359375 215.777344 222.410156 216.722656 C 221.90625 215.84375 221.347656 215 220.738281 214.195312 C 219.285156 212.359375 217.582031 210.734375 215.738281 209.289062 C 215.734375 209.289062 215.730469 209.285156 215.726562 209.28125 C 215.3125 208.964844 214.890625 208.660156 214.464844 208.363281 C 212.722656 207.148438 210.890625 206.074219 209.003906 205.097656 C 208.566406 204.871094 210.460938 201.617188 210.90625 201.851562 C 212.847656 202.855469 214.738281 203.964844 216.523438 205.222656 C 219.660156 207.429688 222.5 210.054688 224.664062 213.222656 Z M 224.664062 213.222656 " fill-opacity="1" fill-rule="nonzero"/><path fill="#54a3e6" d="M 224.796875 223.640625 C 224.785156 223.554688 224.773438 223.46875 224.757812 223.386719 C 224.75 223.304688 224.738281 223.222656 224.730469 223.140625 C 224.75 223.308594 224.773438 223.476562 224.796875 223.640625 Z M 224.796875 223.640625 " fill-opacity="1" fill-rule="nonzero"/><g clip-path="url(#789a576616)"><g clip-path="url(#e78ba7e676)"><g clip-path="url(#21ac120ad5)"><path fill="#002d75" d="M 210.085938 108.730469 C 210.054688 109.070312 210.003906 109.398438 209.933594 109.722656 C 209.152344 109.042969 208.300781 108.4375 207.394531 107.929688 C 202.851562 105.390625 197.984375 103.863281 192.925781 103.398438 C 187.867188 102.929688 182.800781 103.539062 177.871094 105.207031 C 176.886719 105.539062 175.9375 105.976562 175.046875 106.503906 C 175.035156 106.175781 175.046875 105.839844 175.078125 105.503906 C 175.503906 100.867188 179.625 97.445312 184.261719 97.871094 L 202.453125 99.550781 C 207.089844 99.976562 210.515625 104.097656 210.085938 108.730469 Z M 210.085938 108.730469 " fill-opacity="1" fill-rule="nonzero"/></g></g></g><g clip-path="url(#73ce0a7307)"><g clip-path="url(#f85ddb2167)"><g clip-path="url(#34abbdc73c)"><path fill="#002d75" d="M 209.53125 111.058594 C 208.738281 110.308594 207.820312 109.625 206.773438 109.039062 C 202.386719 106.585938 197.6875 105.113281 192.808594 104.664062 C 187.929688 104.214844 183.039062 104.800781 178.277344 106.410156 C 177.144531 106.796875 176.117188 107.300781 175.199219 107.894531 C 175.003906 108.015625 174.8125 108.148438 174.625 108.277344 C 175.46875 112.015625 178.632812 114.949219 182.652344 115.320312 L 189.90625 115.988281 L 189.996094 115.035156 L 187.695312 114.820312 C 186.761719 114.734375 186.078125 113.839844 186.171875 112.824219 C 186.265625 111.808594 187.101562 111.054688 188.035156 111.140625 L 190.335938 111.351562 L 190.546875 109.050781 C 190.632812 108.117188 191.527344 107.4375 192.542969 107.53125 C 193.558594 107.625 194.316406 108.457031 194.230469 109.390625 L 194.019531 111.691406 L 196.316406 111.902344 C 197.25 111.988281 197.929688 112.882812 197.835938 113.898438 C 197.742188 114.917969 196.910156 115.671875 195.976562 115.585938 L 193.679688 115.375 L 193.589844 116.328125 L 200.847656 117 C 204.863281 117.367188 208.511719 115.0625 210.023438 111.542969 C 209.863281 111.378906 209.699219 111.214844 209.53125 111.058594 Z M 209.53125 111.058594 " fill-opacity="1" fill-rule="nonzero"/></g></g></g><g clip-path="url(#98ce3ac75a)"><g clip-path="url(#cd9af7a32c)"><g clip-path="url(#5b246265de)"><path fill="#ffffff" d="M 210.023438 111.542969 C 209.863281 111.378906 209.699219 111.214844 209.53125 111.058594 C 208.1875 114.457031 204.722656 116.71875 200.902344 116.363281 L 193.648438 115.695312 L 193.53125 116.960938 L 200.789062 117.632812 C 204.980469 118.019531 208.804688 115.667969 210.488281 112.050781 C 210.339844 111.878906 210.183594 111.710938 210.023438 111.542969 Z M 182.710938 114.6875 C 178.890625 114.335938 175.898438 111.476562 175.199219 107.894531 C 175.003906 108.015625 174.8125 108.148438 174.625 108.277344 C 174.4375 108.414062 174.253906 108.550781 174.074219 108.691406 C 175.066406 112.554688 178.398438 115.566406 182.59375 115.953125 L 189.847656 116.621094 L 189.964844 115.355469 Z M 182.710938 114.6875 " fill-opacity="1" fill-rule="nonzero"/></g></g></g><g clip-path="url(#0b08cd7a3e)"><g clip-path="url(#67c6857534)"><g clip-path="url(#3e759a90bd)"><path fill="#002d75" d="M 213.808594 119.019531 C 213.488281 116.898438 212.453125 114.292969 210.488281 112.050781 C 210.339844 111.878906 210.183594 111.710938 210.023438 111.542969 C 209.863281 111.378906 209.699219 111.214844 209.53125 111.058594 C 208.738281 110.308594 207.820312 109.625 206.773438 109.039062 C 202.386719 106.585938 197.6875 105.113281 192.808594 104.664062 C 187.929688 104.214844 183.039062 104.800781 178.277344 106.410156 C 177.144531 106.796875 176.117188 107.300781 175.199219 107.894531 C 175.003906 108.015625 174.8125 108.148438 174.625 108.277344 C 174.4375 108.414062 174.253906 108.550781 174.074219 108.695312 C 171.738281 110.539062 170.242188 112.910156 169.539062 114.933594 C 168.695312 117.367188 168.777344 119.640625 169.769531 121.171875 C 170.324219 122.054688 170.988281 122.742188 171.699219 123.269531 C 171.898438 123.320312 172.375 123.433594 173.035156 123.539062 C 173.410156 123.601562 173.84375 123.660156 174.320312 123.703125 C 176.71875 123.921875 180.199219 123.777344 182.617188 121.664062 C 182.839844 121.46875 183.058594 121.253906 183.261719 121.023438 C 183.496094 120.761719 183.894531 120.738281 184.160156 120.96875 C 184.421875 121.203125 184.449219 121.601562 184.214844 121.867188 C 182.351562 123.972656 179.804688 124.777344 177.460938 125 C 178.851562 125.003906 180.308594 124.777344 181.726562 124.335938 C 184.785156 123.300781 187.941406 122.921875 191.097656 123.214844 C 194.25 123.503906 197.289062 124.457031 200.121094 126.039062 C 201.769531 126.910156 203.554688 127.457031 205.269531 127.613281 C 207.308594 127.804688 210.210938 127.519531 212.4375 125.113281 C 213.695312 123.785156 214.191406 121.566406 213.808594 119.019531 Z M 186.8125 119.78125 C 186.179688 120.304688 185.242188 120.21875 184.714844 119.585938 C 184.1875 118.953125 184.273438 118.011719 184.910156 117.488281 C 185.542969 116.960938 186.480469 117.046875 187.007812 117.679688 C 187.53125 118.3125 187.445312 119.253906 186.8125 119.78125 Z M 193.464844 117.671875 C 193.378906 118.609375 192.484375 119.289062 191.46875 119.195312 C 190.453125 119.101562 189.695312 118.269531 189.785156 117.335938 L 189.996094 115.035156 L 187.695312 114.824219 C 186.761719 114.734375 186.078125 113.839844 186.171875 112.824219 C 186.265625 111.808594 187.101562 111.054688 188.035156 111.140625 L 190.335938 111.351562 L 190.546875 109.050781 C 190.632812 108.117188 191.527344 107.4375 192.542969 107.53125 C 193.558594 107.625 194.316406 108.457031 194.230469 109.390625 L 194.015625 111.691406 L 196.316406 111.902344 C 197.25 111.988281 197.929688 112.882812 197.835938 113.898438 C 197.742188 114.917969 196.910156 115.671875 195.976562 115.585938 L 193.679688 115.375 Z M 193.464844 117.671875 " fill-opacity="1" fill-rule="nonzero"/><path fill="#002d75" d="M 213.808594 119.019531 C 213.488281 116.898438 212.453125 114.292969 210.488281 112.050781 C 210.339844 111.878906 210.183594 111.710938 210.023438 111.542969 C 209.863281 111.378906 209.699219 111.214844 209.53125 111.058594 C 208.738281 110.308594 207.820312 109.625 206.773438 109.039062 C 202.386719 106.585938 197.6875 105.113281 192.808594 104.664062 C 187.929688 104.214844 183.039062 104.800781 178.277344 106.410156 C 177.144531 106.796875 176.117188 107.300781 175.199219 107.894531 C 175.003906 108.015625 174.8125 108.148438 174.625 108.277344 C 174.4375 108.414062 174.253906 108.550781 174.074219 108.695312 C 171.738281 110.539062 170.242188 112.910156 169.539062 114.933594 C 168.695312 117.367188 168.777344 119.640625 169.769531 121.171875 C 170.324219 122.054688 170.988281 122.742188 171.699219 123.269531 C 171.898438 123.320312 172.375 123.433594 173.035156 123.539062 C 173.410156 123.601562 173.84375 123.660156 174.320312 123.703125 C 176.71875 123.921875 180.199219 123.777344 182.617188 121.664062 C 182.839844 121.46875 183.058594 121.253906 183.261719 121.023438 C 183.496094 120.761719 183.894531 120.738281 184.160156 120.96875 C 184.421875 121.203125 184.449219 121.601562 184.214844 121.867188 C 182.351562 123.972656 179.804688 124.777344 177.460938 125 C 178.851562 125.003906 180.308594 124.777344 181.726562 124.335938 C 184.785156 123.300781 187.941406 122.921875 191.097656 123.214844 C 194.25 123.503906 197.289062 124.457031 200.121094 126.039062 C 201.769531 126.910156 203.554688 127.457031 205.269531 127.613281 C 207.308594 127.804688 210.210938 127.519531 212.4375 125.113281 C 213.695312 123.785156 214.191406 121.566406 213.808594 119.019531 Z M 186.8125 119.78125 C 186.179688 120.304688 185.242188 120.21875 184.714844 119.585938 C 184.1875 118.953125 184.273438 118.011719 184.910156 117.488281 C 185.542969 116.960938 186.480469 117.046875 187.007812 117.679688 C 187.53125 118.3125 187.445312 119.253906 186.8125 119.78125 Z M 193.464844 117.671875 C 193.378906 118.609375 192.484375 119.289062 191.46875 119.195312 C 190.453125 119.101562 189.695312 118.269531 189.785156 117.335938 L 189.996094 115.035156 L 187.695312 114.824219 C 186.761719 114.734375 186.078125 113.839844 186.171875 112.824219 C 186.265625 111.808594 187.101562 111.054688 188.035156 111.140625 L 190.335938 111.351562 L 190.546875 109.050781 C 190.632812 108.117188 191.527344 107.4375 192.542969 107.53125 C 193.558594 107.625 194.316406 108.457031 194.230469 109.390625 L 194.015625 111.691406 L 196.316406 111.902344 C 197.25 111.988281 197.929688 112.882812 197.835938 113.898438 C 197.742188 114.917969 196.910156 115.671875 195.976562 115.585938 L 193.679688 115.375 Z M 193.464844 117.671875 " fill-opacity="1" fill-rule="nonzero"/></g></g></g><g clip-path="url(#a97066e89e)"><g clip-path="url(#003ec6f702)"><g clip-path="url(#f742619cc3)"><path fill="#002d75" d="M 182.617188 121.664062 C 180.199219 123.777344 176.71875 123.921875 174.320312 123.703125 C 173.84375 123.660156 173.410156 123.601562 173.035156 123.539062 Z M 182.617188 121.664062 " fill-opacity="1" fill-rule="nonzero"/></g></g></g></svg>