<svg xmlns="http://www.w3.org/2000/svg" xmlns:xlink="http://www.w3.org/1999/xlink" width="500" zoomAndPan="magnify" viewBox="0 0 375 374.999991" height="500" preserveAspectRatio="xMidYMid meet" version="1.0"><defs><clipPath id="458b5bcaf6"><path d="M 224 169 L 254.90625 169 L 254.90625 199 L 224 199 Z M 224 169 " clip-rule="nonzero"/></clipPath><clipPath id="dcb8125012"><path d="M 186 231 L 217 231 L 217 262.5 L 186 262.5 Z M 186 231 " clip-rule="nonzero"/></clipPath><clipPath id="75e8a69e9e"><path d="M 218 112.5 L 227 112.5 L 227 121 L 218 121 Z M 218 112.5 " clip-rule="nonzero"/></clipPath><clipPath id="da6fb72fb7"><path d="M 198 196.796875 L 201 196.796875 L 201 201 L 198 201 Z M 198 196.796875 " clip-rule="nonzero"/></clipPath><clipPath id="85c2b1c1be"><path d="M 194.628906 196.796875 L 201 196.796875 L 201 203 L 194.628906 203 Z M 194.628906 196.796875 " clip-rule="nonzero"/></clipPath><clipPath id="298a2e28d3"><path d="M 200.628906 196.929688 C 200.632812 197.328125 200.585938 198.644531 199.9375 199.929688 C 199.734375 200.332031 199.46875 200.734375 199.128906 201.101562 C 198.246094 202.058594 196.84375 202.792969 194.628906 202.792969 L 194.628906 200.546875 C 196.265625 200.546875 197.453125 200.296875 198.320312 199.929688 C 198.628906 199.796875 198.898438 199.648438 199.128906 199.492188 C 200.492188 198.570312 200.625 197.316406 200.628906 196.929688 Z M 200.628906 196.929688 " clip-rule="nonzero"/></clipPath><linearGradient x1="-0.0000204232" gradientTransform="matrix(0.0249488, 0, 0, 0.0249079, 194.62883, 196.806535)" y1="122.636002" x2="240.599986" gradientUnits="userSpaceOnUse" y2="122.636002" id="5a3d9eabc4"><stop stop-opacity="1" stop-color="rgb(23.919678%, 74.119568%, 92.549133%)" offset="0"/><stop stop-opacity="1" stop-color="rgb(23.919678%, 74.119568%, 92.549133%)" offset="0.03125"/><stop stop-opacity="1" stop-color="rgb(23.953247%, 74.008179%, 92.579651%)" offset="0.046875"/><stop stop-opacity="1" stop-color="rgb(24.01886%, 73.800659%, 92.637634%)" offset="0.0546875"/><stop stop-opacity="1" stop-color="rgb(24.079895%, 73.603821%, 92.692566%)" offset="0.0625"/><stop stop-opacity="1" stop-color="rgb(24.171448%, 73.310852%, 92.774963%)" offset="0.078125"/><stop stop-opacity="1" stop-color="rgb(24.263%, 73.016357%, 92.855835%)" offset="0.0859375"/><stop stop-opacity="1" stop-color="rgb(24.324036%, 72.821045%, 92.910767%)" offset="0.09375"/><stop stop-opacity="1" stop-color="rgb(24.385071%, 72.624207%, 92.965698%)" offset="0.101562"/><stop stop-opacity="1" stop-color="rgb(24.446106%, 72.428894%, 93.02063%)" offset="0.109375"/><stop stop-opacity="1" stop-color="rgb(24.507141%, 72.232056%, 93.075562%)" offset="0.117187"/><stop stop-opacity="1" stop-color="rgb(24.568176%, 72.036743%, 93.128967%)" offset="0.125"/><stop stop-opacity="1" stop-color="rgb(24.629211%, 71.841431%, 93.183899%)" offset="0.132812"/><stop stop-opacity="1" stop-color="rgb(24.690247%, 71.644592%, 93.238831%)" offset="0.140625"/><stop stop-opacity="1" stop-color="rgb(24.751282%, 71.44928%, 93.293762%)" offset="0.148437"/><stop stop-opacity="1" stop-color="rgb(24.812317%, 71.252441%, 93.348694%)" offset="0.15625"/><stop stop-opacity="1" stop-color="rgb(24.873352%, 71.057129%, 93.403625%)" offset="0.164062"/><stop stop-opacity="1" stop-color="rgb(24.934387%, 70.860291%, 93.457031%)" offset="0.171875"/><stop stop-opacity="1" stop-color="rgb(24.995422%, 70.664978%, 93.511963%)" offset="0.179687"/><stop stop-opacity="1" stop-color="rgb(25.056458%, 70.46814%, 93.566895%)" offset="0.1875"/><stop stop-opacity="1" stop-color="rgb(25.14801%, 70.175171%, 93.649292%)" offset="0.203125"/><stop stop-opacity="1" stop-color="rgb(25.239563%, 69.880676%, 93.730164%)" offset="0.210937"/><stop stop-opacity="1" stop-color="rgb(25.300598%, 69.685364%, 93.785095%)" offset="0.21875"/><stop stop-opacity="1" stop-color="rgb(25.361633%, 69.488525%, 93.840027%)" offset="0.226562"/><stop stop-opacity="1" stop-color="rgb(25.422668%, 69.293213%, 93.894958%)" offset="0.234375"/><stop stop-opacity="1" stop-color="rgb(25.483704%, 69.096375%, 93.94989%)" offset="0.242187"/><stop stop-opacity="1" stop-color="rgb(25.544739%, 68.901062%, 94.004822%)" offset="0.25"/><stop stop-opacity="1" stop-color="rgb(25.605774%, 68.70575%, 94.058228%)" offset="0.257812"/><stop stop-opacity="1" stop-color="rgb(25.666809%, 68.508911%, 94.113159%)" offset="0.265625"/><stop stop-opacity="1" stop-color="rgb(25.727844%, 68.313599%, 94.168091%)" offset="0.273438"/><stop stop-opacity="1" stop-color="rgb(25.788879%, 68.11676%, 94.223022%)" offset="0.28125"/><stop stop-opacity="1" stop-color="rgb(25.849915%, 67.921448%, 94.277954%)" offset="0.289062"/><stop stop-opacity="1" stop-color="rgb(25.91095%, 67.724609%, 94.33136%)" offset="0.296875"/><stop stop-opacity="1" stop-color="rgb(26.002502%, 67.431641%, 94.413757%)" offset="0.3125"/><stop stop-opacity="1" stop-color="rgb(26.094055%, 67.137146%, 94.496155%)" offset="0.320312"/><stop stop-opacity="1" stop-color="rgb(26.15509%, 66.941833%, 94.551086%)" offset="0.328125"/><stop stop-opacity="1" stop-color="rgb(26.216125%, 66.744995%, 94.604492%)" offset="0.335938"/><stop stop-opacity="1" stop-color="rgb(26.277161%, 66.549683%, 94.659424%)" offset="0.34375"/><stop stop-opacity="1" stop-color="rgb(26.338196%, 66.352844%, 94.714355%)" offset="0.351562"/><stop stop-opacity="1" stop-color="rgb(26.399231%, 66.157532%, 94.769287%)" offset="0.359375"/><stop stop-opacity="1" stop-color="rgb(26.460266%, 65.962219%, 94.824219%)" offset="0.367187"/><stop stop-opacity="1" stop-color="rgb(26.521301%, 65.765381%, 94.87915%)" offset="0.375"/><stop stop-opacity="1" stop-color="rgb(26.582336%, 65.570068%, 94.932556%)" offset="0.382812"/><stop stop-opacity="1" stop-color="rgb(26.643372%, 65.37323%, 94.987488%)" offset="0.390625"/><stop stop-opacity="1" stop-color="rgb(26.704407%, 65.177917%, 95.042419%)" offset="0.398438"/><stop stop-opacity="1" stop-color="rgb(26.765442%, 64.981079%, 95.097351%)" offset="0.40625"/><stop stop-opacity="1" stop-color="rgb(26.856995%, 64.68811%, 95.178223%)" offset="0.421875"/><stop stop-opacity="1" stop-color="rgb(26.948547%, 64.393616%, 95.26062%)" offset="0.429687"/><stop stop-opacity="1" stop-color="rgb(27.009583%, 64.198303%, 95.315552%)" offset="0.4375"/><stop stop-opacity="1" stop-color="rgb(27.070618%, 64.001465%, 95.370483%)" offset="0.445312"/><stop stop-opacity="1" stop-color="rgb(27.131653%, 63.806152%, 95.425415%)" offset="0.453125"/><stop stop-opacity="1" stop-color="rgb(27.192688%, 63.609314%, 95.478821%)" offset="0.460937"/><stop stop-opacity="1" stop-color="rgb(27.253723%, 63.414001%, 95.533752%)" offset="0.46875"/><stop stop-opacity="1" stop-color="rgb(27.314758%, 63.217163%, 95.588684%)" offset="0.476562"/><stop stop-opacity="1" stop-color="rgb(27.375793%, 63.021851%, 95.643616%)" offset="0.484375"/><stop stop-opacity="1" stop-color="rgb(27.436829%, 62.826538%, 95.698547%)" offset="0.492187"/><stop stop-opacity="1" stop-color="rgb(27.497864%, 62.6297%, 95.753479%)" offset="0.5"/><stop stop-opacity="1" stop-color="rgb(27.558899%, 62.434387%, 95.806885%)" offset="0.507812"/><stop stop-opacity="1" stop-color="rgb(27.619934%, 62.237549%, 95.861816%)" offset="0.515625"/><stop stop-opacity="1" stop-color="rgb(27.680969%, 62.042236%, 95.916748%)" offset="0.523438"/><stop stop-opacity="1" stop-color="rgb(27.742004%, 61.845398%, 95.97168%)" offset="0.53125"/><stop stop-opacity="1" stop-color="rgb(27.833557%, 61.552429%, 96.052551%)" offset="0.546875"/><stop stop-opacity="1" stop-color="rgb(27.92511%, 61.257935%, 96.134949%)" offset="0.554688"/><stop stop-opacity="1" stop-color="rgb(27.986145%, 61.062622%, 96.18988%)" offset="0.5625"/><stop stop-opacity="1" stop-color="rgb(28.04718%, 60.865784%, 96.244812%)" offset="0.570312"/><stop stop-opacity="1" stop-color="rgb(28.108215%, 60.670471%, 96.299744%)" offset="0.578125"/><stop stop-opacity="1" stop-color="rgb(28.16925%, 60.473633%, 96.353149%)" offset="0.585938"/><stop stop-opacity="1" stop-color="rgb(28.230286%, 60.27832%, 96.408081%)" offset="0.59375"/><stop stop-opacity="1" stop-color="rgb(28.291321%, 60.083008%, 96.463013%)" offset="0.601562"/><stop stop-opacity="1" stop-color="rgb(28.352356%, 59.886169%, 96.517944%)" offset="0.609375"/><stop stop-opacity="1" stop-color="rgb(28.413391%, 59.690857%, 96.572876%)" offset="0.617188"/><stop stop-opacity="1" stop-color="rgb(28.474426%, 59.494019%, 96.627808%)" offset="0.625"/><stop stop-opacity="1" stop-color="rgb(28.535461%, 59.298706%, 96.681213%)" offset="0.632812"/><stop stop-opacity="1" stop-color="rgb(28.596497%, 59.101868%, 96.736145%)" offset="0.640625"/><stop stop-opacity="1" stop-color="rgb(28.688049%, 58.808899%, 96.818542%)" offset="0.65625"/><stop stop-opacity="1" stop-color="rgb(28.779602%, 58.514404%, 96.90094%)" offset="0.664062"/><stop stop-opacity="1" stop-color="rgb(28.840637%, 58.319092%, 96.954346%)" offset="0.671875"/><stop stop-opacity="1" stop-color="rgb(28.901672%, 58.122253%, 97.009277%)" offset="0.679688"/><stop stop-opacity="1" stop-color="rgb(28.962708%, 57.926941%, 97.064209%)" offset="0.6875"/><stop stop-opacity="1" stop-color="rgb(29.023743%, 57.730103%, 97.119141%)" offset="0.695312"/><stop stop-opacity="1" stop-color="rgb(29.084778%, 57.53479%, 97.174072%)" offset="0.703125"/><stop stop-opacity="1" stop-color="rgb(29.145813%, 57.339478%, 97.227478%)" offset="0.710938"/><stop stop-opacity="1" stop-color="rgb(29.206848%, 57.142639%, 97.28241%)" offset="0.71875"/><stop stop-opacity="1" stop-color="rgb(29.267883%, 56.947327%, 97.337341%)" offset="0.726562"/><stop stop-opacity="1" stop-color="rgb(29.328918%, 56.750488%, 97.392273%)" offset="0.734375"/><stop stop-opacity="1" stop-color="rgb(29.389954%, 56.555176%, 97.447205%)" offset="0.742188"/><stop stop-opacity="1" stop-color="rgb(29.450989%, 56.358337%, 97.502136%)" offset="0.75"/><stop stop-opacity="1" stop-color="rgb(29.512024%, 56.163025%, 97.555542%)" offset="0.757812"/><stop stop-opacity="1" stop-color="rgb(29.573059%, 55.966187%, 97.610474%)" offset="0.765625"/><stop stop-opacity="1" stop-color="rgb(29.664612%, 55.673218%, 97.692871%)" offset="0.78125"/><stop stop-opacity="1" stop-color="rgb(29.756165%, 55.378723%, 97.775269%)" offset="0.789062"/><stop stop-opacity="1" stop-color="rgb(29.8172%, 55.183411%, 97.828674%)" offset="0.796875"/><stop stop-opacity="1" stop-color="rgb(29.878235%, 54.986572%, 97.883606%)" offset="0.804688"/><stop stop-opacity="1" stop-color="rgb(29.93927%, 54.79126%, 97.938538%)" offset="0.8125"/><stop stop-opacity="1" stop-color="rgb(30.000305%, 54.594421%, 97.993469%)" offset="0.820312"/><stop stop-opacity="1" stop-color="rgb(30.06134%, 54.399109%, 98.048401%)" offset="0.828125"/><stop stop-opacity="1" stop-color="rgb(30.122375%, 54.203796%, 98.101807%)" offset="0.835938"/><stop stop-opacity="1" stop-color="rgb(30.183411%, 54.006958%, 98.156738%)" offset="0.84375"/><stop stop-opacity="1" stop-color="rgb(30.244446%, 53.811646%, 98.21167%)" offset="0.851562"/><stop stop-opacity="1" stop-color="rgb(30.305481%, 53.614807%, 98.266602%)" offset="0.859375"/><stop stop-opacity="1" stop-color="rgb(30.366516%, 53.419495%, 98.321533%)" offset="0.867187"/><stop stop-opacity="1" stop-color="rgb(30.427551%, 53.222656%, 98.376465%)" offset="0.875"/><stop stop-opacity="1" stop-color="rgb(30.519104%, 52.929688%, 98.457336%)" offset="0.890625"/><stop stop-opacity="1" stop-color="rgb(30.610657%, 52.635193%, 98.539734%)" offset="0.898437"/><stop stop-opacity="1" stop-color="rgb(30.671692%, 52.43988%, 98.594666%)" offset="0.90625"/><stop stop-opacity="1" stop-color="rgb(30.732727%, 52.243042%, 98.649597%)" offset="0.914062"/><stop stop-opacity="1" stop-color="rgb(30.793762%, 52.047729%, 98.703003%)" offset="0.921875"/><stop stop-opacity="1" stop-color="rgb(30.854797%, 51.850891%, 98.757935%)" offset="0.929687"/><stop stop-opacity="1" stop-color="rgb(30.915833%, 51.655579%, 98.812866%)" offset="0.9375"/><stop stop-opacity="1" stop-color="rgb(30.976868%, 51.460266%, 98.867798%)" offset="0.945312"/><stop stop-opacity="1" stop-color="rgb(31.037903%, 51.263428%, 98.922729%)" offset="0.953125"/><stop stop-opacity="1" stop-color="rgb(31.098938%, 51.068115%, 98.976135%)" offset="0.960938"/><stop stop-opacity="1" stop-color="rgb(31.159973%, 50.871277%, 99.031067%)" offset="0.96875"/><stop stop-opacity="1" stop-color="rgb(31.221008%, 50.675964%, 99.085999%)" offset="0.976562"/><stop stop-opacity="1" stop-color="rgb(31.282043%, 50.479126%, 99.14093%)" offset="0.984375"/><stop stop-opacity="1" stop-color="rgb(31.340027%, 50.289917%, 99.19281%)" offset="1"/></linearGradient><clipPath id="9913677d39"><path d="M 198 202 L 201 202 L 201 205.796875 L 198 205.796875 Z M 198 202 " clip-rule="nonzero"/></clipPath><clipPath id="1d2211a0e4"><path d="M 198 199 L 204.378906 199 L 204.378906 205.796875 L 198 205.796875 Z M 198 199 " clip-rule="nonzero"/></clipPath><clipPath id="a19f85ec2f"><path d="M 198.378906 205.667969 C 198.375 205.269531 198.421875 203.953125 199.070312 202.667969 C 199.273438 202.261719 199.539062 201.859375 199.878906 201.492188 C 200.761719 200.535156 202.160156 199.800781 204.378906 199.800781 L 204.378906 202.046875 C 202.742188 202.046875 201.554688 202.296875 200.6875 202.667969 C 200.378906 202.796875 200.109375 202.945312 199.878906 203.101562 C 198.515625 204.027344 198.382812 205.277344 198.378906 205.667969 Z M 198.378906 205.667969 " clip-rule="nonzero"/></clipPath><linearGradient x1="167.431868" gradientTransform="matrix(-0.0249488, 0, 0, -0.0249079, 208.555309, 201.792495)" y1="-37.771" x2="408.04188" gradientUnits="userSpaceOnUse" y2="-37.771" id="3b0f7164cc"><stop stop-opacity="1" stop-color="rgb(23.919678%, 74.119568%, 92.549133%)" offset="0"/><stop stop-opacity="1" stop-color="rgb(23.919678%, 74.119568%, 92.549133%)" offset="0.03125"/><stop stop-opacity="1" stop-color="rgb(23.953247%, 74.009705%, 92.579651%)" offset="0.046875"/><stop stop-opacity="1" stop-color="rgb(24.01886%, 73.800659%, 92.637634%)" offset="0.0546875"/><stop stop-opacity="1" stop-color="rgb(24.079895%, 73.605347%, 92.692566%)" offset="0.0625"/><stop stop-opacity="1" stop-color="rgb(24.14093%, 73.408508%, 92.747498%)" offset="0.0703125"/><stop stop-opacity="1" stop-color="rgb(24.201965%, 73.213196%, 92.802429%)" offset="0.078125"/><stop stop-opacity="1" stop-color="rgb(24.263%, 73.016357%, 92.855835%)" offset="0.0859375"/><stop stop-opacity="1" stop-color="rgb(24.324036%, 72.821045%, 92.910767%)" offset="0.09375"/><stop stop-opacity="1" stop-color="rgb(24.385071%, 72.625732%, 92.965698%)" offset="0.101562"/><stop stop-opacity="1" stop-color="rgb(24.446106%, 72.428894%, 93.02063%)" offset="0.109375"/><stop stop-opacity="1" stop-color="rgb(24.507141%, 72.233582%, 93.075562%)" offset="0.117188"/><stop stop-opacity="1" stop-color="rgb(24.568176%, 72.036743%, 93.128967%)" offset="0.125"/><stop stop-opacity="1" stop-color="rgb(24.629211%, 71.841431%, 93.183899%)" offset="0.132812"/><stop stop-opacity="1" stop-color="rgb(24.690247%, 71.644592%, 93.238831%)" offset="0.140625"/><stop stop-opacity="1" stop-color="rgb(24.751282%, 71.44928%, 93.293762%)" offset="0.148438"/><stop stop-opacity="1" stop-color="rgb(24.812317%, 71.252441%, 93.348694%)" offset="0.15625"/><stop stop-opacity="1" stop-color="rgb(24.90387%, 70.959473%, 93.429565%)" offset="0.171875"/><stop stop-opacity="1" stop-color="rgb(24.995422%, 70.664978%, 93.511963%)" offset="0.179687"/><stop stop-opacity="1" stop-color="rgb(25.056458%, 70.469666%, 93.566895%)" offset="0.1875"/><stop stop-opacity="1" stop-color="rgb(25.117493%, 70.272827%, 93.621826%)" offset="0.195312"/><stop stop-opacity="1" stop-color="rgb(25.178528%, 70.077515%, 93.676758%)" offset="0.203125"/><stop stop-opacity="1" stop-color="rgb(25.239563%, 69.880676%, 93.730164%)" offset="0.210938"/><stop stop-opacity="1" stop-color="rgb(25.300598%, 69.685364%, 93.785095%)" offset="0.21875"/><stop stop-opacity="1" stop-color="rgb(25.361633%, 69.490051%, 93.840027%)" offset="0.226562"/><stop stop-opacity="1" stop-color="rgb(25.422668%, 69.293213%, 93.894958%)" offset="0.234375"/><stop stop-opacity="1" stop-color="rgb(25.483704%, 69.0979%, 93.94989%)" offset="0.242188"/><stop stop-opacity="1" stop-color="rgb(25.544739%, 68.901062%, 94.003296%)" offset="0.25"/><stop stop-opacity="1" stop-color="rgb(25.605774%, 68.70575%, 94.058228%)" offset="0.257812"/><stop stop-opacity="1" stop-color="rgb(25.666809%, 68.508911%, 94.113159%)" offset="0.265625"/><stop stop-opacity="1" stop-color="rgb(25.727844%, 68.313599%, 94.168091%)" offset="0.273438"/><stop stop-opacity="1" stop-color="rgb(25.788879%, 68.11676%, 94.223022%)" offset="0.28125"/><stop stop-opacity="1" stop-color="rgb(25.880432%, 67.823792%, 94.303894%)" offset="0.296875"/><stop stop-opacity="1" stop-color="rgb(25.971985%, 67.529297%, 94.386292%)" offset="0.304688"/><stop stop-opacity="1" stop-color="rgb(26.03302%, 67.333984%, 94.441223%)" offset="0.3125"/><stop stop-opacity="1" stop-color="rgb(26.094055%, 67.137146%, 94.496155%)" offset="0.320312"/><stop stop-opacity="1" stop-color="rgb(26.15509%, 66.941833%, 94.551086%)" offset="0.328125"/><stop stop-opacity="1" stop-color="rgb(26.216125%, 66.744995%, 94.604492%)" offset="0.335937"/><stop stop-opacity="1" stop-color="rgb(26.277161%, 66.549683%, 94.659424%)" offset="0.34375"/><stop stop-opacity="1" stop-color="rgb(26.338196%, 66.35437%, 94.714355%)" offset="0.351562"/><stop stop-opacity="1" stop-color="rgb(26.399231%, 66.157532%, 94.769287%)" offset="0.359375"/><stop stop-opacity="1" stop-color="rgb(26.460266%, 65.962219%, 94.824219%)" offset="0.367187"/><stop stop-opacity="1" stop-color="rgb(26.521301%, 65.765381%, 94.877625%)" offset="0.375"/><stop stop-opacity="1" stop-color="rgb(26.582336%, 65.570068%, 94.932556%)" offset="0.382812"/><stop stop-opacity="1" stop-color="rgb(26.643372%, 65.37323%, 94.987488%)" offset="0.390625"/><stop stop-opacity="1" stop-color="rgb(26.704407%, 65.177917%, 95.042419%)" offset="0.398438"/><stop stop-opacity="1" stop-color="rgb(26.765442%, 64.981079%, 95.097351%)" offset="0.40625"/><stop stop-opacity="1" stop-color="rgb(26.856995%, 64.68811%, 95.178223%)" offset="0.421875"/><stop stop-opacity="1" stop-color="rgb(26.948547%, 64.393616%, 95.26062%)" offset="0.429688"/><stop stop-opacity="1" stop-color="rgb(27.009583%, 64.198303%, 95.315552%)" offset="0.4375"/><stop stop-opacity="1" stop-color="rgb(27.070618%, 64.001465%, 95.370483%)" offset="0.445312"/><stop stop-opacity="1" stop-color="rgb(27.131653%, 63.806152%, 95.425415%)" offset="0.453125"/><stop stop-opacity="1" stop-color="rgb(27.192688%, 63.609314%, 95.478821%)" offset="0.460938"/><stop stop-opacity="1" stop-color="rgb(27.253723%, 63.414001%, 95.533752%)" offset="0.46875"/><stop stop-opacity="1" stop-color="rgb(27.314758%, 63.218689%, 95.588684%)" offset="0.476563"/><stop stop-opacity="1" stop-color="rgb(27.375793%, 63.021851%, 95.643616%)" offset="0.484375"/><stop stop-opacity="1" stop-color="rgb(27.436829%, 62.826538%, 95.698547%)" offset="0.492188"/><stop stop-opacity="1" stop-color="rgb(27.497864%, 62.6297%, 95.753479%)" offset="0.5"/><stop stop-opacity="1" stop-color="rgb(27.558899%, 62.434387%, 95.806885%)" offset="0.507812"/><stop stop-opacity="1" stop-color="rgb(27.619934%, 62.237549%, 95.861816%)" offset="0.515625"/><stop stop-opacity="1" stop-color="rgb(27.680969%, 62.042236%, 95.916748%)" offset="0.523437"/><stop stop-opacity="1" stop-color="rgb(27.742004%, 61.845398%, 95.97168%)" offset="0.53125"/><stop stop-opacity="1" stop-color="rgb(27.833557%, 61.552429%, 96.052551%)" offset="0.546875"/><stop stop-opacity="1" stop-color="rgb(27.92511%, 61.257935%, 96.134949%)" offset="0.554687"/><stop stop-opacity="1" stop-color="rgb(27.986145%, 61.062622%, 96.18988%)" offset="0.5625"/><stop stop-opacity="1" stop-color="rgb(28.04718%, 60.865784%, 96.244812%)" offset="0.570312"/><stop stop-opacity="1" stop-color="rgb(28.108215%, 60.670471%, 96.299744%)" offset="0.578125"/><stop stop-opacity="1" stop-color="rgb(28.16925%, 60.473633%, 96.353149%)" offset="0.585938"/><stop stop-opacity="1" stop-color="rgb(28.230286%, 60.27832%, 96.408081%)" offset="0.59375"/><stop stop-opacity="1" stop-color="rgb(28.291321%, 60.083008%, 96.463013%)" offset="0.601562"/><stop stop-opacity="1" stop-color="rgb(28.352356%, 59.886169%, 96.517944%)" offset="0.609375"/><stop stop-opacity="1" stop-color="rgb(28.413391%, 59.690857%, 96.572876%)" offset="0.617188"/><stop stop-opacity="1" stop-color="rgb(28.474426%, 59.494019%, 96.627808%)" offset="0.625"/><stop stop-opacity="1" stop-color="rgb(28.535461%, 59.298706%, 96.681213%)" offset="0.632812"/><stop stop-opacity="1" stop-color="rgb(28.596497%, 59.101868%, 96.736145%)" offset="0.640625"/><stop stop-opacity="1" stop-color="rgb(28.657532%, 58.906555%, 96.791077%)" offset="0.648437"/><stop stop-opacity="1" stop-color="rgb(28.718567%, 58.709717%, 96.846008%)" offset="0.65625"/><stop stop-opacity="1" stop-color="rgb(28.81012%, 58.416748%, 96.92688%)" offset="0.671875"/><stop stop-opacity="1" stop-color="rgb(28.901672%, 58.122253%, 97.009277%)" offset="0.679687"/><stop stop-opacity="1" stop-color="rgb(28.962708%, 57.926941%, 97.064209%)" offset="0.6875"/><stop stop-opacity="1" stop-color="rgb(29.023743%, 57.730103%, 97.119141%)" offset="0.695312"/><stop stop-opacity="1" stop-color="rgb(29.084778%, 57.53479%, 97.174072%)" offset="0.703125"/><stop stop-opacity="1" stop-color="rgb(29.145813%, 57.337952%, 97.227478%)" offset="0.710937"/><stop stop-opacity="1" stop-color="rgb(29.206848%, 57.142639%, 97.28241%)" offset="0.71875"/><stop stop-opacity="1" stop-color="rgb(29.267883%, 56.945801%, 97.337341%)" offset="0.726562"/><stop stop-opacity="1" stop-color="rgb(29.328918%, 56.750488%, 97.392273%)" offset="0.734375"/><stop stop-opacity="1" stop-color="rgb(29.389954%, 56.555176%, 97.447205%)" offset="0.742187"/><stop stop-opacity="1" stop-color="rgb(29.450989%, 56.358337%, 97.502136%)" offset="0.75"/><stop stop-opacity="1" stop-color="rgb(29.512024%, 56.163025%, 97.555542%)" offset="0.757812"/><stop stop-opacity="1" stop-color="rgb(29.573059%, 55.966187%, 97.610474%)" offset="0.765625"/><stop stop-opacity="1" stop-color="rgb(29.634094%, 55.770874%, 97.665405%)" offset="0.773438"/><stop stop-opacity="1" stop-color="rgb(29.695129%, 55.574036%, 97.720337%)" offset="0.78125"/><stop stop-opacity="1" stop-color="rgb(29.786682%, 55.281067%, 97.801208%)" offset="0.796875"/><stop stop-opacity="1" stop-color="rgb(29.878235%, 54.986572%, 97.883606%)" offset="0.804688"/><stop stop-opacity="1" stop-color="rgb(29.93927%, 54.79126%, 97.938538%)" offset="0.8125"/><stop stop-opacity="1" stop-color="rgb(30.000305%, 54.594421%, 97.993469%)" offset="0.820312"/><stop stop-opacity="1" stop-color="rgb(30.06134%, 54.399109%, 98.048401%)" offset="0.828125"/><stop stop-opacity="1" stop-color="rgb(30.122375%, 54.202271%, 98.103333%)" offset="0.835938"/><stop stop-opacity="1" stop-color="rgb(30.183411%, 54.006958%, 98.156738%)" offset="0.84375"/><stop stop-opacity="1" stop-color="rgb(30.244446%, 53.81012%, 98.21167%)" offset="0.851562"/><stop stop-opacity="1" stop-color="rgb(30.305481%, 53.614807%, 98.266602%)" offset="0.859375"/><stop stop-opacity="1" stop-color="rgb(30.366516%, 53.419495%, 98.321533%)" offset="0.867187"/><stop stop-opacity="1" stop-color="rgb(30.427551%, 53.222656%, 98.376465%)" offset="0.875"/><stop stop-opacity="1" stop-color="rgb(30.488586%, 53.027344%, 98.429871%)" offset="0.882812"/><stop stop-opacity="1" stop-color="rgb(30.549622%, 52.830505%, 98.484802%)" offset="0.890625"/><stop stop-opacity="1" stop-color="rgb(30.610657%, 52.635193%, 98.539734%)" offset="0.898437"/><stop stop-opacity="1" stop-color="rgb(30.671692%, 52.438354%, 98.594666%)" offset="0.90625"/><stop stop-opacity="1" stop-color="rgb(30.763245%, 52.145386%, 98.675537%)" offset="0.921875"/><stop stop-opacity="1" stop-color="rgb(30.854797%, 51.850891%, 98.757935%)" offset="0.929687"/><stop stop-opacity="1" stop-color="rgb(30.915833%, 51.655579%, 98.812866%)" offset="0.9375"/><stop stop-opacity="1" stop-color="rgb(30.976868%, 51.45874%, 98.867798%)" offset="0.945312"/><stop stop-opacity="1" stop-color="rgb(31.037903%, 51.263428%, 98.922729%)" offset="0.953125"/><stop stop-opacity="1" stop-color="rgb(31.098938%, 51.066589%, 98.977661%)" offset="0.960937"/><stop stop-opacity="1" stop-color="rgb(31.159973%, 50.871277%, 99.031067%)" offset="0.96875"/><stop stop-opacity="1" stop-color="rgb(31.221008%, 50.674438%, 99.085999%)" offset="0.976562"/><stop stop-opacity="1" stop-color="rgb(31.282043%, 50.479126%, 99.14093%)" offset="0.984375"/><stop stop-opacity="1" stop-color="rgb(31.340027%, 50.289917%, 99.19281%)" offset="1"/></linearGradient><clipPath id="0cd1d7fa7a"><path d="M 156 97 L 192 97 L 192 112 L 156 112 Z M 156 97 " clip-rule="nonzero"/></clipPath><clipPath id="d4f045f1ea"><path d="M 149.941406 102.707031 L 195.035156 94.996094 L 199.710938 122.347656 L 154.617188 130.058594 Z M 149.941406 102.707031 " clip-rule="nonzero"/></clipPath><clipPath id="eca0995e21"><path d="M 149.941406 102.707031 L 195.035156 94.996094 L 199.710938 122.347656 L 154.617188 130.058594 Z M 149.941406 102.707031 " clip-rule="nonzero"/></clipPath><clipPath id="3d9763865f"><path d="M 156 104 L 192 104 L 192 118 L 156 118 Z M 156 104 " clip-rule="nonzero"/></clipPath><clipPath id="534caa9009"><path d="M 149.941406 102.707031 L 195.035156 94.996094 L 199.710938 122.347656 L 154.617188 130.058594 Z M 149.941406 102.707031 " clip-rule="nonzero"/></clipPath><clipPath id="0038b66dad"><path d="M 149.941406 102.707031 L 195.035156 94.996094 L 199.710938 122.347656 L 154.617188 130.058594 Z M 149.941406 102.707031 " clip-rule="nonzero"/></clipPath><clipPath id="f63f237354"><path d="M 156 106 L 193 106 L 193 119 L 156 119 Z M 156 106 " clip-rule="nonzero"/></clipPath><clipPath id="f52856c152"><path d="M 149.941406 102.707031 L 195.035156 94.996094 L 199.710938 122.347656 L 154.617188 130.058594 Z M 149.941406 102.707031 " clip-rule="nonzero"/></clipPath><clipPath id="5580f2c561"><path d="M 149.941406 102.707031 L 195.035156 94.996094 L 199.710938 122.347656 L 154.617188 130.058594 Z M 149.941406 102.707031 " clip-rule="nonzero"/></clipPath><clipPath id="237f40192e"><path d="M 153 104 L 199 104 L 199 129 L 153 129 Z M 153 104 " clip-rule="nonzero"/></clipPath><clipPath id="2dceca923a"><path d="M 149.941406 102.707031 L 195.035156 94.996094 L 199.710938 122.347656 L 154.617188 130.058594 Z M 149.941406 102.707031 " clip-rule="nonzero"/></clipPath><clipPath id="caf4577583"><path d="M 149.941406 102.707031 L 195.035156 94.996094 L 199.710938 122.347656 L 154.617188 130.058594 Z M 149.941406 102.707031 " clip-rule="nonzero"/></clipPath><clipPath id="435aefbfe7"><path d="M 159 123 L 169 123 L 169 129 L 159 129 Z M 159 123 " clip-rule="nonzero"/></clipPath><clipPath id="7d0ab46d88"><path d="M 149.941406 102.707031 L 195.035156 94.996094 L 199.710938 122.347656 L 154.617188 130.058594 Z M 149.941406 102.707031 " clip-rule="nonzero"/></clipPath><clipPath id="f17c98ef34"><path d="M 149.941406 102.707031 L 195.035156 94.996094 L 199.710938 122.347656 L 154.617188 130.058594 Z M 149.941406 102.707031 " clip-rule="nonzero"/></clipPath><clipPath id="bee4f84ec2"><path d="M 127 204 L 137 204 L 137 215 L 127 215 Z M 127 204 " clip-rule="nonzero"/></clipPath><clipPath id="1c70714193"><path d="M 125.5 201.46875 L 173.136719 211.824219 L 164.691406 250.667969 L 117.054688 240.3125 Z M 125.5 201.46875 " clip-rule="nonzero"/></clipPath><clipPath id="a381b99d3e"><path d="M 125.5 201.46875 L 173.136719 211.824219 L 164.691406 250.667969 L 117.054688 240.3125 Z M 125.5 201.46875 " clip-rule="nonzero"/></clipPath><clipPath id="bd39e02f2c"><path d="M 125.5 201.46875 L 173.136719 211.824219 L 164.691406 250.667969 L 117.054688 240.3125 Z M 125.5 201.46875 " clip-rule="nonzero"/></clipPath><clipPath id="fecfea4a86"><path d="M 131 209 L 154 209 L 154 235 L 131 235 Z M 131 209 " clip-rule="nonzero"/></clipPath><clipPath id="f645b29442"><path d="M 125.5 201.46875 L 173.136719 211.824219 L 164.691406 250.667969 L 117.054688 240.3125 Z M 125.5 201.46875 " clip-rule="nonzero"/></clipPath><clipPath id="0600ed08cc"><path d="M 125.5 201.46875 L 173.136719 211.824219 L 164.691406 250.667969 L 117.054688 240.3125 Z M 125.5 201.46875 " clip-rule="nonzero"/></clipPath><clipPath id="2c021f2fc4"><path d="M 125.5 201.46875 L 173.136719 211.824219 L 164.691406 250.667969 L 117.054688 240.3125 Z M 125.5 201.46875 " clip-rule="nonzero"/></clipPath><clipPath id="b3fee34435"><path d="M 134 213 L 151 213 L 151 232 L 134 232 Z M 134 213 " clip-rule="nonzero"/></clipPath><clipPath id="aa9821404f"><path d="M 125.5 201.46875 L 173.136719 211.824219 L 164.691406 250.667969 L 117.054688 240.3125 Z M 125.5 201.46875 " clip-rule="nonzero"/></clipPath><clipPath id="b3d5dcf142"><path d="M 125.5 201.46875 L 173.136719 211.824219 L 164.691406 250.667969 L 117.054688 240.3125 Z M 125.5 201.46875 " clip-rule="nonzero"/></clipPath><clipPath id="7a40fed7f7"><path d="M 125.5 201.46875 L 173.136719 211.824219 L 164.691406 250.667969 L 117.054688 240.3125 Z M 125.5 201.46875 " clip-rule="nonzero"/></clipPath><clipPath id="4e156a107b"><path d="M 134 212 L 151 212 L 151 232 L 134 232 Z M 134 212 " clip-rule="nonzero"/></clipPath><clipPath id="4841485db0"><path d="M 125.5 201.46875 L 173.136719 211.824219 L 164.691406 250.667969 L 117.054688 240.3125 Z M 125.5 201.46875 " clip-rule="nonzero"/></clipPath><clipPath id="005790a07c"><path d="M 125.5 201.46875 L 173.136719 211.824219 L 164.691406 250.667969 L 117.054688 240.3125 Z M 125.5 201.46875 " clip-rule="nonzero"/></clipPath><clipPath id="4a4c0ac01d"><path d="M 125.5 201.46875 L 173.136719 211.824219 L 164.691406 250.667969 L 117.054688 240.3125 Z M 125.5 201.46875 " clip-rule="nonzero"/></clipPath><clipPath id="385cf9923a"><path d="M 149 231 L 163 231 L 163 246 L 149 246 Z M 149 231 " clip-rule="nonzero"/></clipPath><clipPath id="4ab813c2cb"><path d="M 125.5 201.46875 L 173.136719 211.824219 L 164.691406 250.667969 L 117.054688 240.3125 Z M 125.5 201.46875 " clip-rule="nonzero"/></clipPath><clipPath id="436261c20e"><path d="M 125.5 201.46875 L 173.136719 211.824219 L 164.691406 250.667969 L 117.054688 240.3125 Z M 125.5 201.46875 " clip-rule="nonzero"/></clipPath><clipPath id="76f7bf8d99"><path d="M 125.5 201.46875 L 173.136719 211.824219 L 164.691406 250.667969 L 117.054688 240.3125 Z M 125.5 201.46875 " clip-rule="nonzero"/></clipPath><clipPath id="f0043d46f6"><path d="M 149 231 L 163 231 L 163 247 L 149 247 Z M 149 231 " clip-rule="nonzero"/></clipPath><clipPath id="270cc07f0b"><path d="M 125.5 201.46875 L 173.136719 211.824219 L 164.691406 250.667969 L 117.054688 240.3125 Z M 125.5 201.46875 " clip-rule="nonzero"/></clipPath><clipPath id="a43769d328"><path d="M 125.5 201.46875 L 173.136719 211.824219 L 164.691406 250.667969 L 117.054688 240.3125 Z M 125.5 201.46875 " clip-rule="nonzero"/></clipPath><clipPath id="3ada29b8b9"><path d="M 125.5 201.46875 L 173.136719 211.824219 L 164.691406 250.667969 L 117.054688 240.3125 Z M 125.5 201.46875 " clip-rule="nonzero"/></clipPath><clipPath id="5d032bb7eb"><path d="M 158 242 L 166 242 L 166 250 L 158 250 Z M 158 242 " clip-rule="nonzero"/></clipPath><clipPath id="c9a7d2ba2a"><path d="M 125.5 201.46875 L 173.136719 211.824219 L 164.691406 250.667969 L 117.054688 240.3125 Z M 125.5 201.46875 " clip-rule="nonzero"/></clipPath><clipPath id="330b73f87d"><path d="M 125.5 201.46875 L 173.136719 211.824219 L 164.691406 250.667969 L 117.054688 240.3125 Z M 125.5 201.46875 " clip-rule="nonzero"/></clipPath><clipPath id="fcd324f16c"><path d="M 125.5 201.46875 L 173.136719 211.824219 L 164.691406 250.667969 L 117.054688 240.3125 Z M 125.5 201.46875 " clip-rule="nonzero"/></clipPath><clipPath id="a8c3f16732"><path d="M 157 242 L 166 242 L 166 250 L 157 250 Z M 157 242 " clip-rule="nonzero"/></clipPath><clipPath id="4a1e565bb0"><path d="M 125.5 201.46875 L 173.136719 211.824219 L 164.691406 250.667969 L 117.054688 240.3125 Z M 125.5 201.46875 " clip-rule="nonzero"/></clipPath><clipPath id="b1a5079bbb"><path d="M 125.5 201.46875 L 173.136719 211.824219 L 164.691406 250.667969 L 117.054688 240.3125 Z M 125.5 201.46875 " clip-rule="nonzero"/></clipPath><clipPath id="ea85a3b831"><path d="M 125.5 201.46875 L 173.136719 211.824219 L 164.691406 250.667969 L 117.054688 240.3125 Z M 125.5 201.46875 " clip-rule="nonzero"/></clipPath><clipPath id="425fd15078"><path d="M 144 227 L 157 227 L 157 238 L 144 238 Z M 144 227 " clip-rule="nonzero"/></clipPath><clipPath id="5796230578"><path d="M 125.5 201.46875 L 173.136719 211.824219 L 164.691406 250.667969 L 117.054688 240.3125 Z M 125.5 201.46875 " clip-rule="nonzero"/></clipPath><clipPath id="2c7f0f97cc"><path d="M 125.5 201.46875 L 173.136719 211.824219 L 164.691406 250.667969 L 117.054688 240.3125 Z M 125.5 201.46875 " clip-rule="nonzero"/></clipPath><clipPath id="6cf7b098a5"><path d="M 125.5 201.46875 L 173.136719 211.824219 L 164.691406 250.667969 L 117.054688 240.3125 Z M 125.5 201.46875 " clip-rule="nonzero"/></clipPath><clipPath id="0a7ea038d4"><path d="M 144 226 L 157 226 L 157 238 L 144 238 Z M 144 226 " clip-rule="nonzero"/></clipPath><clipPath id="270e88d662"><path d="M 125.5 201.46875 L 173.136719 211.824219 L 164.691406 250.667969 L 117.054688 240.3125 Z M 125.5 201.46875 " clip-rule="nonzero"/></clipPath><clipPath id="8f40923fe5"><path d="M 125.5 201.46875 L 173.136719 211.824219 L 164.691406 250.667969 L 117.054688 240.3125 Z M 125.5 201.46875 " clip-rule="nonzero"/></clipPath><clipPath id="7414b566b5"><path d="M 125.5 201.46875 L 173.136719 211.824219 L 164.691406 250.667969 L 117.054688 240.3125 Z M 125.5 201.46875 " clip-rule="nonzero"/></clipPath><clipPath id="41ef557026"><path d="M 125 201 L 129 201 L 129 206 L 125 206 Z M 125 201 " clip-rule="nonzero"/></clipPath><clipPath id="a32a1fb94b"><path d="M 125.5 201.46875 L 173.136719 211.824219 L 164.691406 250.667969 L 117.054688 240.3125 Z M 125.5 201.46875 " clip-rule="nonzero"/></clipPath><clipPath id="3fa83f96f6"><path d="M 125.5 201.46875 L 173.136719 211.824219 L 164.691406 250.667969 L 117.054688 240.3125 Z M 125.5 201.46875 " clip-rule="nonzero"/></clipPath><clipPath id="e03676b987"><path d="M 125.5 201.46875 L 173.136719 211.824219 L 164.691406 250.667969 L 117.054688 240.3125 Z M 125.5 201.46875 " clip-rule="nonzero"/></clipPath><clipPath id="0cf7a4748a"><path d="M 125 201 L 130 201 L 130 207 L 125 207 Z M 125 201 " clip-rule="nonzero"/></clipPath><clipPath id="0eb22e76bb"><path d="M 125.5 201.46875 L 173.136719 211.824219 L 164.691406 250.667969 L 117.054688 240.3125 Z M 125.5 201.46875 " clip-rule="nonzero"/></clipPath><clipPath id="f78bc93298"><path d="M 125.5 201.46875 L 173.136719 211.824219 L 164.691406 250.667969 L 117.054688 240.3125 Z M 125.5 201.46875 " clip-rule="nonzero"/></clipPath><clipPath id="1f95eb3e5d"><path d="M 125.5 201.46875 L 173.136719 211.824219 L 164.691406 250.667969 L 117.054688 240.3125 Z M 125.5 201.46875 " clip-rule="nonzero"/></clipPath><clipPath id="c02f44a607"><path d="M 143 227 L 146 227 L 146 229 L 143 229 Z M 143 227 " clip-rule="nonzero"/></clipPath><clipPath id="4e0abbce9d"><path d="M 125.5 201.46875 L 173.136719 211.824219 L 164.691406 250.667969 L 117.054688 240.3125 Z M 125.5 201.46875 " clip-rule="nonzero"/></clipPath><clipPath id="7919dd969a"><path d="M 125.5 201.46875 L 173.136719 211.824219 L 164.691406 250.667969 L 117.054688 240.3125 Z M 125.5 201.46875 " clip-rule="nonzero"/></clipPath><clipPath id="0113a7ba7c"><path d="M 125.5 201.46875 L 173.136719 211.824219 L 164.691406 250.667969 L 117.054688 240.3125 Z M 125.5 201.46875 " clip-rule="nonzero"/></clipPath><clipPath id="ef76036d9d"><path d="M 143 226 L 147 226 L 147 230 L 143 230 Z M 143 226 " clip-rule="nonzero"/></clipPath><clipPath id="00b6efd337"><path d="M 125.5 201.46875 L 173.136719 211.824219 L 164.691406 250.667969 L 117.054688 240.3125 Z M 125.5 201.46875 " clip-rule="nonzero"/></clipPath><clipPath id="86c1b4c2a1"><path d="M 125.5 201.46875 L 173.136719 211.824219 L 164.691406 250.667969 L 117.054688 240.3125 Z M 125.5 201.46875 " clip-rule="nonzero"/></clipPath><clipPath id="05abc78a10"><path d="M 125.5 201.46875 L 173.136719 211.824219 L 164.691406 250.667969 L 117.054688 240.3125 Z M 125.5 201.46875 " clip-rule="nonzero"/></clipPath><clipPath id="1318e496d7"><path d="M 141 223 L 143 223 L 143 226 L 141 226 Z M 141 223 " clip-rule="nonzero"/></clipPath><clipPath id="90e63405aa"><path d="M 125.5 201.46875 L 173.136719 211.824219 L 164.691406 250.667969 L 117.054688 240.3125 Z M 125.5 201.46875 " clip-rule="nonzero"/></clipPath><clipPath id="cbc4a59eab"><path d="M 125.5 201.46875 L 173.136719 211.824219 L 164.691406 250.667969 L 117.054688 240.3125 Z M 125.5 201.46875 " clip-rule="nonzero"/></clipPath><clipPath id="8cc5a9bccb"><path d="M 125.5 201.46875 L 173.136719 211.824219 L 164.691406 250.667969 L 117.054688 240.3125 Z M 125.5 201.46875 " clip-rule="nonzero"/></clipPath><clipPath id="de5aa827e4"><path d="M 140 223 L 144 223 L 144 226 L 140 226 Z M 140 223 " clip-rule="nonzero"/></clipPath><clipPath id="e6492a1cbf"><path d="M 125.5 201.46875 L 173.136719 211.824219 L 164.691406 250.667969 L 117.054688 240.3125 Z M 125.5 201.46875 " clip-rule="nonzero"/></clipPath><clipPath id="0b9a997b7b"><path d="M 125.5 201.46875 L 173.136719 211.824219 L 164.691406 250.667969 L 117.054688 240.3125 Z M 125.5 201.46875 " clip-rule="nonzero"/></clipPath><clipPath id="5c1ddbb411"><path d="M 125.5 201.46875 L 173.136719 211.824219 L 164.691406 250.667969 L 117.054688 240.3125 Z M 125.5 201.46875 " clip-rule="nonzero"/></clipPath><clipPath id="c346253b6a"><path d="M 138 219 L 140 219 L 140 222 L 138 222 Z M 138 219 " clip-rule="nonzero"/></clipPath><clipPath id="92d23c905c"><path d="M 125.5 201.46875 L 173.136719 211.824219 L 164.691406 250.667969 L 117.054688 240.3125 Z M 125.5 201.46875 " clip-rule="nonzero"/></clipPath><clipPath id="0ecfae3378"><path d="M 125.5 201.46875 L 173.136719 211.824219 L 164.691406 250.667969 L 117.054688 240.3125 Z M 125.5 201.46875 " clip-rule="nonzero"/></clipPath><clipPath id="14930dbab6"><path d="M 125.5 201.46875 L 173.136719 211.824219 L 164.691406 250.667969 L 117.054688 240.3125 Z M 125.5 201.46875 " clip-rule="nonzero"/></clipPath><clipPath id="803c346c80"><path d="M 137 219 L 141 219 L 141 222 L 137 222 Z M 137 219 " clip-rule="nonzero"/></clipPath><clipPath id="be719b72e9"><path d="M 125.5 201.46875 L 173.136719 211.824219 L 164.691406 250.667969 L 117.054688 240.3125 Z M 125.5 201.46875 " clip-rule="nonzero"/></clipPath><clipPath id="090ae45a46"><path d="M 125.5 201.46875 L 173.136719 211.824219 L 164.691406 250.667969 L 117.054688 240.3125 Z M 125.5 201.46875 " clip-rule="nonzero"/></clipPath><clipPath id="0ff524dd8b"><path d="M 125.5 201.46875 L 173.136719 211.824219 L 164.691406 250.667969 L 117.054688 240.3125 Z M 125.5 201.46875 " clip-rule="nonzero"/></clipPath><clipPath id="02ee7dcff9"><path d="M 129 205 L 134 205 L 134 212 L 129 212 Z M 129 205 " clip-rule="nonzero"/></clipPath><clipPath id="b3a23b3c0f"><path d="M 125.5 201.46875 L 173.136719 211.824219 L 164.691406 250.667969 L 117.054688 240.3125 Z M 125.5 201.46875 " clip-rule="nonzero"/></clipPath><clipPath id="c35e9b0a92"><path d="M 125.5 201.46875 L 173.136719 211.824219 L 164.691406 250.667969 L 117.054688 240.3125 Z M 125.5 201.46875 " clip-rule="nonzero"/></clipPath><clipPath id="da02473986"><path d="M 125.5 201.46875 L 173.136719 211.824219 L 164.691406 250.667969 L 117.054688 240.3125 Z M 125.5 201.46875 " clip-rule="nonzero"/></clipPath><clipPath id="339bac511b"><path d="M 137 214 L 149 214 L 149 228 L 137 228 Z M 137 214 " clip-rule="nonzero"/></clipPath><clipPath id="e83f60b788"><path d="M 125.5 201.46875 L 173.136719 211.824219 L 164.691406 250.667969 L 117.054688 240.3125 Z M 125.5 201.46875 " clip-rule="nonzero"/></clipPath><clipPath id="5dc6e04a92"><path d="M 125.5 201.46875 L 173.136719 211.824219 L 164.691406 250.667969 L 117.054688 240.3125 Z M 125.5 201.46875 " clip-rule="nonzero"/></clipPath><clipPath id="fe620dc9d6"><path d="M 125.5 201.46875 L 173.136719 211.824219 L 164.691406 250.667969 L 117.054688 240.3125 Z M 125.5 201.46875 " clip-rule="nonzero"/></clipPath><clipPath id="f2ab2d7ea7"><path d="M 151 233 L 161 233 L 161 245 L 151 245 Z M 151 233 " clip-rule="nonzero"/></clipPath><clipPath id="541705cfd0"><path d="M 125.5 201.46875 L 173.136719 211.824219 L 164.691406 250.667969 L 117.054688 240.3125 Z M 125.5 201.46875 " clip-rule="nonzero"/></clipPath><clipPath id="c941085d10"><path d="M 125.5 201.46875 L 173.136719 211.824219 L 164.691406 250.667969 L 117.054688 240.3125 Z M 125.5 201.46875 " clip-rule="nonzero"/></clipPath><clipPath id="6236033f28"><path d="M 125.5 201.46875 L 173.136719 211.824219 L 164.691406 250.667969 L 117.054688 240.3125 Z M 125.5 201.46875 " clip-rule="nonzero"/></clipPath><clipPath id="554e5f9c6e"><path d="M 160 243 L 165 243 L 165 248 L 160 248 Z M 160 243 " clip-rule="nonzero"/></clipPath><clipPath id="d0ad6033de"><path d="M 125.5 201.46875 L 173.136719 211.824219 L 164.691406 250.667969 L 117.054688 240.3125 Z M 125.5 201.46875 " clip-rule="nonzero"/></clipPath><clipPath id="3c945542a3"><path d="M 125.5 201.46875 L 173.136719 211.824219 L 164.691406 250.667969 L 117.054688 240.3125 Z M 125.5 201.46875 " clip-rule="nonzero"/></clipPath><clipPath id="e6c306c3d8"><path d="M 125.5 201.46875 L 173.136719 211.824219 L 164.691406 250.667969 L 117.054688 240.3125 Z M 125.5 201.46875 " clip-rule="nonzero"/></clipPath></defs><g clip-path="url(#458b5bcaf6)"><path fill="#f6f6f6" d="M 226.257812 186.410156 C 226.257812 186.410156 222.851562 180.054688 225.277344 177.628906 C 227.703125 175.199219 230.101562 177.285156 230.617188 178.371094 C 231.132812 179.457031 231.578125 182.285156 232.507812 181.925781 C 233.4375 181.5625 233.894531 180.46875 233.894531 180.46875 C 233.894531 180.46875 233.84375 173.597656 235.699219 170.910156 C 237.558594 168.222656 238.488281 168.945312 239.570312 169.722656 C 240.65625 170.496094 238.796875 179.902344 238.796875 179.902344 C 238.796875 179.902344 244.0625 171.476562 246.074219 170.859375 C 248.085938 170.238281 249.738281 172.097656 249.738281 173.855469 C 249.738281 175.613281 243.75 182.949219 243.75 182.949219 C 243.75 182.949219 251.128906 177.058594 252.730469 177.472656 C 254.332031 177.886719 255.3125 179.902344 254.742188 181.710938 C 254.175781 183.519531 247.570312 187.859375 247.570312 187.859375 C 247.570312 187.859375 253.402344 187.910156 254.019531 188.945312 C 254.640625 189.976562 255.15625 193.183594 252.265625 194.214844 C 249.375 195.25 244.886719 193.800781 244.886719 193.800781 C 244.886719 193.800781 240.707031 198.917969 236.164062 198.867188 C 231.625 198.816406 225.691406 188.789062 226.257812 186.414062 Z M 226.257812 186.410156 " fill-opacity="1" fill-rule="nonzero"/></g><path fill="#160e0b" d="M 233.113281 184.238281 C 234.441406 186.210938 233.800781 188.71875 232.839844 190.695312 C 232.6875 191.003906 232.53125 191.304688 232.371094 191.605469 C 232.292969 191.75 232.210938 191.894531 232.132812 192.039062 C 232.089844 192.121094 232.042969 192.203125 232 192.285156 C 231.984375 192.3125 231.96875 192.339844 231.953125 192.363281 C 231.941406 192.390625 231.925781 192.414062 231.914062 192.4375 C 231.871094 192.492188 231.894531 192.554688 231.984375 192.613281 L 231.875 192.660156 L 231.894531 192.65625 L 231.785156 192.613281 L 231.804688 192.628906 C 231.945312 192.765625 232.160156 192.550781 232.019531 192.414062 C 231.820312 192.222656 231.574219 192.546875 231.742188 192.722656 C 231.988281 192.980469 232.222656 192.511719 232.304688 192.355469 C 232.675781 191.6875 233.039062 191.019531 233.347656 190.320312 C 233.921875 189.023438 234.304688 187.617188 234.128906 186.191406 C 234.039062 185.4375 233.800781 184.710938 233.375 184.082031 C 233.265625 183.921875 233.003906 184.074219 233.113281 184.238281 Z M 233.113281 184.238281 " fill-opacity="1" fill-rule="nonzero"/><path fill="#f6f6f6" d="M 242.917969 193.414062 C 242.503906 193.949219 229.3125 205.796875 217.601562 206.566406 C 205.890625 207.335938 200.914062 206.683594 201.269531 206.566406 C 201.625 206.449219 199.496094 193.710938 199.730469 193.355469 C 199.96875 193 218.128906 191.34375 225.757812 186.664062 L 242.921875 193.414062 Z M 242.917969 193.414062 " fill-opacity="1" fill-rule="nonzero"/><g clip-path="url(#dcb8125012)"><path fill="#f6f6f6" d="M 187.269531 260.730469 C 189.492188 263.023438 212.847656 262.617188 214.597656 262.082031 C 216.347656 261.539062 216.75 258.304688 214.867188 254.867188 C 212.980469 251.429688 205.105469 250.015625 205.105469 250.015625 C 205.105469 250.015625 204.835938 243.5 204.605469 238.292969 C 204.457031 234.914062 204.324219 232.085938 204.300781 231.953125 L 204.367188 231.683594 C 204.367188 231.683594 187.808594 236.804688 187.742188 236.671875 C 187.71875 236.621094 187.671875 238.996094 187.628906 241.980469 C 187.550781 246.917969 187.472656 253.519531 187.472656 253.519531 C 187.472656 253.519531 185.050781 258.441406 187.273438 260.730469 Z M 187.269531 260.730469 " fill-opacity="1" fill-rule="nonzero"/></g><path fill="#54a3e6" d="M 187.625 241.980469 C 195.972656 241.753906 201.378906 239.902344 204.605469 238.292969 C 204.457031 234.914062 204.324219 232.085938 204.300781 231.953125 L 204.367188 231.683594 C 204.367188 231.683594 187.808594 236.804688 187.742188 236.671875 C 187.71875 236.621094 187.671875 238.996094 187.628906 241.980469 Z M 187.625 241.980469 " fill-opacity="1" fill-rule="nonzero"/><path fill="#f6f6f6" d="M 180.503906 259.429688 C 178.285156 261.71875 154.929688 261.316406 153.179688 260.777344 C 151.429688 260.238281 151.023438 257.003906 152.910156 253.566406 C 154.792969 250.128906 162.667969 248.710938 162.667969 248.710938 C 162.667969 248.710938 162.941406 242.195312 163.171875 236.988281 C 163.320312 233.609375 163.449219 230.78125 163.476562 230.648438 L 163.410156 230.378906 C 163.410156 230.378906 179.964844 235.5 180.035156 235.367188 C 180.058594 235.316406 180.105469 237.691406 180.148438 240.675781 C 180.222656 245.613281 180.304688 252.21875 180.304688 252.21875 C 180.304688 252.21875 182.726562 257.136719 180.503906 259.429688 Z M 180.503906 259.429688 " fill-opacity="1" fill-rule="nonzero"/><path fill="#54a3e6" d="M 180.148438 240.675781 C 171.804688 240.453125 166.398438 238.597656 163.171875 236.988281 C 163.320312 233.609375 163.449219 230.78125 163.476562 230.648438 L 163.410156 230.378906 C 163.410156 230.378906 179.964844 235.5 180.035156 235.367188 C 180.058594 235.316406 180.105469 237.691406 180.148438 240.675781 Z M 180.148438 240.675781 " fill-opacity="1" fill-rule="nonzero"/><path fill="#f6f6f6" d="M 181.144531 236.601562 C 181.144531 236.621094 181.148438 236.699219 181.148438 236.835938 C 181.277344 236.859375 181.347656 236.871094 181.347656 236.871094 Z M 181.144531 236.601562 " fill-opacity="1" fill-rule="nonzero"/><path fill="#f6f6f6" d="M 166.136719 236.535156 C 177.308594 240.511719 204.972656 241.050781 209.75 226.089844 C 210.941406 222.371094 211.394531 218.269531 211.402344 214.203125 C 211.40625 213.558594 211.394531 212.914062 211.375 212.269531 C 211.011719 200.671875 207.347656 189.855469 207.058594 189.421875 L 165.464844 193.871094 C 165.464844 193.871094 162.234375 197.039062 160.414062 203.847656 C 159.84375 205.996094 159.085938 209.648438 158.675781 213.769531 C 158.539062 215.136719 158.4375 216.554688 158.394531 217.984375 C 158.160156 225.90625 159.664062 234.230469 166.136719 236.535156 Z M 166.136719 236.535156 " fill-opacity="1" fill-rule="nonzero"/><path fill="#f6f6f6" d="M 143.320312 241.859375 C 146.753906 249.003906 154.089844 252.304688 157.65625 249.679688 C 161.222656 247.050781 156.578125 241.523438 156.242188 240.984375 C 155.90625 240.445312 157.1875 241.726562 158.933594 241.859375 C 160.683594 241.996094 162.433594 240.445312 161.828125 238.488281 C 161.222656 236.535156 158.933594 229.796875 161.089844 217.328125 C 163.242188 204.855469 170.308594 196.632812 171.183594 196.164062 C 171.183594 196.164062 167.214844 194.140625 160.148438 196.230469 C 153.078125 198.320312 148.164062 207.082031 145.945312 212.542969 C 145.683594 213.179688 145.402344 213.96875 145.113281 214.882812 C 144.824219 215.796875 144.527344 216.832031 144.234375 217.953125 C 142.328125 225.296875 140.691406 236.386719 143.320312 241.859375 Z M 143.320312 241.859375 " fill-opacity="1" fill-rule="nonzero"/><path fill="#54a3e6" d="M 144.925781 215.492188 C 148.082031 217.914062 152.78125 220.207031 158.765625 218.4375 L 158.667969 222.078125 C 158.667969 222.078125 152.40625 224 144.53125 218.84375 C 144.378906 218.742188 144.230469 218.644531 144.085938 218.542969 Z M 144.925781 215.492188 " fill-opacity="1" fill-rule="nonzero"/><path fill="#54a3e6" d="M 181.144531 236.601562 C 181.144531 236.621094 181.148438 236.699219 181.148438 236.835938 C 181.277344 236.859375 181.347656 236.871094 181.347656 236.871094 Z M 181.144531 236.601562 " fill-opacity="1" fill-rule="nonzero"/><path fill="#54a3e6" d="M 158.394531 217.984375 C 162.957031 219.417969 194.136719 224.671875 211.402344 214.203125 C 211.40625 213.558594 211.394531 212.914062 211.375 212.269531 C 203.355469 214.394531 177.105469 221.269531 158.597656 214.5625 C 158.460938 215.929688 158.4375 216.554688 158.394531 217.984375 Z M 158.394531 217.984375 " fill-opacity="1" fill-rule="nonzero"/><path fill="#54a3e6" d="M 162.636719 202.632812 C 162.929688 202.390625 155.773438 210.992188 160.28125 229.390625 C 160.28125 229.390625 152.40625 211.191406 162.636719 202.632812 Z M 162.636719 202.632812 " fill-opacity="1" fill-rule="nonzero"/><path fill="#f6f6f6" d="M 222.300781 139.449219 C 222.125 139.472656 221.152344 120.132812 221.152344 120.132812 L 225.660156 119.546875 C 225.660156 119.546875 229.554688 143.074219 229.117188 143.171875 C 228.679688 143.269531 222.300781 139.449219 222.300781 139.449219 Z M 222.300781 139.449219 " fill-opacity="1" fill-rule="nonzero"/><g clip-path="url(#75e8a69e9e)"><path fill="#f6f6f6" d="M 226.9375 116.582031 C 226.9375 116.851562 226.910156 117.113281 226.859375 117.378906 C 226.804688 117.640625 226.726562 117.894531 226.625 118.144531 C 226.523438 118.390625 226.398438 118.625 226.25 118.847656 C 226.101562 119.074219 225.929688 119.277344 225.742188 119.46875 C 225.554688 119.65625 225.347656 119.828125 225.125 119.976562 C 224.902344 120.125 224.667969 120.25 224.417969 120.351562 C 224.171875 120.457031 223.917969 120.53125 223.65625 120.585938 C 223.394531 120.636719 223.128906 120.664062 222.859375 120.664062 C 222.59375 120.664062 222.328125 120.636719 222.066406 120.585938 C 221.800781 120.53125 221.546875 120.457031 221.300781 120.351562 C 221.050781 120.25 220.816406 120.125 220.59375 119.976562 C 220.371094 119.828125 220.167969 119.65625 219.976562 119.46875 C 219.789062 119.277344 219.621094 119.074219 219.46875 118.847656 C 219.320312 118.625 219.195312 118.390625 219.09375 118.144531 C 218.992188 117.894531 218.914062 117.640625 218.863281 117.378906 C 218.808594 117.113281 218.785156 116.851562 218.785156 116.582031 C 218.785156 116.3125 218.808594 116.046875 218.863281 115.785156 C 218.914062 115.523438 218.992188 115.265625 219.09375 115.019531 C 219.195312 114.773438 219.320312 114.535156 219.46875 114.3125 C 219.621094 114.089844 219.789062 113.882812 219.976562 113.695312 C 220.167969 113.503906 220.371094 113.335938 220.59375 113.1875 C 220.816406 113.039062 221.050781 112.914062 221.300781 112.808594 C 221.546875 112.707031 221.800781 112.628906 222.066406 112.578125 C 222.328125 112.527344 222.59375 112.5 222.859375 112.5 C 223.128906 112.5 223.394531 112.527344 223.65625 112.578125 C 223.917969 112.628906 224.171875 112.707031 224.417969 112.808594 C 224.667969 112.914062 224.902344 113.039062 225.125 113.1875 C 225.347656 113.335938 225.554688 113.503906 225.742188 113.695312 C 225.929688 113.882812 226.101562 114.089844 226.25 114.3125 C 226.398438 114.535156 226.523438 114.773438 226.625 115.019531 C 226.726562 115.265625 226.804688 115.523438 226.859375 115.785156 C 226.910156 116.046875 226.9375 116.3125 226.9375 116.582031 Z M 226.9375 116.582031 " fill-opacity="1" fill-rule="nonzero"/></g><path fill="#54a3e6" d="M 227.988281 166.734375 L 226.117188 167.054688 C 221.753906 167.800781 217.609375 164.863281 216.863281 160.492188 L 214.339844 145.71875 C 213.589844 141.347656 216.523438 137.199219 220.890625 136.449219 L 222.761719 136.128906 C 227.125 135.382812 231.269531 138.320312 232.015625 142.691406 L 234.539062 157.464844 C 235.285156 161.835938 232.351562 165.988281 227.988281 166.734375 Z M 227.988281 166.734375 " fill-opacity="1" fill-rule="nonzero"/><path fill="#f6f6f6" d="M 134.464844 153.804688 C 134.636719 153.761719 128.546875 135.382812 128.546875 135.382812 L 124.132812 136.472656 C 124.132812 136.472656 129.011719 159.8125 129.457031 159.746094 C 129.898438 159.675781 134.464844 153.804688 134.464844 153.804688 Z M 134.464844 153.804688 " fill-opacity="1" fill-rule="nonzero"/><path fill="#f6f6f6" d="M 128.550781 129.804688 C 128.742188 129.996094 128.910156 130.199219 129.058594 130.425781 C 129.207031 130.648438 129.332031 130.882812 129.4375 131.128906 C 129.539062 131.378906 129.617188 131.632812 129.667969 131.894531 C 129.71875 132.160156 129.746094 132.421875 129.746094 132.691406 C 129.746094 132.960938 129.71875 133.226562 129.667969 133.488281 C 129.617188 133.75 129.539062 134.007812 129.4375 134.253906 C 129.332031 134.5 129.207031 134.738281 129.058594 134.960938 C 128.910156 135.183594 128.742188 135.386719 128.550781 135.578125 C 128.363281 135.769531 128.15625 135.9375 127.933594 136.085938 C 127.710938 136.234375 127.476562 136.359375 127.230469 136.464844 C 126.984375 136.566406 126.726562 136.644531 126.464844 136.695312 C 126.203125 136.746094 125.9375 136.773438 125.671875 136.773438 C 125.402344 136.773438 125.136719 136.746094 124.875 136.695312 C 124.613281 136.644531 124.359375 136.566406 124.109375 136.464844 C 123.863281 136.359375 123.628906 136.234375 123.40625 136.085938 C 123.183594 135.9375 122.976562 135.769531 122.789062 135.578125 C 122.597656 135.386719 122.429688 135.183594 122.28125 134.960938 C 122.132812 134.738281 122.007812 134.5 121.902344 134.253906 C 121.800781 134.007812 121.722656 133.75 121.671875 133.488281 C 121.621094 133.226562 121.59375 132.960938 121.59375 132.691406 C 121.59375 132.421875 121.621094 132.160156 121.671875 131.894531 C 121.722656 131.632812 121.800781 131.378906 121.902344 131.128906 C 122.007812 130.882812 122.132812 130.648438 122.28125 130.425781 C 122.429688 130.199219 122.597656 129.996094 122.789062 129.804688 C 122.976562 129.617188 123.183594 129.445312 123.40625 129.296875 C 123.628906 129.148438 123.863281 129.023438 124.109375 128.921875 C 124.359375 128.816406 124.613281 128.742188 124.875 128.6875 C 125.136719 128.636719 125.402344 128.609375 125.671875 128.609375 C 125.9375 128.609375 126.203125 128.636719 126.464844 128.6875 C 126.726562 128.742188 126.984375 128.816406 127.230469 128.921875 C 127.476562 129.023438 127.710938 129.148438 127.933594 129.296875 C 128.15625 129.445312 128.363281 129.617188 128.550781 129.804688 Z M 128.550781 129.804688 " fill-opacity="1" fill-rule="nonzero"/><path fill="#54a3e6" d="M 139.03125 181.296875 L 140.890625 180.917969 C 145.230469 180.03125 148.03125 175.789062 147.144531 171.445312 L 144.152344 156.757812 C 143.269531 152.414062 139.03125 149.609375 134.691406 150.496094 L 132.835938 150.875 C 128.496094 151.761719 125.695312 156.003906 126.582031 160.347656 L 129.574219 175.035156 C 130.457031 179.378906 134.691406 182.183594 139.03125 181.296875 Z M 139.03125 181.296875 " fill-opacity="1" fill-rule="nonzero"/><path fill="#f6f6f6" d="M 226.472656 152.386719 C 230.703125 175.597656 213.359375 194.0625 188.332031 198.636719 C 163.308594 203.210938 140.074219 192.164062 135.84375 168.949219 C 131.613281 145.738281 137.859375 121.378906 173.011719 114.578125 C 208.363281 107.742188 222.242188 129.171875 226.472656 152.386719 Z M 226.472656 152.386719 " fill-opacity="1" fill-rule="nonzero"/><path fill="#160e0b" d="M 160.714844 135.988281 C 160.714844 135.988281 145.59375 139.597656 144.730469 153.363281 C 143.914062 166.332031 146.546875 187.53125 172.054688 189.738281 C 197.566406 191.949219 215.679688 179.351562 217.855469 162.554688 C 220.035156 145.757812 212.453125 132.410156 202.679688 130.710938 C 189.238281 128.367188 160.714844 135.988281 160.714844 135.988281 Z M 160.714844 135.988281 " fill-opacity="1" fill-rule="nonzero"/><path fill="#54a3e6" d="M 170.753906 168.632812 C 171.109375 168.496094 174.355469 170.371094 182.519531 169.203125 C 190.367188 168.078125 192.734375 164.792969 193.652344 165.460938 C 194.945312 166.40625 191.726562 176.929688 182.863281 177.570312 C 174 178.214844 168.398438 169.515625 170.753906 168.632812 Z M 170.753906 168.632812 " fill-opacity="1" fill-rule="nonzero"/><path fill="#54a3e6" d="M 205.003906 152.109375 C 205.066406 152.621094 205.089844 153.132812 205.078125 153.644531 C 205.070312 154.152344 205.023438 154.652344 204.9375 155.144531 C 204.855469 155.632812 204.738281 156.101562 204.589844 156.554688 C 204.4375 157.003906 204.253906 157.425781 204.039062 157.816406 C 203.828125 158.210938 203.585938 158.566406 203.316406 158.886719 C 203.046875 159.207031 202.757812 159.488281 202.445312 159.722656 C 202.132812 159.960938 201.800781 160.148438 201.457031 160.292969 C 201.113281 160.433594 200.757812 160.527344 200.394531 160.570312 C 200.03125 160.613281 199.664062 160.609375 199.292969 160.550781 C 198.925781 160.496094 198.5625 160.386719 198.203125 160.234375 C 197.839844 160.078125 197.492188 159.875 197.15625 159.628906 C 196.820312 159.378906 196.5 159.089844 196.199219 158.757812 C 195.898438 158.425781 195.621094 158.0625 195.371094 157.660156 C 195.117188 157.257812 194.890625 156.832031 194.695312 156.375 C 194.5 155.917969 194.335938 155.441406 194.207031 154.949219 C 194.074219 154.457031 193.976562 153.953125 193.917969 153.441406 C 193.855469 152.929688 193.828125 152.417969 193.839844 151.90625 C 193.851562 151.398438 193.898438 150.898438 193.980469 150.40625 C 194.0625 149.917969 194.179688 149.449219 194.332031 149 C 194.484375 148.546875 194.664062 148.128906 194.878906 147.734375 C 195.09375 147.339844 195.335938 146.984375 195.605469 146.664062 C 195.871094 146.34375 196.164062 146.066406 196.476562 145.828125 C 196.789062 145.59375 197.117188 145.402344 197.460938 145.257812 C 197.808594 145.117188 198.164062 145.023438 198.527344 144.980469 C 198.890625 144.9375 199.257812 144.941406 199.625 145 C 199.996094 145.058594 200.359375 145.164062 200.71875 145.320312 C 201.078125 145.472656 201.425781 145.675781 201.761719 145.921875 C 202.101562 146.171875 202.417969 146.460938 202.71875 146.792969 C 203.019531 147.125 203.296875 147.488281 203.550781 147.890625 C 203.804688 148.292969 204.027344 148.722656 204.222656 149.175781 C 204.421875 149.632812 204.585938 150.109375 204.714844 150.601562 C 204.847656 151.09375 204.941406 151.597656 205.003906 152.109375 Z M 205.003906 152.109375 " fill-opacity="1" fill-rule="nonzero"/><path fill="#54a3e6" d="M 168.375 157.949219 C 168.433594 158.460938 168.460938 158.96875 168.449219 159.480469 C 168.4375 159.992188 168.390625 160.492188 168.308594 160.980469 C 168.226562 161.472656 168.109375 161.941406 167.957031 162.390625 C 167.804688 162.839844 167.625 163.261719 167.410156 163.65625 C 167.195312 164.046875 166.953125 164.40625 166.6875 164.726562 C 166.417969 165.046875 166.125 165.324219 165.8125 165.5625 C 165.5 165.796875 165.171875 165.988281 164.828125 166.128906 C 164.480469 166.273438 164.128906 166.363281 163.761719 166.410156 C 163.398438 166.453125 163.03125 166.445312 162.664062 166.390625 C 162.292969 166.332031 161.929688 166.226562 161.570312 166.070312 C 161.210938 165.914062 160.863281 165.714844 160.527344 165.464844 C 160.1875 165.21875 159.871094 164.925781 159.570312 164.597656 C 159.269531 164.265625 158.992188 163.898438 158.738281 163.496094 C 158.484375 163.097656 158.261719 162.667969 158.066406 162.210938 C 157.871094 161.753906 157.707031 161.28125 157.574219 160.789062 C 157.445312 160.292969 157.347656 159.792969 157.285156 159.277344 C 157.222656 158.765625 157.199219 158.257812 157.210938 157.746094 C 157.222656 157.234375 157.269531 156.734375 157.351562 156.246094 C 157.433594 155.753906 157.550781 155.285156 157.703125 154.835938 C 157.851562 154.386719 158.035156 153.964844 158.25 153.570312 C 158.464844 153.179688 158.703125 152.820312 158.972656 152.5 C 159.242188 152.179688 159.53125 151.902344 159.84375 151.664062 C 160.15625 151.429688 160.488281 151.238281 160.832031 151.097656 C 161.175781 150.953125 161.53125 150.863281 161.894531 150.816406 C 162.261719 150.773438 162.625 150.78125 162.996094 150.835938 C 163.363281 150.894531 163.730469 151 164.089844 151.15625 C 164.449219 151.3125 164.796875 151.511719 165.132812 151.761719 C 165.46875 152.007812 165.789062 152.300781 166.089844 152.628906 C 166.390625 152.960938 166.667969 153.328125 166.921875 153.730469 C 167.171875 154.128906 167.398438 154.558594 167.59375 155.015625 C 167.789062 155.472656 167.953125 155.945312 168.085938 156.4375 C 168.214844 156.933594 168.3125 157.433594 168.375 157.949219 Z M 168.375 157.949219 " fill-opacity="1" fill-rule="nonzero"/><path fill="#54a3e6" d="M 160.414062 166.183594 C 160.414062 166.183594 160.410156 166.183594 160.410156 166.183594 C 160.410156 166.183594 160.414062 166.183594 160.414062 166.183594 Z M 160.414062 166.179688 Z M 156.5 155.769531 C 156.5 155.769531 156.503906 155.769531 156.503906 155.769531 C 156.503906 155.769531 156.503906 155.769531 156.5 155.769531 Z M 156.5 155.769531 Z M 156.5 155.769531 " fill-opacity="1" fill-rule="nonzero"/><g clip-path="url(#da6fb72fb7)"><path fill="#1f2b5b" d="M 198.378906 200.027344 L 198.378906 196.804688 L 200.628906 196.804688 C 200.628906 196.804688 200.660156 198.316406 200.082031 198.921875 C 199.507812 199.53125 198.378906 200.027344 198.378906 200.027344 Z M 198.378906 200.027344 " fill-opacity="1" fill-rule="nonzero"/></g><g clip-path="url(#85c2b1c1be)"><g clip-path="url(#298a2e28d3)"><path fill="url(#5a3d9eabc4)" d="M 194.628906 196.929688 L 194.628906 202.792969 L 200.632812 202.792969 L 200.632812 196.929688 Z M 194.628906 196.929688 " fill-rule="nonzero"/></g></g><g clip-path="url(#9913677d39)"><path fill="#1f2b5b" d="M 200.628906 202.566406 L 200.628906 205.789062 L 198.378906 205.789062 C 198.378906 205.789062 198.347656 204.28125 198.921875 203.671875 C 199.5 203.066406 200.628906 202.566406 200.628906 202.566406 Z M 200.628906 202.566406 " fill-opacity="1" fill-rule="nonzero"/></g><g clip-path="url(#1d2211a0e4)"><g clip-path="url(#a19f85ec2f)"><path fill="url(#3b0f7164cc)" d="M 204.378906 205.667969 L 204.378906 199.800781 L 198.375 199.800781 L 198.375 205.667969 Z M 204.378906 205.667969 " fill-rule="nonzero"/></g></g><g clip-path="url(#0cd1d7fa7a)"><g clip-path="url(#d4f045f1ea)"><g clip-path="url(#eca0995e21)"><path fill="#002d75" d="M 191.234375 104.207031 C 191.292969 104.539062 191.328125 104.875 191.34375 105.203125 C 190.414062 104.746094 189.433594 104.382812 188.429688 104.128906 C 183.382812 102.847656 178.285156 102.632812 173.277344 103.488281 C 168.269531 104.34375 163.535156 106.238281 159.203125 109.125 C 158.335938 109.699219 157.535156 110.367188 156.808594 111.109375 C 156.714844 110.792969 156.636719 110.464844 156.582031 110.132812 C 155.796875 105.542969 158.890625 101.171875 163.480469 100.386719 L 181.488281 97.308594 C 186.078125 96.523438 190.449219 99.617188 191.234375 104.207031 Z M 191.234375 104.207031 " fill-opacity="1" fill-rule="nonzero"/></g></g></g><g clip-path="url(#3d9763865f)"><g clip-path="url(#534caa9009)"><g clip-path="url(#0038b66dad)"><path fill="#002d75" d="M 191.300781 106.601562 C 190.339844 106.082031 189.277344 105.65625 188.117188 105.359375 C 183.242188 104.121094 178.320312 103.914062 173.492188 104.742188 C 168.660156 105.566406 164.089844 107.398438 159.90625 110.183594 C 158.910156 110.847656 158.050781 111.601562 157.316406 112.410156 C 157.15625 112.578125 157.007812 112.753906 156.863281 112.929688 C 158.640625 116.320312 162.457031 118.339844 166.433594 117.660156 L 173.617188 116.429688 L 173.453125 115.484375 L 171.175781 115.875 C 170.253906 116.03125 169.363281 115.34375 169.191406 114.339844 C 169.019531 113.332031 169.628906 112.386719 170.554688 112.230469 L 172.832031 111.839844 L 172.441406 109.5625 C 172.285156 108.640625 172.972656 107.75 173.976562 107.578125 C 174.984375 107.40625 175.929688 108.015625 176.085938 108.941406 L 176.476562 111.21875 L 178.75 110.828125 C 179.675781 110.671875 180.5625 111.355469 180.738281 112.363281 C 180.910156 113.371094 180.300781 114.316406 179.375 114.472656 L 177.097656 114.863281 L 177.261719 115.808594 L 184.441406 114.582031 C 188.421875 113.898438 191.347656 110.730469 191.898438 106.9375 C 191.703125 106.820312 191.503906 106.707031 191.300781 106.601562 Z M 191.300781 106.601562 " fill-opacity="1" fill-rule="nonzero"/></g></g></g><g clip-path="url(#f63f237354)"><g clip-path="url(#f52856c152)"><g clip-path="url(#5580f2c561)"><path fill="#ffffff" d="M 191.898438 106.9375 C 191.703125 106.820312 191.503906 106.707031 191.300781 106.601562 C 190.878906 110.226562 188.113281 113.308594 184.335938 113.953125 L 177.152344 115.179688 L 177.367188 116.433594 L 184.550781 115.207031 C 188.699219 114.496094 191.789062 111.238281 192.480469 107.308594 C 192.289062 107.183594 192.097656 107.058594 191.898438 106.9375 Z M 166.324219 117.03125 C 162.546875 117.679688 158.914062 115.691406 157.316406 112.410156 C 157.15625 112.578125 157.007812 112.753906 156.863281 112.929688 C 156.714844 113.109375 156.574219 113.289062 156.4375 113.472656 C 158.394531 116.949219 162.390625 118.996094 166.539062 118.285156 L 173.722656 117.058594 L 173.507812 115.804688 Z M 166.324219 117.03125 " fill-opacity="1" fill-rule="nonzero"/></g></g></g><g clip-path="url(#237f40192e)"><g clip-path="url(#2dceca923a)"><g clip-path="url(#caf4577583)"><path fill="#002d75" d="M 197.488281 113.183594 C 196.628906 111.21875 194.957031 108.96875 192.480469 107.3125 C 192.289062 107.183594 192.097656 107.058594 191.898438 106.9375 C 191.703125 106.820312 191.503906 106.707031 191.300781 106.601562 C 190.339844 106.082031 189.277344 105.65625 188.117188 105.359375 C 183.242188 104.121094 178.320312 103.914062 173.492188 104.742188 C 168.660156 105.566406 164.089844 107.398438 159.90625 110.183594 C 158.910156 110.847656 158.050781 111.601562 157.316406 112.410156 C 157.15625 112.578125 157.007812 112.753906 156.863281 112.929688 C 156.714844 113.109375 156.574219 113.289062 156.4375 113.472656 C 154.652344 115.859375 153.824219 118.539062 153.664062 120.675781 C 153.476562 123.242188 154.144531 125.417969 155.5 126.640625 C 156.265625 127.351562 157.082031 127.84375 157.90625 128.167969 C 158.113281 128.164062 158.601562 128.152344 159.265625 128.085938 L 159.269531 128.085938 C 159.644531 128.046875 160.078125 127.988281 160.550781 127.910156 C 162.925781 127.503906 166.246094 126.464844 168.039062 123.796875 C 168.203125 123.550781 168.355469 123.289062 168.496094 123.011719 C 168.652344 122.699219 169.035156 122.570312 169.347656 122.726562 C 169.664062 122.882812 169.792969 123.265625 169.636719 123.578125 C 168.378906 126.09375 166.125 127.53125 163.917969 128.351562 C 165.265625 127.996094 166.613281 127.402344 167.867188 126.609375 C 170.554688 124.820312 173.507812 123.636719 176.632812 123.101562 C 179.753906 122.570312 182.933594 122.703125 186.078125 123.503906 C 187.894531 123.917969 189.761719 123.984375 191.457031 123.695312 C 193.480469 123.347656 196.207031 122.328125 197.738281 119.421875 C 198.609375 117.816406 198.515625 115.542969 197.488281 113.183594 Z M 171.605469 120.890625 C 171.128906 121.5625 170.199219 121.722656 169.527344 121.246094 C 168.855469 120.769531 168.695312 119.839844 169.171875 119.167969 C 169.648438 118.496094 170.578125 118.339844 171.25 118.8125 C 171.921875 119.289062 172.082031 120.222656 171.605469 120.890625 Z M 177.488281 117.140625 C 177.644531 118.0625 176.957031 118.953125 175.949219 119.125 C 174.945312 119.296875 174 118.6875 173.84375 117.761719 L 173.453125 115.484375 L 171.175781 115.875 C 170.253906 116.035156 169.363281 115.34375 169.191406 114.339844 C 169.019531 113.332031 169.628906 112.386719 170.554688 112.230469 L 172.832031 111.839844 L 172.441406 109.566406 C 172.28125 108.640625 172.972656 107.75 173.976562 107.578125 C 174.984375 107.40625 175.929688 108.015625 176.085938 108.941406 L 176.476562 111.21875 L 178.75 110.828125 C 179.675781 110.671875 180.5625 111.359375 180.738281 112.363281 C 180.910156 113.371094 180.300781 114.316406 179.375 114.472656 L 177.097656 114.863281 Z M 177.488281 117.140625 " fill-opacity="1" fill-rule="nonzero"/><path fill="#002d75" d="M 197.488281 113.183594 C 196.628906 111.21875 194.957031 108.96875 192.480469 107.3125 C 192.289062 107.183594 192.097656 107.058594 191.898438 106.9375 C 191.703125 106.820312 191.503906 106.707031 191.300781 106.601562 C 190.339844 106.082031 189.277344 105.65625 188.117188 105.359375 C 183.242188 104.121094 178.320312 103.914062 173.492188 104.742188 C 168.660156 105.566406 164.089844 107.398438 159.90625 110.183594 C 158.910156 110.847656 158.050781 111.601562 157.316406 112.410156 C 157.15625 112.578125 157.007812 112.753906 156.863281 112.929688 C 156.714844 113.109375 156.574219 113.289062 156.4375 113.472656 C 154.652344 115.859375 153.824219 118.539062 153.664062 120.675781 C 153.476562 123.242188 154.144531 125.417969 155.5 126.640625 C 156.265625 127.351562 157.082031 127.84375 157.90625 128.167969 C 158.113281 128.164062 158.601562 128.152344 159.265625 128.085938 L 159.269531 128.085938 C 159.644531 128.046875 160.078125 127.988281 160.550781 127.910156 C 162.925781 127.503906 166.246094 126.464844 168.039062 123.796875 C 168.203125 123.550781 168.355469 123.289062 168.496094 123.011719 C 168.652344 122.699219 169.035156 122.570312 169.347656 122.726562 C 169.664062 122.882812 169.792969 123.265625 169.636719 123.578125 C 168.378906 126.09375 166.125 127.53125 163.917969 128.351562 C 165.265625 127.996094 166.613281 127.402344 167.867188 126.609375 C 170.554688 124.820312 173.507812 123.636719 176.632812 123.101562 C 179.753906 122.570312 182.933594 122.703125 186.078125 123.503906 C 187.894531 123.917969 189.761719 123.984375 191.457031 123.695312 C 193.480469 123.347656 196.207031 122.328125 197.738281 119.421875 C 198.609375 117.816406 198.515625 115.542969 197.488281 113.183594 Z M 171.605469 120.890625 C 171.128906 121.5625 170.199219 121.722656 169.527344 121.246094 C 168.855469 120.769531 168.695312 119.839844 169.171875 119.167969 C 169.648438 118.496094 170.578125 118.339844 171.25 118.8125 C 171.921875 119.289062 172.082031 120.222656 171.605469 120.890625 Z M 177.488281 117.140625 C 177.644531 118.0625 176.957031 118.953125 175.949219 119.125 C 174.945312 119.296875 174 118.6875 173.84375 117.761719 L 173.453125 115.484375 L 171.175781 115.875 C 170.253906 116.035156 169.363281 115.34375 169.191406 114.339844 C 169.019531 113.332031 169.628906 112.386719 170.554688 112.230469 L 172.832031 111.839844 L 172.441406 109.566406 C 172.28125 108.640625 172.972656 107.75 173.976562 107.578125 C 174.984375 107.40625 175.929688 108.015625 176.085938 108.941406 L 176.476562 111.21875 L 178.75 110.828125 C 179.675781 110.671875 180.5625 111.359375 180.738281 112.363281 C 180.910156 113.371094 180.300781 114.316406 179.375 114.472656 L 177.097656 114.863281 Z M 177.488281 117.140625 " fill-opacity="1" fill-rule="nonzero"/></g></g></g><g clip-path="url(#435aefbfe7)"><g clip-path="url(#7d0ab46d88)"><g clip-path="url(#f17c98ef34)"><path fill="#002d75" d="M 168.035156 123.796875 C 166.246094 126.464844 162.921875 127.503906 160.546875 127.910156 C 160.078125 127.988281 159.644531 128.046875 159.269531 128.085938 Z M 168.035156 123.796875 " fill-opacity="1" fill-rule="nonzero"/></g></g></g><g clip-path="url(#bee4f84ec2)"><g clip-path="url(#1c70714193)"><g clip-path="url(#a381b99d3e)"><g clip-path="url(#bd39e02f2c)"><path fill="#b1b7bc" d="M 127.761719 206.941406 C 127.683594 206.847656 127.695312 206.710938 127.789062 206.632812 L 130.003906 204.824219 C 130.09375 204.746094 130.238281 204.757812 130.3125 204.851562 L 136.378906 212.210938 C 136.457031 212.308594 136.441406 212.445312 136.347656 212.523438 L 134.132812 214.332031 C 134.042969 214.410156 133.902344 214.394531 133.824219 214.304688 L 127.761719 206.941406 " fill-opacity="1" fill-rule="nonzero"/><path stroke-linecap="round" transform="matrix(0.0240714, 0.00523292, 0.00521475, -0.0239878, 82.465816, 265.484191)" fill="none" stroke-linejoin="round" d="M 1291.966895 2722.360256 C 1288.059347 2725.416059 1287.345209 2730.959773 1290.390401 2734.880937 L 1362.653095 2826.04123 C 1365.543333 2829.928591 1371.377707 2830.712824 1375.1303 2827.623217 L 1679.238609 2587.167999 C 1683.179843 2583.956701 1683.739026 2578.379184 1680.693834 2574.45802 L 1608.43114 2483.297727 C 1605.540902 2479.410366 1599.827797 2478.815431 1595.953935 2481.71574 Z M 1291.966895 2722.360256 " stroke="#24578f" stroke-width="30" stroke-opacity="1" stroke-miterlimit="10"/></g></g></g></g><g clip-path="url(#fecfea4a86)"><g clip-path="url(#f645b29442)"><g clip-path="url(#0600ed08cc)"><g clip-path="url(#2c021f2fc4)"><path fill="#b1b7bc" d="M 131.421875 214.847656 C 131.347656 214.75 131.359375 214.613281 131.453125 214.535156 L 137.070312 209.9375 C 137.164062 209.863281 137.300781 209.875 137.378906 209.972656 L 153.558594 229.601562 C 153.636719 229.699219 153.625 229.835938 153.527344 229.914062 L 147.914062 234.507812 C 147.820312 234.585938 147.679688 234.570312 147.601562 234.476562 L 131.421875 214.847656 " fill-opacity="1" fill-rule="nonzero"/><path stroke-linecap="round" transform="matrix(0.0240714, 0.00523292, 0.00521475, -0.0239878, 82.465816, 265.484191)" fill="none" stroke-linejoin="round" d="M 1505.339239 2439.313088 C 1501.55296 2442.558189 1500.838821 2448.101903 1503.884014 2452.023067 L 1687.060442 2683.648906 C 1690.139321 2687.414575 1695.663786 2688.131201 1699.60502 2684.919904 L 2510.697498 2043.57303 C 2514.638732 2040.361732 2515.35287 2034.818018 2512.152722 2030.863051 L 2329.097563 1799.42651 C 2326.05237 1795.505346 2320.339265 1794.910411 2316.431717 1797.966214 Z M 1505.339239 2439.313088 " stroke="#24578f" stroke-width="30" stroke-opacity="1" stroke-miterlimit="10"/></g></g></g></g><g clip-path="url(#b3fee34435)"><g clip-path="url(#aa9821404f)"><g clip-path="url(#b3d5dcf142)"><g clip-path="url(#7a40fed7f7)"><path fill="#72c3ee" d="M 134.484375 216.886719 C 134.429688 216.816406 134.4375 216.71875 134.503906 216.660156 L 138.570312 213.335938 C 138.636719 213.28125 138.738281 213.289062 138.792969 213.359375 L 150.5 227.5625 C 150.554688 227.632812 150.542969 227.730469 150.476562 227.789062 L 146.414062 231.113281 C 146.347656 231.167969 146.246094 231.160156 146.1875 231.089844 L 134.484375 216.886719 " fill-opacity="1" fill-rule="nonzero"/></g></g></g></g><g clip-path="url(#4e156a107b)"><g clip-path="url(#4841485db0)"><g clip-path="url(#005790a07c)"><g clip-path="url(#4a4c0ac01d)"><path stroke-linecap="round" transform="matrix(0.0240714, 0.00523292, 0.00521475, -0.0239878, 82.465816, 265.484191)" fill="none" stroke-linejoin="round" d="M 1644.407533 2384.646659 C 1641.631826 2386.972314 1641.099591 2390.927281 1643.228531 2393.834351 L 1775.869581 2561.349165 C 1778.032207 2564.10074 1782.128396 2564.668632 1784.904102 2562.342977 L 2371.784159 2098.273262 C 2374.559865 2095.947607 2374.937146 2091.958837 2372.808206 2089.051767 L 2240.32211 1921.570756 C 2238.159484 1918.819181 2234.063296 1918.251289 2231.132634 1920.543141 Z M 1644.407533 2384.646659 " stroke="#24578f" stroke-width="30" stroke-opacity="1" stroke-miterlimit="10"/></g></g></g></g><g clip-path="url(#385cf9923a)"><g clip-path="url(#4ab813c2cb)"><g clip-path="url(#436261c20e)"><g clip-path="url(#76f7bf8d99)"><path fill="#b1b7bc" d="M 149.84375 233.570312 L 152.226562 231.621094 L 162.4375 244.007812 L 160.054688 245.957031 L 149.84375 233.570312 " fill-opacity="1" fill-rule="nonzero"/></g></g></g></g><g clip-path="url(#f0043d46f6)"><g clip-path="url(#270cc07f0b)"><g clip-path="url(#a43769d328)"><g clip-path="url(#3ada29b8b9)"><path stroke-linecap="round" transform="matrix(0.0240714, 0.00523292, 0.00521475, -0.0239878, 82.465816, 265.484191)" fill="none" stroke-linejoin="round" d="M 2397.560503 1853.443919 L 2475.273552 1951.655546 L 2987.142157 1546.944136 L 2909.429107 1448.732509 Z M 2397.560503 1853.443919 " stroke="#24578f" stroke-width="30" stroke-opacity="1" stroke-miterlimit="10"/></g></g></g></g><g clip-path="url(#5d032bb7eb)"><g clip-path="url(#c9a7d2ba2a)"><g clip-path="url(#330b73f87d)"><g clip-path="url(#fcd324f16c)"><path fill="#b1b7bc" d="M 158.40625 247.589844 C 158.332031 247.496094 158.34375 247.355469 158.4375 247.28125 L 164.050781 242.683594 C 164.148438 242.605469 164.285156 242.621094 164.363281 242.714844 L 165.578125 244.1875 C 165.652344 244.28125 165.640625 244.417969 165.546875 244.496094 L 159.929688 249.089844 C 159.835938 249.167969 159.695312 249.15625 159.617188 249.0625 L 158.40625 247.589844 " fill-opacity="1" fill-rule="nonzero"/></g></g></g></g><g clip-path="url(#a8c3f16732)"><g clip-path="url(#4a1e565bb0)"><g clip-path="url(#b1a5079bbb)"><g clip-path="url(#ea85a3b831)"><path stroke-linecap="round" transform="matrix(0.0240714, 0.00523292, 0.00521475, -0.0239878, 82.465816, 265.484191)" fill="none" stroke-linejoin="round" d="M 2858.118957 1369.470919 C 2854.366363 1372.560525 2853.618539 1378.259734 2856.697418 1382.025403 L 3039.718892 1613.617439 C 3042.919039 1617.572405 3048.477189 1618.133537 3052.384738 1615.077734 L 3113.275118 1566.969113 C 3117.027712 1563.879506 3117.74185 1558.335792 3114.696657 1554.414629 L 2931.486543 1322.944284 C 2928.441351 1319.02312 2922.761931 1318.272691 2918.854383 1321.328494 Z M 2858.118957 1369.470919 " stroke="#24578f" stroke-width="30" stroke-opacity="1" stroke-miterlimit="10"/></g></g></g></g><g clip-path="url(#425fd15078)"><g clip-path="url(#5796230578)"><g clip-path="url(#2c7f0f97cc)"><g clip-path="url(#6cf7b098a5)"><path fill="#b1b7bc" d="M 144.996094 235.898438 C 144.917969 235.804688 144.933594 235.667969 145.027344 235.589844 L 155.152344 227.300781 C 155.246094 227.226562 155.386719 227.238281 155.464844 227.332031 L 156.445312 228.523438 C 156.523438 228.617188 156.507812 228.753906 156.414062 228.832031 L 146.289062 237.121094 C 146.195312 237.195312 146.054688 237.183594 145.980469 237.089844 L 144.996094 235.898438 " fill-opacity="1" fill-rule="nonzero"/></g></g></g></g><g clip-path="url(#0a7ea038d4)"><g clip-path="url(#270e88d662)"><g clip-path="url(#8f40923fe5)"><g clip-path="url(#7414b566b5)"><path stroke-linecap="round" transform="matrix(0.0240714, 0.00523292, 0.00521475, -0.0239878, 82.465816, 265.484191)" fill="none" stroke-linejoin="round" d="M 2225.338684 1718.819555 C 2221.431135 1721.875358 2220.871952 1727.452875 2223.917145 1731.374039 L 2554.07802 2148.950922 C 2557.156898 2152.716591 2562.836318 2153.46702 2566.743866 2150.411217 L 2615.911602 2111.470006 C 2619.81915 2108.414202 2620.378334 2102.836685 2617.333141 2098.915522 L 2287.172266 1681.338639 C 2284.093387 1677.57297 2278.413968 1676.82254 2274.661374 1679.912147 Z M 2225.338684 1718.819555 " stroke="#24578f" stroke-width="30" stroke-opacity="1" stroke-miterlimit="10"/></g></g></g></g><g clip-path="url(#41ef557026)"><g clip-path="url(#a32a1fb94b)"><g clip-path="url(#3fa83f96f6)"><g clip-path="url(#e03676b987)"><path fill="#b1b7bc" d="M 128.894531 205.726562 L 125.816406 201.992188 " fill-opacity="1" fill-rule="nonzero"/></g></g></g></g><g clip-path="url(#0cf7a4748a)"><g clip-path="url(#0eb22e76bb)"><g clip-path="url(#f78bc93298)"><g clip-path="url(#1f95eb3e5d)"><path stroke-linecap="round" transform="matrix(0.0240714, 0.00523292, 0.00521475, -0.0239878, 82.465816, 265.484191)" fill="none" stroke-linejoin="round" d="M 1326.427428 2780.521929 L 1172.119696 2902.537724 " stroke="#24578f" stroke-width="30" stroke-opacity="1" stroke-miterlimit="10"/></g></g></g></g><g clip-path="url(#c02f44a607)"><g clip-path="url(#4e0abbce9d)"><g clip-path="url(#7919dd969a)"><g clip-path="url(#0113a7ba7c)"><path fill="#b1b7bc" d="M 145.867188 227.101562 L 143.941406 228.679688 " fill-opacity="1" fill-rule="nonzero"/></g></g></g></g><g clip-path="url(#ef76036d9d)"><g clip-path="url(#00b6efd337)"><g clip-path="url(#86c1b4c2a1)"><g clip-path="url(#05abc78a10)"><path stroke-linecap="round" transform="matrix(0.0240714, 0.00523292, 0.00521475, -0.0239878, 82.465816, 265.484191)" fill="none" stroke-linejoin="round" d="M 2184.033204 2076.531086 L 2121.249684 1997.046396 " stroke="#24578f" stroke-width="30" stroke-opacity="1" stroke-miterlimit="10"/></g></g></g></g><g clip-path="url(#1318e496d7)"><g clip-path="url(#90e63405aa)"><g clip-path="url(#cbc4a59eab)"><g clip-path="url(#8cc5a9bccb)"><path fill="#b1b7bc" d="M 142.929688 223.535156 L 141 225.113281 " fill-opacity="1" fill-rule="nonzero"/></g></g></g></g><g clip-path="url(#de5aa827e4)"><g clip-path="url(#e6492a1cbf)"><g clip-path="url(#0b9a997b7b)"><g clip-path="url(#5c1ddbb411)"><path stroke-linecap="round" transform="matrix(0.0240714, 0.00523292, 0.00521475, -0.0239878, 82.465816, 265.484191)" fill="none" stroke-linejoin="round" d="M 2036.752322 2193.077534 L 1973.813847 2113.55904 " stroke="#24578f" stroke-width="30" stroke-opacity="1" stroke-miterlimit="10"/></g></g></g></g><g clip-path="url(#c346253b6a)"><g clip-path="url(#92d23c905c)"><g clip-path="url(#0ecfae3378)"><g clip-path="url(#14930dbab6)"><path fill="#b1b7bc" d="M 139.992188 219.96875 L 138.0625 221.546875 " fill-opacity="1" fill-rule="nonzero"/></g></g></g></g><g clip-path="url(#803c346c80)"><g clip-path="url(#be719b72e9)"><g clip-path="url(#090ae45a46)"><g clip-path="url(#0ff524dd8b)"><path stroke-linecap="round" transform="matrix(0.0240714, 0.00523292, 0.00521475, -0.0239878, 82.465816, 265.484191)" fill="none" stroke-linejoin="round" d="M 1889.47144 2309.623982 L 1826.532965 2230.105488 " stroke="#24578f" stroke-width="30" stroke-opacity="1" stroke-miterlimit="10"/></g></g></g></g><g clip-path="url(#02ee7dcff9)"><g clip-path="url(#b3a23b3c0f)"><g clip-path="url(#c35e9b0a92)"><g clip-path="url(#da02473986)"><path stroke-linecap="round" transform="matrix(0.0240714, 0.00523292, 0.00521475, -0.0239878, 82.465816, 265.484191)" fill="none" stroke-linejoin="round" d="M 1369.33635 2764.478962 L 1556.757184 2609.464547 " stroke="#ffffff" stroke-width="30" stroke-opacity="1" stroke-miterlimit="10"/></g></g></g></g><g clip-path="url(#339bac511b)"><g clip-path="url(#e83f60b788)"><g clip-path="url(#5dc6e04a92)"><g clip-path="url(#fe620dc9d6)"><path stroke-linecap="round" transform="matrix(0.0240714, 0.00523292, 0.00521475, -0.0239878, 82.465816, 265.484191)" fill="none" stroke-linejoin="round" d="M 1776.785834 2479.964738 L 2286.862356 2089.51825 " stroke="#ffffff" stroke-width="30" stroke-opacity="1" stroke-miterlimit="10"/></g></g></g></g><g clip-path="url(#f2ab2d7ea7)"><g clip-path="url(#541705cfd0)"><g clip-path="url(#c941085d10)"><g clip-path="url(#6236033f28)"><path stroke-linecap="round" transform="matrix(0.0240714, 0.00523292, 0.00521475, -0.0239878, 82.465816, 265.484191)" fill="none" stroke-linejoin="round" d="M 2486.746922 1869.480126 L 2916.880398 1524.45153 " stroke="#ffffff" stroke-width="30" stroke-opacity="1" stroke-miterlimit="10"/></g></g></g></g><g clip-path="url(#554e5f9c6e)"><g clip-path="url(#d0ad6033de)"><g clip-path="url(#3c945542a3)"><g clip-path="url(#e6c306c3d8)"><path stroke-linecap="round" transform="matrix(0.0240714, 0.00523292, 0.00521475, -0.0239878, 82.465816, 265.484191)" fill="none" stroke-linejoin="round" d="M 3052.748544 1566.955592 L 3070.063025 1554.448432 L 2949.912654 1406.431266 " stroke="#ffffff" stroke-width="30" stroke-opacity="1" stroke-miterlimit="10"/></g></g></g></g></svg>