<svg xmlns="http://www.w3.org/2000/svg" xmlns:xlink="http://www.w3.org/1999/xlink" width="500" zoomAndPan="magnify" viewBox="0 0 375 374.999991" height="500" preserveAspectRatio="xMidYMid meet" version="1.0"><defs><clipPath id="7aecea44ea"><path d="M 115.1875 200 L 145 200 L 145 229 L 115.1875 229 Z M 115.1875 200 " clip-rule="nonzero"/></clipPath><clipPath id="90f97ed4e8"><path d="M 226 112.5 L 236 112.5 L 236 122 L 226 122 Z M 226 112.5 " clip-rule="nonzero"/></clipPath><clipPath id="434ddfa851"><path d="M 139 112.5 L 234 112.5 L 234 200 L 139 200 Z M 139 112.5 " clip-rule="nonzero"/></clipPath><clipPath id="3e92c0b6db"><path d="M 231 165 L 259.9375 165 L 259.9375 195 L 231 195 Z M 231 165 " clip-rule="nonzero"/></clipPath><clipPath id="d556ef4a6e"><path d="M 157 232 L 187 232 L 187 262.5 L 157 262.5 Z M 157 232 " clip-rule="nonzero"/></clipPath><clipPath id="bd8c59a50f"><path d="M 193 232 L 223 232 L 223 262.5 L 193 262.5 Z M 193 232 " clip-rule="nonzero"/></clipPath><clipPath id="19296d8556"><path d="M 200 198.050781 L 203 198.050781 L 203 202 L 200 202 Z M 200 198.050781 " clip-rule="nonzero"/></clipPath><clipPath id="4e91dba157"><path d="M 196.535156 198.050781 L 203 198.050781 L 203 205 L 196.535156 205 Z M 196.535156 198.050781 " clip-rule="nonzero"/></clipPath><clipPath id="4d32b84708"><path d="M 202.535156 198.183594 C 202.539062 198.582031 202.492188 199.898438 201.84375 201.183594 C 201.636719 201.585938 201.375 201.988281 201.035156 202.359375 C 200.152344 203.3125 198.75 204.050781 196.535156 204.050781 L 196.535156 201.804688 C 198.167969 201.804688 199.359375 201.554688 200.226562 201.183594 C 200.535156 201.050781 200.804688 200.902344 201.035156 200.746094 C 202.398438 199.824219 202.527344 198.574219 202.535156 198.183594 Z M 202.535156 198.183594 " clip-rule="nonzero"/></clipPath><linearGradient x1="-0.000216" gradientTransform="matrix(0.0249488, 0, 0, 0.0249079, 196.53467, 198.061485)" y1="122.636002" x2="240.59979" gradientUnits="userSpaceOnUse" y2="122.636002" id="14ad3b8ef8"><stop stop-opacity="1" stop-color="rgb(23.919678%, 74.119568%, 92.549133%)" offset="0"/><stop stop-opacity="1" stop-color="rgb(23.919678%, 74.119568%, 92.549133%)" offset="0.03125"/><stop stop-opacity="1" stop-color="rgb(23.953247%, 74.008179%, 92.579651%)" offset="0.046875"/><stop stop-opacity="1" stop-color="rgb(24.01886%, 73.800659%, 92.637634%)" offset="0.0546875"/><stop stop-opacity="1" stop-color="rgb(24.079895%, 73.603821%, 92.692566%)" offset="0.0625"/><stop stop-opacity="1" stop-color="rgb(24.171448%, 73.310852%, 92.774963%)" offset="0.078125"/><stop stop-opacity="1" stop-color="rgb(24.263%, 73.016357%, 92.855835%)" offset="0.0859375"/><stop stop-opacity="1" stop-color="rgb(24.324036%, 72.821045%, 92.910767%)" offset="0.09375"/><stop stop-opacity="1" stop-color="rgb(24.385071%, 72.624207%, 92.965698%)" offset="0.101562"/><stop stop-opacity="1" stop-color="rgb(24.446106%, 72.428894%, 93.02063%)" offset="0.109375"/><stop stop-opacity="1" stop-color="rgb(24.507141%, 72.232056%, 93.075562%)" offset="0.117187"/><stop stop-opacity="1" stop-color="rgb(24.568176%, 72.036743%, 93.128967%)" offset="0.125"/><stop stop-opacity="1" stop-color="rgb(24.629211%, 71.841431%, 93.183899%)" offset="0.132812"/><stop stop-opacity="1" stop-color="rgb(24.690247%, 71.644592%, 93.238831%)" offset="0.140625"/><stop stop-opacity="1" stop-color="rgb(24.751282%, 71.44928%, 93.293762%)" offset="0.148437"/><stop stop-opacity="1" stop-color="rgb(24.812317%, 71.252441%, 93.348694%)" offset="0.15625"/><stop stop-opacity="1" stop-color="rgb(24.873352%, 71.057129%, 93.403625%)" offset="0.164062"/><stop stop-opacity="1" stop-color="rgb(24.934387%, 70.860291%, 93.457031%)" offset="0.171875"/><stop stop-opacity="1" stop-color="rgb(24.995422%, 70.664978%, 93.511963%)" offset="0.179688"/><stop stop-opacity="1" stop-color="rgb(25.056458%, 70.46814%, 93.566895%)" offset="0.1875"/><stop stop-opacity="1" stop-color="rgb(25.14801%, 70.175171%, 93.649292%)" offset="0.203125"/><stop stop-opacity="1" stop-color="rgb(25.239563%, 69.880676%, 93.730164%)" offset="0.210938"/><stop stop-opacity="1" stop-color="rgb(25.300598%, 69.685364%, 93.785095%)" offset="0.21875"/><stop stop-opacity="1" stop-color="rgb(25.361633%, 69.488525%, 93.840027%)" offset="0.226562"/><stop stop-opacity="1" stop-color="rgb(25.422668%, 69.293213%, 93.894958%)" offset="0.234375"/><stop stop-opacity="1" stop-color="rgb(25.483704%, 69.096375%, 93.94989%)" offset="0.242188"/><stop stop-opacity="1" stop-color="rgb(25.544739%, 68.901062%, 94.003296%)" offset="0.25"/><stop stop-opacity="1" stop-color="rgb(25.605774%, 68.70575%, 94.058228%)" offset="0.257812"/><stop stop-opacity="1" stop-color="rgb(25.666809%, 68.508911%, 94.113159%)" offset="0.265625"/><stop stop-opacity="1" stop-color="rgb(25.727844%, 68.313599%, 94.168091%)" offset="0.273437"/><stop stop-opacity="1" stop-color="rgb(25.788879%, 68.11676%, 94.223022%)" offset="0.28125"/><stop stop-opacity="1" stop-color="rgb(25.849915%, 67.921448%, 94.277954%)" offset="0.289062"/><stop stop-opacity="1" stop-color="rgb(25.91095%, 67.724609%, 94.33136%)" offset="0.296875"/><stop stop-opacity="1" stop-color="rgb(26.002502%, 67.431641%, 94.413757%)" offset="0.3125"/><stop stop-opacity="1" stop-color="rgb(26.094055%, 67.137146%, 94.496155%)" offset="0.320312"/><stop stop-opacity="1" stop-color="rgb(26.15509%, 66.941833%, 94.551086%)" offset="0.328125"/><stop stop-opacity="1" stop-color="rgb(26.216125%, 66.744995%, 94.604492%)" offset="0.335937"/><stop stop-opacity="1" stop-color="rgb(26.277161%, 66.549683%, 94.659424%)" offset="0.34375"/><stop stop-opacity="1" stop-color="rgb(26.338196%, 66.352844%, 94.714355%)" offset="0.351562"/><stop stop-opacity="1" stop-color="rgb(26.399231%, 66.157532%, 94.769287%)" offset="0.359375"/><stop stop-opacity="1" stop-color="rgb(26.460266%, 65.962219%, 94.824219%)" offset="0.367187"/><stop stop-opacity="1" stop-color="rgb(26.521301%, 65.765381%, 94.87915%)" offset="0.375"/><stop stop-opacity="1" stop-color="rgb(26.582336%, 65.570068%, 94.932556%)" offset="0.382812"/><stop stop-opacity="1" stop-color="rgb(26.643372%, 65.37323%, 94.987488%)" offset="0.390625"/><stop stop-opacity="1" stop-color="rgb(26.704407%, 65.177917%, 95.042419%)" offset="0.398437"/><stop stop-opacity="1" stop-color="rgb(26.765442%, 64.981079%, 95.097351%)" offset="0.40625"/><stop stop-opacity="1" stop-color="rgb(26.856995%, 64.68811%, 95.178223%)" offset="0.421875"/><stop stop-opacity="1" stop-color="rgb(26.948547%, 64.393616%, 95.26062%)" offset="0.429687"/><stop stop-opacity="1" stop-color="rgb(27.009583%, 64.198303%, 95.315552%)" offset="0.4375"/><stop stop-opacity="1" stop-color="rgb(27.070618%, 64.001465%, 95.370483%)" offset="0.445312"/><stop stop-opacity="1" stop-color="rgb(27.131653%, 63.806152%, 95.425415%)" offset="0.453125"/><stop stop-opacity="1" stop-color="rgb(27.192688%, 63.609314%, 95.478821%)" offset="0.460937"/><stop stop-opacity="1" stop-color="rgb(27.253723%, 63.414001%, 95.533752%)" offset="0.46875"/><stop stop-opacity="1" stop-color="rgb(27.314758%, 63.217163%, 95.588684%)" offset="0.476562"/><stop stop-opacity="1" stop-color="rgb(27.375793%, 63.021851%, 95.643616%)" offset="0.484375"/><stop stop-opacity="1" stop-color="rgb(27.436829%, 62.826538%, 95.698547%)" offset="0.492187"/><stop stop-opacity="1" stop-color="rgb(27.497864%, 62.6297%, 95.753479%)" offset="0.5"/><stop stop-opacity="1" stop-color="rgb(27.558899%, 62.434387%, 95.806885%)" offset="0.507812"/><stop stop-opacity="1" stop-color="rgb(27.619934%, 62.237549%, 95.861816%)" offset="0.515625"/><stop stop-opacity="1" stop-color="rgb(27.680969%, 62.042236%, 95.916748%)" offset="0.523438"/><stop stop-opacity="1" stop-color="rgb(27.742004%, 61.845398%, 95.97168%)" offset="0.53125"/><stop stop-opacity="1" stop-color="rgb(27.833557%, 61.552429%, 96.052551%)" offset="0.546875"/><stop stop-opacity="1" stop-color="rgb(27.92511%, 61.257935%, 96.134949%)" offset="0.554687"/><stop stop-opacity="1" stop-color="rgb(27.986145%, 61.062622%, 96.18988%)" offset="0.5625"/><stop stop-opacity="1" stop-color="rgb(28.04718%, 60.865784%, 96.244812%)" offset="0.570312"/><stop stop-opacity="1" stop-color="rgb(28.108215%, 60.670471%, 96.299744%)" offset="0.578125"/><stop stop-opacity="1" stop-color="rgb(28.16925%, 60.473633%, 96.353149%)" offset="0.585938"/><stop stop-opacity="1" stop-color="rgb(28.230286%, 60.27832%, 96.408081%)" offset="0.59375"/><stop stop-opacity="1" stop-color="rgb(28.291321%, 60.083008%, 96.463013%)" offset="0.601562"/><stop stop-opacity="1" stop-color="rgb(28.352356%, 59.886169%, 96.517944%)" offset="0.609375"/><stop stop-opacity="1" stop-color="rgb(28.413391%, 59.690857%, 96.572876%)" offset="0.617187"/><stop stop-opacity="1" stop-color="rgb(28.474426%, 59.494019%, 96.627808%)" offset="0.625"/><stop stop-opacity="1" stop-color="rgb(28.535461%, 59.298706%, 96.681213%)" offset="0.632812"/><stop stop-opacity="1" stop-color="rgb(28.596497%, 59.101868%, 96.736145%)" offset="0.640625"/><stop stop-opacity="1" stop-color="rgb(28.688049%, 58.808899%, 96.818542%)" offset="0.65625"/><stop stop-opacity="1" stop-color="rgb(28.779602%, 58.514404%, 96.90094%)" offset="0.664062"/><stop stop-opacity="1" stop-color="rgb(28.840637%, 58.319092%, 96.954346%)" offset="0.671875"/><stop stop-opacity="1" stop-color="rgb(28.901672%, 58.122253%, 97.009277%)" offset="0.679687"/><stop stop-opacity="1" stop-color="rgb(28.962708%, 57.926941%, 97.064209%)" offset="0.6875"/><stop stop-opacity="1" stop-color="rgb(29.023743%, 57.730103%, 97.119141%)" offset="0.695312"/><stop stop-opacity="1" stop-color="rgb(29.084778%, 57.53479%, 97.174072%)" offset="0.703125"/><stop stop-opacity="1" stop-color="rgb(29.145813%, 57.339478%, 97.227478%)" offset="0.710938"/><stop stop-opacity="1" stop-color="rgb(29.206848%, 57.142639%, 97.28241%)" offset="0.71875"/><stop stop-opacity="1" stop-color="rgb(29.267883%, 56.947327%, 97.337341%)" offset="0.726562"/><stop stop-opacity="1" stop-color="rgb(29.328918%, 56.750488%, 97.392273%)" offset="0.734375"/><stop stop-opacity="1" stop-color="rgb(29.389954%, 56.555176%, 97.447205%)" offset="0.742187"/><stop stop-opacity="1" stop-color="rgb(29.450989%, 56.358337%, 97.502136%)" offset="0.75"/><stop stop-opacity="1" stop-color="rgb(29.512024%, 56.163025%, 97.555542%)" offset="0.757812"/><stop stop-opacity="1" stop-color="rgb(29.573059%, 55.966187%, 97.610474%)" offset="0.765625"/><stop stop-opacity="1" stop-color="rgb(29.664612%, 55.673218%, 97.692871%)" offset="0.78125"/><stop stop-opacity="1" stop-color="rgb(29.756165%, 55.378723%, 97.775269%)" offset="0.789062"/><stop stop-opacity="1" stop-color="rgb(29.8172%, 55.183411%, 97.828674%)" offset="0.796875"/><stop stop-opacity="1" stop-color="rgb(29.878235%, 54.986572%, 97.883606%)" offset="0.804687"/><stop stop-opacity="1" stop-color="rgb(29.93927%, 54.79126%, 97.938538%)" offset="0.8125"/><stop stop-opacity="1" stop-color="rgb(30.000305%, 54.594421%, 97.993469%)" offset="0.820312"/><stop stop-opacity="1" stop-color="rgb(30.06134%, 54.399109%, 98.048401%)" offset="0.828125"/><stop stop-opacity="1" stop-color="rgb(30.122375%, 54.203796%, 98.101807%)" offset="0.835938"/><stop stop-opacity="1" stop-color="rgb(30.183411%, 54.006958%, 98.156738%)" offset="0.84375"/><stop stop-opacity="1" stop-color="rgb(30.244446%, 53.811646%, 98.21167%)" offset="0.851562"/><stop stop-opacity="1" stop-color="rgb(30.305481%, 53.614807%, 98.266602%)" offset="0.859375"/><stop stop-opacity="1" stop-color="rgb(30.366516%, 53.419495%, 98.321533%)" offset="0.867187"/><stop stop-opacity="1" stop-color="rgb(30.427551%, 53.222656%, 98.376465%)" offset="0.875"/><stop stop-opacity="1" stop-color="rgb(30.519104%, 52.929688%, 98.457336%)" offset="0.890625"/><stop stop-opacity="1" stop-color="rgb(30.610657%, 52.635193%, 98.539734%)" offset="0.898437"/><stop stop-opacity="1" stop-color="rgb(30.671692%, 52.43988%, 98.594666%)" offset="0.90625"/><stop stop-opacity="1" stop-color="rgb(30.732727%, 52.243042%, 98.649597%)" offset="0.914062"/><stop stop-opacity="1" stop-color="rgb(30.793762%, 52.047729%, 98.703003%)" offset="0.921875"/><stop stop-opacity="1" stop-color="rgb(30.854797%, 51.850891%, 98.757935%)" offset="0.929687"/><stop stop-opacity="1" stop-color="rgb(30.915833%, 51.655579%, 98.812866%)" offset="0.9375"/><stop stop-opacity="1" stop-color="rgb(30.976868%, 51.460266%, 98.867798%)" offset="0.945312"/><stop stop-opacity="1" stop-color="rgb(31.037903%, 51.263428%, 98.922729%)" offset="0.953125"/><stop stop-opacity="1" stop-color="rgb(31.098938%, 51.068115%, 98.976135%)" offset="0.960938"/><stop stop-opacity="1" stop-color="rgb(31.159973%, 50.871277%, 99.031067%)" offset="0.96875"/><stop stop-opacity="1" stop-color="rgb(31.221008%, 50.675964%, 99.085999%)" offset="0.976562"/><stop stop-opacity="1" stop-color="rgb(31.282043%, 50.479126%, 99.14093%)" offset="0.984375"/><stop stop-opacity="1" stop-color="rgb(31.340027%, 50.289917%, 99.19281%)" offset="1"/></linearGradient><clipPath id="e7ae3e3000"><path d="M 200 203 L 203 203 L 203 207.050781 L 200 207.050781 Z M 200 203 " clip-rule="nonzero"/></clipPath><clipPath id="4750d4246a"><path d="M 200 201 L 206.285156 201 L 206.285156 207 L 200 207 Z M 200 201 " clip-rule="nonzero"/></clipPath><clipPath id="55c4eb2580"><path d="M 200.285156 206.921875 C 200.28125 206.523438 200.328125 205.207031 200.976562 203.921875 C 201.179688 203.515625 201.441406 203.117188 201.785156 202.746094 C 202.667969 201.789062 204.066406 201.054688 206.285156 201.054688 L 206.285156 203.300781 C 204.648438 203.300781 203.457031 203.550781 202.59375 203.921875 C 202.285156 204.054688 202.015625 204.199219 201.785156 204.359375 C 200.421875 205.28125 200.289062 206.53125 200.285156 206.921875 Z M 200.285156 206.921875 " clip-rule="nonzero"/></clipPath><linearGradient x1="167.432064" gradientTransform="matrix(-0.0249488, 0, 0, -0.0249079, 210.461149, 203.047455)" y1="-37.771" x2="408.042076" gradientUnits="userSpaceOnUse" y2="-37.771" id="5451a8fe65"><stop stop-opacity="1" stop-color="rgb(23.919678%, 74.119568%, 92.549133%)" offset="0"/><stop stop-opacity="1" stop-color="rgb(23.919678%, 74.119568%, 92.549133%)" offset="0.03125"/><stop stop-opacity="1" stop-color="rgb(23.953247%, 74.009705%, 92.579651%)" offset="0.046875"/><stop stop-opacity="1" stop-color="rgb(24.01886%, 73.800659%, 92.637634%)" offset="0.0546875"/><stop stop-opacity="1" stop-color="rgb(24.079895%, 73.605347%, 92.692566%)" offset="0.0625"/><stop stop-opacity="1" stop-color="rgb(24.14093%, 73.408508%, 92.747498%)" offset="0.0703125"/><stop stop-opacity="1" stop-color="rgb(24.201965%, 73.213196%, 92.802429%)" offset="0.078125"/><stop stop-opacity="1" stop-color="rgb(24.263%, 73.016357%, 92.855835%)" offset="0.0859375"/><stop stop-opacity="1" stop-color="rgb(24.324036%, 72.821045%, 92.910767%)" offset="0.09375"/><stop stop-opacity="1" stop-color="rgb(24.385071%, 72.625732%, 92.965698%)" offset="0.101562"/><stop stop-opacity="1" stop-color="rgb(24.446106%, 72.428894%, 93.02063%)" offset="0.109375"/><stop stop-opacity="1" stop-color="rgb(24.507141%, 72.233582%, 93.075562%)" offset="0.117188"/><stop stop-opacity="1" stop-color="rgb(24.568176%, 72.036743%, 93.128967%)" offset="0.125"/><stop stop-opacity="1" stop-color="rgb(24.629211%, 71.841431%, 93.183899%)" offset="0.132812"/><stop stop-opacity="1" stop-color="rgb(24.690247%, 71.644592%, 93.238831%)" offset="0.140625"/><stop stop-opacity="1" stop-color="rgb(24.751282%, 71.44928%, 93.293762%)" offset="0.148437"/><stop stop-opacity="1" stop-color="rgb(24.812317%, 71.252441%, 93.348694%)" offset="0.15625"/><stop stop-opacity="1" stop-color="rgb(24.90387%, 70.959473%, 93.429565%)" offset="0.171875"/><stop stop-opacity="1" stop-color="rgb(24.995422%, 70.664978%, 93.511963%)" offset="0.179687"/><stop stop-opacity="1" stop-color="rgb(25.056458%, 70.469666%, 93.566895%)" offset="0.1875"/><stop stop-opacity="1" stop-color="rgb(25.117493%, 70.272827%, 93.621826%)" offset="0.195312"/><stop stop-opacity="1" stop-color="rgb(25.178528%, 70.077515%, 93.676758%)" offset="0.203125"/><stop stop-opacity="1" stop-color="rgb(25.239563%, 69.880676%, 93.730164%)" offset="0.210937"/><stop stop-opacity="1" stop-color="rgb(25.300598%, 69.685364%, 93.785095%)" offset="0.21875"/><stop stop-opacity="1" stop-color="rgb(25.361633%, 69.490051%, 93.840027%)" offset="0.226562"/><stop stop-opacity="1" stop-color="rgb(25.422668%, 69.293213%, 93.894958%)" offset="0.234375"/><stop stop-opacity="1" stop-color="rgb(25.483704%, 69.0979%, 93.94989%)" offset="0.242187"/><stop stop-opacity="1" stop-color="rgb(25.544739%, 68.901062%, 94.003296%)" offset="0.25"/><stop stop-opacity="1" stop-color="rgb(25.605774%, 68.70575%, 94.058228%)" offset="0.257812"/><stop stop-opacity="1" stop-color="rgb(25.666809%, 68.508911%, 94.113159%)" offset="0.265625"/><stop stop-opacity="1" stop-color="rgb(25.727844%, 68.313599%, 94.168091%)" offset="0.273437"/><stop stop-opacity="1" stop-color="rgb(25.788879%, 68.11676%, 94.223022%)" offset="0.28125"/><stop stop-opacity="1" stop-color="rgb(25.880432%, 67.823792%, 94.303894%)" offset="0.296875"/><stop stop-opacity="1" stop-color="rgb(25.971985%, 67.529297%, 94.386292%)" offset="0.304688"/><stop stop-opacity="1" stop-color="rgb(26.03302%, 67.333984%, 94.441223%)" offset="0.3125"/><stop stop-opacity="1" stop-color="rgb(26.094055%, 67.137146%, 94.496155%)" offset="0.320312"/><stop stop-opacity="1" stop-color="rgb(26.15509%, 66.941833%, 94.551086%)" offset="0.328125"/><stop stop-opacity="1" stop-color="rgb(26.216125%, 66.744995%, 94.604492%)" offset="0.335938"/><stop stop-opacity="1" stop-color="rgb(26.277161%, 66.549683%, 94.659424%)" offset="0.34375"/><stop stop-opacity="1" stop-color="rgb(26.338196%, 66.352844%, 94.714355%)" offset="0.351562"/><stop stop-opacity="1" stop-color="rgb(26.399231%, 66.157532%, 94.769287%)" offset="0.359375"/><stop stop-opacity="1" stop-color="rgb(26.460266%, 65.962219%, 94.824219%)" offset="0.367187"/><stop stop-opacity="1" stop-color="rgb(26.521301%, 65.765381%, 94.877625%)" offset="0.375"/><stop stop-opacity="1" stop-color="rgb(26.582336%, 65.570068%, 94.932556%)" offset="0.382812"/><stop stop-opacity="1" stop-color="rgb(26.643372%, 65.37323%, 94.987488%)" offset="0.390625"/><stop stop-opacity="1" stop-color="rgb(26.704407%, 65.177917%, 95.042419%)" offset="0.398437"/><stop stop-opacity="1" stop-color="rgb(26.765442%, 64.981079%, 95.097351%)" offset="0.40625"/><stop stop-opacity="1" stop-color="rgb(26.856995%, 64.68811%, 95.178223%)" offset="0.421875"/><stop stop-opacity="1" stop-color="rgb(26.948547%, 64.393616%, 95.26062%)" offset="0.429687"/><stop stop-opacity="1" stop-color="rgb(27.009583%, 64.198303%, 95.315552%)" offset="0.4375"/><stop stop-opacity="1" stop-color="rgb(27.070618%, 64.001465%, 95.370483%)" offset="0.445312"/><stop stop-opacity="1" stop-color="rgb(27.131653%, 63.806152%, 95.425415%)" offset="0.453125"/><stop stop-opacity="1" stop-color="rgb(27.192688%, 63.609314%, 95.478821%)" offset="0.460937"/><stop stop-opacity="1" stop-color="rgb(27.253723%, 63.414001%, 95.533752%)" offset="0.46875"/><stop stop-opacity="1" stop-color="rgb(27.314758%, 63.217163%, 95.588684%)" offset="0.476562"/><stop stop-opacity="1" stop-color="rgb(27.375793%, 63.021851%, 95.643616%)" offset="0.484375"/><stop stop-opacity="1" stop-color="rgb(27.436829%, 62.826538%, 95.698547%)" offset="0.492187"/><stop stop-opacity="1" stop-color="rgb(27.497864%, 62.6297%, 95.753479%)" offset="0.5"/><stop stop-opacity="1" stop-color="rgb(27.558899%, 62.434387%, 95.806885%)" offset="0.507812"/><stop stop-opacity="1" stop-color="rgb(27.619934%, 62.237549%, 95.861816%)" offset="0.515625"/><stop stop-opacity="1" stop-color="rgb(27.680969%, 62.042236%, 95.916748%)" offset="0.523438"/><stop stop-opacity="1" stop-color="rgb(27.742004%, 61.845398%, 95.97168%)" offset="0.53125"/><stop stop-opacity="1" stop-color="rgb(27.833557%, 61.552429%, 96.052551%)" offset="0.546875"/><stop stop-opacity="1" stop-color="rgb(27.92511%, 61.257935%, 96.134949%)" offset="0.554687"/><stop stop-opacity="1" stop-color="rgb(27.986145%, 61.062622%, 96.18988%)" offset="0.5625"/><stop stop-opacity="1" stop-color="rgb(28.04718%, 60.865784%, 96.244812%)" offset="0.570312"/><stop stop-opacity="1" stop-color="rgb(28.108215%, 60.670471%, 96.299744%)" offset="0.578125"/><stop stop-opacity="1" stop-color="rgb(28.16925%, 60.473633%, 96.353149%)" offset="0.585938"/><stop stop-opacity="1" stop-color="rgb(28.230286%, 60.27832%, 96.408081%)" offset="0.59375"/><stop stop-opacity="1" stop-color="rgb(28.291321%, 60.081482%, 96.463013%)" offset="0.601562"/><stop stop-opacity="1" stop-color="rgb(28.352356%, 59.886169%, 96.517944%)" offset="0.609375"/><stop stop-opacity="1" stop-color="rgb(28.413391%, 59.690857%, 96.572876%)" offset="0.617188"/><stop stop-opacity="1" stop-color="rgb(28.474426%, 59.494019%, 96.627808%)" offset="0.625"/><stop stop-opacity="1" stop-color="rgb(28.535461%, 59.298706%, 96.681213%)" offset="0.632812"/><stop stop-opacity="1" stop-color="rgb(28.596497%, 59.101868%, 96.736145%)" offset="0.640625"/><stop stop-opacity="1" stop-color="rgb(28.657532%, 58.906555%, 96.791077%)" offset="0.648438"/><stop stop-opacity="1" stop-color="rgb(28.718567%, 58.709717%, 96.846008%)" offset="0.65625"/><stop stop-opacity="1" stop-color="rgb(28.81012%, 58.416748%, 96.92688%)" offset="0.671875"/><stop stop-opacity="1" stop-color="rgb(28.901672%, 58.122253%, 97.009277%)" offset="0.679688"/><stop stop-opacity="1" stop-color="rgb(28.962708%, 57.926941%, 97.064209%)" offset="0.6875"/><stop stop-opacity="1" stop-color="rgb(29.023743%, 57.730103%, 97.119141%)" offset="0.695312"/><stop stop-opacity="1" stop-color="rgb(29.084778%, 57.53479%, 97.174072%)" offset="0.703125"/><stop stop-opacity="1" stop-color="rgb(29.145813%, 57.337952%, 97.229004%)" offset="0.710937"/><stop stop-opacity="1" stop-color="rgb(29.206848%, 57.142639%, 97.28241%)" offset="0.71875"/><stop stop-opacity="1" stop-color="rgb(29.267883%, 56.945801%, 97.337341%)" offset="0.726562"/><stop stop-opacity="1" stop-color="rgb(29.328918%, 56.750488%, 97.392273%)" offset="0.734375"/><stop stop-opacity="1" stop-color="rgb(29.389954%, 56.555176%, 97.447205%)" offset="0.742188"/><stop stop-opacity="1" stop-color="rgb(29.450989%, 56.358337%, 97.502136%)" offset="0.75"/><stop stop-opacity="1" stop-color="rgb(29.512024%, 56.163025%, 97.555542%)" offset="0.757812"/><stop stop-opacity="1" stop-color="rgb(29.573059%, 55.966187%, 97.610474%)" offset="0.765625"/><stop stop-opacity="1" stop-color="rgb(29.634094%, 55.770874%, 97.665405%)" offset="0.773437"/><stop stop-opacity="1" stop-color="rgb(29.695129%, 55.574036%, 97.720337%)" offset="0.78125"/><stop stop-opacity="1" stop-color="rgb(29.786682%, 55.281067%, 97.801208%)" offset="0.796875"/><stop stop-opacity="1" stop-color="rgb(29.878235%, 54.986572%, 97.883606%)" offset="0.804687"/><stop stop-opacity="1" stop-color="rgb(29.93927%, 54.79126%, 97.938538%)" offset="0.8125"/><stop stop-opacity="1" stop-color="rgb(30.000305%, 54.594421%, 97.993469%)" offset="0.820312"/><stop stop-opacity="1" stop-color="rgb(30.06134%, 54.399109%, 98.048401%)" offset="0.828125"/><stop stop-opacity="1" stop-color="rgb(30.122375%, 54.202271%, 98.103333%)" offset="0.835938"/><stop stop-opacity="1" stop-color="rgb(30.183411%, 54.006958%, 98.156738%)" offset="0.84375"/><stop stop-opacity="1" stop-color="rgb(30.244446%, 53.81012%, 98.21167%)" offset="0.851562"/><stop stop-opacity="1" stop-color="rgb(30.305481%, 53.614807%, 98.266602%)" offset="0.859375"/><stop stop-opacity="1" stop-color="rgb(30.366516%, 53.419495%, 98.321533%)" offset="0.867187"/><stop stop-opacity="1" stop-color="rgb(30.427551%, 53.222656%, 98.376465%)" offset="0.875"/><stop stop-opacity="1" stop-color="rgb(30.488586%, 53.027344%, 98.429871%)" offset="0.882812"/><stop stop-opacity="1" stop-color="rgb(30.549622%, 52.830505%, 98.484802%)" offset="0.890625"/><stop stop-opacity="1" stop-color="rgb(30.610657%, 52.635193%, 98.539734%)" offset="0.898438"/><stop stop-opacity="1" stop-color="rgb(30.671692%, 52.438354%, 98.594666%)" offset="0.90625"/><stop stop-opacity="1" stop-color="rgb(30.763245%, 52.145386%, 98.675537%)" offset="0.921875"/><stop stop-opacity="1" stop-color="rgb(30.854797%, 51.850891%, 98.757935%)" offset="0.929687"/><stop stop-opacity="1" stop-color="rgb(30.915833%, 51.655579%, 98.812866%)" offset="0.9375"/><stop stop-opacity="1" stop-color="rgb(30.976868%, 51.45874%, 98.867798%)" offset="0.945312"/><stop stop-opacity="1" stop-color="rgb(31.037903%, 51.263428%, 98.922729%)" offset="0.953125"/><stop stop-opacity="1" stop-color="rgb(31.098938%, 51.066589%, 98.977661%)" offset="0.960938"/><stop stop-opacity="1" stop-color="rgb(31.159973%, 50.871277%, 99.031067%)" offset="0.96875"/><stop stop-opacity="1" stop-color="rgb(31.221008%, 50.674438%, 99.085999%)" offset="0.976562"/><stop stop-opacity="1" stop-color="rgb(31.282043%, 50.479126%, 99.14093%)" offset="0.984375"/><stop stop-opacity="1" stop-color="rgb(31.340027%, 50.289917%, 99.19281%)" offset="1"/></linearGradient><clipPath id="f79d5065c2"><path d="M 163 97 L 199 97 L 199 112 L 163 112 Z M 163 97 " clip-rule="nonzero"/></clipPath><clipPath id="876ff25c7d"><path d="M 156.902344 102.707031 L 201.996094 94.996094 L 206.675781 122.347656 L 161.578125 130.058594 Z M 156.902344 102.707031 " clip-rule="nonzero"/></clipPath><clipPath id="fff14ece17"><path d="M 156.902344 102.707031 L 201.996094 94.996094 L 206.675781 122.347656 L 161.578125 130.058594 Z M 156.902344 102.707031 " clip-rule="nonzero"/></clipPath><clipPath id="6882ebe6e1"><path d="M 163 104 L 199 104 L 199 118 L 163 118 Z M 163 104 " clip-rule="nonzero"/></clipPath><clipPath id="a5318a3e86"><path d="M 156.902344 102.707031 L 201.996094 94.996094 L 206.675781 122.347656 L 161.578125 130.058594 Z M 156.902344 102.707031 " clip-rule="nonzero"/></clipPath><clipPath id="717dfe53bd"><path d="M 156.902344 102.707031 L 201.996094 94.996094 L 206.675781 122.347656 L 161.578125 130.058594 Z M 156.902344 102.707031 " clip-rule="nonzero"/></clipPath><clipPath id="6786d63cf8"><path d="M 163 106 L 200 106 L 200 119 L 163 119 Z M 163 106 " clip-rule="nonzero"/></clipPath><clipPath id="7665afd688"><path d="M 156.902344 102.707031 L 201.996094 94.996094 L 206.675781 122.347656 L 161.578125 130.058594 Z M 156.902344 102.707031 " clip-rule="nonzero"/></clipPath><clipPath id="f7659021e5"><path d="M 156.902344 102.707031 L 201.996094 94.996094 L 206.675781 122.347656 L 161.578125 130.058594 Z M 156.902344 102.707031 " clip-rule="nonzero"/></clipPath><clipPath id="4de9fbf433"><path d="M 160 104 L 206 104 L 206 129 L 160 129 Z M 160 104 " clip-rule="nonzero"/></clipPath><clipPath id="a85ebe6726"><path d="M 156.902344 102.707031 L 201.996094 94.996094 L 206.675781 122.347656 L 161.578125 130.058594 Z M 156.902344 102.707031 " clip-rule="nonzero"/></clipPath><clipPath id="080bf16cda"><path d="M 156.902344 102.707031 L 201.996094 94.996094 L 206.675781 122.347656 L 161.578125 130.058594 Z M 156.902344 102.707031 " clip-rule="nonzero"/></clipPath><clipPath id="aae45861de"><path d="M 166 123 L 175 123 L 175 129 L 166 129 Z M 166 123 " clip-rule="nonzero"/></clipPath><clipPath id="0dcae76d0e"><path d="M 156.902344 102.707031 L 201.996094 94.996094 L 206.675781 122.347656 L 161.578125 130.058594 Z M 156.902344 102.707031 " clip-rule="nonzero"/></clipPath><clipPath id="cfc207e310"><path d="M 156.902344 102.707031 L 201.996094 94.996094 L 206.675781 122.347656 L 161.578125 130.058594 Z M 156.902344 102.707031 " clip-rule="nonzero"/></clipPath><clipPath id="97bf5dab0e"><path d="M 101 181 L 111 181 L 111 192 L 101 192 Z M 101 181 " clip-rule="nonzero"/></clipPath><clipPath id="aed12207fd"><path d="M 99.199219 178.1875 L 146.835938 188.542969 L 138.394531 227.386719 L 90.757812 217.03125 Z M 99.199219 178.1875 " clip-rule="nonzero"/></clipPath><clipPath id="02c66707a0"><path d="M 99.199219 178.1875 L 146.835938 188.542969 L 138.394531 227.386719 L 90.757812 217.03125 Z M 99.199219 178.1875 " clip-rule="nonzero"/></clipPath><clipPath id="94ec5c79ee"><path d="M 99.199219 178.1875 L 146.835938 188.542969 L 138.394531 227.386719 L 90.757812 217.03125 Z M 99.199219 178.1875 " clip-rule="nonzero"/></clipPath><clipPath id="b1ea98558d"><path d="M 105 186 L 128 186 L 128 212 L 105 212 Z M 105 186 " clip-rule="nonzero"/></clipPath><clipPath id="03de01c5a2"><path d="M 99.199219 178.1875 L 146.835938 188.542969 L 138.394531 227.386719 L 90.757812 217.03125 Z M 99.199219 178.1875 " clip-rule="nonzero"/></clipPath><clipPath id="72ccd692ee"><path d="M 99.199219 178.1875 L 146.835938 188.542969 L 138.394531 227.386719 L 90.757812 217.03125 Z M 99.199219 178.1875 " clip-rule="nonzero"/></clipPath><clipPath id="bbd4ca0d49"><path d="M 99.199219 178.1875 L 146.835938 188.542969 L 138.394531 227.386719 L 90.757812 217.03125 Z M 99.199219 178.1875 " clip-rule="nonzero"/></clipPath><clipPath id="cabab8baa9"><path d="M 104 186 L 128 186 L 128 212 L 104 212 Z M 104 186 " clip-rule="nonzero"/></clipPath><clipPath id="cd66816351"><path d="M 99.199219 178.1875 L 146.835938 188.542969 L 138.394531 227.386719 L 90.757812 217.03125 Z M 99.199219 178.1875 " clip-rule="nonzero"/></clipPath><clipPath id="dba3e471d1"><path d="M 99.199219 178.1875 L 146.835938 188.542969 L 138.394531 227.386719 L 90.757812 217.03125 Z M 99.199219 178.1875 " clip-rule="nonzero"/></clipPath><clipPath id="c1c686aa91"><path d="M 99.199219 178.1875 L 146.835938 188.542969 L 138.394531 227.386719 L 90.757812 217.03125 Z M 99.199219 178.1875 " clip-rule="nonzero"/></clipPath><clipPath id="1a75f505d6"><path d="M 108 190 L 125 190 L 125 208 L 108 208 Z M 108 190 " clip-rule="nonzero"/></clipPath><clipPath id="cb32306753"><path d="M 99.199219 178.1875 L 146.835938 188.542969 L 138.394531 227.386719 L 90.757812 217.03125 Z M 99.199219 178.1875 " clip-rule="nonzero"/></clipPath><clipPath id="91e5ef43b3"><path d="M 99.199219 178.1875 L 146.835938 188.542969 L 138.394531 227.386719 L 90.757812 217.03125 Z M 99.199219 178.1875 " clip-rule="nonzero"/></clipPath><clipPath id="e2a50aa0cf"><path d="M 99.199219 178.1875 L 146.835938 188.542969 L 138.394531 227.386719 L 90.757812 217.03125 Z M 99.199219 178.1875 " clip-rule="nonzero"/></clipPath><clipPath id="a4dda11685"><path d="M 107 189 L 125 189 L 125 209 L 107 209 Z M 107 189 " clip-rule="nonzero"/></clipPath><clipPath id="21c54c005a"><path d="M 99.199219 178.1875 L 146.835938 188.542969 L 138.394531 227.386719 L 90.757812 217.03125 Z M 99.199219 178.1875 " clip-rule="nonzero"/></clipPath><clipPath id="8e923b5bf9"><path d="M 99.199219 178.1875 L 146.835938 188.542969 L 138.394531 227.386719 L 90.757812 217.03125 Z M 99.199219 178.1875 " clip-rule="nonzero"/></clipPath><clipPath id="983b072755"><path d="M 99.199219 178.1875 L 146.835938 188.542969 L 138.394531 227.386719 L 90.757812 217.03125 Z M 99.199219 178.1875 " clip-rule="nonzero"/></clipPath><clipPath id="8b3d26a4cb"><path d="M 123 208 L 137 208 L 137 223 L 123 223 Z M 123 208 " clip-rule="nonzero"/></clipPath><clipPath id="19335807e2"><path d="M 99.199219 178.1875 L 146.835938 188.542969 L 138.394531 227.386719 L 90.757812 217.03125 Z M 99.199219 178.1875 " clip-rule="nonzero"/></clipPath><clipPath id="14ab8606e5"><path d="M 99.199219 178.1875 L 146.835938 188.542969 L 138.394531 227.386719 L 90.757812 217.03125 Z M 99.199219 178.1875 " clip-rule="nonzero"/></clipPath><clipPath id="47774f2eed"><path d="M 99.199219 178.1875 L 146.835938 188.542969 L 138.394531 227.386719 L 90.757812 217.03125 Z M 99.199219 178.1875 " clip-rule="nonzero"/></clipPath><clipPath id="d9abc6ff33"><path d="M 123 207 L 137 207 L 137 224 L 123 224 Z M 123 207 " clip-rule="nonzero"/></clipPath><clipPath id="3de9db0f19"><path d="M 99.199219 178.1875 L 146.835938 188.542969 L 138.394531 227.386719 L 90.757812 217.03125 Z M 99.199219 178.1875 " clip-rule="nonzero"/></clipPath><clipPath id="7566b408f5"><path d="M 99.199219 178.1875 L 146.835938 188.542969 L 138.394531 227.386719 L 90.757812 217.03125 Z M 99.199219 178.1875 " clip-rule="nonzero"/></clipPath><clipPath id="d9be785149"><path d="M 99.199219 178.1875 L 146.835938 188.542969 L 138.394531 227.386719 L 90.757812 217.03125 Z M 99.199219 178.1875 " clip-rule="nonzero"/></clipPath><clipPath id="e4ecadef42"><path d="M 132 219 L 140 219 L 140 226 L 132 226 Z M 132 219 " clip-rule="nonzero"/></clipPath><clipPath id="a45c5f0278"><path d="M 99.199219 178.1875 L 146.835938 188.542969 L 138.394531 227.386719 L 90.757812 217.03125 Z M 99.199219 178.1875 " clip-rule="nonzero"/></clipPath><clipPath id="cdc6ccb503"><path d="M 99.199219 178.1875 L 146.835938 188.542969 L 138.394531 227.386719 L 90.757812 217.03125 Z M 99.199219 178.1875 " clip-rule="nonzero"/></clipPath><clipPath id="7f46957aed"><path d="M 99.199219 178.1875 L 146.835938 188.542969 L 138.394531 227.386719 L 90.757812 217.03125 Z M 99.199219 178.1875 " clip-rule="nonzero"/></clipPath><clipPath id="2ce6ae140d"><path d="M 131 218 L 140 218 L 140 227 L 131 227 Z M 131 218 " clip-rule="nonzero"/></clipPath><clipPath id="27ec78cd02"><path d="M 99.199219 178.1875 L 146.835938 188.542969 L 138.394531 227.386719 L 90.757812 217.03125 Z M 99.199219 178.1875 " clip-rule="nonzero"/></clipPath><clipPath id="41d80af0e8"><path d="M 99.199219 178.1875 L 146.835938 188.542969 L 138.394531 227.386719 L 90.757812 217.03125 Z M 99.199219 178.1875 " clip-rule="nonzero"/></clipPath><clipPath id="8bbd0e7876"><path d="M 99.199219 178.1875 L 146.835938 188.542969 L 138.394531 227.386719 L 90.757812 217.03125 Z M 99.199219 178.1875 " clip-rule="nonzero"/></clipPath><clipPath id="529397bc12"><path d="M 118 203 L 131 203 L 131 214 L 118 214 Z M 118 203 " clip-rule="nonzero"/></clipPath><clipPath id="37afc8f541"><path d="M 99.199219 178.1875 L 146.835938 188.542969 L 138.394531 227.386719 L 90.757812 217.03125 Z M 99.199219 178.1875 " clip-rule="nonzero"/></clipPath><clipPath id="ed2173a5a0"><path d="M 99.199219 178.1875 L 146.835938 188.542969 L 138.394531 227.386719 L 90.757812 217.03125 Z M 99.199219 178.1875 " clip-rule="nonzero"/></clipPath><clipPath id="f92c7b9650"><path d="M 99.199219 178.1875 L 146.835938 188.542969 L 138.394531 227.386719 L 90.757812 217.03125 Z M 99.199219 178.1875 " clip-rule="nonzero"/></clipPath><clipPath id="2f598167fa"><path d="M 118 203 L 131 203 L 131 215 L 118 215 Z M 118 203 " clip-rule="nonzero"/></clipPath><clipPath id="4016797317"><path d="M 99.199219 178.1875 L 146.835938 188.542969 L 138.394531 227.386719 L 90.757812 217.03125 Z M 99.199219 178.1875 " clip-rule="nonzero"/></clipPath><clipPath id="24af96ca61"><path d="M 99.199219 178.1875 L 146.835938 188.542969 L 138.394531 227.386719 L 90.757812 217.03125 Z M 99.199219 178.1875 " clip-rule="nonzero"/></clipPath><clipPath id="bfd3cb0770"><path d="M 99.199219 178.1875 L 146.835938 188.542969 L 138.394531 227.386719 L 90.757812 217.03125 Z M 99.199219 178.1875 " clip-rule="nonzero"/></clipPath><clipPath id="3c0dad1eee"><path d="M 99 178 L 103 178 L 103 183 L 99 183 Z M 99 178 " clip-rule="nonzero"/></clipPath><clipPath id="567ca89b6a"><path d="M 99.199219 178.1875 L 146.835938 188.542969 L 138.394531 227.386719 L 90.757812 217.03125 Z M 99.199219 178.1875 " clip-rule="nonzero"/></clipPath><clipPath id="cb50bac5b4"><path d="M 99.199219 178.1875 L 146.835938 188.542969 L 138.394531 227.386719 L 90.757812 217.03125 Z M 99.199219 178.1875 " clip-rule="nonzero"/></clipPath><clipPath id="06a835ba29"><path d="M 99.199219 178.1875 L 146.835938 188.542969 L 138.394531 227.386719 L 90.757812 217.03125 Z M 99.199219 178.1875 " clip-rule="nonzero"/></clipPath><clipPath id="2ca4194955"><path d="M 117 203 L 120 203 L 120 206 L 117 206 Z M 117 203 " clip-rule="nonzero"/></clipPath><clipPath id="0b4aab6d6d"><path d="M 99.199219 178.1875 L 146.835938 188.542969 L 138.394531 227.386719 L 90.757812 217.03125 Z M 99.199219 178.1875 " clip-rule="nonzero"/></clipPath><clipPath id="9b25a0b497"><path d="M 99.199219 178.1875 L 146.835938 188.542969 L 138.394531 227.386719 L 90.757812 217.03125 Z M 99.199219 178.1875 " clip-rule="nonzero"/></clipPath><clipPath id="2362eb4dac"><path d="M 99.199219 178.1875 L 146.835938 188.542969 L 138.394531 227.386719 L 90.757812 217.03125 Z M 99.199219 178.1875 " clip-rule="nonzero"/></clipPath><clipPath id="4ac1a5777b"><path d="M 114 200 L 117 200 L 117 202 L 114 202 Z M 114 200 " clip-rule="nonzero"/></clipPath><clipPath id="119a282a7b"><path d="M 99.199219 178.1875 L 146.835938 188.542969 L 138.394531 227.386719 L 90.757812 217.03125 Z M 99.199219 178.1875 " clip-rule="nonzero"/></clipPath><clipPath id="49eadac8f0"><path d="M 99.199219 178.1875 L 146.835938 188.542969 L 138.394531 227.386719 L 90.757812 217.03125 Z M 99.199219 178.1875 " clip-rule="nonzero"/></clipPath><clipPath id="1efeee1ef9"><path d="M 99.199219 178.1875 L 146.835938 188.542969 L 138.394531 227.386719 L 90.757812 217.03125 Z M 99.199219 178.1875 " clip-rule="nonzero"/></clipPath><clipPath id="478307e872"><path d="M 114 199 L 118 199 L 118 203 L 114 203 Z M 114 199 " clip-rule="nonzero"/></clipPath><clipPath id="d82c392c6f"><path d="M 99.199219 178.1875 L 146.835938 188.542969 L 138.394531 227.386719 L 90.757812 217.03125 Z M 99.199219 178.1875 " clip-rule="nonzero"/></clipPath><clipPath id="7a65ac50f1"><path d="M 99.199219 178.1875 L 146.835938 188.542969 L 138.394531 227.386719 L 90.757812 217.03125 Z M 99.199219 178.1875 " clip-rule="nonzero"/></clipPath><clipPath id="3b964e8bcf"><path d="M 99.199219 178.1875 L 146.835938 188.542969 L 138.394531 227.386719 L 90.757812 217.03125 Z M 99.199219 178.1875 " clip-rule="nonzero"/></clipPath><clipPath id="5da846409f"><path d="M 111 196 L 114 196 L 114 199 L 111 199 Z M 111 196 " clip-rule="nonzero"/></clipPath><clipPath id="ba816a58cc"><path d="M 99.199219 178.1875 L 146.835938 188.542969 L 138.394531 227.386719 L 90.757812 217.03125 Z M 99.199219 178.1875 " clip-rule="nonzero"/></clipPath><clipPath id="88d71e3b9a"><path d="M 99.199219 178.1875 L 146.835938 188.542969 L 138.394531 227.386719 L 90.757812 217.03125 Z M 99.199219 178.1875 " clip-rule="nonzero"/></clipPath><clipPath id="9083a179c9"><path d="M 99.199219 178.1875 L 146.835938 188.542969 L 138.394531 227.386719 L 90.757812 217.03125 Z M 99.199219 178.1875 " clip-rule="nonzero"/></clipPath><clipPath id="119064b43b"><path d="M 111 196 L 115 196 L 115 199 L 111 199 Z M 111 196 " clip-rule="nonzero"/></clipPath><clipPath id="a2ae49b380"><path d="M 99.199219 178.1875 L 146.835938 188.542969 L 138.394531 227.386719 L 90.757812 217.03125 Z M 99.199219 178.1875 " clip-rule="nonzero"/></clipPath><clipPath id="d9b26c1a36"><path d="M 99.199219 178.1875 L 146.835938 188.542969 L 138.394531 227.386719 L 90.757812 217.03125 Z M 99.199219 178.1875 " clip-rule="nonzero"/></clipPath><clipPath id="66f34930aa"><path d="M 99.199219 178.1875 L 146.835938 188.542969 L 138.394531 227.386719 L 90.757812 217.03125 Z M 99.199219 178.1875 " clip-rule="nonzero"/></clipPath><clipPath id="19814ab9a7"><path d="M 103 182 L 108 182 L 108 189 L 103 189 Z M 103 182 " clip-rule="nonzero"/></clipPath><clipPath id="cd10163510"><path d="M 99.199219 178.1875 L 146.835938 188.542969 L 138.394531 227.386719 L 90.757812 217.03125 Z M 99.199219 178.1875 " clip-rule="nonzero"/></clipPath><clipPath id="ee11e48d77"><path d="M 99.199219 178.1875 L 146.835938 188.542969 L 138.394531 227.386719 L 90.757812 217.03125 Z M 99.199219 178.1875 " clip-rule="nonzero"/></clipPath><clipPath id="ea0e0956ab"><path d="M 99.199219 178.1875 L 146.835938 188.542969 L 138.394531 227.386719 L 90.757812 217.03125 Z M 99.199219 178.1875 " clip-rule="nonzero"/></clipPath><clipPath id="67e1b36b16"><path d="M 111 191 L 123 191 L 123 205 L 111 205 Z M 111 191 " clip-rule="nonzero"/></clipPath><clipPath id="3bbe09a37a"><path d="M 99.199219 178.1875 L 146.835938 188.542969 L 138.394531 227.386719 L 90.757812 217.03125 Z M 99.199219 178.1875 " clip-rule="nonzero"/></clipPath><clipPath id="5f6c77bf13"><path d="M 99.199219 178.1875 L 146.835938 188.542969 L 138.394531 227.386719 L 90.757812 217.03125 Z M 99.199219 178.1875 " clip-rule="nonzero"/></clipPath><clipPath id="ed0ba623d6"><path d="M 99.199219 178.1875 L 146.835938 188.542969 L 138.394531 227.386719 L 90.757812 217.03125 Z M 99.199219 178.1875 " clip-rule="nonzero"/></clipPath><clipPath id="7a3adc6905"><path d="M 125 210 L 135 210 L 135 222 L 125 222 Z M 125 210 " clip-rule="nonzero"/></clipPath><clipPath id="6847e02e80"><path d="M 99.199219 178.1875 L 146.835938 188.542969 L 138.394531 227.386719 L 90.757812 217.03125 Z M 99.199219 178.1875 " clip-rule="nonzero"/></clipPath><clipPath id="bc3156ef47"><path d="M 99.199219 178.1875 L 146.835938 188.542969 L 138.394531 227.386719 L 90.757812 217.03125 Z M 99.199219 178.1875 " clip-rule="nonzero"/></clipPath><clipPath id="1359d3ddfd"><path d="M 99.199219 178.1875 L 146.835938 188.542969 L 138.394531 227.386719 L 90.757812 217.03125 Z M 99.199219 178.1875 " clip-rule="nonzero"/></clipPath><clipPath id="0011758575"><path d="M 134 220 L 139 220 L 139 225 L 134 225 Z M 134 220 " clip-rule="nonzero"/></clipPath><clipPath id="fcec69a1c3"><path d="M 99.199219 178.1875 L 146.835938 188.542969 L 138.394531 227.386719 L 90.757812 217.03125 Z M 99.199219 178.1875 " clip-rule="nonzero"/></clipPath><clipPath id="4e055e5632"><path d="M 99.199219 178.1875 L 146.835938 188.542969 L 138.394531 227.386719 L 90.757812 217.03125 Z M 99.199219 178.1875 " clip-rule="nonzero"/></clipPath><clipPath id="14e142344c"><path d="M 99.199219 178.1875 L 146.835938 188.542969 L 138.394531 227.386719 L 90.757812 217.03125 Z M 99.199219 178.1875 " clip-rule="nonzero"/></clipPath></defs><g clip-path="url(#7aecea44ea)"><path fill="#f6f6f6" d="M 139.65625 206.304688 C 139.648438 206.222656 139.535156 206.1875 139.339844 206.167969 C 138.5 206.089844 136.203125 206.347656 134.652344 204.832031 C 132.738281 202.964844 132.488281 200.625 129.878906 200.945312 C 127.269531 201.269531 127.039062 203.042969 127.050781 204.65625 C 127.066406 206.269531 127.878906 207.917969 127.984375 207.8125 C 128.089844 207.707031 117.507812 211.382812 115.847656 213.503906 C 114.191406 215.628906 116.0625 217.277344 117.066406 217.566406 C 118.066406 217.851562 118.355469 217.695312 118.355469 217.695312 C 118.355469 217.695312 115.171875 218.964844 115.597656 221.675781 C 116.027344 224.390625 120.789062 224.121094 120.789062 224.121094 C 120.789062 224.121094 119.367188 225.910156 121.273438 227.820312 C 123.179688 229.730469 128.746094 226.527344 131.179688 225.832031 C 133.609375 225.136719 142.015625 222.378906 143.519531 219.757812 C 145.023438 217.132812 144.371094 215.945312 144.371094 215.945312 " fill-opacity="1" fill-rule="nonzero"/></g><path fill="#160e0b" d="M 129.191406 208.210938 C 129.125 208.648438 129.308594 209.066406 129.542969 209.421875 C 129.808594 209.828125 130.148438 210.179688 130.503906 210.503906 C 131.242188 211.167969 132.105469 211.679688 133.039062 212.015625 C 133.566406 212.207031 134.125 212.328125 134.683594 212.394531 C 134.859375 212.414062 134.976562 212.617188 134.941406 212.785156 C 134.90625 212.972656 134.730469 213.066406 134.550781 213.046875 C 133.457031 212.917969 132.390625 212.558594 131.4375 212.003906 C 130.503906 211.457031 129.605469 210.71875 129 209.8125 C 128.65625 209.296875 128.441406 208.703125 128.539062 208.082031 C 128.601562 207.65625 129.257812 207.789062 129.191406 208.210938 Z M 129.191406 208.210938 " fill-opacity="1" fill-rule="nonzero"/><path fill="#160e0b" d="M 119.015625 216.890625 C 121.332031 215.929688 123.6875 215.070312 126.074219 214.316406 C 126.757812 214.097656 127.441406 213.890625 128.125 213.691406 C 128.539062 213.574219 128.753906 214.203125 128.34375 214.324219 C 125.9375 215.023438 123.558594 215.824219 121.222656 216.722656 C 120.554688 216.980469 119.894531 217.246094 119.234375 217.519531 C 119.066406 217.589844 118.863281 217.476562 118.808594 217.3125 C 118.746094 217.132812 118.847656 216.957031 119.015625 216.890625 Z M 119.015625 216.890625 " fill-opacity="1" fill-rule="nonzero"/><path fill="#160e0b" d="M 121.476562 223.171875 C 123.730469 222.464844 125.929688 221.574219 128.035156 220.503906 C 128.195312 220.421875 128.390625 220.4375 128.5 220.597656 C 128.589844 220.734375 128.566406 220.976562 128.40625 221.058594 C 126.246094 222.15625 124.003906 223.078125 121.691406 223.800781 C 121.28125 223.929688 121.066406 223.296875 121.476562 223.171875 Z M 121.476562 223.171875 " fill-opacity="1" fill-rule="nonzero"/><path fill="#f6f6f6" d="M 171.890625 195.097656 C 171.667969 195.429688 170.445312 213.046875 170.445312 213.269531 C 170.445312 213.433594 163.683594 216.640625 156.976562 218.890625 C 156.085938 219.191406 155.195312 219.476562 154.324219 219.730469 C 152.984375 220.125 151.6875 220.457031 150.488281 220.691406 C 142.613281 222.242188 138.84375 219.585938 138.84375 219.585938 L 139.339844 206.167969 C 139.339844 206.167969 143.304688 205.679688 147.980469 204.796875 C 148.832031 204.636719 149.710938 204.464844 150.59375 204.277344 C 154.316406 203.492188 158.101562 202.484375 160.46875 201.304688 C 166.453125 198.3125 172.109375 194.765625 171.890625 195.097656 Z M 171.890625 195.097656 " fill-opacity="1" fill-rule="nonzero"/><path fill="#f6f6f6" d="M 229.613281 140.277344 C 229.433594 140.292969 229.089844 120.65625 229.089844 120.65625 L 233.6875 120.210938 C 233.6875 120.210938 236.863281 144.191406 236.414062 144.273438 C 235.96875 144.359375 229.613281 140.277344 229.613281 140.277344 Z M 229.613281 140.277344 " fill-opacity="1" fill-rule="nonzero"/><g clip-path="url(#90f97ed4e8)"><path fill="#f6f6f6" d="M 235.085938 117.109375 C 235.085938 117.382812 235.058594 117.652344 235.007812 117.917969 C 234.953125 118.1875 234.875 118.445312 234.769531 118.695312 C 234.667969 118.945312 234.539062 119.183594 234.386719 119.410156 C 234.238281 119.636719 234.066406 119.847656 233.871094 120.039062 C 233.679688 120.230469 233.46875 120.402344 233.246094 120.554688 C 233.019531 120.703125 232.777344 120.832031 232.527344 120.9375 C 232.277344 121.039062 232.015625 121.117188 231.75 121.171875 C 231.484375 121.226562 231.214844 121.25 230.941406 121.25 C 230.667969 121.25 230.398438 121.226562 230.132812 121.171875 C 229.867188 121.117188 229.605469 121.039062 229.355469 120.9375 C 229.105469 120.832031 228.867188 120.703125 228.640625 120.554688 C 228.414062 120.402344 228.203125 120.230469 228.011719 120.039062 C 227.820312 119.847656 227.648438 119.636719 227.496094 119.410156 C 227.34375 119.183594 227.21875 118.945312 227.113281 118.695312 C 227.007812 118.445312 226.929688 118.1875 226.878906 117.917969 C 226.824219 117.652344 226.796875 117.382812 226.796875 117.109375 C 226.796875 116.839844 226.824219 116.570312 226.878906 116.304688 C 226.929688 116.035156 227.007812 115.777344 227.113281 115.527344 C 227.21875 115.277344 227.34375 115.035156 227.496094 114.8125 C 227.648438 114.585938 227.820312 114.375 228.011719 114.183594 C 228.203125 113.992188 228.414062 113.820312 228.640625 113.667969 C 228.867188 113.515625 229.105469 113.390625 229.355469 113.285156 C 229.605469 113.183594 229.867188 113.101562 230.132812 113.050781 C 230.398438 112.996094 230.667969 112.96875 230.941406 112.96875 C 231.214844 112.96875 231.484375 112.996094 231.75 113.050781 C 232.015625 113.101562 232.277344 113.183594 232.527344 113.285156 C 232.777344 113.390625 233.019531 113.515625 233.246094 113.667969 C 233.46875 113.820312 233.679688 113.992188 233.871094 114.183594 C 234.066406 114.375 234.238281 114.585938 234.386719 114.8125 C 234.539062 115.035156 234.667969 115.277344 234.769531 115.527344 C 234.875 115.777344 234.953125 116.035156 235.007812 116.304688 C 235.058594 116.570312 235.085938 116.839844 235.085938 117.109375 Z M 235.085938 117.109375 " fill-opacity="1" fill-rule="nonzero"/></g><path fill="#54a3e6" d="M 234.484375 168.125 L 232.574219 168.386719 C 228.113281 169 224 165.886719 223.386719 161.429688 L 221.3125 146.367188 C 220.699219 141.910156 223.820312 137.800781 228.277344 137.1875 L 230.191406 136.925781 C 234.652344 136.3125 238.761719 139.429688 239.378906 143.882812 L 241.449219 158.945312 C 242.0625 163.402344 238.945312 167.511719 234.484375 168.125 Z M 234.484375 168.125 " fill-opacity="1" fill-rule="nonzero"/><path fill="#f6f6f6" d="M 139.882812 151.90625 C 140.0625 151.867188 134.484375 133.035156 134.484375 133.035156 L 129.964844 133.992188 C 129.964844 133.992188 134.144531 157.816406 134.597656 157.761719 C 135.050781 157.707031 139.882812 151.90625 139.882812 151.90625 Z M 139.882812 151.90625 " fill-opacity="1" fill-rule="nonzero"/><path fill="#f6f6f6" d="M 135.796875 130.210938 C 135.796875 130.480469 135.769531 130.75 135.714844 131.015625 C 135.664062 131.285156 135.582031 131.542969 135.480469 131.792969 C 135.375 132.042969 135.246094 132.285156 135.097656 132.507812 C 134.945312 132.734375 134.773438 132.945312 134.582031 133.136719 C 134.390625 133.328125 134.179688 133.5 133.953125 133.652344 C 133.726562 133.804688 133.488281 133.929688 133.238281 134.035156 C 132.984375 134.136719 132.726562 134.21875 132.460938 134.269531 C 132.191406 134.324219 131.921875 134.351562 131.652344 134.351562 C 131.378906 134.351562 131.109375 134.324219 130.84375 134.269531 C 130.574219 134.21875 130.316406 134.136719 130.066406 134.035156 C 129.8125 133.929688 129.574219 133.804688 129.347656 133.652344 C 129.121094 133.5 128.914062 133.328125 128.71875 133.136719 C 128.527344 132.945312 128.355469 132.734375 128.203125 132.507812 C 128.054688 132.285156 127.925781 132.042969 127.820312 131.792969 C 127.71875 131.542969 127.640625 131.285156 127.585938 131.015625 C 127.53125 130.75 127.507812 130.480469 127.507812 130.210938 C 127.507812 129.9375 127.53125 129.667969 127.585938 129.402344 C 127.640625 129.132812 127.71875 128.875 127.820312 128.625 C 127.925781 128.375 128.054688 128.136719 128.203125 127.910156 C 128.355469 127.683594 128.527344 127.472656 128.71875 127.28125 C 128.914062 127.089844 129.121094 126.917969 129.347656 126.765625 C 129.574219 126.617188 129.8125 126.488281 130.066406 126.382812 C 130.316406 126.28125 130.574219 126.203125 130.84375 126.148438 C 131.109375 126.09375 131.378906 126.070312 131.652344 126.070312 C 131.921875 126.070312 132.191406 126.09375 132.460938 126.148438 C 132.726562 126.203125 132.984375 126.28125 133.238281 126.382812 C 133.488281 126.488281 133.726562 126.617188 133.953125 126.765625 C 134.179688 126.917969 134.390625 127.089844 134.582031 127.28125 C 134.773438 127.472656 134.945312 127.683594 135.097656 127.910156 C 135.246094 128.136719 135.375 128.375 135.480469 128.625 C 135.582031 128.875 135.664062 129.132812 135.714844 129.402344 C 135.769531 129.667969 135.796875 129.9375 135.796875 130.210938 Z M 135.796875 130.210938 " fill-opacity="1" fill-rule="nonzero"/><path fill="#54a3e6" d="M 143.609375 179.929688 L 145.511719 179.609375 C 149.953125 178.851562 152.9375 174.648438 152.183594 170.210938 L 149.628906 155.222656 C 148.875 150.789062 144.664062 147.804688 140.226562 148.558594 L 138.324219 148.882812 C 133.886719 149.636719 130.898438 153.84375 131.65625 158.277344 L 134.207031 173.265625 C 134.960938 177.703125 139.171875 180.683594 143.609375 179.929688 Z M 143.609375 179.929688 " fill-opacity="1" fill-rule="nonzero"/><g clip-path="url(#434ddfa851)"><path fill="#f6f6f6" d="M 233.421875 153.527344 C 236.949219 177.203125 218.710938 195.34375 193.128906 199.148438 C 167.546875 202.953125 144.308594 190.980469 140.78125 167.308594 C 137.253906 143.632812 144.410156 119.144531 180.355469 113.421875 C 216.503906 107.664062 229.894531 129.855469 233.421875 153.527344 Z M 233.421875 153.527344 " fill-opacity="1" fill-rule="nonzero"/></g><path fill="#160e0b" d="M 167.152344 134.714844 C 167.152344 134.714844 151.664062 137.875 150.328125 151.796875 C 149.070312 164.921875 151.039062 186.5 176.886719 189.585938 C 202.734375 192.675781 221.558594 180.507812 224.328125 163.550781 C 227.101562 146.597656 219.839844 132.8125 209.964844 130.761719 C 196.386719 127.941406 167.152344 134.714844 167.152344 134.714844 Z M 167.152344 134.714844 " fill-opacity="1" fill-rule="nonzero"/><path fill="#54a3e6" d="M 211.613281 152.539062 C 211.660156 153.0625 211.667969 153.582031 211.640625 154.097656 C 211.613281 154.613281 211.546875 155.121094 211.449219 155.613281 C 211.347656 156.109375 211.214844 156.578125 211.042969 157.03125 C 210.875 157.480469 210.675781 157.902344 210.445312 158.292969 C 210.214844 158.683594 209.957031 159.039062 209.675781 159.355469 C 209.390625 159.671875 209.085938 159.945312 208.761719 160.171875 C 208.433594 160.402344 208.09375 160.582031 207.738281 160.714844 C 207.382812 160.851562 207.019531 160.933594 206.648438 160.964844 C 206.277344 160.996094 205.90625 160.976562 205.53125 160.90625 C 205.160156 160.835938 204.792969 160.71875 204.433594 160.546875 C 204.070312 160.378906 203.722656 160.164062 203.390625 159.898438 C 203.058594 159.636719 202.742188 159.332031 202.449219 158.988281 C 202.152344 158.640625 201.882812 158.261719 201.640625 157.847656 C 201.394531 157.429688 201.183594 156.988281 201 156.519531 C 200.816406 156.050781 200.664062 155.5625 200.546875 155.058594 C 200.429688 154.554688 200.347656 154.042969 200.304688 153.519531 C 200.257812 153 200.25 152.480469 200.277344 151.964844 C 200.304688 151.445312 200.371094 150.941406 200.472656 150.449219 C 200.570312 149.953125 200.707031 149.480469 200.875 149.03125 C 201.042969 148.578125 201.242188 148.15625 201.472656 147.765625 C 201.703125 147.375 201.960938 147.023438 202.246094 146.707031 C 202.527344 146.390625 202.832031 146.117188 203.160156 145.886719 C 203.484375 145.660156 203.824219 145.476562 204.179688 145.34375 C 204.535156 145.210938 204.898438 145.128906 205.269531 145.097656 C 205.640625 145.0625 206.011719 145.082031 206.386719 145.152344 C 206.757812 145.222656 207.125 145.34375 207.488281 145.511719 C 207.847656 145.683594 208.195312 145.898438 208.527344 146.160156 C 208.863281 146.421875 209.175781 146.726562 209.472656 147.074219 C 209.765625 147.417969 210.035156 147.800781 210.277344 148.214844 C 210.523438 148.628906 210.734375 149.070312 210.921875 149.542969 C 211.105469 150.011719 211.253906 150.496094 211.371094 151 C 211.488281 151.507812 211.570312 152.019531 211.613281 152.539062 Z M 211.613281 152.539062 " fill-opacity="1" fill-rule="nonzero"/><path fill="#54a3e6" d="M 174.199219 157.238281 C 174.246094 157.757812 174.253906 158.277344 174.226562 158.792969 C 174.195312 159.3125 174.132812 159.816406 174.03125 160.3125 C 173.933594 160.804688 173.796875 161.277344 173.628906 161.726562 C 173.460938 162.179688 173.261719 162.601562 173.03125 162.992188 C 172.800781 163.382812 172.542969 163.734375 172.257812 164.050781 C 171.976562 164.367188 171.671875 164.640625 171.34375 164.871094 C 171.019531 165.097656 170.679688 165.28125 170.324219 165.414062 C 169.96875 165.546875 169.605469 165.628906 169.234375 165.660156 C 168.863281 165.695312 168.488281 165.675781 168.117188 165.605469 C 167.742188 165.535156 167.378906 165.414062 167.015625 165.246094 C 166.65625 165.074219 166.308594 164.859375 165.976562 164.597656 C 165.640625 164.335938 165.328125 164.03125 165.03125 163.683594 C 164.738281 163.339844 164.46875 162.957031 164.226562 162.542969 C 163.980469 162.128906 163.765625 161.6875 163.582031 161.21875 C 163.398438 160.75 163.25 160.261719 163.132812 159.757812 C 163.015625 159.25 162.933594 158.738281 162.890625 158.21875 C 162.84375 157.695312 162.835938 157.179688 162.863281 156.660156 C 162.890625 156.144531 162.957031 155.636719 163.054688 155.144531 C 163.15625 154.652344 163.289062 154.179688 163.460938 153.726562 C 163.628906 153.277344 163.828125 152.855469 164.058594 152.464844 C 164.289062 152.074219 164.546875 151.71875 164.828125 151.402344 C 165.113281 151.085938 165.417969 150.8125 165.742188 150.585938 C 166.070312 150.355469 166.410156 150.175781 166.765625 150.042969 C 167.121094 149.910156 167.484375 149.824219 167.855469 149.792969 C 168.226562 149.761719 168.597656 149.78125 168.972656 149.851562 C 169.34375 149.921875 169.710938 150.039062 170.070312 150.210938 C 170.433594 150.378906 170.777344 150.597656 171.113281 150.859375 C 171.445312 151.121094 171.761719 151.425781 172.054688 151.769531 C 172.351562 152.117188 172.621094 152.496094 172.863281 152.914062 C 173.105469 153.328125 173.320312 153.769531 173.503906 154.238281 C 173.6875 154.707031 173.839844 155.195312 173.957031 155.699219 C 174.074219 156.203125 174.152344 156.714844 174.199219 157.238281 Z M 174.199219 157.238281 " fill-opacity="1" fill-rule="nonzero"/><path fill="#54a3e6" d="M 165.839844 165.316406 C 165.839844 165.316406 165.835938 165.316406 165.835938 165.316406 C 165.839844 165.316406 165.839844 165.316406 165.839844 165.316406 Z M 165.839844 165.316406 Z M 162.210938 154.628906 C 162.210938 154.628906 162.210938 154.628906 162.214844 154.628906 C 162.210938 154.628906 162.210938 154.628906 162.210938 154.628906 Z M 162.210938 154.632812 Z M 162.210938 154.632812 " fill-opacity="1" fill-rule="nonzero"/><path fill="#f6f6f6" d="M 244.941406 195.957031 C 244.558594 197.429688 238.851562 202.042969 232.292969 205.28125 C 231.472656 205.683594 230.636719 206.070312 229.796875 206.421875 C 227.117188 207.550781 224.386719 208.371094 221.902344 208.589844 C 212.421875 209.417969 210.339844 209.335938 209.925781 209.171875 C 209.507812 209.003906 206.601562 196.316406 206.601562 196.316406 C 207.710938 196.316406 214.035156 194.433594 223.015625 190.113281 C 223.425781 189.917969 223.824219 189.722656 224.207031 189.53125 C 225.058594 189.113281 225.847656 188.710938 226.578125 188.328125 C 232.777344 185.078125 234.875 183.160156 234.875 183.160156 C 234.875 183.160156 236.125 184.40625 239.367188 188.5625 C 242.609375 192.71875 245.523438 193.714844 244.941406 195.957031 Z M 244.941406 195.957031 " fill-opacity="1" fill-rule="nonzero"/><path fill="#f6f6f6" d="M 214.320312 217.394531 C 214.289062 222.199219 213.554688 227.457031 211.484375 232.105469 C 206.492188 243.292969 182.761719 247.394531 170.894531 236.425781 C 166.097656 231.988281 164.746094 224.617188 164.835938 217.410156 C 164.851562 216.25 164.902344 215.09375 164.984375 213.953125 C 165.644531 204.675781 168.234375 196.539062 168.234375 196.539062 C 168.234375 196.539062 205.273438 193.214844 206.160156 192.773438 C 207.046875 192.328125 210.375 199.308594 212.039062 202.742188 C 212.835938 204.390625 213.890625 208.644531 214.21875 213.855469 C 214.289062 214.996094 214.328125 216.179688 214.320312 217.394531 Z M 214.320312 217.394531 " fill-opacity="1" fill-rule="nonzero"/><g clip-path="url(#3e92c0b6db)"><path fill="#f6f6f6" d="M 234.875 187.816406 C 234.796875 187.792969 234.785156 187.671875 234.804688 187.472656 C 234.894531 186.640625 235.597656 184.4375 234.417969 182.621094 C 232.964844 180.378906 230.71875 179.671875 231.550781 177.179688 C 232.382812 174.683594 234.167969 174.808594 235.75 175.140625 C 237.328125 175.472656 238.785156 176.597656 238.660156 176.679688 C 238.535156 176.761719 244.234375 167.125 246.644531 165.917969 C 249.058594 164.714844 250.304688 166.875 250.386719 167.914062 C 250.472656 168.953125 250.261719 169.199219 250.261719 169.199219 C 250.261719 169.199219 252.132812 166.335938 254.710938 167.289062 C 257.289062 168.246094 256.085938 172.855469 256.085938 172.855469 C 256.085938 172.855469 258.121094 171.820312 259.621094 174.0625 C 261.117188 176.304688 256.875 181.125 255.710938 183.367188 C 254.546875 185.613281 250.179688 193.300781 247.308594 194.253906 C 244.441406 195.210938 243.402344 194.335938 243.402344 194.335938 " fill-opacity="1" fill-rule="nonzero"/></g><path fill="#160e0b" d="M 238.8125 177.941406 C 239.253906 177.960938 239.628906 178.222656 239.933594 178.523438 C 240.277344 178.863281 240.558594 179.265625 240.804688 179.679688 C 241.308594 180.53125 241.640625 181.480469 241.785156 182.460938 C 241.867188 183.015625 241.878906 183.585938 241.832031 184.144531 C 241.816406 184.324219 241.996094 184.476562 242.164062 184.476562 C 242.355469 184.476562 242.484375 184.324219 242.5 184.144531 C 242.585938 183.050781 242.445312 181.929688 242.089844 180.890625 C 241.742188 179.867188 241.191406 178.84375 240.421875 178.070312 C 239.984375 177.632812 239.445312 177.304688 238.8125 177.273438 C 238.386719 177.253906 238.386719 177.921875 238.8125 177.941406 Z M 238.8125 177.941406 " fill-opacity="1" fill-rule="nonzero"/><path fill="#160e0b" d="M 249.339844 169.6875 C 247.941406 171.765625 246.632812 173.90625 245.417969 176.09375 C 245.070312 176.71875 244.734375 177.347656 244.402344 177.980469 C 244.203125 178.359375 244.777344 178.695312 244.976562 178.316406 C 246.140625 176.097656 247.394531 173.929688 248.742188 171.816406 C 249.125 171.214844 249.515625 170.617188 249.914062 170.027344 C 250.015625 169.875 249.945312 169.65625 249.792969 169.570312 C 249.632812 169.472656 249.4375 169.539062 249.339844 169.691406 Z M 249.339844 169.6875 " fill-opacity="1" fill-rule="nonzero"/><path fill="#160e0b" d="M 255.015625 173.339844 C 253.878906 175.410156 252.570312 177.386719 251.105469 179.238281 C 250.992188 179.378906 250.964844 179.570312 251.105469 179.710938 C 251.21875 179.824219 251.464844 179.851562 251.574219 179.710938 C 253.078125 177.8125 254.425781 175.796875 255.589844 173.675781 C 255.796875 173.300781 255.222656 172.960938 255.015625 173.339844 Z M 255.015625 173.339844 " fill-opacity="1" fill-rule="nonzero"/><g clip-path="url(#d556ef4a6e)"><path fill="#f6f6f6" d="M 185.214844 260.699219 C 183.046875 262.929688 160.273438 262.535156 158.566406 262.011719 C 156.859375 261.488281 156.464844 258.339844 158.304688 254.996094 C 160.140625 251.648438 167.820312 250.273438 167.820312 250.273438 C 167.820312 250.273438 167.488281 247.277344 167.351562 243.753906 C 167.324219 243.003906 167.304688 242.230469 167.300781 241.457031 C 167.292969 240.601562 167.304688 239.742188 167.34375 238.917969 C 167.488281 235.628906 168.582031 232.828125 168.609375 232.699219 L 168.542969 232.4375 C 168.542969 232.4375 184.6875 237.421875 184.753906 237.289062 C 184.78125 237.238281 184.824219 239.550781 184.867188 242.453125 C 184.875 242.953125 184.882812 243.472656 184.890625 244 C 184.902344 244.71875 184.910156 245.457031 184.921875 246.1875 C 184.972656 250.039062 185.015625 253.683594 185.015625 253.683594 C 185.015625 253.683594 187.378906 258.46875 185.214844 260.699219 Z M 185.214844 260.699219 " fill-opacity="1" fill-rule="nonzero"/></g><path fill="#54a3e6" d="M 184.921875 246.1875 C 183.90625 246.191406 182.886719 246.167969 181.871094 246.117188 C 179.589844 246.011719 177.3125 245.773438 175.054688 245.429688 C 172.871094 245.097656 170.707031 244.648438 168.574219 244.089844 C 168.164062 243.980469 167.757812 243.871094 167.351562 243.753906 C 167.324219 243.003906 167.304688 242.230469 167.300781 241.457031 C 170.335938 242.359375 173.441406 243.023438 176.582031 243.453125 C 177.753906 243.609375 178.925781 243.730469 180.105469 243.820312 C 181.695312 243.941406 183.292969 244 184.890625 244 C 184.902344 244.71875 184.910156 245.457031 184.921875 246.1875 Z M 184.921875 246.1875 " fill-opacity="1" fill-rule="nonzero"/><g clip-path="url(#bd8c59a50f)"><path fill="#f6f6f6" d="M 194.769531 260.78125 C 196.9375 263.011719 219.710938 262.617188 221.417969 262.09375 C 223.125 261.570312 223.519531 258.421875 221.679688 255.078125 C 219.84375 251.734375 212.164062 250.355469 212.164062 250.355469 C 212.164062 250.355469 212.496094 247.359375 212.632812 243.835938 C 212.660156 243.085938 212.679688 242.3125 212.683594 241.539062 C 212.691406 240.683594 212.679688 239.828125 212.640625 239 C 212.496094 235.710938 211.402344 232.910156 211.375 232.78125 L 211.441406 232.519531 C 211.441406 232.519531 195.296875 237.503906 195.230469 237.371094 C 195.203125 237.324219 195.160156 239.636719 195.117188 242.539062 C 195.109375 243.039062 195.101562 243.554688 195.09375 244.082031 C 195.082031 244.804688 195.074219 245.542969 195.0625 246.273438 C 195.011719 250.125 194.96875 253.765625 194.96875 253.765625 C 194.96875 253.765625 192.605469 258.554688 194.769531 260.78125 Z M 194.769531 260.78125 " fill-opacity="1" fill-rule="nonzero"/></g><path fill="#54a3e6" d="M 195.0625 246.273438 C 196.078125 246.273438 197.097656 246.25 198.113281 246.203125 C 200.394531 246.09375 202.671875 245.859375 204.929688 245.511719 C 207.113281 245.179688 209.277344 244.734375 211.410156 244.171875 C 211.820312 244.0625 212.226562 243.953125 212.632812 243.835938 C 212.660156 243.085938 212.679688 242.3125 212.683594 241.539062 C 209.648438 242.441406 206.542969 243.105469 203.402344 243.539062 C 202.230469 243.691406 201.058594 243.816406 199.878906 243.902344 C 198.289062 244.023438 196.691406 244.082031 195.09375 244.082031 C 195.082031 244.804688 195.074219 245.542969 195.0625 246.273438 Z M 195.0625 246.273438 " fill-opacity="1" fill-rule="nonzero"/><path fill="#54a3e6" d="M 214.320312 217.394531 C 212.695312 217.84375 211.050781 218.222656 209.394531 218.535156 C 207.160156 218.953125 204.902344 219.261719 202.640625 219.476562 C 200.410156 219.691406 198.171875 219.804688 195.933594 219.84375 C 193.609375 219.886719 191.289062 219.847656 188.96875 219.757812 C 186.648438 219.667969 184.328125 219.519531 182.011719 219.347656 C 179.75 219.175781 177.488281 218.984375 175.230469 218.773438 C 172.941406 218.5625 170.65625 218.316406 168.378906 217.992188 C 167.191406 217.828125 166.011719 217.636719 164.835938 217.410156 C 164.851562 216.25 164.902344 215.09375 164.984375 213.953125 C 166.535156 214.269531 168.097656 214.527344 169.664062 214.742188 C 169.871094 214.769531 170.082031 214.796875 170.289062 214.820312 C 172.515625 215.101562 174.75 215.308594 176.984375 215.503906 C 179.390625 215.714844 181.800781 215.914062 184.214844 216.074219 C 186.625 216.234375 189.042969 216.355469 191.457031 216.40625 C 193.875 216.457031 196.289062 216.441406 198.703125 216.328125 C 200.878906 216.222656 203.054688 216.039062 205.214844 215.757812 C 206.25 215.617188 207.285156 215.449219 208.3125 215.261719 C 210.242188 214.902344 212.15625 214.457031 214.039062 213.910156 C 214.097656 213.894531 214.160156 213.875 214.21875 213.859375 C 214.289062 214.996094 214.328125 216.179688 214.320312 217.394531 Z M 214.320312 217.394531 " fill-opacity="1" fill-rule="nonzero"/><path fill="#54a3e6" d="M 232.292969 205.28125 C 231.472656 205.683594 230.636719 206.070312 229.796875 206.421875 C 229.660156 205.605469 229.492188 204.792969 229.304688 203.984375 C 228.863281 202.046875 228.332031 200.128906 227.71875 198.238281 C 227.125 196.40625 226.453125 194.59375 225.707031 192.816406 C 225.511719 192.351562 225.308594 191.890625 225.097656 191.429688 C 224.8125 190.792969 224.515625 190.160156 224.207031 189.53125 C 225.058594 189.113281 225.847656 188.710938 226.578125 188.328125 C 226.953125 189.089844 227.308594 189.863281 227.652344 190.640625 C 228.472656 192.503906 229.226562 194.394531 229.886719 196.316406 C 230.523438 198.160156 231.078125 200.027344 231.550781 201.917969 C 231.832031 203.03125 232.085938 204.152344 232.292969 205.28125 Z M 232.292969 205.28125 " fill-opacity="1" fill-rule="nonzero"/><path fill="#54a3e6" d="M 156.976562 218.890625 C 156.085938 219.191406 155.195312 219.476562 154.324219 219.730469 C 154.105469 219.40625 153.890625 219.082031 153.679688 218.753906 C 151.703125 215.648438 150.136719 212.269531 149.023438 208.765625 C 148.753906 207.910156 148.511719 207.046875 148.296875 206.175781 C 148.183594 205.71875 148.074219 205.261719 147.980469 204.796875 C 148.832031 204.636719 149.710938 204.464844 150.59375 204.277344 C 150.628906 204.445312 150.667969 204.617188 150.707031 204.789062 C 151.226562 207.058594 151.941406 209.28125 152.835938 211.433594 C 153.121094 212.105469 153.425781 212.765625 153.746094 213.421875 C 154.683594 215.324219 155.761719 217.15625 156.976562 218.890625 Z M 156.976562 218.890625 " fill-opacity="1" fill-rule="nonzero"/><path fill="#54a3e6" d="M 177.039062 166.796875 C 177.40625 166.652344 180.796875 168.542969 189.242188 167.21875 C 197.355469 165.945312 199.761719 162.511719 200.722656 163.191406 C 202.078125 164.148438 198.890625 175.074219 189.71875 175.867188 C 180.542969 176.660156 174.613281 167.746094 177.039062 166.796875 Z M 177.039062 166.796875 " fill-opacity="1" fill-rule="nonzero"/><g clip-path="url(#19296d8556)"><path fill="#1f2b5b" d="M 200.285156 201.285156 L 200.285156 198.0625 L 202.535156 198.0625 C 202.535156 198.0625 202.566406 199.570312 201.988281 200.175781 C 201.414062 200.785156 200.285156 201.285156 200.285156 201.285156 Z M 200.285156 201.285156 " fill-opacity="1" fill-rule="nonzero"/></g><g clip-path="url(#4e91dba157)"><g clip-path="url(#4d32b84708)"><path fill="url(#14ad3b8ef8)" d="M 196.535156 198.183594 L 196.535156 204.050781 L 202.539062 204.050781 L 202.539062 198.183594 Z M 196.535156 198.183594 " fill-rule="nonzero"/></g></g><g clip-path="url(#e7ae3e3000)"><path fill="#1f2b5b" d="M 202.535156 203.820312 L 202.535156 207.042969 L 200.285156 207.042969 C 200.285156 207.042969 200.253906 205.535156 200.828125 204.925781 C 201.40625 204.320312 202.535156 203.820312 202.535156 203.820312 Z M 202.535156 203.820312 " fill-opacity="1" fill-rule="nonzero"/></g><g clip-path="url(#4750d4246a)"><g clip-path="url(#55c4eb2580)"><path fill="url(#5451a8fe65)" d="M 206.285156 206.921875 L 206.285156 201.054688 L 200.28125 201.054688 L 200.28125 206.921875 Z M 206.285156 206.921875 " fill-rule="nonzero"/></g></g><g clip-path="url(#f79d5065c2)"><g clip-path="url(#876ff25c7d)"><g clip-path="url(#fff14ece17)"><path fill="#002d75" d="M 198.195312 104.207031 C 198.253906 104.539062 198.289062 104.875 198.304688 105.203125 C 197.375 104.746094 196.394531 104.382812 195.390625 104.128906 C 190.34375 102.847656 185.246094 102.632812 180.242188 103.488281 C 175.234375 104.34375 170.496094 106.238281 166.164062 109.125 C 165.296875 109.699219 164.496094 110.367188 163.769531 111.109375 C 163.675781 110.792969 163.597656 110.464844 163.542969 110.132812 C 162.757812 105.542969 165.851562 101.171875 170.441406 100.386719 L 188.453125 97.308594 C 193.039062 96.523438 197.414062 99.617188 198.195312 104.207031 Z M 198.195312 104.207031 " fill-opacity="1" fill-rule="nonzero"/></g></g></g><g clip-path="url(#6882ebe6e1)"><g clip-path="url(#a5318a3e86)"><g clip-path="url(#717dfe53bd)"><path fill="#002d75" d="M 198.261719 106.601562 C 197.300781 106.082031 196.238281 105.65625 195.078125 105.359375 C 190.207031 104.121094 185.285156 103.914062 180.457031 104.742188 C 175.625 105.566406 171.050781 107.398438 166.867188 110.183594 C 165.871094 110.847656 165.011719 111.601562 164.277344 112.410156 C 164.121094 112.578125 163.96875 112.753906 163.824219 112.929688 C 165.601562 116.320312 169.417969 118.339844 173.394531 117.660156 L 180.578125 116.429688 L 180.414062 115.484375 L 178.140625 115.875 C 177.214844 116.03125 176.324219 115.34375 176.152344 114.339844 C 175.980469 113.332031 176.589844 112.386719 177.515625 112.230469 L 179.792969 111.839844 L 179.402344 109.5625 C 179.246094 108.640625 179.933594 107.75 180.9375 107.578125 C 181.945312 107.40625 182.890625 108.015625 183.046875 108.941406 L 183.4375 111.21875 L 185.714844 110.828125 C 186.636719 110.671875 187.527344 111.355469 187.699219 112.363281 C 187.871094 113.371094 187.261719 114.316406 186.335938 114.472656 L 184.0625 114.863281 L 184.222656 115.808594 L 191.40625 114.582031 C 195.382812 113.898438 198.3125 110.730469 198.859375 106.9375 C 198.664062 106.820312 198.464844 106.707031 198.261719 106.601562 Z M 198.261719 106.601562 " fill-opacity="1" fill-rule="nonzero"/></g></g></g><g clip-path="url(#6786d63cf8)"><g clip-path="url(#7665afd688)"><g clip-path="url(#f7659021e5)"><path fill="#ffffff" d="M 198.859375 106.9375 C 198.664062 106.820312 198.464844 106.707031 198.261719 106.601562 C 197.839844 110.226562 195.078125 113.308594 191.296875 113.953125 L 184.113281 115.179688 L 184.328125 116.433594 L 191.511719 115.207031 C 195.664062 114.496094 198.75 111.238281 199.441406 107.308594 C 199.253906 107.183594 199.058594 107.058594 198.859375 106.9375 Z M 173.285156 117.03125 C 169.507812 117.679688 165.878906 115.691406 164.277344 112.410156 C 164.117188 112.578125 163.96875 112.753906 163.824219 112.929688 C 163.675781 113.109375 163.535156 113.289062 163.398438 113.472656 C 165.355469 116.949219 169.351562 118.996094 173.5 118.285156 L 180.683594 117.058594 L 180.46875 115.804688 L 173.289062 117.03125 Z M 173.285156 117.03125 " fill-opacity="1" fill-rule="nonzero"/></g></g></g><g clip-path="url(#4de9fbf433)"><g clip-path="url(#a85ebe6726)"><g clip-path="url(#080bf16cda)"><path fill="#002d75" d="M 204.449219 113.183594 C 203.589844 111.21875 201.917969 108.96875 199.441406 107.3125 C 199.253906 107.183594 199.058594 107.058594 198.859375 106.9375 C 198.664062 106.820312 198.464844 106.707031 198.261719 106.601562 C 197.300781 106.082031 196.238281 105.65625 195.078125 105.359375 C 190.207031 104.121094 185.285156 103.914062 180.457031 104.742188 C 175.625 105.566406 171.050781 107.398438 166.867188 110.183594 C 165.871094 110.847656 165.011719 111.601562 164.277344 112.410156 C 164.121094 112.578125 163.96875 112.753906 163.824219 112.929688 C 163.675781 113.109375 163.535156 113.289062 163.398438 113.472656 C 161.617188 115.859375 160.785156 118.539062 160.628906 120.675781 C 160.441406 123.242188 161.105469 125.417969 162.460938 126.640625 C 163.226562 127.351562 164.042969 127.84375 164.871094 128.167969 C 165.074219 128.164062 165.5625 128.152344 166.226562 128.085938 L 166.230469 128.085938 C 166.605469 128.046875 167.039062 127.988281 167.511719 127.910156 C 169.886719 127.503906 173.210938 126.464844 175 123.796875 C 175.167969 123.550781 175.320312 123.289062 175.457031 123.011719 C 175.613281 122.699219 175.996094 122.570312 176.3125 122.726562 C 176.625 122.882812 176.753906 123.265625 176.597656 123.578125 C 175.34375 126.09375 173.089844 127.53125 170.878906 128.351562 C 172.226562 127.996094 173.574219 127.402344 174.832031 126.609375 C 177.519531 124.820312 180.46875 123.636719 183.59375 123.101562 C 186.714844 122.570312 189.894531 122.703125 193.039062 123.503906 C 194.855469 123.917969 196.722656 123.984375 198.421875 123.695312 C 200.441406 123.347656 203.167969 122.328125 204.699219 119.421875 C 205.574219 117.816406 205.480469 115.542969 204.449219 113.183594 Z M 178.566406 120.890625 C 178.09375 121.5625 177.160156 121.722656 176.492188 121.246094 C 175.816406 120.769531 175.660156 119.839844 176.136719 119.167969 C 176.609375 118.496094 177.539062 118.339844 178.210938 118.8125 C 178.882812 119.289062 179.042969 120.222656 178.566406 120.890625 Z M 184.449219 117.140625 C 184.609375 118.0625 183.917969 118.953125 182.914062 119.125 C 181.90625 119.296875 180.960938 118.6875 180.804688 117.761719 L 180.414062 115.484375 L 178.140625 115.875 C 177.214844 116.035156 176.324219 115.34375 176.152344 114.339844 C 175.980469 113.332031 176.589844 112.386719 177.515625 112.230469 L 179.792969 111.839844 L 179.402344 109.566406 C 179.246094 108.640625 179.933594 107.75 180.9375 107.578125 C 181.945312 107.40625 182.890625 108.015625 183.046875 108.941406 L 183.4375 111.21875 L 185.714844 110.828125 C 186.636719 110.671875 187.527344 111.359375 187.699219 112.363281 C 187.871094 113.371094 187.261719 114.316406 186.335938 114.472656 L 184.0625 114.863281 Z M 184.449219 117.140625 " fill-opacity="1" fill-rule="nonzero"/><path fill="#002d75" d="M 204.449219 113.183594 C 203.589844 111.21875 201.917969 108.96875 199.441406 107.3125 C 199.253906 107.183594 199.058594 107.058594 198.859375 106.9375 C 198.664062 106.820312 198.464844 106.707031 198.261719 106.601562 C 197.300781 106.082031 196.238281 105.65625 195.078125 105.359375 C 190.207031 104.121094 185.285156 103.914062 180.457031 104.742188 C 175.625 105.566406 171.050781 107.398438 166.867188 110.183594 C 165.871094 110.847656 165.011719 111.601562 164.277344 112.410156 C 164.121094 112.578125 163.96875 112.753906 163.824219 112.929688 C 163.675781 113.109375 163.535156 113.289062 163.398438 113.472656 C 161.617188 115.859375 160.785156 118.539062 160.628906 120.675781 C 160.441406 123.242188 161.105469 125.417969 162.460938 126.640625 C 163.226562 127.351562 164.042969 127.84375 164.871094 128.167969 C 165.074219 128.164062 165.5625 128.152344 166.226562 128.085938 L 166.230469 128.085938 C 166.605469 128.046875 167.039062 127.988281 167.511719 127.910156 C 169.886719 127.503906 173.210938 126.464844 175 123.796875 C 175.167969 123.550781 175.320312 123.289062 175.457031 123.011719 C 175.613281 122.699219 175.996094 122.570312 176.3125 122.726562 C 176.625 122.882812 176.753906 123.265625 176.597656 123.578125 C 175.34375 126.09375 173.089844 127.53125 170.878906 128.351562 C 172.226562 127.996094 173.574219 127.402344 174.832031 126.609375 C 177.519531 124.820312 180.46875 123.636719 183.59375 123.101562 C 186.714844 122.570312 189.894531 122.703125 193.039062 123.503906 C 194.855469 123.917969 196.722656 123.984375 198.421875 123.695312 C 200.441406 123.347656 203.167969 122.328125 204.699219 119.421875 C 205.574219 117.816406 205.480469 115.542969 204.449219 113.183594 Z M 178.566406 120.890625 C 178.09375 121.5625 177.160156 121.722656 176.492188 121.246094 C 175.816406 120.769531 175.660156 119.839844 176.136719 119.167969 C 176.609375 118.496094 177.539062 118.339844 178.210938 118.8125 C 178.882812 119.289062 179.042969 120.222656 178.566406 120.890625 Z M 184.449219 117.140625 C 184.609375 118.0625 183.917969 118.953125 182.914062 119.125 C 181.90625 119.296875 180.960938 118.6875 180.804688 117.761719 L 180.414062 115.484375 L 178.140625 115.875 C 177.214844 116.035156 176.324219 115.34375 176.152344 114.339844 C 175.980469 113.332031 176.589844 112.386719 177.515625 112.230469 L 179.792969 111.839844 L 179.402344 109.566406 C 179.246094 108.640625 179.933594 107.75 180.9375 107.578125 C 181.945312 107.40625 182.890625 108.015625 183.046875 108.941406 L 183.4375 111.21875 L 185.714844 110.828125 C 186.636719 110.671875 187.527344 111.359375 187.699219 112.363281 C 187.871094 113.371094 187.261719 114.316406 186.335938 114.472656 L 184.0625 114.863281 Z M 184.449219 117.140625 " fill-opacity="1" fill-rule="nonzero"/></g></g></g><g clip-path="url(#aae45861de)"><g clip-path="url(#0dcae76d0e)"><g clip-path="url(#cfc207e310)"><path fill="#002d75" d="M 175 123.796875 C 173.207031 126.464844 169.886719 127.503906 167.511719 127.910156 C 167.039062 127.988281 166.605469 128.046875 166.230469 128.085938 Z M 175 123.796875 " fill-opacity="1" fill-rule="nonzero"/></g></g></g><g clip-path="url(#97bf5dab0e)"><g clip-path="url(#aed12207fd)"><g clip-path="url(#02c66707a0)"><g clip-path="url(#94ec5c79ee)"><path fill="#b1b7bc" d="M 101.460938 183.660156 C 101.382812 183.566406 101.394531 183.429688 101.492188 183.351562 L 103.703125 181.542969 C 103.796875 181.464844 103.9375 181.476562 104.015625 181.574219 L 110.078125 188.933594 C 110.15625 189.027344 110.144531 189.164062 110.050781 189.242188 L 107.835938 191.050781 C 107.742188 191.128906 107.601562 191.113281 107.527344 191.023438 L 101.460938 183.660156 " fill-opacity="1" fill-rule="nonzero"/><path stroke-linecap="round" transform="matrix(0.0240714, 0.00523292, 0.00521475, -0.0239878, 56.167419, 242.204442)" fill="none" stroke-linejoin="round" d="M 1291.859358 2722.399376 C 1287.951809 2725.455179 1287.237671 2730.998893 1290.437819 2734.95386 L 1362.545557 2826.08035 C 1365.59075 2830.001514 1371.270169 2830.751943 1375.211403 2827.540645 L 1679.164757 2587.051624 C 1683.072306 2583.995821 1683.786444 2578.452107 1680.741251 2574.530943 L 1608.478558 2483.37065 C 1605.433365 2479.449486 1599.72026 2478.854551 1596.001352 2481.788663 Z M 1291.859358 2722.399376 " stroke="#24578f" stroke-width="30" stroke-opacity="1" stroke-miterlimit="10"/></g></g></g></g><g clip-path="url(#b1ea98558d)"><g clip-path="url(#03de01c5a2)"><g clip-path="url(#72ccd692ee)"><g clip-path="url(#bbd4ca0d49)"><path fill="#b1b7bc" d="M 105.125 191.566406 C 105.046875 191.472656 105.0625 191.332031 105.15625 191.257812 L 110.773438 186.660156 C 110.863281 186.582031 111.003906 186.597656 111.082031 186.691406 L 127.261719 206.324219 C 127.335938 206.417969 127.324219 206.554688 127.230469 206.632812 L 121.617188 211.230469 C 121.519531 211.304688 121.382812 211.292969 121.304688 211.199219 L 105.125 191.566406 " fill-opacity="1" fill-rule="nonzero"/></g></g></g></g><g clip-path="url(#cabab8baa9)"><g clip-path="url(#cd66816351)"><g clip-path="url(#dba3e471d1)"><g clip-path="url(#c1c686aa91)"><path stroke-linecap="round" transform="matrix(0.0240714, 0.00523292, 0.00521475, -0.0239878, 56.167419, 242.204442)" fill="none" stroke-linejoin="round" d="M 1505.386656 2439.386011 C 1501.479108 2442.441814 1500.886239 2448.174826 1503.965117 2451.940495 L 1687.141545 2683.566334 C 1690.031784 2687.453695 1695.744889 2688.04863 1699.652437 2684.992826 L 2510.778601 2043.490458 C 2514.531194 2040.400851 2515.245332 2034.857137 2512.20014 2030.935974 L 2329.178666 1799.343938 C 2325.944833 1795.544466 2320.420368 1794.827839 2316.51282 1797.883643 Z M 1505.386656 2439.386011 " stroke="#24578f" stroke-width="30" stroke-opacity="1" stroke-miterlimit="10"/></g></g></g></g><g clip-path="url(#1a75f505d6)"><g clip-path="url(#cb32306753)"><g clip-path="url(#91e5ef43b3)"><g clip-path="url(#e2a50aa0cf)"><path fill="#72c3ee" d="M 108.1875 193.605469 C 108.128906 193.539062 108.140625 193.4375 108.207031 193.382812 L 112.269531 190.058594 C 112.335938 190 112.4375 190.011719 112.496094 190.078125 L 124.203125 204.285156 C 124.253906 204.351562 124.246094 204.449219 124.179688 204.507812 L 120.117188 207.832031 C 120.046875 207.886719 119.945312 207.878906 119.890625 207.808594 L 108.1875 193.605469 " fill-opacity="1" fill-rule="nonzero"/></g></g></g></g><g clip-path="url(#a4dda11685)"><g clip-path="url(#21c54c005a)"><g clip-path="url(#8e923b5bf9)"><g clip-path="url(#983b072755)"><path stroke-linecap="round" transform="matrix(0.0240714, 0.00523292, 0.00521475, -0.0239878, 56.167419, 242.204442)" fill="none" stroke-linejoin="round" d="M 1644.45495 2384.719582 C 1641.557974 2386.85594 1641.147008 2391.000204 1643.309634 2393.751779 L 1775.79573 2561.23279 C 1777.92467 2564.139859 1782.054544 2564.552258 1784.951519 2562.4159 L 2371.865262 2098.190691 C 2374.452328 2095.986726 2374.984563 2092.031759 2372.855623 2089.12469 L 2240.369527 1921.643679 C 2238.051947 1918.858301 2233.955758 1918.290408 2231.180052 1920.616064 Z M 1644.45495 2384.719582 " stroke="#24578f" stroke-width="30" stroke-opacity="1" stroke-miterlimit="10"/></g></g></g></g><g clip-path="url(#8b3d26a4cb)"><g clip-path="url(#19335807e2)"><g clip-path="url(#14ab8606e5)"><g clip-path="url(#47774f2eed)"><path fill="#b1b7bc" d="M 123.546875 210.289062 L 125.929688 208.339844 L 136.136719 220.726562 L 133.753906 222.679688 L 123.546875 210.289062 " fill-opacity="1" fill-rule="nonzero"/></g></g></g></g><g clip-path="url(#d9abc6ff33)"><g clip-path="url(#3de9db0f19)"><g clip-path="url(#7566b408f5)"><g clip-path="url(#d9be785149)"><path stroke-linecap="round" transform="matrix(0.0240714, 0.00523292, 0.00521475, -0.0239878, 56.167419, 242.204442)" fill="none" stroke-linejoin="round" d="M 2397.60792 1853.516841 L 2475.320969 1951.728469 L 2987.034619 1546.983256 L 2909.355256 1448.616134 Z M 2397.60792 1853.516841 " stroke="#24578f" stroke-width="30" stroke-opacity="1" stroke-miterlimit="10"/></g></g></g></g><g clip-path="url(#e4ecadef42)"><g clip-path="url(#a45c5f0278)"><g clip-path="url(#cdc6ccb503)"><g clip-path="url(#7f46957aed)"><path fill="#b1b7bc" d="M 132.109375 224.308594 C 132.03125 224.21875 132.042969 224.078125 132.140625 224 L 137.753906 219.40625 C 137.847656 219.328125 137.988281 219.339844 138.066406 219.433594 L 139.277344 220.90625 C 139.355469 221 139.339844 221.140625 139.25 221.214844 L 133.632812 225.8125 C 133.539062 225.890625 133.398438 225.875 133.320312 225.78125 L 132.109375 224.308594 " fill-opacity="1" fill-rule="nonzero"/></g></g></g></g><g clip-path="url(#2ce6ae140d)"><g clip-path="url(#27ec78cd02)"><g clip-path="url(#41d80af0e8)"><g clip-path="url(#8bbd0e7876)"><path stroke-linecap="round" transform="matrix(0.0240714, 0.00523292, 0.00521475, -0.0239878, 56.167419, 242.204442)" fill="none" stroke-linejoin="round" d="M 2858.166374 1369.543841 C 2854.292512 1372.44415 2853.544688 1378.143359 2856.744835 1382.098326 L 3039.799995 1613.534867 C 3042.845187 1617.456031 3048.524607 1618.20646 3052.432155 1615.150657 L 3113.167581 1567.008232 C 3117.075129 1563.952429 3117.667999 1558.219417 3114.744075 1554.487551 L 2931.567646 1322.861712 C 2928.522454 1318.940549 2922.809349 1318.345614 2918.9018 1321.401417 Z M 2858.166374 1369.543841 " stroke="#24578f" stroke-width="30" stroke-opacity="1" stroke-miterlimit="10"/></g></g></g></g><g clip-path="url(#529397bc12)"><g clip-path="url(#37afc8f541)"><g clip-path="url(#ed2173a5a0)"><g clip-path="url(#f92c7b9650)"><path fill="#b1b7bc" d="M 118.699219 212.621094 C 118.621094 212.523438 118.632812 212.386719 118.730469 212.308594 L 128.855469 204.023438 C 128.949219 203.945312 129.085938 203.960938 129.164062 204.050781 L 130.148438 205.242188 C 130.222656 205.335938 130.210938 205.476562 130.117188 205.554688 L 119.988281 213.839844 C 119.898438 213.917969 119.753906 213.90625 119.679688 213.808594 L 118.699219 212.621094 " fill-opacity="1" fill-rule="nonzero"/></g></g></g></g><g clip-path="url(#2f598167fa)"><g clip-path="url(#4016797317)"><g clip-path="url(#24af96ca61)"><g clip-path="url(#bfd3cb0770)"><path stroke-linecap="round" transform="matrix(0.0240714, 0.00523292, 0.00521475, -0.0239878, 56.167419, 242.204442)" fill="none" stroke-linejoin="round" d="M 2225.419787 1718.736983 C 2221.478553 1721.948281 2220.764414 1727.491995 2223.964562 1731.446962 L 2554.159123 2148.86835 C 2557.204316 2152.789513 2562.762466 2153.350646 2566.636329 2150.450337 L 2615.959019 2111.542929 C 2619.711613 2108.453322 2620.459437 2102.754114 2617.414244 2098.83295 L 2287.064728 1681.377759 C 2284.17449 1677.490398 2278.340116 1676.706166 2274.553837 1679.951267 Z M 2225.419787 1718.736983 " stroke="#24578f" stroke-width="30" stroke-opacity="1" stroke-miterlimit="10"/></g></g></g></g><g clip-path="url(#3c0dad1eee)"><g clip-path="url(#567ca89b6a)"><g clip-path="url(#cb50bac5b4)"><g clip-path="url(#06a835ba29)"><path stroke-linecap="round" transform="matrix(0.0240714, 0.00523292, 0.00521475, -0.0239878, 56.167419, 242.204442)" fill-opacity="1" fill="#b1b7bc" fill-rule="nonzero" stroke-linejoin="round" d="M 1326.508531 2780.439358 L 1172.167113 2902.610647 " stroke="#24578f" stroke-width="30" stroke-opacity="1" stroke-miterlimit="10"/></g></g></g></g><g clip-path="url(#2ca4194955)"><g clip-path="url(#0b4aab6d6d)"><g clip-path="url(#9b25a0b497)"><g clip-path="url(#2362eb4dac)"><path stroke-linecap="round" transform="matrix(0.0240714, 0.00523292, 0.00521475, -0.0239878, 56.167419, 242.204442)" fill-opacity="1" fill="#b1b7bc" fill-rule="nonzero" stroke-linejoin="round" d="M 2184.114307 2076.448515 L 2121.175832 1996.930021 " stroke="#24578f" stroke-width="30" stroke-opacity="1" stroke-miterlimit="10"/></g></g></g></g><g clip-path="url(#4ac1a5777b)"><g clip-path="url(#119a282a7b)"><g clip-path="url(#49eadac8f0)"><g clip-path="url(#1efeee1ef9)"><path fill="#b1b7bc" d="M 116.632812 200.253906 L 114.699219 201.835938 " fill-opacity="1" fill-rule="nonzero"/></g></g></g></g><g clip-path="url(#478307e872)"><g clip-path="url(#d82c392c6f)"><g clip-path="url(#7a65ac50f1)"><g clip-path="url(#3b964e8bcf)"><path stroke-linecap="round" transform="matrix(0.0240714, 0.00523292, 0.00521475, -0.0239878, 56.167419, 242.204442)" fill="none" stroke-linejoin="round" d="M 2036.799739 2193.150457 L 1973.739996 2113.442665 " stroke="#24578f" stroke-width="30" stroke-opacity="1" stroke-miterlimit="10"/></g></g></g></g><g clip-path="url(#5da846409f)"><g clip-path="url(#ba816a58cc)"><g clip-path="url(#88d71e3b9a)"><g clip-path="url(#9083a179c9)"><path fill="#b1b7bc" d="M 113.691406 196.6875 L 111.761719 198.265625 " fill-opacity="1" fill-rule="nonzero"/></g></g></g></g><g clip-path="url(#119064b43b)"><g clip-path="url(#a2ae49b380)"><g clip-path="url(#d9b26c1a36)"><g clip-path="url(#66f34930aa)"><path stroke-linecap="round" transform="matrix(0.0240714, 0.00523292, 0.00521475, -0.0239878, 56.167419, 242.204442)" fill="none" stroke-linejoin="round" d="M 1889.363903 2309.663101 L 1826.425428 2230.144607 " stroke="#24578f" stroke-width="30" stroke-opacity="1" stroke-miterlimit="10"/></g></g></g></g><g clip-path="url(#19814ab9a7)"><g clip-path="url(#cd10163510)"><g clip-path="url(#ee11e48d77)"><g clip-path="url(#ea0e0956ab)"><path stroke-linecap="round" transform="matrix(0.0240714, 0.00523292, 0.00521475, -0.0239878, 56.167419, 242.204442)" fill="none" stroke-linejoin="round" d="M 1369.228812 2764.518081 L 1556.804601 2609.537469 " stroke="#ffffff" stroke-width="30" stroke-opacity="1" stroke-miterlimit="10"/></g></g></g></g><g clip-path="url(#67e1b36b16)"><g clip-path="url(#3bbe09a37a)"><g clip-path="url(#5f6c77bf13)"><g clip-path="url(#ed0ba623d6)"><path stroke-linecap="round" transform="matrix(0.0240714, 0.00523292, 0.00521475, -0.0239878, 56.167419, 242.204442)" fill="none" stroke-linejoin="round" d="M 1776.866937 2479.882166 L 2286.754819 2089.55737 " stroke="#ffffff" stroke-width="30" stroke-opacity="1" stroke-miterlimit="10"/></g></g></g></g><g clip-path="url(#7a3adc6905)"><g clip-path="url(#6847e02e80)"><g clip-path="url(#bc3156ef47)"><g clip-path="url(#1359d3ddfd)"><path stroke-linecap="round" transform="matrix(0.0240714, 0.00523292, 0.00521475, -0.0239878, 56.167419, 242.204442)" fill="none" stroke-linejoin="round" d="M 2486.794339 1869.553048 L 2916.77286 1524.49065 " stroke="#ffffff" stroke-width="30" stroke-opacity="1" stroke-miterlimit="10"/></g></g></g></g><g clip-path="url(#0011758575)"><g clip-path="url(#fcec69a1c3)"><g clip-path="url(#4e055e5632)"><g clip-path="url(#14e142344c)"><path stroke-linecap="round" transform="matrix(0.0240714, 0.00523292, 0.00521475, -0.0239878, 56.167419, 242.204442)" fill="none" stroke-linejoin="round" d="M 3052.795961 1567.028514 L 3070.110442 1554.521355 L 2949.838803 1406.314891 " stroke="#ffffff" stroke-width="30" stroke-opacity="1" stroke-miterlimit="10"/></g></g></g></g></svg>