<svg width="325" height="391" viewBox="0 0 325 391" fill="none" xmlns="http://www.w3.org/2000/svg">
<g filter="url(#filter0_i_73_3113)">
<g clip-path="url(#clip0_73_3113)">
<path d="M210.964 268.904C210.869 271.186 210.704 273.443 210.497 275.648C209.563 285.331 207.592 294.029 204.834 300.098C204.73 300.314 204.635 300.53 204.531 300.746C200.615 308.934 186.435 316.162 169.645 319.396C163.221 320.632 156.417 321.289 149.665 321.194C135.598 320.995 121.73 317.528 111.917 309.28C108.554 306.453 105.666 303.055 103.41 299.043C98.7149 290.691 96.5361 281.622 95.9655 272.613C95.8099 270.244 95.7753 267.875 95.8272 265.532C96.4497 238.246 109.807 213.449 109.807 213.449C110.231 209.395 176.795 195.086 195.782 212.17C207.739 222.917 211.915 247.307 210.964 268.904Z" fill="#F6F6F6"/>
<path d="M210.964 268.899C210.869 271.182 210.704 273.438 210.497 275.643C207.41 276.162 204.315 276.611 201.203 277.018C196.067 277.692 190.897 278.202 185.727 278.583C180.539 278.963 175.352 279.222 170.155 279.378C164.959 279.534 159.754 279.594 154.558 279.594C149.267 279.585 143.976 279.542 138.685 279.387C133.324 279.231 127.955 278.937 122.612 278.375C117.243 277.804 111.882 277 106.617 275.764C103.012 274.917 99.4498 273.879 95.9655 272.608C95.8099 270.239 95.7753 267.87 95.8272 265.527C96.9771 265.977 98.1443 266.409 99.3201 266.807C105.727 269.003 112.367 270.43 119.067 271.355C119.569 271.415 120.061 271.476 120.554 271.536C126.096 272.202 131.673 272.548 137.249 272.738C142.731 272.92 148.221 272.98 153.702 272.989C159.115 272.997 164.518 272.945 169.922 272.781C175.3 272.626 180.669 272.358 186.038 271.96C191.234 271.571 196.421 271.043 201.592 270.36C203.935 270.049 206.278 269.695 208.612 269.306C209.399 269.167 210.186 269.038 210.964 268.899Z" fill="#54A3E6"/>
<mask id="mask0_73_3113" style="mask-type:luminance" maskUnits="userSpaceOnUse" x="168" y="298" width="63" height="70">
<path d="M168.277 298.804H230.251V367.591H168.277V298.804Z" fill="white"/>
</mask>
<g mask="url(#mask0_73_3113)">
<path d="M226.849 363.921C223.01 369.187 177.36 368.045 172.951 365.063C168.541 362.071 170.53 359.365 170.962 348.834C171.057 346.301 171.014 342.964 170.884 339.324C170.806 337.188 170.694 334.949 170.573 332.71C170.296 327.894 169.95 323.096 169.639 319.387C169.328 315.608 169.06 312.954 168.965 312.548L169.821 311.986C170.201 307.136 197.453 297.936 204.828 300.089C205.675 300.34 206.263 300.738 206.514 301.308C208.027 304.775 207.759 318.807 207.344 328.845C207.24 331.56 207.119 333.981 207.015 335.822C206.894 338.062 206.799 339.445 206.799 339.445C206.799 339.445 213.206 338.304 219.457 341.295C225.716 344.287 230.696 358.656 226.857 363.921H226.849Z" fill="#F6F6F6"/>
</g>
<path d="M148.649 336.627C148.467 340.967 148.381 345.022 148.502 347.987C148.925 358.509 150.922 361.216 146.513 364.207C142.104 367.19 96.445 368.331 92.6063 363.066C88.7675 357.8 93.7475 343.431 99.9984 340.44C106.258 337.457 112.656 338.589 112.656 338.589C112.656 338.589 112.526 336.506 112.362 333.307C112.258 331.327 112.146 328.906 112.042 326.295C111.843 320.796 111.696 314.407 111.861 309.271C111.99 305.199 112.31 301.905 112.941 300.453C115.362 294.902 149.211 305.718 149.643 311.13L150.49 311.701C150.386 312.185 150.006 316.032 149.608 321.185C149.401 323.866 149.185 326.9 148.994 329.995C148.865 332.209 148.744 334.457 148.649 336.627Z" fill="#F6F6F6"/>
<path d="M237.498 285.061C237.498 285.061 245.824 305.975 225.022 305.871C204.22 305.759 191.096 290.395 193.448 279.294C195.791 268.193 219.013 256.244 218.581 256.348C218.374 256.4 216.273 253.625 212.685 250.426C211.518 249.379 210.177 248.29 208.699 247.235C205.656 245.065 201.99 243.051 197.823 241.944C185.442 238.633 188.537 218.462 191.312 216.966C191.606 216.811 199.742 207.897 223.31 219.422C227.27 221.358 230.858 223.347 234.1 225.387C235.786 226.442 237.377 227.505 238.873 228.586C251.652 237.759 257.634 247.495 257.877 255.924C258.196 267.233 243.369 282.813 237.498 285.061Z" fill="#F6F6F6"/>
<path d="M223.637 273.071C224.986 273.52 226.162 274.445 227.268 275.318C228.41 276.209 229.499 277.16 230.545 278.163C232.629 280.169 234.505 282.382 236.13 284.768C236.571 285.417 237.635 284.803 237.185 284.155C234.522 280.238 231.237 276.78 227.45 273.927C226.369 273.114 225.262 272.318 223.966 271.895C223.213 271.644 222.894 272.828 223.637 273.071Z" fill="#160E0B"/>
<path d="M221.323 255.919C222.646 255.599 223.735 254.743 224.92 254.129C226.078 253.533 227.306 253.083 228.568 252.772C229.831 252.461 231.119 252.305 232.416 252.288C233.073 252.279 233.721 252.314 234.37 252.383C234.759 252.417 235.701 252.409 235.935 252.789C236.358 253.446 237.422 252.841 236.998 252.175C236.618 251.587 236.012 251.389 235.364 251.285C234.664 251.181 233.963 251.103 233.254 251.077C231.802 251.025 230.349 251.155 228.923 251.44C227.505 251.734 226.122 252.201 224.807 252.824C223.537 253.429 222.378 254.406 220.995 254.743C220.234 254.933 220.562 256.109 221.323 255.919Z" fill="#160E0B"/>
<path d="M209.569 262.057C204.641 264.452 201.399 269.337 199.618 274.377C197.767 279.617 197.361 285.677 199.514 290.891C200.845 294.116 203.154 296.623 205.575 299.078C206.128 299.64 206.993 298.776 206.439 298.214C204.39 296.13 202.341 294.021 201.053 291.366C199.894 288.98 199.358 286.326 199.298 283.689C199.177 278.424 200.837 273.011 203.845 268.697C205.48 266.354 207.606 264.365 210.192 263.112C210.892 262.766 210.278 261.711 209.569 262.057Z" fill="#160E0B"/>
<path d="M89.0496 256.35C88.6259 256.247 111.84 268.195 114.192 279.296C116.535 290.398 103.419 305.761 82.6171 305.874C61.8152 305.977 70.1325 285.063 70.1325 285.063C64.2706 282.815 49.443 267.236 49.7629 255.927C49.9704 248.707 54.3798 240.546 63.6568 232.583C65.213 231.243 66.9162 229.911 68.7578 228.589C73.1326 225.442 78.3028 222.364 84.3203 219.424C107.897 207.899 116.025 216.804 116.327 216.969C119.094 218.464 122.189 238.635 109.817 241.946C106.333 242.872 103.194 244.436 100.479 246.192C98.9318 247.186 97.5225 248.249 96.2688 249.295C91.8768 252.944 89.2917 256.411 89.0496 256.35Z" fill="#F6F6F6"/>
<path d="M83.6345 271.895C82.4932 272.267 81.499 272.924 80.5393 273.633C79.571 274.342 78.6718 275.059 77.7899 275.829C76.0089 277.376 74.3575 279.071 72.8531 280.886C71.9886 281.941 71.1759 283.031 70.4064 284.155C69.9654 284.803 71.0202 285.417 71.4612 284.768C73.0952 282.382 74.9627 280.16 77.0464 278.163C78.0925 277.16 79.1905 276.209 80.3318 275.31C81.4385 274.445 82.6056 273.52 83.963 273.071C84.7066 272.828 84.3867 271.644 83.6345 271.895Z" fill="#160E0B"/>
<path d="M86.6401 254.743C85.2568 254.406 84.1069 253.429 82.836 252.824C81.5218 252.201 80.1385 251.734 78.7205 251.44C77.294 251.155 75.8328 251.025 74.3803 251.077C73.68 251.103 72.9711 251.181 72.2708 251.285C71.6223 251.389 71.0171 251.587 70.6453 252.175C70.2217 252.841 71.2765 253.455 71.7001 252.789C71.9336 252.426 72.8241 252.426 73.1959 252.392C73.8702 252.314 74.5446 252.279 75.219 252.288C76.5245 252.305 77.8127 252.461 79.075 252.772C80.3373 253.083 81.5564 253.533 82.7149 254.129C83.908 254.743 84.9974 255.599 86.3202 255.919C87.0811 256.109 87.4096 254.933 86.6401 254.743Z" fill="#160E0B"/>
<path d="M97.391 263.112C102.06 265.377 105.129 269.985 106.806 274.766C108.561 279.781 108.959 285.504 106.91 290.502C105.665 293.545 103.417 295.905 101.135 298.214C100.581 298.776 101.446 299.64 101.999 299.078C104.143 296.917 106.279 294.695 107.61 291.92C108.829 289.378 109.426 286.577 109.504 283.758C109.642 278.251 107.904 272.536 104.749 268.023C103.002 265.541 100.754 263.388 98.0048 262.057C97.3045 261.711 96.682 262.766 97.391 263.112Z" fill="#160E0B"/>
<path d="M94.3419 264.936C94.4889 264.997 94.6359 265.057 94.7829 265.118C94.5235 265.014 94.2641 264.902 93.9961 264.789C94.1085 264.841 94.2295 264.885 94.3419 264.936Z" fill="#54A3E6"/>
<path d="M165.855 332.198C166.037 332.224 166.227 332.25 166.408 332.276C166.114 332.241 165.829 332.198 165.535 332.155C165.639 332.172 165.743 332.189 165.855 332.198Z" fill="#54A3E6"/>
<path d="M207.349 328.841C207.236 331.556 207.115 333.977 207.02 335.818C199.827 337.807 192.4 339.017 184.956 339.467C180.261 339.744 175.567 339.692 170.889 339.32C170.812 337.185 170.699 334.937 170.578 332.706C170.855 332.723 171.131 332.749 171.408 332.767C178.247 333.277 185.138 333.078 191.933 332.205C193.758 331.954 195.565 331.651 197.372 331.305C200.735 330.648 204.072 329.827 207.349 328.841Z" fill="#54A3E6"/>
<path d="M149.085 330.005C148.955 332.219 148.834 334.467 148.739 336.637C146.353 336.905 143.967 337.086 141.563 337.164C135.771 337.337 129.986 336.905 124.263 336.006C120.269 335.383 116.317 334.484 112.453 333.317C112.349 331.337 112.237 328.916 112.133 326.305C117.13 327.939 122.266 329.124 127.471 329.858C129.07 330.066 130.669 330.23 132.269 330.343C137.871 330.766 143.509 330.654 149.085 330.005Z" fill="#54A3E6"/>
<path d="M150.613 329.813C150.371 329.847 150.129 329.882 149.887 329.916C149.895 329.908 149.904 329.908 149.921 329.908C150.146 329.873 150.38 329.847 150.613 329.813Z" fill="#54A3E6"/>
<path d="M193.475 215.832C193.519 216.671 193.277 217.518 192.74 218.374C192.204 219.23 191.392 220.077 190.294 220.916C189.196 221.754 187.838 222.567 186.222 223.363C184.605 224.149 182.763 224.902 180.688 225.611C178.613 226.328 176.357 226.985 173.901 227.59C171.454 228.196 168.861 228.732 166.129 229.207C163.388 229.683 160.569 230.08 157.656 230.409C154.742 230.737 151.794 230.98 148.82 231.144C145.837 231.317 142.88 231.395 139.949 231.395C137.018 231.395 134.174 231.308 131.398 231.144C128.632 230.971 125.995 230.729 123.487 230.4C120.989 230.072 118.663 229.665 116.527 229.19C114.383 228.714 112.473 228.178 110.778 227.564C109.083 226.959 107.64 226.302 106.455 225.593C105.279 224.876 104.371 224.132 103.74 223.337C103.118 222.55 102.781 221.729 102.737 220.89C102.685 220.051 102.928 219.204 103.464 218.348C104 217.492 104.821 216.645 105.91 215.806C107.008 214.967 108.366 214.155 109.983 213.359C111.599 212.573 113.441 211.82 115.516 211.111C117.591 210.394 119.856 209.737 122.303 209.132C124.758 208.526 127.352 207.99 130.084 207.515C132.816 207.039 135.643 206.642 138.557 206.313C141.471 205.984 144.41 205.742 147.393 205.578C150.367 205.405 153.324 205.327 156.255 205.327C159.186 205.327 162.039 205.414 164.806 205.578C167.581 205.751 170.218 205.993 172.717 206.322C175.224 206.65 177.541 207.057 179.685 207.532C181.821 208.008 183.74 208.544 185.435 209.149C187.129 209.763 188.565 210.42 189.749 211.129C190.933 211.846 191.841 212.59 192.464 213.385C193.095 214.172 193.432 214.993 193.475 215.832Z" fill="#54A3E6"/>
<path d="M237.433 95.0622C237.036 95.1054 235.531 52.3863 235.531 52.3863L245.509 51.2365C245.509 51.2365 253.342 103.302 252.373 103.501C251.396 103.699 237.433 95.0622 237.433 95.0622Z" fill="#F6F6F6"/>
<mask id="mask1_73_3113" style="mask-type:luminance" maskUnits="userSpaceOnUse" x="230" y="35" width="21" height="21">
<path d="M230.227 35.587H250.147V55.3341H230.227V35.587Z" fill="white"/>
</mask>
<g mask="url(#mask1_73_3113)">
<path d="M248.498 44.596C248.498 45.1839 248.438 45.7718 248.325 46.3511C248.213 46.939 248.04 47.501 247.815 48.0457C247.582 48.5904 247.305 49.1091 246.977 49.6019C246.648 50.0947 246.276 50.553 245.861 50.968C245.438 51.383 244.988 51.7634 244.495 52.0919C244.003 52.4205 243.484 52.6971 242.939 52.9219C242.394 53.1467 241.832 53.3196 241.245 53.432C240.665 53.5531 240.086 53.6049 239.489 53.6049C238.902 53.6049 238.314 53.5531 237.734 53.432C237.155 53.3196 236.593 53.1467 236.048 52.9219C235.495 52.6971 234.976 52.4205 234.483 52.0919C233.999 51.7634 233.541 51.383 233.126 50.968C232.702 50.553 232.331 50.0947 232.002 49.6019C231.674 49.1091 231.397 48.5904 231.172 48.0457C230.947 47.501 230.774 46.939 230.653 46.3511C230.541 45.7718 230.48 45.1839 230.48 44.596C230.48 44.0081 230.541 43.4202 230.653 42.8409C230.774 42.2616 230.947 41.691 231.172 41.1463C231.397 40.6016 231.674 40.0829 232.002 39.5901C232.331 39.0972 232.702 38.639 233.126 38.224C233.541 37.809 233.999 37.4286 234.483 37.1001C234.976 36.7715 235.495 36.4948 236.048 36.2701C236.593 36.0453 237.155 35.8723 237.734 35.76C238.314 35.6389 238.902 35.587 239.489 35.587C240.086 35.587 240.665 35.6389 241.245 35.76C241.832 35.8723 242.394 36.0453 242.939 36.2701C243.484 36.4948 244.003 36.7715 244.495 37.1001C244.988 37.4286 245.438 37.809 245.861 38.224C246.276 38.639 246.648 39.0972 246.977 39.5901C247.305 40.0829 247.582 40.6016 247.815 41.1463C248.04 41.691 248.213 42.2616 248.325 42.8409C248.438 43.4202 248.498 44.0081 248.498 44.596Z" fill="#F6F6F6"/>
</g>
<mask id="mask2_73_3113" style="mask-type:luminance" maskUnits="userSpaceOnUse" x="219" y="86" width="46" height="72">
<path d="M219.102 86.3199H264.094V157.147H219.102V86.3199Z" fill="white"/>
</mask>
<g mask="url(#mask2_73_3113)">
<path d="M249.136 155.484L244.995 156.133C235.32 157.637 226.259 151.015 224.755 141.34L219.663 108.641C218.158 98.9666 224.772 89.9058 234.447 88.4014L238.588 87.753C248.254 86.2486 257.315 92.8626 258.819 102.537L263.912 135.236C265.425 144.911 258.802 153.98 249.136 155.484Z" fill="#54A3E6"/>
</g>
<path d="M42.931 123.867C43.3114 123.78 30.455 83.0154 30.455 83.0154L20.668 85.2719C20.668 85.2719 30.6885 136.957 31.6655 136.818C32.6511 136.68 42.931 123.867 42.931 123.867Z" fill="#F6F6F6"/>
<mask id="mask3_73_3113" style="mask-type:luminance" maskUnits="userSpaceOnUse" x="15" y="66" width="19" height="21">
<path d="M15.1016 66.4037H33.1886V86.3237H15.1016V66.4037Z" fill="white"/>
</mask>
<g mask="url(#mask3_73_3113)">
<path d="M33.2054 76.9742C33.2054 77.5707 33.1449 78.15 33.0325 78.7379C32.9201 79.3172 32.7472 79.8792 32.5224 80.4239C32.289 80.9685 32.0123 81.4873 31.6837 81.9801C31.3552 82.4729 30.9834 82.9311 30.5684 83.3461C30.1448 83.7698 29.6952 84.1416 29.2024 84.4701C28.7096 84.7986 28.1908 85.0753 27.6461 85.3001C27.1015 85.5249 26.5308 85.6978 25.9516 85.8189C25.3723 85.9313 24.7844 85.9918 24.1965 85.9918C23.6085 85.9918 23.0206 85.9313 22.4414 85.8189C21.8621 85.6978 21.3001 85.5249 20.7468 85.3001C20.2021 85.0753 19.6833 84.7986 19.1905 84.4701C18.6977 84.1416 18.2481 83.7698 17.8245 83.3461C17.4095 82.9311 17.0377 82.4729 16.7092 81.9801C16.3806 81.4873 16.104 80.9685 15.8792 80.4239C15.6457 79.8792 15.4815 79.3172 15.3604 78.7379C15.248 78.15 15.1875 77.5707 15.1875 76.9742C15.1875 76.3863 15.248 75.7983 15.3604 75.2191C15.4815 74.6398 15.6457 74.0778 15.8792 73.5245C16.104 72.9798 16.3806 72.461 16.7092 71.9682C17.0377 71.4754 17.4095 71.0258 17.8245 70.6022C18.2481 70.1872 18.6977 69.8154 19.1905 69.4869C19.6833 69.1583 20.2021 68.873 20.7468 68.6482C21.3001 68.4234 21.8621 68.2505 22.4414 68.1381C23.0206 68.0257 23.6085 67.9652 24.1965 67.9652C24.7844 67.9652 25.3723 68.0257 25.9516 68.1381C26.5308 68.2505 27.1015 68.4234 27.6461 68.6482C28.1908 68.873 28.7096 69.1583 29.2024 69.4869C29.6952 69.8154 30.1448 70.1872 30.5684 70.6022C30.9834 71.0258 31.3552 71.4754 31.6837 71.9682C32.0123 72.461 32.289 72.9798 32.5224 73.5245C32.7472 74.0778 32.9201 74.6398 33.0325 75.2191C33.1449 75.7983 33.2054 76.3863 33.2054 76.9742Z" fill="#F6F6F6"/>
</g>
<path d="M52.0762 184.726L56.1916 183.948C65.8144 182.132 72.1345 172.864 70.3189 163.241L64.189 130.715C62.382 121.092 53.1137 114.772 43.4995 116.579L39.3754 117.357C29.7613 119.173 23.4325 128.45 25.2482 138.064L31.3781 170.59C33.1937 180.213 42.462 186.541 52.0762 184.726Z" fill="#54A3E6"/>
<mask id="mask4_73_3113" style="mask-type:luminance" maskUnits="userSpaceOnUse" x="42" y="35" width="206" height="193">
<path d="M42.0586 35.587H247.899V227.974H42.0586V35.587Z" fill="white"/>
</mask>
<g mask="url(#mask4_73_3113)">
<path d="M246.298 123.758C254.892 175.14 215.96 215.334 160.514 224.62C105.077 233.897 54.1012 208.746 45.5158 157.364C36.9219 105.982 51.5247 52.4037 129.415 38.553C207.746 24.616 237.713 72.3842 246.298 123.758Z" fill="#F6F6F6"/>
</g>
<path d="M101.548 85.3944C101.548 85.3944 68.0197 92.8731 65.6507 123.229C63.4287 151.838 68.5557 198.715 124.849 204.43C181.133 210.145 221.57 182.928 226.93 145.915C232.29 108.911 215.976 79.1954 194.43 75.1232C164.81 69.5121 101.548 85.3944 101.548 85.3944Z" fill="#160E0B"/>
<path d="M122.689 157.791C123.485 157.506 130.592 161.743 148.67 159.434C166.048 157.212 171.383 150.027 173.388 151.54C176.224 153.667 168.754 176.786 149.154 177.919C129.554 179.052 117.459 159.659 122.689 157.791Z" fill="#54A3E6"/>
<path d="M198.773 122.445C198.886 123.578 198.929 124.71 198.886 125.834C198.843 126.967 198.73 128.065 198.531 129.146C198.332 130.218 198.056 131.255 197.71 132.241C197.355 133.235 196.94 134.152 196.456 135.016C195.972 135.872 195.427 136.659 194.822 137.359C194.217 138.051 193.56 138.656 192.868 139.175C192.168 139.685 191.433 140.091 190.664 140.394C189.903 140.696 189.116 140.895 188.303 140.973C187.499 141.06 186.695 141.034 185.882 140.895C185.061 140.757 184.266 140.515 183.47 140.16C182.684 139.806 181.923 139.348 181.188 138.786C180.453 138.224 179.753 137.575 179.104 136.84C178.447 136.097 177.85 135.275 177.297 134.385C176.752 133.494 176.268 132.535 175.853 131.523C175.438 130.512 175.092 129.457 174.816 128.359C174.539 127.269 174.349 126.154 174.228 125.022C174.107 123.889 174.072 122.765 174.115 121.632C174.15 120.508 174.271 119.41 174.47 118.33C174.669 117.249 174.945 116.22 175.291 115.226C175.637 114.24 176.061 113.315 176.545 112.459C177.029 111.595 177.574 110.816 178.179 110.116C178.784 109.416 179.433 108.811 180.133 108.3C180.833 107.79 181.568 107.384 182.329 107.081C183.099 106.779 183.885 106.58 184.689 106.494C185.493 106.416 186.306 106.442 187.119 106.58C187.932 106.718 188.736 106.96 189.522 107.315C190.318 107.669 191.079 108.128 191.814 108.69C192.548 109.243 193.24 109.891 193.897 110.635C194.554 111.378 195.151 112.191 195.695 113.09C196.24 113.981 196.724 114.932 197.139 115.952C197.563 116.964 197.909 118.018 198.177 119.108C198.454 120.206 198.652 121.312 198.773 122.445Z" fill="#54A3E6"/>
<path d="M117.729 134.133C117.85 135.265 117.885 136.389 117.85 137.522C117.807 138.646 117.686 139.752 117.487 140.825C117.288 141.905 117.02 142.943 116.666 143.928C116.32 144.914 115.905 145.839 115.412 146.704C114.928 147.56 114.383 148.338 113.778 149.038C113.182 149.738 112.524 150.344 111.824 150.854C111.124 151.364 110.398 151.77 109.628 152.081C108.859 152.384 108.072 152.574 107.268 152.661C106.464 152.747 105.651 152.721 104.838 152.583C104.026 152.445 103.222 152.194 102.435 151.839C101.648 151.485 100.878 151.027 100.144 150.473C99.4087 149.911 98.717 149.263 98.06 148.519C97.4115 147.784 96.8063 146.963 96.2616 146.073C95.7169 145.173 95.2328 144.222 94.8178 143.211C94.3941 142.191 94.0483 141.144 93.7803 140.046C93.5036 138.957 93.3047 137.842 93.1923 136.709C93.0713 135.577 93.0367 134.444 93.0713 133.32C93.1145 132.196 93.2356 131.089 93.4344 130.009C93.6333 128.937 93.9013 127.899 94.2558 126.913C94.6016 125.928 95.0166 125.003 95.5094 124.138C95.9936 123.282 96.5383 122.504 97.1435 121.804C97.7401 121.103 98.3971 120.498 99.0975 119.988C99.7978 119.478 100.524 119.063 101.293 118.76C102.063 118.458 102.85 118.268 103.654 118.181C104.458 118.095 105.271 118.121 106.083 118.259C106.896 118.397 107.7 118.648 108.487 119.002C109.274 119.357 110.043 119.815 110.778 120.369C111.513 120.93 112.205 121.579 112.862 122.322C113.51 123.057 114.115 123.879 114.66 124.769C115.205 125.668 115.689 126.619 116.104 127.631C116.527 128.643 116.873 129.697 117.141 130.795C117.418 131.885 117.617 133 117.729 134.133Z" fill="#54A3E6"/>
<path d="M211.312 252.143C211.449 251.973 211.576 251.803 211.712 251.632C211.661 251.692 211.61 251.752 211.568 251.82C211.483 251.93 211.398 252.032 211.312 252.143Z" fill="#54A3E6"/>
<path d="M238.826 228.585C234.771 230.807 230.889 233.348 227.215 236.167C225.987 237.118 224.785 238.104 223.618 239.115C219.633 242.556 215.958 246.343 212.638 250.433C211.462 249.378 210.131 248.288 208.652 247.234C209.958 245.608 211.324 244.026 212.733 242.496C218.033 236.772 224.085 231.723 230.639 227.487C231.763 226.76 232.904 226.06 234.054 225.386C235.74 226.44 237.331 227.504 238.826 228.585Z" fill="#54A3E6"/>
<path d="M100.44 246.186C98.8922 247.18 97.4829 248.243 96.2293 249.29C95.0794 248.278 93.8949 247.301 92.6931 246.35C91.5778 245.503 90.4452 244.681 89.2953 243.886C85.0675 240.998 80.563 238.525 75.8597 236.511C74.7444 236.053 73.6204 235.612 72.4878 235.197C69.5828 234.151 66.6259 233.269 63.6172 232.577C65.1734 231.237 66.8767 229.906 68.7182 228.583C69.7384 228.877 70.75 229.188 71.7616 229.525C78.7215 231.825 85.3874 235.058 91.4568 239.165C94.6125 241.292 97.6126 243.635 100.44 246.186Z" fill="#54A3E6"/>
<mask id="mask5_73_3113" style="mask-type:luminance" maskUnits="userSpaceOnUse" x="183" y="231" width="8" height="9">
<path d="M183.766 231.813H190.406V239.041H183.766V231.813Z" fill="white"/>
</mask>
<g mask="url(#mask5_73_3113)">
<path d="M184.703 238.967V231.834H189.683C189.683 231.834 189.752 235.171 188.473 236.52C187.202 237.86 184.703 238.967 184.703 238.967Z" fill="#1F2B5B"/>
</g>
<mask id="mask6_73_3113" style="mask-type:luminance" maskUnits="userSpaceOnUse" x="176" y="231" width="15" height="15">
<path d="M176.398 231.813H190.379V245.681H176.398V231.813Z" fill="white"/>
</mask>
<g mask="url(#mask6_73_3113)">
<mask id="mask7_73_3113" style="mask-type:luminance" maskUnits="userSpaceOnUse" x="176" y="232" width="14" height="14">
<path d="M189.678 232.102C189.687 232.984 189.583 235.897 188.148 238.742C187.699 239.641 187.111 240.531 186.358 241.344C184.404 243.462 181.309 245.088 176.398 245.088V240.116C180.021 240.116 182.649 239.563 184.569 238.742C185.252 238.448 185.848 238.128 186.358 237.782C189.376 235.733 189.67 232.966 189.678 232.102Z" fill="white"/>
</mask>
<g mask="url(#mask7_73_3113)">
<path d="M176.398 232.102V245.088H189.687V232.102H176.398Z" fill="url(#paint0_linear_73_3113)"/>
</g>
</g>
<mask id="mask8_73_3113" style="mask-type:luminance" maskUnits="userSpaceOnUse" x="183" y="243" width="8" height="9">
<path d="M183.766 243.462H190.406V251.727H183.766V243.462Z" fill="white"/>
</mask>
<g mask="url(#mask8_73_3113)">
<path d="M189.684 244.585V251.709H184.704C184.704 251.709 184.635 248.372 185.906 247.032C187.185 245.683 189.684 244.585 189.684 244.585Z" fill="#1F2B5B"/>
</g>
<mask id="mask9_73_3113" style="mask-type:luminance" maskUnits="userSpaceOnUse" x="183" y="236" width="16" height="16">
<path d="M183.766 236.83H198.005V251.735H183.766V236.83Z" fill="white"/>
</mask>
<g mask="url(#mask9_73_3113)">
<mask id="mask10_73_3113" style="mask-type:luminance" maskUnits="userSpaceOnUse" x="184" y="238" width="14" height="14">
<path d="M184.704 251.442C184.695 250.561 184.799 247.647 186.234 244.802C186.683 243.912 187.271 243.021 188.024 242.209C189.978 240.091 193.073 238.465 197.984 238.465V243.428C194.361 243.428 191.733 243.981 189.813 244.802C189.13 245.096 188.534 245.425 188.024 245.771C185.006 247.811 184.712 250.587 184.704 251.442Z" fill="white"/>
</mask>
<g mask="url(#mask10_73_3113)">
<path d="M197.992 251.442V238.465H184.703V251.442H197.992Z" fill="url(#paint1_linear_73_3113)"/>
</g>
</g>
<path d="M8.61917 228.04C8.40303 227.876 8.36845 227.573 8.53272 227.366L12.4666 222.403C12.6308 222.196 12.9421 222.153 13.1582 222.325L29.7323 235.389C29.9484 235.562 29.983 235.865 29.8101 236.081L25.8763 241.035C25.712 241.243 25.4007 241.277 25.1932 241.113L8.61917 228.04Z" fill="#B1B7BC"/>
<path d="M8.61917 228.049C8.40303 227.885 8.36845 227.583 8.53272 227.375L12.4666 222.412C12.6308 222.205 12.9421 222.162 13.1582 222.335L29.7323 235.398C29.9485 235.571 29.9831 235.874 29.8101 236.09L25.8763 241.044C25.712 241.252 25.4008 241.286 25.1933 241.122L8.61917 228.049Z" stroke="#24578F" stroke-width="0.983634" stroke-miterlimit="10" stroke-linecap="round" stroke-linejoin="round"/>
<path d="M20.2483 243.426C20.0322 243.253 20.0062 242.95 20.1619 242.734L30.1565 230.154C30.3207 229.947 30.6233 229.912 30.8395 230.077L75.0629 264.928C75.2704 265.101 75.3136 265.403 75.1407 265.62L65.1548 278.191C64.9905 278.407 64.6879 278.441 64.4718 278.277L20.2483 243.426Z" fill="#B1B7BC"/>
<path d="M20.2483 243.432C20.0322 243.259 20.0062 242.956 20.1619 242.74L30.1565 230.16C30.3208 229.953 30.6234 229.918 30.8395 230.082L75.063 264.934C75.2705 265.107 75.3138 265.409 75.1408 265.625L65.1549 278.196C64.9906 278.413 64.688 278.447 64.4719 278.283L20.2483 243.432Z" stroke="#24578F" stroke-width="0.983634" stroke-miterlimit="10" stroke-linecap="round" stroke-linejoin="round"/>
<path d="M27.9022 246.394C27.7465 246.272 27.7206 246.056 27.8416 245.901L35.0609 236.797C35.182 236.65 35.4067 236.624 35.5624 236.745L67.5606 261.965C67.7076 262.086 67.7335 262.302 67.6125 262.457L60.3846 271.562C60.2722 271.709 60.0474 271.734 59.8917 271.613L27.9022 246.394Z" fill="#72C3EE"/>
<path d="M27.9022 246.394C27.7465 246.273 27.7206 246.056 27.8416 245.901L35.0609 236.797C35.182 236.65 35.4068 236.624 35.5624 236.745L67.5607 261.965C67.7077 262.086 67.7336 262.302 67.6126 262.458L60.3846 271.562C60.2722 271.709 60.0474 271.735 59.8918 271.614L27.9022 246.394Z" stroke="#24578F" stroke-width="0.983634" stroke-miterlimit="10" stroke-linecap="round" stroke-linejoin="round"/>
<path d="M68.9258 275.257L73.1622 269.914L101.071 291.909L96.8345 297.243L68.9258 275.257Z" fill="#B1B7BC"/>
<path d="M68.9258 275.256L73.1623 269.913L101.071 291.908L96.8346 297.242L68.9258 275.256Z" stroke="#24578F" stroke-width="0.983634" stroke-miterlimit="10" stroke-linecap="round" stroke-linejoin="round"/>
<mask id="mask11_73_3113" style="mask-type:luminance" maskUnits="userSpaceOnUse" x="92" y="287" width="17" height="19">
<path d="M92.9727 287.735H108.466V305.251H92.9727V287.735Z" fill="white"/>
</mask>
<g mask="url(#mask11_73_3113)">
<path d="M94.0939 301.556C93.8864 301.392 93.8519 301.081 94.0248 300.873L104.002 288.294C104.175 288.086 104.478 288.043 104.694 288.216L108.005 290.827C108.221 290.991 108.247 291.303 108.092 291.51L98.097 304.09C97.9327 304.297 97.6214 304.34 97.4139 304.168L94.0939 301.556Z" fill="#B1B7BC"/>
</g>
<mask id="mask12_73_3113" style="mask-type:luminance" maskUnits="userSpaceOnUse" x="92" y="285" width="18" height="21">
<path d="M92.9727 285.52H109.063V305.25H92.9727V285.52Z" fill="white"/>
</mask>
<g mask="url(#mask12_73_3113)">
<path d="M94.094 301.552C93.8865 301.387 93.8519 301.076 94.0248 300.869L104.002 288.289C104.175 288.081 104.478 288.038 104.694 288.211L108.005 290.822C108.221 290.986 108.247 291.298 108.092 291.505L98.097 304.085C97.9327 304.292 97.6214 304.336 97.4139 304.163L94.094 301.552Z" stroke="#24578F" stroke-width="0.983634" stroke-miterlimit="10" stroke-linecap="round" stroke-linejoin="round"/>
</g>
<path d="M59.5289 282.575C59.3214 282.411 59.2782 282.1 59.4511 281.892L77.4517 259.206C77.6246 258.998 77.9272 258.964 78.1434 259.128L80.8236 261.238C81.0397 261.41 81.0657 261.713 80.9014 261.921L62.9008 284.607C62.7365 284.823 62.4253 284.858 62.2178 284.685L59.5289 282.575Z" fill="#B1B7BC"/>
<path d="M59.5289 282.573C59.3214 282.408 59.2782 282.097 59.4511 281.89L77.4518 259.203C77.6247 258.996 77.9273 258.961 78.1434 259.125L80.8236 261.235C81.0398 261.408 81.0657 261.71 80.9014 261.918L62.9008 284.605C62.7365 284.821 62.4253 284.855 62.2178 284.682L59.5289 282.573Z" stroke="#24578F" stroke-width="0.983634" stroke-miterlimit="10" stroke-linecap="round" stroke-linejoin="round"/>
<mask id="mask13_73_3113" style="mask-type:luminance" maskUnits="userSpaceOnUse" x="1" y="217" width="11" height="9">
<path d="M1.14844 217.265H11.0652V225.755H1.14844V217.265Z" fill="white"/>
</mask>
<g mask="url(#mask13_73_3113)">
<path d="M10.5226 224.891L2.10156 218.26L10.5226 224.891Z" fill="#B1B7BC"/>
</g>
<mask id="mask14_73_3113" style="mask-type:luminance" maskUnits="userSpaceOnUse" x="1" y="217" width="13" height="9">
<path d="M1.14844 217.265H13.2785V225.755H1.14844V217.265Z" fill="white"/>
</mask>
<g mask="url(#mask14_73_3113)">
<path d="M10.5226 224.892L2.10156 218.261" stroke="#24578F" stroke-width="0.983634" stroke-miterlimit="10" stroke-linecap="round" stroke-linejoin="round"/>
</g>
<path d="M57.2957 263.141L53.8633 267.464L57.2957 263.141Z" fill="#B1B7BC"/>
<path d="M57.2957 263.141L53.8633 267.464" stroke="#24578F" stroke-width="0.983634" stroke-miterlimit="10" stroke-linecap="round" stroke-linejoin="round"/>
<path d="M49.2527 256.8L45.8203 261.131L49.2527 256.8Z" fill="#B1B7BC"/>
<path d="M49.2527 256.8L45.8203 261.131" stroke="#24578F" stroke-width="0.983634" stroke-miterlimit="10" stroke-linecap="round" stroke-linejoin="round"/>
<path d="M41.2019 250.477L37.7695 254.8L41.2019 250.477Z" fill="#B1B7BC"/>
<path d="M41.2019 250.477L37.7695 254.8" stroke="#24578F" stroke-width="0.983634" stroke-miterlimit="10" stroke-linecap="round" stroke-linejoin="round"/>
<path d="M12.8789 225.757L23.0983 234.187" stroke="white" stroke-width="0.983634" stroke-miterlimit="10" stroke-linecap="round" stroke-linejoin="round"/>
<path d="M35.0469 241.228L62.8606 262.437" stroke="white" stroke-width="0.983634" stroke-miterlimit="10" stroke-linecap="round" stroke-linejoin="round"/>
<path d="M73.8047 274.39L97.2522 293.134" stroke="white" stroke-width="0.983634" stroke-miterlimit="10" stroke-linecap="round" stroke-linejoin="round"/>
<path d="M104.662 290.82L105.604 291.503L99.0508 299.544" stroke="white" stroke-width="0.983634" stroke-miterlimit="10" stroke-linecap="round" stroke-linejoin="round"/>
<mask id="mask15_73_3113" style="mask-type:luminance" maskUnits="userSpaceOnUse" x="90" y="0" width="81" height="34">
<path d="M90.7422 0H170.422V33.2H90.7422V0Z" fill="white"/>
</mask>
<g mask="url(#mask15_73_3113)">
<mask id="mask16_73_3113" style="mask-type:luminance" maskUnits="userSpaceOnUse" x="77" y="-4" width="111" height="79">
<path d="M77.1367 14.3236L176.815 -3.48682L187.622 56.9821L87.9354 74.7926L77.1367 14.3236Z" fill="white"/>
</mask>
<g mask="url(#mask16_73_3113)">
<mask id="mask17_73_3113" style="mask-type:luminance" maskUnits="userSpaceOnUse" x="77" y="-4" width="111" height="79">
<path d="M77.1367 14.3236L176.815 -3.48682L187.622 56.9821L87.9354 74.7926L77.1367 14.3236Z" fill="white"/>
</mask>
<g mask="url(#mask17_73_3113)">
<path d="M168.58 16.9586C168.71 17.6935 168.796 18.4284 168.839 19.1633C166.764 18.1604 164.594 17.3736 162.363 16.8289C151.176 14.0709 139.893 13.6818 128.826 15.6617C117.751 17.633 107.298 21.9127 97.7618 28.3711C95.8511 29.6593 94.096 31.1464 92.4965 32.7978C92.2804 32.0974 92.1075 31.3798 91.9778 30.6363C90.1621 20.4947 96.9405 10.7682 107.082 8.96119L146.896 1.84567C157.038 0.0300473 166.764 6.80838 168.58 16.9586Z" fill="#002D75"/>
</g>
</g>
</g>
<mask id="mask18_73_3113" style="mask-type:luminance" maskUnits="userSpaceOnUse" x="90" y="15" width="81" height="34">
<path d="M90.7422 15.4987H170.422V48.6987H90.7422V15.4987Z" fill="white"/>
</mask>
<g mask="url(#mask18_73_3113)">
<mask id="mask19_73_3113" style="mask-type:luminance" maskUnits="userSpaceOnUse" x="77" y="-4" width="111" height="79">
<path d="M77.1367 14.3235L176.815 -3.48694L187.622 56.982L87.9354 74.7924L77.1367 14.3235Z" fill="white"/>
</mask>
<g mask="url(#mask19_73_3113)">
<mask id="mask20_73_3113" style="mask-type:luminance" maskUnits="userSpaceOnUse" x="77" y="-4" width="111" height="79">
<path d="M77.1367 14.3235L176.815 -3.48694L187.622 56.982L87.9354 74.7924L77.1367 14.3235Z" fill="white"/>
</mask>
<g mask="url(#mask20_73_3113)">
<path d="M168.747 22.2602C166.611 21.1276 164.251 20.2025 161.675 19.5714C150.876 16.9085 139.982 16.528 129.305 18.4388C118.627 20.3495 108.537 24.4736 99.3208 30.7072C97.1247 32.1943 95.2399 33.8802 93.6232 35.6786C93.2773 36.059 92.9488 36.448 92.6289 36.8371C96.6233 44.3158 105.105 48.7165 113.889 47.1516L129.771 44.3158L129.391 42.2235L124.359 43.1226C122.319 43.4858 120.339 41.9727 119.941 39.7508C119.543 37.5288 120.883 35.4278 122.924 35.0647L127.956 34.1655L127.057 29.1337C126.693 27.0933 128.198 25.1047 130.42 24.7157C132.65 24.3179 134.751 25.6494 135.115 27.6898L136.014 32.7217L141.046 31.8225C143.086 31.4594 145.066 32.9638 145.464 35.1944C145.861 37.4164 144.53 39.5173 142.481 39.8804L137.449 40.7796L137.829 42.8719L153.703 40.0361C162.496 38.4625 168.92 31.3989 170.078 22.9951C169.646 22.7444 169.196 22.4937 168.747 22.2602Z" fill="#002D75"/>
</g>
</g>
</g>
<mask id="mask21_73_3113" style="mask-type:luminance" maskUnits="userSpaceOnUse" x="90" y="22" width="83" height="29">
<path d="M90.7422 22.1418H172.636V50.9152H90.7422V22.1418Z" fill="white"/>
</mask>
<g mask="url(#mask21_73_3113)">
<mask id="mask22_73_3113" style="mask-type:luminance" maskUnits="userSpaceOnUse" x="77" y="-4" width="111" height="79">
<path d="M77.1367 14.3236L176.815 -3.48682L187.622 56.9821L87.9354 74.7926L77.1367 14.3236Z" fill="white"/>
</mask>
<g mask="url(#mask22_73_3113)">
<mask id="mask23_73_3113" style="mask-type:luminance" maskUnits="userSpaceOnUse" x="77" y="-4" width="111" height="79">
<path d="M77.1367 14.3236L176.815 -3.48682L187.622 56.9821L87.9354 74.7926L77.1367 14.3236Z" fill="white"/>
</mask>
<g mask="url(#mask23_73_3113)">
<path d="M170.157 22.9839C169.724 22.7332 169.275 22.4825 168.825 22.249C167.952 30.2896 161.882 37.1458 153.531 38.6415L137.657 41.4774L138.15 44.244L154.023 41.4082C163.197 39.7741 169.984 32.503 171.445 23.8053C171.03 23.52 170.597 23.2519 170.157 22.9839ZM113.717 45.7484C105.365 47.2441 97.2981 42.9126 93.7015 35.6674C93.3556 36.0478 93.0271 36.4368 92.7072 36.8259C92.3786 37.2236 92.076 37.63 91.7734 38.0363C96.1655 45.6965 105.045 50.1664 114.218 48.5237L130.092 45.6879L129.599 42.9126L113.725 45.757L113.717 45.7484Z" fill="white"/>
</g>
</g>
</g>
<mask id="mask24_73_3113" style="mask-type:luminance" maskUnits="userSpaceOnUse" x="84" y="15" width="102" height="59">
<path d="M84.1641 15.4987H185.977V73.0453H84.1641V15.4987Z" fill="white"/>
</mask>
<g mask="url(#mask24_73_3113)">
<mask id="mask25_73_3113" style="mask-type:luminance" maskUnits="userSpaceOnUse" x="77" y="-4" width="111" height="79">
<path d="M77.1367 14.3235L176.815 -3.48694L187.622 56.982L87.9354 74.7924L77.1367 14.3235Z" fill="white"/>
</mask>
<g mask="url(#mask25_73_3113)">
<mask id="mask26_73_3113" style="mask-type:luminance" maskUnits="userSpaceOnUse" x="77" y="-4" width="111" height="79">
<path d="M77.1367 14.3235L176.815 -3.48694L187.622 56.982L87.9354 74.7924L77.1367 14.3235Z" fill="white"/>
</mask>
<g mask="url(#mask26_73_3113)">
<path d="M182.616 36.7334C180.688 32.3931 176.945 27.4391 171.437 23.8165C171.022 23.5312 170.59 23.2631 170.149 23.0038C169.717 22.7444 169.267 22.4937 168.817 22.2602C166.682 21.1276 164.322 20.2025 161.745 19.5714C150.947 16.9085 140.053 16.528 129.375 18.4388C118.698 20.3495 108.608 24.4736 99.3914 30.7072C97.1954 32.1943 95.3106 33.8802 93.6938 35.6786C93.348 36.059 93.0194 36.448 92.6995 36.8371C92.371 37.2348 92.0684 37.6412 91.7658 38.0475C87.8665 43.3561 86.0682 49.3044 85.7569 54.0337C85.3765 59.7226 86.8895 64.5211 89.9069 67.2099C91.6188 68.7662 93.4344 69.8382 95.2674 70.5472C95.7169 70.5386 96.8063 70.504 98.2761 70.3397C99.1148 70.2446 100.066 70.1149 101.112 69.9334C106.36 68.991 113.7 66.6393 117.617 60.7083C117.98 60.1549 118.317 59.5756 118.62 58.9618C118.957 58.2615 119.804 57.9762 120.505 58.3134C121.196 58.6592 121.49 59.4978 121.144 60.1981C118.412 65.7834 113.45 68.9996 108.573 70.8498C111.547 70.0457 114.522 68.7056 117.288 66.9333C123.211 62.9302 129.721 60.2587 136.62 59.031C143.52 57.7946 150.566 58.0367 157.535 59.7572C161.564 60.6391 165.696 60.7601 169.449 60.0944C173.918 59.2903 179.936 56.9905 183.273 50.5321C185.184 46.9614 184.942 41.9381 182.616 36.7334ZM125.467 54.2152C124.421 55.711 122.363 56.0741 120.876 55.0366C119.372 53.9904 119.009 51.9414 120.055 50.4456C121.092 48.9499 123.15 48.5868 124.646 49.6243C126.133 50.6618 126.505 52.7281 125.467 54.2152ZM138.419 45.8115C138.79 47.8605 137.277 49.8318 135.055 50.2295C132.834 50.6272 130.733 49.2958 130.361 47.2553L129.462 42.2235L124.43 43.1226C122.389 43.4858 120.409 41.9814 120.012 39.7508C119.614 37.5288 120.954 35.4278 122.995 35.0647L128.026 34.1655L127.127 29.1337C126.764 27.0933 128.269 25.1047 130.49 24.7157C132.712 24.3179 134.822 25.6494 135.185 27.6898L136.084 32.7217L141.116 31.8225C143.157 31.4594 145.137 32.9638 145.534 35.1944C145.932 37.4164 144.6 39.5173 142.551 39.8804L137.52 40.7796L138.419 45.8115Z" fill="#002D75"/>
<path d="M182.616 36.7334C180.688 32.3931 176.945 27.4391 171.437 23.8165C171.022 23.5312 170.59 23.2631 170.149 23.0038C169.717 22.7444 169.267 22.4937 168.817 22.2602C166.682 21.1276 164.322 20.2025 161.745 19.5714C150.947 16.9085 140.053 16.528 129.375 18.4388C118.698 20.3495 108.608 24.4736 99.3914 30.7072C97.1954 32.1943 95.3106 33.8802 93.6938 35.6786C93.348 36.059 93.0194 36.448 92.6995 36.8371C92.371 37.2348 92.0684 37.6412 91.7658 38.0475C87.8665 43.3561 86.0682 49.3044 85.7569 54.0337C85.3765 59.7226 86.8895 64.5211 89.9069 67.2099C91.6188 68.7662 93.4344 69.8382 95.2674 70.5472C95.7169 70.5386 96.8063 70.504 98.2761 70.3397C99.1148 70.2446 100.066 70.1149 101.112 69.9334C106.36 68.991 113.7 66.6393 117.617 60.7083C117.98 60.1549 118.317 59.5756 118.62 58.9618C118.957 58.2615 119.804 57.9762 120.505 58.3134C121.196 58.6592 121.49 59.4978 121.144 60.1981C118.412 65.7834 113.45 68.9996 108.573 70.8498C111.547 70.0457 114.522 68.7056 117.288 66.9333C123.211 62.9302 129.721 60.2587 136.62 59.031C143.52 57.7946 150.566 58.0367 157.535 59.7572C161.564 60.6391 165.696 60.7601 169.449 60.0944C173.918 59.2903 179.936 56.9905 183.273 50.5321C185.184 46.9614 184.942 41.9381 182.616 36.7334ZM125.467 54.2152C124.421 55.711 122.363 56.0741 120.876 55.0366C119.372 53.9904 119.009 51.9414 120.055 50.4456C121.092 48.9499 123.15 48.5868 124.646 49.6243C126.133 50.6618 126.505 52.7281 125.467 54.2152ZM138.419 45.8115C138.79 47.8605 137.277 49.8318 135.055 50.2295C132.834 50.6272 130.733 49.2958 130.361 47.2553L129.462 42.2235L124.43 43.1226C122.389 43.4858 120.409 41.9814 120.012 39.7508C119.614 37.5288 120.954 35.4278 122.995 35.0647L128.026 34.1655L127.127 29.1337C126.764 27.0933 128.269 25.1047 130.49 24.7157C132.712 24.3179 134.822 25.6494 135.185 27.6898L136.084 32.7217L141.116 31.8225C143.157 31.4594 145.137 32.9638 145.534 35.1944C145.932 37.4164 144.6 39.5173 142.551 39.8804L137.52 40.7796L138.419 45.8115Z" fill="#002D75"/>
</g>
</g>
</g>
<mask id="mask27_73_3113" style="mask-type:luminance" maskUnits="userSpaceOnUse" x="97" y="59" width="23" height="12">
<path d="M97.418 59.7606H119.551V70.8273H97.418V59.7606Z" fill="white"/>
</mask>
<g mask="url(#mask27_73_3113)">
<mask id="mask28_73_3113" style="mask-type:luminance" maskUnits="userSpaceOnUse" x="77" y="-4" width="111" height="79">
<path d="M77.1367 14.3232L176.815 -3.48718L187.622 56.9818L87.9354 74.7922L77.1367 14.3232Z" fill="white"/>
</mask>
<g mask="url(#mask28_73_3113)">
<mask id="mask29_73_3113" style="mask-type:luminance" maskUnits="userSpaceOnUse" x="77" y="-4" width="111" height="79">
<path d="M77.1367 14.3234L176.815 -3.48706L187.622 56.9819L87.9354 74.7923L77.1367 14.3234Z" fill="white"/>
</mask>
<g mask="url(#mask29_73_3113)">
<path d="M117.536 60.7015C113.619 66.6326 106.279 68.9842 101.031 69.9266C99.985 70.1082 99.0253 70.2379 98.1953 70.333L117.536 60.7015Z" fill="#002D75"/>
</g>
</g>
</g>
<mask id="mask30_73_3113" style="mask-type:luminance" maskUnits="userSpaceOnUse" x="198" y="272" width="127" height="119">
<path d="M198.824 272.203H324.984V390.063H198.824V272.203Z" fill="white"/>
</mask>
<g mask="url(#mask30_73_3113)">
<mask id="mask31_73_3113" style="mask-type:luminance" maskUnits="userSpaceOnUse" x="197" y="270" width="129" height="122">
<path d="M325.393 270.029H197.02V391.763H325.393V270.029Z" fill="white"/>
</mask>
<g mask="url(#mask31_73_3113)">
<mask id="mask32_73_3113" style="mask-type:luminance" maskUnits="userSpaceOnUse" x="198" y="283" width="126" height="108">
<path d="M198.824 283.306H323.22V390.056H198.824V283.306Z" fill="white"/>
</mask>
<g mask="url(#mask32_73_3113)">
<path d="M198.317 367.233C198.334 372.767 202.303 377.677 205.165 379.77C210.162 383.418 214.07 386.721 219.949 388.727C221.133 389.133 224.739 389.782 225.949 389.462L225.958 389.453C227.644 389.98 229.537 389.712 231.31 389.41C252.846 385.822 274.202 381.136 295.254 375.369C300.45 373.951 305.698 372.429 310.324 369.689C314.949 366.939 318.952 362.789 320.379 357.654C321.097 355.069 321.14 352.354 321.183 349.665C321.347 338.814 321.503 327.964 321.667 317.122C321.754 311.26 323.595 302.424 317.82 298.698C317.828 298.68 317.846 298.672 317.863 298.655C314.958 296.943 311.093 294.185 308.197 292.481C302.655 289.213 296.949 285.885 290.585 284.813C287.75 284.328 284.853 284.311 281.966 284.363C258.198 284.752 234.344 289.101 212.479 298.326C202.043 302.727 199.164 313.309 199.164 317.788C199.164 335.979 198.239 349.042 198.317 367.233Z" fill="#002D75"/>
</g>
<mask id="mask33_73_3113" style="mask-type:luminance" maskUnits="userSpaceOnUse" x="205" y="287" width="119" height="104">
<path d="M205.84 287.734H323.147V390.057H205.84V287.734Z" fill="white"/>
</mask>
<g mask="url(#mask33_73_3113)">
<path d="M220.745 328.479C219.041 346.307 217.338 364.446 221.03 381.971C221.618 384.789 222.621 387.919 225.241 389.173C227.091 390.063 229.287 389.752 231.319 389.406C252.855 385.818 274.211 381.132 295.263 375.365C300.459 373.947 305.707 372.426 310.333 369.685C314.958 366.936 318.961 362.786 320.388 357.65C321.106 355.065 321.149 352.35 321.192 349.661C321.348 338.811 321.512 327.96 321.667 317.118C321.771 310.513 324.097 300.138 315.244 297.536C313.229 296.948 311.068 297.198 308.984 297.458C283.998 300.553 258.76 303.717 235.157 312.355C229.866 314.291 224.186 316.963 222.016 322.107C221.177 324.121 220.952 326.318 220.745 328.479ZM207.828 332.447C207.828 326.343 208.433 315.64 211.061 311.49C213.698 307.34 217.546 304.271 222.249 302.723C235.849 298.245 251.515 294.172 265.115 291.734C289.825 287.29 289.946 287.835 301.722 290.844C291.519 288.406 280.755 290.195 270.38 292.011C253.253 295.002 235.909 298.063 220.088 305.196C216.785 306.691 209.479 311.274 209.479 321.044C209.479 336.148 208.571 352.186 209.661 367.247C210.041 372.53 210.716 378.158 214.174 382.213C212.566 381.884 210.301 378.461 209.479 375.201C207.508 367.454 207.828 339.096 207.828 332.447ZM301.722 290.844C302.085 290.93 302.456 291.025 302.828 291.12C302.439 291.025 302.076 290.93 301.722 290.844Z" fill="#0E64AD"/>
</g>
<path d="M241.097 299.906C240.794 300.252 240.613 300.728 240.716 301.169C240.829 301.67 241.252 302.033 241.667 302.344C241.823 302.457 241.987 302.569 242.169 302.621C242.307 302.656 242.445 302.656 242.592 302.656C244.08 302.63 245.61 302.439 246.915 301.73C250.106 299.975 250.434 295.367 250.624 291.399C250.72 289.54 250.806 287.681 250.892 285.814C250.988 283.989 251.186 281.932 252.639 280.799C253.538 280.099 254.723 279.917 255.855 279.761C258.777 279.355 261.708 278.94 264.631 278.534C265.962 278.352 267.285 278.162 268.616 277.98C271.271 277.609 273.925 277.237 276.597 276.986C277.21 276.934 277.867 276.882 278.403 277.185C279.32 277.695 279.476 278.905 279.519 279.934C279.631 282.597 279.64 285.252 279.562 287.914C279.527 289.246 279.467 290.569 279.389 291.9C279.32 292.981 279.32 295.799 281.49 295.678C283.885 295.549 284.118 295.523 287.214 294.909C287.724 294.814 288.217 294.529 288.467 294.088C288.77 293.543 288.597 292.877 288.355 292.307C288.035 291.511 287.534 290.698 286.721 290.413C286.116 290.206 285.951 290.396 285.355 290.517C285.052 290.586 283.755 290.794 283.686 289.194C283.66 288.606 283.773 288.018 283.799 287.422C283.876 286.125 283.937 284.819 283.989 283.514C284.084 281.292 283.79 275.162 283.461 274.427C283.003 273.372 281.896 272.698 280.764 272.447C279.631 272.196 278.438 272.309 277.288 272.447C275.516 272.655 273.752 272.923 271.988 273.182C266.515 274.003 261.034 274.825 255.561 275.646C253.14 276.009 250.547 276.45 248.792 278.136C247.244 279.623 246.647 281.81 246.284 283.911C245.947 285.874 245.757 292.972 245.722 294.961C245.705 296.353 245.662 297.97 244.546 298.825C244.036 299.215 243.275 299.24 242.653 299.422C242.03 299.595 241.52 299.431 241.097 299.906ZM286.254 288.71C286.107 288.563 285.96 288.407 285.865 288.226C285.709 287.923 285.787 287.603 285.804 287.257C286.652 287.214 288.485 287.102 289.332 287.05C289.626 287.033 289.92 287.024 290.196 287.093C290.438 287.162 290.663 287.292 290.871 287.422C292.098 288.182 293.197 289.056 294.312 289.964C294.32 290.154 294.338 290.344 294.346 290.534C294.355 290.586 294.355 290.647 294.329 290.69C294.295 290.75 294.217 290.759 294.148 290.776C293.663 290.854 293.171 290.932 292.686 291.01C292.427 290.647 292.124 290.309 291.727 290.11C291.078 289.791 290.3 289.903 289.583 289.989C289.392 290.015 289.211 290.033 289.021 290.05C288.58 290.093 288.147 290.136 287.706 290.162C287.231 289.678 286.738 289.194 286.254 288.71ZM223.978 299.984C225.301 299.578 226.07 299.353 227.393 298.947C227.652 298.869 227.929 298.791 228.197 298.834C228.457 298.877 228.681 299.033 228.897 299.189C230.246 300.131 231.595 301.082 232.952 302.033C232.978 302.327 233.03 302.664 233.056 302.967C233.065 303.01 233.065 303.062 233.03 303.097C233.013 303.122 232.978 303.14 232.944 303.148C231.37 303.676 229.762 304.125 228.111 304.367C228.016 304.385 227.912 304.393 227.817 304.376C227.661 304.359 227.531 304.264 227.41 304.177C226.33 303.425 225.301 302.621 224.307 301.765C224.211 301.679 224.108 301.584 224.056 301.471C224.013 301.376 224.004 301.281 223.987 301.186C223.952 300.797 224.021 300.373 223.978 299.984Z" fill="#BFBFBF"/>
<path d="M257.432 333.554C255.495 338.56 254.89 344.067 255.685 349.376C256.057 351.831 256.766 354.33 258.383 356.241C259.455 357.503 260.873 358.437 262.403 359.102C269.251 362.059 277.775 359.076 282.384 353.258C286.992 347.448 288.09 339.459 286.75 332.196C286.067 328.505 284.052 323.516 280.075 322.228C276.34 321.009 270.115 321.623 266.57 323.066C262.135 324.865 259.144 329.11 257.432 333.554ZM287.07 294.492C287.113 293.558 286.862 292.633 286.499 291.777C286.326 291.397 285.998 290.99 285.894 290.601C285.764 290.152 286.464 290.212 286.767 290.204C287.727 290.186 288.686 290.117 289.637 289.996C290.364 289.91 291.133 289.797 291.782 290.117C292.283 290.359 292.629 290.826 292.914 291.293C293.502 292.235 293.952 293.351 293.718 294.431C293.71 294.483 293.701 294.535 293.666 294.578C293.615 294.63 293.528 294.648 293.45 294.665C292.923 294.743 292.395 294.821 291.868 294.907C290.346 295.14 288.816 295.374 287.269 295.452C287.018 295.218 287.052 294.829 287.07 294.492ZM238.238 300.535C238.567 300.267 238.982 300.129 239.388 299.999C240.616 299.602 241.956 299.273 243.209 298.936C243.849 299.325 244.325 299.956 244.601 300.648C244.878 301.348 244.964 302.1 244.964 302.844C244.964 302.896 244.956 302.948 244.93 302.991C244.904 303.034 244.843 303.06 244.792 303.086C243.815 303.475 242.768 303.683 241.731 303.89C241.35 303.968 240.961 304.046 240.572 304.123C240.443 304.149 240.304 304.167 240.175 304.141C240.071 304.115 239.976 304.054 239.881 303.994C239.085 303.449 238.437 302.688 238.03 301.824C237.849 301.443 237.909 300.803 238.238 300.535Z" fill="white"/>
<path d="M263.773 345.396C265.529 345.128 267.275 344.868 269.021 344.6C269.056 347.393 269.151 350.185 269.298 352.978C271.33 352.485 273.353 351.992 275.376 351.5C275.687 351.43 276.016 351.335 276.189 351.067C276.301 350.886 276.31 350.652 276.319 350.445C276.379 348.119 276.431 345.793 276.491 343.468C276.811 343.424 277.131 343.372 277.442 343.329C278.618 343.148 281.255 343.277 281.947 342.093C282.267 341.54 281.67 336.145 281.938 336.11C280.175 336.309 278.419 336.525 276.656 336.75C276.673 336.291 276.682 335.825 276.69 335.366C276.725 333.966 277.546 330.369 276.094 329.651C274.857 329.038 270.707 330.507 269.307 330.75C269.177 333.118 269.091 335.479 269.047 337.848C267.31 338.168 264.733 338.747 264.258 338.816C264.232 339.369 264.249 339.862 264.206 340.087C263.92 341.842 263.773 343.615 263.773 345.396Z" fill="#0E64AD"/>
<path d="M283.685 289.205C283.685 289.205 283.59 292.733 283.892 293.036C284.186 293.329 284.783 293.036 284.783 293.036C284.783 293.036 283.814 293.364 283.685 289.205ZM238.225 300.514C238.796 300.557 239.314 300.955 239.626 301.431C239.911 301.863 240.049 302.373 240.136 302.874C240.205 303.281 240.248 303.704 240.188 304.111C240.179 304.128 240.179 304.137 240.179 304.145C240.162 304.145 240.136 304.145 240.118 304.145C240.015 304.119 239.919 304.059 239.824 303.998C239.029 303.454 238.381 302.693 237.974 301.828C237.793 301.448 237.853 300.808 238.182 300.54C238.199 300.531 238.208 300.523 238.225 300.514ZM290.204 287.104C290.446 287.174 290.662 287.303 290.878 287.433C292.097 288.194 293.195 289.067 294.31 289.975C293.472 290.07 292.676 290.131 291.872 290.208C291.829 290.174 291.777 290.148 291.725 290.122C291.077 289.802 290.307 289.914 289.581 290.001C289.4 290.027 289.209 290.044 289.028 290.07C287.93 289.292 286.642 288.289 285.803 287.269C286.65 287.226 288.483 287.113 289.33 287.061C289.624 287.044 289.918 287.035 290.204 287.104ZM227.392 298.958C227.651 298.88 227.928 298.802 228.196 298.846C228.455 298.889 228.68 299.044 228.896 299.191C230.245 300.142 231.594 301.093 232.951 302.036C231.403 302.399 229.968 302.736 228.421 303.099C228.282 303.134 228.135 303.168 227.997 303.134C227.876 303.099 227.772 303.03 227.668 302.952C226.397 302.001 225.222 300.981 223.977 299.987C225.299 299.589 226.069 299.364 227.392 298.958Z" fill="#A5A5A4"/>
</g>
</g>
</g>
</g>
<defs>
<filter id="filter0_i_73_3113" x="0" y="0" width="324.984" height="394.063" filterUnits="userSpaceOnUse" color-interpolation-filters="sRGB">
<feFlood flood-opacity="0" result="BackgroundImageFix"/>
<feBlend mode="normal" in="SourceGraphic" in2="BackgroundImageFix" result="shape"/>
<feColorMatrix in="SourceAlpha" type="matrix" values="0 0 0 0 0 0 0 0 0 0 0 0 0 0 0 0 0 0 127 0" result="hardAlpha"/>
<feOffset dy="4"/>
<feGaussianBlur stdDeviation="2"/>
<feComposite in2="hardAlpha" operator="arithmetic" k2="-1" k3="1"/>
<feColorMatrix type="matrix" values="0 0 0 0 0 0 0 0 0 0 0 0 0 0 0 0 0 0 0.25 0"/>
<feBlend mode="normal" in2="shape" result="effect1_innerShadow_73_3113"/>
</filter>
<linearGradient id="paint0_linear_73_3113" x1="176.399" y1="238.596" x2="189.685" y2="238.596" gradientUnits="userSpaceOnUse">
<stop stop-color="#3DBDEC"/>
<stop offset="0.03125" stop-color="#3DBDEC"/>
<stop offset="0.046875" stop-color="#3DBDEC"/>
<stop offset="0.0546875" stop-color="#3DBCEC"/>
<stop offset="0.0625" stop-color="#3DBCEC"/>
<stop offset="0.078125" stop-color="#3EBBED"/>
<stop offset="0.0859375" stop-color="#3EBAED"/>
<stop offset="0.09375" stop-color="#3EBAED"/>
<stop offset="0.101563" stop-color="#3EB9ED"/>
<stop offset="0.109375" stop-color="#3EB9ED"/>
<stop offset="0.117188" stop-color="#3EB8ED"/>
<stop offset="0.125" stop-color="#3FB8ED"/>
<stop offset="0.132812" stop-color="#3FB7EE"/>
<stop offset="0.140625" stop-color="#3FB7EE"/>
<stop offset="0.148438" stop-color="#3FB6EE"/>
<stop offset="0.15625" stop-color="#3FB6EE"/>
<stop offset="0.164063" stop-color="#3FB5EE"/>
<stop offset="0.171875" stop-color="#40B5EE"/>
<stop offset="0.1875" stop-color="#40B4EF"/>
<stop offset="0.195313" stop-color="#40B3EF"/>
<stop offset="0.203125" stop-color="#40B3EF"/>
<stop offset="0.210938" stop-color="#40B2EF"/>
<stop offset="0.21875" stop-color="#41B2EF"/>
<stop offset="0.226563" stop-color="#41B1EF"/>
<stop offset="0.234375" stop-color="#41B1EF"/>
<stop offset="0.242188" stop-color="#41B0F0"/>
<stop offset="0.25" stop-color="#41B0F0"/>
<stop offset="0.257813" stop-color="#41AFF0"/>
<stop offset="0.265625" stop-color="#41AFF0"/>
<stop offset="0.273438" stop-color="#42AEF0"/>
<stop offset="0.28125" stop-color="#42AEF0"/>
<stop offset="0.289063" stop-color="#42ADF0"/>
<stop offset="0.296875" stop-color="#42ADF1"/>
<stop offset="0.3125" stop-color="#42ACF1"/>
<stop offset="0.320313" stop-color="#43ABF1"/>
<stop offset="0.328125" stop-color="#43ABF1"/>
<stop offset="0.335938" stop-color="#43AAF1"/>
<stop offset="0.34375" stop-color="#43AAF1"/>
<stop offset="0.351563" stop-color="#43A9F2"/>
<stop offset="0.359375" stop-color="#43A9F2"/>
<stop offset="0.367188" stop-color="#43A8F2"/>
<stop offset="0.375" stop-color="#44A8F2"/>
<stop offset="0.382813" stop-color="#44A7F2"/>
<stop offset="0.390625" stop-color="#44A7F2"/>
<stop offset="0.398438" stop-color="#44A6F2"/>
<stop offset="0.40625" stop-color="#44A6F2"/>
<stop offset="0.421875" stop-color="#44A5F3"/>
<stop offset="0.429688" stop-color="#45A4F3"/>
<stop offset="0.4375" stop-color="#45A4F3"/>
<stop offset="0.445313" stop-color="#45A3F3"/>
<stop offset="0.453125" stop-color="#45A3F3"/>
<stop offset="0.460938" stop-color="#45A2F3"/>
<stop offset="0.46875" stop-color="#45A2F4"/>
<stop offset="0.476563" stop-color="#46A1F4"/>
<stop offset="0.484375" stop-color="#46A1F4"/>
<stop offset="0.492188" stop-color="#46A0F4"/>
<stop offset="0.5" stop-color="#46A0F4"/>
<stop offset="0.507813" stop-color="#469FF4"/>
<stop offset="0.515625" stop-color="#469FF4"/>
<stop offset="0.523438" stop-color="#479EF5"/>
<stop offset="0.53125" stop-color="#479EF5"/>
<stop offset="0.546875" stop-color="#479DF5"/>
<stop offset="0.554688" stop-color="#479CF5"/>
<stop offset="0.5625" stop-color="#479CF5"/>
<stop offset="0.570312" stop-color="#489BF5"/>
<stop offset="0.578125" stop-color="#489BF6"/>
<stop offset="0.585938" stop-color="#489AF6"/>
<stop offset="0.59375" stop-color="#489AF6"/>
<stop offset="0.601563" stop-color="#4899F6"/>
<stop offset="0.609375" stop-color="#4899F6"/>
<stop offset="0.617188" stop-color="#4898F6"/>
<stop offset="0.625" stop-color="#4998F6"/>
<stop offset="0.632813" stop-color="#4997F7"/>
<stop offset="0.640625" stop-color="#4997F7"/>
<stop offset="0.65625" stop-color="#4996F7"/>
<stop offset="0.664062" stop-color="#4995F7"/>
<stop offset="0.671875" stop-color="#4A95F7"/>
<stop offset="0.679688" stop-color="#4A94F7"/>
<stop offset="0.6875" stop-color="#4A94F8"/>
<stop offset="0.695312" stop-color="#4A93F8"/>
<stop offset="0.703125" stop-color="#4A93F8"/>
<stop offset="0.710938" stop-color="#4A92F8"/>
<stop offset="0.71875" stop-color="#4A92F8"/>
<stop offset="0.726563" stop-color="#4B91F8"/>
<stop offset="0.734375" stop-color="#4B91F8"/>
<stop offset="0.742188" stop-color="#4B90F8"/>
<stop offset="0.75" stop-color="#4B90F9"/>
<stop offset="0.765625" stop-color="#4B8FF9"/>
<stop offset="0.773438" stop-color="#4C8EF9"/>
<stop offset="0.78125" stop-color="#4C8EF9"/>
<stop offset="0.789062" stop-color="#4C8DF9"/>
<stop offset="0.796875" stop-color="#4C8DF9"/>
<stop offset="0.804688" stop-color="#4C8CFA"/>
<stop offset="0.8125" stop-color="#4C8CFA"/>
<stop offset="0.820312" stop-color="#4D8BFA"/>
<stop offset="0.828125" stop-color="#4D8BFA"/>
<stop offset="0.835938" stop-color="#4D8AFA"/>
<stop offset="0.84375" stop-color="#4D8AFA"/>
<stop offset="0.851563" stop-color="#4D89FA"/>
<stop offset="0.859375" stop-color="#4D89FB"/>
<stop offset="0.867188" stop-color="#4D88FB"/>
<stop offset="0.875" stop-color="#4E88FB"/>
<stop offset="0.890625" stop-color="#4E87FB"/>
<stop offset="0.898438" stop-color="#4E86FB"/>
<stop offset="0.90625" stop-color="#4E86FB"/>
<stop offset="0.914062" stop-color="#4E85FC"/>
<stop offset="0.921875" stop-color="#4F85FC"/>
<stop offset="0.929688" stop-color="#4F84FC"/>
<stop offset="0.9375" stop-color="#4F84FC"/>
<stop offset="0.945312" stop-color="#4F83FC"/>
<stop offset="0.953125" stop-color="#4F83FC"/>
<stop offset="0.960938" stop-color="#4F82FC"/>
<stop offset="0.96875" stop-color="#4F82FD"/>
<stop offset="0.976563" stop-color="#5081FD"/>
<stop offset="0.984375" stop-color="#5081FD"/>
<stop offset="1" stop-color="#5080FD"/>
</linearGradient>
<linearGradient id="paint1_linear_73_3113" x1="197.991" y1="244.953" x2="184.704" y2="244.953" gradientUnits="userSpaceOnUse">
<stop stop-color="#3DBDEC"/>
<stop offset="0.03125" stop-color="#3DBDEC"/>
<stop offset="0.046875" stop-color="#3DBDEC"/>
<stop offset="0.0546875" stop-color="#3DBCEC"/>
<stop offset="0.0625" stop-color="#3DBCEC"/>
<stop offset="0.0703125" stop-color="#3EBBED"/>
<stop offset="0.078125" stop-color="#3EBBED"/>
<stop offset="0.0859375" stop-color="#3EBAED"/>
<stop offset="0.09375" stop-color="#3EBAED"/>
<stop offset="0.101562" stop-color="#3EB9ED"/>
<stop offset="0.109375" stop-color="#3EB9ED"/>
<stop offset="0.117188" stop-color="#3EB8ED"/>
<stop offset="0.125" stop-color="#3FB8ED"/>
<stop offset="0.132812" stop-color="#3FB7EE"/>
<stop offset="0.140625" stop-color="#3FB7EE"/>
<stop offset="0.148438" stop-color="#3FB6EE"/>
<stop offset="0.15625" stop-color="#3FB6EE"/>
<stop offset="0.171875" stop-color="#40B5EE"/>
<stop offset="0.179688" stop-color="#40B4EE"/>
<stop offset="0.1875" stop-color="#40B4EF"/>
<stop offset="0.195312" stop-color="#40B3EF"/>
<stop offset="0.203125" stop-color="#40B3EF"/>
<stop offset="0.210937" stop-color="#40B2EF"/>
<stop offset="0.21875" stop-color="#41B2EF"/>
<stop offset="0.226562" stop-color="#41B1EF"/>
<stop offset="0.234375" stop-color="#41B1EF"/>
<stop offset="0.242188" stop-color="#41B0F0"/>
<stop offset="0.25" stop-color="#41B0F0"/>
<stop offset="0.257812" stop-color="#41AFF0"/>
<stop offset="0.265625" stop-color="#41AFF0"/>
<stop offset="0.273437" stop-color="#42AEF0"/>
<stop offset="0.28125" stop-color="#42AEF0"/>
<stop offset="0.296875" stop-color="#42ADF0"/>
<stop offset="0.304688" stop-color="#42ACF1"/>
<stop offset="0.3125" stop-color="#42ACF1"/>
<stop offset="0.320312" stop-color="#43ABF1"/>
<stop offset="0.328125" stop-color="#43ABF1"/>
<stop offset="0.335937" stop-color="#43AAF1"/>
<stop offset="0.34375" stop-color="#43AAF1"/>
<stop offset="0.351562" stop-color="#43A9F2"/>
<stop offset="0.359375" stop-color="#43A9F2"/>
<stop offset="0.367187" stop-color="#43A8F2"/>
<stop offset="0.375" stop-color="#44A8F2"/>
<stop offset="0.382812" stop-color="#44A7F2"/>
<stop offset="0.390625" stop-color="#44A7F2"/>
<stop offset="0.398437" stop-color="#44A6F2"/>
<stop offset="0.40625" stop-color="#44A6F2"/>
<stop offset="0.421875" stop-color="#44A5F3"/>
<stop offset="0.429688" stop-color="#45A4F3"/>
<stop offset="0.4375" stop-color="#45A4F3"/>
<stop offset="0.445312" stop-color="#45A3F3"/>
<stop offset="0.453125" stop-color="#45A3F3"/>
<stop offset="0.460937" stop-color="#45A2F3"/>
<stop offset="0.46875" stop-color="#45A2F4"/>
<stop offset="0.476562" stop-color="#46A1F4"/>
<stop offset="0.484375" stop-color="#46A1F4"/>
<stop offset="0.492188" stop-color="#46A0F4"/>
<stop offset="0.5" stop-color="#46A0F4"/>
<stop offset="0.507812" stop-color="#469FF4"/>
<stop offset="0.515625" stop-color="#469FF4"/>
<stop offset="0.523438" stop-color="#479EF5"/>
<stop offset="0.53125" stop-color="#479EF5"/>
<stop offset="0.546875" stop-color="#479DF5"/>
<stop offset="0.554688" stop-color="#479CF5"/>
<stop offset="0.5625" stop-color="#479CF5"/>
<stop offset="0.570313" stop-color="#489BF5"/>
<stop offset="0.578125" stop-color="#489BF6"/>
<stop offset="0.585938" stop-color="#489AF6"/>
<stop offset="0.59375" stop-color="#489AF6"/>
<stop offset="0.601563" stop-color="#4899F6"/>
<stop offset="0.609375" stop-color="#4899F6"/>
<stop offset="0.617188" stop-color="#4898F6"/>
<stop offset="0.625" stop-color="#4998F6"/>
<stop offset="0.632812" stop-color="#4997F7"/>
<stop offset="0.640625" stop-color="#4997F7"/>
<stop offset="0.648437" stop-color="#4996F7"/>
<stop offset="0.65625" stop-color="#4996F7"/>
<stop offset="0.671875" stop-color="#4995F7"/>
<stop offset="0.679687" stop-color="#4A94F7"/>
<stop offset="0.6875" stop-color="#4A94F8"/>
<stop offset="0.695312" stop-color="#4A93F8"/>
<stop offset="0.703125" stop-color="#4A93F8"/>
<stop offset="0.710938" stop-color="#4A92F8"/>
<stop offset="0.71875" stop-color="#4A92F8"/>
<stop offset="0.726562" stop-color="#4B91F8"/>
<stop offset="0.734375" stop-color="#4B91F8"/>
<stop offset="0.742188" stop-color="#4B90F8"/>
<stop offset="0.75" stop-color="#4B90F9"/>
<stop offset="0.757812" stop-color="#4B8FF9"/>
<stop offset="0.765625" stop-color="#4B8FF9"/>
<stop offset="0.773438" stop-color="#4C8EF9"/>
<stop offset="0.78125" stop-color="#4C8EF9"/>
<stop offset="0.796875" stop-color="#4C8DF9"/>
<stop offset="0.804688" stop-color="#4C8CFA"/>
<stop offset="0.8125" stop-color="#4C8CFA"/>
<stop offset="0.820313" stop-color="#4D8BFA"/>
<stop offset="0.828125" stop-color="#4D8BFA"/>
<stop offset="0.835938" stop-color="#4D8AFA"/>
<stop offset="0.84375" stop-color="#4D8AFA"/>
<stop offset="0.851563" stop-color="#4D89FA"/>
<stop offset="0.859375" stop-color="#4D89FB"/>
<stop offset="0.867188" stop-color="#4D88FB"/>
<stop offset="0.875" stop-color="#4E88FB"/>
<stop offset="0.882812" stop-color="#4E87FB"/>
<stop offset="0.890625" stop-color="#4E87FB"/>
<stop offset="0.898437" stop-color="#4E86FB"/>
<stop offset="0.90625" stop-color="#4E86FB"/>
<stop offset="0.921875" stop-color="#4E85FC"/>
<stop offset="0.929687" stop-color="#4F84FC"/>
<stop offset="0.9375" stop-color="#4F84FC"/>
<stop offset="0.945312" stop-color="#4F83FC"/>
<stop offset="0.953125" stop-color="#4F83FC"/>
<stop offset="0.960937" stop-color="#4F82FC"/>
<stop offset="0.96875" stop-color="#4F82FD"/>
<stop offset="0.976562" stop-color="#5081FD"/>
<stop offset="0.984375" stop-color="#5081FD"/>
<stop offset="1" stop-color="#5080FD"/>
</linearGradient>
<clipPath id="clip0_73_3113">
<rect width="324.984" height="390.063" fill="white"/>
</clipPath>
</defs>
</svg>
