<svg xmlns="http://www.w3.org/2000/svg" xmlns:xlink="http://www.w3.org/1999/xlink" width="500" zoomAndPan="magnify" viewBox="0 0 375 374.999991" height="500" preserveAspectRatio="xMidYMid meet" version="1.0"><defs><clipPath id="670acd22e7"><path d="M 164 227 L 187 227 L 187 262.5 L 164 262.5 Z M 164 227 " clip-rule="nonzero"/></clipPath><clipPath id="d87c1352ed"><path d="M 196 227 L 219 227 L 219 262.5 L 196 262.5 Z M 196 227 " clip-rule="nonzero"/></clipPath><clipPath id="97732cb19c"><path d="M 123.03125 140 L 139 140 L 139 174 L 123.03125 174 Z M 123.03125 140 " clip-rule="nonzero"/></clipPath><clipPath id="d0b4745ab2"><path d="M 137 112.5 L 241 112.5 L 241 202 L 137 202 Z M 137 112.5 " clip-rule="nonzero"/></clipPath><clipPath id="0405e4ca03"><path d="M 195 204.175781 L 198 204.175781 L 198 207 L 195 207 Z M 195 204.175781 " clip-rule="nonzero"/></clipPath><clipPath id="6a1c1def5a"><path d="M 192.539062 204.175781 L 198 204.175781 L 198 210 L 192.539062 210 Z M 192.539062 204.175781 " clip-rule="nonzero"/></clipPath><clipPath id="d47e715554"><path d="M 197.613281 204.28125 C 197.617188 204.613281 197.578125 205.710938 197.027344 206.785156 C 196.855469 207.121094 196.632812 207.457031 196.34375 207.765625 C 195.597656 208.5625 194.414062 209.175781 192.539062 209.175781 L 192.539062 207.300781 C 193.921875 207.300781 194.929688 207.09375 195.660156 206.785156 C 195.921875 206.675781 196.148438 206.550781 196.34375 206.421875 C 197.5 205.648438 197.609375 204.605469 197.613281 204.28125 Z M 197.613281 204.28125 " clip-rule="nonzero"/></clipPath><linearGradient x1="-0.000114748" gradientTransform="matrix(0.0211105, 0, 0, 0.0207858, 192.53746, 204.179515)" y1="122.636002" x2="240.599889" gradientUnits="userSpaceOnUse" y2="122.636002" id="3c142e3a7b"><stop stop-opacity="1" stop-color="rgb(23.919678%, 74.119568%, 92.549133%)" offset="0"/><stop stop-opacity="1" stop-color="rgb(23.919678%, 74.119568%, 92.549133%)" offset="0.03125"/><stop stop-opacity="1" stop-color="rgb(23.953247%, 74.008179%, 92.579651%)" offset="0.046875"/><stop stop-opacity="1" stop-color="rgb(24.01886%, 73.800659%, 92.637634%)" offset="0.0546875"/><stop stop-opacity="1" stop-color="rgb(24.079895%, 73.603821%, 92.692566%)" offset="0.0625"/><stop stop-opacity="1" stop-color="rgb(24.171448%, 73.310852%, 92.774963%)" offset="0.078125"/><stop stop-opacity="1" stop-color="rgb(24.263%, 73.016357%, 92.855835%)" offset="0.0859375"/><stop stop-opacity="1" stop-color="rgb(24.324036%, 72.821045%, 92.910767%)" offset="0.09375"/><stop stop-opacity="1" stop-color="rgb(24.385071%, 72.624207%, 92.965698%)" offset="0.101562"/><stop stop-opacity="1" stop-color="rgb(24.446106%, 72.428894%, 93.02063%)" offset="0.109375"/><stop stop-opacity="1" stop-color="rgb(24.507141%, 72.232056%, 93.075562%)" offset="0.117188"/><stop stop-opacity="1" stop-color="rgb(24.568176%, 72.036743%, 93.128967%)" offset="0.125"/><stop stop-opacity="1" stop-color="rgb(24.629211%, 71.841431%, 93.183899%)" offset="0.132812"/><stop stop-opacity="1" stop-color="rgb(24.690247%, 71.644592%, 93.238831%)" offset="0.140625"/><stop stop-opacity="1" stop-color="rgb(24.751282%, 71.44928%, 93.293762%)" offset="0.148438"/><stop stop-opacity="1" stop-color="rgb(24.812317%, 71.252441%, 93.348694%)" offset="0.15625"/><stop stop-opacity="1" stop-color="rgb(24.873352%, 71.057129%, 93.403625%)" offset="0.164062"/><stop stop-opacity="1" stop-color="rgb(24.934387%, 70.860291%, 93.457031%)" offset="0.171875"/><stop stop-opacity="1" stop-color="rgb(24.995422%, 70.664978%, 93.511963%)" offset="0.179688"/><stop stop-opacity="1" stop-color="rgb(25.056458%, 70.46814%, 93.566895%)" offset="0.1875"/><stop stop-opacity="1" stop-color="rgb(25.14801%, 70.175171%, 93.649292%)" offset="0.203125"/><stop stop-opacity="1" stop-color="rgb(25.239563%, 69.880676%, 93.730164%)" offset="0.210938"/><stop stop-opacity="1" stop-color="rgb(25.300598%, 69.685364%, 93.785095%)" offset="0.21875"/><stop stop-opacity="1" stop-color="rgb(25.361633%, 69.488525%, 93.840027%)" offset="0.226563"/><stop stop-opacity="1" stop-color="rgb(25.422668%, 69.293213%, 93.894958%)" offset="0.234375"/><stop stop-opacity="1" stop-color="rgb(25.483704%, 69.096375%, 93.94989%)" offset="0.242188"/><stop stop-opacity="1" stop-color="rgb(25.544739%, 68.901062%, 94.003296%)" offset="0.25"/><stop stop-opacity="1" stop-color="rgb(25.605774%, 68.70575%, 94.058228%)" offset="0.257812"/><stop stop-opacity="1" stop-color="rgb(25.666809%, 68.508911%, 94.113159%)" offset="0.265625"/><stop stop-opacity="1" stop-color="rgb(25.727844%, 68.313599%, 94.168091%)" offset="0.273438"/><stop stop-opacity="1" stop-color="rgb(25.788879%, 68.11676%, 94.223022%)" offset="0.28125"/><stop stop-opacity="1" stop-color="rgb(25.849915%, 67.921448%, 94.277954%)" offset="0.289062"/><stop stop-opacity="1" stop-color="rgb(25.91095%, 67.724609%, 94.33136%)" offset="0.296875"/><stop stop-opacity="1" stop-color="rgb(26.002502%, 67.431641%, 94.413757%)" offset="0.3125"/><stop stop-opacity="1" stop-color="rgb(26.094055%, 67.137146%, 94.496155%)" offset="0.320312"/><stop stop-opacity="1" stop-color="rgb(26.15509%, 66.941833%, 94.551086%)" offset="0.328125"/><stop stop-opacity="1" stop-color="rgb(26.216125%, 66.744995%, 94.604492%)" offset="0.335937"/><stop stop-opacity="1" stop-color="rgb(26.277161%, 66.549683%, 94.659424%)" offset="0.34375"/><stop stop-opacity="1" stop-color="rgb(26.338196%, 66.352844%, 94.714355%)" offset="0.351562"/><stop stop-opacity="1" stop-color="rgb(26.399231%, 66.157532%, 94.769287%)" offset="0.359375"/><stop stop-opacity="1" stop-color="rgb(26.460266%, 65.962219%, 94.824219%)" offset="0.367187"/><stop stop-opacity="1" stop-color="rgb(26.521301%, 65.765381%, 94.87915%)" offset="0.375"/><stop stop-opacity="1" stop-color="rgb(26.582336%, 65.570068%, 94.932556%)" offset="0.382812"/><stop stop-opacity="1" stop-color="rgb(26.643372%, 65.37323%, 94.987488%)" offset="0.390625"/><stop stop-opacity="1" stop-color="rgb(26.704407%, 65.177917%, 95.042419%)" offset="0.398437"/><stop stop-opacity="1" stop-color="rgb(26.765442%, 64.981079%, 95.097351%)" offset="0.40625"/><stop stop-opacity="1" stop-color="rgb(26.856995%, 64.68811%, 95.178223%)" offset="0.421875"/><stop stop-opacity="1" stop-color="rgb(26.948547%, 64.393616%, 95.26062%)" offset="0.429687"/><stop stop-opacity="1" stop-color="rgb(27.009583%, 64.198303%, 95.315552%)" offset="0.4375"/><stop stop-opacity="1" stop-color="rgb(27.070618%, 64.001465%, 95.370483%)" offset="0.445312"/><stop stop-opacity="1" stop-color="rgb(27.131653%, 63.806152%, 95.425415%)" offset="0.453125"/><stop stop-opacity="1" stop-color="rgb(27.192688%, 63.609314%, 95.478821%)" offset="0.460937"/><stop stop-opacity="1" stop-color="rgb(27.253723%, 63.414001%, 95.533752%)" offset="0.46875"/><stop stop-opacity="1" stop-color="rgb(27.314758%, 63.217163%, 95.588684%)" offset="0.476562"/><stop stop-opacity="1" stop-color="rgb(27.375793%, 63.021851%, 95.643616%)" offset="0.484375"/><stop stop-opacity="1" stop-color="rgb(27.436829%, 62.826538%, 95.698547%)" offset="0.492187"/><stop stop-opacity="1" stop-color="rgb(27.497864%, 62.6297%, 95.753479%)" offset="0.5"/><stop stop-opacity="1" stop-color="rgb(27.558899%, 62.434387%, 95.806885%)" offset="0.507812"/><stop stop-opacity="1" stop-color="rgb(27.619934%, 62.237549%, 95.861816%)" offset="0.515625"/><stop stop-opacity="1" stop-color="rgb(27.680969%, 62.042236%, 95.916748%)" offset="0.523438"/><stop stop-opacity="1" stop-color="rgb(27.742004%, 61.845398%, 95.97168%)" offset="0.53125"/><stop stop-opacity="1" stop-color="rgb(27.833557%, 61.552429%, 96.052551%)" offset="0.546875"/><stop stop-opacity="1" stop-color="rgb(27.92511%, 61.257935%, 96.134949%)" offset="0.554687"/><stop stop-opacity="1" stop-color="rgb(27.986145%, 61.062622%, 96.18988%)" offset="0.5625"/><stop stop-opacity="1" stop-color="rgb(28.04718%, 60.865784%, 96.244812%)" offset="0.570312"/><stop stop-opacity="1" stop-color="rgb(28.108215%, 60.670471%, 96.299744%)" offset="0.578125"/><stop stop-opacity="1" stop-color="rgb(28.16925%, 60.473633%, 96.353149%)" offset="0.585938"/><stop stop-opacity="1" stop-color="rgb(28.230286%, 60.27832%, 96.408081%)" offset="0.59375"/><stop stop-opacity="1" stop-color="rgb(28.291321%, 60.083008%, 96.463013%)" offset="0.601562"/><stop stop-opacity="1" stop-color="rgb(28.352356%, 59.886169%, 96.517944%)" offset="0.609375"/><stop stop-opacity="1" stop-color="rgb(28.413391%, 59.690857%, 96.572876%)" offset="0.617187"/><stop stop-opacity="1" stop-color="rgb(28.474426%, 59.494019%, 96.627808%)" offset="0.625"/><stop stop-opacity="1" stop-color="rgb(28.535461%, 59.298706%, 96.681213%)" offset="0.632812"/><stop stop-opacity="1" stop-color="rgb(28.596497%, 59.101868%, 96.736145%)" offset="0.640625"/><stop stop-opacity="1" stop-color="rgb(28.688049%, 58.808899%, 96.818542%)" offset="0.65625"/><stop stop-opacity="1" stop-color="rgb(28.779602%, 58.514404%, 96.90094%)" offset="0.664062"/><stop stop-opacity="1" stop-color="rgb(28.840637%, 58.319092%, 96.954346%)" offset="0.671875"/><stop stop-opacity="1" stop-color="rgb(28.901672%, 58.122253%, 97.009277%)" offset="0.679687"/><stop stop-opacity="1" stop-color="rgb(28.962708%, 57.926941%, 97.064209%)" offset="0.6875"/><stop stop-opacity="1" stop-color="rgb(29.023743%, 57.730103%, 97.119141%)" offset="0.695312"/><stop stop-opacity="1" stop-color="rgb(29.084778%, 57.53479%, 97.174072%)" offset="0.703125"/><stop stop-opacity="1" stop-color="rgb(29.145813%, 57.339478%, 97.227478%)" offset="0.710938"/><stop stop-opacity="1" stop-color="rgb(29.206848%, 57.142639%, 97.28241%)" offset="0.71875"/><stop stop-opacity="1" stop-color="rgb(29.267883%, 56.947327%, 97.337341%)" offset="0.726562"/><stop stop-opacity="1" stop-color="rgb(29.328918%, 56.750488%, 97.392273%)" offset="0.734375"/><stop stop-opacity="1" stop-color="rgb(29.389954%, 56.555176%, 97.447205%)" offset="0.742187"/><stop stop-opacity="1" stop-color="rgb(29.450989%, 56.358337%, 97.502136%)" offset="0.75"/><stop stop-opacity="1" stop-color="rgb(29.512024%, 56.163025%, 97.555542%)" offset="0.757812"/><stop stop-opacity="1" stop-color="rgb(29.573059%, 55.966187%, 97.610474%)" offset="0.765625"/><stop stop-opacity="1" stop-color="rgb(29.664612%, 55.673218%, 97.692871%)" offset="0.78125"/><stop stop-opacity="1" stop-color="rgb(29.756165%, 55.378723%, 97.775269%)" offset="0.789062"/><stop stop-opacity="1" stop-color="rgb(29.8172%, 55.183411%, 97.828674%)" offset="0.796875"/><stop stop-opacity="1" stop-color="rgb(29.878235%, 54.986572%, 97.883606%)" offset="0.804687"/><stop stop-opacity="1" stop-color="rgb(29.93927%, 54.79126%, 97.938538%)" offset="0.8125"/><stop stop-opacity="1" stop-color="rgb(30.000305%, 54.594421%, 97.993469%)" offset="0.820312"/><stop stop-opacity="1" stop-color="rgb(30.06134%, 54.399109%, 98.048401%)" offset="0.828125"/><stop stop-opacity="1" stop-color="rgb(30.122375%, 54.203796%, 98.101807%)" offset="0.835938"/><stop stop-opacity="1" stop-color="rgb(30.183411%, 54.006958%, 98.156738%)" offset="0.84375"/><stop stop-opacity="1" stop-color="rgb(30.244446%, 53.811646%, 98.21167%)" offset="0.851562"/><stop stop-opacity="1" stop-color="rgb(30.305481%, 53.614807%, 98.266602%)" offset="0.859375"/><stop stop-opacity="1" stop-color="rgb(30.366516%, 53.419495%, 98.321533%)" offset="0.867188"/><stop stop-opacity="1" stop-color="rgb(30.427551%, 53.222656%, 98.376465%)" offset="0.875"/><stop stop-opacity="1" stop-color="rgb(30.519104%, 52.929688%, 98.457336%)" offset="0.890625"/><stop stop-opacity="1" stop-color="rgb(30.610657%, 52.635193%, 98.539734%)" offset="0.898438"/><stop stop-opacity="1" stop-color="rgb(30.671692%, 52.43988%, 98.594666%)" offset="0.90625"/><stop stop-opacity="1" stop-color="rgb(30.732727%, 52.243042%, 98.649597%)" offset="0.914062"/><stop stop-opacity="1" stop-color="rgb(30.793762%, 52.047729%, 98.703003%)" offset="0.921875"/><stop stop-opacity="1" stop-color="rgb(30.854797%, 51.850891%, 98.757935%)" offset="0.929688"/><stop stop-opacity="1" stop-color="rgb(30.915833%, 51.655579%, 98.812866%)" offset="0.9375"/><stop stop-opacity="1" stop-color="rgb(30.976868%, 51.460266%, 98.867798%)" offset="0.945312"/><stop stop-opacity="1" stop-color="rgb(31.037903%, 51.263428%, 98.922729%)" offset="0.953125"/><stop stop-opacity="1" stop-color="rgb(31.098938%, 51.068115%, 98.976135%)" offset="0.960938"/><stop stop-opacity="1" stop-color="rgb(31.159973%, 50.871277%, 99.031067%)" offset="0.96875"/><stop stop-opacity="1" stop-color="rgb(31.221008%, 50.675964%, 99.085999%)" offset="0.976562"/><stop stop-opacity="1" stop-color="rgb(31.282043%, 50.479126%, 99.14093%)" offset="0.984375"/><stop stop-opacity="1" stop-color="rgb(31.340027%, 50.289917%, 99.19281%)" offset="1"/></linearGradient><clipPath id="71e041c03e"><path d="M 195 208 L 198 208 L 198 211.675781 L 195 211.675781 Z M 195 208 " clip-rule="nonzero"/></clipPath><clipPath id="a3df70c88a"><path d="M 195 206 L 200.789062 206 L 200.789062 211.675781 L 195 211.675781 Z M 195 206 " clip-rule="nonzero"/></clipPath><clipPath id="1c36cdae4f"><path d="M 195.710938 211.574219 C 195.707031 211.242188 195.746094 210.140625 196.296875 209.070312 C 196.46875 208.730469 196.691406 208.398438 196.980469 208.089844 C 197.726562 207.292969 198.910156 206.679688 200.785156 206.679688 L 200.785156 208.550781 C 199.402344 208.550781 198.394531 208.761719 197.664062 209.070312 C 197.402344 209.179688 197.175781 209.304688 196.980469 209.433594 C 195.824219 210.203125 195.714844 211.25 195.710938 211.574219 Z M 195.710938 211.574219 " clip-rule="nonzero"/></clipPath><linearGradient x1="167.432258" gradientTransform="matrix(-0.0211105, 0, 0, -0.0207858, 204.32141, 208.340325)" y1="-37.771" x2="408.042268" gradientUnits="userSpaceOnUse" y2="-37.771" id="dc822e0711"><stop stop-opacity="1" stop-color="rgb(23.919678%, 74.119568%, 92.549133%)" offset="0"/><stop stop-opacity="1" stop-color="rgb(23.919678%, 74.119568%, 92.549133%)" offset="0.03125"/><stop stop-opacity="1" stop-color="rgb(23.953247%, 74.009705%, 92.579651%)" offset="0.046875"/><stop stop-opacity="1" stop-color="rgb(24.01886%, 73.800659%, 92.637634%)" offset="0.0546875"/><stop stop-opacity="1" stop-color="rgb(24.079895%, 73.605347%, 92.692566%)" offset="0.0625"/><stop stop-opacity="1" stop-color="rgb(24.14093%, 73.408508%, 92.747498%)" offset="0.0703125"/><stop stop-opacity="1" stop-color="rgb(24.201965%, 73.213196%, 92.802429%)" offset="0.078125"/><stop stop-opacity="1" stop-color="rgb(24.263%, 73.016357%, 92.855835%)" offset="0.0859375"/><stop stop-opacity="1" stop-color="rgb(24.324036%, 72.821045%, 92.910767%)" offset="0.09375"/><stop stop-opacity="1" stop-color="rgb(24.385071%, 72.624207%, 92.965698%)" offset="0.101562"/><stop stop-opacity="1" stop-color="rgb(24.446106%, 72.428894%, 93.02063%)" offset="0.109375"/><stop stop-opacity="1" stop-color="rgb(24.507141%, 72.233582%, 93.075562%)" offset="0.117188"/><stop stop-opacity="1" stop-color="rgb(24.568176%, 72.036743%, 93.128967%)" offset="0.125"/><stop stop-opacity="1" stop-color="rgb(24.629211%, 71.841431%, 93.183899%)" offset="0.132812"/><stop stop-opacity="1" stop-color="rgb(24.690247%, 71.644592%, 93.238831%)" offset="0.140625"/><stop stop-opacity="1" stop-color="rgb(24.751282%, 71.44928%, 93.293762%)" offset="0.148438"/><stop stop-opacity="1" stop-color="rgb(24.812317%, 71.252441%, 93.348694%)" offset="0.15625"/><stop stop-opacity="1" stop-color="rgb(24.90387%, 70.959473%, 93.429565%)" offset="0.171875"/><stop stop-opacity="1" stop-color="rgb(24.995422%, 70.664978%, 93.511963%)" offset="0.179688"/><stop stop-opacity="1" stop-color="rgb(25.056458%, 70.469666%, 93.566895%)" offset="0.1875"/><stop stop-opacity="1" stop-color="rgb(25.117493%, 70.272827%, 93.621826%)" offset="0.195312"/><stop stop-opacity="1" stop-color="rgb(25.178528%, 70.077515%, 93.676758%)" offset="0.203125"/><stop stop-opacity="1" stop-color="rgb(25.239563%, 69.880676%, 93.730164%)" offset="0.210938"/><stop stop-opacity="1" stop-color="rgb(25.300598%, 69.685364%, 93.785095%)" offset="0.21875"/><stop stop-opacity="1" stop-color="rgb(25.361633%, 69.488525%, 93.840027%)" offset="0.226562"/><stop stop-opacity="1" stop-color="rgb(25.422668%, 69.293213%, 93.894958%)" offset="0.234375"/><stop stop-opacity="1" stop-color="rgb(25.483704%, 69.0979%, 93.94989%)" offset="0.242188"/><stop stop-opacity="1" stop-color="rgb(25.544739%, 68.901062%, 94.003296%)" offset="0.25"/><stop stop-opacity="1" stop-color="rgb(25.605774%, 68.70575%, 94.058228%)" offset="0.257812"/><stop stop-opacity="1" stop-color="rgb(25.666809%, 68.508911%, 94.113159%)" offset="0.265625"/><stop stop-opacity="1" stop-color="rgb(25.727844%, 68.313599%, 94.168091%)" offset="0.273437"/><stop stop-opacity="1" stop-color="rgb(25.788879%, 68.11676%, 94.223022%)" offset="0.28125"/><stop stop-opacity="1" stop-color="rgb(25.880432%, 67.823792%, 94.303894%)" offset="0.296875"/><stop stop-opacity="1" stop-color="rgb(25.971985%, 67.529297%, 94.386292%)" offset="0.304688"/><stop stop-opacity="1" stop-color="rgb(26.03302%, 67.333984%, 94.441223%)" offset="0.3125"/><stop stop-opacity="1" stop-color="rgb(26.094055%, 67.137146%, 94.496155%)" offset="0.320312"/><stop stop-opacity="1" stop-color="rgb(26.15509%, 66.941833%, 94.551086%)" offset="0.328125"/><stop stop-opacity="1" stop-color="rgb(26.216125%, 66.744995%, 94.604492%)" offset="0.335937"/><stop stop-opacity="1" stop-color="rgb(26.277161%, 66.549683%, 94.659424%)" offset="0.34375"/><stop stop-opacity="1" stop-color="rgb(26.338196%, 66.352844%, 94.714355%)" offset="0.351562"/><stop stop-opacity="1" stop-color="rgb(26.399231%, 66.157532%, 94.769287%)" offset="0.359375"/><stop stop-opacity="1" stop-color="rgb(26.460266%, 65.962219%, 94.824219%)" offset="0.367187"/><stop stop-opacity="1" stop-color="rgb(26.521301%, 65.765381%, 94.877625%)" offset="0.375"/><stop stop-opacity="1" stop-color="rgb(26.582336%, 65.570068%, 94.932556%)" offset="0.382812"/><stop stop-opacity="1" stop-color="rgb(26.643372%, 65.37323%, 94.987488%)" offset="0.390625"/><stop stop-opacity="1" stop-color="rgb(26.704407%, 65.177917%, 95.042419%)" offset="0.398437"/><stop stop-opacity="1" stop-color="rgb(26.765442%, 64.981079%, 95.097351%)" offset="0.40625"/><stop stop-opacity="1" stop-color="rgb(26.856995%, 64.68811%, 95.178223%)" offset="0.421875"/><stop stop-opacity="1" stop-color="rgb(26.948547%, 64.393616%, 95.26062%)" offset="0.429688"/><stop stop-opacity="1" stop-color="rgb(27.009583%, 64.198303%, 95.315552%)" offset="0.4375"/><stop stop-opacity="1" stop-color="rgb(27.070618%, 64.001465%, 95.370483%)" offset="0.445312"/><stop stop-opacity="1" stop-color="rgb(27.131653%, 63.806152%, 95.425415%)" offset="0.453125"/><stop stop-opacity="1" stop-color="rgb(27.192688%, 63.609314%, 95.478821%)" offset="0.460937"/><stop stop-opacity="1" stop-color="rgb(27.253723%, 63.414001%, 95.533752%)" offset="0.46875"/><stop stop-opacity="1" stop-color="rgb(27.314758%, 63.217163%, 95.588684%)" offset="0.476562"/><stop stop-opacity="1" stop-color="rgb(27.375793%, 63.021851%, 95.643616%)" offset="0.484375"/><stop stop-opacity="1" stop-color="rgb(27.436829%, 62.826538%, 95.698547%)" offset="0.492188"/><stop stop-opacity="1" stop-color="rgb(27.497864%, 62.6297%, 95.753479%)" offset="0.5"/><stop stop-opacity="1" stop-color="rgb(27.558899%, 62.434387%, 95.806885%)" offset="0.507812"/><stop stop-opacity="1" stop-color="rgb(27.619934%, 62.237549%, 95.861816%)" offset="0.515625"/><stop stop-opacity="1" stop-color="rgb(27.680969%, 62.042236%, 95.916748%)" offset="0.523438"/><stop stop-opacity="1" stop-color="rgb(27.742004%, 61.845398%, 95.97168%)" offset="0.53125"/><stop stop-opacity="1" stop-color="rgb(27.833557%, 61.552429%, 96.052551%)" offset="0.546875"/><stop stop-opacity="1" stop-color="rgb(27.92511%, 61.257935%, 96.134949%)" offset="0.554688"/><stop stop-opacity="1" stop-color="rgb(27.986145%, 61.062622%, 96.18988%)" offset="0.5625"/><stop stop-opacity="1" stop-color="rgb(28.04718%, 60.865784%, 96.244812%)" offset="0.570313"/><stop stop-opacity="1" stop-color="rgb(28.108215%, 60.670471%, 96.299744%)" offset="0.578125"/><stop stop-opacity="1" stop-color="rgb(28.16925%, 60.473633%, 96.353149%)" offset="0.585938"/><stop stop-opacity="1" stop-color="rgb(28.230286%, 60.27832%, 96.408081%)" offset="0.59375"/><stop stop-opacity="1" stop-color="rgb(28.291321%, 60.081482%, 96.463013%)" offset="0.601563"/><stop stop-opacity="1" stop-color="rgb(28.352356%, 59.886169%, 96.517944%)" offset="0.609375"/><stop stop-opacity="1" stop-color="rgb(28.413391%, 59.690857%, 96.572876%)" offset="0.617188"/><stop stop-opacity="1" stop-color="rgb(28.474426%, 59.494019%, 96.627808%)" offset="0.625"/><stop stop-opacity="1" stop-color="rgb(28.535461%, 59.298706%, 96.681213%)" offset="0.632812"/><stop stop-opacity="1" stop-color="rgb(28.596497%, 59.101868%, 96.736145%)" offset="0.640625"/><stop stop-opacity="1" stop-color="rgb(28.657532%, 58.906555%, 96.791077%)" offset="0.648437"/><stop stop-opacity="1" stop-color="rgb(28.718567%, 58.709717%, 96.846008%)" offset="0.65625"/><stop stop-opacity="1" stop-color="rgb(28.81012%, 58.416748%, 96.92688%)" offset="0.671875"/><stop stop-opacity="1" stop-color="rgb(28.901672%, 58.122253%, 97.009277%)" offset="0.679687"/><stop stop-opacity="1" stop-color="rgb(28.962708%, 57.926941%, 97.064209%)" offset="0.6875"/><stop stop-opacity="1" stop-color="rgb(29.023743%, 57.730103%, 97.119141%)" offset="0.695312"/><stop stop-opacity="1" stop-color="rgb(29.084778%, 57.53479%, 97.174072%)" offset="0.703125"/><stop stop-opacity="1" stop-color="rgb(29.145813%, 57.337952%, 97.229004%)" offset="0.710938"/><stop stop-opacity="1" stop-color="rgb(29.206848%, 57.142639%, 97.28241%)" offset="0.71875"/><stop stop-opacity="1" stop-color="rgb(29.267883%, 56.945801%, 97.337341%)" offset="0.726562"/><stop stop-opacity="1" stop-color="rgb(29.328918%, 56.750488%, 97.392273%)" offset="0.734375"/><stop stop-opacity="1" stop-color="rgb(29.389954%, 56.555176%, 97.447205%)" offset="0.742188"/><stop stop-opacity="1" stop-color="rgb(29.450989%, 56.358337%, 97.502136%)" offset="0.75"/><stop stop-opacity="1" stop-color="rgb(29.512024%, 56.163025%, 97.555542%)" offset="0.757812"/><stop stop-opacity="1" stop-color="rgb(29.573059%, 55.966187%, 97.610474%)" offset="0.765625"/><stop stop-opacity="1" stop-color="rgb(29.634094%, 55.770874%, 97.665405%)" offset="0.773438"/><stop stop-opacity="1" stop-color="rgb(29.695129%, 55.574036%, 97.720337%)" offset="0.78125"/><stop stop-opacity="1" stop-color="rgb(29.786682%, 55.281067%, 97.801208%)" offset="0.796875"/><stop stop-opacity="1" stop-color="rgb(29.878235%, 54.986572%, 97.883606%)" offset="0.804688"/><stop stop-opacity="1" stop-color="rgb(29.93927%, 54.79126%, 97.938538%)" offset="0.8125"/><stop stop-opacity="1" stop-color="rgb(30.000305%, 54.594421%, 97.993469%)" offset="0.820313"/><stop stop-opacity="1" stop-color="rgb(30.06134%, 54.399109%, 98.048401%)" offset="0.828125"/><stop stop-opacity="1" stop-color="rgb(30.122375%, 54.202271%, 98.103333%)" offset="0.835938"/><stop stop-opacity="1" stop-color="rgb(30.183411%, 54.006958%, 98.156738%)" offset="0.84375"/><stop stop-opacity="1" stop-color="rgb(30.244446%, 53.81012%, 98.21167%)" offset="0.851563"/><stop stop-opacity="1" stop-color="rgb(30.305481%, 53.614807%, 98.266602%)" offset="0.859375"/><stop stop-opacity="1" stop-color="rgb(30.366516%, 53.419495%, 98.321533%)" offset="0.867188"/><stop stop-opacity="1" stop-color="rgb(30.427551%, 53.222656%, 98.376465%)" offset="0.875"/><stop stop-opacity="1" stop-color="rgb(30.488586%, 53.027344%, 98.429871%)" offset="0.882812"/><stop stop-opacity="1" stop-color="rgb(30.549622%, 52.830505%, 98.484802%)" offset="0.890625"/><stop stop-opacity="1" stop-color="rgb(30.610657%, 52.635193%, 98.539734%)" offset="0.898437"/><stop stop-opacity="1" stop-color="rgb(30.671692%, 52.438354%, 98.594666%)" offset="0.90625"/><stop stop-opacity="1" stop-color="rgb(30.763245%, 52.145386%, 98.675537%)" offset="0.921875"/><stop stop-opacity="1" stop-color="rgb(30.854797%, 51.850891%, 98.757935%)" offset="0.929687"/><stop stop-opacity="1" stop-color="rgb(30.915833%, 51.655579%, 98.812866%)" offset="0.9375"/><stop stop-opacity="1" stop-color="rgb(30.976868%, 51.45874%, 98.867798%)" offset="0.945312"/><stop stop-opacity="1" stop-color="rgb(31.037903%, 51.263428%, 98.922729%)" offset="0.953125"/><stop stop-opacity="1" stop-color="rgb(31.098938%, 51.066589%, 98.977661%)" offset="0.960937"/><stop stop-opacity="1" stop-color="rgb(31.159973%, 50.871277%, 99.031067%)" offset="0.96875"/><stop stop-opacity="1" stop-color="rgb(31.221008%, 50.674438%, 99.085999%)" offset="0.976562"/><stop stop-opacity="1" stop-color="rgb(31.282043%, 50.479126%, 99.14093%)" offset="0.984375"/><stop stop-opacity="1" stop-color="rgb(31.340027%, 50.289917%, 99.19281%)" offset="1"/></linearGradient><clipPath id="fea4a083ea"><path d="M 169 97 L 205 97 L 205 107 L 169 107 Z M 169 97 " clip-rule="nonzero"/></clipPath><clipPath id="2472e16afc"><path d="M 164.355469 97.667969 L 210.09375 96.730469 L 210.664062 124.476562 L 164.921875 125.410156 Z M 164.355469 97.667969 " clip-rule="nonzero"/></clipPath><clipPath id="0c1bea0f9d"><path d="M 164.355469 97.667969 L 210.09375 96.730469 L 210.664062 124.476562 L 164.921875 125.410156 Z M 164.355469 97.667969 " clip-rule="nonzero"/></clipPath><clipPath id="1876668d27"><path d="M 169 103 L 206 103 L 206 115 L 169 115 Z M 169 103 " clip-rule="nonzero"/></clipPath><clipPath id="54d5abbda9"><path d="M 164.355469 97.667969 L 210.09375 96.730469 L 210.664062 124.476562 L 164.921875 125.410156 Z M 164.355469 97.667969 " clip-rule="nonzero"/></clipPath><clipPath id="1780a05683"><path d="M 164.355469 97.667969 L 210.09375 96.730469 L 210.664062 124.476562 L 164.921875 125.410156 Z M 164.355469 97.667969 " clip-rule="nonzero"/></clipPath><clipPath id="ddd433f6e9"><path d="M 169 107 L 206 107 L 206 116 L 169 116 Z M 169 107 " clip-rule="nonzero"/></clipPath><clipPath id="778e61a28a"><path d="M 164.355469 97.667969 L 210.09375 96.730469 L 210.664062 124.476562 L 164.921875 125.410156 Z M 164.355469 97.667969 " clip-rule="nonzero"/></clipPath><clipPath id="54588fed0e"><path d="M 164.355469 97.667969 L 210.09375 96.730469 L 210.664062 124.476562 L 164.921875 125.410156 Z M 164.355469 97.667969 " clip-rule="nonzero"/></clipPath><clipPath id="3436d7190d"><path d="M 165 103 L 211 103 L 211 126 L 165 126 Z M 165 103 " clip-rule="nonzero"/></clipPath><clipPath id="431eebfe72"><path d="M 164.355469 97.667969 L 210.09375 96.730469 L 210.664062 124.476562 L 164.921875 125.410156 Z M 164.355469 97.667969 " clip-rule="nonzero"/></clipPath><clipPath id="7511fe4e28"><path d="M 164.355469 97.667969 L 210.09375 96.730469 L 210.664062 124.476562 L 164.921875 125.410156 Z M 164.355469 97.667969 " clip-rule="nonzero"/></clipPath><clipPath id="099edf78f2"><path d="M 169 121 L 180 121 L 180 125 L 169 125 Z M 169 121 " clip-rule="nonzero"/></clipPath><clipPath id="fcfadc6440"><path d="M 164.355469 97.667969 L 210.09375 96.730469 L 210.664062 124.476562 L 164.921875 125.410156 Z M 164.355469 97.667969 " clip-rule="nonzero"/></clipPath><clipPath id="e6b7562edd"><path d="M 164.355469 97.667969 L 210.09375 96.730469 L 210.664062 124.476562 L 164.921875 125.410156 Z M 164.355469 97.667969 " clip-rule="nonzero"/></clipPath></defs><path fill="#f6f6f6" d="M 217.894531 193.207031 C 218.085938 193.394531 223.480469 199.230469 223.859375 204.5625 C 224.242188 209.890625 221.132812 213.570312 220.558594 213.507812 C 219.988281 213.441406 211.925781 200.4375 212.625 198.027344 C 213.324219 195.617188 217.765625 192.824219 218.210938 193.269531 " fill-opacity="1" fill-rule="nonzero"/><g clip-path="url(#670acd22e7)"><path fill="#f6f6f6" d="M 186.808594 243.082031 C 186.785156 244.25 186.753906 245.441406 186.707031 246.625 C 186.5 251.757812 186.015625 256.664062 184.957031 258.40625 C 182.417969 262.59375 167.183594 264.113281 165.027344 260.308594 C 162.871094 256.5 169.976562 252.824219 169.976562 252.824219 C 169.4375 251.34375 169.304688 248.753906 169.410156 245.789062 C 169.445312 244.652344 169.519531 243.460938 169.617188 242.257812 L 169.617188 242.253906 C 170.160156 235.550781 171.449219 228.414062 171.757812 227.953125 L 186.734375 231.761719 C 186.734375 231.761719 186.917969 237.113281 186.808594 243.082031 Z M 186.808594 243.082031 " fill-opacity="1" fill-rule="nonzero"/></g><path fill="#54a3e6" d="M 186.808594 243.082031 C 186.785156 244.25 186.753906 245.441406 186.707031 246.625 C 185.105469 247.042969 183.46875 247.308594 181.820312 247.457031 C 179.886719 247.628906 177.933594 247.597656 176.003906 247.359375 C 173.933594 247.101562 171.898438 246.675781 169.925781 245.976562 C 169.753906 245.914062 169.582031 245.851562 169.410156 245.789062 C 169.445312 244.652344 169.519531 243.460938 169.617188 242.253906 C 169.617188 242.253906 169.621094 242.253906 169.621094 242.253906 C 169.621094 242.257812 169.625 242.257812 169.625 242.257812 C 171.652344 243.089844 173.78125 243.660156 175.953125 243.96875 C 176.402344 244.027344 176.851562 244.074219 177.304688 244.105469 C 179.136719 244.246094 180.976562 244.199219 182.800781 243.96875 C 184.15625 243.773438 185.496094 243.476562 186.808594 243.078125 Z M 186.808594 243.082031 " fill-opacity="1" fill-rule="nonzero"/><g clip-path="url(#d87c1352ed)"><path fill="#f6f6f6" d="M 196.390625 243.082031 C 196.414062 244.25 196.445312 245.441406 196.492188 246.625 C 196.699219 251.757812 197.183594 256.664062 198.242188 258.40625 C 200.78125 262.59375 216.015625 264.113281 218.171875 260.308594 C 220.328125 256.5 213.222656 252.824219 213.222656 252.824219 C 213.761719 251.34375 213.894531 248.753906 213.789062 245.789062 C 213.753906 244.652344 213.679688 243.460938 213.582031 242.257812 L 213.582031 242.253906 C 213.039062 235.550781 211.75 228.414062 211.441406 227.953125 L 196.464844 231.761719 C 196.464844 231.761719 196.28125 237.113281 196.390625 243.082031 Z M 196.390625 243.082031 " fill-opacity="1" fill-rule="nonzero"/></g><path fill="#54a3e6" d="M 196.390625 243.082031 C 196.414062 244.25 196.445312 245.441406 196.492188 246.625 C 198.09375 247.042969 199.730469 247.308594 201.378906 247.457031 C 203.3125 247.628906 205.265625 247.597656 207.195312 247.359375 C 209.265625 247.101562 211.300781 246.675781 213.273438 245.976562 C 213.445312 245.914062 213.617188 245.851562 213.789062 245.789062 C 213.753906 244.652344 213.679688 243.460938 213.582031 242.253906 C 213.582031 242.253906 213.578125 242.253906 213.578125 242.253906 C 213.578125 242.257812 213.574219 242.257812 213.574219 242.257812 C 211.546875 243.089844 209.417969 243.660156 207.246094 243.96875 C 206.796875 244.027344 206.347656 244.074219 205.894531 244.105469 C 204.0625 244.246094 202.222656 244.199219 200.398438 243.96875 C 199.042969 243.773438 197.703125 243.476562 196.390625 243.078125 Z M 196.390625 243.082031 " fill-opacity="1" fill-rule="nonzero"/><path fill="#54a3e6" d="M 189.332031 242.167969 C 189.195312 242.226562 189.0625 242.28125 188.925781 242.339844 C 188.988281 242.3125 189.046875 242.289062 189.105469 242.261719 C 189.179688 242.230469 189.257812 242.199219 189.332031 242.167969 Z M 189.332031 242.167969 " fill-opacity="1" fill-rule="nonzero"/><path fill="#f6f6f6" d="M 218.5 224.851562 C 218.445312 226.84375 218.179688 228.65625 217.640625 230.191406 C 213.449219 242.117188 184.410156 247.699219 173.207031 239.199219 C 169.148438 236.117188 166.910156 231.878906 165.84375 227.246094 C 165.53125 225.902344 165.320312 224.527344 165.191406 223.136719 C 163.96875 210.039062 170.035156 195.679688 170.035156 195.679688 L 209.769531 190.097656 C 209.769531 190.09375 209.765625 190.09375 209.765625 190.089844 C 209.90625 190.394531 217.242188 207.773438 218.363281 220.882812 C 218.484375 222.261719 218.53125 223.589844 218.5 224.851562 Z M 218.5 224.851562 " fill-opacity="1" fill-rule="nonzero"/><path fill="#54a3e6" d="M 203.324219 197.375 C 203.347656 197.707031 203.261719 198.042969 203.070312 198.378906 C 202.882812 198.71875 202.585938 199.054688 202.191406 199.386719 C 201.792969 199.722656 201.300781 200.046875 200.710938 200.363281 C 200.125 200.675781 199.453125 200.976562 198.695312 201.261719 C 197.941406 201.550781 197.113281 201.8125 196.21875 202.058594 C 195.324219 202.304688 194.375 202.523438 193.375 202.71875 C 192.375 202.914062 191.34375 203.078125 190.277344 203.214844 C 189.210938 203.351562 188.132812 203.457031 187.039062 203.53125 C 185.949219 203.601562 184.867188 203.644531 183.792969 203.652344 C 182.714844 203.660156 181.671875 203.632812 180.652344 203.574219 C 179.636719 203.515625 178.667969 203.425781 177.746094 203.304688 C 176.828125 203.183594 175.972656 203.03125 175.1875 202.847656 C 174.398438 202.667969 173.691406 202.460938 173.066406 202.226562 C 172.441406 201.992188 171.910156 201.734375 171.472656 201.460938 C 171.035156 201.183594 170.699219 200.890625 170.464844 200.578125 C 170.226562 200.269531 170.101562 199.949219 170.078125 199.617188 C 170.054688 199.289062 170.140625 198.953125 170.332031 198.617188 C 170.523438 198.277344 170.816406 197.941406 171.210938 197.609375 C 171.609375 197.273438 172.101562 196.949219 172.691406 196.632812 C 173.277344 196.320312 173.949219 196.019531 174.707031 195.730469 C 175.460938 195.445312 176.289062 195.179688 177.183594 194.9375 C 178.078125 194.691406 179.027344 194.472656 180.027344 194.277344 C 181.027344 194.082031 182.058594 193.917969 183.125 193.78125 C 184.191406 193.644531 185.269531 193.539062 186.363281 193.464844 C 187.453125 193.390625 188.535156 193.351562 189.609375 193.34375 C 190.6875 193.335938 191.730469 193.363281 192.75 193.417969 C 193.765625 193.476562 194.734375 193.570312 195.65625 193.691406 C 196.574219 193.8125 197.429688 193.964844 198.214844 194.148438 C 199.003906 194.328125 199.710938 194.535156 200.335938 194.769531 C 200.960938 195.003906 201.492188 195.257812 201.929688 195.535156 C 202.367188 195.8125 202.703125 196.105469 202.941406 196.417969 C 203.175781 196.726562 203.304688 197.046875 203.324219 197.375 Z M 203.324219 197.375 " fill-opacity="1" fill-rule="nonzero"/><path fill="#54a3e6" d="M 218.5 224.851562 C 215.453125 225.453125 212.398438 226.007812 209.328125 226.496094 C 206.050781 227.019531 202.757812 227.472656 199.453125 227.832031 C 196.328125 228.171875 193.191406 228.425781 190.046875 228.570312 C 186.902344 228.71875 183.75 228.753906 180.601562 228.667969 C 177.449219 228.578125 174.300781 228.359375 171.167969 228 C 169.386719 227.792969 167.605469 227.554688 165.839844 227.242188 C 165.53125 225.902344 165.320312 224.523438 165.191406 223.136719 C 166.625 223.433594 168.074219 223.671875 169.527344 223.871094 C 169.535156 223.871094 169.542969 223.875 169.550781 223.875 C 171.972656 224.191406 174.40625 224.425781 176.847656 224.574219 C 181.335938 224.847656 185.839844 224.847656 190.328125 224.632812 C 194.71875 224.417969 199.09375 223.996094 203.449219 223.421875 C 203.464844 223.421875 203.476562 223.417969 203.492188 223.417969 C 206.039062 223.074219 208.582031 222.679688 211.117188 222.242188 C 213.539062 221.824219 215.957031 221.367188 218.363281 220.882812 C 218.484375 222.257812 218.53125 223.589844 218.5 224.847656 Z M 218.5 224.851562 " fill-opacity="1" fill-rule="nonzero"/><path fill="#54a3e6" d="M 178.613281 212.300781 L 193.257812 212.300781 C 193.484375 212.300781 193.703125 212.34375 193.917969 212.433594 C 194.128906 212.519531 194.3125 212.644531 194.476562 212.804688 C 194.636719 212.964844 194.761719 213.152344 194.847656 213.363281 C 194.9375 213.574219 194.980469 213.792969 194.980469 214.023438 L 194.980469 214.195312 C 194.980469 214.421875 194.9375 214.644531 194.847656 214.855469 C 194.761719 215.066406 194.636719 215.25 194.476562 215.414062 C 194.3125 215.574219 194.128906 215.699219 193.917969 215.785156 C 193.703125 215.871094 193.484375 215.917969 193.257812 215.917969 L 178.613281 215.917969 C 178.382812 215.917969 178.164062 215.871094 177.953125 215.785156 C 177.742188 215.699219 177.554688 215.574219 177.394531 215.414062 C 177.234375 215.25 177.109375 215.066406 177.019531 214.855469 C 176.933594 214.644531 176.890625 214.421875 176.890625 214.195312 L 176.890625 214.023438 C 176.890625 213.792969 176.933594 213.574219 177.019531 213.363281 C 177.109375 213.152344 177.234375 212.964844 177.394531 212.804688 C 177.554688 212.644531 177.742188 212.519531 177.953125 212.433594 C 178.164062 212.34375 178.382812 212.300781 178.613281 212.300781 Z M 178.613281 212.300781 " fill-opacity="1" fill-rule="nonzero"/><g clip-path="url(#97732cb19c)"><path fill="#54a3e6" d="M 137 141.347656 C 136.683594 141.214844 132.453125 138.21875 127.726562 141.992188 C 123 145.761719 121.160156 159.9375 125.433594 168.441406 C 129.710938 176.941406 138.160156 172.871094 138.167969 172.386719 C 138.175781 171.902344 137 141.347656 137 141.347656 Z M 137 141.347656 " fill-opacity="1" fill-rule="nonzero"/></g><path fill="#f6f6f6" d="M 133.960938 141.132812 C 133.710938 141.375 126.691406 146.34375 127.695312 158.640625 C 128.703125 170.933594 133.488281 174.3125 140.074219 172.230469 C 146.660156 170.148438 146.792969 156.671875 145.914062 151.902344 C 145.035156 147.128906 141.921875 144.410156 141.921875 144.410156 L 145.390625 122.777344 L 140.875 121.382812 Z M 133.960938 141.132812 " fill-opacity="1" fill-rule="nonzero"/><path fill="#f6f6f6" d="M 147.121094 115.984375 C 147.324219 116.191406 147.507812 116.414062 147.671875 116.65625 C 147.832031 116.898438 147.96875 117.152344 148.078125 117.421875 C 148.191406 117.691406 148.273438 117.964844 148.332031 118.25 C 148.386719 118.535156 148.417969 118.824219 148.417969 119.113281 C 148.417969 119.40625 148.386719 119.691406 148.332031 119.976562 C 148.273438 120.261719 148.191406 120.539062 148.078125 120.808594 C 147.96875 121.078125 147.832031 121.332031 147.671875 121.574219 C 147.507812 121.816406 147.324219 122.039062 147.121094 122.242188 C 146.914062 122.449219 146.691406 122.632812 146.449219 122.792969 C 146.207031 122.957031 145.953125 123.089844 145.683594 123.203125 C 145.414062 123.3125 145.136719 123.398438 144.851562 123.453125 C 144.566406 123.511719 144.28125 123.539062 143.988281 123.539062 C 143.699219 123.539062 143.410156 123.511719 143.125 123.453125 C 142.839844 123.398438 142.5625 123.3125 142.296875 123.203125 C 142.027344 123.089844 141.769531 122.957031 141.53125 122.792969 C 141.289062 122.632812 141.0625 122.449219 140.859375 122.242188 C 140.652344 122.039062 140.46875 121.816406 140.308594 121.574219 C 140.148438 121.332031 140.011719 121.078125 139.898438 120.808594 C 139.789062 120.539062 139.703125 120.261719 139.648438 119.976562 C 139.589844 119.691406 139.5625 119.40625 139.5625 119.113281 C 139.5625 118.824219 139.589844 118.535156 139.648438 118.25 C 139.703125 117.964844 139.789062 117.691406 139.898438 117.421875 C 140.011719 117.152344 140.148438 116.898438 140.308594 116.65625 C 140.46875 116.414062 140.652344 116.191406 140.859375 115.984375 C 141.0625 115.78125 141.289062 115.597656 141.53125 115.4375 C 141.769531 115.273438 142.027344 115.136719 142.296875 115.027344 C 142.5625 114.914062 142.839844 114.832031 143.125 114.773438 C 143.410156 114.71875 143.699219 114.691406 143.988281 114.691406 C 144.28125 114.691406 144.566406 114.71875 144.851562 114.773438 C 145.136719 114.832031 145.414062 114.914062 145.683594 115.027344 C 145.953125 115.136719 146.207031 115.273438 146.449219 115.4375 C 146.691406 115.597656 146.914062 115.78125 147.121094 115.984375 Z M 147.121094 115.984375 " fill-opacity="1" fill-rule="nonzero"/><path fill="#4ac95b" d="M 235.585938 142.746094 C 235.652344 142.734375 235.632812 142.625 235.566406 142.640625 C 235.496094 142.652344 235.515625 142.757812 235.585938 142.746094 Z M 235.585938 142.746094 " fill-opacity="1" fill-rule="nonzero"/><g clip-path="url(#d0b4745ab2)"><path fill="#f6f6f6" d="M 140.625 182.0625 C 140.617188 182.046875 140.554688 181.882812 140.453125 181.589844 C 139.0625 177.480469 130.339844 147.484375 149.570312 128.296875 C 170.179688 107.734375 202.472656 109.273438 221.109375 121.453125 C 239.746094 133.636719 249.058594 164.5625 231.648438 184.277344 C 214.242188 203.996094 174.65625 203.117188 161.71875 199.855469 C 142.496094 195.003906 140.628906 182.0625 140.628906 182.0625 Z M 140.625 182.0625 " fill-opacity="1" fill-rule="nonzero"/></g><path fill="#1e1915" d="M 143.542969 181.78125 C 140.761719 176.488281 135.394531 146.644531 148.570312 139.703125 C 161.75 132.761719 197.773438 130.003906 206.125 138.917969 C 214.480469 147.832031 216.71875 180.316406 203.347656 186.90625 C 189.976562 193.492188 152.207031 198.265625 143.542969 181.78125 Z M 143.542969 181.78125 " fill-opacity="1" fill-rule="nonzero"/><path fill="#54a3e6" d="M 195.992188 158.125 C 196.007812 158.75 195.980469 159.367188 195.910156 159.984375 C 195.835938 160.597656 195.722656 161.195312 195.5625 161.777344 C 195.40625 162.359375 195.207031 162.910156 194.96875 163.4375 C 194.730469 163.960938 194.457031 164.449219 194.148438 164.898438 C 193.839844 165.351562 193.503906 165.753906 193.132812 166.109375 C 192.765625 166.464844 192.378906 166.769531 191.964844 167.019531 C 191.550781 167.269531 191.125 167.460938 190.683594 167.59375 C 190.242188 167.730469 189.796875 167.800781 189.34375 167.8125 C 188.890625 167.824219 188.441406 167.777344 187.992188 167.667969 C 187.542969 167.554688 187.109375 167.386719 186.683594 167.160156 C 186.257812 166.933594 185.851562 166.648438 185.464844 166.3125 C 185.082031 165.976562 184.722656 165.589844 184.390625 165.160156 C 184.058594 164.726562 183.757812 164.253906 183.492188 163.742188 C 183.226562 163.230469 183 162.6875 182.8125 162.113281 C 182.621094 161.542969 182.476562 160.953125 182.371094 160.339844 C 182.265625 159.730469 182.207031 159.113281 182.191406 158.492188 C 182.171875 157.867188 182.199219 157.246094 182.273438 156.632812 C 182.34375 156.019531 182.460938 155.421875 182.617188 154.839844 C 182.777344 154.257812 182.976562 153.703125 183.210938 153.179688 C 183.449219 152.652344 183.722656 152.164062 184.03125 151.714844 C 184.339844 151.265625 184.679688 150.863281 185.046875 150.503906 C 185.414062 150.148438 185.804688 149.84375 186.214844 149.59375 C 186.628906 149.34375 187.054688 149.152344 187.496094 149.019531 C 187.9375 148.886719 188.386719 148.8125 188.839844 148.800781 C 189.292969 148.789062 189.742188 148.839844 190.191406 148.949219 C 190.636719 149.058594 191.074219 149.226562 191.5 149.457031 C 191.921875 149.683594 192.328125 149.964844 192.714844 150.300781 C 193.101562 150.640625 193.460938 151.023438 193.792969 151.457031 C 194.125 151.890625 194.421875 152.363281 194.6875 152.875 C 194.953125 153.386719 195.179688 153.929688 195.371094 154.5 C 195.558594 155.074219 195.707031 155.664062 195.808594 156.273438 C 195.914062 156.882812 195.976562 157.5 195.992188 158.125 Z M 195.992188 158.125 " fill-opacity="1" fill-rule="nonzero"/><path fill="#54a3e6" d="M 163.265625 159.707031 C 163.285156 160.332031 163.261719 160.953125 163.195312 161.566406 C 163.128906 162.183594 163.019531 162.78125 162.871094 163.363281 C 162.71875 163.945312 162.53125 164.5 162.300781 165.027344 C 162.070312 165.550781 161.808594 166.042969 161.507812 166.492188 C 161.210938 166.945312 160.882812 167.347656 160.527344 167.707031 C 160.167969 168.066406 159.789062 168.371094 159.390625 168.621094 C 158.988281 168.875 158.574219 169.066406 158.144531 169.203125 C 157.714844 169.339844 157.277344 169.414062 156.835938 169.429688 C 156.394531 169.441406 155.953125 169.394531 155.515625 169.289062 C 155.078125 169.179688 154.652344 169.011719 154.234375 168.789062 C 153.820312 168.5625 153.421875 168.28125 153.042969 167.945312 C 152.664062 167.609375 152.3125 167.226562 151.984375 166.796875 C 151.660156 166.367188 151.363281 165.894531 151.101562 165.382812 C 150.839844 164.871094 150.613281 164.332031 150.425781 163.761719 C 150.238281 163.1875 150.09375 162.597656 149.988281 161.988281 C 149.878906 161.378906 149.816406 160.761719 149.796875 160.140625 C 149.777344 159.515625 149.800781 158.894531 149.867188 158.28125 C 149.933594 157.664062 150.042969 157.066406 150.195312 156.484375 C 150.34375 155.902344 150.535156 155.347656 150.765625 154.824219 C 150.992188 154.296875 151.257812 153.804688 151.554688 153.355469 C 151.855469 152.902344 152.179688 152.5 152.539062 152.140625 C 152.894531 151.78125 153.273438 151.476562 153.675781 151.226562 C 154.074219 150.972656 154.492188 150.78125 154.921875 150.644531 C 155.351562 150.507812 155.785156 150.433594 156.226562 150.417969 C 156.671875 150.40625 157.109375 150.453125 157.546875 150.558594 C 157.984375 150.667969 158.414062 150.835938 158.828125 151.0625 C 159.246094 151.285156 159.640625 151.566406 160.019531 151.902344 C 160.398438 152.238281 160.753906 152.621094 161.078125 153.050781 C 161.40625 153.484375 161.699219 153.953125 161.960938 154.464844 C 162.226562 154.976562 162.449219 155.515625 162.636719 156.089844 C 162.824219 156.660156 162.972656 157.25 163.078125 157.859375 C 163.183594 158.46875 163.246094 159.085938 163.265625 159.707031 Z M 163.265625 159.707031 " fill-opacity="1" fill-rule="nonzero"/><path fill="#f6f6f6" d="M 150.070312 158.789062 C 150.070312 158.789062 152.453125 158.3125 154.101562 156.285156 C 155.753906 154.253906 156.515625 151.714844 156.515625 151.714844 C 156.515625 151.714844 158.800781 157.617188 162.226562 158.632812 C 162.226562 158.632812 156.324219 164.816406 156.609375 168.148438 C 156.609375 168.148438 154.671875 160.980469 150.070312 158.789062 Z M 150.070312 158.789062 " fill-opacity="1" fill-rule="nonzero"/><path fill="#54a3e6" d="M 161.089844 171.722656 C 161.429688 171.582031 164.417969 173.328125 172.15625 172.355469 C 179.59375 171.425781 181.925781 168.304688 182.796875 169.125 C 184.023438 170.277344 180.96875 182.320312 172.566406 182.648438 C 164.167969 182.976562 158.859375 172.632812 161.089844 171.71875 Z M 161.089844 171.722656 " fill-opacity="1" fill-rule="nonzero"/><path fill="#54a3e6" d="M 238.78125 141.714844 C 238.46875 141.578125 234.238281 138.585938 229.511719 142.355469 C 224.785156 146.128906 222.941406 160.304688 227.21875 168.804688 C 231.496094 177.308594 239.941406 173.238281 239.949219 172.753906 C 239.957031 172.269531 238.78125 141.714844 238.78125 141.714844 Z M 238.78125 141.714844 " fill-opacity="1" fill-rule="nonzero"/><path fill="#f6f6f6" d="M 235.742188 141.5 C 235.496094 141.738281 228.472656 146.707031 229.480469 159.003906 C 230.484375 171.300781 235.269531 174.679688 241.855469 172.59375 C 248.445312 170.511719 248.574219 157.039062 247.695312 152.265625 C 246.816406 147.492188 243.703125 144.777344 243.703125 144.777344 L 247.171875 123.140625 L 242.65625 121.746094 Z M 235.742188 141.5 " fill-opacity="1" fill-rule="nonzero"/><path fill="#f6f6f6" d="M 248.902344 116.351562 C 249.109375 116.558594 249.292969 116.78125 249.453125 117.023438 C 249.613281 117.265625 249.75 117.519531 249.863281 117.789062 C 249.972656 118.054688 250.058594 118.332031 250.113281 118.617188 C 250.171875 118.902344 250.199219 119.191406 250.199219 119.480469 C 250.199219 119.773438 250.171875 120.058594 250.113281 120.34375 C 250.058594 120.628906 249.972656 120.90625 249.863281 121.175781 C 249.75 121.441406 249.613281 121.699219 249.453125 121.9375 C 249.292969 122.179688 249.109375 122.40625 248.902344 122.609375 C 248.695312 122.816406 248.472656 123 248.230469 123.160156 C 247.988281 123.320312 247.734375 123.457031 247.464844 123.570312 C 247.199219 123.679688 246.921875 123.765625 246.636719 123.820312 C 246.351562 123.878906 246.0625 123.90625 245.773438 123.90625 C 245.480469 123.90625 245.191406 123.878906 244.90625 123.820312 C 244.621094 123.765625 244.347656 123.679688 244.078125 123.570312 C 243.808594 123.457031 243.554688 123.320312 243.3125 123.160156 C 243.070312 123 242.847656 122.816406 242.640625 122.609375 C 242.4375 122.40625 242.253906 122.179688 242.089844 121.9375 C 241.929688 121.699219 241.792969 121.441406 241.679688 121.175781 C 241.570312 120.90625 241.488281 120.628906 241.429688 120.34375 C 241.371094 120.058594 241.34375 119.773438 241.34375 119.480469 C 241.34375 119.191406 241.371094 118.902344 241.429688 118.617188 C 241.488281 118.332031 241.570312 118.054688 241.679688 117.789062 C 241.792969 117.519531 241.929688 117.265625 242.089844 117.023438 C 242.253906 116.78125 242.4375 116.558594 242.640625 116.351562 C 242.847656 116.148438 243.070312 115.964844 243.3125 115.800781 C 243.554688 115.640625 243.808594 115.503906 244.078125 115.394531 C 244.347656 115.28125 244.621094 115.199219 244.90625 115.140625 C 245.191406 115.085938 245.480469 115.054688 245.773438 115.054688 C 246.0625 115.054688 246.351562 115.085938 246.636719 115.140625 C 246.921875 115.199219 247.199219 115.28125 247.464844 115.394531 C 247.734375 115.503906 247.988281 115.640625 248.230469 115.800781 C 248.472656 115.964844 248.695312 116.148438 248.902344 116.351562 Z M 248.902344 116.351562 " fill-opacity="1" fill-rule="nonzero"/><path fill="#f6f6f6" d="M 199.105469 197.390625 C 198.914062 197.328125 193.582031 192.191406 197.011719 187.179688 C 200.4375 182.167969 203.421875 182.675781 203.800781 177.597656 C 204.183594 172.523438 207.800781 167.257812 214.085938 169.859375 C 220.367188 172.460938 220.496094 179.945312 219.355469 184.515625 C 218.210938 189.082031 214.277344 193.839844 213.957031 193.96875 C 213.640625 194.09375 216.179688 200.183594 219.480469 202.277344 C 222.78125 204.371094 224.242188 210.652344 219.925781 214.265625 C 215.609375 217.882812 207.863281 215.980469 203.675781 210.460938 C 199.484375 204.941406 199.230469 197.710938 199.230469 197.710938 " fill-opacity="1" fill-rule="nonzero"/><path fill="#1e1915" d="M 203.425781 210.648438 C 201.230469 207.753906 200.121094 204.394531 199.578125 202.085938 C 198.992188 199.589844 198.921875 197.796875 198.921875 197.722656 L 199.542969 197.699219 C 199.542969 197.71875 199.613281 199.515625 200.191406 201.960938 C 200.71875 204.203125 201.796875 207.46875 203.921875 210.273438 Z M 203.425781 210.648438 " fill-opacity="1" fill-rule="nonzero"/><path fill="#1e1915" d="M 219.3125 202.539062 C 217.566406 201.433594 216.128906 199.34375 215.234375 197.789062 C 214.316406 196.195312 213.578125 194.457031 213.621094 193.992188 C 213.640625 193.808594 213.746094 193.726562 213.8125 193.691406 C 214.230469 193.375 217.957031 188.816406 219.050781 184.4375 C 220.324219 179.34375 219.757812 172.546875 213.964844 170.148438 C 211.683594 169.203125 209.65625 169.261719 207.933594 170.316406 C 205.816406 171.621094 204.355469 174.417969 204.113281 177.621094 C 204.003906 179.09375 203.667969 180.210938 203.066406 181.148438 C 202.511719 182.003906 201.78125 182.636719 200.941406 183.371094 C 199.84375 184.324219 198.601562 185.40625 197.269531 187.355469 C 195.933594 189.308594 195.816406 191.5 196.921875 193.875 C 197.792969 195.753906 199.117188 197.023438 199.261719 197.125 C 199.261719 197.125 199.238281 197.109375 199.203125 197.097656 L 199.007812 197.6875 C 198.800781 197.621094 198.171875 196.9375 197.710938 196.339844 C 197.164062 195.636719 196.417969 194.515625 195.964844 193.164062 C 195.625 192.160156 195.496094 191.167969 195.574219 190.214844 C 195.671875 189.085938 196.070312 188.003906 196.753906 187.003906 C 198.132812 184.988281 199.460938 183.832031 200.53125 182.902344 C 202.179688 181.464844 203.269531 180.515625 203.492188 177.574219 C 203.746094 174.175781 205.324219 171.191406 207.609375 169.789062 C 208.507812 169.234375 209.503906 168.925781 210.566406 168.871094 C 211.710938 168.8125 212.9375 169.046875 214.203125 169.570312 C 215.734375 170.207031 217.003906 171.160156 217.96875 172.414062 C 218.816406 173.515625 219.4375 174.847656 219.808594 176.375 C 220.40625 178.824219 220.347656 181.820312 219.65625 184.589844 C 219.039062 187.050781 217.660156 189.476562 216.605469 191.078125 C 216.09375 191.859375 215.527344 192.640625 215.019531 193.273438 C 214.617188 193.769531 214.386719 194.011719 214.253906 194.132812 C 214.335938 194.535156 214.859375 195.902344 215.804688 197.53125 C 217.015625 199.617188 218.378906 201.210938 219.648438 202.015625 Z M 219.3125 202.539062 " fill-opacity="1" fill-rule="nonzero"/><path fill="#f6f6f6" d="M 141.027344 173.160156 C 141.648438 172.984375 145.535156 171.320312 148.007812 174.871094 C 150.484375 178.425781 148.453125 181.976562 151.375 184.957031 C 154.292969 187.941406 157.59375 190.097656 158.039062 193.269531 C 158.480469 196.441406 156.957031 199.230469 156.578125 199.296875 C 156.199219 199.359375 157.910156 202.339844 160.703125 202.59375 C 163.496094 202.847656 169.398438 203.164062 169.398438 203.164062 C 169.398438 203.164062 166.097656 215.410156 166.035156 216.105469 C 165.972656 216.804688 156.707031 217.4375 149.660156 214.902344 C 142.613281 212.363281 139.695312 203.925781 141.597656 198.789062 C 141.597656 198.789062 138.359375 197.074219 135.695312 188.765625 C 133.027344 180.453125 138.550781 173.855469 141.027344 173.15625 Z M 141.027344 173.160156 " fill-opacity="1" fill-rule="nonzero"/><path fill="#1e1915" d="M 169.382812 203.476562 C 169.324219 203.472656 163.441406 203.15625 160.675781 202.90625 C 159.226562 202.773438 158.125 201.976562 157.460938 201.328125 C 156.765625 200.65625 156.230469 199.828125 156.214844 199.40625 C 156.207031 199.179688 156.335938 199.042969 156.480469 199 C 156.617188 198.886719 157.035156 198.253906 157.375 197.191406 C 157.660156 196.296875 157.953125 194.894531 157.730469 193.3125 C 157.410156 191.023438 155.511719 189.273438 153.316406 187.246094 C 152.605469 186.589844 151.867188 185.910156 151.148438 185.175781 C 149.535156 183.527344 149.359375 181.679688 149.1875 179.890625 C 149.035156 178.304688 148.878906 176.664062 147.753906 175.050781 C 145.605469 171.964844 142.386719 173.035156 141.328125 173.386719 C 141.238281 173.417969 141.167969 173.441406 141.113281 173.457031 C 140.035156 173.761719 138.261719 175.339844 136.957031 177.765625 C 135.914062 179.707031 134.402344 183.707031 135.992188 188.667969 C 137.34375 192.878906 138.835938 195.332031 139.851562 196.648438 C 140.949219 198.070312 141.738281 198.507812 141.746094 198.511719 L 141.453125 199.0625 C 141.417969 199.042969 140.570312 198.585938 139.398438 197.082031 C 138.34375 195.726562 136.789062 193.195312 135.398438 188.859375 C 134.730469 186.773438 134.523438 184.652344 134.78125 182.558594 C 135.003906 180.777344 135.550781 179.066406 136.410156 177.46875 C 137.859375 174.769531 139.777344 173.1875 140.941406 172.859375 C 140.984375 172.847656 141.054688 172.824219 141.132812 172.796875 C 141.640625 172.628906 142.824219 172.234375 144.164062 172.316406 C 145.859375 172.417969 147.238281 173.21875 148.265625 174.691406 C 149.484375 176.441406 149.648438 178.164062 149.808594 179.828125 C 149.976562 181.589844 150.136719 183.25 151.597656 184.738281 C 152.300781 185.460938 153.03125 186.136719 153.738281 186.789062 C 154.851562 187.8125 155.902344 188.785156 156.726562 189.8125 C 157.671875 190.984375 158.183594 192.070312 158.347656 193.226562 C 158.597656 195 158.25 196.554688 157.914062 197.546875 C 157.738281 198.066406 157.519531 198.558594 157.296875 198.929688 C 157.121094 199.230469 156.980469 199.394531 156.867188 199.488281 C 156.964844 199.738281 157.296875 200.304688 157.910156 200.894531 C 158.5 201.464844 159.46875 202.167969 160.730469 202.285156 C 163.488281 202.535156 169.359375 202.851562 169.417969 202.851562 Z M 156.46875 199.007812 Z M 156.527344 198.988281 Z M 156.527344 198.988281 " fill-opacity="1" fill-rule="nonzero"/><path fill="#f6f6f6" d="M 182.792969 157.234375 C 182.792969 157.234375 185.171875 156.761719 186.824219 154.730469 C 188.472656 152.699219 189.234375 150.164062 189.234375 150.164062 C 189.234375 150.164062 191.519531 156.0625 194.949219 157.078125 C 194.949219 157.078125 189.042969 163.261719 189.332031 166.59375 C 189.332031 166.59375 187.394531 159.425781 182.792969 157.234375 Z M 182.792969 157.234375 " fill-opacity="1" fill-rule="nonzero"/><g clip-path="url(#0405e4ca03)"><path fill="#1f2b5b" d="M 195.710938 206.867188 L 195.710938 204.179688 L 197.613281 204.179688 C 197.613281 204.179688 197.640625 205.4375 197.152344 205.945312 C 196.664062 206.453125 195.710938 206.867188 195.710938 206.867188 Z M 195.710938 206.867188 " fill-opacity="1" fill-rule="nonzero"/></g><g clip-path="url(#6a1c1def5a)"><g clip-path="url(#d47e715554)"><path fill="url(#3c142e3a7b)" d="M 192.539062 204.28125 L 192.539062 209.175781 L 197.617188 209.175781 L 197.617188 204.28125 Z M 192.539062 204.28125 " fill-rule="nonzero"/></g></g><g clip-path="url(#71e041c03e)"><path fill="#1f2b5b" d="M 197.613281 208.984375 L 197.613281 211.675781 L 195.710938 211.675781 C 195.710938 211.675781 195.683594 210.414062 196.171875 209.910156 C 196.660156 209.402344 197.613281 208.984375 197.613281 208.984375 Z M 197.613281 208.984375 " fill-opacity="1" fill-rule="nonzero"/></g><g clip-path="url(#a3df70c88a)"><g clip-path="url(#1c36cdae4f)"><path fill="url(#dc822e0711)" d="M 200.785156 211.574219 L 200.785156 206.679688 L 195.707031 206.679688 L 195.707031 211.574219 Z M 200.785156 211.574219 " fill-rule="nonzero"/></g></g><g clip-path="url(#fea4a083ea)"><g clip-path="url(#2472e16afc)"><g clip-path="url(#0c1bea0f9d)"><path fill="#002d75" d="M 204.96875 105.277344 C 204.976562 105.617188 204.964844 105.949219 204.929688 106.28125 C 204.078125 105.691406 203.164062 105.183594 202.207031 104.78125 C 197.40625 102.765625 192.398438 101.796875 187.320312 101.902344 C 182.238281 102.003906 177.273438 103.179688 172.5625 105.390625 C 171.621094 105.832031 170.730469 106.371094 169.902344 106.996094 C 169.855469 106.667969 169.828125 106.335938 169.820312 105.996094 C 169.726562 101.339844 173.433594 97.476562 178.089844 97.382812 L 196.355469 97.007812 C 201.011719 96.914062 204.875 100.621094 204.96875 105.277344 Z M 204.96875 105.277344 " fill-opacity="1" fill-rule="nonzero"/></g></g></g><g clip-path="url(#1876668d27)"><g clip-path="url(#54d5abbda9)"><g clip-path="url(#1780a05683)"><path fill="#002d75" d="M 204.679688 107.652344 C 203.804688 106.996094 202.816406 106.417969 201.714844 105.953125 C 197.078125 104.007812 192.242188 103.074219 187.347656 103.171875 C 182.445312 103.273438 177.652344 104.40625 173.101562 106.539062 C 172.019531 107.050781 171.054688 107.667969 170.207031 108.359375 C 170.027344 108.5 169.851562 108.652344 169.683594 108.804688 C 170.9375 112.421875 174.414062 114.984375 178.445312 114.902344 L 185.730469 114.753906 L 185.710938 113.792969 L 183.402344 113.839844 C 182.464844 113.859375 181.6875 113.046875 181.667969 112.027344 C 181.644531 111.003906 182.390625 110.164062 183.328125 110.144531 L 185.636719 110.097656 L 185.589844 107.789062 C 185.570312 106.851562 186.382812 106.070312 187.402344 106.050781 C 188.425781 106.03125 189.269531 106.773438 189.289062 107.710938 L 189.335938 110.019531 L 191.644531 109.972656 C 192.582031 109.953125 193.355469 110.765625 193.378906 111.785156 C 193.398438 112.808594 192.65625 113.652344 191.71875 113.671875 L 189.410156 113.71875 L 189.429688 114.675781 L 196.714844 114.527344 C 200.75 114.445312 204.117188 111.742188 205.222656 108.078125 C 205.046875 107.929688 204.863281 107.789062 204.679688 107.652344 Z M 204.679688 107.652344 " fill-opacity="1" fill-rule="nonzero"/></g></g></g><g clip-path="url(#ddd433f6e9)"><g clip-path="url(#778e61a28a)"><g clip-path="url(#54588fed0e)"><path fill="#ffffff" d="M 205.222656 108.078125 C 205.046875 107.929688 204.863281 107.789062 204.679688 107.652344 C 203.726562 111.179688 200.535156 113.8125 196.703125 113.890625 L 189.417969 114.042969 L 189.441406 115.3125 L 196.726562 115.164062 C 200.9375 115.078125 204.476562 112.3125 205.742188 108.53125 C 205.574219 108.375 205.402344 108.226562 205.222656 108.078125 Z M 178.433594 114.265625 C 174.601562 114.34375 171.304688 111.839844 170.207031 108.359375 C 170.027344 108.5 169.851562 108.652344 169.683594 108.804688 C 169.511719 108.960938 169.34375 109.117188 169.183594 109.277344 C 170.601562 113.003906 174.25 115.625 178.460938 115.539062 L 185.746094 115.390625 L 185.71875 114.117188 Z M 178.433594 114.265625 " fill-opacity="1" fill-rule="nonzero"/></g></g></g><g clip-path="url(#3436d7190d)"><g clip-path="url(#431eebfe72)"><g clip-path="url(#7511fe4e28)"><path fill="#002d75" d="M 209.820312 115.082031 C 209.265625 113.011719 207.945312 110.539062 205.742188 108.53125 C 205.574219 108.375 205.402344 108.226562 205.222656 108.078125 C 205.046875 107.929688 204.863281 107.789062 204.679688 107.652344 C 203.804688 106.996094 202.816406 106.417969 201.714844 105.953125 C 197.078125 104.007812 192.242188 103.074219 187.347656 103.171875 C 182.445312 103.273438 177.652344 104.40625 173.101562 106.539062 C 172.019531 107.050781 171.054688 107.667969 170.207031 108.359375 C 170.027344 108.5 169.851562 108.652344 169.683594 108.804688 C 169.511719 108.960938 169.34375 109.117188 169.183594 109.277344 C 167.066406 111.375 165.847656 113.898438 165.375 115.988281 C 164.808594 118.5 165.144531 120.753906 166.300781 122.160156 C 166.953125 122.976562 167.691406 123.585938 168.457031 124.027344 C 168.660156 124.058594 169.144531 124.117188 169.8125 124.148438 L 169.816406 124.148438 C 170.195312 124.167969 170.628906 124.175781 171.109375 124.164062 C 173.515625 124.117188 176.957031 123.582031 179.125 121.210938 C 179.324219 120.988281 179.515625 120.753906 179.695312 120.5 C 179.894531 120.214844 180.292969 120.144531 180.578125 120.347656 C 180.867188 120.546875 180.9375 120.945312 180.734375 121.230469 C 179.121094 123.53125 176.679688 124.617188 174.375 125.101562 C 175.757812 124.949219 177.179688 124.5625 178.539062 123.964844 C 181.464844 122.59375 184.558594 121.863281 187.726562 121.796875 C 190.890625 121.734375 194.015625 122.335938 197.007812 123.59375 C 198.742188 124.273438 200.578125 124.617188 202.300781 124.582031 C 204.351562 124.539062 207.199219 123.933594 209.144531 121.289062 C 210.246094 119.828125 210.488281 117.570312 209.820312 115.082031 Z M 183.082031 118.867188 C 182.511719 119.460938 181.570312 119.476562 180.976562 118.910156 C 180.382812 118.335938 180.363281 117.394531 180.933594 116.800781 C 181.503906 116.207031 182.445312 116.1875 183.039062 116.757812 C 183.632812 117.328125 183.652344 118.273438 183.082031 118.867188 Z M 189.457031 116.027344 C 189.476562 116.964844 188.664062 117.742188 187.640625 117.761719 C 186.621094 117.78125 185.777344 117.039062 185.761719 116.101562 L 185.710938 113.792969 L 183.402344 113.839844 C 182.464844 113.859375 181.6875 113.046875 181.667969 112.027344 C 181.644531 111.003906 182.390625 110.164062 183.328125 110.144531 L 185.636719 110.097656 L 185.589844 107.789062 C 185.570312 106.851562 186.382812 106.070312 187.402344 106.050781 C 188.421875 106.03125 189.269531 106.773438 189.285156 107.710938 L 189.335938 110.019531 L 191.644531 109.972656 C 192.582031 109.953125 193.355469 110.765625 193.378906 111.785156 C 193.398438 112.808594 192.65625 113.652344 191.71875 113.671875 L 189.410156 113.71875 Z M 189.457031 116.027344 " fill-opacity="1" fill-rule="nonzero"/><path fill="#002d75" d="M 209.820312 115.082031 C 209.265625 113.011719 207.945312 110.539062 205.742188 108.53125 C 205.574219 108.375 205.402344 108.226562 205.222656 108.078125 C 205.046875 107.929688 204.863281 107.789062 204.679688 107.652344 C 203.804688 106.996094 202.816406 106.417969 201.714844 105.953125 C 197.078125 104.007812 192.242188 103.074219 187.347656 103.171875 C 182.445312 103.273438 177.652344 104.40625 173.101562 106.539062 C 172.019531 107.050781 171.054688 107.667969 170.207031 108.359375 C 170.027344 108.5 169.851562 108.652344 169.683594 108.804688 C 169.511719 108.960938 169.34375 109.117188 169.183594 109.277344 C 167.066406 111.375 165.847656 113.898438 165.375 115.988281 C 164.808594 118.5 165.144531 120.753906 166.300781 122.160156 C 166.953125 122.976562 167.691406 123.585938 168.457031 124.027344 C 168.660156 124.058594 169.144531 124.117188 169.8125 124.148438 L 169.816406 124.148438 C 170.195312 124.167969 170.628906 124.175781 171.109375 124.164062 C 173.515625 124.117188 176.957031 123.582031 179.125 121.210938 C 179.324219 120.988281 179.515625 120.753906 179.695312 120.5 C 179.894531 120.214844 180.292969 120.144531 180.578125 120.347656 C 180.867188 120.546875 180.9375 120.945312 180.734375 121.230469 C 179.121094 123.53125 176.679688 124.617188 174.375 125.101562 C 175.757812 124.949219 177.179688 124.5625 178.539062 123.964844 C 181.464844 122.59375 184.558594 121.863281 187.726562 121.796875 C 190.890625 121.734375 194.015625 122.335938 197.007812 123.59375 C 198.742188 124.273438 200.578125 124.617188 202.300781 124.582031 C 204.351562 124.539062 207.199219 123.933594 209.144531 121.289062 C 210.246094 119.828125 210.488281 117.570312 209.820312 115.082031 Z M 183.082031 118.867188 C 182.511719 119.460938 181.570312 119.476562 180.976562 118.910156 C 180.382812 118.335938 180.363281 117.394531 180.933594 116.800781 C 181.503906 116.207031 182.445312 116.1875 183.039062 116.757812 C 183.632812 117.328125 183.652344 118.273438 183.082031 118.867188 Z M 189.457031 116.027344 C 189.476562 116.964844 188.664062 117.742188 187.640625 117.761719 C 186.621094 117.78125 185.777344 117.039062 185.761719 116.101562 L 185.710938 113.792969 L 183.402344 113.839844 C 182.464844 113.859375 181.6875 113.046875 181.667969 112.027344 C 181.644531 111.003906 182.390625 110.164062 183.328125 110.144531 L 185.636719 110.097656 L 185.589844 107.789062 C 185.570312 106.851562 186.382812 106.070312 187.402344 106.050781 C 188.421875 106.03125 189.269531 106.773438 189.285156 107.710938 L 189.335938 110.019531 L 191.644531 109.972656 C 192.582031 109.953125 193.355469 110.765625 193.378906 111.785156 C 193.398438 112.808594 192.65625 113.652344 191.71875 113.671875 L 189.410156 113.71875 Z M 189.457031 116.027344 " fill-opacity="1" fill-rule="nonzero"/></g></g></g><g clip-path="url(#099edf78f2)"><g clip-path="url(#fcfadc6440)"><g clip-path="url(#e6b7562edd)"><path fill="#002d75" d="M 179.125 121.210938 C 176.957031 123.582031 173.515625 124.117188 171.109375 124.164062 C 170.628906 124.175781 170.195312 124.167969 169.816406 124.148438 Z M 179.125 121.210938 " fill-opacity="1" fill-rule="nonzero"/></g></g></g></svg>