<svg xmlns="http://www.w3.org/2000/svg" xmlns:xlink="http://www.w3.org/1999/xlink" width="500" zoomAndPan="magnify" viewBox="0 0 375 374.999991" height="500" preserveAspectRatio="xMidYMid meet" version="1.0"><defs><clipPath id="3fde9d891c"><path d="M 165 229 L 187 229 L 187 262.5 L 165 262.5 Z M 165 229 " clip-rule="nonzero"/></clipPath><clipPath id="bafc986b59"><path d="M 224 140 L 243.03125 140 L 243.03125 173 L 224 173 Z M 224 140 " clip-rule="nonzero"/></clipPath><clipPath id="3fd3c3f529"><path d="M 142 112.5 L 236 112.5 L 236 199 L 142 199 Z M 142 112.5 " clip-rule="nonzero"/></clipPath><clipPath id="ec534cf95b"><path d="M 195 229 L 217 229 L 217 262.5 L 195 262.5 Z M 195 229 " clip-rule="nonzero"/></clipPath><clipPath id="3253157584"><path d="M 169 97 L 205 97 L 205 108 L 169 108 Z M 169 97 " clip-rule="nonzero"/></clipPath><clipPath id="5ac75bbdac"><path d="M 164.253906 98.25 L 209.988281 96.96875 L 210.765625 124.710938 L 165.03125 125.988281 Z M 164.253906 98.25 " clip-rule="nonzero"/></clipPath><clipPath id="cfaa4797bf"><path d="M 164.253906 98.25 L 209.988281 96.96875 L 210.765625 124.710938 L 165.03125 125.988281 Z M 164.253906 98.25 " clip-rule="nonzero"/></clipPath><clipPath id="d7ecb00a3a"><path d="M 169 103 L 206 103 L 206 116 L 169 116 Z M 169 103 " clip-rule="nonzero"/></clipPath><clipPath id="8b51886388"><path d="M 164.253906 98.25 L 209.988281 96.96875 L 210.765625 124.710938 L 165.03125 125.988281 Z M 164.253906 98.25 " clip-rule="nonzero"/></clipPath><clipPath id="09b749d899"><path d="M 164.253906 98.25 L 209.988281 96.96875 L 210.765625 124.710938 L 165.03125 125.988281 Z M 164.253906 98.25 " clip-rule="nonzero"/></clipPath><clipPath id="20044ffcae"><path d="M 169 107 L 206 107 L 206 117 L 169 117 Z M 169 107 " clip-rule="nonzero"/></clipPath><clipPath id="a6a7ec3668"><path d="M 164.253906 98.25 L 209.988281 96.96875 L 210.765625 124.710938 L 165.03125 125.988281 Z M 164.253906 98.25 " clip-rule="nonzero"/></clipPath><clipPath id="8bdb883525"><path d="M 164.253906 98.25 L 209.988281 96.96875 L 210.765625 124.710938 L 165.03125 125.988281 Z M 164.253906 98.25 " clip-rule="nonzero"/></clipPath><clipPath id="34739f7df1"><path d="M 165 103 L 211 103 L 211 126 L 165 126 Z M 165 103 " clip-rule="nonzero"/></clipPath><clipPath id="b97322a91d"><path d="M 164.253906 98.25 L 209.988281 96.96875 L 210.765625 124.710938 L 165.03125 125.988281 Z M 164.253906 98.25 " clip-rule="nonzero"/></clipPath><clipPath id="26b8160878"><path d="M 164.253906 98.25 L 209.988281 96.96875 L 210.765625 124.710938 L 165.03125 125.988281 Z M 164.253906 98.25 " clip-rule="nonzero"/></clipPath><clipPath id="f98a89158c"><path d="M 169 121 L 180 121 L 180 125 L 169 125 Z M 169 121 " clip-rule="nonzero"/></clipPath><clipPath id="7ed71a9cba"><path d="M 164.253906 98.25 L 209.988281 96.96875 L 210.765625 124.710938 L 165.03125 125.988281 Z M 164.253906 98.25 " clip-rule="nonzero"/></clipPath><clipPath id="12027bf73b"><path d="M 164.253906 98.25 L 209.988281 96.96875 L 210.765625 124.710938 L 165.03125 125.988281 Z M 164.253906 98.25 " clip-rule="nonzero"/></clipPath><clipPath id="31a1f6e459"><path d="M 131 195 L 141 195 L 141 206 L 131 206 Z M 131 195 " clip-rule="nonzero"/></clipPath><clipPath id="d9e7d5c994"><path d="M 129.199219 192.289062 L 176.835938 202.644531 L 168.394531 241.488281 L 120.757812 231.132812 Z M 129.199219 192.289062 " clip-rule="nonzero"/></clipPath><clipPath id="28f090220f"><path d="M 129.199219 192.289062 L 176.835938 202.644531 L 168.394531 241.488281 L 120.757812 231.132812 Z M 129.199219 192.289062 " clip-rule="nonzero"/></clipPath><clipPath id="de1f7ada36"><path d="M 129.199219 192.289062 L 176.835938 202.644531 L 168.394531 241.488281 L 120.757812 231.132812 Z M 129.199219 192.289062 " clip-rule="nonzero"/></clipPath><clipPath id="b535ebc3df"><path d="M 135 200 L 158 200 L 158 226 L 135 226 Z M 135 200 " clip-rule="nonzero"/></clipPath><clipPath id="ae7736cb44"><path d="M 129.199219 192.289062 L 176.835938 202.644531 L 168.394531 241.488281 L 120.757812 231.132812 Z M 129.199219 192.289062 " clip-rule="nonzero"/></clipPath><clipPath id="c5560df969"><path d="M 129.199219 192.289062 L 176.835938 202.644531 L 168.394531 241.488281 L 120.757812 231.132812 Z M 129.199219 192.289062 " clip-rule="nonzero"/></clipPath><clipPath id="f053ebb2e2"><path d="M 129.199219 192.289062 L 176.835938 202.644531 L 168.394531 241.488281 L 120.757812 231.132812 Z M 129.199219 192.289062 " clip-rule="nonzero"/></clipPath><clipPath id="cf843416eb"><path d="M 134 200 L 158 200 L 158 226 L 134 226 Z M 134 200 " clip-rule="nonzero"/></clipPath><clipPath id="40707b6572"><path d="M 129.199219 192.289062 L 176.835938 202.644531 L 168.394531 241.488281 L 120.757812 231.132812 Z M 129.199219 192.289062 " clip-rule="nonzero"/></clipPath><clipPath id="784c21807c"><path d="M 129.199219 192.289062 L 176.835938 202.644531 L 168.394531 241.488281 L 120.757812 231.132812 Z M 129.199219 192.289062 " clip-rule="nonzero"/></clipPath><clipPath id="980cecff4c"><path d="M 129.199219 192.289062 L 176.835938 202.644531 L 168.394531 241.488281 L 120.757812 231.132812 Z M 129.199219 192.289062 " clip-rule="nonzero"/></clipPath><clipPath id="348b2c5f32"><path d="M 138 204 L 155 204 L 155 222 L 138 222 Z M 138 204 " clip-rule="nonzero"/></clipPath><clipPath id="f5d44547e4"><path d="M 129.199219 192.289062 L 176.835938 202.644531 L 168.394531 241.488281 L 120.757812 231.132812 Z M 129.199219 192.289062 " clip-rule="nonzero"/></clipPath><clipPath id="5895fbfa2a"><path d="M 129.199219 192.289062 L 176.835938 202.644531 L 168.394531 241.488281 L 120.757812 231.132812 Z M 129.199219 192.289062 " clip-rule="nonzero"/></clipPath><clipPath id="9506efd270"><path d="M 129.199219 192.289062 L 176.835938 202.644531 L 168.394531 241.488281 L 120.757812 231.132812 Z M 129.199219 192.289062 " clip-rule="nonzero"/></clipPath><clipPath id="cccdc1a641"><path d="M 137 203 L 155 203 L 155 223 L 137 223 Z M 137 203 " clip-rule="nonzero"/></clipPath><clipPath id="d4a6bf5942"><path d="M 129.199219 192.289062 L 176.835938 202.644531 L 168.394531 241.488281 L 120.757812 231.132812 Z M 129.199219 192.289062 " clip-rule="nonzero"/></clipPath><clipPath id="4fe4e1643c"><path d="M 129.199219 192.289062 L 176.835938 202.644531 L 168.394531 241.488281 L 120.757812 231.132812 Z M 129.199219 192.289062 " clip-rule="nonzero"/></clipPath><clipPath id="6fa38d5191"><path d="M 129.199219 192.289062 L 176.835938 202.644531 L 168.394531 241.488281 L 120.757812 231.132812 Z M 129.199219 192.289062 " clip-rule="nonzero"/></clipPath><clipPath id="c849b0e998"><path d="M 153 222 L 167 222 L 167 237 L 153 237 Z M 153 222 " clip-rule="nonzero"/></clipPath><clipPath id="fa100a0d75"><path d="M 129.199219 192.289062 L 176.835938 202.644531 L 168.394531 241.488281 L 120.757812 231.132812 Z M 129.199219 192.289062 " clip-rule="nonzero"/></clipPath><clipPath id="653c070c9d"><path d="M 129.199219 192.289062 L 176.835938 202.644531 L 168.394531 241.488281 L 120.757812 231.132812 Z M 129.199219 192.289062 " clip-rule="nonzero"/></clipPath><clipPath id="10f6a75f55"><path d="M 129.199219 192.289062 L 176.835938 202.644531 L 168.394531 241.488281 L 120.757812 231.132812 Z M 129.199219 192.289062 " clip-rule="nonzero"/></clipPath><clipPath id="c2e28a03f2"><path d="M 153 222 L 167 222 L 167 238 L 153 238 Z M 153 222 " clip-rule="nonzero"/></clipPath><clipPath id="0f047a595e"><path d="M 129.199219 192.289062 L 176.835938 202.644531 L 168.394531 241.488281 L 120.757812 231.132812 Z M 129.199219 192.289062 " clip-rule="nonzero"/></clipPath><clipPath id="d804cd0b57"><path d="M 129.199219 192.289062 L 176.835938 202.644531 L 168.394531 241.488281 L 120.757812 231.132812 Z M 129.199219 192.289062 " clip-rule="nonzero"/></clipPath><clipPath id="78d1f3f35a"><path d="M 129.199219 192.289062 L 176.835938 202.644531 L 168.394531 241.488281 L 120.757812 231.132812 Z M 129.199219 192.289062 " clip-rule="nonzero"/></clipPath><clipPath id="e52f300531"><path d="M 162 233 L 170 233 L 170 240 L 162 240 Z M 162 233 " clip-rule="nonzero"/></clipPath><clipPath id="6d6ed4ce84"><path d="M 129.199219 192.289062 L 176.835938 202.644531 L 168.394531 241.488281 L 120.757812 231.132812 Z M 129.199219 192.289062 " clip-rule="nonzero"/></clipPath><clipPath id="17d545703d"><path d="M 129.199219 192.289062 L 176.835938 202.644531 L 168.394531 241.488281 L 120.757812 231.132812 Z M 129.199219 192.289062 " clip-rule="nonzero"/></clipPath><clipPath id="515ec5cc7d"><path d="M 129.199219 192.289062 L 176.835938 202.644531 L 168.394531 241.488281 L 120.757812 231.132812 Z M 129.199219 192.289062 " clip-rule="nonzero"/></clipPath><clipPath id="e264bf7c54"><path d="M 161 233 L 170 233 L 170 241 L 161 241 Z M 161 233 " clip-rule="nonzero"/></clipPath><clipPath id="7a83c64ce5"><path d="M 129.199219 192.289062 L 176.835938 202.644531 L 168.394531 241.488281 L 120.757812 231.132812 Z M 129.199219 192.289062 " clip-rule="nonzero"/></clipPath><clipPath id="865ad6f8f2"><path d="M 129.199219 192.289062 L 176.835938 202.644531 L 168.394531 241.488281 L 120.757812 231.132812 Z M 129.199219 192.289062 " clip-rule="nonzero"/></clipPath><clipPath id="12c1564380"><path d="M 129.199219 192.289062 L 176.835938 202.644531 L 168.394531 241.488281 L 120.757812 231.132812 Z M 129.199219 192.289062 " clip-rule="nonzero"/></clipPath><clipPath id="7eb8acdb95"><path d="M 148 218 L 161 218 L 161 228 L 148 228 Z M 148 218 " clip-rule="nonzero"/></clipPath><clipPath id="e88f49f187"><path d="M 129.199219 192.289062 L 176.835938 202.644531 L 168.394531 241.488281 L 120.757812 231.132812 Z M 129.199219 192.289062 " clip-rule="nonzero"/></clipPath><clipPath id="d76f5a0c70"><path d="M 129.199219 192.289062 L 176.835938 202.644531 L 168.394531 241.488281 L 120.757812 231.132812 Z M 129.199219 192.289062 " clip-rule="nonzero"/></clipPath><clipPath id="db450c2b91"><path d="M 129.199219 192.289062 L 176.835938 202.644531 L 168.394531 241.488281 L 120.757812 231.132812 Z M 129.199219 192.289062 " clip-rule="nonzero"/></clipPath><clipPath id="31e7a13ac8"><path d="M 148 217 L 161 217 L 161 229 L 148 229 Z M 148 217 " clip-rule="nonzero"/></clipPath><clipPath id="188d5f043e"><path d="M 129.199219 192.289062 L 176.835938 202.644531 L 168.394531 241.488281 L 120.757812 231.132812 Z M 129.199219 192.289062 " clip-rule="nonzero"/></clipPath><clipPath id="e8afdc46a8"><path d="M 129.199219 192.289062 L 176.835938 202.644531 L 168.394531 241.488281 L 120.757812 231.132812 Z M 129.199219 192.289062 " clip-rule="nonzero"/></clipPath><clipPath id="faf0f44d4f"><path d="M 129.199219 192.289062 L 176.835938 202.644531 L 168.394531 241.488281 L 120.757812 231.132812 Z M 129.199219 192.289062 " clip-rule="nonzero"/></clipPath><clipPath id="07ca290e2b"><path d="M 129 192 L 133 192 L 133 197 L 129 197 Z M 129 192 " clip-rule="nonzero"/></clipPath><clipPath id="2657cdbaa9"><path d="M 129.199219 192.289062 L 176.835938 202.644531 L 168.394531 241.488281 L 120.757812 231.132812 Z M 129.199219 192.289062 " clip-rule="nonzero"/></clipPath><clipPath id="5f254d0a57"><path d="M 129.199219 192.289062 L 176.835938 202.644531 L 168.394531 241.488281 L 120.757812 231.132812 Z M 129.199219 192.289062 " clip-rule="nonzero"/></clipPath><clipPath id="2b77b3d3aa"><path d="M 129.199219 192.289062 L 176.835938 202.644531 L 168.394531 241.488281 L 120.757812 231.132812 Z M 129.199219 192.289062 " clip-rule="nonzero"/></clipPath><clipPath id="e9ccb1283e"><path d="M 147 217 L 150 217 L 150 220 L 147 220 Z M 147 217 " clip-rule="nonzero"/></clipPath><clipPath id="42781a5c4f"><path d="M 129.199219 192.289062 L 176.835938 202.644531 L 168.394531 241.488281 L 120.757812 231.132812 Z M 129.199219 192.289062 " clip-rule="nonzero"/></clipPath><clipPath id="0f10cad503"><path d="M 129.199219 192.289062 L 176.835938 202.644531 L 168.394531 241.488281 L 120.757812 231.132812 Z M 129.199219 192.289062 " clip-rule="nonzero"/></clipPath><clipPath id="65ae9c00c6"><path d="M 129.199219 192.289062 L 176.835938 202.644531 L 168.394531 241.488281 L 120.757812 231.132812 Z M 129.199219 192.289062 " clip-rule="nonzero"/></clipPath><clipPath id="5c82e3a982"><path d="M 144 214 L 147 214 L 147 216 L 144 216 Z M 144 214 " clip-rule="nonzero"/></clipPath><clipPath id="feef94045a"><path d="M 129.199219 192.289062 L 176.835938 202.644531 L 168.394531 241.488281 L 120.757812 231.132812 Z M 129.199219 192.289062 " clip-rule="nonzero"/></clipPath><clipPath id="1087e8c2b5"><path d="M 129.199219 192.289062 L 176.835938 202.644531 L 168.394531 241.488281 L 120.757812 231.132812 Z M 129.199219 192.289062 " clip-rule="nonzero"/></clipPath><clipPath id="9517da10be"><path d="M 129.199219 192.289062 L 176.835938 202.644531 L 168.394531 241.488281 L 120.757812 231.132812 Z M 129.199219 192.289062 " clip-rule="nonzero"/></clipPath><clipPath id="f94c21c6e0"><path d="M 144 213 L 148 213 L 148 217 L 144 217 Z M 144 213 " clip-rule="nonzero"/></clipPath><clipPath id="34ac657401"><path d="M 129.199219 192.289062 L 176.835938 202.644531 L 168.394531 241.488281 L 120.757812 231.132812 Z M 129.199219 192.289062 " clip-rule="nonzero"/></clipPath><clipPath id="db1d4f075d"><path d="M 129.199219 192.289062 L 176.835938 202.644531 L 168.394531 241.488281 L 120.757812 231.132812 Z M 129.199219 192.289062 " clip-rule="nonzero"/></clipPath><clipPath id="4f9c8a6c3e"><path d="M 129.199219 192.289062 L 176.835938 202.644531 L 168.394531 241.488281 L 120.757812 231.132812 Z M 129.199219 192.289062 " clip-rule="nonzero"/></clipPath><clipPath id="e60c01d511"><path d="M 141 210 L 144 210 L 144 213 L 141 213 Z M 141 210 " clip-rule="nonzero"/></clipPath><clipPath id="586399c91a"><path d="M 129.199219 192.289062 L 176.835938 202.644531 L 168.394531 241.488281 L 120.757812 231.132812 Z M 129.199219 192.289062 " clip-rule="nonzero"/></clipPath><clipPath id="9e67527fa3"><path d="M 129.199219 192.289062 L 176.835938 202.644531 L 168.394531 241.488281 L 120.757812 231.132812 Z M 129.199219 192.289062 " clip-rule="nonzero"/></clipPath><clipPath id="bf177e59fe"><path d="M 129.199219 192.289062 L 176.835938 202.644531 L 168.394531 241.488281 L 120.757812 231.132812 Z M 129.199219 192.289062 " clip-rule="nonzero"/></clipPath><clipPath id="b7a6fcbd2f"><path d="M 141 210 L 145 210 L 145 213 L 141 213 Z M 141 210 " clip-rule="nonzero"/></clipPath><clipPath id="79249bb9c0"><path d="M 129.199219 192.289062 L 176.835938 202.644531 L 168.394531 241.488281 L 120.757812 231.132812 Z M 129.199219 192.289062 " clip-rule="nonzero"/></clipPath><clipPath id="33c37b1e55"><path d="M 129.199219 192.289062 L 176.835938 202.644531 L 168.394531 241.488281 L 120.757812 231.132812 Z M 129.199219 192.289062 " clip-rule="nonzero"/></clipPath><clipPath id="e231585c75"><path d="M 129.199219 192.289062 L 176.835938 202.644531 L 168.394531 241.488281 L 120.757812 231.132812 Z M 129.199219 192.289062 " clip-rule="nonzero"/></clipPath><clipPath id="10d21fe22b"><path d="M 133 196 L 138 196 L 138 203 L 133 203 Z M 133 196 " clip-rule="nonzero"/></clipPath><clipPath id="2b1491ea87"><path d="M 129.199219 192.289062 L 176.835938 202.644531 L 168.394531 241.488281 L 120.757812 231.132812 Z M 129.199219 192.289062 " clip-rule="nonzero"/></clipPath><clipPath id="7053300b08"><path d="M 129.199219 192.289062 L 176.835938 202.644531 L 168.394531 241.488281 L 120.757812 231.132812 Z M 129.199219 192.289062 " clip-rule="nonzero"/></clipPath><clipPath id="5a1afa56fc"><path d="M 129.199219 192.289062 L 176.835938 202.644531 L 168.394531 241.488281 L 120.757812 231.132812 Z M 129.199219 192.289062 " clip-rule="nonzero"/></clipPath><clipPath id="8afa7cc3eb"><path d="M 141 205 L 153 205 L 153 219 L 141 219 Z M 141 205 " clip-rule="nonzero"/></clipPath><clipPath id="af2c3cb899"><path d="M 129.199219 192.289062 L 176.835938 202.644531 L 168.394531 241.488281 L 120.757812 231.132812 Z M 129.199219 192.289062 " clip-rule="nonzero"/></clipPath><clipPath id="199480d897"><path d="M 129.199219 192.289062 L 176.835938 202.644531 L 168.394531 241.488281 L 120.757812 231.132812 Z M 129.199219 192.289062 " clip-rule="nonzero"/></clipPath><clipPath id="b29f3bbee7"><path d="M 129.199219 192.289062 L 176.835938 202.644531 L 168.394531 241.488281 L 120.757812 231.132812 Z M 129.199219 192.289062 " clip-rule="nonzero"/></clipPath><clipPath id="d856b7fdf7"><path d="M 155 224 L 165 224 L 165 236 L 155 236 Z M 155 224 " clip-rule="nonzero"/></clipPath><clipPath id="08681d2b0f"><path d="M 129.199219 192.289062 L 176.835938 202.644531 L 168.394531 241.488281 L 120.757812 231.132812 Z M 129.199219 192.289062 " clip-rule="nonzero"/></clipPath><clipPath id="9489dad22b"><path d="M 129.199219 192.289062 L 176.835938 202.644531 L 168.394531 241.488281 L 120.757812 231.132812 Z M 129.199219 192.289062 " clip-rule="nonzero"/></clipPath><clipPath id="268218ddba"><path d="M 129.199219 192.289062 L 176.835938 202.644531 L 168.394531 241.488281 L 120.757812 231.132812 Z M 129.199219 192.289062 " clip-rule="nonzero"/></clipPath><clipPath id="b6cde6a4bb"><path d="M 164 234 L 169 234 L 169 239 L 164 239 Z M 164 234 " clip-rule="nonzero"/></clipPath><clipPath id="e941a0f164"><path d="M 129.199219 192.289062 L 176.835938 202.644531 L 168.394531 241.488281 L 120.757812 231.132812 Z M 129.199219 192.289062 " clip-rule="nonzero"/></clipPath><clipPath id="6d79b71ed4"><path d="M 129.199219 192.289062 L 176.835938 202.644531 L 168.394531 241.488281 L 120.757812 231.132812 Z M 129.199219 192.289062 " clip-rule="nonzero"/></clipPath><clipPath id="f38b085cb0"><path d="M 129.199219 192.289062 L 176.835938 202.644531 L 168.394531 241.488281 L 120.757812 231.132812 Z M 129.199219 192.289062 " clip-rule="nonzero"/></clipPath></defs><g clip-path="url(#3fde9d891c)"><path fill="#f6f6f6" d="M 186.492188 244.222656 C 186.472656 245.320312 186.441406 246.445312 186.394531 247.558594 C 186.203125 252.394531 185.746094 257.011719 184.75 258.652344 C 182.359375 262.59375 168.011719 264.03125 165.980469 260.445312 C 163.945312 256.859375 170.640625 253.394531 170.640625 253.394531 C 170.132812 252 170.007812 249.5625 170.105469 246.769531 C 170.140625 245.699219 170.210938 244.578125 170.300781 243.445312 C 170.8125 237.128906 172.027344 230.410156 172.316406 229.976562 L 186.425781 233.5625 C 186.425781 233.5625 186.59375 238.601562 186.492188 244.222656 Z M 186.492188 244.222656 " fill-opacity="1" fill-rule="nonzero"/></g><path fill="#f6f6f6" d="M 233.269531 144.101562 C 233.089844 144.097656 234.761719 124.722656 234.761719 124.722656 L 239.335938 124.753906 C 239.335938 124.753906 240.007812 148.695312 239.558594 148.730469 C 239.109375 148.769531 233.269531 144.101562 233.269531 144.101562 Z M 233.269531 144.101562 " fill-opacity="1" fill-rule="nonzero"/><path fill="#f6f6f6" d="M 241.050781 121.417969 C 241.050781 121.6875 241.023438 121.953125 240.972656 122.21875 C 240.917969 122.484375 240.84375 122.738281 240.738281 122.988281 C 240.636719 123.238281 240.507812 123.472656 240.359375 123.695312 C 240.210938 123.921875 240.039062 124.128906 239.847656 124.316406 C 239.660156 124.507812 239.453125 124.679688 239.226562 124.828125 C 239.003906 124.976562 238.765625 125.105469 238.519531 125.207031 C 238.269531 125.308594 238.011719 125.386719 237.75 125.441406 C 237.484375 125.492188 237.21875 125.519531 236.949219 125.519531 C 236.679688 125.519531 236.414062 125.492188 236.148438 125.441406 C 235.882812 125.386719 235.628906 125.308594 235.378906 125.207031 C 235.128906 125.105469 234.894531 124.976562 234.667969 124.828125 C 234.445312 124.679688 234.238281 124.507812 234.046875 124.316406 C 233.855469 124.128906 233.6875 123.921875 233.539062 123.695312 C 233.386719 123.472656 233.261719 123.238281 233.160156 122.988281 C 233.054688 122.738281 232.976562 122.484375 232.925781 122.21875 C 232.871094 121.953125 232.847656 121.6875 232.847656 121.417969 C 232.847656 121.148438 232.871094 120.882812 232.925781 120.621094 C 232.976562 120.355469 233.054688 120.097656 233.160156 119.851562 C 233.261719 119.601562 233.386719 119.363281 233.539062 119.140625 C 233.6875 118.917969 233.855469 118.710938 234.046875 118.519531 C 234.238281 118.328125 234.445312 118.160156 234.667969 118.011719 C 234.894531 117.859375 235.128906 117.734375 235.378906 117.632812 C 235.628906 117.527344 235.882812 117.449219 236.148438 117.398438 C 236.414062 117.34375 236.679688 117.320312 236.949219 117.320312 C 237.21875 117.320312 237.484375 117.34375 237.75 117.398438 C 238.011719 117.449219 238.269531 117.527344 238.519531 117.632812 C 238.765625 117.734375 239.003906 117.859375 239.226562 118.011719 C 239.453125 118.160156 239.660156 118.328125 239.851562 118.519531 C 240.039062 118.710938 240.210938 118.917969 240.359375 119.140625 C 240.507812 119.363281 240.636719 119.601562 240.738281 119.851562 C 240.84375 120.097656 240.917969 120.355469 240.972656 120.621094 C 241.023438 120.882812 241.050781 121.148438 241.050781 121.417969 Z M 241.050781 121.417969 " fill-opacity="1" fill-rule="nonzero"/><g clip-path="url(#bafc986b59)"><path fill="#54a3e6" d="M 235.214844 172.027344 L 233.308594 172.089844 C 228.851562 172.238281 225.121094 168.746094 224.972656 164.296875 L 224.476562 149.25 C 224.328125 144.796875 227.816406 141.070312 232.273438 140.921875 L 234.179688 140.859375 C 238.636719 140.710938 242.367188 144.199219 242.515625 148.652344 L 243.015625 163.699219 C 243.164062 168.148438 239.671875 171.878906 235.214844 172.027344 Z M 235.214844 172.027344 " fill-opacity="1" fill-rule="nonzero"/></g><path fill="#f6f6f6" d="M 143.726562 146.386719 C 143.90625 146.367188 140.339844 127.246094 140.339844 127.246094 L 135.792969 127.726562 C 135.792969 127.726562 137.472656 151.621094 137.921875 151.613281 C 138.375 151.605469 143.726562 146.386719 143.726562 146.386719 Z M 143.726562 146.386719 " fill-opacity="1" fill-rule="nonzero"/><path fill="#f6f6f6" d="M 140.742188 121.277344 C 140.933594 121.464844 141.101562 121.671875 141.253906 121.898438 C 141.402344 122.121094 141.527344 122.359375 141.632812 122.605469 C 141.734375 122.855469 141.8125 123.113281 141.867188 123.375 C 141.917969 123.640625 141.945312 123.90625 141.945312 124.175781 C 141.945312 124.445312 141.917969 124.710938 141.867188 124.976562 C 141.8125 125.238281 141.734375 125.496094 141.632812 125.746094 C 141.527344 125.992188 141.402344 126.230469 141.253906 126.453125 C 141.101562 126.675781 140.933594 126.882812 140.742188 127.074219 C 140.550781 127.265625 140.34375 127.433594 140.121094 127.585938 C 139.898438 127.734375 139.660156 127.859375 139.410156 127.964844 C 139.164062 128.066406 138.90625 128.144531 138.640625 128.195312 C 138.378906 128.25 138.109375 128.277344 137.839844 128.277344 C 137.570312 128.277344 137.304688 128.25 137.042969 128.195312 C 136.777344 128.144531 136.519531 128.066406 136.273438 127.964844 C 136.023438 127.859375 135.785156 127.734375 135.5625 127.585938 C 135.339844 127.433594 135.132812 127.265625 134.941406 127.074219 C 134.75 126.882812 134.578125 126.675781 134.429688 126.453125 C 134.28125 126.230469 134.15625 125.992188 134.050781 125.746094 C 133.949219 125.496094 133.871094 125.238281 133.816406 124.976562 C 133.765625 124.710938 133.738281 124.445312 133.738281 124.175781 C 133.738281 123.90625 133.765625 123.640625 133.816406 123.375 C 133.871094 123.113281 133.949219 122.855469 134.050781 122.605469 C 134.15625 122.359375 134.28125 122.121094 134.429688 121.898438 C 134.578125 121.671875 134.75 121.464844 134.941406 121.277344 C 135.132812 121.085938 135.339844 120.914062 135.5625 120.765625 C 135.785156 120.617188 136.023438 120.492188 136.273438 120.386719 C 136.519531 120.285156 136.777344 120.207031 137.042969 120.152344 C 137.304688 120.101562 137.570312 120.074219 137.839844 120.074219 C 138.109375 120.074219 138.378906 120.101562 138.640625 120.152344 C 138.90625 120.207031 139.164062 120.285156 139.410156 120.386719 C 139.660156 120.492188 139.898438 120.617188 140.121094 120.765625 C 140.34375 120.914062 140.550781 121.085938 140.742188 121.277344 Z M 140.742188 121.277344 " fill-opacity="1" fill-rule="nonzero"/><path fill="#54a3e6" d="M 144.53125 174.367188 L 146.4375 174.246094 C 150.882812 173.957031 154.253906 170.117188 153.964844 165.671875 L 152.984375 150.648438 C 152.695312 146.203125 148.855469 142.835938 144.40625 143.125 L 142.503906 143.25 C 138.054688 143.539062 134.683594 147.375 134.972656 151.820312 L 135.953125 166.84375 C 136.242188 171.289062 140.082031 174.660156 144.53125 174.367188 Z M 144.53125 174.367188 " fill-opacity="1" fill-rule="nonzero"/><g clip-path="url(#3fd3c3f529)"><path fill="#f6f6f6" d="M 235.664062 157.539062 C 236.714844 181.214844 216.902344 197.222656 191.324219 198.355469 C 165.746094 199.492188 144.085938 185.324219 143.035156 161.648438 C 141.984375 137.96875 151.539062 114.582031 187.515625 112.617188 C 223.699219 110.640625 234.613281 133.863281 235.664062 157.539062 Z M 235.664062 157.539062 " fill-opacity="1" fill-rule="nonzero"/></g><path fill="#160e0b" d="M 172.335938 132.242188 C 172.335938 132.242188 156.765625 133.769531 154.023438 147.347656 C 151.441406 160.140625 151.171875 181.597656 176.308594 187.277344 C 201.441406 192.960938 221.222656 182.898438 225.6875 166.484375 C 230.148438 150.066406 224.414062 135.75 214.898438 132.71875 C 201.8125 128.554688 172.335938 132.242188 172.335938 132.242188 Z M 172.335938 132.242188 " fill-opacity="1" fill-rule="nonzero"/><path fill="#54a3e6" d="M 208.8125 146.363281 C 209.179688 146.367188 209.542969 146.425781 209.90625 146.53125 C 210.265625 146.640625 210.613281 146.796875 210.949219 147 C 211.289062 147.203125 211.609375 147.449219 211.910156 147.742188 C 212.210938 148.035156 212.488281 148.367188 212.746094 148.738281 C 213 149.109375 213.226562 149.511719 213.421875 149.945312 C 213.621094 150.378906 213.785156 150.835938 213.917969 151.316406 C 214.050781 151.796875 214.152344 152.292969 214.214844 152.800781 C 214.277344 153.3125 214.304688 153.824219 214.296875 154.34375 C 214.285156 154.859375 214.242188 155.371094 214.160156 155.878906 C 214.082031 156.386719 213.964844 156.875 213.816406 157.351562 C 213.667969 157.828125 213.488281 158.28125 213.273438 158.707031 C 213.0625 159.132812 212.824219 159.527344 212.554688 159.890625 C 212.289062 160.25 212 160.574219 211.6875 160.855469 C 211.375 161.136719 211.046875 161.375 210.703125 161.566406 C 210.359375 161.761719 210.007812 161.902344 209.640625 162 C 209.277344 162.09375 208.914062 162.136719 208.542969 162.132812 C 208.175781 162.125 207.808594 162.070312 207.449219 161.960938 C 207.089844 161.855469 206.742188 161.699219 206.402344 161.496094 C 206.066406 161.292969 205.746094 161.042969 205.445312 160.75 C 205.144531 160.457031 204.863281 160.125 204.609375 159.753906 C 204.355469 159.386719 204.128906 158.984375 203.929688 158.546875 C 203.734375 158.113281 203.570312 157.65625 203.433594 157.175781 C 203.300781 156.695312 203.203125 156.203125 203.140625 155.691406 C 203.078125 155.183594 203.050781 154.667969 203.058594 154.152344 C 203.066406 153.632812 203.113281 153.121094 203.191406 152.617188 C 203.273438 152.109375 203.386719 151.617188 203.539062 151.140625 C 203.6875 150.664062 203.867188 150.214844 204.078125 149.789062 C 204.292969 149.359375 204.53125 148.964844 204.800781 148.605469 C 205.066406 148.242188 205.355469 147.921875 205.667969 147.636719 C 205.980469 147.355469 206.304688 147.117188 206.652344 146.925781 C 206.996094 146.734375 207.347656 146.589844 207.710938 146.496094 C 208.074219 146.398438 208.441406 146.355469 208.8125 146.363281 Z M 208.8125 146.363281 " fill-opacity="1" fill-rule="nonzero"/><path fill="#54a3e6" d="M 171.488281 147.164062 C 171.855469 147.171875 172.222656 147.230469 172.582031 147.335938 C 172.941406 147.441406 173.289062 147.597656 173.628906 147.800781 C 173.964844 148.007812 174.285156 148.253906 174.585938 148.546875 C 174.890625 148.839844 175.167969 149.171875 175.421875 149.542969 C 175.675781 149.914062 175.902344 150.316406 176.101562 150.75 C 176.296875 151.183594 176.464844 151.640625 176.597656 152.121094 C 176.730469 152.601562 176.828125 153.097656 176.890625 153.605469 C 176.953125 154.113281 176.980469 154.628906 176.972656 155.144531 C 176.964844 155.664062 176.917969 156.175781 176.839844 156.683594 C 176.757812 157.1875 176.644531 157.679688 176.492188 158.15625 C 176.34375 158.632812 176.164062 159.082031 175.953125 159.511719 C 175.738281 159.9375 175.5 160.332031 175.234375 160.695312 C 174.964844 161.054688 174.675781 161.378906 174.363281 161.660156 C 174.054688 161.941406 173.726562 162.179688 173.382812 162.371094 C 173.035156 162.5625 172.683594 162.707031 172.320312 162.800781 C 171.957031 162.898438 171.589844 162.941406 171.222656 162.9375 C 170.851562 162.929688 170.488281 162.871094 170.128906 162.765625 C 169.765625 162.660156 169.417969 162.503906 169.082031 162.300781 C 168.742188 162.09375 168.425781 161.847656 168.121094 161.554688 C 167.820312 161.261719 167.542969 160.929688 167.289062 160.558594 C 167.03125 160.1875 166.804688 159.785156 166.609375 159.351562 C 166.410156 158.917969 166.246094 158.460938 166.113281 157.980469 C 165.980469 157.5 165.882812 157.003906 165.816406 156.496094 C 165.753906 155.988281 165.726562 155.472656 165.734375 154.957031 C 165.746094 154.4375 165.789062 153.925781 165.871094 153.417969 C 165.949219 152.914062 166.066406 152.421875 166.214844 151.945312 C 166.363281 151.46875 166.546875 151.019531 166.757812 150.589844 C 166.96875 150.164062 167.210938 149.769531 167.476562 149.40625 C 167.742188 149.046875 168.03125 148.722656 168.34375 148.441406 C 168.65625 148.160156 168.984375 147.921875 169.328125 147.730469 C 169.671875 147.539062 170.027344 147.394531 170.390625 147.296875 C 170.753906 147.203125 171.121094 147.160156 171.488281 147.164062 Z M 171.488281 147.164062 " fill-opacity="1" fill-rule="nonzero"/><path fill="#54a3e6" d="M 167.914062 162.246094 C 167.914062 162.246094 167.910156 162.246094 167.910156 162.246094 C 167.910156 162.246094 167.914062 162.246094 167.914062 162.246094 Z M 167.914062 162.246094 Z M 165.433594 151.351562 C 165.433594 151.351562 165.433594 151.351562 165.4375 151.351562 C 165.433594 151.351562 165.433594 151.351562 165.433594 151.351562 Z M 165.433594 151.351562 Z M 165.433594 151.351562 " fill-opacity="1" fill-rule="nonzero"/><path fill="#f6f6f6" d="M 217.03125 223.40625 C 213.5625 238.21875 176.976562 243.957031 168.730469 228.542969 C 166.148438 223.722656 165.265625 218.304688 165.285156 213.113281 C 165.289062 212.003906 165.335938 210.90625 165.414062 209.824219 C 166.15625 199.796875 169.792969 191.347656 170.164062 190.90625 L 211.53125 192.097656 C 211.53125 192.097656 216.011719 200.335938 217.414062 210.402344 C 217.5625 211.457031 217.675781 212.53125 217.746094 213.617188 C 217.953125 216.832031 217.789062 220.160156 217.03125 223.40625 Z M 217.03125 223.40625 " fill-opacity="1" fill-rule="nonzero"/><path fill="#f6f6f6" d="M 152.921875 234.160156 C 156.269531 243 162.375 242.65625 163.117188 241 C 163.855469 239.339844 162.890625 237.300781 161.433594 235.039062 C 159.976562 232.777344 160.222656 227.824219 160.378906 228.003906 C 160.539062 228.183594 162.285156 232.6875 164.28125 232.574219 C 166.277344 232.464844 167.398438 229.664062 166.007812 227.042969 C 164.617188 224.421875 163.453125 222.851562 163.316406 221.148438 C 163.238281 220.148438 163.683594 216.40625 164.292969 213 C 164.308594 212.914062 164.324219 212.828125 164.339844 212.746094 C 164.542969 211.632812 164.761719 210.566406 164.984375 209.652344 C 164.984375 209.640625 164.988281 209.628906 164.992188 209.617188 C 165.164062 208.910156 165.339844 208.292969 165.511719 207.820312 C 165.570312 207.652344 165.632812 207.5 165.691406 207.371094 C 166.8125 204.953125 170.535156 196.796875 171.273438 195.832031 C 172.015625 194.871094 174.203125 192.695312 174.203125 192.695312 C 174.0625 192.601562 172.632812 192.25 170.566406 192.429688 C 167.363281 192.707031 162.628906 194.25 158.78125 199.984375 C 157.632812 201.699219 156.59375 203.625 155.691406 205.679688 C 155.582031 205.921875 155.480469 206.167969 155.375 206.414062 C 155.070312 207.148438 154.777344 207.894531 154.503906 208.652344 C 154.480469 208.71875 154.457031 208.785156 154.433594 208.847656 C 151.34375 217.546875 150.484375 227.722656 152.921875 234.160156 Z M 152.921875 234.160156 " fill-opacity="1" fill-rule="nonzero"/><path fill="#54a3e6" d="M 154.433594 208.847656 C 156.226562 210.320312 160.527344 213.433594 164.292969 213 C 164.308594 212.914062 164.324219 212.828125 164.339844 212.746094 C 164.542969 211.632812 164.761719 210.566406 164.984375 209.652344 C 163.785156 209.480469 158.234375 208.585938 155.375 206.414062 C 155.070312 207.148438 154.777344 207.894531 154.503906 208.652344 C 154.480469 208.71875 154.457031 208.78125 154.433594 208.847656 Z M 154.433594 208.847656 " fill-opacity="1" fill-rule="nonzero"/><path fill="#54a3e6" d="M 186.492188 244.222656 C 186.472656 245.320312 186.441406 246.445312 186.394531 247.558594 C 184.890625 247.949219 183.347656 248.203125 181.796875 248.339844 C 179.972656 248.503906 178.132812 248.472656 176.316406 248.25 C 174.367188 248.007812 172.449219 247.605469 170.59375 246.949219 C 170.429688 246.890625 170.265625 246.832031 170.105469 246.769531 C 170.140625 245.699219 170.210938 244.578125 170.300781 243.445312 C 170.300781 243.445312 170.304688 243.445312 170.304688 243.445312 C 170.304688 243.445312 170.308594 243.445312 170.308594 243.445312 C 172.21875 244.230469 174.222656 244.765625 176.265625 245.058594 C 176.691406 245.113281 177.117188 245.15625 177.542969 245.1875 C 179.265625 245.316406 181 245.273438 182.714844 245.058594 C 183.996094 244.875 185.257812 244.597656 186.492188 244.21875 Z M 186.492188 244.222656 " fill-opacity="1" fill-rule="nonzero"/><g clip-path="url(#ec534cf95b)"><path fill="#f6f6f6" d="M 195.519531 244.222656 C 195.539062 245.320312 195.570312 246.445312 195.613281 247.558594 C 195.808594 252.394531 196.265625 257.011719 197.257812 258.652344 C 199.652344 262.59375 213.996094 264.03125 216.03125 260.445312 C 218.0625 256.859375 211.367188 253.394531 211.367188 253.394531 C 211.878906 252 212 249.5625 211.902344 246.769531 C 211.867188 245.699219 211.800781 244.578125 211.707031 243.445312 C 211.195312 237.128906 209.984375 230.410156 209.691406 229.976562 L 195.585938 233.5625 C 195.585938 233.5625 195.414062 238.601562 195.515625 244.222656 Z M 195.519531 244.222656 " fill-opacity="1" fill-rule="nonzero"/></g><path fill="#54a3e6" d="M 195.519531 244.222656 C 195.539062 245.320312 195.570312 246.445312 195.613281 247.558594 C 197.121094 247.949219 198.664062 248.203125 200.214844 248.339844 C 202.035156 248.503906 203.875 248.472656 205.691406 248.25 C 207.644531 248.007812 209.558594 247.605469 211.417969 246.949219 C 211.578125 246.890625 211.742188 246.832031 211.90625 246.769531 C 211.867188 245.699219 211.800781 244.578125 211.707031 243.445312 C 211.707031 243.445312 211.707031 243.445312 211.703125 243.445312 C 211.703125 243.445312 211.703125 243.445312 211.699219 243.445312 C 209.789062 244.230469 207.785156 244.765625 205.742188 245.058594 C 205.316406 245.113281 204.894531 245.15625 204.46875 245.1875 C 202.742188 245.316406 201.007812 245.273438 199.292969 245.058594 C 198.015625 244.875 196.75 244.597656 195.515625 244.21875 Z M 195.519531 244.222656 " fill-opacity="1" fill-rule="nonzero"/><path fill="#54a3e6" d="M 188.867188 243.363281 C 188.742188 243.414062 188.613281 243.46875 188.488281 243.523438 C 188.542969 243.5 188.597656 243.472656 188.65625 243.449219 C 188.726562 243.421875 188.796875 243.390625 188.867188 243.363281 Z M 188.867188 243.363281 " fill-opacity="1" fill-rule="nonzero"/><path fill="#54a3e6" d="M 217.742188 213.617188 C 217.363281 213.722656 216.984375 213.824219 216.597656 213.917969 C 213.800781 214.609375 210.925781 214.9375 208.054688 215.152344 C 205.199219 215.367188 202.339844 215.539062 199.480469 215.703125 C 196.613281 215.867188 193.738281 215.996094 190.863281 216.042969 C 187.984375 216.09375 185.097656 216.058594 182.21875 215.898438 C 179.433594 215.742188 176.65625 215.457031 173.898438 215.03125 C 171.554688 214.671875 169.226562 214.195312 166.933594 213.582031 C 166.65625 213.507812 166.378906 213.429688 166.105469 213.351562 C 165.832031 213.273438 165.558594 213.195312 165.285156 213.113281 C 165.289062 212.003906 165.335938 210.90625 165.414062 209.824219 C 166.976562 210.316406 168.554688 210.734375 170.152344 211.09375 C 172.0625 211.527344 173.992188 211.867188 175.929688 212.132812 C 176.136719 212.160156 176.339844 212.1875 176.542969 212.210938 C 178.789062 212.488281 181.046875 212.667969 183.308594 212.769531 C 185.710938 212.878906 188.117188 212.902344 190.523438 212.867188 C 192.933594 212.832031 195.339844 212.738281 197.746094 212.613281 C 200.152344 212.488281 202.554688 212.335938 204.960938 212.179688 C 207.246094 212.03125 209.535156 211.890625 211.808594 211.601562 C 212.617188 211.488281 213.425781 211.355469 214.226562 211.191406 C 215.300781 210.972656 216.363281 210.707031 217.414062 210.398438 C 217.558594 211.457031 217.671875 212.53125 217.742188 213.617188 Z M 217.742188 213.617188 " fill-opacity="1" fill-rule="nonzero"/><path fill="#54a3e6" d="M 225.910156 206.226562 C 225.875 206.253906 225.824219 206.21875 225.761719 206.128906 C 225.933594 206.121094 226.007812 206.148438 225.910156 206.226562 Z M 225.910156 206.226562 " fill-opacity="1" fill-rule="nonzero"/><path fill="#f6f6f6" d="M 207.832031 193.707031 C 207.832031 193.707031 209.175781 191.777344 212.898438 193.480469 C 216.617188 195.183594 225.40625 205.9375 224.957031 209.074219 C 224.507812 212.210938 213.792969 208.535156 211.957031 207.28125 C 210.117188 206.027344 209.535156 201.816406 209.042969 201.234375 C 208.546875 200.652344 208.324219 197.199219 208.414062 197.019531 " fill-opacity="1" fill-rule="nonzero"/><path fill="#f6f6f6" d="M 209.042969 201.234375 C 209.265625 201.199219 221.59375 202.980469 224.554688 207.371094 C 227.515625 211.761719 220.472656 219.289062 215.992188 219.109375 C 211.507812 218.929688 203.796875 216.46875 202.539062 214.449219 C 201.285156 212.433594 206.890625 201.546875 209.042969 201.234375 Z M 209.042969 201.234375 " fill-opacity="1" fill-rule="nonzero"/><path fill="#f6f6f6" d="M 199.894531 213.464844 C 199.894531 213.464844 191.40625 207.582031 190.269531 204.234375 C 189.132812 200.890625 190.839844 199.457031 190.839844 199.457031 C 190.839844 199.457031 190.121094 196.320312 191.105469 194.914062 C 192.09375 193.511719 193.527344 193.421875 193.527344 193.449219 C 193.527344 193.480469 193.679688 190.582031 196.847656 189.898438 C 200.015625 189.210938 202.523438 192.105469 205.484375 194.855469 C 208.445312 197.601562 211.671875 199.125 212.089844 202.859375 C 212.507812 206.59375 209.3125 212.597656 205.84375 213.644531 C 202.375 214.691406 199.894531 213.464844 199.894531 213.464844 Z M 199.894531 213.464844 " fill-opacity="1" fill-rule="nonzero"/><path fill="#f6f6f6" d="M 205.125 197.273438 C 205.097656 197.09375 204.4375 192.496094 207.1875 192.167969 C 209.9375 191.839844 211.703125 196.199219 211.164062 199.457031 C 210.625 202.710938 209.699219 202.085938 208.652344 201.515625 C 207.605469 200.949219 205.125 197.273438 205.125 197.273438 Z M 205.125 197.273438 " fill-opacity="1" fill-rule="nonzero"/><path stroke-linecap="round" transform="matrix(0.0327211, 0, 0, 0.0327004, 107.598453, 105.557695)" fill="none" stroke-linejoin="round" d="M 3161.756746 2889.06456 C 3162.950546 2883.689052 3164.024967 2877.835721 3165.099388 2871.504566 C 3181.573837 2771.878479 3127.614046 2638.565872 3043.570478 2648.600154 C 3004.294436 2653.258928 2987.700606 2686.58708 2981.373463 2721.3487 C 2895.300433 2640.238252 2820.687891 2558.888893 2727.571437 2579.196369 C 2630.754202 2600.101123 2626.098379 2688.737283 2626.098379 2687.901093 C 2626.098379 2686.945447 2582.285894 2689.692929 2552.202117 2732.57754 C 2521.99896 2775.581606 2543.964892 2871.504566 2543.964892 2871.504566 C 2543.964892 2871.504566 2491.915183 2915.344823 2526.535402 3017.598937 C 2561.275002 3119.972507 2820.687891 3299.872853 2820.687891 3299.872853 " stroke="#160e0b" stroke-width="14" stroke-opacity="1" stroke-miterlimit="4"/><path fill="#160e0b" d="M 193.703125 193.988281 C 194.300781 193.976562 194.882812 194.113281 195.40625 194.398438 C 195.914062 194.675781 196.351562 195.058594 196.769531 195.457031 C 197.664062 196.300781 198.554688 197.160156 199.394531 198.058594 C 199.871094 198.570312 200.332031 199.097656 200.761719 199.648438 C 200.847656 199.757812 201.035156 199.734375 201.125 199.648438 C 201.234375 199.539062 201.210938 199.394531 201.125 199.285156 C 200.328125 198.265625 199.433594 197.328125 198.511719 196.421875 C 198.0625 195.980469 197.613281 195.542969 197.15625 195.113281 C 196.71875 194.699219 196.261719 194.296875 195.742188 193.996094 C 195.121094 193.640625 194.421875 193.460938 193.707031 193.476562 C 193.375 193.480469 193.375 193.996094 193.707031 193.988281 Z M 193.703125 193.988281 " fill-opacity="1" fill-rule="nonzero"/><path fill="#160e0b" d="M 191.195312 199.59375 C 192.296875 199.457031 193.25 200.089844 194.027344 200.800781 C 194.863281 201.5625 195.648438 202.386719 196.410156 203.222656 C 196.847656 203.703125 197.273438 204.191406 197.691406 204.6875 C 197.90625 204.941406 198.265625 204.574219 198.054688 204.324219 C 197.28125 203.40625 196.476562 202.515625 195.636719 201.65625 C 194.855469 200.859375 194.050781 199.96875 193.046875 199.457031 C 192.476562 199.167969 191.835938 199 191.195312 199.078125 C 191.054688 199.09375 190.9375 199.183594 190.9375 199.335938 C 190.9375 199.460938 191.054688 199.609375 191.195312 199.59375 Z M 191.195312 199.59375 " fill-opacity="1" fill-rule="nonzero"/><path fill="#160e0b" d="M 205.152344 194.945312 C 206.421875 196.191406 207.648438 197.476562 208.828125 198.804688 C 209.050781 199.050781 209.410156 198.6875 209.191406 198.441406 C 208.011719 197.113281 206.785156 195.828125 205.515625 194.582031 C 205.28125 194.351562 204.917969 194.714844 205.152344 194.945312 Z M 205.152344 194.945312 " fill-opacity="1" fill-rule="nonzero"/><path fill="#160e0b" d="M 210.457031 200.800781 C 213.300781 201.21875 215.859375 202.691406 217.980469 204.585938 C 218.589844 205.128906 219.164062 205.703125 219.710938 206.308594 C 219.96875 206.589844 220.382812 206.171875 220.128906 205.890625 C 218.160156 203.722656 215.777344 201.84375 213 200.835938 C 212.226562 200.554688 211.429688 200.351562 210.613281 200.230469 C 210.457031 200.207031 210.296875 200.269531 210.25 200.4375 C 210.214844 200.578125 210.300781 200.777344 210.457031 200.800781 Z M 210.457031 200.800781 " fill-opacity="1" fill-rule="nonzero"/><path fill="#f6f6f6" d="M 165.890625 154.988281 C 165.890625 154.988281 167.339844 154.511719 169.355469 152.421875 C 171.375 150.332031 171.484375 147.164062 171.484375 147.164062 C 171.484375 147.164062 171.832031 150.683594 172.984375 152.34375 C 174.40625 154.394531 176.722656 154.210938 176.722656 154.210938 C 176.722656 154.210938 173.691406 155.75 172.6875 158.390625 C 171.683594 161.03125 171.65625 162.171875 171.65625 162.171875 C 171.65625 162.171875 170.523438 155.523438 165.894531 154.988281 Z M 165.890625 154.988281 " fill-opacity="1" fill-rule="nonzero"/><path fill="#f6f6f6" d="M 203.578125 154.414062 C 203.578125 154.414062 205.023438 153.9375 207.042969 151.847656 C 209.058594 149.757812 209.171875 146.589844 209.171875 146.589844 C 209.171875 146.589844 209.515625 150.113281 210.667969 151.773438 C 212.089844 153.824219 214.40625 153.640625 214.40625 153.640625 C 214.40625 153.640625 211.375 155.175781 210.371094 157.820312 C 209.367188 160.460938 209.34375 161.601562 209.34375 161.601562 C 209.34375 161.601562 208.210938 154.949219 203.578125 154.414062 Z M 203.578125 154.414062 " fill-opacity="1" fill-rule="nonzero"/><path fill="#54a3e6" d="M 199.40625 174.460938 C 199.394531 175.613281 199.171875 176.636719 198.699219 177.425781 C 196.230469 181.535156 185.238281 180.820312 184.128906 176.25 C 184.027344 175.835938 184.007812 175.390625 184.082031 174.917969 C 184.121094 174.667969 186.714844 159.949219 192.09375 160.847656 C 196.527344 161.585938 199.464844 169.058594 199.40625 174.460938 Z M 199.40625 174.460938 " fill-opacity="1" fill-rule="nonzero"/><path fill="#f6f6f6" d="M 197.347656 173.316406 C 198.917969 173.972656 199.585938 175.859375 198.75 177.339844 C 198.734375 177.367188 198.714844 177.398438 198.699219 177.425781 C 196.230469 181.535156 185.238281 180.820312 184.128906 176.246094 C 185.863281 173.949219 189.050781 172.40625 192.691406 172.40625 C 194.375 172.40625 195.960938 172.734375 197.347656 173.316406 Z M 197.347656 173.316406 " fill-opacity="1" fill-rule="nonzero"/><g clip-path="url(#3253157584)"><g clip-path="url(#5ac75bbdac)"><g clip-path="url(#cfaa4797bf)"><path fill="#002d75" d="M 204.925781 105.554688 C 204.9375 105.890625 204.925781 106.226562 204.894531 106.554688 C 204.035156 105.972656 203.117188 105.476562 202.160156 105.082031 C 197.34375 103.101562 192.328125 102.167969 187.25 102.3125 C 182.171875 102.453125 177.214844 103.664062 172.519531 105.910156 C 171.582031 106.359375 170.695312 106.90625 169.871094 107.539062 C 169.820312 107.210938 169.792969 106.875 169.78125 106.539062 C 169.652344 101.882812 173.332031 97.992188 177.984375 97.863281 L 196.25 97.351562 C 200.902344 97.21875 204.796875 100.898438 204.925781 105.554688 Z M 204.925781 105.554688 " fill-opacity="1" fill-rule="nonzero"/></g></g></g><g clip-path="url(#d7ecb00a3a)"><g clip-path="url(#8b51886388)"><g clip-path="url(#09b749d899)"><path fill="#002d75" d="M 204.652344 107.929688 C 203.773438 107.28125 202.78125 106.710938 201.675781 106.253906 C 197.027344 104.34375 192.183594 103.445312 187.285156 103.582031 C 182.386719 103.71875 177.601562 104.886719 173.066406 107.058594 C 171.988281 107.574219 171.03125 108.199219 170.1875 108.898438 C 170.007812 109.042969 169.835938 109.195312 169.667969 109.347656 C 170.949219 112.953125 174.445312 115.492188 178.476562 115.378906 L 185.761719 115.175781 L 185.734375 114.214844 L 183.425781 114.28125 C 182.488281 114.304688 181.703125 113.5 181.675781 112.476562 C 181.644531 111.457031 182.382812 110.609375 183.320312 110.582031 L 185.628906 110.519531 L 185.566406 108.210938 C 185.539062 107.273438 186.347656 106.488281 187.367188 106.460938 C 188.386719 106.429688 189.234375 107.167969 189.261719 108.105469 L 189.328125 110.414062 L 191.636719 110.351562 C 192.574219 110.324219 193.355469 111.128906 193.382812 112.148438 C 193.414062 113.171875 192.675781 114.019531 191.738281 114.046875 L 189.429688 114.113281 L 189.457031 115.070312 L 196.742188 114.867188 C 200.777344 114.753906 204.121094 112.027344 205.199219 108.351562 C 205.023438 108.207031 204.839844 108.066406 204.652344 107.929688 Z M 204.652344 107.929688 " fill-opacity="1" fill-rule="nonzero"/></g></g></g><g clip-path="url(#20044ffcae)"><g clip-path="url(#a6a7ec3668)"><g clip-path="url(#8bdb883525)"><path fill="#ffffff" d="M 205.199219 108.351562 C 205.023438 108.207031 204.839844 108.066406 204.652344 107.929688 C 203.726562 111.464844 200.554688 114.125 196.722656 114.230469 L 189.4375 114.433594 L 189.476562 115.707031 L 196.757812 115.503906 C 200.96875 115.382812 204.484375 112.59375 205.722656 108.800781 C 205.550781 108.648438 205.378906 108.5 205.199219 108.351562 Z M 178.457031 114.742188 C 174.625 114.851562 171.3125 112.371094 170.1875 108.898438 C 170.007812 109.042969 169.835938 109.195312 169.667969 109.347656 C 169.496094 109.503906 169.332031 109.664062 169.167969 109.824219 C 170.617188 113.539062 174.285156 116.132812 178.492188 116.015625 L 185.777344 115.808594 L 185.742188 114.539062 Z M 178.457031 114.742188 " fill-opacity="1" fill-rule="nonzero"/></g></g></g><g clip-path="url(#34739f7df1)"><g clip-path="url(#b97322a91d)"><g clip-path="url(#26b8160878)"><path fill="#002d75" d="M 209.851562 115.320312 C 209.28125 113.253906 207.941406 110.792969 205.722656 108.800781 C 205.550781 108.648438 205.378906 108.5 205.199219 108.351562 C 205.023438 108.207031 204.839844 108.066406 204.652344 107.933594 C 203.773438 107.28125 202.78125 106.710938 201.675781 106.253906 C 197.027344 104.34375 192.183594 103.445312 187.285156 103.582031 C 182.386719 103.71875 177.601562 104.886719 173.066406 107.058594 C 171.988281 107.574219 171.03125 108.199219 170.1875 108.898438 C 170.007812 109.042969 169.835938 109.195312 169.667969 109.347656 C 169.496094 109.503906 169.332031 109.664062 169.167969 109.824219 C 167.070312 111.9375 165.871094 114.472656 165.410156 116.5625 C 164.863281 119.082031 165.21875 121.328125 166.386719 122.730469 C 167.046875 123.542969 167.785156 124.140625 168.554688 124.582031 C 168.757812 124.605469 169.246094 124.664062 169.914062 124.691406 C 170.292969 124.703125 170.730469 124.710938 171.207031 124.695312 C 173.617188 124.628906 177.050781 124.066406 179.199219 121.679688 C 179.402344 121.457031 179.589844 121.222656 179.765625 120.96875 C 179.964844 120.679688 180.359375 120.605469 180.648438 120.804688 C 180.9375 121.003906 181.011719 121.402344 180.8125 121.691406 C 179.214844 124.003906 176.78125 125.109375 174.480469 125.609375 C 175.863281 125.445312 177.28125 125.046875 178.636719 124.441406 C 181.550781 123.046875 184.640625 122.292969 187.804688 122.203125 C 190.972656 122.113281 194.101562 122.695312 197.101562 123.929688 C 198.84375 124.59375 200.679688 124.925781 202.402344 124.878906 C 204.453125 124.820312 207.296875 124.191406 209.21875 121.535156 C 210.3125 120.066406 210.539062 117.804688 209.851562 115.320312 Z M 183.140625 119.308594 C 182.578125 119.90625 181.632812 119.929688 181.035156 119.367188 C 180.4375 118.800781 180.410156 117.855469 180.976562 117.257812 C 181.542969 116.660156 182.484375 116.632812 183.082031 117.199219 C 183.679688 117.765625 183.707031 118.710938 183.140625 119.308594 Z M 189.496094 116.421875 C 189.519531 117.359375 188.714844 118.140625 187.691406 118.167969 C 186.671875 118.199219 185.824219 117.460938 185.796875 116.523438 L 185.734375 114.214844 L 183.425781 114.28125 C 182.488281 114.304688 181.703125 113.5 181.675781 112.480469 C 181.644531 111.457031 182.382812 110.609375 183.320312 110.582031 L 185.628906 110.519531 L 185.566406 108.210938 C 185.539062 107.273438 186.347656 106.488281 187.363281 106.460938 C 188.386719 106.429688 189.234375 107.167969 189.261719 108.105469 L 189.328125 110.414062 L 191.636719 110.351562 C 192.574219 110.324219 193.355469 111.128906 193.382812 112.152344 C 193.410156 113.171875 192.675781 114.019531 191.738281 114.046875 L 189.429688 114.113281 Z M 189.496094 116.421875 " fill-opacity="1" fill-rule="nonzero"/><path fill="#002d75" d="M 209.851562 115.320312 C 209.28125 113.253906 207.941406 110.792969 205.722656 108.800781 C 205.550781 108.648438 205.378906 108.5 205.199219 108.351562 C 205.023438 108.207031 204.839844 108.066406 204.652344 107.933594 C 203.773438 107.28125 202.78125 106.710938 201.675781 106.253906 C 197.027344 104.34375 192.183594 103.445312 187.285156 103.582031 C 182.386719 103.71875 177.601562 104.886719 173.066406 107.058594 C 171.988281 107.574219 171.03125 108.199219 170.1875 108.898438 C 170.007812 109.042969 169.835938 109.195312 169.667969 109.347656 C 169.496094 109.503906 169.332031 109.664062 169.167969 109.824219 C 167.070312 111.9375 165.871094 114.472656 165.410156 116.5625 C 164.863281 119.082031 165.21875 121.328125 166.386719 122.730469 C 167.046875 123.542969 167.785156 124.140625 168.554688 124.582031 C 168.757812 124.605469 169.246094 124.664062 169.914062 124.691406 C 170.292969 124.703125 170.730469 124.710938 171.207031 124.695312 C 173.617188 124.628906 177.050781 124.066406 179.199219 121.679688 C 179.402344 121.457031 179.589844 121.222656 179.765625 120.96875 C 179.964844 120.679688 180.359375 120.605469 180.648438 120.804688 C 180.9375 121.003906 181.011719 121.402344 180.8125 121.691406 C 179.214844 124.003906 176.78125 125.109375 174.480469 125.609375 C 175.863281 125.445312 177.28125 125.046875 178.636719 124.441406 C 181.550781 123.046875 184.640625 122.292969 187.804688 122.203125 C 190.972656 122.113281 194.101562 122.695312 197.101562 123.929688 C 198.84375 124.59375 200.679688 124.925781 202.402344 124.878906 C 204.453125 124.820312 207.296875 124.191406 209.21875 121.535156 C 210.3125 120.066406 210.539062 117.804688 209.851562 115.320312 Z M 183.140625 119.308594 C 182.578125 119.90625 181.632812 119.929688 181.035156 119.367188 C 180.4375 118.800781 180.410156 117.855469 180.976562 117.257812 C 181.542969 116.660156 182.484375 116.632812 183.082031 117.199219 C 183.679688 117.765625 183.707031 118.710938 183.140625 119.308594 Z M 189.496094 116.421875 C 189.519531 117.359375 188.714844 118.140625 187.691406 118.167969 C 186.671875 118.199219 185.824219 117.460938 185.796875 116.523438 L 185.734375 114.214844 L 183.425781 114.28125 C 182.488281 114.304688 181.703125 113.5 181.675781 112.480469 C 181.644531 111.457031 182.382812 110.609375 183.320312 110.582031 L 185.628906 110.519531 L 185.566406 108.210938 C 185.539062 107.273438 186.347656 106.488281 187.363281 106.460938 C 188.386719 106.429688 189.234375 107.167969 189.261719 108.105469 L 189.328125 110.414062 L 191.636719 110.351562 C 192.574219 110.324219 193.355469 111.128906 193.382812 112.152344 C 193.410156 113.171875 192.675781 114.019531 191.738281 114.046875 L 189.429688 114.113281 Z M 189.496094 116.421875 " fill-opacity="1" fill-rule="nonzero"/></g></g></g><g clip-path="url(#f98a89158c)"><g clip-path="url(#7ed71a9cba)"><g clip-path="url(#12027bf73b)"><path fill="#002d75" d="M 179.199219 121.679688 C 177.050781 124.066406 173.617188 124.628906 171.207031 124.695312 C 170.730469 124.710938 170.292969 124.703125 169.914062 124.691406 Z M 179.199219 121.679688 " fill-opacity="1" fill-rule="nonzero"/></g></g></g><g clip-path="url(#31a1f6e459)"><g clip-path="url(#d9e7d5c994)"><g clip-path="url(#28f090220f)"><g clip-path="url(#de1f7ada36)"><path fill="#b1b7bc" d="M 131.460938 197.761719 C 131.382812 197.667969 131.394531 197.53125 131.492188 197.453125 L 133.703125 195.644531 C 133.796875 195.566406 133.9375 195.578125 134.015625 195.671875 L 140.078125 203.03125 C 140.15625 203.128906 140.144531 203.265625 140.050781 203.34375 L 137.835938 205.152344 C 137.742188 205.230469 137.601562 205.214844 137.527344 205.125 L 131.460938 197.761719 " fill-opacity="1" fill-rule="nonzero"/><path stroke-linecap="round" transform="matrix(0.0240714, 0.00523292, 0.00521475, -0.0239878, 86.167417, 256.304309)" fill="none" stroke-linejoin="round" d="M 1291.874056 2722.331903 C 1287.966508 2725.387707 1287.25237 2730.931421 1290.452517 2734.886388 L 1362.560256 2826.012878 C 1365.605449 2829.934042 1371.284868 2830.684471 1375.192416 2827.628668 L 1679.14577 2587.139647 C 1683.087004 2583.928349 1683.801142 2578.384635 1680.75595 2574.463471 L 1608.493256 2483.303178 C 1605.448064 2479.382014 1599.734959 2478.787079 1595.982365 2481.876685 Z M 1291.874056 2722.331903 " stroke="#24578f" stroke-width="30" stroke-opacity="1" stroke-miterlimit="10"/></g></g></g></g><g clip-path="url(#b535ebc3df)"><g clip-path="url(#ae7736cb44)"><g clip-path="url(#c5560df969)"><g clip-path="url(#f053ebb2e2)"><path fill="#b1b7bc" d="M 135.125 205.667969 C 135.046875 205.570312 135.0625 205.433594 135.15625 205.355469 L 140.773438 200.757812 C 140.863281 200.683594 141.003906 200.695312 141.082031 200.789062 L 157.261719 220.421875 C 157.335938 220.519531 157.324219 220.65625 157.230469 220.734375 L 151.617188 225.328125 C 151.519531 225.40625 151.382812 225.390625 151.304688 225.296875 L 135.125 205.667969 " fill-opacity="1" fill-rule="nonzero"/></g></g></g></g><g clip-path="url(#cf843416eb)"><g clip-path="url(#40707b6572)"><g clip-path="url(#784c21807c)"><g clip-path="url(#980cecff4c)"><path stroke-linecap="round" transform="matrix(0.0240714, 0.00523292, 0.00521475, -0.0239878, 86.167417, 256.304309)" fill="none" stroke-linejoin="round" d="M 1505.367669 2439.474033 C 1501.460121 2442.529837 1500.900937 2448.107354 1503.94613 2452.028518 L 1687.122558 2683.654357 C 1690.046482 2687.386223 1695.725902 2688.136652 1699.63345 2685.080849 L 2510.759614 2043.57848 C 2514.545893 2040.333379 2515.260031 2034.789665 2512.214838 2030.868502 L 2329.159679 1799.43196 C 2325.959532 1795.476994 2320.401381 1794.915862 2316.493833 1797.971665 Z M 1505.367669 2439.474033 " stroke="#24578f" stroke-width="30" stroke-opacity="1" stroke-miterlimit="10"/></g></g></g></g><g clip-path="url(#348b2c5f32)"><g clip-path="url(#f5d44547e4)"><g clip-path="url(#5895fbfa2a)"><g clip-path="url(#9506efd270)"><path fill="#72c3ee" d="M 138.1875 207.707031 C 138.128906 207.636719 138.140625 207.539062 138.207031 207.480469 L 142.269531 204.15625 C 142.335938 204.101562 142.4375 204.109375 142.496094 204.179688 L 154.203125 218.382812 C 154.253906 218.453125 154.246094 218.550781 154.179688 218.609375 L 150.117188 221.933594 C 150.046875 221.988281 149.945312 221.980469 149.890625 221.910156 L 138.1875 207.707031 " fill-opacity="1" fill-rule="nonzero"/></g></g></g></g><g clip-path="url(#cccdc1a641)"><g clip-path="url(#d4a6bf5942)"><g clip-path="url(#4fe4e1643c)"><g clip-path="url(#6fa38d5191)"><path stroke-linecap="round" transform="matrix(0.0240714, 0.00523292, 0.00521475, -0.0239878, 86.167417, 256.304309)" fill="none" stroke-linejoin="round" d="M 1644.469649 2384.65211 C 1641.538987 2386.943962 1641.161707 2390.932732 1643.290647 2393.839802 L 1775.776743 2561.320812 C 1777.939369 2564.072387 1782.035557 2564.64028 1784.966218 2562.348428 L 2371.846275 2098.278713 C 2374.467027 2095.919254 2374.999262 2091.964287 2372.870322 2089.057218 L 2240.384226 1921.576207 C 2238.066645 1918.790829 2233.970457 1918.222936 2231.19475 1920.548592 Z M 1644.469649 2384.65211 " stroke="#24578f" stroke-width="30" stroke-opacity="1" stroke-miterlimit="10"/></g></g></g></g><g clip-path="url(#c849b0e998)"><g clip-path="url(#fa100a0d75)"><g clip-path="url(#653c070c9d)"><g clip-path="url(#10f6a75f55)"><path fill="#b1b7bc" d="M 153.546875 224.390625 L 155.929688 222.441406 L 166.136719 234.828125 L 163.753906 236.777344 L 153.546875 224.390625 " fill-opacity="1" fill-rule="nonzero"/></g></g></g></g><g clip-path="url(#c2e28a03f2)"><g clip-path="url(#0f047a595e)"><g clip-path="url(#d804cd0b57)"><g clip-path="url(#78d1f3f35a)"><path stroke-linecap="round" transform="matrix(0.0240714, 0.00523292, 0.00521475, -0.0239878, 86.167417, 256.304309)" fill="none" stroke-linejoin="round" d="M 2397.622619 1853.449369 L 2475.335668 1951.660997 L 2987.049318 1546.915784 L 2909.336269 1448.704156 Z M 2397.622619 1853.449369 " stroke="#24578f" stroke-width="30" stroke-opacity="1" stroke-miterlimit="10"/></g></g></g></g><g clip-path="url(#e52f300531)"><g clip-path="url(#6d6ed4ce84)"><g clip-path="url(#17d545703d)"><g clip-path="url(#515ec5cc7d)"><path fill="#b1b7bc" d="M 162.109375 238.410156 C 162.03125 238.316406 162.042969 238.175781 162.140625 238.101562 L 167.753906 233.503906 C 167.847656 233.425781 167.988281 233.441406 168.066406 233.535156 L 169.277344 235.007812 C 169.355469 235.101562 169.339844 235.238281 169.25 235.316406 L 163.632812 239.910156 C 163.539062 239.988281 163.398438 239.976562 163.320312 239.882812 L 162.109375 238.410156 " fill-opacity="1" fill-rule="nonzero"/></g></g></g></g><g clip-path="url(#e264bf7c54)"><g clip-path="url(#7a83c64ce5)"><g clip-path="url(#865ad6f8f2)"><g clip-path="url(#12c1564380)"><path stroke-linecap="round" transform="matrix(0.0240714, 0.00523292, 0.00521475, -0.0239878, 86.167417, 256.304309)" fill="none" stroke-linejoin="round" d="M 2858.181073 1369.476369 C 2854.273525 1372.532173 2853.525701 1378.231381 2856.725848 1382.186348 L 3039.781008 1613.622889 C 3042.8262 1617.544053 3048.539305 1618.138988 3052.446854 1615.083185 L 3113.18228 1566.94076 C 3117.089828 1563.884957 3117.649012 1558.30744 3114.758773 1554.420079 L 2931.548659 1322.949735 C 2928.503467 1319.028571 2922.824047 1318.278142 2918.916499 1321.333945 Z M 2858.181073 1369.476369 " stroke="#24578f" stroke-width="30" stroke-opacity="1" stroke-miterlimit="10"/></g></g></g></g><g clip-path="url(#7eb8acdb95)"><g clip-path="url(#e88f49f187)"><g clip-path="url(#d76f5a0c70)"><g clip-path="url(#db450c2b91)"><path fill="#b1b7bc" d="M 148.699219 226.71875 C 148.621094 226.625 148.632812 226.488281 148.730469 226.410156 L 158.855469 218.121094 C 158.949219 218.046875 159.085938 218.058594 159.164062 218.152344 L 160.148438 219.34375 C 160.222656 219.4375 160.210938 219.574219 160.117188 219.652344 L 149.988281 227.9375 C 149.898438 228.015625 149.753906 228.003906 149.679688 227.910156 L 148.699219 226.71875 " fill-opacity="1" fill-rule="nonzero"/></g></g></g></g><g clip-path="url(#31e7a13ac8)"><g clip-path="url(#188d5f043e)"><g clip-path="url(#e8afdc46a8)"><g clip-path="url(#faf0f44d4f)"><path stroke-linecap="round" transform="matrix(0.0240714, 0.00523292, 0.00521475, -0.0239878, 86.167417, 256.304309)" fill="none" stroke-linejoin="round" d="M 2225.4008 1718.825006 C 2221.493251 1721.880809 2220.779113 1727.424523 2223.97926 1731.37949 L 2554.140136 2148.956372 C 2557.185329 2152.877536 2562.743479 2153.438668 2566.651027 2150.382865 L 2615.973718 2111.475457 C 2619.726312 2108.38585 2620.44045 2102.842136 2617.395257 2098.920972 L 2287.045741 1681.465781 C 2284.155503 1677.578421 2278.321129 1676.794188 2274.568536 1679.883794 Z M 2225.4008 1718.825006 " stroke="#24578f" stroke-width="30" stroke-opacity="1" stroke-miterlimit="10"/></g></g></g></g><g clip-path="url(#07ca290e2b)"><g clip-path="url(#2657cdbaa9)"><g clip-path="url(#5f254d0a57)"><g clip-path="url(#2b77b3d3aa)"><path stroke-linecap="round" transform="matrix(0.0240714, 0.00523292, 0.00521475, -0.0239878, 86.167417, 256.304309)" fill-opacity="1" fill="#b1b7bc" fill-rule="nonzero" stroke-linejoin="round" d="M 1326.489544 2780.52738 L 1172.181812 2902.543175 " stroke="#24578f" stroke-width="30" stroke-opacity="1" stroke-miterlimit="10"/></g></g></g></g><g clip-path="url(#e9ccb1283e)"><g clip-path="url(#42781a5c4f)"><g clip-path="url(#0f10cad503)"><g clip-path="url(#65ae9c00c6)"><path stroke-linecap="round" transform="matrix(0.0240714, 0.00523292, 0.00521475, -0.0239878, 86.167417, 256.304309)" fill-opacity="1" fill="#b1b7bc" fill-rule="nonzero" stroke-linejoin="round" d="M 2184.09532 2076.536537 L 2121.156845 1997.018043 " stroke="#24578f" stroke-width="30" stroke-opacity="1" stroke-miterlimit="10"/></g></g></g></g><g clip-path="url(#5c82e3a982)"><g clip-path="url(#feef94045a)"><g clip-path="url(#1087e8c2b5)"><g clip-path="url(#9517da10be)"><path fill="#b1b7bc" d="M 146.632812 214.355469 L 144.699219 215.933594 " fill-opacity="1" fill-rule="nonzero"/></g></g></g></g><g clip-path="url(#f94c21c6e0)"><g clip-path="url(#34ac657401)"><g clip-path="url(#db1d4f075d)"><g clip-path="url(#4f9c8a6c3e)"><path stroke-linecap="round" transform="matrix(0.0240714, 0.00523292, 0.00521475, -0.0239878, 86.167417, 256.304309)" fill="none" stroke-linejoin="round" d="M 2036.814438 2193.082985 L 1973.721009 2113.530688 " stroke="#24578f" stroke-width="30" stroke-opacity="1" stroke-miterlimit="10"/></g></g></g></g><g clip-path="url(#e60c01d511)"><g clip-path="url(#586399c91a)"><g clip-path="url(#9e67527fa3)"><g clip-path="url(#bf177e59fe)"><path fill="#b1b7bc" d="M 143.691406 210.789062 L 141.761719 212.367188 " fill-opacity="1" fill-rule="nonzero"/></g></g></g></g><g clip-path="url(#b7a6fcbd2f)"><g clip-path="url(#79249bb9c0)"><g clip-path="url(#33c37b1e55)"><g clip-path="url(#e231585c75)"><path stroke-linecap="round" transform="matrix(0.0240714, 0.00523292, 0.00521475, -0.0239878, 86.167417, 256.304309)" fill="none" stroke-linejoin="round" d="M 1889.378601 2309.595629 L 1826.440127 2230.077135 " stroke="#24578f" stroke-width="30" stroke-opacity="1" stroke-miterlimit="10"/></g></g></g></g><g clip-path="url(#10d21fe22b)"><g clip-path="url(#2b1491ea87)"><g clip-path="url(#7053300b08)"><g clip-path="url(#5a1afa56fc)"><path stroke-linecap="round" transform="matrix(0.0240714, 0.00523292, 0.00521475, -0.0239878, 86.167417, 256.304309)" fill="none" stroke-linejoin="round" d="M 1369.243511 2764.450609 L 1556.8193 2609.469997 " stroke="#ffffff" stroke-width="30" stroke-opacity="1" stroke-miterlimit="10"/></g></g></g></g><g clip-path="url(#8afa7cc3eb)"><g clip-path="url(#af2c3cb899)"><g clip-path="url(#199480d897)"><g clip-path="url(#b29f3bbee7)"><path stroke-linecap="round" transform="matrix(0.0240714, 0.00523292, 0.00521475, -0.0239878, 86.167417, 256.304309)" fill="none" stroke-linejoin="round" d="M 1776.84795 2479.970188 L 2286.769518 2089.489898 " stroke="#ffffff" stroke-width="30" stroke-opacity="1" stroke-miterlimit="10"/></g></g></g></g><g clip-path="url(#d856b7fdf7)"><g clip-path="url(#08681d2b0f)"><g clip-path="url(#9489dad22b)"><g clip-path="url(#268218ddba)"><path stroke-linecap="round" transform="matrix(0.0240714, 0.00523292, 0.00521475, -0.0239878, 86.167417, 256.304309)" fill="none" stroke-linejoin="round" d="M 2486.809038 1869.485576 L 2916.787559 1524.423178 " stroke="#ffffff" stroke-width="30" stroke-opacity="1" stroke-miterlimit="10"/></g></g></g></g><g clip-path="url(#b6cde6a4bb)"><g clip-path="url(#e941a0f164)"><g clip-path="url(#6d79b71ed4)"><g clip-path="url(#f38b085cb0)"><path stroke-linecap="round" transform="matrix(0.0240714, 0.00523292, 0.00521475, -0.0239878, 86.167417, 256.304309)" fill="none" stroke-linejoin="round" d="M 3052.81066 1566.961042 L 3070.125141 1554.453882 L 2949.819816 1406.402914 " stroke="#ffffff" stroke-width="30" stroke-opacity="1" stroke-miterlimit="10"/></g></g></g></g></svg>