<svg xmlns="http://www.w3.org/2000/svg" xmlns:xlink="http://www.w3.org/1999/xlink" width="500" zoomAndPan="magnify" viewBox="0 0 375 374.999991" height="500" preserveAspectRatio="xMidYMid meet" version="1.0"><defs><clipPath id="b22d32b2da"><path d="M 223 140 L 242.8125 140 L 242.8125 172 L 223 172 Z M 223 140 " clip-rule="nonzero"/></clipPath><clipPath id="db887bc052"><path d="M 132.5625 120 L 141 120 L 141 130 L 132.5625 130 Z M 132.5625 120 " clip-rule="nonzero"/></clipPath><clipPath id="6b8864e183"><path d="M 163 230 L 185 230 L 185 262.5 L 163 262.5 Z M 163 230 " clip-rule="nonzero"/></clipPath><clipPath id="6623a360cb"><path d="M 142 112.5 L 236 112.5 L 236 199 L 142 199 Z M 142 112.5 " clip-rule="nonzero"/></clipPath><clipPath id="3d446f0b85"><path d="M 193 230 L 215 230 L 215 262.5 L 193 262.5 Z M 193 230 " clip-rule="nonzero"/></clipPath><clipPath id="0e59fd4a1e"><path d="M 203 198.160156 L 206 198.160156 L 206 202 L 203 202 Z M 203 198.160156 " clip-rule="nonzero"/></clipPath><clipPath id="a606499c6b"><path d="M 199.28125 198.160156 L 206 198.160156 L 206 205 L 199.28125 205 Z M 199.28125 198.160156 " clip-rule="nonzero"/></clipPath><clipPath id="0b5380b021"><path d="M 205.28125 198.292969 C 205.285156 198.691406 205.238281 200.007812 204.589844 201.292969 C 204.382812 201.695312 204.121094 202.097656 203.78125 202.464844 C 202.898438 203.421875 201.496094 204.15625 199.28125 204.15625 L 199.28125 201.914062 C 200.914062 201.914062 202.105469 201.664062 202.972656 201.292969 C 203.28125 201.160156 203.550781 201.011719 203.78125 200.855469 C 205.144531 199.933594 205.273438 198.679688 205.28125 198.292969 Z M 205.28125 198.292969 " clip-rule="nonzero"/></clipPath><linearGradient x1="0.0000519717" gradientTransform="matrix(0.0249488, 0, 0, 0.0249079, 199.28082, 198.170405)" y1="122.636002" x2="240.600058" gradientUnits="userSpaceOnUse" y2="122.636002" id="1579280d9f"><stop stop-opacity="1" stop-color="rgb(23.919678%, 74.119568%, 92.549133%)" offset="0"/><stop stop-opacity="1" stop-color="rgb(23.919678%, 74.119568%, 92.549133%)" offset="0.03125"/><stop stop-opacity="1" stop-color="rgb(23.953247%, 74.008179%, 92.579651%)" offset="0.046875"/><stop stop-opacity="1" stop-color="rgb(24.01886%, 73.800659%, 92.637634%)" offset="0.0546875"/><stop stop-opacity="1" stop-color="rgb(24.079895%, 73.603821%, 92.692566%)" offset="0.0625"/><stop stop-opacity="1" stop-color="rgb(24.171448%, 73.310852%, 92.774963%)" offset="0.078125"/><stop stop-opacity="1" stop-color="rgb(24.263%, 73.016357%, 92.855835%)" offset="0.0859375"/><stop stop-opacity="1" stop-color="rgb(24.324036%, 72.821045%, 92.910767%)" offset="0.09375"/><stop stop-opacity="1" stop-color="rgb(24.385071%, 72.624207%, 92.965698%)" offset="0.101563"/><stop stop-opacity="1" stop-color="rgb(24.446106%, 72.428894%, 93.02063%)" offset="0.109375"/><stop stop-opacity="1" stop-color="rgb(24.507141%, 72.232056%, 93.075562%)" offset="0.117188"/><stop stop-opacity="1" stop-color="rgb(24.568176%, 72.036743%, 93.128967%)" offset="0.125"/><stop stop-opacity="1" stop-color="rgb(24.629211%, 71.841431%, 93.183899%)" offset="0.132812"/><stop stop-opacity="1" stop-color="rgb(24.690247%, 71.644592%, 93.238831%)" offset="0.140625"/><stop stop-opacity="1" stop-color="rgb(24.751282%, 71.44928%, 93.293762%)" offset="0.148438"/><stop stop-opacity="1" stop-color="rgb(24.812317%, 71.252441%, 93.348694%)" offset="0.15625"/><stop stop-opacity="1" stop-color="rgb(24.873352%, 71.057129%, 93.403625%)" offset="0.164062"/><stop stop-opacity="1" stop-color="rgb(24.934387%, 70.860291%, 93.457031%)" offset="0.171875"/><stop stop-opacity="1" stop-color="rgb(24.995422%, 70.664978%, 93.511963%)" offset="0.179688"/><stop stop-opacity="1" stop-color="rgb(25.056458%, 70.46814%, 93.566895%)" offset="0.1875"/><stop stop-opacity="1" stop-color="rgb(25.14801%, 70.175171%, 93.649292%)" offset="0.203125"/><stop stop-opacity="1" stop-color="rgb(25.239563%, 69.880676%, 93.730164%)" offset="0.210938"/><stop stop-opacity="1" stop-color="rgb(25.300598%, 69.685364%, 93.785095%)" offset="0.21875"/><stop stop-opacity="1" stop-color="rgb(25.361633%, 69.488525%, 93.840027%)" offset="0.226562"/><stop stop-opacity="1" stop-color="rgb(25.422668%, 69.293213%, 93.894958%)" offset="0.234375"/><stop stop-opacity="1" stop-color="rgb(25.483704%, 69.096375%, 93.94989%)" offset="0.242188"/><stop stop-opacity="1" stop-color="rgb(25.544739%, 68.901062%, 94.004822%)" offset="0.25"/><stop stop-opacity="1" stop-color="rgb(25.605774%, 68.70575%, 94.058228%)" offset="0.257812"/><stop stop-opacity="1" stop-color="rgb(25.666809%, 68.508911%, 94.113159%)" offset="0.265625"/><stop stop-opacity="1" stop-color="rgb(25.727844%, 68.313599%, 94.168091%)" offset="0.273438"/><stop stop-opacity="1" stop-color="rgb(25.788879%, 68.11676%, 94.223022%)" offset="0.28125"/><stop stop-opacity="1" stop-color="rgb(25.849915%, 67.921448%, 94.277954%)" offset="0.289062"/><stop stop-opacity="1" stop-color="rgb(25.91095%, 67.724609%, 94.33136%)" offset="0.296875"/><stop stop-opacity="1" stop-color="rgb(26.002502%, 67.431641%, 94.413757%)" offset="0.3125"/><stop stop-opacity="1" stop-color="rgb(26.094055%, 67.137146%, 94.496155%)" offset="0.320313"/><stop stop-opacity="1" stop-color="rgb(26.15509%, 66.941833%, 94.551086%)" offset="0.328125"/><stop stop-opacity="1" stop-color="rgb(26.216125%, 66.744995%, 94.604492%)" offset="0.335938"/><stop stop-opacity="1" stop-color="rgb(26.277161%, 66.549683%, 94.659424%)" offset="0.34375"/><stop stop-opacity="1" stop-color="rgb(26.338196%, 66.352844%, 94.714355%)" offset="0.351562"/><stop stop-opacity="1" stop-color="rgb(26.399231%, 66.157532%, 94.769287%)" offset="0.359375"/><stop stop-opacity="1" stop-color="rgb(26.460266%, 65.962219%, 94.824219%)" offset="0.367187"/><stop stop-opacity="1" stop-color="rgb(26.521301%, 65.765381%, 94.87915%)" offset="0.375"/><stop stop-opacity="1" stop-color="rgb(26.582336%, 65.570068%, 94.932556%)" offset="0.382813"/><stop stop-opacity="1" stop-color="rgb(26.643372%, 65.37323%, 94.987488%)" offset="0.390625"/><stop stop-opacity="1" stop-color="rgb(26.704407%, 65.177917%, 95.042419%)" offset="0.398438"/><stop stop-opacity="1" stop-color="rgb(26.765442%, 64.981079%, 95.097351%)" offset="0.40625"/><stop stop-opacity="1" stop-color="rgb(26.856995%, 64.68811%, 95.178223%)" offset="0.421875"/><stop stop-opacity="1" stop-color="rgb(26.948547%, 64.393616%, 95.26062%)" offset="0.429687"/><stop stop-opacity="1" stop-color="rgb(27.009583%, 64.198303%, 95.315552%)" offset="0.4375"/><stop stop-opacity="1" stop-color="rgb(27.070618%, 64.001465%, 95.370483%)" offset="0.445313"/><stop stop-opacity="1" stop-color="rgb(27.131653%, 63.806152%, 95.425415%)" offset="0.453125"/><stop stop-opacity="1" stop-color="rgb(27.192688%, 63.609314%, 95.478821%)" offset="0.460938"/><stop stop-opacity="1" stop-color="rgb(27.253723%, 63.414001%, 95.533752%)" offset="0.46875"/><stop stop-opacity="1" stop-color="rgb(27.314758%, 63.217163%, 95.588684%)" offset="0.476562"/><stop stop-opacity="1" stop-color="rgb(27.375793%, 63.021851%, 95.643616%)" offset="0.484375"/><stop stop-opacity="1" stop-color="rgb(27.436829%, 62.826538%, 95.698547%)" offset="0.492188"/><stop stop-opacity="1" stop-color="rgb(27.497864%, 62.6297%, 95.753479%)" offset="0.5"/><stop stop-opacity="1" stop-color="rgb(27.558899%, 62.434387%, 95.806885%)" offset="0.507813"/><stop stop-opacity="1" stop-color="rgb(27.619934%, 62.237549%, 95.861816%)" offset="0.515625"/><stop stop-opacity="1" stop-color="rgb(27.680969%, 62.042236%, 95.916748%)" offset="0.523438"/><stop stop-opacity="1" stop-color="rgb(27.742004%, 61.845398%, 95.97168%)" offset="0.53125"/><stop stop-opacity="1" stop-color="rgb(27.833557%, 61.552429%, 96.052551%)" offset="0.546875"/><stop stop-opacity="1" stop-color="rgb(27.92511%, 61.257935%, 96.134949%)" offset="0.554688"/><stop stop-opacity="1" stop-color="rgb(27.986145%, 61.062622%, 96.18988%)" offset="0.5625"/><stop stop-opacity="1" stop-color="rgb(28.04718%, 60.865784%, 96.244812%)" offset="0.570313"/><stop stop-opacity="1" stop-color="rgb(28.108215%, 60.670471%, 96.299744%)" offset="0.578125"/><stop stop-opacity="1" stop-color="rgb(28.16925%, 60.473633%, 96.353149%)" offset="0.585938"/><stop stop-opacity="1" stop-color="rgb(28.230286%, 60.27832%, 96.408081%)" offset="0.59375"/><stop stop-opacity="1" stop-color="rgb(28.291321%, 60.083008%, 96.463013%)" offset="0.601563"/><stop stop-opacity="1" stop-color="rgb(28.352356%, 59.886169%, 96.517944%)" offset="0.609375"/><stop stop-opacity="1" stop-color="rgb(28.413391%, 59.690857%, 96.572876%)" offset="0.617188"/><stop stop-opacity="1" stop-color="rgb(28.474426%, 59.494019%, 96.627808%)" offset="0.625"/><stop stop-opacity="1" stop-color="rgb(28.535461%, 59.298706%, 96.681213%)" offset="0.632813"/><stop stop-opacity="1" stop-color="rgb(28.596497%, 59.101868%, 96.736145%)" offset="0.640625"/><stop stop-opacity="1" stop-color="rgb(28.688049%, 58.808899%, 96.818542%)" offset="0.65625"/><stop stop-opacity="1" stop-color="rgb(28.779602%, 58.514404%, 96.90094%)" offset="0.664062"/><stop stop-opacity="1" stop-color="rgb(28.840637%, 58.319092%, 96.954346%)" offset="0.671875"/><stop stop-opacity="1" stop-color="rgb(28.901672%, 58.122253%, 97.009277%)" offset="0.679688"/><stop stop-opacity="1" stop-color="rgb(28.962708%, 57.926941%, 97.064209%)" offset="0.6875"/><stop stop-opacity="1" stop-color="rgb(29.023743%, 57.730103%, 97.119141%)" offset="0.695313"/><stop stop-opacity="1" stop-color="rgb(29.084778%, 57.53479%, 97.174072%)" offset="0.703125"/><stop stop-opacity="1" stop-color="rgb(29.145813%, 57.339478%, 97.227478%)" offset="0.710938"/><stop stop-opacity="1" stop-color="rgb(29.206848%, 57.142639%, 97.28241%)" offset="0.71875"/><stop stop-opacity="1" stop-color="rgb(29.267883%, 56.947327%, 97.337341%)" offset="0.726563"/><stop stop-opacity="1" stop-color="rgb(29.328918%, 56.750488%, 97.392273%)" offset="0.734375"/><stop stop-opacity="1" stop-color="rgb(29.389954%, 56.555176%, 97.447205%)" offset="0.742188"/><stop stop-opacity="1" stop-color="rgb(29.450989%, 56.358337%, 97.502136%)" offset="0.75"/><stop stop-opacity="1" stop-color="rgb(29.512024%, 56.163025%, 97.555542%)" offset="0.757813"/><stop stop-opacity="1" stop-color="rgb(29.573059%, 55.966187%, 97.610474%)" offset="0.765625"/><stop stop-opacity="1" stop-color="rgb(29.664612%, 55.673218%, 97.692871%)" offset="0.78125"/><stop stop-opacity="1" stop-color="rgb(29.756165%, 55.378723%, 97.775269%)" offset="0.789062"/><stop stop-opacity="1" stop-color="rgb(29.8172%, 55.183411%, 97.828674%)" offset="0.796875"/><stop stop-opacity="1" stop-color="rgb(29.878235%, 54.986572%, 97.883606%)" offset="0.804688"/><stop stop-opacity="1" stop-color="rgb(29.93927%, 54.79126%, 97.938538%)" offset="0.8125"/><stop stop-opacity="1" stop-color="rgb(30.000305%, 54.594421%, 97.993469%)" offset="0.820313"/><stop stop-opacity="1" stop-color="rgb(30.06134%, 54.399109%, 98.048401%)" offset="0.828125"/><stop stop-opacity="1" stop-color="rgb(30.122375%, 54.203796%, 98.101807%)" offset="0.835938"/><stop stop-opacity="1" stop-color="rgb(30.183411%, 54.006958%, 98.156738%)" offset="0.84375"/><stop stop-opacity="1" stop-color="rgb(30.244446%, 53.811646%, 98.21167%)" offset="0.851563"/><stop stop-opacity="1" stop-color="rgb(30.305481%, 53.614807%, 98.266602%)" offset="0.859375"/><stop stop-opacity="1" stop-color="rgb(30.366516%, 53.419495%, 98.321533%)" offset="0.867188"/><stop stop-opacity="1" stop-color="rgb(30.427551%, 53.222656%, 98.376465%)" offset="0.875"/><stop stop-opacity="1" stop-color="rgb(30.519104%, 52.929688%, 98.457336%)" offset="0.890625"/><stop stop-opacity="1" stop-color="rgb(30.610657%, 52.635193%, 98.539734%)" offset="0.898438"/><stop stop-opacity="1" stop-color="rgb(30.671692%, 52.43988%, 98.594666%)" offset="0.90625"/><stop stop-opacity="1" stop-color="rgb(30.732727%, 52.243042%, 98.649597%)" offset="0.914062"/><stop stop-opacity="1" stop-color="rgb(30.793762%, 52.047729%, 98.703003%)" offset="0.921875"/><stop stop-opacity="1" stop-color="rgb(30.854797%, 51.850891%, 98.757935%)" offset="0.929688"/><stop stop-opacity="1" stop-color="rgb(30.915833%, 51.655579%, 98.812866%)" offset="0.9375"/><stop stop-opacity="1" stop-color="rgb(30.976868%, 51.460266%, 98.867798%)" offset="0.945313"/><stop stop-opacity="1" stop-color="rgb(31.037903%, 51.263428%, 98.922729%)" offset="0.953125"/><stop stop-opacity="1" stop-color="rgb(31.098938%, 51.068115%, 98.976135%)" offset="0.960938"/><stop stop-opacity="1" stop-color="rgb(31.159973%, 50.871277%, 99.031067%)" offset="0.96875"/><stop stop-opacity="1" stop-color="rgb(31.221008%, 50.675964%, 99.085999%)" offset="0.976563"/><stop stop-opacity="1" stop-color="rgb(31.282043%, 50.479126%, 99.14093%)" offset="0.984375"/><stop stop-opacity="1" stop-color="rgb(31.340027%, 50.289917%, 99.19281%)" offset="1"/></linearGradient><clipPath id="be2bf402bb"><path d="M 203 203 L 206 203 L 206 207.160156 L 203 207.160156 Z M 203 203 " clip-rule="nonzero"/></clipPath><clipPath id="750b4cb444"><path d="M 203 201 L 209.03125 201 L 209.03125 207.160156 L 203 207.160156 Z M 203 201 " clip-rule="nonzero"/></clipPath><clipPath id="57ba5de1d1"><path d="M 203.03125 207.03125 C 203.027344 206.632812 203.074219 205.316406 203.722656 204.03125 C 203.925781 203.625 204.191406 203.222656 204.53125 202.855469 C 205.414062 201.898438 206.8125 201.164062 209.03125 201.164062 L 209.03125 203.410156 C 207.394531 203.410156 206.203125 203.660156 205.339844 204.03125 C 205.03125 204.164062 204.761719 204.308594 204.53125 204.464844 C 203.167969 205.390625 203.035156 206.640625 203.03125 207.03125 Z M 203.03125 207.03125 " clip-rule="nonzero"/></clipPath><linearGradient x1="167.432197" gradientTransform="matrix(-0.0249488, 0, 0, -0.0249079, 213.207309, 203.156365)" y1="-37.771" x2="408.042209" gradientUnits="userSpaceOnUse" y2="-37.771" id="1db0bfce28"><stop stop-opacity="1" stop-color="rgb(23.919678%, 74.119568%, 92.549133%)" offset="0"/><stop stop-opacity="1" stop-color="rgb(23.919678%, 74.119568%, 92.549133%)" offset="0.03125"/><stop stop-opacity="1" stop-color="rgb(23.953247%, 74.009705%, 92.579651%)" offset="0.046875"/><stop stop-opacity="1" stop-color="rgb(24.01886%, 73.800659%, 92.637634%)" offset="0.0546875"/><stop stop-opacity="1" stop-color="rgb(24.079895%, 73.605347%, 92.692566%)" offset="0.0625"/><stop stop-opacity="1" stop-color="rgb(24.14093%, 73.408508%, 92.747498%)" offset="0.0703125"/><stop stop-opacity="1" stop-color="rgb(24.201965%, 73.213196%, 92.802429%)" offset="0.078125"/><stop stop-opacity="1" stop-color="rgb(24.263%, 73.016357%, 92.855835%)" offset="0.0859375"/><stop stop-opacity="1" stop-color="rgb(24.324036%, 72.821045%, 92.910767%)" offset="0.09375"/><stop stop-opacity="1" stop-color="rgb(24.385071%, 72.624207%, 92.965698%)" offset="0.101563"/><stop stop-opacity="1" stop-color="rgb(24.446106%, 72.428894%, 93.02063%)" offset="0.109375"/><stop stop-opacity="1" stop-color="rgb(24.507141%, 72.233582%, 93.075562%)" offset="0.117188"/><stop stop-opacity="1" stop-color="rgb(24.568176%, 72.036743%, 93.128967%)" offset="0.125"/><stop stop-opacity="1" stop-color="rgb(24.629211%, 71.841431%, 93.183899%)" offset="0.132812"/><stop stop-opacity="1" stop-color="rgb(24.690247%, 71.644592%, 93.238831%)" offset="0.140625"/><stop stop-opacity="1" stop-color="rgb(24.751282%, 71.44928%, 93.293762%)" offset="0.148438"/><stop stop-opacity="1" stop-color="rgb(24.812317%, 71.252441%, 93.348694%)" offset="0.15625"/><stop stop-opacity="1" stop-color="rgb(24.90387%, 70.959473%, 93.429565%)" offset="0.171875"/><stop stop-opacity="1" stop-color="rgb(24.995422%, 70.664978%, 93.511963%)" offset="0.179688"/><stop stop-opacity="1" stop-color="rgb(25.056458%, 70.469666%, 93.566895%)" offset="0.1875"/><stop stop-opacity="1" stop-color="rgb(25.117493%, 70.272827%, 93.621826%)" offset="0.195312"/><stop stop-opacity="1" stop-color="rgb(25.178528%, 70.077515%, 93.676758%)" offset="0.203125"/><stop stop-opacity="1" stop-color="rgb(25.239563%, 69.880676%, 93.730164%)" offset="0.210938"/><stop stop-opacity="1" stop-color="rgb(25.300598%, 69.685364%, 93.785095%)" offset="0.21875"/><stop stop-opacity="1" stop-color="rgb(25.361633%, 69.488525%, 93.840027%)" offset="0.226563"/><stop stop-opacity="1" stop-color="rgb(25.422668%, 69.293213%, 93.894958%)" offset="0.234375"/><stop stop-opacity="1" stop-color="rgb(25.483704%, 69.0979%, 93.94989%)" offset="0.242188"/><stop stop-opacity="1" stop-color="rgb(25.544739%, 68.901062%, 94.003296%)" offset="0.25"/><stop stop-opacity="1" stop-color="rgb(25.605774%, 68.70575%, 94.058228%)" offset="0.257812"/><stop stop-opacity="1" stop-color="rgb(25.666809%, 68.508911%, 94.113159%)" offset="0.265625"/><stop stop-opacity="1" stop-color="rgb(25.727844%, 68.313599%, 94.168091%)" offset="0.273438"/><stop stop-opacity="1" stop-color="rgb(25.788879%, 68.11676%, 94.223022%)" offset="0.28125"/><stop stop-opacity="1" stop-color="rgb(25.880432%, 67.823792%, 94.303894%)" offset="0.296875"/><stop stop-opacity="1" stop-color="rgb(25.971985%, 67.529297%, 94.386292%)" offset="0.304688"/><stop stop-opacity="1" stop-color="rgb(26.03302%, 67.333984%, 94.441223%)" offset="0.3125"/><stop stop-opacity="1" stop-color="rgb(26.094055%, 67.137146%, 94.496155%)" offset="0.320313"/><stop stop-opacity="1" stop-color="rgb(26.15509%, 66.941833%, 94.551086%)" offset="0.328125"/><stop stop-opacity="1" stop-color="rgb(26.216125%, 66.744995%, 94.604492%)" offset="0.335938"/><stop stop-opacity="1" stop-color="rgb(26.277161%, 66.549683%, 94.659424%)" offset="0.34375"/><stop stop-opacity="1" stop-color="rgb(26.338196%, 66.352844%, 94.714355%)" offset="0.351563"/><stop stop-opacity="1" stop-color="rgb(26.399231%, 66.157532%, 94.769287%)" offset="0.359375"/><stop stop-opacity="1" stop-color="rgb(26.460266%, 65.962219%, 94.824219%)" offset="0.367188"/><stop stop-opacity="1" stop-color="rgb(26.521301%, 65.765381%, 94.877625%)" offset="0.375"/><stop stop-opacity="1" stop-color="rgb(26.582336%, 65.570068%, 94.932556%)" offset="0.382812"/><stop stop-opacity="1" stop-color="rgb(26.643372%, 65.37323%, 94.987488%)" offset="0.390625"/><stop stop-opacity="1" stop-color="rgb(26.704407%, 65.177917%, 95.042419%)" offset="0.398438"/><stop stop-opacity="1" stop-color="rgb(26.765442%, 64.981079%, 95.097351%)" offset="0.40625"/><stop stop-opacity="1" stop-color="rgb(26.856995%, 64.68811%, 95.178223%)" offset="0.421875"/><stop stop-opacity="1" stop-color="rgb(26.948547%, 64.393616%, 95.26062%)" offset="0.429688"/><stop stop-opacity="1" stop-color="rgb(27.009583%, 64.198303%, 95.315552%)" offset="0.4375"/><stop stop-opacity="1" stop-color="rgb(27.070618%, 64.001465%, 95.370483%)" offset="0.445313"/><stop stop-opacity="1" stop-color="rgb(27.131653%, 63.806152%, 95.425415%)" offset="0.453125"/><stop stop-opacity="1" stop-color="rgb(27.192688%, 63.609314%, 95.478821%)" offset="0.460938"/><stop stop-opacity="1" stop-color="rgb(27.253723%, 63.414001%, 95.533752%)" offset="0.46875"/><stop stop-opacity="1" stop-color="rgb(27.314758%, 63.217163%, 95.588684%)" offset="0.476563"/><stop stop-opacity="1" stop-color="rgb(27.375793%, 63.021851%, 95.643616%)" offset="0.484375"/><stop stop-opacity="1" stop-color="rgb(27.436829%, 62.826538%, 95.698547%)" offset="0.492188"/><stop stop-opacity="1" stop-color="rgb(27.497864%, 62.6297%, 95.753479%)" offset="0.5"/><stop stop-opacity="1" stop-color="rgb(27.558899%, 62.434387%, 95.806885%)" offset="0.507812"/><stop stop-opacity="1" stop-color="rgb(27.619934%, 62.237549%, 95.861816%)" offset="0.515625"/><stop stop-opacity="1" stop-color="rgb(27.680969%, 62.042236%, 95.916748%)" offset="0.523438"/><stop stop-opacity="1" stop-color="rgb(27.742004%, 61.845398%, 95.97168%)" offset="0.53125"/><stop stop-opacity="1" stop-color="rgb(27.833557%, 61.552429%, 96.052551%)" offset="0.546875"/><stop stop-opacity="1" stop-color="rgb(27.92511%, 61.257935%, 96.134949%)" offset="0.554688"/><stop stop-opacity="1" stop-color="rgb(27.986145%, 61.062622%, 96.18988%)" offset="0.5625"/><stop stop-opacity="1" stop-color="rgb(28.04718%, 60.865784%, 96.244812%)" offset="0.570313"/><stop stop-opacity="1" stop-color="rgb(28.108215%, 60.670471%, 96.299744%)" offset="0.578125"/><stop stop-opacity="1" stop-color="rgb(28.16925%, 60.473633%, 96.353149%)" offset="0.585938"/><stop stop-opacity="1" stop-color="rgb(28.230286%, 60.27832%, 96.408081%)" offset="0.59375"/><stop stop-opacity="1" stop-color="rgb(28.291321%, 60.081482%, 96.463013%)" offset="0.601563"/><stop stop-opacity="1" stop-color="rgb(28.352356%, 59.886169%, 96.517944%)" offset="0.609375"/><stop stop-opacity="1" stop-color="rgb(28.413391%, 59.690857%, 96.572876%)" offset="0.617188"/><stop stop-opacity="1" stop-color="rgb(28.474426%, 59.494019%, 96.627808%)" offset="0.625"/><stop stop-opacity="1" stop-color="rgb(28.535461%, 59.298706%, 96.681213%)" offset="0.632813"/><stop stop-opacity="1" stop-color="rgb(28.596497%, 59.101868%, 96.736145%)" offset="0.640625"/><stop stop-opacity="1" stop-color="rgb(28.657532%, 58.906555%, 96.791077%)" offset="0.648438"/><stop stop-opacity="1" stop-color="rgb(28.718567%, 58.709717%, 96.846008%)" offset="0.65625"/><stop stop-opacity="1" stop-color="rgb(28.81012%, 58.416748%, 96.92688%)" offset="0.671875"/><stop stop-opacity="1" stop-color="rgb(28.901672%, 58.122253%, 97.009277%)" offset="0.679688"/><stop stop-opacity="1" stop-color="rgb(28.962708%, 57.926941%, 97.064209%)" offset="0.6875"/><stop stop-opacity="1" stop-color="rgb(29.023743%, 57.730103%, 97.119141%)" offset="0.695313"/><stop stop-opacity="1" stop-color="rgb(29.084778%, 57.53479%, 97.174072%)" offset="0.703125"/><stop stop-opacity="1" stop-color="rgb(29.145813%, 57.337952%, 97.229004%)" offset="0.710938"/><stop stop-opacity="1" stop-color="rgb(29.206848%, 57.142639%, 97.28241%)" offset="0.71875"/><stop stop-opacity="1" stop-color="rgb(29.267883%, 56.945801%, 97.337341%)" offset="0.726563"/><stop stop-opacity="1" stop-color="rgb(29.328918%, 56.750488%, 97.392273%)" offset="0.734375"/><stop stop-opacity="1" stop-color="rgb(29.389954%, 56.555176%, 97.447205%)" offset="0.742188"/><stop stop-opacity="1" stop-color="rgb(29.450989%, 56.358337%, 97.502136%)" offset="0.75"/><stop stop-opacity="1" stop-color="rgb(29.512024%, 56.163025%, 97.555542%)" offset="0.757813"/><stop stop-opacity="1" stop-color="rgb(29.573059%, 55.966187%, 97.610474%)" offset="0.765625"/><stop stop-opacity="1" stop-color="rgb(29.634094%, 55.770874%, 97.665405%)" offset="0.773438"/><stop stop-opacity="1" stop-color="rgb(29.695129%, 55.574036%, 97.720337%)" offset="0.78125"/><stop stop-opacity="1" stop-color="rgb(29.786682%, 55.281067%, 97.801208%)" offset="0.796875"/><stop stop-opacity="1" stop-color="rgb(29.878235%, 54.986572%, 97.883606%)" offset="0.804688"/><stop stop-opacity="1" stop-color="rgb(29.93927%, 54.79126%, 97.938538%)" offset="0.8125"/><stop stop-opacity="1" stop-color="rgb(30.000305%, 54.594421%, 97.993469%)" offset="0.820313"/><stop stop-opacity="1" stop-color="rgb(30.06134%, 54.399109%, 98.048401%)" offset="0.828125"/><stop stop-opacity="1" stop-color="rgb(30.122375%, 54.202271%, 98.103333%)" offset="0.835938"/><stop stop-opacity="1" stop-color="rgb(30.183411%, 54.006958%, 98.156738%)" offset="0.84375"/><stop stop-opacity="1" stop-color="rgb(30.244446%, 53.81012%, 98.21167%)" offset="0.851563"/><stop stop-opacity="1" stop-color="rgb(30.305481%, 53.614807%, 98.266602%)" offset="0.859375"/><stop stop-opacity="1" stop-color="rgb(30.366516%, 53.419495%, 98.321533%)" offset="0.867188"/><stop stop-opacity="1" stop-color="rgb(30.427551%, 53.222656%, 98.376465%)" offset="0.875"/><stop stop-opacity="1" stop-color="rgb(30.488586%, 53.027344%, 98.429871%)" offset="0.882813"/><stop stop-opacity="1" stop-color="rgb(30.549622%, 52.830505%, 98.484802%)" offset="0.890625"/><stop stop-opacity="1" stop-color="rgb(30.610657%, 52.635193%, 98.539734%)" offset="0.898438"/><stop stop-opacity="1" stop-color="rgb(30.671692%, 52.438354%, 98.594666%)" offset="0.90625"/><stop stop-opacity="1" stop-color="rgb(30.763245%, 52.145386%, 98.675537%)" offset="0.921875"/><stop stop-opacity="1" stop-color="rgb(30.854797%, 51.850891%, 98.757935%)" offset="0.929688"/><stop stop-opacity="1" stop-color="rgb(30.915833%, 51.655579%, 98.812866%)" offset="0.9375"/><stop stop-opacity="1" stop-color="rgb(30.976868%, 51.45874%, 98.867798%)" offset="0.945313"/><stop stop-opacity="1" stop-color="rgb(31.037903%, 51.263428%, 98.922729%)" offset="0.953125"/><stop stop-opacity="1" stop-color="rgb(31.098938%, 51.066589%, 98.977661%)" offset="0.960938"/><stop stop-opacity="1" stop-color="rgb(31.159973%, 50.871277%, 99.031067%)" offset="0.96875"/><stop stop-opacity="1" stop-color="rgb(31.221008%, 50.674438%, 99.085999%)" offset="0.976563"/><stop stop-opacity="1" stop-color="rgb(31.282043%, 50.479126%, 99.14093%)" offset="0.984375"/><stop stop-opacity="1" stop-color="rgb(31.340027%, 50.289917%, 99.19281%)" offset="1"/></linearGradient><clipPath id="72898c5214"><path d="M 169 98 L 205 98 L 205 110 L 169 110 Z M 169 98 " clip-rule="nonzero"/></clipPath><clipPath id="3fd0eeb753"><path d="M 163.792969 100.152344 L 209.449219 97.214844 L 211.230469 124.90625 L 165.574219 127.84375 Z M 163.792969 100.152344 " clip-rule="nonzero"/></clipPath><clipPath id="7b062c0dc8"><path d="M 163.792969 100.152344 L 209.449219 97.214844 L 211.230469 124.90625 L 165.574219 127.84375 Z M 163.792969 100.152344 " clip-rule="nonzero"/></clipPath><clipPath id="512a88dc4b"><path d="M 169 104 L 206 104 L 206 117 L 169 117 Z M 169 104 " clip-rule="nonzero"/></clipPath><clipPath id="ba06cc3268"><path d="M 163.792969 100.152344 L 209.449219 97.214844 L 211.230469 124.90625 L 165.574219 127.84375 Z M 163.792969 100.152344 " clip-rule="nonzero"/></clipPath><clipPath id="25bd72c081"><path d="M 163.792969 100.152344 L 209.449219 97.214844 L 211.230469 124.90625 L 165.574219 127.84375 Z M 163.792969 100.152344 " clip-rule="nonzero"/></clipPath><clipPath id="a9566c549d"><path d="M 169 108 L 206 108 L 206 118 L 169 118 Z M 169 108 " clip-rule="nonzero"/></clipPath><clipPath id="95001dbb8c"><path d="M 163.792969 100.152344 L 209.449219 97.214844 L 211.230469 124.90625 L 165.574219 127.84375 Z M 163.792969 100.152344 " clip-rule="nonzero"/></clipPath><clipPath id="107a78bca3"><path d="M 163.792969 100.152344 L 209.449219 97.214844 L 211.230469 124.90625 L 165.574219 127.84375 Z M 163.792969 100.152344 " clip-rule="nonzero"/></clipPath><clipPath id="725bb1d45c"><path d="M 165 104 L 211 104 L 211 128 L 165 128 Z M 165 104 " clip-rule="nonzero"/></clipPath><clipPath id="d31905dd2b"><path d="M 163.792969 100.152344 L 209.449219 97.214844 L 211.230469 124.90625 L 165.574219 127.84375 Z M 163.792969 100.152344 " clip-rule="nonzero"/></clipPath><clipPath id="5288f233e2"><path d="M 163.792969 100.152344 L 209.449219 97.214844 L 211.230469 124.90625 L 165.574219 127.84375 Z M 163.792969 100.152344 " clip-rule="nonzero"/></clipPath><clipPath id="0f2f14d50f"><path d="M 170 123 L 180 123 L 180 127 L 170 127 Z M 170 123 " clip-rule="nonzero"/></clipPath><clipPath id="ab46260a1e"><path d="M 163.792969 100.152344 L 209.449219 97.214844 L 211.230469 124.90625 L 165.574219 127.84375 Z M 163.792969 100.152344 " clip-rule="nonzero"/></clipPath><clipPath id="39a5b2e49f"><path d="M 163.792969 100.152344 L 209.449219 97.214844 L 211.230469 124.90625 L 165.574219 127.84375 Z M 163.792969 100.152344 " clip-rule="nonzero"/></clipPath></defs><path fill="#f6f6f6" d="M 232.328125 143.285156 C 232.148438 143.285156 233.492188 123.960938 233.492188 123.960938 L 238.058594 123.914062 C 238.058594 123.914062 239.132812 147.75 238.6875 147.792969 C 238.238281 147.839844 232.328125 143.285156 232.328125 143.285156 Z M 232.328125 143.285156 " fill-opacity="1" fill-rule="nonzero"/><path fill="#f6f6f6" d="M 239.714844 120.632812 C 239.714844 120.902344 239.691406 121.167969 239.636719 121.429688 C 239.585938 121.695312 239.507812 121.949219 239.402344 122.195312 C 239.300781 122.445312 239.175781 122.679688 239.027344 122.902344 C 238.875 123.125 238.707031 123.332031 238.515625 123.523438 C 238.324219 123.710938 238.117188 123.878906 237.894531 124.03125 C 237.671875 124.179688 237.433594 124.304688 237.1875 124.40625 C 236.9375 124.511719 236.679688 124.585938 236.417969 124.640625 C 236.152344 124.691406 235.886719 124.71875 235.617188 124.71875 C 235.347656 124.71875 235.082031 124.691406 234.820312 124.640625 C 234.554688 124.585938 234.296875 124.511719 234.050781 124.40625 C 233.800781 124.304688 233.566406 124.179688 233.339844 124.03125 C 233.117188 123.878906 232.910156 123.710938 232.71875 123.523438 C 232.53125 123.332031 232.359375 123.125 232.210938 122.902344 C 232.0625 122.679688 231.933594 122.445312 231.832031 122.195312 C 231.730469 121.949219 231.652344 121.695312 231.597656 121.429688 C 231.546875 121.167969 231.519531 120.902344 231.519531 120.632812 C 231.519531 120.367188 231.546875 120.101562 231.597656 119.835938 C 231.652344 119.574219 231.730469 119.320312 231.832031 119.070312 C 231.933594 118.824219 232.0625 118.589844 232.210938 118.363281 C 232.359375 118.140625 232.53125 117.9375 232.71875 117.746094 C 232.910156 117.554688 233.117188 117.386719 233.339844 117.238281 C 233.566406 117.089844 233.800781 116.964844 234.050781 116.859375 C 234.296875 116.757812 234.554688 116.679688 234.820312 116.628906 C 235.082031 116.574219 235.347656 116.550781 235.617188 116.550781 C 235.886719 116.550781 236.152344 116.574219 236.417969 116.628906 C 236.679688 116.679688 236.9375 116.757812 237.1875 116.859375 C 237.433594 116.964844 237.671875 117.089844 237.894531 117.238281 C 238.117188 117.386719 238.324219 117.554688 238.515625 117.746094 C 238.707031 117.9375 238.875 118.140625 239.027344 118.363281 C 239.175781 118.589844 239.300781 118.824219 239.402344 119.070312 C 239.507812 119.320312 239.585938 119.574219 239.636719 119.835938 C 239.691406 120.101562 239.714844 120.367188 239.714844 120.632812 Z M 239.714844 120.632812 " fill-opacity="1" fill-rule="nonzero"/><g clip-path="url(#b22d32b2da)"><path fill="#54a3e6" d="M 231.277344 140.132812 L 233.183594 140.039062 C 233.710938 140.011719 234.238281 140.039062 234.761719 140.113281 C 235.285156 140.191406 235.796875 140.320312 236.296875 140.496094 C 236.792969 140.671875 237.269531 140.898438 237.722656 141.167969 C 238.179688 141.4375 238.601562 141.75 238.996094 142.105469 C 239.386719 142.457031 239.742188 142.847656 240.058594 143.269531 C 240.371094 143.695312 240.644531 144.144531 240.871094 144.621094 C 241.097656 145.097656 241.277344 145.59375 241.40625 146.101562 C 241.535156 146.613281 241.613281 147.132812 241.636719 147.660156 L 242.390625 162.640625 C 242.417969 163.167969 242.394531 163.691406 242.316406 164.214844 C 242.238281 164.734375 242.113281 165.246094 241.933594 165.742188 C 241.753906 166.238281 241.53125 166.710938 241.257812 167.164062 C 240.988281 167.617188 240.675781 168.039062 240.320312 168.429688 C 239.964844 168.824219 239.574219 169.175781 239.148438 169.492188 C 238.722656 169.804688 238.273438 170.074219 237.792969 170.300781 C 237.316406 170.527344 236.820312 170.703125 236.308594 170.832031 C 235.792969 170.960938 235.273438 171.039062 234.742188 171.066406 L 232.839844 171.160156 C 232.308594 171.1875 231.785156 171.164062 231.261719 171.085938 C 230.738281 171.007812 230.226562 170.882812 229.726562 170.703125 C 229.226562 170.527344 228.75 170.304688 228.296875 170.03125 C 227.84375 169.761719 227.417969 169.449219 227.027344 169.097656 C 226.632812 168.742188 226.28125 168.351562 225.964844 167.929688 C 225.648438 167.507812 225.378906 167.054688 225.152344 166.578125 C 224.925781 166.101562 224.746094 165.609375 224.617188 165.097656 C 224.488281 164.585938 224.410156 164.066406 224.382812 163.539062 L 223.628906 148.5625 C 223.601562 148.035156 223.628906 147.507812 223.707031 146.988281 C 223.78125 146.464844 223.910156 145.957031 224.089844 145.460938 C 224.265625 144.960938 224.492188 144.488281 224.761719 144.035156 C 225.035156 143.582031 225.347656 143.160156 225.703125 142.769531 C 226.058594 142.378906 226.449219 142.023438 226.871094 141.710938 C 227.296875 141.394531 227.75 141.125 228.226562 140.898438 C 228.707031 140.671875 229.203125 140.496094 229.714844 140.367188 C 230.226562 140.238281 230.75 140.160156 231.277344 140.132812 Z M 231.277344 140.132812 " fill-opacity="1" fill-rule="nonzero"/></g><path fill="#f6f6f6" d="M 142.933594 147.070312 C 143.109375 147.046875 139.226562 128.0625 139.226562 128.0625 L 134.691406 128.621094 C 134.691406 128.621094 136.773438 152.386719 137.222656 152.375 C 137.671875 152.359375 142.933594 147.070312 142.933594 147.070312 Z M 142.933594 147.070312 " fill-opacity="1" fill-rule="nonzero"/><g clip-path="url(#db887bc052)"><path fill="#f6f6f6" d="M 140.773438 125.046875 C 140.773438 125.316406 140.75 125.582031 140.695312 125.84375 C 140.644531 126.105469 140.566406 126.363281 140.464844 126.609375 C 140.359375 126.855469 140.234375 127.09375 140.085938 127.316406 C 139.933594 127.539062 139.765625 127.746094 139.574219 127.933594 C 139.382812 128.125 139.175781 128.292969 138.953125 128.441406 C 138.730469 128.589844 138.492188 128.71875 138.246094 128.820312 C 137.996094 128.921875 137.742188 129 137.476562 129.050781 C 137.210938 129.105469 136.945312 129.128906 136.675781 129.128906 C 136.40625 129.128906 136.140625 129.105469 135.878906 129.050781 C 135.613281 129 135.355469 128.921875 135.109375 128.820312 C 134.859375 128.71875 134.625 128.589844 134.398438 128.441406 C 134.175781 128.292969 133.96875 128.125 133.78125 127.933594 C 133.589844 127.746094 133.417969 127.539062 133.269531 127.316406 C 133.121094 127.09375 132.992188 126.855469 132.890625 126.609375 C 132.789062 126.363281 132.710938 126.105469 132.65625 125.84375 C 132.605469 125.582031 132.578125 125.316406 132.578125 125.046875 C 132.578125 124.777344 132.605469 124.511719 132.65625 124.25 C 132.710938 123.988281 132.789062 123.730469 132.890625 123.484375 C 132.992188 123.234375 133.121094 123 133.269531 122.777344 C 133.417969 122.554688 133.589844 122.347656 133.78125 122.160156 C 133.96875 121.96875 134.175781 121.800781 134.398438 121.652344 C 134.625 121.503906 134.859375 121.375 135.109375 121.273438 C 135.355469 121.171875 135.613281 121.09375 135.878906 121.042969 C 136.140625 120.988281 136.40625 120.960938 136.675781 120.960938 C 136.945312 120.960938 137.210938 120.988281 137.476562 121.042969 C 137.742188 121.09375 137.996094 121.171875 138.246094 121.273438 C 138.492188 121.375 138.730469 121.503906 138.953125 121.652344 C 139.175781 121.800781 139.382812 121.96875 139.574219 122.160156 C 139.765625 122.347656 139.933594 122.554688 140.085938 122.777344 C 140.234375 123 140.359375 123.234375 140.464844 123.484375 C 140.566406 123.730469 140.644531 123.988281 140.695312 124.25 C 140.75 124.511719 140.773438 124.777344 140.773438 125.046875 Z M 140.773438 125.046875 " fill-opacity="1" fill-rule="nonzero"/></g><path fill="#54a3e6" d="M 146.109375 174.769531 L 144.207031 174.925781 C 143.679688 174.96875 143.15625 174.957031 142.628906 174.898438 C 142.101562 174.839844 141.589844 174.726562 141.082031 174.566406 C 140.578125 174.40625 140.097656 174.195312 139.632812 173.941406 C 139.171875 173.683594 138.738281 173.382812 138.335938 173.042969 C 137.929688 172.703125 137.5625 172.324219 137.234375 171.910156 C 136.90625 171.5 136.621094 171.058594 136.378906 170.585938 C 136.136719 170.117188 135.941406 169.628906 135.796875 169.121094 C 135.652344 168.617188 135.558594 168.097656 135.515625 167.574219 L 134.285156 152.625 C 134.242188 152.101562 134.25 151.574219 134.308594 151.050781 C 134.371094 150.527344 134.480469 150.015625 134.644531 149.511719 C 134.804688 149.007812 135.015625 148.527344 135.273438 148.066406 C 135.53125 147.605469 135.828125 147.175781 136.171875 146.773438 C 136.515625 146.371094 136.894531 146.003906 137.308594 145.675781 C 137.722656 145.347656 138.164062 145.0625 138.636719 144.824219 C 139.105469 144.582031 139.597656 144.390625 140.105469 144.242188 C 140.613281 144.097656 141.132812 144.003906 141.660156 143.960938 L 143.5625 143.804688 C 144.089844 143.761719 144.617188 143.773438 145.140625 143.832031 C 145.667969 143.890625 146.183594 144.003906 146.6875 144.164062 C 147.191406 144.324219 147.671875 144.535156 148.136719 144.789062 C 148.597656 145.046875 149.03125 145.347656 149.4375 145.6875 C 149.839844 146.027344 150.207031 146.40625 150.535156 146.820312 C 150.863281 147.230469 151.148438 147.671875 151.390625 148.144531 C 151.632812 148.613281 151.828125 149.101562 151.972656 149.609375 C 152.117188 150.113281 152.210938 150.632812 152.253906 151.15625 L 153.484375 166.105469 C 153.527344 166.628906 153.519531 167.15625 153.460938 167.679688 C 153.398438 168.203125 153.289062 168.714844 153.125 169.21875 C 152.964844 169.722656 152.753906 170.203125 152.496094 170.664062 C 152.242188 171.125 151.941406 171.554688 151.597656 171.957031 C 151.257812 172.359375 150.878906 172.726562 150.460938 173.054688 C 150.046875 173.382812 149.605469 173.667969 149.132812 173.90625 C 148.664062 174.148438 148.171875 174.339844 147.664062 174.488281 C 147.15625 174.632812 146.636719 174.726562 146.109375 174.769531 Z M 146.109375 174.769531 " fill-opacity="1" fill-rule="nonzero"/><path fill="#f6f6f6" d="M 141.765625 207.070312 C 141.828125 207.367188 141.167969 215.640625 154.605469 215.640625 C 168.039062 215.640625 169.355469 209.808594 169.117188 209.449219 C 168.878906 209.09375 170.609375 193.859375 169.117188 192.847656 C 167.625 191.835938 163.921875 190.109375 162.25 190.644531 C 160.578125 191.179688 157.890625 192.011719 156.933594 192.90625 C 155.976562 193.800781 141.40625 205.40625 141.765625 207.070312 Z M 141.765625 207.070312 " fill-opacity="1" fill-rule="nonzero"/><g clip-path="url(#6b8864e183)"><path fill="#f6f6f6" d="M 184.710938 244.292969 C 184.691406 245.390625 184.660156 246.507812 184.613281 247.617188 C 184.421875 252.433594 183.964844 257.035156 182.96875 258.667969 C 180.582031 262.597656 166.25 264.023438 164.21875 260.453125 C 162.1875 256.882812 168.878906 253.429688 168.878906 253.429688 C 168.367188 252.042969 168.246094 249.613281 168.339844 246.832031 C 168.378906 245.765625 168.445312 244.648438 168.539062 243.519531 C 169.046875 237.226562 170.257812 230.535156 170.550781 230.101562 L 184.640625 233.671875 C 184.640625 233.671875 184.8125 238.695312 184.710938 244.292969 Z M 184.710938 244.292969 " fill-opacity="1" fill-rule="nonzero"/></g><g clip-path="url(#6623a360cb)"><path fill="#f6f6f6" d="M 234.945312 156.632812 C 236.394531 180.199219 216.875 196.472656 191.347656 198.03125 C 165.820312 199.59375 143.949219 185.84375 142.5 162.28125 C 141.050781 138.71875 150.195312 115.261719 186.097656 112.699219 C 222.203125 110.121094 233.496094 133.070312 234.945312 156.632812 Z M 234.945312 156.632812 " fill-opacity="1" fill-rule="nonzero"/></g><path fill="#160e0b" d="M 171.265625 132.5 C 171.265625 132.5 155.738281 134.285156 153.230469 147.855469 C 150.867188 160.640625 150.960938 182.015625 176.164062 187.253906 C 201.363281 192.488281 220.949219 182.132812 225.128906 165.707031 C 229.308594 149.28125 223.339844 135.117188 213.785156 132.261719 C 200.644531 128.332031 171.265625 132.5 171.265625 132.5 Z M 171.265625 132.5 " fill-opacity="1" fill-rule="nonzero"/><path fill="#54a3e6" d="M 190.207031 174.675781 C 187.210938 174.675781 184.585938 174.15625 182.394531 173.125 C 180.402344 172.1875 179.324219 171.074219 178.921875 170.65625 C 178.898438 170.632812 178.871094 170.605469 178.851562 170.582031 C 178.433594 170.261719 178.289062 169.679688 178.535156 169.191406 C 178.8125 168.636719 179.492188 168.414062 180.050781 168.691406 C 180.253906 168.792969 180.375 168.917969 180.546875 169.09375 C 183.40625 172.050781 187.867188 172.527344 191.105469 172.410156 C 198.738281 172.132812 200.207031 167.042969 200.222656 166.992188 C 200.386719 166.390625 201.003906 166.039062 201.605469 166.199219 C 202.207031 166.363281 202.566406 166.980469 202.402344 167.582031 C 202.382812 167.652344 201.902344 169.363281 200.25 171.074219 C 199.292969 172.0625 198.132812 172.863281 196.800781 173.453125 C 195.171875 174.179688 193.28125 174.582031 191.1875 174.660156 C 190.855469 174.671875 190.527344 174.679688 190.207031 174.679688 Z M 179.039062 170.703125 Z M 179.039062 170.703125 Z M 179.039062 170.703125 " fill-opacity="1" fill-rule="nonzero"/><path fill="#54a3e6" d="M 213.546875 153.804688 C 213.546875 154.320312 213.507812 154.832031 213.4375 155.339844 C 213.367188 155.84375 213.257812 156.335938 213.117188 156.8125 C 212.976562 157.289062 212.804688 157.742188 212.597656 158.171875 C 212.394531 158.597656 212.160156 158.996094 211.902344 159.359375 C 211.640625 159.726562 211.355469 160.050781 211.050781 160.335938 C 210.742188 160.625 210.421875 160.867188 210.078125 161.0625 C 209.738281 161.261719 209.386719 161.410156 209.027344 161.511719 C 208.664062 161.609375 208.300781 161.660156 207.933594 161.660156 C 207.5625 161.660156 207.199219 161.609375 206.835938 161.511719 C 206.476562 161.410156 206.125 161.261719 205.785156 161.0625 C 205.441406 160.867188 205.121094 160.625 204.8125 160.335938 C 204.507812 160.050781 204.222656 159.726562 203.960938 159.359375 C 203.703125 158.996094 203.46875 158.597656 203.265625 158.171875 C 203.058594 157.742188 202.886719 157.289062 202.746094 156.8125 C 202.605469 156.335938 202.5 155.84375 202.425781 155.339844 C 202.355469 154.832031 202.320312 154.320312 202.320312 153.804688 C 202.320312 153.289062 202.355469 152.777344 202.425781 152.273438 C 202.5 151.765625 202.605469 151.277344 202.746094 150.800781 C 202.886719 150.324219 203.058594 149.871094 203.265625 149.441406 C 203.46875 149.011719 203.703125 148.617188 203.960938 148.25 C 204.222656 147.886719 204.507812 147.558594 204.8125 147.273438 C 205.121094 146.988281 205.441406 146.746094 205.785156 146.546875 C 206.125 146.351562 206.476562 146.203125 206.835938 146.101562 C 207.199219 146 207.5625 145.949219 207.933594 145.949219 C 208.300781 145.949219 208.664062 146 209.027344 146.101562 C 209.386719 146.203125 209.738281 146.351562 210.078125 146.546875 C 210.421875 146.746094 210.742188 146.988281 211.050781 147.273438 C 211.355469 147.558594 211.640625 147.886719 211.902344 148.25 C 212.160156 148.617188 212.394531 149.011719 212.597656 149.441406 C 212.804688 149.871094 212.976562 150.324219 213.117188 150.800781 C 213.257812 151.277344 213.367188 151.765625 213.4375 152.273438 C 213.507812 152.777344 213.546875 153.289062 213.546875 153.804688 Z M 213.546875 153.804688 " fill-opacity="1" fill-rule="nonzero"/><path fill="#54a3e6" d="M 167.796875 165.21875 C 167.289062 165.21875 166.800781 164.949219 166.546875 164.484375 C 166.253906 163.949219 166.332031 163.296875 166.753906 162.828125 C 166.796875 162.78125 166.84375 162.734375 166.90625 162.675781 C 166.984375 162.601562 167.089844 162.507812 167.230469 162.382812 C 167.46875 162.175781 167.820312 161.878906 168.273438 161.5 C 169.03125 160.871094 170.085938 160 171.414062 158.917969 C 172.445312 158.074219 173.484375 157.230469 174.308594 156.5625 C 170.199219 154.425781 165.296875 151.933594 164.425781 151.625 C 163.769531 151.496094 163.277344 150.925781 163.277344 150.234375 C 163.277344 149.453125 163.914062 148.820312 164.695312 148.820312 C 165.066406 148.820312 165.320312 148.863281 167.476562 149.910156 C 168.519531 150.417969 169.925781 151.125 171.660156 152.011719 C 174.601562 153.515625 177.511719 155.039062 177.539062 155.054688 C 177.960938 155.273438 178.246094 155.691406 178.292969 156.167969 C 178.339844 156.640625 178.144531 157.105469 177.773438 157.40625 C 174.710938 159.875 169.757812 163.90625 168.929688 164.664062 C 168.761719 164.878906 168.53125 165.050781 168.25 165.144531 C 168.101562 165.195312 167.949219 165.21875 167.796875 165.21875 Z M 167.355469 162.460938 C 167.355469 162.460938 167.355469 162.460938 167.351562 162.460938 C 167.355469 162.460938 167.355469 162.460938 167.355469 162.460938 Z M 167.355469 162.460938 Z M 164.695312 151.648438 Z M 164.695312 151.648438 Z M 164.382812 151.609375 Z M 164.382812 151.609375 " fill-opacity="1" fill-rule="nonzero"/><path fill="#f6f6f6" d="M 215.21875 223.554688 C 211.753906 238.316406 175.207031 244.027344 166.964844 228.671875 C 164.386719 223.871094 163.503906 218.472656 163.527344 213.304688 C 163.53125 212.199219 163.578125 211.105469 163.65625 210.027344 C 164.394531 200.035156 168.027344 191.625 168.398438 191.179688 L 209.722656 192.371094 C 209.722656 192.371094 214.199219 200.578125 215.597656 210.601562 C 215.746094 211.652344 215.859375 212.722656 215.929688 213.804688 C 216.136719 217.007812 215.976562 220.320312 215.21875 223.554688 Z M 215.21875 223.554688 " fill-opacity="1" fill-rule="nonzero"/><path fill="#f6f6f6" d="M 227.878906 234.980469 C 224.535156 243.789062 218.433594 243.449219 217.695312 241.796875 C 216.957031 240.144531 217.917969 238.113281 219.375 235.859375 C 220.832031 233.605469 220.585938 228.671875 220.425781 228.851562 C 220.269531 229.03125 218.523438 233.515625 216.53125 233.40625 C 214.539062 233.292969 213.417969 230.503906 214.804688 227.890625 C 216.195312 225.28125 217.359375 223.71875 217.492188 222.023438 C 217.574219 221.027344 217.125 217.300781 216.519531 213.90625 C 216.503906 213.820312 216.488281 213.734375 216.472656 213.652344 C 216.269531 212.542969 216.050781 211.480469 215.832031 210.570312 C 215.828125 210.558594 215.824219 210.546875 215.820312 210.535156 C 215.648438 209.828125 215.472656 209.214844 215.300781 208.746094 C 215.242188 208.578125 215.179688 208.425781 215.121094 208.296875 C 214 205.886719 210.285156 197.765625 209.542969 196.804688 C 208.804688 195.84375 206.617188 193.679688 206.617188 193.679688 C 206.757812 193.585938 208.1875 193.234375 210.253906 193.414062 C 213.453125 193.6875 218.179688 195.226562 222.023438 200.941406 C 223.171875 202.648438 224.207031 204.5625 225.113281 206.613281 C 225.21875 206.855469 225.324219 207.097656 225.425781 207.34375 C 225.734375 208.074219 226.023438 208.820312 226.296875 209.574219 C 226.320312 209.640625 226.34375 209.703125 226.367188 209.769531 C 229.453125 218.4375 230.3125 228.570312 227.878906 234.980469 Z M 227.878906 234.980469 " fill-opacity="1" fill-rule="nonzero"/><path fill="#54a3e6" d="M 226.367188 209.769531 C 224.574219 211.234375 220.28125 214.339844 216.519531 213.90625 C 216.503906 213.820312 216.488281 213.734375 216.472656 213.652344 C 216.269531 212.542969 216.050781 211.480469 215.832031 210.570312 C 217.027344 210.398438 222.574219 209.511719 225.425781 207.34375 C 225.734375 208.074219 226.023438 208.820312 226.296875 209.574219 C 226.320312 209.640625 226.34375 209.703125 226.367188 209.769531 Z M 226.367188 209.769531 " fill-opacity="1" fill-rule="nonzero"/><path fill="#f6f6f6" d="M 146.960938 191.300781 C 147.4375 190.824219 149.886719 189.335938 150.960938 184.691406 C 152.039062 180.050781 151.378906 177.074219 154.484375 177.847656 C 157.589844 178.621094 158.070312 184.277344 157.472656 187.90625 C 156.875 191.535156 155.917969 192.132812 155.917969 192.132812 C 155.917969 192.132812 161.710938 190.464844 162.546875 195.644531 C 163.382812 200.820312 161.832031 208.675781 159.5 210.34375 C 157.171875 212.011719 149.171875 214.925781 145.289062 212.78125 C 141.40625 210.640625 140.035156 207.546875 140.632812 202.902344 C 141.226562 198.261719 146.960938 191.296875 146.960938 191.296875 Z M 146.960938 191.300781 " fill-opacity="1" fill-rule="nonzero"/><path fill="#160e0b" d="M 159.503906 210.769531 C 159.367188 210.769531 159.238281 210.707031 159.15625 210.59375 C 159.015625 210.402344 159.0625 210.132812 159.253906 209.996094 C 160.25 209.28125 161.203125 207.125 161.792969 204.226562 C 162.390625 201.296875 162.511719 198.117188 162.125 195.710938 C 161.917969 194.429688 161.367188 193.5 160.488281 192.941406 C 158.691406 191.804688 156.0625 192.535156 156.035156 192.542969 C 155.824219 192.601562 155.585938 192.5 155.503906 192.296875 C 155.425781 192.097656 155.492188 191.875 155.683594 191.777344 C 155.769531 191.699219 156.539062 190.945312 157.050781 187.839844 C 157.617188 184.386719 157.164062 178.957031 154.382812 178.261719 C 153.734375 178.101562 153.273438 178.117188 152.980469 178.316406 C 152.390625 178.707031 152.210938 179.90625 151.960938 181.5625 C 151.820312 182.511719 151.65625 183.589844 151.378906 184.789062 C 150.964844 186.582031 150.296875 188.128906 149.398438 189.394531 C 148.648438 190.441406 147.90625 191.058594 147.503906 191.390625 C 147.402344 191.480469 147.3125 191.554688 147.265625 191.601562 C 147.097656 191.765625 146.824219 191.765625 146.660156 191.601562 C 146.492188 191.433594 146.492188 191.164062 146.660156 190.996094 C 146.734375 190.925781 146.832031 190.839844 146.957031 190.738281 C 147.761719 190.070312 149.640625 188.511719 150.546875 184.597656 C 150.816406 183.429688 150.976562 182.371094 151.113281 181.4375 C 151.394531 179.5625 151.597656 178.207031 152.503906 177.605469 C 153.019531 177.265625 153.683594 177.210938 154.589844 177.4375 C 156.148438 177.824219 157.253906 179.304688 157.785156 181.714844 C 158.191406 183.566406 158.234375 185.90625 157.894531 187.976562 C 157.601562 189.757812 157.21875 190.851562 156.886719 191.515625 C 157.949219 191.382812 159.601562 191.371094 160.945312 192.222656 C 162.039062 192.914062 162.722656 194.042969 162.96875 195.574219 C 163.375 198.078125 163.246094 201.375 162.632812 204.394531 C 161.988281 207.546875 160.9375 209.839844 159.75 210.691406 C 159.675781 210.742188 159.589844 210.769531 159.503906 210.769531 Z M 155.691406 191.769531 Z M 155.691406 191.769531 " fill-opacity="1" fill-rule="nonzero"/><path fill="#54a3e6" d="M 184.710938 244.292969 C 184.691406 245.390625 184.660156 246.507812 184.613281 247.617188 C 183.109375 248.007812 181.566406 248.257812 180.019531 248.398438 C 178.199219 248.558594 176.359375 248.527344 174.546875 248.304688 C 172.597656 248.066406 170.683594 247.664062 168.828125 247.007812 C 168.664062 246.953125 168.503906 246.894531 168.339844 246.832031 C 168.378906 245.765625 168.445312 244.648438 168.539062 243.519531 C 168.542969 243.519531 168.542969 243.519531 168.546875 243.519531 C 170.453125 244.300781 172.457031 244.835938 174.496094 245.128906 C 174.921875 245.179688 175.34375 245.222656 175.769531 245.253906 C 177.492188 245.386719 179.226562 245.339844 180.9375 245.128906 C 182.214844 244.945312 183.476562 244.667969 184.710938 244.292969 Z M 184.710938 244.292969 " fill-opacity="1" fill-rule="nonzero"/><g clip-path="url(#3d446f0b85)"><path fill="#f6f6f6" d="M 193.726562 244.292969 C 193.746094 245.390625 193.777344 246.507812 193.824219 247.617188 C 194.015625 252.433594 194.472656 257.035156 195.464844 258.667969 C 197.855469 262.597656 212.1875 264.023438 214.21875 260.453125 C 216.25 256.882812 209.558594 253.429688 209.558594 253.429688 C 210.070312 252.042969 210.191406 249.613281 210.097656 246.832031 C 210.058594 245.765625 209.992188 244.648438 209.898438 243.519531 C 209.390625 237.226562 208.179688 230.535156 207.886719 230.101562 L 193.792969 233.671875 C 193.792969 233.671875 193.625 238.695312 193.726562 244.292969 Z M 193.726562 244.292969 " fill-opacity="1" fill-rule="nonzero"/></g><path fill="#54a3e6" d="M 193.726562 244.292969 C 193.746094 245.390625 193.777344 246.507812 193.824219 247.617188 C 195.328125 248.007812 196.871094 248.257812 198.417969 248.398438 C 200.238281 248.558594 202.078125 248.527344 203.890625 248.304688 C 205.839844 248.066406 207.753906 247.664062 209.609375 247.007812 C 209.773438 246.953125 209.933594 246.894531 210.097656 246.832031 C 210.058594 245.765625 209.992188 244.648438 209.898438 243.519531 C 209.894531 243.519531 209.894531 243.519531 209.890625 243.519531 C 207.984375 244.300781 205.980469 244.835938 203.941406 245.128906 C 203.515625 245.179688 203.09375 245.222656 202.667969 245.253906 C 200.945312 245.386719 199.210938 245.339844 197.496094 245.128906 C 196.222656 244.945312 194.960938 244.667969 193.726562 244.292969 Z M 193.726562 244.292969 " fill-opacity="1" fill-rule="nonzero"/><path fill="#54a3e6" d="M 187.085938 243.4375 C 186.957031 243.488281 186.832031 243.542969 186.703125 243.597656 C 186.761719 243.574219 186.816406 243.546875 186.871094 243.523438 C 186.941406 243.496094 187.015625 243.464844 187.085938 243.4375 Z M 187.085938 243.4375 " fill-opacity="1" fill-rule="nonzero"/><path fill="#54a3e6" d="M 215.929688 213.804688 C 215.550781 213.910156 215.167969 214.011719 214.785156 214.105469 C 211.988281 214.792969 209.117188 215.121094 206.25 215.335938 C 203.398438 215.546875 200.542969 215.722656 197.6875 215.882812 C 194.820312 216.046875 191.949219 216.175781 189.078125 216.222656 C 186.199219 216.273438 183.316406 216.238281 180.441406 216.078125 C 177.660156 215.921875 174.886719 215.636719 172.128906 215.214844 C 169.789062 214.855469 167.464844 214.382812 165.175781 213.769531 C 164.898438 213.695312 164.621094 213.621094 164.34375 213.542969 C 164.070312 213.464844 163.796875 213.386719 163.527344 213.304688 C 163.53125 212.199219 163.578125 211.105469 163.65625 210.027344 C 165.214844 210.515625 166.792969 210.9375 168.386719 211.292969 C 170.296875 211.722656 172.222656 212.0625 174.160156 212.328125 C 174.363281 212.355469 174.566406 212.382812 174.773438 212.40625 C 177.015625 212.683594 179.269531 212.859375 181.53125 212.960938 C 183.929688 213.070312 186.335938 213.09375 188.738281 213.058594 C 191.144531 213.023438 193.546875 212.929688 195.953125 212.804688 C 198.355469 212.683594 200.757812 212.527344 203.160156 212.371094 C 205.441406 212.222656 207.730469 212.085938 210 211.796875 C 210.808594 211.683594 211.613281 211.550781 212.417969 211.390625 C 213.488281 211.171875 214.550781 210.910156 215.597656 210.601562 C 215.746094 211.652344 215.859375 212.722656 215.929688 213.804688 Z M 215.929688 213.804688 " fill-opacity="1" fill-rule="nonzero"/><g clip-path="url(#0e59fd4a1e)"><path fill="#1f2b5b" d="M 203.03125 201.390625 L 203.03125 198.171875 L 205.28125 198.171875 C 205.28125 198.171875 205.3125 199.679688 204.734375 200.285156 C 204.160156 200.894531 203.03125 201.390625 203.03125 201.390625 Z M 203.03125 201.390625 " fill-opacity="1" fill-rule="nonzero"/></g><g clip-path="url(#a606499c6b)"><g clip-path="url(#0b5380b021)"><path fill="url(#1579280d9f)" d="M 199.28125 198.292969 L 199.28125 204.15625 L 205.285156 204.15625 L 205.285156 198.292969 Z M 199.28125 198.292969 " fill-rule="nonzero"/></g></g><g clip-path="url(#be2bf402bb)"><path fill="#1f2b5b" d="M 205.28125 203.929688 L 205.28125 207.152344 L 203.03125 207.152344 C 203.03125 207.152344 203 205.644531 203.574219 205.035156 C 204.152344 204.429688 205.28125 203.929688 205.28125 203.929688 Z M 205.28125 203.929688 " fill-opacity="1" fill-rule="nonzero"/></g><g clip-path="url(#750b4cb444)"><g clip-path="url(#57ba5de1d1)"><path fill="url(#1db0bfce28)" d="M 209.03125 207.03125 L 209.03125 201.164062 L 203.027344 201.164062 L 203.027344 207.03125 Z M 209.03125 207.03125 " fill-rule="nonzero"/></g></g><g clip-path="url(#72898c5214)"><g clip-path="url(#3fd0eeb753)"><g clip-path="url(#7b062c0dc8)"><path fill="#002d75" d="M 204.699219 105.976562 C 204.722656 106.3125 204.722656 106.648438 204.707031 106.980469 C 203.828125 106.425781 202.890625 105.960938 201.917969 105.601562 C 197.035156 103.800781 191.988281 103.050781 186.917969 103.375 C 181.847656 103.703125 176.941406 105.09375 172.328125 107.507812 C 171.40625 107.988281 170.539062 108.570312 169.742188 109.230469 C 169.679688 108.902344 169.636719 108.570312 169.617188 108.234375 C 169.316406 103.585938 172.855469 99.566406 177.5 99.265625 L 195.734375 98.09375 C 200.378906 97.792969 204.402344 101.328125 204.699219 105.976562 Z M 204.699219 105.976562 " fill-opacity="1" fill-rule="nonzero"/></g></g></g><g clip-path="url(#512a88dc4b)"><g clip-path="url(#ba06cc3268)"><g clip-path="url(#25bd72c081)"><path fill="#002d75" d="M 204.515625 108.363281 C 203.613281 107.746094 202.601562 107.210938 201.476562 106.796875 C 196.761719 105.054688 191.890625 104.332031 187 104.644531 C 182.109375 104.960938 177.371094 106.300781 172.917969 108.632812 C 171.859375 109.1875 170.925781 109.847656 170.109375 110.574219 C 169.933594 110.726562 169.765625 110.886719 169.601562 111.046875 C 171.015625 114.605469 174.597656 117.011719 178.625 116.753906 L 185.898438 116.285156 L 185.835938 115.328125 L 183.53125 115.476562 C 182.59375 115.535156 181.78125 114.757812 181.714844 113.738281 C 181.652344 112.71875 182.355469 111.84375 183.292969 111.785156 L 185.597656 111.636719 L 185.449219 109.332031 C 185.390625 108.394531 186.167969 107.582031 187.183594 107.519531 C 188.203125 107.453125 189.078125 108.160156 189.140625 109.09375 L 189.289062 111.398438 L 191.59375 111.25 C 192.527344 111.191406 193.339844 111.96875 193.40625 112.988281 C 193.472656 114.003906 192.765625 114.882812 191.832031 114.941406 L 189.527344 115.089844 L 189.585938 116.046875 L 196.859375 115.578125 C 200.886719 115.320312 204.128906 112.472656 205.074219 108.761719 C 204.894531 108.625 204.707031 108.488281 204.515625 108.363281 Z M 204.515625 108.363281 " fill-opacity="1" fill-rule="nonzero"/></g></g></g><g clip-path="url(#a9566c549d)"><g clip-path="url(#95001dbb8c)"><g clip-path="url(#107a78bca3)"><path fill="#ffffff" d="M 205.074219 108.761719 C 204.894531 108.625 204.707031 108.488281 204.515625 108.363281 C 203.714844 111.925781 200.644531 114.699219 196.816406 114.945312 L 189.546875 115.414062 L 189.628906 116.683594 L 196.898438 116.214844 C 201.101562 115.945312 204.515625 113.027344 205.613281 109.191406 C 205.4375 109.046875 205.261719 108.902344 205.074219 108.761719 Z M 178.582031 116.117188 C 174.757812 116.363281 171.355469 114.007812 170.109375 110.574219 C 169.933594 110.726562 169.765625 110.886719 169.601562 111.046875 C 169.4375 111.207031 169.277344 111.371094 169.121094 111.539062 C 170.703125 115.199219 174.464844 117.65625 178.664062 117.386719 L 185.9375 116.917969 L 185.855469 115.648438 Z M 178.582031 116.117188 " fill-opacity="1" fill-rule="nonzero"/></g></g></g><g clip-path="url(#725bb1d45c)"><g clip-path="url(#d31905dd2b)"><g clip-path="url(#5288f233e2)"><path fill="#002d75" d="M 209.976562 115.558594 C 209.332031 113.515625 207.902344 111.101562 205.613281 109.191406 C 205.4375 109.046875 205.261719 108.902344 205.074219 108.761719 C 204.894531 108.625 204.707031 108.488281 204.515625 108.363281 C 203.613281 107.746094 202.601562 107.210938 201.476562 106.796875 C 196.761719 105.054688 191.890625 104.332031 187 104.644531 C 182.109375 104.960938 177.371094 106.300781 172.917969 108.632812 C 171.859375 109.1875 170.925781 109.847656 170.109375 110.574219 C 169.933594 110.726562 169.765625 110.886719 169.601562 111.046875 C 169.4375 111.207031 169.277344 111.371094 169.121094 111.539062 C 167.101562 113.726562 165.992188 116.304688 165.613281 118.410156 C 165.15625 120.945312 165.589844 123.179688 166.808594 124.535156 C 167.496094 125.324219 168.257812 125.898438 169.042969 126.308594 C 169.246094 126.328125 169.734375 126.367188 170.40625 126.367188 C 170.785156 126.371094 171.222656 126.359375 171.699219 126.328125 C 174.101562 126.175781 177.515625 125.488281 179.578125 123.023438 C 179.769531 122.796875 179.949219 122.550781 180.117188 122.289062 C 180.304688 121.996094 180.699219 121.910156 180.992188 122.097656 C 181.289062 122.285156 181.378906 122.679688 181.1875 122.976562 C 179.675781 125.34375 177.285156 126.539062 175 127.121094 C 176.378906 126.910156 177.78125 126.460938 179.113281 125.800781 C 181.976562 124.304688 185.035156 123.4375 188.195312 123.234375 C 191.355469 123.03125 194.503906 123.5 197.546875 124.625 C 199.3125 125.226562 201.160156 125.488281 202.878906 125.378906 C 204.925781 125.246094 207.746094 124.515625 209.570312 121.789062 C 210.609375 120.28125 210.753906 118.015625 209.976562 115.558594 Z M 183.429688 120.507812 C 182.886719 121.128906 181.945312 121.1875 181.328125 120.644531 C 180.707031 120.101562 180.648438 119.160156 181.191406 118.542969 C 181.734375 117.921875 182.675781 117.863281 183.292969 118.40625 C 183.914062 118.949219 183.972656 119.890625 183.429688 120.507812 Z M 189.671875 117.394531 C 189.734375 118.332031 188.957031 119.140625 187.9375 119.207031 C 186.917969 119.273438 186.042969 118.566406 185.984375 117.632812 L 185.835938 115.328125 L 183.53125 115.476562 C 182.59375 115.535156 181.78125 114.757812 181.714844 113.738281 C 181.652344 112.71875 182.355469 111.84375 183.292969 111.785156 L 185.597656 111.636719 L 185.449219 109.332031 C 185.390625 108.394531 186.167969 107.582031 187.183594 107.519531 C 188.203125 107.453125 189.078125 108.160156 189.140625 109.09375 L 189.289062 111.398438 L 191.59375 111.25 C 192.527344 111.191406 193.339844 111.96875 193.40625 112.988281 C 193.46875 114.003906 192.765625 114.882812 191.828125 114.941406 L 189.527344 115.089844 Z M 189.671875 117.394531 " fill-opacity="1" fill-rule="nonzero"/><path fill="#002d75" d="M 209.976562 115.558594 C 209.332031 113.515625 207.902344 111.101562 205.613281 109.191406 C 205.4375 109.046875 205.261719 108.902344 205.074219 108.761719 C 204.894531 108.625 204.707031 108.488281 204.515625 108.363281 C 203.613281 107.746094 202.601562 107.210938 201.476562 106.796875 C 196.761719 105.054688 191.890625 104.332031 187 104.644531 C 182.109375 104.960938 177.371094 106.300781 172.917969 108.632812 C 171.859375 109.1875 170.925781 109.847656 170.109375 110.574219 C 169.933594 110.726562 169.765625 110.886719 169.601562 111.046875 C 169.4375 111.207031 169.277344 111.371094 169.121094 111.539062 C 167.101562 113.726562 165.992188 116.304688 165.613281 118.410156 C 165.15625 120.945312 165.589844 123.179688 166.808594 124.535156 C 167.496094 125.324219 168.257812 125.898438 169.042969 126.308594 C 169.246094 126.328125 169.734375 126.367188 170.40625 126.367188 C 170.785156 126.371094 171.222656 126.359375 171.699219 126.328125 C 174.101562 126.175781 177.515625 125.488281 179.578125 123.023438 C 179.769531 122.796875 179.949219 122.550781 180.117188 122.289062 C 180.304688 121.996094 180.699219 121.910156 180.992188 122.097656 C 181.289062 122.285156 181.378906 122.679688 181.1875 122.976562 C 179.675781 125.34375 177.285156 126.539062 175 127.121094 C 176.378906 126.910156 177.78125 126.460938 179.113281 125.800781 C 181.976562 124.304688 185.035156 123.4375 188.195312 123.234375 C 191.355469 123.03125 194.503906 123.5 197.546875 124.625 C 199.3125 125.226562 201.160156 125.488281 202.878906 125.378906 C 204.925781 125.246094 207.746094 124.515625 209.570312 121.789062 C 210.609375 120.28125 210.753906 118.015625 209.976562 115.558594 Z M 183.429688 120.507812 C 182.886719 121.128906 181.945312 121.1875 181.328125 120.644531 C 180.707031 120.101562 180.648438 119.160156 181.191406 118.542969 C 181.734375 117.921875 182.675781 117.863281 183.292969 118.40625 C 183.914062 118.949219 183.972656 119.890625 183.429688 120.507812 Z M 189.671875 117.394531 C 189.734375 118.332031 188.957031 119.140625 187.9375 119.207031 C 186.917969 119.273438 186.042969 118.566406 185.984375 117.632812 L 185.835938 115.328125 L 183.53125 115.476562 C 182.59375 115.535156 181.78125 114.757812 181.714844 113.738281 C 181.652344 112.71875 182.355469 111.84375 183.292969 111.785156 L 185.597656 111.636719 L 185.449219 109.332031 C 185.390625 108.394531 186.167969 107.582031 187.183594 107.519531 C 188.203125 107.453125 189.078125 108.160156 189.140625 109.09375 L 189.289062 111.398438 L 191.59375 111.25 C 192.527344 111.191406 193.339844 111.96875 193.40625 112.988281 C 193.46875 114.003906 192.765625 114.882812 191.828125 114.941406 L 189.527344 115.089844 Z M 189.671875 117.394531 " fill-opacity="1" fill-rule="nonzero"/></g></g></g><g clip-path="url(#0f2f14d50f)"><g clip-path="url(#ab46260a1e)"><g clip-path="url(#39a5b2e49f)"><path fill="#002d75" d="M 179.578125 123.023438 C 177.515625 125.488281 174.101562 126.171875 171.699219 126.328125 C 171.222656 126.359375 170.785156 126.371094 170.40625 126.367188 Z M 179.578125 123.023438 " fill-opacity="1" fill-rule="nonzero"/></g></g></g></svg>