<svg width="422" height="415" viewBox="0 0 422 415" fill="none" xmlns="http://www.w3.org/2000/svg">
<g clip-path="url(#clip0_3_2)">
<path d="M288.374 272.936C286.01 277.312 283.054 281.076 279.697 283.939C275.494 287.522 270.485 290.629 265.033 292.965C254.491 297.486 242.278 299.11 230.943 295.662C228.156 294.811 225.419 293.657 222.773 292.157C214.938 287.72 207.756 279.96 201.934 271.235C200.241 268.7 198.664 266.092 197.218 263.454C194.567 258.611 192.363 253.698 190.698 249.057C188.852 243.888 187.682 239.066 187.351 235.09C186.903 229.783 187.321 225.097 188.11 221.213C188.375 219.899 188.688 218.675 189.016 217.546C190.696 211.878 192.964 208.717 193.38 208.912C193.708 209.068 203.186 206.416 213.836 203.36C227.796 199.358 243.774 194.658 243.774 194.658C243.774 194.658 248.336 195.257 254.754 197.519C255.72 197.858 256.728 198.234 257.772 198.654C260.546 199.766 263.555 201.176 266.62 202.943C271.617 205.818 276.769 209.651 281.329 214.727C282.946 216.532 284.492 218.492 285.925 220.617C286.871 222.013 287.724 223.438 288.5 224.874C289.713 227.137 290.725 229.445 291.543 231.779C292.813 235.372 293.633 239.03 294.054 242.674C295.315 253.64 292.963 264.443 288.374 272.936Z" fill="#F6F6F6"/>
<path d="M227.808 199.634C229.74 199.339 231.663 199.119 233.582 198.972C235.494 198.821 237.364 198.745 239.192 198.746C241.02 198.746 242.765 198.819 244.428 198.963C246.092 199.114 247.645 199.331 249.091 199.625C250.529 199.915 251.83 200.269 252.993 200.688C254.151 201.115 255.156 201.591 255.988 202.127C256.829 202.667 257.487 203.25 257.97 203.88C258.448 204.511 258.741 205.178 258.851 205.881C258.955 206.585 258.87 207.307 258.599 208.052C258.328 208.797 257.873 209.551 257.228 210.31C256.589 211.067 255.776 211.818 254.791 212.57C253.805 213.315 252.667 214.035 251.379 214.737C250.085 215.441 248.67 216.107 247.122 216.743C245.573 217.374 243.927 217.96 242.184 218.496C240.44 219.032 238.632 219.518 236.756 219.939C234.88 220.36 232.984 220.72 231.051 221.009C229.119 221.304 227.196 221.524 225.277 221.67C223.365 221.822 221.495 221.897 219.667 221.897C217.839 221.896 216.094 221.824 214.431 221.679C212.767 221.528 211.214 221.312 209.769 221.024C208.33 220.728 207.03 220.374 205.866 219.954C204.703 219.535 203.703 219.051 202.871 218.516C202.032 217.982 201.372 217.393 200.889 216.763C200.411 216.132 200.118 215.465 200.008 214.762C199.906 214.063 199.983 213.337 200.26 212.591C200.531 211.846 200.987 211.098 201.631 210.333C202.27 209.575 203.083 208.824 204.069 208.079C205.054 207.328 206.192 206.607 207.48 205.905C208.774 205.202 210.189 204.536 211.737 203.899C213.286 203.269 214.932 202.683 216.675 202.146C218.419 201.61 220.227 201.125 222.103 200.704C223.972 200.284 225.875 199.923 227.808 199.634Z" fill="#54A3E6"/>
<mask id="mask0_3_2" style="mask-type:luminance" maskUnits="userSpaceOnUse" x="228" y="278" width="70" height="75">
<path d="M228.512 291.391L283.22 278.72L297.445 340.14L242.738 352.811L228.512 291.391Z" fill="white"/>
</mask>
<g mask="url(#mask0_3_2)">
<path d="M279.027 339.703C267.541 350.184 255.198 349.533 250.189 347.064C248.305 346.136 247.271 344.7 246.438 342.708C245.065 339.41 244.241 334.594 241.047 328.036C240.316 326.536 239.575 324.768 238.846 322.824C238.024 320.617 237.204 318.191 236.422 315.703C234.068 308.196 232.034 300.104 230.939 295.662C230.476 293.776 230.183 292.539 230.112 292.291L230.7 291.77C230.715 290.747 259.827 286.713 261.618 286.298C262.347 286.129 263.695 289.234 265.03 292.965C265.706 294.855 266.385 296.902 266.968 298.761C268.057 302.204 268.858 305.005 268.858 305.005C268.858 305.005 263.186 306.908 268.405 305.249C269.244 304.982 270.251 304.901 271.367 304.974C277.042 305.341 285.574 309.756 289.253 314.831C289.369 314.989 289.479 315.149 289.589 315.309C293.727 321.596 290.515 329.227 279.028 339.709L279.027 339.703Z" fill="#F6F6F6"/>
</g>
<path d="M339.322 296.858C338.417 297.068 337.314 296.939 336.074 296.558C329.682 294.608 319.479 285.984 313.345 282.147C312.966 281.91 312.559 281.667 312.139 281.426C310.014 280.203 307.489 278.993 304.876 277.89C298.411 275.169 291.39 273.073 288.378 272.936C288.292 272.936 288.206 272.936 288.126 272.935C283.926 272.901 285.683 243.918 288.984 243.187C289.355 243.101 291.117 242.759 294.057 242.674C297.767 242.563 303.352 242.859 310.37 244.598C310.623 244.658 310.883 244.724 311.137 244.791C313.461 245.392 315.431 246.088 317.103 246.82C324.824 250.217 326.221 254.503 326.221 254.503C326.221 254.503 334.659 242.244 347.174 244.007C350.959 244.541 353.515 245.711 355.241 247.357C359.205 251.148 358.706 257.455 358.471 264.278C358.14 274.056 344.822 295.558 339.322 296.858Z" fill="#F6F6F6"/>
<mask id="mask1_3_2" style="mask-type:luminance" maskUnits="userSpaceOnUse" x="233" y="103" width="135" height="123">
<path d="M233.331 129.216L345.58 103.217L367.94 199.759L255.691 225.758L233.331 129.216Z" fill="white"/>
</mask>
<g mask="url(#mask1_3_2)">
<path d="M350.294 133.993C348.161 137.11 337.71 143.166 337.448 145.439C337.182 147.719 337.93 154.923 334.032 160.853C330.129 166.79 324.622 166.145 324.622 166.145C324.622 166.145 320.009 176.511 311.065 187.9C309.644 189.713 308.115 191.55 306.472 193.375C305.331 194.652 304.133 195.916 302.886 197.165C295.377 204.686 287.301 210.709 281.331 214.727C275.941 218.36 272.26 220.365 272.26 220.365L258.03 207.793L251.829 202.322C252.055 202.296 254.361 200.987 257.774 198.654C260.427 196.841 263.746 194.416 267.281 191.492C269.828 189.392 272.488 187.041 275.1 184.476C276.588 183.012 278.055 181.48 279.475 179.893C280.754 178.464 281.99 176.999 283.176 175.512C283.813 174.716 284.435 173.916 285.045 173.119C286.62 171.052 288.092 168.976 289.456 166.972C290.527 165.392 291.535 163.854 292.459 162.382C296.949 155.263 299.619 149.836 299.619 149.836C299.619 149.836 296.041 143.851 293.667 138.374C292.473 135.624 291.582 133.003 291.598 131.33C291.595 131.258 291.597 131.185 291.6 131.111C291.654 126.827 291.983 123.87 294.82 123.366C295.207 123.296 295.646 123.273 296.135 123.299C300.252 123.518 306.811 135.853 307.018 136.633C307.225 137.413 309.761 115.077 312.771 112.035C315.782 108.994 321.601 110.699 322.788 113.768C323.894 116.625 321.653 129.852 321.223 131.74C321.988 129.497 329.25 111.1 335.209 112.296C341.569 113.564 340.832 118.589 338.273 124.811C336.219 129.81 333.427 134.026 332.415 135.486C334.26 132.932 342.239 122.462 347.14 124.863C352.704 127.588 352.422 130.885 350.294 133.993Z" fill="#F6F6F6"/>
</g>
<mask id="mask2_3_2" style="mask-type:luminance" maskUnits="userSpaceOnUse" x="56" y="150" width="144" height="127">
<path d="M56.6078 178.624L177.266 150.677L200 248.828L79.341 276.775L56.6078 178.624Z" fill="white"/>
</mask>
<g mask="url(#mask2_3_2)">
<path d="M191.46 249.126C191.46 249.126 191.196 249.101 190.702 249.056C185.744 248.609 157.416 245.905 139.617 241.253C139.101 241.114 138.593 240.98 138.09 240.838C135.767 240.184 133.513 239.461 131.35 238.697C116.018 233.235 105.187 225.472 105.187 225.472C105.187 225.472 100.757 228.816 94.3917 225.668C88.0268 222.52 85.0364 215.928 83.6582 214.095C82.2863 212.26 70.2081 212.322 66.7962 210.715C63.3842 209.108 61.4749 206.412 64.8997 201.241C67.9083 196.703 80.0461 201.673 82.9582 202.952C81.3265 202.198 76.8062 199.98 72.5264 196.713C67.1777 192.634 63.9975 188.682 68.8457 184.367C73.3856 180.322 88.9457 192.519 90.742 194.07C89.4158 192.662 80.7961 182.38 80.3087 179.361C79.7862 176.104 83.9428 171.691 88.0725 172.794C92.2084 173.896 105.68 191.888 105.467 191.11C105.247 190.333 104.682 176.371 108.122 174.097C111.558 171.832 113.528 174.448 116.097 178.734C118.667 183.026 118.517 198.763 118.517 198.763C118.517 198.763 126.005 203.697 136.232 208.54C138.427 209.581 140.746 210.614 143.145 211.595C145.72 212.647 148.387 213.639 151.085 214.511C163.269 218.424 179.657 220.469 188.114 221.212C191.42 221.506 193.509 221.605 193.666 221.536L191.454 249.127L191.46 249.126Z" fill="#F6F6F6"/>
</g>
<mask id="mask3_3_2" style="mask-type:luminance" maskUnits="userSpaceOnUse" x="241" y="314" width="57" height="38">
<path d="M241.542 325.672L291.422 314.119L297.449 340.14L247.569 351.693L241.542 325.672Z" fill="white"/>
</mask>
<g mask="url(#mask3_3_2)">
<path d="M279.036 339.703C267.55 350.184 255.207 349.533 250.198 347.064C248.314 346.136 247.28 344.7 246.448 342.707C249.776 337.864 255.211 332.393 263.969 327.033C275.112 320.214 283.307 316.025 289.262 314.831C289.378 314.989 289.488 315.149 289.598 315.309C293.736 321.596 290.524 329.227 279.037 339.709L279.036 339.703Z" fill="#1E1915"/>
</g>
<path d="M339.322 296.858C338.417 297.068 337.314 296.939 336.073 296.558C337.034 284.064 342.354 256.481 355.234 247.359C359.198 251.149 358.705 257.455 358.471 264.278C358.132 274.052 344.822 295.558 339.314 296.854L339.322 296.858Z" fill="#1E1915"/>
<path d="M276.093 119.187C276.49 118.903 281.432 113.533 289.042 117.367C296.65 121.194 303.346 140.239 299.951 153.23C296.562 166.22 283.745 163.063 283.597 162.396C283.443 161.729 276.093 119.187 276.093 119.187Z" fill="#54A3E6"/>
<path d="M280.214 118.001C280.625 118.256 291.746 123.071 293.967 140.351C296.188 157.632 290.599 163.694 280.92 162.737C271.25 161.785 267.114 143.213 266.924 136.363C266.735 129.513 270.225 124.851 270.225 124.851L259.102 95.9834L264.906 92.7384L280.214 118.001Z" fill="#F6F6F6"/>
<path d="M263.248 85.2148C263.946 85.6558 264.539 86.2138 265.02 86.8904C265.5 87.5608 265.838 88.3037 266.024 89.1083C266.212 89.9191 266.234 90.7285 266.099 91.5478C265.964 92.3671 265.676 93.1227 265.243 93.8257C264.803 94.5301 264.251 95.1215 263.581 95.6012C262.904 96.0824 262.168 96.4186 261.363 96.605C260.559 96.7913 259.749 96.8132 258.936 96.677C258.123 96.5408 257.361 96.2537 256.663 95.8128C255.959 95.3733 255.374 94.8201 254.892 94.1435C254.411 93.4668 254.075 92.7301 253.887 91.9193C253.701 91.1148 253.678 90.2991 253.814 89.4861C253.948 88.6668 254.229 87.9064 254.669 87.2019C255.103 86.5052 255.662 85.9124 256.33 85.4264C257.001 84.9466 257.739 84.6167 258.543 84.4304C259.348 84.244 260.156 84.2158 260.975 84.3506C261.79 84.493 262.545 84.7816 263.248 85.2148Z" fill="#F6F6F6"/>
<path d="M140.863 149.905C140.764 149.908 140.76 149.749 140.86 149.746C140.96 149.743 140.963 149.902 140.863 149.905Z" fill="#4AC95B"/>
<mask id="mask4_3_2" style="mask-type:luminance" maskUnits="userSpaceOnUse" x="122" y="77" width="174" height="158">
<path d="M122.345 111.136L267.158 77.5953L295.79 201.214L150.977 234.755L122.345 111.136Z" fill="white"/>
</mask>
<g mask="url(#mask4_3_2)">
<path d="M283.048 176.482C283.054 176.454 283.091 176.214 283.143 175.778C283.853 169.693 287.057 125.713 254.968 104.827C220.584 82.4404 176.606 93.9973 154.533 116.269C132.464 138.532 128.731 183.973 158.463 206.119C188.196 228.272 242.404 215.505 259.245 207.213C284.275 194.906 283.048 176.482 283.048 176.482Z" fill="#F6F6F6"/>
</g>
<path d="M278.952 176.948C281.223 168.826 279.854 126.031 259.69 120.29C239.52 114.551 189.155 121.263 180.273 136.015C171.399 150.766 177.843 196.287 198.172 201.485C218.502 206.684 271.864 202.245 278.952 176.948Z" fill="#1E1915"/>
<path d="M251.856 168.17C251.352 168.081 247.749 171.366 236.815 172.282C226.312 173.166 222.187 169.538 221.23 170.925C219.88 172.874 227.613 188.619 239.269 186.621C250.925 184.624 255.196 168.78 251.856 168.17Z" fill="#54A3E6"/>
<path d="M136.166 149.41C136.559 149.134 141.505 143.757 149.115 147.59C156.725 151.424 163.413 170.464 160.024 183.454C156.637 196.45 143.82 193.293 143.665 192.627C143.51 191.954 136.166 149.41 136.166 149.41Z" fill="#54A3E6"/>
<path d="M145.942 192.741C145.438 192.852 144.915 192.94 144.377 192.991C143.405 193.084 142.372 193.085 141.285 192.992C141.189 192.981 141.088 192.972 140.994 192.967C139.51 192.821 138.161 192.259 136.934 191.391C130.147 186.592 127.156 172.391 126.997 166.587C126.809 159.743 130.291 155.075 130.291 155.075L119.468 126.96L119.174 126.207L124.979 122.962L125.473 123.781L138.83 145.826L139.602 147.098L140.287 148.224C140.692 148.488 151.812 153.296 154.039 170.575C155.848 184.646 152.476 191.274 145.936 192.743L145.942 192.741Z" fill="#F6F6F6"/>
<path d="M123.323 115.446C124.026 115.879 124.618 116.437 125.1 117.114C125.581 117.79 125.911 118.528 126.097 119.333C126.285 120.144 126.313 120.952 126.178 121.771C126.044 122.59 125.757 123.352 125.316 124.05C124.882 124.753 124.331 125.345 123.654 125.826C122.984 126.306 122.247 126.642 121.442 126.828C120.638 127.015 119.828 127.037 119.015 126.9C118.196 126.766 117.441 126.477 116.742 126.036C116.039 125.603 115.447 125.045 114.965 124.368C114.484 123.692 114.154 122.953 113.967 122.143C113.78 121.338 113.752 120.53 113.887 119.711C114.021 118.892 114.309 118.13 114.75 117.432C115.183 116.729 115.734 116.137 116.411 115.656C117.081 115.176 117.818 114.84 118.623 114.654C119.427 114.467 120.237 114.445 121.05 114.582C121.869 114.716 122.624 115.005 123.323 115.446Z" fill="#F6F6F6"/>
<path d="M311.063 187.901C309.641 189.713 308.113 191.55 306.47 193.375C304.89 192.39 303.35 191.342 301.845 190.247C298.347 187.7 295.078 184.821 292.098 181.677C289.549 178.99 287.174 176.142 285.043 173.119C286.617 171.053 288.092 168.983 289.454 166.972C291.35 169.897 293.475 172.669 295.782 175.281C296.615 176.187 297.463 177.077 298.34 177.947C301.714 181.278 305.412 184.262 309.372 186.862C309.378 186.86 309.386 186.865 309.386 186.865C309.944 187.219 310.502 187.567 311.063 187.901Z" fill="#54A3E6"/>
<path d="M138.092 240.838C135.768 240.184 133.514 239.461 131.349 238.691C131.704 237.762 132.028 236.819 132.331 235.868L132.33 235.862C132.927 233.895 133.439 231.903 133.868 229.896C135.361 222.875 135.926 215.704 136.233 208.54C138.428 209.582 140.747 210.614 143.146 211.595C142.756 219.347 142.005 227.111 140.023 234.623C139.468 236.718 138.83 238.793 138.092 240.838Z" fill="#54A3E6"/>
<path d="M291.545 231.779C289.884 233.355 288.181 234.896 286.449 236.396C283.312 239.123 280.064 241.709 276.708 244.149C273.346 246.59 269.884 248.882 266.327 251.023C262.533 253.313 258.631 255.422 254.653 257.376C250.931 259.205 247.126 260.875 243.261 262.372C239.372 263.882 235.422 265.214 231.413 266.375C227.18 267.6 222.888 268.627 218.56 269.471C214.22 270.317 209.811 271.067 205.385 271.231C204.238 271.278 203.086 271.28 201.93 271.237C200.243 268.7 198.664 266.086 197.22 263.453C198.856 263.856 200.529 264.071 202.212 264.165C203.631 264.2 205.05 264.15 206.463 264.048C211.379 263.684 216.284 262.786 221.097 261.724C223.588 261.154 226.064 260.521 228.517 259.82C233.058 258.524 237.532 256.997 241.918 255.26C246.155 253.57 250.315 251.686 254.383 249.604C256.681 248.403 258.953 247.149 261.184 245.831C265.36 243.36 269.404 240.688 273.308 237.817C277.117 235.021 280.789 232.032 284.301 228.867C285.519 227.751 286.721 226.618 287.903 225.463C288.103 225.265 288.303 225.073 288.496 224.876C289.715 227.136 290.726 229.445 291.545 231.779Z" fill="#54A3E6"/>
<path d="M312.137 281.426C310.013 280.203 307.487 278.993 304.874 277.89C304.869 277.838 304.87 277.785 304.871 277.732C304.715 270.456 305.395 263.153 306.995 256.054C307.871 252.17 308.997 248.339 310.368 244.598C310.621 244.658 310.881 244.724 311.135 244.791C313.46 245.392 315.427 246.082 317.102 246.82C316.577 248.213 316.089 249.624 315.635 251.04C315.194 252.48 314.795 253.93 314.431 255.392C313.03 261.034 312.202 266.809 311.958 272.62C311.87 275.554 311.928 278.494 312.137 281.426Z" fill="#54A3E6"/>
<path d="M271.371 304.974C271.147 305.006 270.924 305.044 270.703 305.089C268.436 305.653 266.236 306.534 264.084 307.423C261.907 308.318 259.773 309.309 257.676 310.377C257.665 310.387 257.647 310.397 257.635 310.4C255.515 311.514 253.433 312.704 251.393 313.958C247.493 316.365 243.748 319.007 240.127 321.819C239.701 322.15 239.275 322.487 238.856 322.822C238.028 320.617 237.208 318.191 236.426 315.703C241.336 311.91 246.476 308.428 251.905 305.449C255.995 303.204 260.213 301.2 264.587 299.585C265.374 299.296 266.169 299.013 266.978 298.759C268.061 302.204 268.862 305.005 268.862 305.005C268.862 305.005 263.19 306.908 268.409 305.249C269.247 304.982 270.255 304.901 271.371 304.974Z" fill="#54A3E6"/>
<path d="M272.915 304.763C273.223 304.777 273.524 304.787 273.832 304.802C273.685 304.796 273.538 304.791 273.387 304.799C273.231 304.782 273.07 304.773 272.915 304.763Z" fill="#54A3E6"/>
<path d="M275.815 305.574C275.693 305.503 275.57 305.432 275.449 305.367C275.198 305.226 274.945 305.106 274.676 305.003C274.53 304.944 274.379 304.893 274.228 304.842C274.521 304.933 274.807 305.025 275.1 305.117C275.069 305.097 275.038 305.078 275.013 305.057C275.044 305.077 275.075 305.096 275.1 305.117C275.114 305.12 275.122 305.125 275.136 305.128C275.128 305.123 275.114 305.12 275.108 305.121C275.341 305.273 275.575 305.424 275.815 305.574Z" fill="#54A3E6"/>
<path d="M307.598 139.094C310.197 141.651 311.891 145.106 312.371 148.723C312.51 149.751 312.558 150.786 312.493 151.821C312.472 152.13 312.633 152.424 312.957 152.482C313.24 152.529 313.595 152.32 313.616 152.011C313.854 148.062 312.754 144.085 310.521 140.821C309.88 139.883 309.142 139.014 308.336 138.221C307.813 137.706 307.075 138.579 307.598 139.094Z" fill="#1E1915"/>
<path d="M315.726 136.279C318.36 135.728 320.996 136.356 323.451 137.35C324.687 137.852 325.889 138.441 327.082 139.046C328.274 139.644 329.475 140.253 330.577 141.011C331.768 141.834 332.865 142.852 333.485 144.185C333.616 144.466 333.909 144.643 334.214 144.533C334.482 144.431 334.685 144.079 334.554 143.798C333.319 141.124 330.705 139.617 328.195 138.331C325.684 137.038 323.093 135.745 320.301 135.186C318.759 134.874 317.162 134.814 315.621 135.137C315.318 135.201 315.073 135.43 315.103 135.761C315.128 136.04 315.422 136.336 315.726 136.279Z" fill="#1E1915"/>
<path d="M101.217 194.147C95.4706 196.273 90.7232 200.823 88.2082 206.405C87.489 207.989 86.9622 209.661 86.629 211.367C86.485 212.089 87.6085 212.279 87.7525 211.557C88.8678 205.822 92.4097 200.671 97.2453 197.445C98.6102 196.532 100.068 195.791 101.605 195.223C102.293 194.964 101.905 193.889 101.217 194.147Z" fill="#1E1915"/>
<path d="M105.051 195.04C104.54 196.894 105.057 198.814 105.571 200.602C106.076 202.385 106.601 204.164 107.453 205.815C107.935 206.75 108.523 207.6 109.231 208.37C109.443 208.599 109.856 208.523 110.038 208.309C110.257 208.053 110.182 207.732 109.97 207.503C108.485 205.894 107.71 203.775 107.08 201.716C106.756 200.658 106.421 199.584 106.197 198.503C105.967 197.424 105.877 196.319 106.176 195.237C106.259 194.939 105.987 194.625 105.711 194.576C105.381 194.52 105.134 194.743 105.051 195.04Z" fill="#1E1915"/>
<path d="M252.426 158.946C251.498 159.002 250.698 158.293 250.643 157.366C250.625 157.092 250.265 150.559 253.848 146.557C255.519 144.68 257.742 143.669 260.453 143.537C264.22 143.36 267.58 144.774 270.179 147.616C272.125 149.755 273.242 152.264 273.609 153.762C273.672 154.032 273.711 154.261 273.725 154.463C273.791 155.435 273.249 156.037 272.715 156.28C271.878 156.666 270.878 156.295 270.49 155.451C270.364 155.162 270.319 154.855 270.351 154.563C270.197 153.929 269.485 151.995 267.996 150.227C266.022 147.883 263.539 146.77 260.617 146.903C258.815 146.99 257.423 147.61 256.353 148.798C253.712 151.748 253.994 157.113 254 157.164C254.05 158.067 253.388 158.842 252.504 158.941C252.478 158.941 252.452 158.947 252.426 158.946Z" fill="#54A3E6"/>
<path d="M216.168 164.324C215.232 164.541 214.282 163.986 214.018 163.047C214.007 162.997 212.386 157.458 208.666 155.406C207.164 154.582 205.529 154.444 203.677 154.999C200.66 155.896 198.542 157.903 197.373 160.975C196.494 163.298 196.455 165.506 196.531 166.203C196.664 166.491 196.725 166.814 196.696 167.145C196.608 168.139 195.725 168.873 194.736 168.778C194.115 168.723 193.347 168.298 193.075 167.295C193.013 167.084 192.969 166.836 192.941 166.545C192.777 164.894 193.024 161.956 194.238 159.105C195.86 155.299 198.769 152.679 202.648 151.528C205.436 150.697 208.048 150.94 210.411 152.247C215.463 155.044 217.408 161.785 217.494 162.07C217.764 163.034 217.206 164.031 216.249 164.299C216.219 164.312 216.193 164.318 216.168 164.324Z" fill="#54A3E6"/>
<mask id="mask5_3_2" style="mask-type:luminance" maskUnits="userSpaceOnUse" x="254" y="211" width="7" height="8">
<path d="M254.322 212.513L259.149 211.395L260.64 217.831L255.813 218.949L254.322 212.513Z" fill="white"/>
</mask>
<g mask="url(#mask5_3_2)">
<mask id="mask6_3_2" style="mask-type:luminance" maskUnits="userSpaceOnUse" x="252" y="210" width="17" height="16">
<path d="M252.735 217.233L261.273 210.064L268.442 218.602L259.904 225.771L252.735 217.233Z" fill="white"/>
</mask>
<g mask="url(#mask6_3_2)">
<mask id="mask7_3_2" style="mask-type:luminance" maskUnits="userSpaceOnUse" x="252" y="210" width="17" height="16">
<path d="M252.737 217.233L261.275 210.064L268.444 218.602L259.906 225.771L252.737 217.233Z" fill="white"/>
</mask>
<g mask="url(#mask7_3_2)">
<mask id="mask8_3_2" style="mask-type:luminance" maskUnits="userSpaceOnUse" x="252" y="210" width="17" height="16">
<path d="M252.739 217.233L261.277 210.064L268.447 218.602L259.908 225.771L252.739 217.233Z" fill="white"/>
</mask>
<g mask="url(#mask8_3_2)">
<path d="M258.595 217.54L256.025 214.48L257.999 212.824C257.999 212.824 259.226 214.235 259.206 215.233C259.187 216.237 258.595 217.54 258.595 217.54Z" fill="#1F2B5B"/>
</g>
</g>
</g>
</g>
<mask id="mask9_3_2" style="mask-type:luminance" maskUnits="userSpaceOnUse" x="252" y="211" width="10" height="14">
<path d="M252.714 212.886L259.151 211.395L261.759 222.658L255.323 224.149L252.714 212.886Z" fill="white"/>
</mask>
<g mask="url(#mask9_3_2)">
<mask id="mask10_3_2" style="mask-type:luminance" maskUnits="userSpaceOnUse" x="252" y="210" width="17" height="16">
<path d="M252.735 217.233L261.273 210.064L268.443 218.602L259.905 225.771L252.735 217.233Z" fill="white"/>
</mask>
<g mask="url(#mask10_3_2)">
<mask id="mask11_3_2" style="mask-type:luminance" maskUnits="userSpaceOnUse" x="252" y="210" width="17" height="16">
<path d="M252.737 217.233L261.275 210.064L268.445 218.602L259.907 225.771L252.737 217.233Z" fill="white"/>
</mask>
<g mask="url(#mask11_3_2)">
<mask id="mask12_3_2" style="mask-type:luminance" maskUnits="userSpaceOnUse" x="252" y="210" width="17" height="16">
<path d="M252.74 217.234L261.278 210.064L268.447 218.602L259.909 225.772L252.74 217.234Z" fill="white"/>
</mask>
<g mask="url(#mask12_3_2)">
<mask id="mask13_3_2" style="mask-type:luminance" maskUnits="userSpaceOnUse" x="255" y="212" width="6" height="11">
<path d="M258.089 212.941C258.408 213.318 259.42 214.6 259.88 216.301C260.023 216.831 260.11 217.407 260.104 218.011C260.094 219.57 259.461 221.299 257.514 222.929L255.722 220.794C257.158 219.587 258 218.478 258.46 217.491C258.629 217.134 258.743 216.796 258.822 216.48C259.28 214.599 258.393 213.315 258.089 212.941Z" fill="white"/>
</mask>
<g mask="url(#mask13_3_2)">
<path d="M250.783 216.66L257.762 224.977L264.566 219.269L257.585 210.945L250.783 216.66Z" fill="url(#paint0_linear_3_2)"/>
</g>
</g>
</g>
</g>
</g>
<mask id="mask14_3_2" style="mask-type:luminance" maskUnits="userSpaceOnUse" x="260" y="216" width="7" height="9">
<path d="M260.64 217.831L265.467 216.713L266.958 223.149L262.13 224.267L260.64 217.831Z" fill="white"/>
</mask>
<g mask="url(#mask14_3_2)">
<mask id="mask15_3_2" style="mask-type:luminance" maskUnits="userSpaceOnUse" x="252" y="210" width="17" height="16">
<path d="M252.735 217.233L261.273 210.064L268.443 218.602L259.905 225.771L252.735 217.233Z" fill="white"/>
</mask>
<g mask="url(#mask15_3_2)">
<mask id="mask16_3_2" style="mask-type:luminance" maskUnits="userSpaceOnUse" x="252" y="210" width="17" height="16">
<path d="M252.737 217.233L261.275 210.064L268.445 218.602L259.907 225.771L252.737 217.233Z" fill="white"/>
</mask>
<g mask="url(#mask16_3_2)">
<mask id="mask17_3_2" style="mask-type:luminance" maskUnits="userSpaceOnUse" x="252" y="210" width="17" height="16">
<path d="M252.739 217.233L261.277 210.064L268.447 218.602L259.909 225.771L252.739 217.233Z" fill="white"/>
</mask>
<g mask="url(#mask17_3_2)">
<path d="M262.583 218.297L265.155 221.363L263.187 223.018C263.187 223.018 261.953 221.608 261.972 220.604C261.993 219.606 262.583 218.297 262.583 218.297Z" fill="#1F2B5B"/>
</g>
</g>
</g>
</g>
<mask id="mask18_3_2" style="mask-type:luminance" maskUnits="userSpaceOnUse" x="259" y="211" width="10" height="14">
<path d="M259.522 213.004L265.959 211.513L268.567 222.777L262.131 224.267L259.522 213.004Z" fill="white"/>
</mask>
<g mask="url(#mask18_3_2)">
<mask id="mask19_3_2" style="mask-type:luminance" maskUnits="userSpaceOnUse" x="252" y="210" width="17" height="16">
<path d="M252.736 217.234L261.274 210.064L268.444 218.602L259.906 225.772L252.736 217.234Z" fill="white"/>
</mask>
<g mask="url(#mask19_3_2)">
<mask id="mask20_3_2" style="mask-type:luminance" maskUnits="userSpaceOnUse" x="252" y="210" width="17" height="16">
<path d="M252.739 217.234L261.277 210.064L268.446 218.602L259.908 225.772L252.739 217.234Z" fill="white"/>
</mask>
<g mask="url(#mask20_3_2)">
<mask id="mask21_3_2" style="mask-type:luminance" maskUnits="userSpaceOnUse" x="252" y="210" width="17" height="16">
<path d="M252.741 217.234L261.279 210.064L268.448 218.602L259.91 225.772L252.741 217.234Z" fill="white"/>
</mask>
<g mask="url(#mask21_3_2)">
<mask id="mask22_3_2" style="mask-type:luminance" maskUnits="userSpaceOnUse" x="261" y="212" width="5" height="11">
<path d="M263.091 222.902C262.772 222.526 261.765 221.236 261.306 219.541C261.162 219.005 261.068 218.43 261.074 217.826C261.086 216.274 261.724 214.543 263.665 212.915L265.458 215.049C264.027 216.248 263.186 217.364 262.719 218.352C262.555 218.702 262.435 219.041 262.357 219.363C261.905 221.243 262.786 222.529 263.091 222.902Z" fill="white"/>
</mask>
<g mask="url(#mask22_3_2)">
<path d="M270.401 219.182L263.414 210.86L256.611 216.575L263.597 224.89L270.401 219.182Z" fill="url(#paint1_linear_3_2)"/>
</g>
</g>
</g>
</g>
</g>
<mask id="mask23_3_2" style="mask-type:luminance" maskUnits="userSpaceOnUse" x="165" y="62" width="62" height="30">
<path d="M165.05 75.9461L222.975 62.5298L226.608 78.2178L168.683 91.6342L165.05 75.9461Z" fill="white"/>
</mask>
<g mask="url(#mask23_3_2)">
<path d="M225.223 76.3141C225.35 76.8609 225.436 77.4039 225.497 77.9527C223.918 77.2852 222.271 76.7792 220.587 76.4542C212.144 74.827 203.719 74.9638 195.548 76.8563C187.371 78.7502 179.743 82.3314 172.875 87.5049C171.505 88.5374 170.248 89.7159 169.124 91.0094C168.931 90.4912 168.776 89.9642 168.649 89.4174C166.914 81.9253 171.6 74.4228 179.092 72.6875L208.489 65.8789C215.981 64.1437 223.488 68.822 225.223 76.3141Z" fill="#002D75"/>
</g>
<path d="M225.559 80.256C223.918 79.4904 222.13 78.8912 220.19 78.5194C212.037 76.9442 203.901 77.0736 196.02 78.8991C188.132 80.7261 180.768 84.1866 174.137 89.1858C172.558 90.3728 171.216 91.6969 170.079 93.106C169.836 93.4007 169.607 93.6988 169.387 94.0079C172.642 99.4262 179.129 102.387 185.622 100.883L197.344 98.1684L196.986 96.6222L193.271 97.4826C191.762 97.832 190.228 96.7834 189.848 95.1429C189.467 93.4962 190.384 91.8798 191.892 91.5304L195.607 90.6701L194.747 86.9555C194.397 85.447 195.446 83.9127 197.086 83.5328C198.733 83.1514 200.349 84.0684 200.699 85.5769L201.559 89.2915L205.274 88.4311C206.782 88.0817 208.316 89.1303 208.698 90.7771C209.078 92.4175 208.161 94.0339 206.652 94.3833L202.938 95.2436L203.296 96.7898L215.018 94.0748C221.517 92.5696 226.035 87.0595 226.575 80.7557C226.243 80.5809 225.907 80.4138 225.559 80.256Z" fill="#002D75"/>
<path d="M226.574 80.7555C226.242 80.5808 225.906 80.4137 225.558 80.2559C225.211 86.2766 220.952 91.6206 214.78 93.0502L203.058 95.7652L203.532 97.8142L215.254 95.0992C222.03 93.5299 226.808 87.8537 227.571 81.3128C227.249 81.1225 226.914 80.9352 226.574 80.7555ZM185.383 99.8588C179.211 101.288 173.036 98.3609 170.078 93.1059C169.835 93.4006 169.606 93.6986 169.386 94.0078C169.152 94.3136 168.94 94.6276 168.734 94.9402C172.295 100.48 179.082 103.477 185.858 101.908L197.58 99.1928L197.105 97.1438L185.383 99.8588Z" fill="white"/>
<mask id="mask24_3_2" style="mask-type:luminance" maskUnits="userSpaceOnUse" x="159" y="70" width="82" height="53">
<path d="M159.15 87.0613L232.744 70.0158L240.943 105.415L167.349 122.46L159.15 87.0613Z" fill="white"/>
</mask>
<g mask="url(#mask24_3_2)">
<path d="M236.396 90.5149C234.791 87.357 231.816 83.8075 227.576 81.3128C227.254 81.1225 226.919 80.9352 226.58 80.7555C226.248 80.5808 225.911 80.4137 225.563 80.2559C223.923 79.4902 222.135 78.8911 220.194 78.5193C212.042 76.9441 203.906 77.0734 196.024 78.899C188.136 80.7259 180.772 84.1865 174.142 89.1857C172.563 90.3727 171.22 91.6968 170.083 93.1059C169.84 93.4006 169.611 93.6986 169.391 94.0078C169.158 94.3136 168.946 94.6276 168.74 94.9402C166.028 99.045 164.919 103.547 164.864 107.083C164.802 111.336 166.109 114.861 168.458 116.74C169.793 117.842 171.187 118.572 172.578 119.031C172.916 119.006 173.722 118.938 174.813 118.759C175.433 118.661 176.142 118.523 176.909 118.346C180.787 117.448 186.164 115.414 188.862 110.849C189.113 110.42 189.342 109.976 189.544 109.506C189.772 108.976 190.384 108.728 190.92 108.955C191.456 109.182 191.698 109.801 191.471 110.337C189.645 114.601 186.066 117.192 182.506 118.751C184.693 118.04 186.859 116.929 188.853 115.5C193.109 112.289 197.863 110.056 202.96 108.875C208.058 107.694 213.316 107.609 218.579 108.628C221.611 109.138 224.693 109.066 227.465 108.424C230.765 107.66 235.168 105.713 237.411 100.783C238.698 98.0481 238.321 94.3075 236.396 90.5149ZM194.461 105.718C193.746 106.863 192.225 107.216 191.073 106.502C189.918 105.777 189.568 104.262 190.287 103.108C191.007 101.955 192.528 101.603 193.675 102.324C194.828 103.043 195.181 104.564 194.461 105.718ZM203.804 98.9644C204.154 100.473 203.103 102.001 201.457 102.382C199.816 102.762 198.201 101.851 197.852 100.343L196.99 96.6221L193.276 97.4825C191.767 97.8319 190.233 96.7833 189.853 95.1428C189.471 93.496 190.39 91.886 191.898 91.5366L195.613 90.6762L194.751 86.9554C194.402 85.4469 195.45 83.9126 197.091 83.5327C198.738 83.1513 200.354 84.0683 200.703 85.5767L201.565 89.2976L205.28 88.4373C206.788 88.0879 208.321 89.1302 208.702 90.777C209.082 92.4174 208.165 94.0338 206.657 94.3832L202.942 95.2435L203.804 98.9644Z" fill="#002D75"/>
<path d="M236.396 90.5149C234.791 87.357 231.816 83.8075 227.576 81.3128C227.254 81.1225 226.919 80.9352 226.58 80.7555C226.248 80.5808 225.911 80.4137 225.563 80.2559C223.923 79.4902 222.135 78.8911 220.194 78.5193C212.042 76.9441 203.906 77.0734 196.024 78.899C188.136 80.7259 180.772 84.1865 174.142 89.1857C172.563 90.3727 171.22 91.6968 170.083 93.1059C169.84 93.4006 169.611 93.6986 169.391 94.0078C169.158 94.3136 168.946 94.6276 168.74 94.9402C166.028 99.045 164.919 103.547 164.864 107.083C164.802 111.336 166.109 114.861 168.458 116.74C169.793 117.842 171.187 118.572 172.578 119.031C172.916 119.006 173.722 118.938 174.813 118.759C175.433 118.661 176.142 118.523 176.909 118.346C180.787 117.448 186.164 115.414 188.862 110.849C189.113 110.42 189.342 109.976 189.544 109.506C189.772 108.976 190.384 108.728 190.92 108.955C191.456 109.182 191.698 109.801 191.471 110.337C189.645 114.601 186.066 117.192 182.506 118.751C184.693 118.04 186.859 116.929 188.853 115.5C193.109 112.289 197.863 110.056 202.96 108.875C208.058 107.694 213.316 107.609 218.579 108.628C221.611 109.138 224.693 109.066 227.465 108.424C230.765 107.66 235.168 105.713 237.411 100.783C238.698 98.0481 238.321 94.3075 236.396 90.5149ZM194.461 105.718C193.746 106.863 192.225 107.216 191.073 106.502C189.918 105.777 189.568 104.262 190.287 103.108C191.007 101.955 192.528 101.603 193.675 102.324C194.828 103.043 195.181 104.564 194.461 105.718ZM203.804 98.9644C204.154 100.473 203.103 102.001 201.457 102.382C199.816 102.762 198.201 101.851 197.852 100.343L196.99 96.6221L193.276 97.4825C191.767 97.8319 190.233 96.7833 189.853 95.1428C189.471 93.496 190.39 91.886 191.898 91.5366L195.613 90.6762L194.751 86.9554C194.402 85.4469 195.45 83.9126 197.091 83.5327C198.738 83.1513 200.354 84.0683 200.703 85.5767L201.565 89.2976L205.28 88.4373C206.788 88.0879 208.321 89.1302 208.702 90.777C209.082 92.4174 208.165 94.0338 206.657 94.3832L202.942 95.2435L203.804 98.9644Z" fill="#002D75"/>
</g>
<path d="M188.85 110.849C186.152 115.414 180.776 117.448 176.898 118.346C176.125 118.525 175.421 118.661 174.801 118.759L188.85 110.849Z" fill="#002D75"/>
</g>
<defs>
<linearGradient id="paint0_linear_3_2" x1="254.312" y1="220.863" x2="261.113" y2="215.152" gradientUnits="userSpaceOnUse">
<stop stop-color="#3DBDEC"/>
<stop offset="0.125" stop-color="#3DBDEC"/>
<stop offset="0.15625" stop-color="#3DBDEC"/>
<stop offset="0.164062" stop-color="#3DBDEC"/>
<stop offset="0.171875" stop-color="#3DBCEC"/>
<stop offset="0.179688" stop-color="#3DBBEC"/>
<stop offset="0.1875" stop-color="#3EBBED"/>
<stop offset="0.195312" stop-color="#3EBAED"/>
<stop offset="0.203125" stop-color="#3EB9ED"/>
<stop offset="0.210938" stop-color="#3EB9ED"/>
<stop offset="0.21875" stop-color="#3FB8ED"/>
<stop offset="0.226562" stop-color="#3FB8EE"/>
<stop offset="0.234375" stop-color="#3FB7EE"/>
<stop offset="0.242187" stop-color="#3FB6EE"/>
<stop offset="0.25" stop-color="#3FB6EE"/>
<stop offset="0.257812" stop-color="#40B5EE"/>
<stop offset="0.265625" stop-color="#40B4EE"/>
<stop offset="0.273438" stop-color="#40B4EF"/>
<stop offset="0.28125" stop-color="#40B3EF"/>
<stop offset="0.289062" stop-color="#40B2EF"/>
<stop offset="0.296875" stop-color="#41B2EF"/>
<stop offset="0.304688" stop-color="#41B1EF"/>
<stop offset="0.3125" stop-color="#41B0F0"/>
<stop offset="0.320312" stop-color="#41B0F0"/>
<stop offset="0.328125" stop-color="#41AFF0"/>
<stop offset="0.335938" stop-color="#42AEF0"/>
<stop offset="0.34375" stop-color="#42AEF0"/>
<stop offset="0.351562" stop-color="#42ADF0"/>
<stop offset="0.359375" stop-color="#42ADF1"/>
<stop offset="0.367188" stop-color="#42ACF1"/>
<stop offset="0.375" stop-color="#43ABF1"/>
<stop offset="0.382812" stop-color="#43ABF1"/>
<stop offset="0.390625" stop-color="#43AAF1"/>
<stop offset="0.398438" stop-color="#43A9F1"/>
<stop offset="0.40625" stop-color="#43A9F2"/>
<stop offset="0.414063" stop-color="#44A8F2"/>
<stop offset="0.421875" stop-color="#44A7F2"/>
<stop offset="0.429688" stop-color="#44A7F2"/>
<stop offset="0.4375" stop-color="#44A6F2"/>
<stop offset="0.445312" stop-color="#44A5F3"/>
<stop offset="0.453125" stop-color="#45A5F3"/>
<stop offset="0.460938" stop-color="#45A4F3"/>
<stop offset="0.46875" stop-color="#45A3F3"/>
<stop offset="0.476562" stop-color="#45A3F3"/>
<stop offset="0.484375" stop-color="#45A2F3"/>
<stop offset="0.492188" stop-color="#46A2F4"/>
<stop offset="0.5" stop-color="#46A1F4"/>
<stop offset="0.507812" stop-color="#46A0F4"/>
<stop offset="0.515625" stop-color="#46A0F4"/>
<stop offset="0.523438" stop-color="#469FF4"/>
<stop offset="0.53125" stop-color="#479EF5"/>
<stop offset="0.539062" stop-color="#479EF5"/>
<stop offset="0.546875" stop-color="#479DF5"/>
<stop offset="0.554688" stop-color="#479CF5"/>
<stop offset="0.5625" stop-color="#479CF5"/>
<stop offset="0.570312" stop-color="#489BF5"/>
<stop offset="0.578125" stop-color="#489AF6"/>
<stop offset="0.585938" stop-color="#489AF6"/>
<stop offset="0.59375" stop-color="#4899F6"/>
<stop offset="0.601563" stop-color="#4898F6"/>
<stop offset="0.609375" stop-color="#4998F6"/>
<stop offset="0.617188" stop-color="#4997F7"/>
<stop offset="0.625" stop-color="#4997F7"/>
<stop offset="0.632812" stop-color="#4996F7"/>
<stop offset="0.640625" stop-color="#4995F7"/>
<stop offset="0.648438" stop-color="#4A95F7"/>
<stop offset="0.65625" stop-color="#4A94F7"/>
<stop offset="0.664062" stop-color="#4A93F8"/>
<stop offset="0.671875" stop-color="#4A93F8"/>
<stop offset="0.679688" stop-color="#4A92F8"/>
<stop offset="0.6875" stop-color="#4B91F8"/>
<stop offset="0.695313" stop-color="#4B91F8"/>
<stop offset="0.703125" stop-color="#4B90F9"/>
<stop offset="0.710938" stop-color="#4B8FF9"/>
<stop offset="0.71875" stop-color="#4B8FF9"/>
<stop offset="0.726562" stop-color="#4C8EF9"/>
<stop offset="0.734375" stop-color="#4C8DF9"/>
<stop offset="0.742188" stop-color="#4C8DF9"/>
<stop offset="0.75" stop-color="#4C8CFA"/>
<stop offset="0.757812" stop-color="#4C8CFA"/>
<stop offset="0.765625" stop-color="#4D8BFA"/>
<stop offset="0.773438" stop-color="#4D8AFA"/>
<stop offset="0.78125" stop-color="#4D8AFA"/>
<stop offset="0.789063" stop-color="#4D89FB"/>
<stop offset="0.796875" stop-color="#4D88FB"/>
<stop offset="0.804688" stop-color="#4E88FB"/>
<stop offset="0.8125" stop-color="#4E87FB"/>
<stop offset="0.820312" stop-color="#4E86FB"/>
<stop offset="0.828125" stop-color="#4E86FB"/>
<stop offset="0.835938" stop-color="#4E85FC"/>
<stop offset="0.84375" stop-color="#4F84FC"/>
<stop offset="0.851562" stop-color="#4F84FC"/>
<stop offset="0.859375" stop-color="#4F83FC"/>
<stop offset="0.867188" stop-color="#4F82FC"/>
<stop offset="0.875" stop-color="#4F82FC"/>
<stop offset="0.882813" stop-color="#5081FD"/>
<stop offset="0.890625" stop-color="#5081FD"/>
<stop offset="0.90625" stop-color="#5080FD"/>
<stop offset="0.9375" stop-color="#5080FD"/>
<stop offset="1" stop-color="#5080FD"/>
</linearGradient>
<linearGradient id="paint1_linear_3_2" x1="266.868" y1="214.976" x2="260.066" y2="220.688" gradientUnits="userSpaceOnUse">
<stop stop-color="#3DBDEC"/>
<stop offset="0.125" stop-color="#3DBDEC"/>
<stop offset="0.15625" stop-color="#3DBDEC"/>
<stop offset="0.164062" stop-color="#3DBDEC"/>
<stop offset="0.171875" stop-color="#3DBCEC"/>
<stop offset="0.179688" stop-color="#3DBBEC"/>
<stop offset="0.1875" stop-color="#3EBBED"/>
<stop offset="0.195313" stop-color="#3EBAED"/>
<stop offset="0.203125" stop-color="#3EB9ED"/>
<stop offset="0.210938" stop-color="#3EB9ED"/>
<stop offset="0.21875" stop-color="#3FB8ED"/>
<stop offset="0.226562" stop-color="#3FB8EE"/>
<stop offset="0.234375" stop-color="#3FB7EE"/>
<stop offset="0.242188" stop-color="#3FB6EE"/>
<stop offset="0.25" stop-color="#3FB6EE"/>
<stop offset="0.257813" stop-color="#40B5EE"/>
<stop offset="0.265625" stop-color="#40B4EE"/>
<stop offset="0.273438" stop-color="#40B4EF"/>
<stop offset="0.28125" stop-color="#40B3EF"/>
<stop offset="0.289063" stop-color="#40B2EF"/>
<stop offset="0.296875" stop-color="#41B2EF"/>
<stop offset="0.304688" stop-color="#41B1EF"/>
<stop offset="0.3125" stop-color="#41B0F0"/>
<stop offset="0.320312" stop-color="#41B0F0"/>
<stop offset="0.328125" stop-color="#41AFF0"/>
<stop offset="0.335938" stop-color="#42AEF0"/>
<stop offset="0.34375" stop-color="#42AEF0"/>
<stop offset="0.351563" stop-color="#42ADF0"/>
<stop offset="0.359375" stop-color="#42ADF1"/>
<stop offset="0.367188" stop-color="#42ACF1"/>
<stop offset="0.375" stop-color="#43ABF1"/>
<stop offset="0.382813" stop-color="#43ABF1"/>
<stop offset="0.390625" stop-color="#43AAF1"/>
<stop offset="0.398438" stop-color="#43A9F1"/>
<stop offset="0.40625" stop-color="#43A9F2"/>
<stop offset="0.414063" stop-color="#44A8F2"/>
<stop offset="0.421875" stop-color="#44A7F2"/>
<stop offset="0.429688" stop-color="#44A7F2"/>
<stop offset="0.4375" stop-color="#44A6F2"/>
<stop offset="0.445312" stop-color="#44A5F3"/>
<stop offset="0.453125" stop-color="#45A5F3"/>
<stop offset="0.460938" stop-color="#45A4F3"/>
<stop offset="0.46875" stop-color="#45A3F3"/>
<stop offset="0.476562" stop-color="#45A3F3"/>
<stop offset="0.484375" stop-color="#45A2F3"/>
<stop offset="0.492188" stop-color="#46A2F4"/>
<stop offset="0.5" stop-color="#46A1F4"/>
<stop offset="0.507813" stop-color="#46A0F4"/>
<stop offset="0.515625" stop-color="#46A0F4"/>
<stop offset="0.523438" stop-color="#469FF4"/>
<stop offset="0.53125" stop-color="#479EF5"/>
<stop offset="0.539063" stop-color="#479EF5"/>
<stop offset="0.546875" stop-color="#479DF5"/>
<stop offset="0.554688" stop-color="#479CF5"/>
<stop offset="0.5625" stop-color="#479CF5"/>
<stop offset="0.570313" stop-color="#489BF5"/>
<stop offset="0.578125" stop-color="#489AF6"/>
<stop offset="0.585938" stop-color="#489AF6"/>
<stop offset="0.59375" stop-color="#4899F6"/>
<stop offset="0.601562" stop-color="#4898F6"/>
<stop offset="0.609375" stop-color="#4998F6"/>
<stop offset="0.617188" stop-color="#4997F7"/>
<stop offset="0.625" stop-color="#4997F7"/>
<stop offset="0.632812" stop-color="#4996F7"/>
<stop offset="0.640625" stop-color="#4995F7"/>
<stop offset="0.648438" stop-color="#4A95F7"/>
<stop offset="0.65625" stop-color="#4A94F7"/>
<stop offset="0.664062" stop-color="#4A93F8"/>
<stop offset="0.671875" stop-color="#4A93F8"/>
<stop offset="0.679688" stop-color="#4A92F8"/>
<stop offset="0.6875" stop-color="#4B91F8"/>
<stop offset="0.695312" stop-color="#4B91F8"/>
<stop offset="0.703125" stop-color="#4B90F9"/>
<stop offset="0.710938" stop-color="#4B8FF9"/>
<stop offset="0.71875" stop-color="#4B8FF9"/>
<stop offset="0.726562" stop-color="#4C8EF9"/>
<stop offset="0.734375" stop-color="#4C8DF9"/>
<stop offset="0.742188" stop-color="#4C8DF9"/>
<stop offset="0.75" stop-color="#4C8CFA"/>
<stop offset="0.757812" stop-color="#4C8CFA"/>
<stop offset="0.765625" stop-color="#4D8BFA"/>
<stop offset="0.773438" stop-color="#4D8AFA"/>
<stop offset="0.78125" stop-color="#4D8AFA"/>
<stop offset="0.789063" stop-color="#4D89FB"/>
<stop offset="0.796875" stop-color="#4D88FB"/>
<stop offset="0.804688" stop-color="#4E88FB"/>
<stop offset="0.8125" stop-color="#4E87FB"/>
<stop offset="0.820313" stop-color="#4E86FB"/>
<stop offset="0.828125" stop-color="#4E86FB"/>
<stop offset="0.835938" stop-color="#4E85FC"/>
<stop offset="0.84375" stop-color="#4F84FC"/>
<stop offset="0.851563" stop-color="#4F84FC"/>
<stop offset="0.859375" stop-color="#4F83FC"/>
<stop offset="0.867188" stop-color="#4F82FC"/>
<stop offset="0.875" stop-color="#4F82FC"/>
<stop offset="0.882813" stop-color="#5081FD"/>
<stop offset="0.890625" stop-color="#5081FD"/>
<stop offset="0.90625" stop-color="#5080FD"/>
<stop offset="0.9375" stop-color="#5080FD"/>
<stop offset="1" stop-color="#5080FD"/>
</linearGradient>
<clipPath id="clip0_3_2">
<rect width="353.158" height="344.122" fill="white" transform="translate(0 79.687) rotate(-13.0406)"/>
</clipPath>
</defs>
</svg>
