<svg xmlns="http://www.w3.org/2000/svg" xmlns:xlink="http://www.w3.org/1999/xlink" width="500" zoomAndPan="magnify" viewBox="0 0 375 374.999991" height="500" preserveAspectRatio="xMidYMid meet" version="1.0"><defs><clipPath id="c504c4cedd"><path d="M 183 229 L 217 229 L 217 267.171875 L 183 267.171875 Z M 183 229 " clip-rule="nonzero"/></clipPath><clipPath id="d2c046e43d"><path d="M 208 134 L 277.761719 134 L 277.761719 194 L 208 194 Z M 208 134 " clip-rule="nonzero"/></clipPath><clipPath id="dc4665dba9"><path d="M 97.011719 139 L 172 139 L 172 200 L 97.011719 200 Z M 97.011719 139 " clip-rule="nonzero"/></clipPath><clipPath id="fb6a111b94"><path d="M 186 251 L 217 251 L 217 267.171875 L 186 267.171875 Z M 186 251 " clip-rule="nonzero"/></clipPath><clipPath id="54ed41cad3"><path d="M 145 108.171875 L 235 108.171875 L 235 185 L 145 185 Z M 145 108.171875 " clip-rule="nonzero"/></clipPath><clipPath id="5600f7f46d"><path d="M 209 186 L 212 186 L 212 190 L 209 190 Z M 209 186 " clip-rule="nonzero"/></clipPath><clipPath id="0e53da52c7"><path d="M 207.414062 188.566406 L 213.429688 185.503906 L 216.492188 191.519531 L 210.476562 194.582031 Z M 207.414062 188.566406 " clip-rule="nonzero"/></clipPath><clipPath id="e853d804fb"><path d="M 207.414062 188.566406 L 213.429688 185.503906 L 216.492188 191.519531 L 210.476562 194.582031 Z M 207.414062 188.566406 " clip-rule="nonzero"/></clipPath><clipPath id="d66b522be8"><path d="M 207.414062 188.566406 L 213.429688 185.503906 L 216.492188 191.519531 L 210.476562 194.582031 Z M 207.414062 188.566406 " clip-rule="nonzero"/></clipPath><clipPath id="83c6d848d1"><path d="M 208 186 L 212 186 L 212 193 L 208 193 Z M 208 186 " clip-rule="nonzero"/></clipPath><clipPath id="d825686de0"><path d="M 207.414062 188.566406 L 213.429688 185.503906 L 216.492188 191.519531 L 210.476562 194.582031 Z M 207.414062 188.566406 " clip-rule="nonzero"/></clipPath><clipPath id="88e6395ac9"><path d="M 207.414062 188.566406 L 213.429688 185.503906 L 216.492188 191.519531 L 210.476562 194.582031 Z M 207.414062 188.566406 " clip-rule="nonzero"/></clipPath><clipPath id="29340518ae"><path d="M 207.414062 188.566406 L 213.429688 185.503906 L 216.492188 191.519531 L 210.476562 194.582031 Z M 207.414062 188.566406 " clip-rule="nonzero"/></clipPath><clipPath id="0e738c33c8"><path d="M 211.15625 186.765625 C 211.292969 187.03125 211.714844 187.925781 211.753906 188.992188 C 211.765625 189.324219 211.738281 189.675781 211.652344 190.03125 C 211.433594 190.949219 210.824219 191.882812 209.453125 192.578125 L 208.6875 191.074219 C 209.699219 190.558594 210.347656 190.019531 210.753906 189.5 C 210.902344 189.3125 211.015625 189.128906 211.105469 188.953125 C 211.632812 187.90625 211.285156 187.027344 211.15625 186.765625 Z M 211.15625 186.765625 " clip-rule="nonzero"/></clipPath><linearGradient x1="-39.499997" gradientTransform="matrix(0.0153922, -0.00783522, 0.00849172, 0.0166818, 207.41364, 188.567275)" y1="122.636002" x2="271.844704" gradientUnits="userSpaceOnUse" y2="122.636002" id="58b5a5a64b"><stop stop-opacity="1" stop-color="rgb(23.919678%, 74.119568%, 92.549133%)" offset="0"/><stop stop-opacity="1" stop-color="rgb(23.919678%, 74.119568%, 92.549133%)" offset="0.125"/><stop stop-opacity="1" stop-color="rgb(23.919678%, 74.119568%, 92.549133%)" offset="0.15625"/><stop stop-opacity="1" stop-color="rgb(23.957825%, 73.99292%, 92.584229%)" offset="0.164062"/><stop stop-opacity="1" stop-color="rgb(24.03717%, 73.739624%, 92.654419%)" offset="0.171875"/><stop stop-opacity="1" stop-color="rgb(24.116516%, 73.486328%, 92.724609%)" offset="0.179688"/><stop stop-opacity="1" stop-color="rgb(24.194336%, 73.233032%, 92.796326%)" offset="0.1875"/><stop stop-opacity="1" stop-color="rgb(24.273682%, 72.979736%, 92.866516%)" offset="0.195312"/><stop stop-opacity="1" stop-color="rgb(24.353027%, 72.72644%, 92.936707%)" offset="0.203125"/><stop stop-opacity="1" stop-color="rgb(24.432373%, 72.471619%, 93.008423%)" offset="0.210938"/><stop stop-opacity="1" stop-color="rgb(24.510193%, 72.218323%, 93.078613%)" offset="0.21875"/><stop stop-opacity="1" stop-color="rgb(24.589539%, 71.965027%, 93.15033%)" offset="0.226562"/><stop stop-opacity="1" stop-color="rgb(24.668884%, 71.711731%, 93.22052%)" offset="0.234375"/><stop stop-opacity="1" stop-color="rgb(24.74823%, 71.458435%, 93.29071%)" offset="0.242187"/><stop stop-opacity="1" stop-color="rgb(24.827576%, 71.203613%, 93.362427%)" offset="0.25"/><stop stop-opacity="1" stop-color="rgb(24.905396%, 70.950317%, 93.432617%)" offset="0.257812"/><stop stop-opacity="1" stop-color="rgb(24.984741%, 70.697021%, 93.502808%)" offset="0.265625"/><stop stop-opacity="1" stop-color="rgb(25.064087%, 70.443726%, 93.574524%)" offset="0.273438"/><stop stop-opacity="1" stop-color="rgb(25.143433%, 70.19043%, 93.644714%)" offset="0.28125"/><stop stop-opacity="1" stop-color="rgb(25.221252%, 69.937134%, 93.714905%)" offset="0.289062"/><stop stop-opacity="1" stop-color="rgb(25.300598%, 69.682312%, 93.786621%)" offset="0.296875"/><stop stop-opacity="1" stop-color="rgb(25.379944%, 69.429016%, 93.856812%)" offset="0.304688"/><stop stop-opacity="1" stop-color="rgb(25.45929%, 69.17572%, 93.927002%)" offset="0.3125"/><stop stop-opacity="1" stop-color="rgb(25.537109%, 68.922424%, 93.998718%)" offset="0.320312"/><stop stop-opacity="1" stop-color="rgb(25.616455%, 68.669128%, 94.068909%)" offset="0.328125"/><stop stop-opacity="1" stop-color="rgb(25.695801%, 68.414307%, 94.139099%)" offset="0.335938"/><stop stop-opacity="1" stop-color="rgb(25.775146%, 68.161011%, 94.210815%)" offset="0.34375"/><stop stop-opacity="1" stop-color="rgb(25.852966%, 67.907715%, 94.281006%)" offset="0.351562"/><stop stop-opacity="1" stop-color="rgb(25.932312%, 67.654419%, 94.351196%)" offset="0.359375"/><stop stop-opacity="1" stop-color="rgb(26.011658%, 67.401123%, 94.422913%)" offset="0.367188"/><stop stop-opacity="1" stop-color="rgb(26.091003%, 67.146301%, 94.493103%)" offset="0.375"/><stop stop-opacity="1" stop-color="rgb(26.168823%, 66.893005%, 94.563293%)" offset="0.382812"/><stop stop-opacity="1" stop-color="rgb(26.248169%, 66.639709%, 94.63501%)" offset="0.390625"/><stop stop-opacity="1" stop-color="rgb(26.327515%, 66.386414%, 94.7052%)" offset="0.398438"/><stop stop-opacity="1" stop-color="rgb(26.40686%, 66.133118%, 94.775391%)" offset="0.40625"/><stop stop-opacity="1" stop-color="rgb(26.486206%, 65.878296%, 94.847107%)" offset="0.414063"/><stop stop-opacity="1" stop-color="rgb(26.564026%, 65.625%, 94.917297%)" offset="0.421875"/><stop stop-opacity="1" stop-color="rgb(26.643372%, 65.371704%, 94.987488%)" offset="0.429688"/><stop stop-opacity="1" stop-color="rgb(26.722717%, 65.118408%, 95.059204%)" offset="0.4375"/><stop stop-opacity="1" stop-color="rgb(26.802063%, 64.865112%, 95.129395%)" offset="0.445312"/><stop stop-opacity="1" stop-color="rgb(26.879883%, 64.610291%, 95.199585%)" offset="0.453125"/><stop stop-opacity="1" stop-color="rgb(26.959229%, 64.356995%, 95.271301%)" offset="0.460938"/><stop stop-opacity="1" stop-color="rgb(27.038574%, 64.103699%, 95.341492%)" offset="0.46875"/><stop stop-opacity="1" stop-color="rgb(27.11792%, 63.850403%, 95.411682%)" offset="0.476562"/><stop stop-opacity="1" stop-color="rgb(27.19574%, 63.597107%, 95.483398%)" offset="0.484375"/><stop stop-opacity="1" stop-color="rgb(27.275085%, 63.342285%, 95.553589%)" offset="0.492188"/><stop stop-opacity="1" stop-color="rgb(27.354431%, 63.088989%, 95.625305%)" offset="0.5"/><stop stop-opacity="1" stop-color="rgb(27.433777%, 62.835693%, 95.695496%)" offset="0.507812"/><stop stop-opacity="1" stop-color="rgb(27.511597%, 62.582397%, 95.765686%)" offset="0.515625"/><stop stop-opacity="1" stop-color="rgb(27.590942%, 62.329102%, 95.837402%)" offset="0.523438"/><stop stop-opacity="1" stop-color="rgb(27.670288%, 62.07428%, 95.907593%)" offset="0.53125"/><stop stop-opacity="1" stop-color="rgb(27.749634%, 61.820984%, 95.977783%)" offset="0.539062"/><stop stop-opacity="1" stop-color="rgb(27.828979%, 61.567688%, 96.0495%)" offset="0.546875"/><stop stop-opacity="1" stop-color="rgb(27.906799%, 61.314392%, 96.11969%)" offset="0.554688"/><stop stop-opacity="1" stop-color="rgb(27.986145%, 61.061096%, 96.18988%)" offset="0.5625"/><stop stop-opacity="1" stop-color="rgb(28.065491%, 60.806274%, 96.261597%)" offset="0.570312"/><stop stop-opacity="1" stop-color="rgb(28.144836%, 60.552979%, 96.331787%)" offset="0.578125"/><stop stop-opacity="1" stop-color="rgb(28.222656%, 60.299683%, 96.401978%)" offset="0.585938"/><stop stop-opacity="1" stop-color="rgb(28.302002%, 60.046387%, 96.473694%)" offset="0.59375"/><stop stop-opacity="1" stop-color="rgb(28.381348%, 59.793091%, 96.543884%)" offset="0.601563"/><stop stop-opacity="1" stop-color="rgb(28.460693%, 59.538269%, 96.614075%)" offset="0.609375"/><stop stop-opacity="1" stop-color="rgb(28.538513%, 59.284973%, 96.685791%)" offset="0.617188"/><stop stop-opacity="1" stop-color="rgb(28.617859%, 59.031677%, 96.755981%)" offset="0.625"/><stop stop-opacity="1" stop-color="rgb(28.697205%, 58.778381%, 96.826172%)" offset="0.632812"/><stop stop-opacity="1" stop-color="rgb(28.77655%, 58.525085%, 96.897888%)" offset="0.640625"/><stop stop-opacity="1" stop-color="rgb(28.85437%, 58.270264%, 96.968079%)" offset="0.648438"/><stop stop-opacity="1" stop-color="rgb(28.933716%, 58.016968%, 97.038269%)" offset="0.65625"/><stop stop-opacity="1" stop-color="rgb(29.013062%, 57.763672%, 97.109985%)" offset="0.664062"/><stop stop-opacity="1" stop-color="rgb(29.092407%, 57.510376%, 97.180176%)" offset="0.671875"/><stop stop-opacity="1" stop-color="rgb(29.170227%, 57.25708%, 97.250366%)" offset="0.679688"/><stop stop-opacity="1" stop-color="rgb(29.249573%, 57.003784%, 97.322083%)" offset="0.6875"/><stop stop-opacity="1" stop-color="rgb(29.328918%, 56.748962%, 97.392273%)" offset="0.695313"/><stop stop-opacity="1" stop-color="rgb(29.408264%, 56.495667%, 97.462463%)" offset="0.703125"/><stop stop-opacity="1" stop-color="rgb(29.48761%, 56.242371%, 97.53418%)" offset="0.710938"/><stop stop-opacity="1" stop-color="rgb(29.56543%, 55.989075%, 97.60437%)" offset="0.71875"/><stop stop-opacity="1" stop-color="rgb(29.644775%, 55.735779%, 97.674561%)" offset="0.726562"/><stop stop-opacity="1" stop-color="rgb(29.724121%, 55.480957%, 97.746277%)" offset="0.734375"/><stop stop-opacity="1" stop-color="rgb(29.803467%, 55.227661%, 97.816467%)" offset="0.742188"/><stop stop-opacity="1" stop-color="rgb(29.881287%, 54.974365%, 97.888184%)" offset="0.75"/><stop stop-opacity="1" stop-color="rgb(29.960632%, 54.721069%, 97.958374%)" offset="0.757812"/><stop stop-opacity="1" stop-color="rgb(30.039978%, 54.467773%, 98.028564%)" offset="0.765625"/><stop stop-opacity="1" stop-color="rgb(30.119324%, 54.212952%, 98.100281%)" offset="0.773438"/><stop stop-opacity="1" stop-color="rgb(30.197144%, 53.959656%, 98.170471%)" offset="0.78125"/><stop stop-opacity="1" stop-color="rgb(30.276489%, 53.70636%, 98.240662%)" offset="0.789063"/><stop stop-opacity="1" stop-color="rgb(30.355835%, 53.453064%, 98.312378%)" offset="0.796875"/><stop stop-opacity="1" stop-color="rgb(30.435181%, 53.199768%, 98.382568%)" offset="0.804688"/><stop stop-opacity="1" stop-color="rgb(30.513%, 52.944946%, 98.452759%)" offset="0.8125"/><stop stop-opacity="1" stop-color="rgb(30.592346%, 52.69165%, 98.524475%)" offset="0.820312"/><stop stop-opacity="1" stop-color="rgb(30.671692%, 52.438354%, 98.594666%)" offset="0.828125"/><stop stop-opacity="1" stop-color="rgb(30.751038%, 52.185059%, 98.664856%)" offset="0.835938"/><stop stop-opacity="1" stop-color="rgb(30.828857%, 51.931763%, 98.736572%)" offset="0.84375"/><stop stop-opacity="1" stop-color="rgb(30.908203%, 51.676941%, 98.806763%)" offset="0.851562"/><stop stop-opacity="1" stop-color="rgb(30.987549%, 51.423645%, 98.876953%)" offset="0.859375"/><stop stop-opacity="1" stop-color="rgb(31.066895%, 51.170349%, 98.948669%)" offset="0.867188"/><stop stop-opacity="1" stop-color="rgb(31.14624%, 50.917053%, 99.01886%)" offset="0.875"/><stop stop-opacity="1" stop-color="rgb(31.22406%, 50.663757%, 99.08905%)" offset="0.882813"/><stop stop-opacity="1" stop-color="rgb(31.303406%, 50.408936%, 99.160767%)" offset="0.890625"/><stop stop-opacity="1" stop-color="rgb(31.355286%, 50.241089%, 99.206543%)" offset="0.90625"/><stop stop-opacity="1" stop-color="rgb(31.369019%, 50.19989%, 99.21875%)" offset="0.9375"/><stop stop-opacity="1" stop-color="rgb(31.369019%, 50.19989%, 99.21875%)" offset="1"/></linearGradient><clipPath id="d90beedfa5"><path d="M 212 190 L 215 190 L 215 194 L 212 194 Z M 212 190 " clip-rule="nonzero"/></clipPath><clipPath id="9bd01e4561"><path d="M 207.414062 188.566406 L 213.429688 185.503906 L 216.492188 191.519531 L 210.476562 194.582031 Z M 207.414062 188.566406 " clip-rule="nonzero"/></clipPath><clipPath id="d16e64ebad"><path d="M 207.414062 188.566406 L 213.429688 185.503906 L 216.492188 191.519531 L 210.476562 194.582031 Z M 207.414062 188.566406 " clip-rule="nonzero"/></clipPath><clipPath id="547dbb3d2f"><path d="M 207.414062 188.566406 L 213.429688 185.503906 L 216.492188 191.519531 L 210.476562 194.582031 Z M 207.414062 188.566406 " clip-rule="nonzero"/></clipPath><clipPath id="a6d8e3d479"><path d="M 212 187 L 216 187 L 216 194 L 212 194 Z M 212 187 " clip-rule="nonzero"/></clipPath><clipPath id="badac72eb1"><path d="M 207.414062 188.566406 L 213.429688 185.503906 L 216.492188 191.519531 L 210.476562 194.582031 Z M 207.414062 188.566406 " clip-rule="nonzero"/></clipPath><clipPath id="fd79e38f17"><path d="M 207.414062 188.566406 L 213.429688 185.503906 L 216.492188 191.519531 L 210.476562 194.582031 Z M 207.414062 188.566406 " clip-rule="nonzero"/></clipPath><clipPath id="fbe879e1a5"><path d="M 207.414062 188.566406 L 213.429688 185.503906 L 216.492188 191.519531 L 210.476562 194.582031 Z M 207.414062 188.566406 " clip-rule="nonzero"/></clipPath><clipPath id="18118bc785"><path d="M 212.746094 193.324219 C 212.609375 193.058594 212.191406 192.160156 212.152344 191.097656 C 212.140625 190.761719 212.164062 190.410156 212.25 190.054688 C 212.46875 189.140625 213.082031 188.207031 214.449219 187.511719 L 215.214844 189.015625 C 214.207031 189.527344 213.558594 190.070312 213.148438 190.589844 C 213.003906 190.773438 212.886719 190.957031 212.796875 191.136719 C 212.273438 192.183594 212.617188 193.0625 212.746094 193.324219 Z M 212.746094 193.324219 " clip-rule="nonzero"/></clipPath><linearGradient x1="127.932195" gradientTransform="matrix(-0.0153922, 0.00783522, -0.00849172, -0.0166818, 217.705409, 187.532945)" y1="-37.771" x2="439.286899" gradientUnits="userSpaceOnUse" y2="-37.771" id="e0425aa7e6"><stop stop-opacity="1" stop-color="rgb(23.919678%, 74.119568%, 92.549133%)" offset="0"/><stop stop-opacity="1" stop-color="rgb(23.919678%, 74.119568%, 92.549133%)" offset="0.125"/><stop stop-opacity="1" stop-color="rgb(23.919678%, 74.119568%, 92.549133%)" offset="0.15625"/><stop stop-opacity="1" stop-color="rgb(23.957825%, 73.99292%, 92.584229%)" offset="0.164062"/><stop stop-opacity="1" stop-color="rgb(24.03717%, 73.74115%, 92.654419%)" offset="0.171875"/><stop stop-opacity="1" stop-color="rgb(24.116516%, 73.486328%, 92.724609%)" offset="0.179688"/><stop stop-opacity="1" stop-color="rgb(24.194336%, 73.233032%, 92.796326%)" offset="0.1875"/><stop stop-opacity="1" stop-color="rgb(24.273682%, 72.979736%, 92.866516%)" offset="0.195313"/><stop stop-opacity="1" stop-color="rgb(24.353027%, 72.72644%, 92.936707%)" offset="0.203125"/><stop stop-opacity="1" stop-color="rgb(24.432373%, 72.473145%, 93.008423%)" offset="0.210938"/><stop stop-opacity="1" stop-color="rgb(24.510193%, 72.218323%, 93.078613%)" offset="0.21875"/><stop stop-opacity="1" stop-color="rgb(24.589539%, 71.965027%, 93.148804%)" offset="0.226562"/><stop stop-opacity="1" stop-color="rgb(24.668884%, 71.711731%, 93.22052%)" offset="0.234375"/><stop stop-opacity="1" stop-color="rgb(24.74823%, 71.458435%, 93.29071%)" offset="0.242188"/><stop stop-opacity="1" stop-color="rgb(24.82605%, 71.205139%, 93.362427%)" offset="0.25"/><stop stop-opacity="1" stop-color="rgb(24.905396%, 70.950317%, 93.432617%)" offset="0.257813"/><stop stop-opacity="1" stop-color="rgb(24.984741%, 70.697021%, 93.502808%)" offset="0.265625"/><stop stop-opacity="1" stop-color="rgb(25.064087%, 70.443726%, 93.574524%)" offset="0.273438"/><stop stop-opacity="1" stop-color="rgb(25.143433%, 70.19043%, 93.644714%)" offset="0.28125"/><stop stop-opacity="1" stop-color="rgb(25.221252%, 69.937134%, 93.714905%)" offset="0.289063"/><stop stop-opacity="1" stop-color="rgb(25.300598%, 69.682312%, 93.786621%)" offset="0.296875"/><stop stop-opacity="1" stop-color="rgb(25.379944%, 69.429016%, 93.856812%)" offset="0.304688"/><stop stop-opacity="1" stop-color="rgb(25.45929%, 69.17572%, 93.927002%)" offset="0.3125"/><stop stop-opacity="1" stop-color="rgb(25.537109%, 68.922424%, 93.998718%)" offset="0.320312"/><stop stop-opacity="1" stop-color="rgb(25.616455%, 68.669128%, 94.068909%)" offset="0.328125"/><stop stop-opacity="1" stop-color="rgb(25.695801%, 68.414307%, 94.139099%)" offset="0.335938"/><stop stop-opacity="1" stop-color="rgb(25.775146%, 68.161011%, 94.210815%)" offset="0.34375"/><stop stop-opacity="1" stop-color="rgb(25.852966%, 67.907715%, 94.281006%)" offset="0.351563"/><stop stop-opacity="1" stop-color="rgb(25.932312%, 67.654419%, 94.351196%)" offset="0.359375"/><stop stop-opacity="1" stop-color="rgb(26.011658%, 67.401123%, 94.422913%)" offset="0.367188"/><stop stop-opacity="1" stop-color="rgb(26.091003%, 67.146301%, 94.493103%)" offset="0.375"/><stop stop-opacity="1" stop-color="rgb(26.168823%, 66.893005%, 94.563293%)" offset="0.382813"/><stop stop-opacity="1" stop-color="rgb(26.248169%, 66.639709%, 94.63501%)" offset="0.390625"/><stop stop-opacity="1" stop-color="rgb(26.327515%, 66.386414%, 94.7052%)" offset="0.398438"/><stop stop-opacity="1" stop-color="rgb(26.40686%, 66.133118%, 94.775391%)" offset="0.40625"/><stop stop-opacity="1" stop-color="rgb(26.486206%, 65.878296%, 94.847107%)" offset="0.414063"/><stop stop-opacity="1" stop-color="rgb(26.564026%, 65.625%, 94.917297%)" offset="0.421875"/><stop stop-opacity="1" stop-color="rgb(26.643372%, 65.371704%, 94.987488%)" offset="0.429688"/><stop stop-opacity="1" stop-color="rgb(26.722717%, 65.118408%, 95.059204%)" offset="0.4375"/><stop stop-opacity="1" stop-color="rgb(26.802063%, 64.865112%, 95.129395%)" offset="0.445312"/><stop stop-opacity="1" stop-color="rgb(26.879883%, 64.610291%, 95.199585%)" offset="0.453125"/><stop stop-opacity="1" stop-color="rgb(26.959229%, 64.356995%, 95.271301%)" offset="0.460938"/><stop stop-opacity="1" stop-color="rgb(27.038574%, 64.103699%, 95.341492%)" offset="0.46875"/><stop stop-opacity="1" stop-color="rgb(27.11792%, 63.850403%, 95.411682%)" offset="0.476562"/><stop stop-opacity="1" stop-color="rgb(27.19574%, 63.597107%, 95.483398%)" offset="0.484375"/><stop stop-opacity="1" stop-color="rgb(27.275085%, 63.342285%, 95.553589%)" offset="0.492188"/><stop stop-opacity="1" stop-color="rgb(27.354431%, 63.088989%, 95.625305%)" offset="0.5"/><stop stop-opacity="1" stop-color="rgb(27.433777%, 62.835693%, 95.695496%)" offset="0.507813"/><stop stop-opacity="1" stop-color="rgb(27.511597%, 62.582397%, 95.765686%)" offset="0.515625"/><stop stop-opacity="1" stop-color="rgb(27.590942%, 62.329102%, 95.837402%)" offset="0.523438"/><stop stop-opacity="1" stop-color="rgb(27.670288%, 62.07428%, 95.907593%)" offset="0.53125"/><stop stop-opacity="1" stop-color="rgb(27.749634%, 61.820984%, 95.977783%)" offset="0.539063"/><stop stop-opacity="1" stop-color="rgb(27.828979%, 61.567688%, 96.0495%)" offset="0.546875"/><stop stop-opacity="1" stop-color="rgb(27.906799%, 61.314392%, 96.11969%)" offset="0.554688"/><stop stop-opacity="1" stop-color="rgb(27.986145%, 61.061096%, 96.18988%)" offset="0.5625"/><stop stop-opacity="1" stop-color="rgb(28.065491%, 60.806274%, 96.261597%)" offset="0.570313"/><stop stop-opacity="1" stop-color="rgb(28.144836%, 60.552979%, 96.331787%)" offset="0.578125"/><stop stop-opacity="1" stop-color="rgb(28.222656%, 60.299683%, 96.401978%)" offset="0.585938"/><stop stop-opacity="1" stop-color="rgb(28.302002%, 60.046387%, 96.473694%)" offset="0.59375"/><stop stop-opacity="1" stop-color="rgb(28.381348%, 59.793091%, 96.543884%)" offset="0.601562"/><stop stop-opacity="1" stop-color="rgb(28.460693%, 59.538269%, 96.614075%)" offset="0.609375"/><stop stop-opacity="1" stop-color="rgb(28.538513%, 59.284973%, 96.685791%)" offset="0.617188"/><stop stop-opacity="1" stop-color="rgb(28.617859%, 59.031677%, 96.755981%)" offset="0.625"/><stop stop-opacity="1" stop-color="rgb(28.697205%, 58.778381%, 96.826172%)" offset="0.632812"/><stop stop-opacity="1" stop-color="rgb(28.77655%, 58.525085%, 96.897888%)" offset="0.640625"/><stop stop-opacity="1" stop-color="rgb(28.85437%, 58.270264%, 96.968079%)" offset="0.648438"/><stop stop-opacity="1" stop-color="rgb(28.933716%, 58.016968%, 97.038269%)" offset="0.65625"/><stop stop-opacity="1" stop-color="rgb(29.013062%, 57.763672%, 97.109985%)" offset="0.664062"/><stop stop-opacity="1" stop-color="rgb(29.092407%, 57.510376%, 97.180176%)" offset="0.671875"/><stop stop-opacity="1" stop-color="rgb(29.171753%, 57.25708%, 97.250366%)" offset="0.679688"/><stop stop-opacity="1" stop-color="rgb(29.249573%, 57.002258%, 97.322083%)" offset="0.6875"/><stop stop-opacity="1" stop-color="rgb(29.328918%, 56.748962%, 97.392273%)" offset="0.695312"/><stop stop-opacity="1" stop-color="rgb(29.408264%, 56.495667%, 97.462463%)" offset="0.703125"/><stop stop-opacity="1" stop-color="rgb(29.48761%, 56.242371%, 97.53418%)" offset="0.710938"/><stop stop-opacity="1" stop-color="rgb(29.56543%, 55.989075%, 97.60437%)" offset="0.71875"/><stop stop-opacity="1" stop-color="rgb(29.644775%, 55.734253%, 97.676086%)" offset="0.726562"/><stop stop-opacity="1" stop-color="rgb(29.724121%, 55.480957%, 97.746277%)" offset="0.734375"/><stop stop-opacity="1" stop-color="rgb(29.803467%, 55.227661%, 97.816467%)" offset="0.742188"/><stop stop-opacity="1" stop-color="rgb(29.881287%, 54.974365%, 97.888184%)" offset="0.75"/><stop stop-opacity="1" stop-color="rgb(29.960632%, 54.721069%, 97.958374%)" offset="0.757812"/><stop stop-opacity="1" stop-color="rgb(30.039978%, 54.466248%, 98.028564%)" offset="0.765625"/><stop stop-opacity="1" stop-color="rgb(30.119324%, 54.212952%, 98.100281%)" offset="0.773438"/><stop stop-opacity="1" stop-color="rgb(30.197144%, 53.959656%, 98.170471%)" offset="0.78125"/><stop stop-opacity="1" stop-color="rgb(30.276489%, 53.70636%, 98.240662%)" offset="0.789063"/><stop stop-opacity="1" stop-color="rgb(30.355835%, 53.453064%, 98.312378%)" offset="0.796875"/><stop stop-opacity="1" stop-color="rgb(30.435181%, 53.198242%, 98.382568%)" offset="0.804688"/><stop stop-opacity="1" stop-color="rgb(30.514526%, 52.944946%, 98.452759%)" offset="0.8125"/><stop stop-opacity="1" stop-color="rgb(30.592346%, 52.69165%, 98.524475%)" offset="0.820313"/><stop stop-opacity="1" stop-color="rgb(30.671692%, 52.438354%, 98.594666%)" offset="0.828125"/><stop stop-opacity="1" stop-color="rgb(30.751038%, 52.185059%, 98.664856%)" offset="0.835938"/><stop stop-opacity="1" stop-color="rgb(30.830383%, 51.930237%, 98.736572%)" offset="0.84375"/><stop stop-opacity="1" stop-color="rgb(30.908203%, 51.676941%, 98.806763%)" offset="0.851563"/><stop stop-opacity="1" stop-color="rgb(30.987549%, 51.423645%, 98.876953%)" offset="0.859375"/><stop stop-opacity="1" stop-color="rgb(31.066895%, 51.170349%, 98.948669%)" offset="0.867188"/><stop stop-opacity="1" stop-color="rgb(31.14624%, 50.917053%, 99.01886%)" offset="0.875"/><stop stop-opacity="1" stop-color="rgb(31.22406%, 50.662231%, 99.08905%)" offset="0.882813"/><stop stop-opacity="1" stop-color="rgb(31.303406%, 50.408936%, 99.160767%)" offset="0.890625"/><stop stop-opacity="1" stop-color="rgb(31.355286%, 50.241089%, 99.206543%)" offset="0.90625"/><stop stop-opacity="1" stop-color="rgb(31.369019%, 50.19989%, 99.21875%)" offset="0.9375"/><stop stop-opacity="1" stop-color="rgb(31.369019%, 50.19989%, 99.21875%)" offset="1"/></linearGradient><clipPath id="d300a81d16"><path d="M 175 93.25 L 211 93.25 L 211 103 L 175 103 Z M 175 93.25 " clip-rule="nonzero"/></clipPath><clipPath id="b3f756d9ad"><path d="M 170 99 L 215.738281 99 L 215.738281 121 L 170 121 Z M 170 99 " clip-rule="nonzero"/></clipPath></defs><path fill="#f6f6f6" d="M 220.832031 226.292969 C 218.839844 228.550781 216.582031 230.367188 214.210938 231.597656 C 211.242188 233.136719 207.863281 234.285156 204.328125 234.917969 C 197.492188 236.144531 190.066406 235.433594 183.851562 231.851562 C 182.324219 230.96875 180.867188 229.914062 179.511719 228.667969 C 175.496094 224.980469 172.320312 219.421875 170.078125 213.480469 C 169.425781 211.753906 168.851562 210 168.359375 208.246094 C 167.457031 205.027344 166.828125 201.828125 166.480469 198.863281 C 166.097656 195.5625 166.066406 192.558594 166.414062 190.167969 C 166.875 186.976562 167.761719 184.269531 168.757812 182.085938 C 169.09375 181.347656 169.445312 180.667969 169.792969 180.046875 C 171.558594 176.933594 173.328125 175.378906 173.546875 175.550781 C 173.71875 175.6875 179.671875 175.417969 186.371094 175.070312 C 195.152344 174.617188 205.21875 174.027344 205.21875 174.027344 C 205.21875 174.027344 207.828125 175.003906 211.304688 177.214844 C 211.828125 177.546875 212.371094 177.90625 212.929688 178.296875 C 214.414062 179.332031 215.996094 180.574219 217.5625 182.035156 C 220.117188 184.414062 222.632812 187.378906 224.628906 190.996094 C 225.335938 192.28125 225.980469 193.648438 226.535156 195.097656 C 226.902344 196.050781 227.210938 197.007812 227.472656 197.960938 C 227.878906 199.460938 228.160156 200.960938 228.324219 202.449219 C 228.582031 204.742188 228.566406 207.011719 228.316406 209.21875 C 227.5625 215.859375 224.699219 221.910156 220.832031 226.292969 Z M 220.832031 226.292969 " fill-opacity="1" fill-rule="nonzero"/><path fill="#54a3e6" d="M 195.121094 174.78125 C 196.300781 174.871094 197.464844 175.003906 198.617188 175.179688 C 199.765625 175.351562 200.878906 175.5625 201.957031 175.8125 C 203.035156 176.0625 204.054688 176.34375 205.015625 176.65625 C 205.976562 176.972656 206.863281 177.3125 207.675781 177.683594 C 208.484375 178.050781 209.203125 178.4375 209.832031 178.84375 C 210.457031 179.253906 210.984375 179.671875 211.402344 180.101562 C 211.824219 180.535156 212.132812 180.96875 212.332031 181.40625 C 212.527344 181.84375 212.609375 182.277344 212.578125 182.707031 C 212.542969 183.136719 212.394531 183.550781 212.132812 183.953125 C 211.871094 184.355469 211.5 184.738281 211.015625 185.097656 C 210.535156 185.457031 209.953125 185.789062 209.269531 186.097656 C 208.585938 186.402344 207.816406 186.671875 206.960938 186.910156 C 206.101562 187.148438 205.175781 187.347656 204.175781 187.511719 C 203.175781 187.671875 202.125 187.792969 201.023438 187.871094 C 199.921875 187.949219 198.789062 187.988281 197.625 187.980469 C 196.460938 187.972656 195.292969 187.925781 194.113281 187.832031 C 192.933594 187.742188 191.769531 187.609375 190.617188 187.433594 C 189.46875 187.261719 188.355469 187.050781 187.277344 186.800781 C 186.199219 186.550781 185.179688 186.269531 184.21875 185.957031 C 183.257812 185.640625 182.371094 185.300781 181.558594 184.933594 C 180.75 184.5625 180.03125 184.175781 179.402344 183.769531 C 178.773438 183.363281 178.25 182.941406 177.832031 182.511719 C 177.410156 182.082031 177.101562 181.644531 176.902344 181.207031 C 176.707031 180.769531 176.625 180.335938 176.65625 179.90625 C 176.691406 179.480469 176.835938 179.0625 177.101562 178.660156 C 177.363281 178.257812 177.734375 177.878906 178.21875 177.515625 C 178.699219 177.15625 179.28125 176.824219 179.964844 176.519531 C 180.648438 176.210938 181.417969 175.941406 182.273438 175.703125 C 183.132812 175.464844 184.058594 175.265625 185.058594 175.101562 C 186.058594 174.941406 187.109375 174.820312 188.210938 174.742188 C 189.3125 174.664062 190.445312 174.625 191.609375 174.632812 C 192.769531 174.640625 193.941406 174.6875 195.121094 174.78125 Z M 195.121094 174.78125 " fill-opacity="1" fill-rule="nonzero"/><g clip-path="url(#c504c4cedd)"><path fill="#f6f6f6" d="M 206.199219 264.398438 C 197.992188 269.011719 190.800781 266.941406 188.183594 264.800781 C 187.199219 263.996094 186.785156 263.007812 186.566406 261.71875 C 186.207031 259.585938 186.378906 256.632812 185.390625 252.328125 C 185.164062 251.34375 184.96875 250.199219 184.804688 248.953125 C 184.621094 247.539062 184.46875 245.996094 184.347656 244.421875 C 183.984375 239.671875 183.890625 234.621094 183.851562 231.851562 C 183.835938 230.675781 183.832031 229.90625 183.824219 229.75 L 184.242188 229.523438 C 184.390625 228.921875 202.113281 230.519531 203.226562 230.519531 C 203.679688 230.519531 204.050781 232.535156 204.328125 234.917969 C 204.46875 236.125 204.589844 237.425781 204.679688 238.601562 C 204.851562 240.78125 204.941406 242.542969 204.941406 242.542969 C 204.941406 242.542969 201.335938 242.890625 204.640625 242.625 C 205.171875 242.582031 205.777344 242.671875 206.425781 242.867188 C 209.722656 243.859375 214.152344 247.628906 215.628906 251.125 C 215.675781 251.234375 215.71875 251.34375 215.761719 251.453125 C 217.34375 255.726562 214.40625 259.789062 206.199219 264.402344 Z M 206.199219 264.398438 " fill-opacity="1" fill-rule="nonzero"/></g><path fill="#f6f6f6" d="M 247.613281 247.363281 C 247.050781 247.363281 246.417969 247.136719 245.738281 246.742188 C 242.234375 244.71875 237.394531 238.238281 234.300781 235.136719 C 234.109375 234.945312 233.902344 234.746094 233.6875 234.546875 C 232.601562 233.535156 231.277344 232.476562 229.886719 231.46875 C 226.445312 228.980469 222.589844 226.785156 220.832031 226.292969 C 220.78125 226.28125 220.730469 226.269531 220.683594 226.257812 C 218.210938 225.664062 223.207031 208.808594 225.253906 208.828125 C 225.484375 208.828125 226.570312 208.867188 228.316406 209.21875 C 230.519531 209.660156 233.773438 210.597656 237.675781 212.582031 C 237.816406 212.652344 237.960938 212.726562 238.101562 212.800781 C 239.390625 213.472656 240.457031 214.152344 241.34375 214.8125 C 245.433594 217.871094 245.671875 220.589844 245.671875 220.589844 C 245.671875 220.589844 252.324219 214.511719 259.464844 217.261719 C 261.625 218.09375 262.972656 219.132812 263.765625 220.339844 C 265.585938 223.117188 264.429688 226.769531 263.359375 230.761719 C 261.828125 236.484375 251.035156 247.347656 247.613281 247.363281 Z M 247.613281 247.363281 " fill-opacity="1" fill-rule="nonzero"/><g clip-path="url(#d2c046e43d)"><path fill="#f6f6f6" d="M 276.335938 152.796875 C 274.652344 154.34375 267.660156 156.488281 267.195312 157.792969 C 266.726562 159.101562 266.183594 163.453125 263.074219 166.417969 C 259.960938 169.386719 256.800781 168.253906 256.800781 168.253906 C 256.800781 168.253906 252.664062 173.738281 245.832031 179.234375 C 244.746094 180.109375 243.59375 180.984375 242.375 181.835938 C 241.527344 182.433594 240.648438 183.015625 239.742188 183.582031 C 234.285156 186.992188 228.699219 189.441406 224.628906 190.996094 C 220.953125 192.402344 218.507812 193.082031 218.507812 193.082031 L 211.832031 183.722656 L 208.921875 179.648438 C 209.058594 179.664062 210.597656 179.207031 212.929688 178.296875 C 214.742188 177.589844 217.03125 176.613281 219.515625 175.371094 C 221.304688 174.480469 223.195312 173.457031 225.085938 172.300781 C 226.164062 171.640625 227.238281 170.9375 228.292969 170.195312 C 229.242188 169.527344 230.171875 168.832031 231.074219 168.117188 C 231.558594 167.734375 232.035156 167.347656 232.503906 166.960938 C 233.714844 165.957031 234.867188 164.933594 235.945312 163.9375 C 236.792969 163.152344 237.597656 162.382812 238.34375 161.640625 C 241.964844 158.054688 244.28125 155.21875 244.28125 155.21875 C 244.28125 155.21875 242.988281 151.199219 242.335938 147.644531 C 242.007812 145.859375 241.839844 144.191406 242.078125 143.207031 C 242.085938 143.164062 242.097656 143.121094 242.109375 143.078125 C 242.726562 140.558594 243.324219 138.859375 245.066406 138.949219 C 245.304688 138.960938 245.566406 139.007812 245.851562 139.089844 C 248.25 139.78125 250.433594 147.953125 250.449219 148.441406 C 250.464844 148.929688 255.011719 136.101562 257.203125 134.71875 C 259.394531 133.335938 262.59375 135.136719 262.875 137.109375 C 263.136719 138.945312 260.007812 146.441406 259.496094 147.496094 C 260.253906 146.277344 267.050781 136.417969 270.402344 137.9375 C 273.980469 139.554688 272.859375 142.417969 270.5 145.738281 C 268.605469 148.40625 266.382812 150.511719 265.585938 151.234375 C 267.023438 149.980469 273.160156 144.894531 275.722656 146.980469 C 278.632812 149.347656 278.015625 151.253906 276.335938 152.796875 Z M 276.335938 152.796875 " fill-opacity="1" fill-rule="nonzero"/></g><g clip-path="url(#dc4665dba9)"><path fill="#f6f6f6" d="M 166.917969 199.007812 C 166.917969 199.007812 166.765625 198.957031 166.480469 198.863281 C 163.617188 197.921875 147.277344 192.457031 137.414062 187.28125 C 137.128906 187.128906 136.847656 186.980469 136.570312 186.828125 C 135.289062 186.125 134.058594 185.390625 132.886719 184.644531 C 124.589844 179.328125 119.261719 173.269531 119.261719 173.269531 C 119.261719 173.269531 116.191406 174.636719 112.867188 171.910156 C 109.542969 169.183594 108.679688 164.886719 108.117188 163.617188 C 107.558594 162.347656 100.425781 160.734375 98.632812 159.320312 C 96.839844 157.90625 96.082031 156.054688 98.808594 153.472656 C 101.203125 151.207031 107.683594 155.796875 109.226562 156.949219 C 108.367188 156.28125 106.003906 154.355469 103.925781 151.84375 C 101.328125 148.707031 99.992188 145.941406 103.441406 144.058594 C 106.671875 142.292969 114.183594 151.613281 115.03125 152.773438 C 114.441406 151.761719 110.761719 144.519531 110.886719 142.671875 C 111.023438 140.679688 114.078125 138.644531 116.363281 139.859375 C 118.652344 141.074219 124.140625 153.527344 124.121094 153.039062 C 124.097656 152.550781 125.671875 144.238281 128.011719 143.367188 C 130.347656 142.5 131.152344 144.3125 132.082031 147.191406 C 133.011719 150.074219 130.773438 159.335938 130.773438 159.335938 C 130.773438 159.335938 134.515625 163.269531 139.886719 167.523438 C 141.039062 168.4375 142.265625 169.363281 143.546875 170.269531 C 144.921875 171.242188 146.359375 172.191406 147.832031 173.074219 C 154.484375 177.046875 163.871094 180.492188 168.757812 182.085938 C 170.667969 182.710938 171.886719 183.054688 171.988281 183.035156 L 166.914062 199.007812 Z M 166.917969 199.007812 " fill-opacity="1" fill-rule="nonzero"/></g><g clip-path="url(#fb6a111b94)"><path fill="#1e1915" d="M 206.199219 264.398438 C 197.992188 269.011719 190.800781 266.941406 188.183594 264.800781 C 187.199219 263.996094 186.785156 263.007812 186.566406 261.71875 C 189.191406 259.316406 193.144531 256.832031 199.042969 254.867188 C 206.546875 252.367188 211.953125 251.015625 215.628906 251.125 C 215.675781 251.234375 215.71875 251.34375 215.761719 251.453125 C 217.34375 255.726562 214.40625 259.789062 206.199219 264.402344 Z M 206.199219 264.398438 " fill-opacity="1" fill-rule="nonzero"/></g><path fill="#1e1915" d="M 247.613281 247.363281 C 247.050781 247.363281 246.417969 247.136719 245.738281 246.742188 C 248.011719 239.503906 254.917969 223.960938 263.761719 220.339844 C 265.582031 223.117188 264.429688 226.769531 263.359375 230.761719 C 261.824219 236.480469 251.035156 247.347656 247.609375 247.359375 Z M 247.613281 247.363281 " fill-opacity="1" fill-rule="nonzero"/><path fill="#54a3e6" d="M 234.589844 133.925781 C 234.863281 133.8125 238.511719 131.320312 242.476562 134.621094 C 246.441406 137.917969 247.789062 150.066406 244.011719 157.265625 C 240.238281 164.464844 233.109375 160.851562 233.113281 160.4375 C 233.113281 160.023438 234.589844 133.925781 234.589844 133.925781 Z M 234.589844 133.925781 " fill-opacity="1" fill-rule="nonzero"/><path fill="#f6f6f6" d="M 237.183594 133.789062 C 237.390625 133.996094 243.292969 138.355469 242.242188 148.851562 C 241.191406 159.347656 237.066406 162.160156 231.488281 160.273438 C 225.914062 158.390625 226.011719 146.871094 226.835938 142.804688 C 227.660156 138.738281 230.355469 136.464844 230.355469 136.464844 L 227.738281 117.917969 L 231.605469 116.796875 Z M 237.183594 133.789062 " fill-opacity="1" fill-rule="nonzero"/><path fill="#f6f6f6" d="M 231.65625 112.132812 C 232.007812 112.488281 232.28125 112.898438 232.472656 113.363281 C 232.664062 113.824219 232.761719 114.308594 232.761719 114.808594 C 232.761719 115.3125 232.664062 115.792969 232.472656 116.257812 C 232.28125 116.722656 232.007812 117.128906 231.65625 117.484375 C 231.300781 117.839844 230.894531 118.113281 230.433594 118.304688 C 229.96875 118.496094 229.488281 118.59375 228.988281 118.59375 C 228.488281 118.59375 228.007812 118.496094 227.546875 118.304688 C 227.085938 118.113281 226.675781 117.839844 226.324219 117.484375 C 225.96875 117.128906 225.699219 116.722656 225.507812 116.257812 C 225.316406 115.792969 225.21875 115.3125 225.21875 114.808594 C 225.21875 114.308594 225.316406 113.824219 225.507812 113.363281 C 225.699219 112.898438 225.96875 112.488281 226.324219 112.132812 C 226.675781 111.78125 227.085938 111.507812 227.546875 111.3125 C 228.007812 111.121094 228.488281 111.027344 228.988281 111.027344 C 229.488281 111.027344 229.96875 111.121094 230.433594 111.3125 C 230.894531 111.507812 231.300781 111.78125 231.65625 112.132812 Z M 231.65625 112.132812 " fill-opacity="1" fill-rule="nonzero"/><path fill="#4ac95b" d="M 150.632812 133.570312 C 150.574219 133.558594 150.59375 133.464844 150.652344 133.476562 C 150.710938 133.488281 150.691406 133.582031 150.632812 133.570312 Z M 150.632812 133.570312 " fill-opacity="1" fill-rule="nonzero"/><g clip-path="url(#54ed41cad3)"><path fill="#f6f6f6" d="M 230.867188 168.671875 C 230.875 168.65625 230.929688 168.519531 231.019531 168.269531 C 232.269531 164.777344 240.167969 139.273438 224.09375 122.570312 C 206.871094 104.667969 179.351562 105.476562 163.289062 115.597656 C 147.230469 125.714844 138.820312 152.007812 153.332031 169.132812 C 167.84375 186.261719 201.5625 186.136719 212.628906 183.546875 C 229.074219 179.707031 230.867188 168.671875 230.867188 168.671875 Z M 230.867188 168.671875 " fill-opacity="1" fill-rule="nonzero"/></g><path fill="#1e1915" d="M 228.386719 168.386719 C 230.835938 163.90625 235.875 138.476562 224.765625 132.335938 C 213.652344 126.195312 183.027344 123.273438 175.773438 130.761719 C 168.523438 138.25 166.105469 165.980469 177.386719 171.824219 C 188.667969 177.667969 220.75 182.339844 228.386719 168.386719 Z M 228.386719 168.386719 " fill-opacity="1" fill-rule="nonzero"/><path fill="#54a3e6" d="M 213.605469 159.507812 C 213.320312 159.386719 210.746094 160.832031 204.171875 159.878906 C 197.855469 158.964844 195.917969 156.261719 195.164062 156.949219 C 194.101562 157.914062 196.511719 168.257812 203.660156 168.671875 C 210.808594 169.085938 215.492188 160.324219 213.605469 159.507812 Z M 213.605469 159.507812 " fill-opacity="1" fill-rule="nonzero"/><path fill="#54a3e6" d="M 147.925781 132.636719 C 148.195312 132.527344 151.847656 130.03125 155.8125 133.332031 C 159.777344 136.632812 161.121094 148.777344 157.347656 155.976562 C 153.574219 163.179688 146.445312 159.566406 146.445312 159.152344 C 146.445312 158.734375 147.925781 132.636719 147.925781 132.636719 Z M 147.925781 132.636719 " fill-opacity="1" fill-rule="nonzero"/><path fill="#f6f6f6" d="M 147.773438 159.53125 C 147.460938 159.527344 147.140625 159.507812 146.816406 159.464844 C 146.230469 159.386719 145.621094 159.246094 144.992188 159.042969 C 144.9375 159.023438 144.878906 159.003906 144.824219 158.988281 C 143.96875 158.699219 143.25 158.183594 142.644531 157.503906 C 139.296875 153.746094 139.472656 144.960938 140.171875 141.515625 C 140.996094 137.453125 143.6875 135.175781 143.6875 135.175781 L 141.144531 117.113281 L 141.074219 116.628906 L 144.941406 115.507812 L 145.121094 116.058594 L 149.988281 130.886719 L 150.269531 131.742188 L 150.519531 132.5 C 150.722656 132.710938 156.625 137.066406 155.578125 147.5625 C 154.722656 156.109375 151.828125 159.558594 147.769531 159.53125 Z M 147.773438 159.53125 " fill-opacity="1" fill-rule="nonzero"/><path fill="#f6f6f6" d="M 144.988281 110.847656 C 145.34375 111.199219 145.617188 111.609375 145.808594 112.074219 C 146 112.539062 146.09375 113.019531 146.09375 113.519531 C 146.09375 114.023438 146 114.503906 145.808594 114.96875 C 145.617188 115.433594 145.34375 115.84375 144.988281 116.195312 C 144.636719 116.550781 144.230469 116.824219 143.765625 117.015625 C 143.304688 117.207031 142.824219 117.304688 142.324219 117.304688 C 141.824219 117.304688 141.34375 117.207031 140.882812 117.015625 C 140.417969 116.824219 140.011719 116.550781 139.660156 116.195312 C 139.304688 115.84375 139.03125 115.433594 138.839844 114.96875 C 138.648438 114.503906 138.554688 114.023438 138.554688 113.519531 C 138.554688 113.019531 138.648438 112.539062 138.839844 112.074219 C 139.03125 111.609375 139.304688 111.199219 139.660156 110.847656 C 140.011719 110.492188 140.417969 110.21875 140.882812 110.027344 C 141.34375 109.835938 141.824219 109.738281 142.324219 109.738281 C 142.824219 109.738281 143.304688 109.835938 143.765625 110.027344 C 144.230469 110.21875 144.636719 110.492188 144.988281 110.847656 Z M 144.988281 110.847656 " fill-opacity="1" fill-rule="nonzero"/><path fill="#54a3e6" d="M 245.832031 179.234375 C 244.746094 180.109375 243.59375 180.984375 242.375 181.835938 C 241.578125 181.039062 240.8125 180.210938 240.074219 179.359375 C 238.359375 177.378906 236.824219 175.234375 235.496094 172.972656 C 234.359375 171.039062 233.347656 169.035156 232.503906 166.960938 C 233.714844 165.957031 234.867188 164.9375 235.945312 163.9375 C 236.664062 165.921875 237.539062 167.847656 238.542969 169.703125 C 238.910156 170.351562 239.289062 170.992188 239.6875 171.625 C 241.222656 174.050781 242.996094 176.316406 244.976562 178.390625 C 244.980469 178.390625 244.984375 178.394531 244.984375 178.394531 C 245.265625 178.679688 245.546875 178.960938 245.832031 179.234375 Z M 245.832031 179.234375 " fill-opacity="1" fill-rule="nonzero"/><path fill="#54a3e6" d="M 136.570312 186.828125 C 135.289062 186.125 134.058594 185.390625 132.886719 184.640625 C 133.222656 184.140625 133.542969 183.628906 133.851562 183.109375 L 133.851562 183.105469 C 134.472656 182.027344 135.046875 180.921875 135.574219 179.796875 C 137.414062 175.859375 138.726562 171.707031 139.886719 167.523438 C 141.039062 168.4375 142.265625 169.363281 143.546875 170.269531 C 142.257812 174.789062 140.753906 179.265625 138.558594 183.425781 C 137.945312 184.585938 137.285156 185.722656 136.570312 186.828125 Z M 136.570312 186.828125 " fill-opacity="1" fill-rule="nonzero"/><path fill="#54a3e6" d="M 228.324219 202.449219 C 227.128906 203.152344 225.914062 203.828125 224.6875 204.476562 C 222.464844 205.65625 220.195312 206.738281 217.882812 207.71875 C 215.566406 208.699219 213.210938 209.578125 210.820312 210.355469 C 208.269531 211.1875 205.679688 211.898438 203.066406 212.507812 C 200.621094 213.078125 198.148438 213.542969 195.664062 213.898438 C 193.164062 214.257812 190.652344 214.503906 188.128906 214.640625 C 185.464844 214.785156 182.792969 214.804688 180.125 214.710938 C 177.449219 214.617188 174.746094 214.457031 172.113281 213.949219 C 171.429688 213.820312 170.75 213.664062 170.074219 213.480469 C 169.425781 211.753906 168.851562 209.996094 168.359375 208.246094 C 169.269531 208.707031 170.226562 209.0625 171.207031 209.347656 C 172.039062 209.5625 172.882812 209.726562 173.730469 209.859375 C 176.679688 210.316406 179.695312 210.457031 182.679688 210.488281 C 184.226562 210.492188 185.773438 210.457031 187.316406 210.378906 C 190.171875 210.234375 193.019531 209.945312 195.84375 209.519531 C 198.574219 209.101562 201.285156 208.558594 203.96875 207.886719 C 205.488281 207.492188 207 207.0625 208.496094 206.589844 C 211.296875 205.703125 214.046875 204.679688 216.742188 203.519531 C 219.371094 202.390625 221.945312 201.128906 224.449219 199.742188 C 225.320312 199.25 226.183594 198.746094 227.039062 198.226562 C 227.183594 198.136719 227.328125 198.050781 227.46875 197.960938 C 227.878906 199.460938 228.160156 200.960938 228.324219 202.449219 Z M 228.324219 202.449219 " fill-opacity="1" fill-rule="nonzero"/><path fill="#54a3e6" d="M 233.6875 234.546875 C 232.601562 233.535156 231.277344 232.476562 229.886719 231.46875 C 229.890625 231.4375 229.898438 231.40625 229.90625 231.375 C 230.808594 227.0625 232.207031 222.847656 234.121094 218.878906 C 235.167969 216.707031 236.355469 214.601562 237.675781 212.582031 C 237.816406 212.652344 237.960938 212.726562 238.101562 212.800781 C 239.390625 213.472656 240.457031 214.148438 241.34375 214.8125 C 240.84375 215.5625 240.363281 216.328125 239.902344 217.101562 C 239.445312 217.890625 239.011719 218.691406 238.597656 219.503906 C 237 222.640625 235.722656 225.933594 234.785156 229.328125 C 234.332031 231.046875 233.964844 232.789062 233.6875 234.546875 Z M 233.6875 234.546875 " fill-opacity="1" fill-rule="nonzero"/><path fill="#54a3e6" d="M 206.425781 242.867188 C 206.289062 242.855469 206.152344 242.847656 206.015625 242.84375 C 204.601562 242.867188 203.183594 243.085938 201.792969 243.316406 C 200.386719 243.546875 198.992188 243.839844 197.609375 244.183594 C 197.601562 244.1875 197.589844 244.191406 197.582031 244.191406 C 196.179688 244.558594 194.789062 244.976562 193.414062 245.4375 C 190.785156 246.324219 188.214844 247.371094 185.695312 248.535156 C 185.398438 248.671875 185.101562 248.8125 184.808594 248.953125 C 184.621094 247.539062 184.46875 245.996094 184.347656 244.421875 C 187.761719 242.855469 191.269531 241.503906 194.878906 240.488281 C 197.597656 239.722656 200.359375 239.117188 203.160156 238.761719 C 203.664062 238.699219 204.171875 238.640625 204.683594 238.601562 C 204.851562 240.78125 204.941406 242.542969 204.941406 242.542969 C 204.941406 242.542969 201.335938 242.890625 204.640625 242.625 C 205.171875 242.582031 205.777344 242.671875 206.425781 242.867188 Z M 206.425781 242.867188 " fill-opacity="1" fill-rule="nonzero"/><path fill="#54a3e6" d="M 207.363281 242.953125 C 207.542969 243.003906 207.71875 243.050781 207.898438 243.101562 C 207.8125 243.078125 207.726562 243.054688 207.636719 243.039062 C 207.546875 243.007812 207.453125 242.980469 207.363281 242.953125 Z M 207.363281 242.953125 " fill-opacity="1" fill-rule="nonzero"/><path fill="#54a3e6" d="M 208.964844 243.828125 C 208.902344 243.769531 208.839844 243.710938 208.777344 243.65625 C 208.648438 243.539062 208.515625 243.433594 208.371094 243.335938 C 208.292969 243.28125 208.210938 243.230469 208.128906 243.179688 C 208.289062 243.273438 208.445312 243.367188 208.605469 243.460938 C 208.589844 243.445312 208.574219 243.429688 208.5625 243.414062 C 208.578125 243.429688 208.59375 243.445312 208.605469 243.460938 C 208.613281 243.464844 208.617188 243.46875 208.625 243.472656 C 208.621094 243.46875 208.613281 243.464844 208.609375 243.464844 C 208.726562 243.585938 208.84375 243.707031 208.964844 243.828125 Z M 208.964844 243.828125 " fill-opacity="1" fill-rule="nonzero"/><path fill="#1e1915" d="M 250.457031 149.972656 C 251.640625 151.835938 252.167969 154.105469 251.957031 156.304688 C 251.898438 156.929688 251.785156 157.546875 251.605469 158.148438 C 251.550781 158.328125 251.605469 158.523438 251.789062 158.601562 C 251.949219 158.667969 252.1875 158.59375 252.242188 158.414062 C 252.921875 156.117188 252.816406 153.621094 251.945312 151.390625 C 251.695312 150.75 251.378906 150.136719 251.011719 149.558594 C 250.773438 149.183594 250.21875 149.597656 250.457031 149.972656 Z M 250.457031 149.972656 " fill-opacity="1" fill-rule="nonzero"/><path fill="#1e1915" d="M 255.632812 149.421875 C 257.261719 149.457031 258.730469 150.1875 260.042969 151.109375 C 260.703125 151.574219 261.332031 152.085938 261.953125 152.605469 C 262.574219 153.121094 263.199219 153.644531 263.746094 154.242188 C 264.335938 154.890625 264.84375 155.640625 265.027344 156.511719 C 265.066406 156.695312 265.214844 156.839844 265.410156 156.816406 C 265.582031 156.792969 265.75 156.613281 265.710938 156.429688 C 265.347656 154.683594 264.011719 153.4375 262.707031 152.335938 C 261.402344 151.230469 260.050781 150.113281 258.480469 149.402344 C 257.613281 149.007812 256.679688 148.753906 255.726562 148.734375 C 255.539062 148.730469 255.363281 148.832031 255.335938 149.03125 C 255.3125 149.199219 255.445312 149.414062 255.632812 149.421875 Z M 255.632812 149.421875 " fill-opacity="1" fill-rule="nonzero"/><path fill="#1e1915" d="M 121.199219 154.25 C 117.519531 154.71875 114.097656 156.753906 111.851562 159.703125 C 111.210938 160.539062 110.671875 161.453125 110.242188 162.414062 C 110.058594 162.820312 110.695312 163.085938 110.878906 162.679688 C 112.320312 159.449219 115.113281 156.894531 118.40625 155.652344 C 119.335938 155.300781 120.296875 155.0625 121.28125 154.9375 C 121.722656 154.878906 121.640625 154.191406 121.199219 154.25 Z M 121.199219 154.25 " fill-opacity="1" fill-rule="nonzero"/><path fill="#1e1915" d="M 123.339844 155.300781 C 122.785156 156.324219 122.828125 157.527344 122.886719 158.652344 C 122.941406 159.773438 123.007812 160.894531 123.285156 161.984375 C 123.441406 162.601562 123.671875 163.183594 123.984375 163.734375 C 124.078125 163.898438 124.332031 163.910156 124.46875 163.808594 C 124.632812 163.6875 124.632812 163.488281 124.539062 163.324219 C 123.882812 162.171875 123.714844 160.816406 123.625 159.515625 C 123.578125 158.847656 123.527344 158.167969 123.542969 157.5 C 123.554688 156.832031 123.652344 156.167969 123.976562 155.570312 C 124.066406 155.40625 123.949219 155.183594 123.792969 155.117188 C 123.605469 155.039062 123.429688 155.136719 123.339844 155.300781 Z M 123.339844 155.300781 " fill-opacity="1" fill-rule="nonzero"/><path fill="#54a3e6" d="M 215.199219 154.144531 C 214.644531 154.050781 214.269531 153.523438 214.363281 152.96875 C 214.390625 152.804688 215.070312 148.902344 217.730469 147.03125 C 218.972656 146.152344 220.421875 145.859375 222.039062 146.152344 C 224.285156 146.5625 226.074219 147.855469 227.21875 149.886719 C 228.074219 151.414062 228.390625 153.046875 228.402344 153.980469 C 228.402344 154.148438 228.394531 154.289062 228.375 154.410156 C 228.28125 154.992188 227.878906 155.273438 227.53125 155.34375 C 226.984375 155.457031 226.445312 155.101562 226.332031 154.550781 C 226.296875 154.363281 226.3125 154.175781 226.371094 154.007812 C 226.367188 153.613281 226.210938 152.375 225.574219 151.128906 C 224.730469 149.476562 223.417969 148.480469 221.675781 148.160156 C 220.601562 147.964844 219.695312 148.140625 218.902344 148.695312 C 216.941406 150.074219 216.375 153.277344 216.371094 153.308594 C 216.277344 153.847656 215.78125 154.214844 215.246094 154.152344 C 215.230469 154.148438 215.214844 154.148438 215.199219 154.144531 Z M 215.199219 154.144531 " fill-opacity="1" fill-rule="nonzero"/><path fill="#54a3e6" d="M 193.078125 152.363281 C 192.496094 152.363281 192.011719 151.90625 191.984375 151.316406 C 191.984375 151.285156 191.785156 147.796875 189.871094 146.078125 C 189.097656 145.386719 188.152344 145.082031 186.984375 145.15625 C 185.082031 145.273438 183.558594 146.167969 182.449219 147.820312 C 181.613281 149.070312 181.289062 150.367188 181.238281 150.789062 C 181.277344 150.976562 181.269531 151.175781 181.207031 151.367188 C 181.019531 151.941406 180.398438 152.253906 179.828125 152.0625 C 179.46875 151.945312 179.074219 151.589844 179.050781 150.960938 C 179.042969 150.828125 179.050781 150.675781 179.074219 150.5 C 179.203125 149.503906 179.75 147.804688 180.855469 146.289062 C 182.332031 144.265625 184.40625 143.117188 186.851562 142.96875 C 188.609375 142.859375 190.117188 143.359375 191.332031 144.453125 C 193.929688 146.792969 194.15625 151.035156 194.167969 151.214844 C 194.195312 151.820312 193.730469 152.332031 193.128906 152.359375 C 193.109375 152.363281 193.09375 152.363281 193.078125 152.363281 Z M 193.078125 152.363281 " fill-opacity="1" fill-rule="nonzero"/><g clip-path="url(#5600f7f46d)"><g clip-path="url(#0e53da52c7)"><g clip-path="url(#e853d804fb)"><g clip-path="url(#d66b522be8)"><path fill="#1f2b5b" d="M 210.824219 189.546875 L 209.726562 187.390625 L 211.117188 186.683594 C 211.117188 186.683594 211.648438 187.683594 211.5 188.269531 C 211.351562 188.859375 210.824219 189.546875 210.824219 189.546875 Z M 210.824219 189.546875 " fill-opacity="1" fill-rule="nonzero"/></g></g></g></g><g clip-path="url(#83c6d848d1)"><g clip-path="url(#d825686de0)"><g clip-path="url(#88e6395ac9)"><g clip-path="url(#29340518ae)"><g clip-path="url(#0e738c33c8)"><path fill="url(#58b5a5a64b)" d="M 206.339844 187.960938 L 209.320312 193.820312 L 214.113281 191.382812 L 211.132812 185.519531 Z M 206.339844 187.960938 " fill-rule="nonzero"/></g></g></g></g></g><g clip-path="url(#d90beedfa5)"><g clip-path="url(#9bd01e4561)"><g clip-path="url(#d16e64ebad)"><g clip-path="url(#547dbb3d2f)"><path fill="#1f2b5b" d="M 213.078125 190.539062 L 214.175781 192.699219 L 212.789062 193.40625 C 212.789062 193.40625 212.253906 192.40625 212.402344 191.816406 C 212.550781 191.230469 213.078125 190.539062 213.078125 190.539062 Z M 213.078125 190.539062 " fill-opacity="1" fill-rule="nonzero"/></g></g></g></g><g clip-path="url(#a6d8e3d479)"><g clip-path="url(#badac72eb1)"><g clip-path="url(#fd79e38f17)"><g clip-path="url(#fbe879e1a5)"><g clip-path="url(#18118bc785)"><path fill="url(#e0425aa7e6)" d="M 217.566406 192.128906 L 214.582031 186.265625 L 209.789062 188.707031 L 212.773438 194.566406 Z M 217.566406 192.128906 " fill-rule="nonzero"/></g></g></g></g></g><g clip-path="url(#d300a81d16)"><path fill="#002d75" d="M 210.441406 101.6875 C 210.441406 102.027344 210.417969 102.359375 210.378906 102.691406 C 209.539062 102.082031 208.636719 101.558594 207.6875 101.136719 C 202.929688 99.023438 197.941406 97.953125 192.863281 97.953125 C 187.78125 97.953125 182.792969 99.023438 178.035156 101.136719 C 177.085938 101.558594 176.183594 102.082031 175.34375 102.691406 C 175.300781 102.359375 175.28125 102.027344 175.28125 101.6875 C 175.28125 97.03125 179.070312 93.246094 183.726562 93.246094 L 201.996094 93.246094 C 206.652344 93.246094 210.441406 97.03125 210.441406 101.6875 Z M 210.441406 101.6875 " fill-opacity="1" fill-rule="nonzero"/></g><path fill="#002d75" d="M 210.101562 104.058594 C 209.238281 103.382812 208.265625 102.785156 207.171875 102.300781 C 202.578125 100.257812 197.761719 99.222656 192.863281 99.222656 C 187.960938 99.222656 183.144531 100.257812 178.550781 102.300781 C 177.457031 102.785156 176.484375 103.382812 175.621094 104.058594 C 175.4375 104.199219 175.261719 104.34375 175.089844 104.496094 C 176.269531 108.136719 179.691406 110.769531 183.726562 110.769531 L 191.011719 110.769531 L 191.011719 109.808594 L 188.703125 109.808594 C 187.765625 109.808594 187.003906 108.980469 187.003906 107.960938 C 187.003906 106.9375 187.765625 106.109375 188.703125 106.109375 L 191.011719 106.109375 L 191.011719 103.800781 C 191.011719 102.863281 191.839844 102.101562 192.859375 102.101562 C 193.882812 102.101562 194.710938 102.863281 194.710938 103.800781 L 194.710938 106.109375 L 197.019531 106.109375 C 197.957031 106.109375 198.71875 106.9375 198.71875 107.960938 C 198.71875 108.980469 197.957031 109.808594 197.019531 109.808594 L 194.710938 109.808594 L 194.710938 110.769531 L 201.996094 110.769531 C 206.035156 110.769531 209.453125 108.136719 210.632812 104.492188 C 210.460938 104.34375 210.285156 104.199219 210.101562 104.058594 Z M 210.101562 104.058594 " fill-opacity="1" fill-rule="nonzero"/><path fill="#ffffff" d="M 210.632812 104.492188 C 210.460938 104.34375 210.285156 104.199219 210.101562 104.058594 C 209.074219 107.5625 205.832031 110.132812 201.996094 110.132812 L 194.710938 110.132812 L 194.710938 111.40625 L 201.996094 111.40625 C 206.207031 111.40625 209.800781 108.710938 211.144531 104.957031 C 210.980469 104.800781 210.808594 104.644531 210.632812 104.492188 Z M 183.726562 110.132812 C 179.890625 110.132812 176.648438 107.5625 175.621094 104.058594 C 175.4375 104.199219 175.261719 104.34375 175.089844 104.496094 C 174.910156 104.644531 174.742188 104.800781 174.578125 104.957031 C 175.921875 108.710938 179.515625 111.40625 183.726562 111.40625 L 191.011719 111.40625 L 191.011719 110.132812 Z M 183.726562 110.132812 " fill-opacity="1" fill-rule="nonzero"/><g clip-path="url(#b3f756d9ad)"><path fill="#002d75" d="M 215.089844 111.589844 C 214.574219 109.507812 213.304688 107.007812 211.144531 104.957031 C 210.980469 104.800781 210.808594 104.644531 210.632812 104.492188 C 210.460938 104.34375 210.285156 104.199219 210.101562 104.058594 C 209.238281 103.382812 208.265625 102.785156 207.171875 102.300781 C 202.578125 100.257812 197.761719 99.222656 192.863281 99.222656 C 187.960938 99.222656 183.144531 100.257812 178.550781 102.300781 C 177.457031 102.785156 176.484375 103.382812 175.621094 104.058594 C 175.4375 104.199219 175.261719 104.34375 175.089844 104.496094 C 174.910156 104.644531 174.742188 104.800781 174.578125 104.957031 C 172.417969 107.007812 171.148438 109.511719 170.632812 111.589844 C 170.015625 114.089844 170.304688 116.347656 171.433594 117.777344 C 172.070312 118.609375 172.792969 119.230469 173.550781 119.691406 C 173.753906 119.722656 174.238281 119.792969 174.90625 119.835938 C 175.285156 119.863281 175.722656 119.878906 176.199219 119.878906 C 178.609375 119.878906 182.058594 119.414062 184.273438 117.089844 C 184.480469 116.871094 184.675781 116.640625 184.859375 116.390625 C 185.066406 116.109375 185.460938 116.046875 185.746094 116.253906 C 186.03125 116.460938 186.089844 116.859375 185.882812 117.144531 C 184.222656 119.410156 181.757812 120.449219 179.445312 120.882812 C 180.832031 120.761719 182.261719 120.402344 183.632812 119.832031 C 186.582031 118.519531 189.691406 117.851562 192.859375 117.851562 C 196.027344 117.851562 199.140625 118.519531 202.105469 119.839844 C 203.824219 120.554688 205.652344 120.933594 207.375 120.933594 C 209.425781 120.933594 212.289062 120.386719 214.285156 117.785156 C 215.417969 116.347656 215.707031 114.089844 215.089844 111.589844 Z M 188.277344 114.828125 C 187.699219 115.40625 186.753906 115.40625 186.171875 114.828125 C 185.589844 114.242188 185.589844 113.300781 186.171875 112.71875 C 186.753906 112.136719 187.699219 112.136719 188.277344 112.71875 C 188.859375 113.300781 188.859375 114.246094 188.277344 114.828125 Z M 194.710938 112.121094 C 194.710938 113.058594 193.882812 113.816406 192.859375 113.816406 C 191.839844 113.816406 191.011719 113.058594 191.011719 112.121094 L 191.011719 109.808594 L 188.703125 109.808594 C 187.765625 109.808594 187.003906 108.980469 187.003906 107.960938 C 187.003906 106.9375 187.765625 106.113281 188.703125 106.113281 L 191.011719 106.113281 L 191.011719 103.800781 C 191.011719 102.863281 191.839844 102.101562 192.859375 102.101562 C 193.882812 102.101562 194.710938 102.863281 194.710938 103.800781 L 194.710938 106.113281 L 197.019531 106.113281 C 197.957031 106.113281 198.71875 106.9375 198.71875 107.960938 C 198.71875 108.980469 197.957031 109.808594 197.019531 109.808594 L 194.710938 109.808594 Z M 194.710938 112.121094 " fill-opacity="1" fill-rule="nonzero"/><path fill="#002d75" d="M 215.089844 111.589844 C 214.574219 109.507812 213.304688 107.007812 211.144531 104.957031 C 210.980469 104.800781 210.808594 104.644531 210.632812 104.492188 C 210.460938 104.34375 210.285156 104.199219 210.101562 104.058594 C 209.238281 103.382812 208.265625 102.785156 207.171875 102.300781 C 202.578125 100.257812 197.761719 99.222656 192.863281 99.222656 C 187.960938 99.222656 183.144531 100.257812 178.550781 102.300781 C 177.457031 102.785156 176.484375 103.382812 175.621094 104.058594 C 175.4375 104.199219 175.261719 104.34375 175.089844 104.496094 C 174.910156 104.644531 174.742188 104.800781 174.578125 104.957031 C 172.417969 107.007812 171.148438 109.511719 170.632812 111.589844 C 170.015625 114.089844 170.304688 116.347656 171.433594 117.777344 C 172.070312 118.609375 172.792969 119.230469 173.550781 119.691406 C 173.753906 119.722656 174.238281 119.792969 174.90625 119.835938 C 175.285156 119.863281 175.722656 119.878906 176.199219 119.878906 C 178.609375 119.878906 182.058594 119.414062 184.273438 117.089844 C 184.480469 116.871094 184.675781 116.640625 184.859375 116.390625 C 185.066406 116.109375 185.460938 116.046875 185.746094 116.253906 C 186.03125 116.460938 186.089844 116.859375 185.882812 117.144531 C 184.222656 119.410156 181.757812 120.449219 179.445312 120.882812 C 180.832031 120.761719 182.261719 120.402344 183.632812 119.832031 C 186.582031 118.519531 189.691406 117.851562 192.859375 117.851562 C 196.027344 117.851562 199.140625 118.519531 202.105469 119.839844 C 203.824219 120.554688 205.652344 120.933594 207.375 120.933594 C 209.425781 120.933594 212.289062 120.386719 214.285156 117.785156 C 215.417969 116.347656 215.707031 114.089844 215.089844 111.589844 Z M 188.277344 114.828125 C 187.699219 115.40625 186.753906 115.40625 186.171875 114.828125 C 185.589844 114.242188 185.589844 113.300781 186.171875 112.71875 C 186.753906 112.136719 187.699219 112.136719 188.277344 112.71875 C 188.859375 113.300781 188.859375 114.246094 188.277344 114.828125 Z M 194.710938 112.121094 C 194.710938 113.058594 193.882812 113.816406 192.859375 113.816406 C 191.839844 113.816406 191.011719 113.058594 191.011719 112.121094 L 191.011719 109.808594 L 188.703125 109.808594 C 187.765625 109.808594 187.003906 108.980469 187.003906 107.960938 C 187.003906 106.9375 187.765625 106.113281 188.703125 106.113281 L 191.011719 106.113281 L 191.011719 103.800781 C 191.011719 102.863281 191.839844 102.101562 192.859375 102.101562 C 193.882812 102.101562 194.710938 102.863281 194.710938 103.800781 L 194.710938 106.113281 L 197.019531 106.113281 C 197.957031 106.113281 198.71875 106.9375 198.71875 107.960938 C 198.71875 108.980469 197.957031 109.808594 197.019531 109.808594 L 194.710938 109.808594 Z M 194.710938 112.121094 " fill-opacity="1" fill-rule="nonzero"/></g><path fill="#002d75" d="M 184.273438 117.089844 C 182.058594 119.414062 178.609375 119.878906 176.199219 119.878906 C 175.71875 119.878906 175.285156 119.863281 174.90625 119.835938 Z M 184.273438 117.089844 " fill-opacity="1" fill-rule="nonzero"/></svg>