<svg xmlns="http://www.w3.org/2000/svg" xmlns:xlink="http://www.w3.org/1999/xlink" width="500" zoomAndPan="magnify" viewBox="0 0 375 374.999991" height="500" preserveAspectRatio="xMidYMid meet" version="1.0"><defs><clipPath id="e8906a01c3"><path d="M 145 112.5 L 238 112.5 L 238 198 L 145 198 Z M 145 112.5 " clip-rule="nonzero"/></clipPath><clipPath id="d267c54259"><path d="M 229 167 L 259.21875 167 L 259.21875 196 L 229 196 Z M 229 167 " clip-rule="nonzero"/></clipPath><clipPath id="4b4a47bb70"><path d="M 160 218 L 180 218 L 180 262.5 L 160 262.5 Z M 160 218 " clip-rule="nonzero"/></clipPath><clipPath id="34ece48a93"><path d="M 115.96875 189 L 142 189 L 142 213 L 115.96875 213 Z M 115.96875 189 " clip-rule="nonzero"/></clipPath><clipPath id="b7d037e8da"><path d="M 199 194 L 202 194 L 202 198 L 199 198 Z M 199 194 " clip-rule="nonzero"/></clipPath><clipPath id="83caaaa576"><path d="M 195.628906 194.019531 L 205.328125 195.023438 L 204.398438 203.976562 L 194.703125 202.972656 Z M 195.628906 194.019531 " clip-rule="nonzero"/></clipPath><clipPath id="561392ea67"><path d="M 195.628906 194.019531 L 205.328125 195.023438 L 204.398438 203.976562 L 194.703125 202.972656 Z M 195.628906 194.019531 " clip-rule="nonzero"/></clipPath><clipPath id="734d60f52a"><path d="M 195.628906 194.019531 L 205.328125 195.023438 L 204.398438 203.976562 L 194.703125 202.972656 Z M 195.628906 194.019531 " clip-rule="nonzero"/></clipPath><clipPath id="3dfecc01df"><path d="M 195 194 L 202 194 L 202 201 L 195 201 Z M 195 194 " clip-rule="nonzero"/></clipPath><clipPath id="dc17edda3a"><path d="M 195.628906 194.019531 L 205.328125 195.023438 L 204.398438 203.976562 L 194.703125 202.972656 Z M 195.628906 194.019531 " clip-rule="nonzero"/></clipPath><clipPath id="c9db993e3b"><path d="M 195.628906 194.019531 L 205.328125 195.023438 L 204.398438 203.976562 L 194.703125 202.972656 Z M 195.628906 194.019531 " clip-rule="nonzero"/></clipPath><clipPath id="e082cb85ab"><path d="M 195.628906 194.019531 L 205.328125 195.023438 L 204.398438 203.976562 L 194.703125 202.972656 Z M 195.628906 194.019531 " clip-rule="nonzero"/></clipPath><clipPath id="0f2999a98d"><path d="M 201.585938 194.769531 C 201.546875 195.164062 201.363281 196.46875 200.585938 197.679688 C 200.34375 198.0625 200.039062 198.433594 199.660156 198.765625 C 198.683594 199.625 197.214844 200.210938 195.011719 199.984375 L 195.242188 197.75 C 196.871094 197.917969 198.078125 197.792969 198.980469 197.511719 C 199.300781 197.414062 199.582031 197.296875 199.828125 197.164062 C 201.28125 196.386719 201.539062 195.15625 201.585938 194.769531 Z M 201.585938 194.769531 " clip-rule="nonzero"/></clipPath><linearGradient x1="-21.570302" gradientTransform="matrix(0.0248157, 0.00257423, -0.00257001, 0.0247749, 195.62923, 194.027825)" y1="122.636002" x2="263.006326" gradientUnits="userSpaceOnUse" y2="122.636002" id="14e5f80814"><stop stop-opacity="1" stop-color="rgb(23.919678%, 74.119568%, 92.549133%)" offset="0"/><stop stop-opacity="1" stop-color="rgb(23.919678%, 74.119568%, 92.549133%)" offset="0.0625"/><stop stop-opacity="1" stop-color="rgb(23.919678%, 74.119568%, 92.549133%)" offset="0.09375"/><stop stop-opacity="1" stop-color="rgb(23.925781%, 74.098206%, 92.555237%)" offset="0.109375"/><stop stop-opacity="1" stop-color="rgb(23.96698%, 73.962402%, 92.593384%)" offset="0.117188"/><stop stop-opacity="1" stop-color="rgb(24.040222%, 73.730469%, 92.657471%)" offset="0.125"/><stop stop-opacity="1" stop-color="rgb(24.111938%, 73.498535%, 92.721558%)" offset="0.132813"/><stop stop-opacity="1" stop-color="rgb(24.183655%, 73.266602%, 92.78717%)" offset="0.140625"/><stop stop-opacity="1" stop-color="rgb(24.256897%, 73.034668%, 92.851257%)" offset="0.148438"/><stop stop-opacity="1" stop-color="rgb(24.328613%, 72.802734%, 92.915344%)" offset="0.15625"/><stop stop-opacity="1" stop-color="rgb(24.40033%, 72.572327%, 92.980957%)" offset="0.164062"/><stop stop-opacity="1" stop-color="rgb(24.473572%, 72.340393%, 93.045044%)" offset="0.171875"/><stop stop-opacity="1" stop-color="rgb(24.545288%, 72.108459%, 93.109131%)" offset="0.179688"/><stop stop-opacity="1" stop-color="rgb(24.617004%, 71.876526%, 93.174744%)" offset="0.1875"/><stop stop-opacity="1" stop-color="rgb(24.688721%, 71.644592%, 93.238831%)" offset="0.195312"/><stop stop-opacity="1" stop-color="rgb(24.761963%, 71.412659%, 93.302917%)" offset="0.203125"/><stop stop-opacity="1" stop-color="rgb(24.833679%, 71.180725%, 93.36853%)" offset="0.210938"/><stop stop-opacity="1" stop-color="rgb(24.905396%, 70.948792%, 93.432617%)" offset="0.21875"/><stop stop-opacity="1" stop-color="rgb(24.978638%, 70.716858%, 93.49823%)" offset="0.226563"/><stop stop-opacity="1" stop-color="rgb(25.050354%, 70.484924%, 93.562317%)" offset="0.234375"/><stop stop-opacity="1" stop-color="rgb(25.12207%, 70.252991%, 93.626404%)" offset="0.242188"/><stop stop-opacity="1" stop-color="rgb(25.195312%, 70.022583%, 93.692017%)" offset="0.25"/><stop stop-opacity="1" stop-color="rgb(25.267029%, 69.790649%, 93.756104%)" offset="0.257813"/><stop stop-opacity="1" stop-color="rgb(25.338745%, 69.558716%, 93.82019%)" offset="0.265625"/><stop stop-opacity="1" stop-color="rgb(25.411987%, 69.326782%, 93.885803%)" offset="0.273438"/><stop stop-opacity="1" stop-color="rgb(25.483704%, 69.094849%, 93.94989%)" offset="0.28125"/><stop stop-opacity="1" stop-color="rgb(25.55542%, 68.862915%, 94.013977%)" offset="0.289063"/><stop stop-opacity="1" stop-color="rgb(25.628662%, 68.630981%, 94.07959%)" offset="0.296875"/><stop stop-opacity="1" stop-color="rgb(25.700378%, 68.399048%, 94.143677%)" offset="0.304688"/><stop stop-opacity="1" stop-color="rgb(25.772095%, 68.167114%, 94.20929%)" offset="0.3125"/><stop stop-opacity="1" stop-color="rgb(25.843811%, 67.935181%, 94.273376%)" offset="0.320313"/><stop stop-opacity="1" stop-color="rgb(25.917053%, 67.703247%, 94.337463%)" offset="0.328125"/><stop stop-opacity="1" stop-color="rgb(25.98877%, 67.472839%, 94.403076%)" offset="0.335938"/><stop stop-opacity="1" stop-color="rgb(26.060486%, 67.240906%, 94.467163%)" offset="0.34375"/><stop stop-opacity="1" stop-color="rgb(26.133728%, 67.008972%, 94.53125%)" offset="0.351563"/><stop stop-opacity="1" stop-color="rgb(26.205444%, 66.777039%, 94.596863%)" offset="0.359375"/><stop stop-opacity="1" stop-color="rgb(26.277161%, 66.545105%, 94.66095%)" offset="0.367188"/><stop stop-opacity="1" stop-color="rgb(26.350403%, 66.313171%, 94.725037%)" offset="0.375"/><stop stop-opacity="1" stop-color="rgb(26.422119%, 66.081238%, 94.790649%)" offset="0.382813"/><stop stop-opacity="1" stop-color="rgb(26.493835%, 65.849304%, 94.854736%)" offset="0.390625"/><stop stop-opacity="1" stop-color="rgb(26.567078%, 65.617371%, 94.918823%)" offset="0.398438"/><stop stop-opacity="1" stop-color="rgb(26.638794%, 65.385437%, 94.984436%)" offset="0.40625"/><stop stop-opacity="1" stop-color="rgb(26.71051%, 65.155029%, 95.048523%)" offset="0.414063"/><stop stop-opacity="1" stop-color="rgb(26.783752%, 64.923096%, 95.114136%)" offset="0.421875"/><stop stop-opacity="1" stop-color="rgb(26.855469%, 64.691162%, 95.178223%)" offset="0.429688"/><stop stop-opacity="1" stop-color="rgb(26.927185%, 64.459229%, 95.24231%)" offset="0.4375"/><stop stop-opacity="1" stop-color="rgb(26.998901%, 64.227295%, 95.307922%)" offset="0.445313"/><stop stop-opacity="1" stop-color="rgb(27.072144%, 63.995361%, 95.372009%)" offset="0.453125"/><stop stop-opacity="1" stop-color="rgb(27.14386%, 63.763428%, 95.436096%)" offset="0.460938"/><stop stop-opacity="1" stop-color="rgb(27.215576%, 63.531494%, 95.501709%)" offset="0.46875"/><stop stop-opacity="1" stop-color="rgb(27.288818%, 63.299561%, 95.565796%)" offset="0.476563"/><stop stop-opacity="1" stop-color="rgb(27.360535%, 63.067627%, 95.629883%)" offset="0.484375"/><stop stop-opacity="1" stop-color="rgb(27.432251%, 62.835693%, 95.695496%)" offset="0.492188"/><stop stop-opacity="1" stop-color="rgb(27.505493%, 62.605286%, 95.759583%)" offset="0.5"/><stop stop-opacity="1" stop-color="rgb(27.577209%, 62.373352%, 95.823669%)" offset="0.507812"/><stop stop-opacity="1" stop-color="rgb(27.648926%, 62.141418%, 95.889282%)" offset="0.515625"/><stop stop-opacity="1" stop-color="rgb(27.722168%, 61.909485%, 95.953369%)" offset="0.523438"/><stop stop-opacity="1" stop-color="rgb(27.793884%, 61.677551%, 96.018982%)" offset="0.53125"/><stop stop-opacity="1" stop-color="rgb(27.865601%, 61.445618%, 96.083069%)" offset="0.539062"/><stop stop-opacity="1" stop-color="rgb(27.938843%, 61.213684%, 96.147156%)" offset="0.546875"/><stop stop-opacity="1" stop-color="rgb(28.010559%, 60.98175%, 96.212769%)" offset="0.554688"/><stop stop-opacity="1" stop-color="rgb(28.082275%, 60.749817%, 96.276855%)" offset="0.5625"/><stop stop-opacity="1" stop-color="rgb(28.153992%, 60.517883%, 96.340942%)" offset="0.570312"/><stop stop-opacity="1" stop-color="rgb(28.227234%, 60.28595%, 96.406555%)" offset="0.578125"/><stop stop-opacity="1" stop-color="rgb(28.29895%, 60.055542%, 96.470642%)" offset="0.585938"/><stop stop-opacity="1" stop-color="rgb(28.370667%, 59.823608%, 96.534729%)" offset="0.59375"/><stop stop-opacity="1" stop-color="rgb(28.443909%, 59.591675%, 96.600342%)" offset="0.601562"/><stop stop-opacity="1" stop-color="rgb(28.515625%, 59.359741%, 96.664429%)" offset="0.609375"/><stop stop-opacity="1" stop-color="rgb(28.587341%, 59.127808%, 96.730042%)" offset="0.617188"/><stop stop-opacity="1" stop-color="rgb(28.660583%, 58.895874%, 96.794128%)" offset="0.625"/><stop stop-opacity="1" stop-color="rgb(28.7323%, 58.66394%, 96.858215%)" offset="0.632812"/><stop stop-opacity="1" stop-color="rgb(28.804016%, 58.432007%, 96.923828%)" offset="0.640625"/><stop stop-opacity="1" stop-color="rgb(28.877258%, 58.200073%, 96.987915%)" offset="0.648438"/><stop stop-opacity="1" stop-color="rgb(28.948975%, 57.96814%, 97.052002%)" offset="0.65625"/><stop stop-opacity="1" stop-color="rgb(29.020691%, 57.736206%, 97.117615%)" offset="0.664062"/><stop stop-opacity="1" stop-color="rgb(29.093933%, 57.505798%, 97.181702%)" offset="0.671875"/><stop stop-opacity="1" stop-color="rgb(29.165649%, 57.273865%, 97.245789%)" offset="0.679688"/><stop stop-opacity="1" stop-color="rgb(29.237366%, 57.041931%, 97.311401%)" offset="0.6875"/><stop stop-opacity="1" stop-color="rgb(29.309082%, 56.809998%, 97.375488%)" offset="0.695312"/><stop stop-opacity="1" stop-color="rgb(29.382324%, 56.578064%, 97.439575%)" offset="0.703125"/><stop stop-opacity="1" stop-color="rgb(29.454041%, 56.34613%, 97.505188%)" offset="0.710938"/><stop stop-opacity="1" stop-color="rgb(29.525757%, 56.114197%, 97.569275%)" offset="0.71875"/><stop stop-opacity="1" stop-color="rgb(29.598999%, 55.882263%, 97.634888%)" offset="0.726562"/><stop stop-opacity="1" stop-color="rgb(29.670715%, 55.65033%, 97.698975%)" offset="0.734375"/><stop stop-opacity="1" stop-color="rgb(29.742432%, 55.418396%, 97.763062%)" offset="0.742188"/><stop stop-opacity="1" stop-color="rgb(29.815674%, 55.186462%, 97.828674%)" offset="0.75"/><stop stop-opacity="1" stop-color="rgb(29.88739%, 54.956055%, 97.892761%)" offset="0.757812"/><stop stop-opacity="1" stop-color="rgb(29.959106%, 54.724121%, 97.956848%)" offset="0.765625"/><stop stop-opacity="1" stop-color="rgb(30.032349%, 54.492188%, 98.022461%)" offset="0.773438"/><stop stop-opacity="1" stop-color="rgb(30.104065%, 54.260254%, 98.086548%)" offset="0.78125"/><stop stop-opacity="1" stop-color="rgb(30.175781%, 54.02832%, 98.150635%)" offset="0.789062"/><stop stop-opacity="1" stop-color="rgb(30.249023%, 53.796387%, 98.216248%)" offset="0.796875"/><stop stop-opacity="1" stop-color="rgb(30.32074%, 53.564453%, 98.280334%)" offset="0.804688"/><stop stop-opacity="1" stop-color="rgb(30.392456%, 53.33252%, 98.344421%)" offset="0.8125"/><stop stop-opacity="1" stop-color="rgb(30.464172%, 53.100586%, 98.410034%)" offset="0.820313"/><stop stop-opacity="1" stop-color="rgb(30.537415%, 52.868652%, 98.474121%)" offset="0.828125"/><stop stop-opacity="1" stop-color="rgb(30.609131%, 52.638245%, 98.539734%)" offset="0.835938"/><stop stop-opacity="1" stop-color="rgb(30.680847%, 52.406311%, 98.603821%)" offset="0.84375"/><stop stop-opacity="1" stop-color="rgb(30.754089%, 52.174377%, 98.667908%)" offset="0.851563"/><stop stop-opacity="1" stop-color="rgb(30.825806%, 51.942444%, 98.733521%)" offset="0.859375"/><stop stop-opacity="1" stop-color="rgb(30.897522%, 51.71051%, 98.797607%)" offset="0.867188"/><stop stop-opacity="1" stop-color="rgb(30.970764%, 51.478577%, 98.861694%)" offset="0.875"/><stop stop-opacity="1" stop-color="rgb(31.04248%, 51.246643%, 98.927307%)" offset="0.882813"/><stop stop-opacity="1" stop-color="rgb(31.114197%, 51.014709%, 98.991394%)" offset="0.890625"/><stop stop-opacity="1" stop-color="rgb(31.187439%, 50.782776%, 99.055481%)" offset="0.898438"/><stop stop-opacity="1" stop-color="rgb(31.259155%, 50.550842%, 99.121094%)" offset="0.90625"/><stop stop-opacity="1" stop-color="rgb(31.332397%, 50.317383%, 99.185181%)" offset="0.9375"/><stop stop-opacity="1" stop-color="rgb(31.369019%, 50.19989%, 99.21875%)" offset="1"/></linearGradient><clipPath id="9f4e23f0b7"><path d="M 198 200 L 202 200 L 202 204 L 198 204 Z M 198 200 " clip-rule="nonzero"/></clipPath><clipPath id="95c1d45879"><path d="M 195.628906 194.019531 L 205.328125 195.023438 L 204.398438 203.976562 L 194.703125 202.972656 Z M 195.628906 194.019531 " clip-rule="nonzero"/></clipPath><clipPath id="18deac952c"><path d="M 195.628906 194.019531 L 205.328125 195.023438 L 204.398438 203.976562 L 194.703125 202.972656 Z M 195.628906 194.019531 " clip-rule="nonzero"/></clipPath><clipPath id="54b1a870f1"><path d="M 195.628906 194.019531 L 205.328125 195.023438 L 204.398438 203.976562 L 194.703125 202.972656 Z M 195.628906 194.019531 " clip-rule="nonzero"/></clipPath><clipPath id="478371eef5"><path d="M 198 197 L 206 197 L 206 204 L 198 204 Z M 198 197 " clip-rule="nonzero"/></clipPath><clipPath id="ba95d0e082"><path d="M 195.628906 194.019531 L 205.328125 195.023438 L 204.398438 203.976562 L 194.703125 202.972656 Z M 195.628906 194.019531 " clip-rule="nonzero"/></clipPath><clipPath id="a7afac894a"><path d="M 195.628906 194.019531 L 205.328125 195.023438 L 204.398438 203.976562 L 194.703125 202.972656 Z M 195.628906 194.019531 " clip-rule="nonzero"/></clipPath><clipPath id="b82b8a09e1"><path d="M 195.628906 194.019531 L 205.328125 195.023438 L 204.398438 203.976562 L 194.703125 202.972656 Z M 195.628906 194.019531 " clip-rule="nonzero"/></clipPath><clipPath id="f726e6802d"><path d="M 198.445312 203.226562 C 198.484375 202.832031 198.664062 201.527344 199.441406 200.316406 C 199.6875 199.933594 199.988281 199.5625 200.367188 199.230469 C 201.34375 198.371094 202.8125 197.78125 205.015625 198.011719 L 204.785156 200.246094 C 203.160156 200.078125 201.949219 200.203125 201.050781 200.480469 C 200.730469 200.582031 200.449219 200.699219 200.199219 200.832031 C 198.75 201.609375 198.488281 202.839844 198.445312 203.226562 Z M 198.445312 203.226562 " clip-rule="nonzero"/></clipPath><linearGradient x1="145.861304" gradientTransform="matrix(-0.0248157, -0.00257423, 0.00257001, -0.0247749, 208.966919, 200.424115)" y1="-37.771" x2="430.447833" gradientUnits="userSpaceOnUse" y2="-37.771" id="ac6d625f55"><stop stop-opacity="1" stop-color="rgb(23.919678%, 74.119568%, 92.549133%)" offset="0"/><stop stop-opacity="1" stop-color="rgb(23.919678%, 74.119568%, 92.549133%)" offset="0.0625"/><stop stop-opacity="1" stop-color="rgb(23.919678%, 74.119568%, 92.549133%)" offset="0.09375"/><stop stop-opacity="1" stop-color="rgb(23.925781%, 74.098206%, 92.553711%)" offset="0.109375"/><stop stop-opacity="1" stop-color="rgb(23.96698%, 73.962402%, 92.591858%)" offset="0.117187"/><stop stop-opacity="1" stop-color="rgb(24.040222%, 73.730469%, 92.657471%)" offset="0.125"/><stop stop-opacity="1" stop-color="rgb(24.111938%, 73.498535%, 92.721558%)" offset="0.132812"/><stop stop-opacity="1" stop-color="rgb(24.183655%, 73.268127%, 92.78717%)" offset="0.140625"/><stop stop-opacity="1" stop-color="rgb(24.256897%, 73.036194%, 92.851257%)" offset="0.148438"/><stop stop-opacity="1" stop-color="rgb(24.328613%, 72.80426%, 92.915344%)" offset="0.15625"/><stop stop-opacity="1" stop-color="rgb(24.40033%, 72.572327%, 92.980957%)" offset="0.164062"/><stop stop-opacity="1" stop-color="rgb(24.472046%, 72.340393%, 93.045044%)" offset="0.171875"/><stop stop-opacity="1" stop-color="rgb(24.545288%, 72.108459%, 93.109131%)" offset="0.179687"/><stop stop-opacity="1" stop-color="rgb(24.617004%, 71.876526%, 93.174744%)" offset="0.1875"/><stop stop-opacity="1" stop-color="rgb(24.688721%, 71.644592%, 93.238831%)" offset="0.195312"/><stop stop-opacity="1" stop-color="rgb(24.761963%, 71.412659%, 93.302917%)" offset="0.203125"/><stop stop-opacity="1" stop-color="rgb(24.833679%, 71.180725%, 93.36853%)" offset="0.210937"/><stop stop-opacity="1" stop-color="rgb(24.905396%, 70.948792%, 93.432617%)" offset="0.21875"/><stop stop-opacity="1" stop-color="rgb(24.978638%, 70.718384%, 93.49823%)" offset="0.226562"/><stop stop-opacity="1" stop-color="rgb(25.050354%, 70.48645%, 93.562317%)" offset="0.234375"/><stop stop-opacity="1" stop-color="rgb(25.12207%, 70.254517%, 93.626404%)" offset="0.242187"/><stop stop-opacity="1" stop-color="rgb(25.195312%, 70.022583%, 93.692017%)" offset="0.25"/><stop stop-opacity="1" stop-color="rgb(25.267029%, 69.790649%, 93.756104%)" offset="0.257812"/><stop stop-opacity="1" stop-color="rgb(25.338745%, 69.558716%, 93.82019%)" offset="0.265625"/><stop stop-opacity="1" stop-color="rgb(25.411987%, 69.326782%, 93.885803%)" offset="0.273438"/><stop stop-opacity="1" stop-color="rgb(25.483704%, 69.094849%, 93.94989%)" offset="0.28125"/><stop stop-opacity="1" stop-color="rgb(25.55542%, 68.862915%, 94.013977%)" offset="0.289062"/><stop stop-opacity="1" stop-color="rgb(25.627136%, 68.630981%, 94.07959%)" offset="0.296875"/><stop stop-opacity="1" stop-color="rgb(25.700378%, 68.399048%, 94.143677%)" offset="0.304687"/><stop stop-opacity="1" stop-color="rgb(25.772095%, 68.167114%, 94.207764%)" offset="0.3125"/><stop stop-opacity="1" stop-color="rgb(25.843811%, 67.936707%, 94.273376%)" offset="0.320312"/><stop stop-opacity="1" stop-color="rgb(25.917053%, 67.704773%, 94.337463%)" offset="0.328125"/><stop stop-opacity="1" stop-color="rgb(25.98877%, 67.472839%, 94.403076%)" offset="0.335938"/><stop stop-opacity="1" stop-color="rgb(26.060486%, 67.240906%, 94.467163%)" offset="0.34375"/><stop stop-opacity="1" stop-color="rgb(26.133728%, 67.008972%, 94.53125%)" offset="0.351562"/><stop stop-opacity="1" stop-color="rgb(26.205444%, 66.777039%, 94.596863%)" offset="0.359375"/><stop stop-opacity="1" stop-color="rgb(26.277161%, 66.545105%, 94.66095%)" offset="0.367188"/><stop stop-opacity="1" stop-color="rgb(26.350403%, 66.313171%, 94.725037%)" offset="0.375"/><stop stop-opacity="1" stop-color="rgb(26.422119%, 66.081238%, 94.790649%)" offset="0.382812"/><stop stop-opacity="1" stop-color="rgb(26.493835%, 65.849304%, 94.854736%)" offset="0.390625"/><stop stop-opacity="1" stop-color="rgb(26.567078%, 65.617371%, 94.918823%)" offset="0.398437"/><stop stop-opacity="1" stop-color="rgb(26.638794%, 65.386963%, 94.984436%)" offset="0.40625"/><stop stop-opacity="1" stop-color="rgb(26.71051%, 65.155029%, 95.048523%)" offset="0.414062"/><stop stop-opacity="1" stop-color="rgb(26.783752%, 64.923096%, 95.114136%)" offset="0.421875"/><stop stop-opacity="1" stop-color="rgb(26.855469%, 64.691162%, 95.178223%)" offset="0.429688"/><stop stop-opacity="1" stop-color="rgb(26.927185%, 64.459229%, 95.24231%)" offset="0.4375"/><stop stop-opacity="1" stop-color="rgb(26.998901%, 64.227295%, 95.307922%)" offset="0.445312"/><stop stop-opacity="1" stop-color="rgb(27.072144%, 63.995361%, 95.372009%)" offset="0.453125"/><stop stop-opacity="1" stop-color="rgb(27.14386%, 63.763428%, 95.436096%)" offset="0.460938"/><stop stop-opacity="1" stop-color="rgb(27.215576%, 63.531494%, 95.501709%)" offset="0.46875"/><stop stop-opacity="1" stop-color="rgb(27.288818%, 63.299561%, 95.565796%)" offset="0.476562"/><stop stop-opacity="1" stop-color="rgb(27.360535%, 63.067627%, 95.629883%)" offset="0.484375"/><stop stop-opacity="1" stop-color="rgb(27.432251%, 62.835693%, 95.695496%)" offset="0.492187"/><stop stop-opacity="1" stop-color="rgb(27.505493%, 62.605286%, 95.759583%)" offset="0.5"/><stop stop-opacity="1" stop-color="rgb(27.577209%, 62.373352%, 95.823669%)" offset="0.507812"/><stop stop-opacity="1" stop-color="rgb(27.648926%, 62.141418%, 95.889282%)" offset="0.515625"/><stop stop-opacity="1" stop-color="rgb(27.722168%, 61.909485%, 95.953369%)" offset="0.523438"/><stop stop-opacity="1" stop-color="rgb(27.793884%, 61.677551%, 96.018982%)" offset="0.53125"/><stop stop-opacity="1" stop-color="rgb(27.865601%, 61.445618%, 96.083069%)" offset="0.539062"/><stop stop-opacity="1" stop-color="rgb(27.938843%, 61.213684%, 96.147156%)" offset="0.546875"/><stop stop-opacity="1" stop-color="rgb(28.010559%, 60.98175%, 96.212769%)" offset="0.554688"/><stop stop-opacity="1" stop-color="rgb(28.082275%, 60.749817%, 96.276855%)" offset="0.5625"/><stop stop-opacity="1" stop-color="rgb(28.153992%, 60.517883%, 96.340942%)" offset="0.570313"/><stop stop-opacity="1" stop-color="rgb(28.227234%, 60.28595%, 96.406555%)" offset="0.578125"/><stop stop-opacity="1" stop-color="rgb(28.29895%, 60.055542%, 96.470642%)" offset="0.585938"/><stop stop-opacity="1" stop-color="rgb(28.370667%, 59.823608%, 96.534729%)" offset="0.59375"/><stop stop-opacity="1" stop-color="rgb(28.443909%, 59.591675%, 96.600342%)" offset="0.601562"/><stop stop-opacity="1" stop-color="rgb(28.515625%, 59.359741%, 96.664429%)" offset="0.609375"/><stop stop-opacity="1" stop-color="rgb(28.587341%, 59.127808%, 96.730042%)" offset="0.617188"/><stop stop-opacity="1" stop-color="rgb(28.660583%, 58.895874%, 96.794128%)" offset="0.625"/><stop stop-opacity="1" stop-color="rgb(28.7323%, 58.66394%, 96.858215%)" offset="0.632812"/><stop stop-opacity="1" stop-color="rgb(28.804016%, 58.432007%, 96.923828%)" offset="0.640625"/><stop stop-opacity="1" stop-color="rgb(28.877258%, 58.200073%, 96.987915%)" offset="0.648438"/><stop stop-opacity="1" stop-color="rgb(28.948975%, 57.96814%, 97.052002%)" offset="0.65625"/><stop stop-opacity="1" stop-color="rgb(29.020691%, 57.736206%, 97.117615%)" offset="0.664063"/><stop stop-opacity="1" stop-color="rgb(29.093933%, 57.504272%, 97.181702%)" offset="0.671875"/><stop stop-opacity="1" stop-color="rgb(29.165649%, 57.273865%, 97.245789%)" offset="0.679688"/><stop stop-opacity="1" stop-color="rgb(29.237366%, 57.041931%, 97.311401%)" offset="0.6875"/><stop stop-opacity="1" stop-color="rgb(29.310608%, 56.809998%, 97.375488%)" offset="0.695312"/><stop stop-opacity="1" stop-color="rgb(29.382324%, 56.578064%, 97.439575%)" offset="0.703125"/><stop stop-opacity="1" stop-color="rgb(29.454041%, 56.34613%, 97.505188%)" offset="0.710938"/><stop stop-opacity="1" stop-color="rgb(29.525757%, 56.114197%, 97.569275%)" offset="0.71875"/><stop stop-opacity="1" stop-color="rgb(29.598999%, 55.882263%, 97.634888%)" offset="0.726562"/><stop stop-opacity="1" stop-color="rgb(29.670715%, 55.65033%, 97.698975%)" offset="0.734375"/><stop stop-opacity="1" stop-color="rgb(29.742432%, 55.418396%, 97.763062%)" offset="0.742187"/><stop stop-opacity="1" stop-color="rgb(29.815674%, 55.186462%, 97.828674%)" offset="0.75"/><stop stop-opacity="1" stop-color="rgb(29.88739%, 54.954529%, 97.892761%)" offset="0.757813"/><stop stop-opacity="1" stop-color="rgb(29.959106%, 54.724121%, 97.956848%)" offset="0.765625"/><stop stop-opacity="1" stop-color="rgb(30.032349%, 54.492188%, 98.022461%)" offset="0.773438"/><stop stop-opacity="1" stop-color="rgb(30.104065%, 54.260254%, 98.086548%)" offset="0.78125"/><stop stop-opacity="1" stop-color="rgb(30.175781%, 54.02832%, 98.150635%)" offset="0.789062"/><stop stop-opacity="1" stop-color="rgb(30.249023%, 53.796387%, 98.216248%)" offset="0.796875"/><stop stop-opacity="1" stop-color="rgb(30.32074%, 53.564453%, 98.280334%)" offset="0.804688"/><stop stop-opacity="1" stop-color="rgb(30.392456%, 53.33252%, 98.345947%)" offset="0.8125"/><stop stop-opacity="1" stop-color="rgb(30.465698%, 53.100586%, 98.410034%)" offset="0.820312"/><stop stop-opacity="1" stop-color="rgb(30.537415%, 52.868652%, 98.474121%)" offset="0.828125"/><stop stop-opacity="1" stop-color="rgb(30.609131%, 52.636719%, 98.539734%)" offset="0.835937"/><stop stop-opacity="1" stop-color="rgb(30.680847%, 52.404785%, 98.603821%)" offset="0.84375"/><stop stop-opacity="1" stop-color="rgb(30.754089%, 52.174377%, 98.667908%)" offset="0.851562"/><stop stop-opacity="1" stop-color="rgb(30.825806%, 51.942444%, 98.733521%)" offset="0.859375"/><stop stop-opacity="1" stop-color="rgb(30.897522%, 51.71051%, 98.797607%)" offset="0.867188"/><stop stop-opacity="1" stop-color="rgb(30.970764%, 51.478577%, 98.861694%)" offset="0.875"/><stop stop-opacity="1" stop-color="rgb(31.04248%, 51.246643%, 98.927307%)" offset="0.882812"/><stop stop-opacity="1" stop-color="rgb(31.114197%, 51.014709%, 98.991394%)" offset="0.890625"/><stop stop-opacity="1" stop-color="rgb(31.187439%, 50.782776%, 99.055481%)" offset="0.898437"/><stop stop-opacity="1" stop-color="rgb(31.259155%, 50.550842%, 99.121094%)" offset="0.90625"/><stop stop-opacity="1" stop-color="rgb(31.332397%, 50.317383%, 99.185181%)" offset="0.9375"/><stop stop-opacity="1" stop-color="rgb(31.369019%, 50.19989%, 99.21875%)" offset="1"/></linearGradient><clipPath id="f83a3ec534"><path d="M 179 97 L 216 97 L 216 110 L 179 110 Z M 179 97 " clip-rule="nonzero"/></clipPath><clipPath id="60f692bf03"><path d="M 175.496094 96.703125 L 221.070312 100.71875 L 218.636719 128.359375 L 173.0625 124.34375 Z M 175.496094 96.703125 " clip-rule="nonzero"/></clipPath><clipPath id="8bdad0ed38"><path d="M 175.496094 96.703125 L 221.070312 100.71875 L 218.636719 128.359375 L 173.0625 124.34375 Z M 175.496094 96.703125 " clip-rule="nonzero"/></clipPath><clipPath id="a20043fc46"><path d="M 179 104 L 215 104 L 215 117 L 179 117 Z M 179 104 " clip-rule="nonzero"/></clipPath><clipPath id="6e0d558870"><path d="M 175.496094 96.703125 L 221.070312 100.71875 L 218.636719 128.359375 L 173.0625 124.34375 Z M 175.496094 96.703125 " clip-rule="nonzero"/></clipPath><clipPath id="762280cbbd"><path d="M 175.496094 96.703125 L 221.070312 100.71875 L 218.636719 128.359375 L 173.0625 124.34375 Z M 175.496094 96.703125 " clip-rule="nonzero"/></clipPath><clipPath id="5b78c9414c"><path d="M 179 107 L 216 107 L 216 118 L 179 118 Z M 179 107 " clip-rule="nonzero"/></clipPath><clipPath id="e7117dcae6"><path d="M 175.496094 96.703125 L 221.070312 100.71875 L 218.636719 128.359375 L 173.0625 124.34375 Z M 175.496094 96.703125 " clip-rule="nonzero"/></clipPath><clipPath id="bc5a64f550"><path d="M 175.496094 96.703125 L 221.070312 100.71875 L 218.636719 128.359375 L 173.0625 124.34375 Z M 175.496094 96.703125 " clip-rule="nonzero"/></clipPath><clipPath id="d0cc485ed6"><path d="M 173 104 L 219 104 L 219 128 L 173 128 Z M 173 104 " clip-rule="nonzero"/></clipPath><clipPath id="b294666f05"><path d="M 175.496094 96.703125 L 221.070312 100.71875 L 218.636719 128.359375 L 173.0625 124.34375 Z M 175.496094 96.703125 " clip-rule="nonzero"/></clipPath><clipPath id="474abba0f7"><path d="M 175.496094 96.703125 L 221.070312 100.71875 L 218.636719 128.359375 L 173.0625 124.34375 Z M 175.496094 96.703125 " clip-rule="nonzero"/></clipPath><clipPath id="d39e27ca5d"><path d="M 178 121 L 188 121 L 188 124 L 178 124 Z M 178 121 " clip-rule="nonzero"/></clipPath><clipPath id="ad501fc1a1"><path d="M 175.496094 96.703125 L 221.070312 100.71875 L 218.636719 128.359375 L 173.0625 124.34375 Z M 175.496094 96.703125 " clip-rule="nonzero"/></clipPath><clipPath id="06cd8754ae"><path d="M 175.496094 96.703125 L 221.070312 100.71875 L 218.636719 128.359375 L 173.0625 124.34375 Z M 175.496094 96.703125 " clip-rule="nonzero"/></clipPath></defs><path fill="#f6f6f6" d="M 206.429688 222.515625 C 205.171875 225.914062 203.417969 228.75 201.105469 230.398438 C 199.34375 231.65625 196.9375 232.558594 194.167969 233.085938 C 189.46875 233.980469 183.722656 233.792969 178.308594 232.414062 C 172.382812 230.90625 166.851562 227.972656 163.519531 223.46875 C 162.816406 222.511719 162.207031 221.488281 161.714844 220.390625 C 160.667969 218.050781 160.199219 215.515625 160.148438 212.917969 C 160.121094 211.488281 160.222656 210.039062 160.417969 208.589844 C 160.875 205.226562 161.867188 201.886719 163.035156 198.847656 C 164.257812 195.664062 165.675781 192.816406 166.878906 190.625 C 167.839844 188.871094 168.664062 187.539062 169.144531 186.789062 C 169.429688 186.34375 169.59375 186.105469 169.59375 186.105469 C 169.59375 186.105469 194.757812 187.585938 203.835938 192.292969 C 205.171875 192.988281 206.160156 193.75 206.667969 194.589844 C 206.84375 194.882812 207.011719 195.207031 207.167969 195.558594 C 208.074219 197.601562 208.65625 200.644531 208.859375 204.113281 C 209.007812 206.589844 208.960938 209.285156 208.699219 211.988281 C 208.5625 213.40625 208.371094 214.832031 208.113281 216.226562 C 207.710938 218.429688 207.152344 220.566406 206.429688 222.515625 Z M 206.429688 222.515625 " fill-opacity="1" fill-rule="nonzero"/><path fill="#f6f6f6" d="M 236.484375 149.621094 C 236.308594 149.59375 240.558594 130.941406 240.558594 130.941406 L 245.015625 131.59375 C 245.015625 131.59375 242.429688 155.007812 241.988281 154.984375 C 241.546875 154.960938 236.484375 149.621094 236.484375 149.621094 Z M 236.484375 149.621094 " fill-opacity="1" fill-rule="nonzero"/><path fill="#f6f6f6" d="M 247.175781 128.019531 C 247.175781 128.285156 247.148438 128.546875 247.097656 128.808594 C 247.046875 129.066406 246.96875 129.320312 246.867188 129.566406 C 246.765625 129.808594 246.644531 130.042969 246.496094 130.261719 C 246.347656 130.480469 246.179688 130.683594 245.992188 130.871094 C 245.804688 131.058594 245.601562 131.226562 245.382812 131.375 C 245.160156 131.519531 244.929688 131.644531 244.683594 131.746094 C 244.4375 131.847656 244.1875 131.925781 243.925781 131.976562 C 243.664062 132.027344 243.402344 132.054688 243.136719 132.054688 C 242.871094 132.054688 242.609375 132.027344 242.351562 131.976562 C 242.089844 131.925781 241.835938 131.847656 241.59375 131.746094 C 241.347656 131.644531 241.113281 131.519531 240.894531 131.375 C 240.675781 131.226562 240.46875 131.058594 240.28125 130.871094 C 240.09375 130.683594 239.929688 130.480469 239.78125 130.261719 C 239.632812 130.042969 239.507812 129.808594 239.40625 129.566406 C 239.304688 129.320312 239.230469 129.066406 239.175781 128.808594 C 239.125 128.546875 239.101562 128.285156 239.101562 128.019531 C 239.101562 127.757812 239.125 127.496094 239.175781 127.234375 C 239.230469 126.976562 239.304688 126.722656 239.40625 126.476562 C 239.507812 126.234375 239.632812 126 239.78125 125.78125 C 239.929688 125.5625 240.09375 125.355469 240.28125 125.167969 C 240.46875 124.984375 240.675781 124.816406 240.894531 124.667969 C 241.113281 124.519531 241.347656 124.398438 241.59375 124.296875 C 241.835938 124.195312 242.089844 124.117188 242.351562 124.066406 C 242.609375 124.015625 242.871094 123.988281 243.136719 123.988281 C 243.402344 123.988281 243.664062 124.015625 243.925781 124.066406 C 244.1875 124.117188 244.4375 124.195312 244.683594 124.296875 C 244.929688 124.398438 245.160156 124.519531 245.382812 124.667969 C 245.601562 124.816406 245.804688 124.984375 245.992188 125.167969 C 246.179688 125.355469 246.347656 125.5625 246.496094 125.78125 C 246.644531 126 246.765625 126.234375 246.867188 126.476562 C 246.96875 126.722656 247.046875 126.976562 247.097656 127.234375 C 247.148438 127.496094 247.175781 127.757812 247.175781 128.019531 Z M 247.175781 128.019531 " fill-opacity="1" fill-rule="nonzero"/><path fill="#54a3e6" d="M 234.605469 177.09375 L 232.734375 176.898438 C 228.371094 176.441406 225.207031 172.535156 225.664062 168.179688 L 227.210938 153.453125 C 227.667969 149.09375 231.578125 145.933594 235.941406 146.390625 L 237.8125 146.585938 C 242.171875 147.042969 245.339844 150.949219 244.882812 155.304688 L 243.332031 170.03125 C 242.875 174.390625 238.96875 177.550781 234.605469 177.09375 Z M 234.605469 177.09375 " fill-opacity="1" fill-rule="nonzero"/><path fill="#f6f6f6" d="M 148.875 139.761719 C 149.050781 139.765625 148.160156 120.65625 148.160156 120.65625 L 143.660156 120.511719 C 143.660156 120.511719 142.066406 144.015625 142.507812 144.070312 C 142.949219 144.125 148.875 139.761719 148.875 139.761719 Z M 148.875 139.761719 " fill-opacity="1" fill-rule="nonzero"/><path fill="#f6f6f6" d="M 150.175781 117.328125 C 150.175781 117.589844 150.152344 117.855469 150.101562 118.113281 C 150.046875 118.371094 149.972656 118.625 149.871094 118.871094 C 149.769531 119.113281 149.644531 119.347656 149.496094 119.566406 C 149.347656 119.789062 149.183594 119.992188 148.996094 120.179688 C 148.808594 120.367188 148.601562 120.53125 148.382812 120.679688 C 148.164062 120.828125 147.929688 120.949219 147.683594 121.050781 C 147.441406 121.152344 147.1875 121.230469 146.925781 121.28125 C 146.667969 121.332031 146.40625 121.359375 146.140625 121.359375 C 145.875 121.359375 145.613281 121.332031 145.351562 121.28125 C 145.089844 121.230469 144.839844 121.152344 144.59375 121.050781 C 144.347656 120.949219 144.117188 120.828125 143.894531 120.679688 C 143.675781 120.53125 143.472656 120.367188 143.285156 120.179688 C 143.097656 119.992188 142.929688 119.789062 142.78125 119.566406 C 142.632812 119.347656 142.511719 119.113281 142.410156 118.871094 C 142.308594 118.625 142.230469 118.371094 142.179688 118.113281 C 142.128906 117.855469 142.101562 117.589844 142.101562 117.328125 C 142.101562 117.0625 142.128906 116.800781 142.179688 116.539062 C 142.230469 116.28125 142.308594 116.027344 142.410156 115.785156 C 142.511719 115.539062 142.632812 115.304688 142.78125 115.085938 C 142.929688 114.867188 143.097656 114.664062 143.285156 114.476562 C 143.472656 114.289062 143.675781 114.121094 143.894531 113.972656 C 144.117188 113.828125 144.347656 113.703125 144.59375 113.601562 C 144.839844 113.5 145.089844 113.421875 145.351562 113.371094 C 145.613281 113.320312 145.875 113.292969 146.140625 113.292969 C 146.40625 113.292969 146.667969 113.320312 146.925781 113.371094 C 147.1875 113.421875 147.441406 113.5 147.683594 113.601562 C 147.929688 113.703125 148.164062 113.828125 148.382812 113.972656 C 148.601562 114.121094 148.808594 114.289062 148.996094 114.476562 C 149.183594 114.664062 149.347656 114.867188 149.496094 115.085938 C 149.644531 115.304688 149.769531 115.539062 149.871094 115.785156 C 149.972656 116.027344 150.046875 116.28125 150.101562 116.539062 C 150.152344 116.800781 150.175781 117.0625 150.175781 117.328125 Z M 150.175781 117.328125 " fill-opacity="1" fill-rule="nonzero"/><path fill="#54a3e6" d="M 145.871094 167.132812 L 147.746094 167.269531 C 152.121094 167.589844 155.925781 164.304688 156.246094 159.933594 L 157.324219 145.164062 C 157.640625 140.792969 154.355469 136.996094 149.976562 136.675781 L 148.105469 136.539062 C 143.726562 136.222656 139.921875 139.503906 139.605469 143.875 L 138.527344 158.644531 C 138.207031 163.015625 141.496094 166.816406 145.871094 167.132812 Z M 145.871094 167.132812 " fill-opacity="1" fill-rule="nonzero"/><g clip-path="url(#e8906a01c3)"><path fill="#f6f6f6" d="M 229.636719 181.816406 C 228.621094 183.097656 227.519531 184.304688 226.335938 185.4375 C 225.816406 185.929688 225.28125 186.410156 224.734375 186.875 C 219.894531 190.972656 213.890625 193.914062 207.167969 195.558594 C 205.695312 195.917969 204.1875 196.21875 202.652344 196.453125 C 198.074219 197.152344 193.234375 197.289062 188.246094 196.820312 C 181.800781 196.21875 175.742188 194.664062 170.335938 192.296875 C 169.148438 191.777344 167.996094 191.21875 166.875 190.625 C 163.566406 188.863281 160.554688 186.769531 157.914062 184.382812 C 149.65625 176.929688 145.003906 166.609375 146.136719 154.535156 C 148.3125 131.328125 160.792969 109.828125 196.136719 112.773438 C 231.679688 115.734375 239.179688 139.832031 237 163.039062 C 236.3125 170.382812 233.691406 176.691406 229.636719 181.816406 Z M 229.636719 181.816406 " fill-opacity="1" fill-rule="nonzero"/></g><path fill="#160e0b" d="M 179.320312 130.074219 C 179.320312 130.074219 163.929688 129.460938 159.421875 142.320312 C 155.171875 154.4375 152.007812 175.304688 175.746094 184.234375 C 199.484375 193.164062 220.128906 186.03125 226.703125 170.636719 C 233.273438 155.246094 229.617188 140.523438 220.75 136.285156 C 208.558594 130.460938 179.320312 130.074219 179.320312 130.074219 Z M 179.320312 130.074219 " fill-opacity="1" fill-rule="nonzero"/><path fill="#54a3e6" d="M 199.710938 164.230469 C 199.332031 166.605469 198.085938 171.324219 196.050781 174.867188 C 194.363281 177.808594 192.136719 179.933594 189.414062 179.234375 C 186.957031 178.605469 185.507812 175.539062 184.757812 172.046875 C 184.007812 168.574219 183.949219 164.679688 184.277344 162.332031 C 184.433594 161.21875 185.472656 160.445312 186.585938 160.625 C 190.527344 161.257812 200.050781 162.125 199.710938 164.230469 Z M 199.710938 164.230469 " fill-opacity="1" fill-rule="nonzero"/><path fill="#54a3e6" d="M 170.308594 158.480469 C 170.308594 158.480469 170.308594 158.480469 170.304688 158.480469 C 170.308594 158.480469 170.308594 158.480469 170.308594 158.480469 Z M 170.308594 158.480469 Z M 169.363281 147.527344 C 169.363281 147.527344 169.367188 147.527344 169.367188 147.527344 C 169.367188 147.527344 169.367188 147.527344 169.363281 147.527344 Z M 169.363281 147.527344 Z M 169.363281 147.527344 " fill-opacity="1" fill-rule="nonzero"/><path fill="#54a3e6" d="M 208.113281 216.226562 C 206.914062 216.503906 205.707031 216.742188 204.492188 216.945312 C 202.339844 217.300781 200.164062 217.527344 197.984375 217.652344 C 195.796875 217.773438 193.605469 217.792969 191.417969 217.742188 C 189.222656 217.6875 187.023438 217.5625 184.832031 217.398438 C 182.480469 217.21875 180.132812 217 177.789062 216.765625 C 175.425781 216.527344 173.0625 216.289062 170.71875 215.925781 C 168.410156 215.566406 166.113281 215.082031 163.890625 214.363281 C 162.617188 213.953125 161.363281 213.476562 160.148438 212.917969 C 160.121094 211.488281 160.21875 210.039062 160.417969 208.589844 C 161.5 209.183594 162.625 209.695312 163.777344 210.132812 C 164.96875 210.5625 166.1875 210.917969 167.417969 211.21875 C 169.933594 211.828125 172.5 212.203125 175.074219 212.496094 C 177.417969 212.765625 179.765625 212.996094 182.117188 213.207031 C 183.742188 213.347656 185.371094 213.476562 187.003906 213.574219 C 189.996094 213.753906 192.996094 213.839844 195.992188 213.746094 C 198.890625 213.65625 201.785156 213.394531 204.644531 212.902344 C 205.59375 212.726562 206.535156 212.527344 207.476562 212.300781 C 207.882812 212.199219 208.292969 212.097656 208.699219 211.988281 C 208.5625 213.410156 208.371094 214.832031 208.113281 216.226562 Z M 208.113281 216.226562 " fill-opacity="1" fill-rule="nonzero"/><path fill="#f6f6f6" d="M 243.617188 195.304688 C 243.3125 195.910156 240.203125 197.839844 235.703125 199.691406 C 235.699219 199.691406 235.699219 199.691406 235.695312 199.691406 C 234.492188 200.1875 233.191406 200.675781 231.816406 201.132812 C 228.1875 202.332031 224.058594 203.308594 219.925781 203.558594 C 215.164062 203.851562 211.53125 204.058594 208.859375 204.113281 C 205.035156 204.195312 203.179688 203.96875 202.824219 203.238281 C 202.429688 202.425781 202.554688 198.902344 202.652344 196.453125 C 202.703125 195.148438 202.746094 194.152344 202.695312 194.023438 C 202.609375 193.796875 203.0625 192.9375 203.835938 192.292969 C 204.285156 191.917969 204.847656 191.617188 205.472656 191.554688 L 206.105469 191.695312 C 206.953125 191.808594 217.226562 189.453125 224.734375 186.875 C 225.339844 186.664062 225.929688 186.457031 226.496094 186.246094 C 227.9375 185.707031 229.214844 185.171875 230.226562 184.652344 C 230.761719 184.375 231.21875 184.109375 231.589844 183.847656 C 231.589844 183.847656 233.09375 183.078125 233.410156 183.152344 C 233.726562 183.222656 236.796875 189.226562 239.4375 191.261719 C 242.078125 193.296875 244.222656 194.113281 243.617188 195.304688 Z M 243.617188 195.304688 " fill-opacity="1" fill-rule="nonzero"/><path fill="#54a3e6" d="M 235.960938 200.015625 C 235.871094 199.90625 235.785156 199.800781 235.695312 199.691406 C 234.492188 200.1875 233.191406 200.675781 231.816406 201.132812 C 231.207031 200.28125 230.664062 199.382812 230.183594 198.445312 C 229.285156 196.679688 228.574219 194.835938 228.027344 192.929688 C 227.46875 190.992188 227.054688 189.011719 226.65625 187.03125 C 226.601562 186.769531 226.550781 186.507812 226.496094 186.246094 C 227.9375 185.707031 229.214844 185.171875 230.226562 184.652344 C 230.59375 186.480469 230.949219 188.308594 231.402344 190.117188 C 231.886719 192.050781 232.476562 193.960938 233.296875 195.78125 C 233.960938 197.164062 234.75 198.484375 235.703125 199.691406 C 235.734375 199.734375 235.769531 199.773438 235.800781 199.816406 C 235.855469 199.882812 235.90625 199.949219 235.960938 200.015625 Z M 235.960938 200.015625 " fill-opacity="1" fill-rule="nonzero"/><g clip-path="url(#d267c54259)"><path fill="#f6f6f6" d="M 234.894531 187.359375 C 234.894531 187.359375 228.59375 179.960938 229.816406 176.035156 C 231.039062 172.105469 234.445312 173.207031 235.964844 174.324219 C 237.480469 175.441406 238.703125 178.371094 238.703125 178.371094 C 238.703125 178.371094 245.574219 168.085938 248.609375 167.886719 C 251.644531 167.6875 251.367188 170.390625 250.773438 172.027344 C 250.183594 173.664062 246.886719 177.457031 246.886719 177.457031 C 246.886719 177.457031 252.453125 170.96875 255.203125 172.035156 C 257.953125 173.097656 257.875 175.402344 256.886719 176.839844 C 255.894531 178.273438 250.6875 182.1875 250.6875 182.1875 C 250.6875 182.1875 256.375 178.605469 258.082031 179.875 C 259.789062 181.144531 259.425781 183.71875 257.933594 184.929688 C 256.441406 186.140625 251.71875 188.394531 251.71875 188.394531 C 251.71875 188.394531 249 194.53125 243.617188 195.304688 C 238.234375 196.082031 234.9375 188.144531 234.777344 186.890625 " fill-opacity="1" fill-rule="nonzero"/></g><g clip-path="url(#4b4a47bb70)"><path fill="#f6f6f6" d="M 176.667969 258.070312 C 173.929688 263.3125 165.371094 263.925781 161.765625 259.789062 C 158.160156 255.65625 163.316406 249.519531 163.316406 249.519531 C 163.316406 249.519531 162.796875 247.472656 162.371094 244.226562 C 162.207031 242.976562 162.058594 241.542969 161.957031 239.984375 C 161.847656 238.28125 161.796875 236.421875 161.847656 234.472656 C 161.972656 230.0625 162.734375 226.230469 163.519531 223.46875 C 164.226562 220.996094 164.949219 219.378906 165.25 218.976562 L 179.171875 228.429688 C 179.171875 228.429688 178.761719 230.070312 178.308594 232.414062 C 177.769531 235.191406 177.167969 238.960938 177.101562 242.171875 C 177.085938 242.894531 177.097656 243.585938 177.144531 244.234375 C 177.191406 244.914062 177.257812 245.550781 177.332031 246.152344 C 177.925781 250.828125 179.09375 253.421875 176.667969 258.066406 Z M 176.667969 258.070312 " fill-opacity="1" fill-rule="nonzero"/></g><path fill="#54a3e6" d="M 177.332031 246.15625 C 177.011719 246.191406 176.6875 246.21875 176.363281 246.238281 C 174.394531 246.347656 172.414062 246.125 170.46875 245.847656 C 168.238281 245.535156 166.023438 245.113281 163.835938 244.589844 C 163.347656 244.472656 162.859375 244.351562 162.371094 244.226562 C 162.207031 242.976562 162.058594 241.542969 161.957031 239.984375 C 163.933594 240.542969 165.9375 241.011719 167.957031 241.398438 C 169.722656 241.734375 171.503906 242.027344 173.292969 242.199219 C 174.558594 242.300781 175.835938 242.324219 177.097656 242.171875 C 177.085938 242.894531 177.097656 243.585938 177.140625 244.234375 C 177.191406 244.914062 177.257812 245.550781 177.332031 246.15625 Z M 177.332031 246.15625 " fill-opacity="1" fill-rule="nonzero"/><path fill="#f6f6f6" d="M 209.421875 253.886719 C 208.996094 255.714844 208.027344 257.167969 206.628906 258.132812 C 206.617188 258.136719 206.609375 258.144531 206.597656 258.152344 C 206.578125 258.164062 206.558594 258.179688 206.535156 258.195312 C 206.390625 258.289062 206.242188 258.382812 206.085938 258.46875 C 206.066406 258.480469 206.046875 258.488281 206.023438 258.5 C 205.960938 258.539062 205.894531 258.570312 205.824219 258.605469 C 205.796875 258.621094 205.765625 258.636719 205.734375 258.652344 C 205.671875 258.679688 205.609375 258.710938 205.542969 258.738281 C 205.511719 258.753906 205.480469 258.769531 205.449219 258.78125 C 205.375 258.8125 205.304688 258.84375 205.230469 258.871094 C 205.210938 258.878906 205.195312 258.886719 205.175781 258.890625 C 205.152344 258.902344 205.132812 258.910156 205.109375 258.917969 C 205.085938 258.925781 205.058594 258.9375 205.035156 258.945312 C 205.003906 258.957031 204.976562 258.964844 204.949219 258.972656 C 204.917969 258.984375 204.882812 258.996094 204.851562 259.007812 C 204.832031 259.015625 204.816406 259.019531 204.796875 259.023438 C 204.765625 259.035156 204.734375 259.046875 204.703125 259.054688 C 204.683594 259.0625 204.664062 259.066406 204.644531 259.074219 C 204.550781 259.101562 204.457031 259.128906 204.359375 259.152344 C 204.332031 259.160156 204.308594 259.167969 204.28125 259.171875 C 204.28125 259.175781 204.277344 259.175781 204.277344 259.175781 C 204.25 259.183594 204.222656 259.1875 204.195312 259.195312 C 204.183594 259.199219 204.167969 259.199219 204.15625 259.203125 C 204.132812 259.210938 204.109375 259.214844 204.085938 259.21875 C 203.855469 259.273438 203.617188 259.316406 203.375 259.347656 C 203.351562 259.351562 203.324219 259.355469 203.296875 259.359375 C 203.285156 259.363281 203.273438 259.363281 203.261719 259.363281 C 203.238281 259.367188 203.214844 259.371094 203.195312 259.371094 C 203.164062 259.375 203.132812 259.378906 203.105469 259.382812 C 203.074219 259.386719 203.042969 259.390625 203.011719 259.390625 C 202.960938 259.398438 202.910156 259.402344 202.863281 259.40625 C 202.796875 259.410156 202.734375 259.414062 202.667969 259.421875 C 202.660156 259.421875 202.65625 259.421875 202.648438 259.421875 C 202.628906 259.421875 202.605469 259.425781 202.585938 259.425781 C 202.535156 259.425781 202.484375 259.429688 202.433594 259.433594 C 202.402344 259.433594 202.371094 259.433594 202.339844 259.433594 C 202.316406 259.4375 202.292969 259.4375 202.273438 259.4375 C 202.234375 259.4375 202.199219 259.4375 202.164062 259.4375 C 202.136719 259.4375 202.109375 259.4375 202.082031 259.4375 C 202.054688 259.441406 202.03125 259.441406 202.003906 259.4375 C 201.816406 259.4375 201.625 259.433594 201.429688 259.421875 C 201.410156 259.421875 201.386719 259.421875 201.367188 259.417969 C 201.335938 259.417969 201.304688 259.414062 201.277344 259.414062 C 201.234375 259.410156 201.191406 259.40625 201.148438 259.402344 C 201.117188 259.402344 201.085938 259.398438 201.058594 259.398438 C 201.03125 259.394531 201.007812 259.390625 200.980469 259.390625 C 200.761719 259.367188 200.542969 259.34375 200.316406 259.308594 C 200.289062 259.304688 200.261719 259.300781 200.234375 259.296875 C 200.183594 259.289062 200.128906 259.28125 200.078125 259.273438 C 200.039062 259.265625 200 259.257812 199.960938 259.253906 C 199.917969 259.246094 199.875 259.238281 199.832031 259.230469 C 199.828125 259.230469 199.828125 259.226562 199.824219 259.226562 C 199.78125 259.21875 199.734375 259.210938 199.691406 259.203125 C 199.644531 259.195312 199.601562 259.183594 199.554688 259.175781 C 199.527344 259.167969 199.496094 259.164062 199.46875 259.15625 C 199.445312 259.152344 199.425781 259.148438 199.402344 259.144531 C 199.046875 259.066406 198.683594 258.972656 198.3125 258.863281 C 191.875 256.964844 183.816406 251.9375 185.742188 247.835938 C 185.777344 247.761719 185.8125 247.6875 185.851562 247.609375 C 185.851562 247.609375 185.855469 247.601562 185.855469 247.597656 C 186.132812 247.035156 186.464844 246.410156 186.84375 245.738281 C 188.007812 243.679688 189.574219 241.203125 191.007812 238.84375 C 191.746094 237.628906 192.445312 236.441406 193.035156 235.359375 C 193.488281 234.53125 193.878906 233.761719 194.167969 233.082031 C 194.28125 232.816406 194.382812 232.5625 194.464844 232.324219 C 195.742188 228.632812 196.242188 223.988281 196.242188 223.988281 C 196.242188 223.988281 198.253906 221.457031 199.722656 221.34375 C 200.230469 221.304688 203.386719 221.183594 206.429688 222.511719 C 207.953125 223.179688 209.449219 224.207031 210.570312 225.785156 C 212.515625 228.535156 210.824219 234.023438 209.03125 238.195312 C 208.351562 239.769531 207.660156 241.160156 207.140625 242.140625 C 206.664062 243.039062 206.335938 243.59375 206.304688 243.632812 C 206.152344 243.816406 209.996094 246.898438 209.648438 252.351562 C 209.613281 252.886719 209.539062 253.398438 209.425781 253.882812 Z M 209.421875 253.886719 " fill-opacity="1" fill-rule="nonzero"/><path fill="#160e0b" d="M 206.9375 251.082031 C 209.1875 253.003906 209.003906 256.558594 206.535156 258.195312 C 204.53125 259.523438 201.679688 259.859375 198.3125 258.863281 C 191.871094 256.96875 183.816406 251.9375 185.742188 247.839844 C 185.777344 247.765625 185.8125 247.6875 185.851562 247.613281 C 186.515625 246.246094 187.832031 245.300781 189.34375 245.128906 C 194.78125 244.507812 202.554688 247.351562 206.9375 251.082031 Z M 206.9375 251.082031 " fill-opacity="1" fill-rule="nonzero"/><g clip-path="url(#34ece48a93)"><path fill="#f6f6f6" d="M 133.378906 189.484375 C 133.539062 189.46875 135.441406 188.675781 137.832031 190.601562 C 140.222656 192.523438 142.503906 201.28125 140.957031 202.976562 C 139.40625 204.675781 137.828125 206.03125 137.859375 208.085938 C 137.894531 210.140625 136.601562 213.390625 134.238281 212.578125 C 131.875 211.769531 132.753906 208.871094 132.277344 207.046875 C 131.804688 205.226562 129.433594 205.90625 127.132812 207.765625 C 124.828125 209.625 122.777344 211.097656 121.144531 210.230469 C 119.511719 209.363281 119.773438 206.988281 121.132812 205.636719 C 122.492188 204.28125 126.875 201.566406 126.875 201.566406 C 126.875 201.566406 121.71875 203.058594 118.570312 204.722656 C 115.421875 206.390625 115.265625 201.210938 117.394531 199.644531 C 119.519531 198.078125 124.957031 196.820312 124.957031 196.820312 C 124.957031 196.820312 120.542969 197.480469 118.890625 197.4375 C 117.238281 197.398438 117.953125 193.742188 119.847656 192.730469 C 121.738281 191.722656 124.859375 193.089844 126.832031 192.207031 C 128.804688 191.328125 132.355469 189.585938 133.378906 189.484375 Z M 133.378906 189.484375 " fill-opacity="1" fill-rule="nonzero"/></g><path fill="#f6f6f6" d="M 170.332031 192.296875 C 169.3125 195.578125 167.984375 199.5625 167.9375 199.78125 C 167.898438 199.941406 165.871094 199.359375 163.035156 198.847656 C 159.363281 198.183594 154.335938 197.644531 150.5 198.996094 C 149.574219 199.320312 148.683594 199.644531 147.835938 199.960938 C 146.261719 200.546875 144.839844 201.109375 143.605469 201.613281 C 142.6875 201.988281 141.871094 202.328125 141.183594 202.621094 C 139.644531 203.28125 138.726562 203.699219 138.625 203.726562 L 128.335938 193.15625 C 128.398438 193.261719 131.015625 191.421875 135.386719 189.390625 C 137.0625 188.613281 139 187.804688 141.144531 187.066406 C 142.378906 186.644531 143.679688 186.246094 145.042969 185.890625 C 146.71875 185.449219 148.488281 185.074219 150.335938 184.796875 C 153.089844 184.382812 155.625 184.28125 157.910156 184.382812 C 163.003906 184.609375 166.859375 185.832031 169.144531 186.789062 C 170.597656 187.398438 171.410156 187.902344 171.496094 187.972656 C 171.613281 188.066406 171.046875 190.011719 170.332031 192.296875 Z M 170.332031 192.296875 " fill-opacity="1" fill-rule="nonzero"/><path fill="#54a3e6" d="M 147.835938 199.960938 C 146.261719 200.546875 144.839844 201.109375 143.605469 201.613281 C 143.71875 200.996094 143.804688 200.375 143.871094 199.753906 C 144.019531 197.800781 143.929688 195.835938 143.609375 193.902344 C 143.253906 192.046875 142.6875 190.238281 141.910156 188.515625 C 141.675781 188.023438 141.414062 187.542969 141.148438 187.066406 C 142.378906 186.644531 143.679688 186.246094 145.042969 185.886719 C 145.695312 187.160156 146.253906 188.480469 146.691406 189.839844 C 147.160156 191.304688 147.476562 192.8125 147.691406 194.332031 C 147.886719 195.707031 147.964844 197.097656 147.917969 198.488281 C 147.902344 198.976562 147.875 199.46875 147.835938 199.960938 Z M 147.835938 199.960938 " fill-opacity="1" fill-rule="nonzero"/><path fill="#54a3e6" d="M 177.820312 242.066406 C 177.648438 242.097656 177.480469 242.128906 177.308594 242.15625 C 177.398438 242.140625 177.484375 242.125 177.570312 242.109375 C 177.652344 242.09375 177.738281 242.082031 177.820312 242.066406 Z M 177.820312 242.066406 " fill-opacity="1" fill-rule="nonzero"/><path fill="#54a3e6" d="M 179.792969 241.394531 C 179.636719 241.46875 179.484375 241.539062 179.328125 241.609375 C 179.40625 241.574219 179.484375 241.539062 179.558594 241.5 C 179.636719 241.464844 179.714844 241.429688 179.792969 241.394531 Z M 179.792969 241.394531 " fill-opacity="1" fill-rule="nonzero"/><path fill="#54a3e6" d="M 209.03125 238.195312 C 208.351562 239.773438 207.65625 241.160156 207.140625 242.140625 C 205.722656 242.070312 204.300781 241.921875 202.898438 241.742188 C 201.109375 241.511719 199.328125 241.195312 197.570312 240.792969 C 195.828125 240.390625 194.109375 239.90625 192.417969 239.339844 C 191.945312 239.179688 191.476562 239.015625 191.007812 238.847656 C 191.742188 237.628906 192.445312 236.445312 193.035156 235.359375 C 193.578125 235.546875 194.125 235.722656 194.671875 235.890625 C 198.226562 236.980469 201.886719 237.703125 205.585938 238.050781 C 205.589844 238.050781 205.597656 238.050781 205.601562 238.054688 C 205.609375 238.054688 205.617188 238.054688 205.628906 238.054688 C 206.753906 238.152344 207.898438 238.230469 209.03125 238.195312 Z M 209.03125 238.195312 " fill-opacity="1" fill-rule="nonzero"/><path fill="#54a3e6" d="M 210.648438 238.050781 C 210.730469 238.039062 210.808594 238.027344 210.890625 238.011719 C 210.71875 238.042969 210.550781 238.074219 210.378906 238.101562 C 210.46875 238.085938 210.558594 238.070312 210.648438 238.050781 Z M 210.648438 238.050781 " fill-opacity="1" fill-rule="nonzero"/><path fill="#54a3e6" d="M 212.457031 237.464844 C 212.304688 237.535156 212.148438 237.609375 211.996094 237.679688 C 212.070312 237.644531 212.140625 237.609375 212.214844 237.570312 C 212.296875 237.539062 212.378906 237.5 212.457031 237.464844 Z M 212.457031 237.464844 " fill-opacity="1" fill-rule="nonzero"/><path fill="#160e0b" d="M 237.351562 178.199219 C 238.492188 179.839844 238.898438 181.847656 238.859375 183.820312 C 238.851562 184.386719 238.800781 184.953125 238.71875 185.515625 C 238.699219 185.664062 238.773438 185.8125 238.929688 185.847656 C 239.066406 185.878906 239.242188 185.785156 239.261719 185.636719 C 239.558594 183.578125 239.476562 181.398438 238.667969 179.457031 C 238.4375 178.910156 238.160156 178.386719 237.820312 177.902344 C 237.617188 177.609375 237.144531 177.902344 237.351562 178.199219 Z M 237.351562 178.199219 " fill-opacity="1" fill-rule="nonzero"/><path fill="#160e0b" d="M 244.976562 180.15625 C 245.453125 179.582031 245.945312 179.027344 246.453125 178.484375 C 246.703125 178.222656 246.957031 177.960938 247.210938 177.707031 C 247.429688 177.492188 247.644531 177.242188 247.949219 177.152344 C 248.292969 177.054688 248.128906 176.523438 247.78125 176.621094 C 247.449219 176.71875 247.191406 176.945312 246.953125 177.183594 C 246.671875 177.457031 246.398438 177.734375 246.128906 178.019531 C 245.589844 178.585938 245.070312 179.171875 244.570312 179.777344 C 244.34375 180.050781 244.75 180.433594 244.976562 180.15625 Z M 244.976562 180.15625 " fill-opacity="1" fill-rule="nonzero"/><path fill="#160e0b" d="M 248.847656 183.929688 C 249.882812 182.871094 251.058594 181.964844 252.347656 181.234375 C 252.660156 181.054688 252.359375 180.585938 252.050781 180.761719 C 250.722656 181.515625 249.507812 182.457031 248.441406 183.550781 C 248.1875 183.804688 248.597656 184.183594 248.847656 183.929688 Z M 248.847656 183.929688 " fill-opacity="1" fill-rule="nonzero"/><path fill="#54a3e6" d="M 183.109375 155.546875 C 182.492188 155.507812 182.007812 154.996094 182.015625 154.371094 C 182.015625 154.335938 182.03125 150.636719 180.105469 148.695312 C 179.328125 147.914062 178.34375 147.53125 177.097656 147.53125 C 175.070312 147.53125 173.394531 148.382812 172.109375 150.058594 C 171.136719 151.324219 170.710938 152.675781 170.628906 153.117188 C 170.660156 153.320312 170.640625 153.527344 170.558594 153.730469 C 170.320312 154.324219 169.644531 154.613281 169.050781 154.375 C 168.675781 154.226562 168.28125 153.828125 168.292969 153.160156 C 168.296875 153.019531 168.316406 152.859375 168.351562 152.671875 C 168.550781 151.628906 169.238281 149.867188 170.515625 148.335938 C 172.210938 146.292969 174.488281 145.210938 177.097656 145.210938 C 178.972656 145.210938 180.542969 145.835938 181.765625 147.070312 C 184.375 149.710938 184.34375 154.214844 184.339844 154.402344 C 184.332031 155.042969 183.804688 155.558594 183.164062 155.546875 C 183.144531 155.546875 183.128906 155.546875 183.109375 155.546875 Z M 169.917969 152.222656 Z M 169.917969 152.222656 Z M 169.914062 152.222656 Z M 169.914062 152.222656 " fill-opacity="1" fill-rule="nonzero"/><path fill="#54a3e6" d="M 202.632812 159.214844 C 202.003906 159.097656 201.585938 158.492188 201.703125 157.863281 C 201.738281 157.675781 202.582031 153.25 205.65625 151.167969 C 207.09375 150.195312 208.753906 149.886719 210.59375 150.25 C 213.152344 150.757812 215.175781 152.257812 216.445312 154.589844 C 217.398438 156.34375 217.730469 158.203125 217.722656 159.265625 C 217.722656 159.457031 217.710938 159.617188 217.6875 159.753906 C 217.566406 160.414062 217.101562 160.726562 216.707031 160.800781 C 216.074219 160.921875 215.46875 160.503906 215.351562 159.875 C 215.308594 159.664062 215.332031 159.453125 215.402344 159.261719 C 215.40625 158.8125 215.25 157.402344 214.542969 155.972656 C 213.609375 154.078125 212.128906 152.921875 210.144531 152.527344 C 208.921875 152.285156 207.882812 152.46875 206.964844 153.085938 C 204.699219 154.613281 203.992188 158.25 203.988281 158.28125 C 203.875 158.894531 203.300781 159.304688 202.6875 159.222656 C 202.667969 159.21875 202.652344 159.21875 202.632812 159.214844 Z M 216.273438 158.523438 Z M 216.273438 158.523438 C 216.273438 158.523438 216.277344 158.523438 216.277344 158.523438 C 216.277344 158.523438 216.273438 158.523438 216.273438 158.523438 Z M 216.277344 158.523438 Z M 216.277344 158.523438 " fill-opacity="1" fill-rule="nonzero"/><path fill="#f6f6f6" d="M 196.050781 174.867188 C 194.363281 177.808594 192.136719 179.933594 189.414062 179.234375 C 186.957031 178.605469 185.507812 175.539062 184.757812 172.046875 C 186.355469 171.691406 188.375 171.644531 190.851562 172.238281 C 193.046875 172.765625 194.746094 173.726562 196.050781 174.867188 Z M 196.050781 174.867188 " fill-opacity="1" fill-rule="nonzero"/><g clip-path="url(#b7d037e8da)"><g clip-path="url(#83caaaa576)"><g clip-path="url(#561392ea67)"><g clip-path="url(#734d60f52a)"><path fill="#1f2b5b" d="M 199.023438 197.621094 L 199.359375 194.414062 L 201.597656 194.648438 C 201.597656 194.648438 201.472656 196.148438 200.835938 196.695312 C 200.203125 197.238281 199.023438 197.621094 199.023438 197.621094 Z M 199.023438 197.621094 " fill-opacity="1" fill-rule="nonzero"/></g></g></g></g><g clip-path="url(#3dfecc01df)"><g clip-path="url(#dc17edda3a)"><g clip-path="url(#c9db993e3b)"><g clip-path="url(#e082cb85ab)"><g clip-path="url(#0f2999a98d)"><path fill="url(#14e5f80814)" d="M 195.082031 194.09375 L 194.453125 200.152344 L 201.515625 200.886719 L 202.144531 194.824219 Z M 195.082031 194.09375 " fill-rule="nonzero"/></g></g></g></g></g><g clip-path="url(#9f4e23f0b7)"><g clip-path="url(#95c1d45879)"><g clip-path="url(#18deac952c)"><g clip-path="url(#54b1a870f1)"><path fill="#1f2b5b" d="M 201.003906 200.375 L 200.671875 203.582031 L 198.429688 203.347656 C 198.429688 203.347656 198.558594 201.84375 199.191406 201.300781 C 199.828125 200.753906 201.003906 200.375 201.003906 200.375 Z M 201.003906 200.375 " fill-opacity="1" fill-rule="nonzero"/></g></g></g></g><g clip-path="url(#478371eef5)"><g clip-path="url(#ba95d0e082)"><g clip-path="url(#a7afac894a)"><g clip-path="url(#b82b8a09e1)"><g clip-path="url(#f726e6802d)"><path fill="url(#ac6d625f55)" d="M 204.949219 203.902344 L 205.578125 197.839844 L 198.515625 197.109375 L 197.886719 203.167969 Z M 204.949219 203.902344 " fill-rule="nonzero"/></g></g></g></g></g><g clip-path="url(#f83a3ec534)"><g clip-path="url(#60f692bf03)"><g clip-path="url(#8bdad0ed38)"><path fill="#002d75" d="M 215.050781 108.65625 C 215.023438 108.996094 214.972656 109.328125 214.902344 109.652344 C 214.117188 108.972656 213.265625 108.371094 212.359375 107.867188 C 207.804688 105.34375 202.929688 103.839844 197.871094 103.394531 C 192.808594 102.949219 187.746094 103.578125 182.820312 105.265625 C 181.835938 105.601562 180.894531 106.042969 180 106.574219 C 179.992188 106.246094 180 105.910156 180.03125 105.574219 C 180.4375 100.933594 184.542969 97.496094 189.179688 97.902344 L 207.382812 99.507812 C 212.019531 99.914062 215.460938 104.019531 215.050781 108.65625 Z M 215.050781 108.65625 " fill-opacity="1" fill-rule="nonzero"/></g></g></g><g clip-path="url(#a20043fc46)"><g clip-path="url(#6e0d558870)"><g clip-path="url(#762280cbbd)"><path fill="#002d75" d="M 214.503906 110.988281 C 213.707031 110.242188 212.789062 109.5625 211.742188 108.980469 C 207.34375 106.542969 202.636719 105.089844 197.757812 104.660156 C 192.875 104.230469 187.988281 104.839844 183.234375 106.46875 C 182.101562 106.855469 181.078125 107.367188 180.160156 107.960938 C 179.964844 108.085938 179.773438 108.21875 179.589844 108.351562 C 180.445312 112.082031 183.625 115.003906 187.644531 115.359375 L 194.902344 116 L 194.984375 115.042969 L 192.683594 114.839844 C 191.75 114.757812 191.066406 113.867188 191.15625 112.847656 C 191.246094 111.832031 192.074219 111.074219 193.011719 111.15625 L 195.3125 111.359375 L 195.511719 109.058594 C 195.597656 108.125 196.488281 107.4375 197.503906 107.527344 C 198.519531 107.617188 199.28125 108.449219 199.199219 109.382812 L 198.996094 111.683594 L 201.296875 111.886719 C 202.230469 111.96875 202.914062 112.859375 202.824219 113.875 C 202.734375 114.894531 201.90625 115.652344 200.96875 115.570312 L 198.671875 115.367188 L 198.585938 116.324219 L 205.84375 116.960938 C 209.863281 117.316406 213.503906 114.996094 215 111.46875 C 214.839844 111.304688 214.675781 111.144531 214.503906 110.988281 Z M 214.503906 110.988281 " fill-opacity="1" fill-rule="nonzero"/></g></g></g><g clip-path="url(#5b78c9414c)"><g clip-path="url(#e7117dcae6)"><g clip-path="url(#bc5a64f550)"><path fill="#ffffff" d="M 215 111.46875 C 214.839844 111.304688 214.675781 111.144531 214.503906 110.988281 C 213.175781 114.390625 209.71875 116.664062 205.898438 116.328125 L 198.640625 115.691406 L 198.53125 116.957031 L 205.789062 117.597656 C 209.980469 117.964844 213.800781 115.597656 215.464844 111.976562 C 215.316406 111.804688 215.160156 111.636719 215 111.46875 Z M 187.699219 114.726562 C 183.878906 114.390625 180.875 111.542969 180.160156 107.960938 C 179.964844 108.085938 179.773438 108.21875 179.589844 108.351562 C 179.402344 108.484375 179.21875 108.625 179.039062 108.765625 C 180.050781 112.625 183.394531 115.621094 187.585938 115.992188 L 194.847656 116.632812 L 194.957031 115.363281 Z M 187.699219 114.726562 " fill-opacity="1" fill-rule="nonzero"/></g></g></g><g clip-path="url(#d0cc485ed6)"><g clip-path="url(#b294666f05)"><g clip-path="url(#474abba0f7)"><path fill="#002d75" d="M 218.8125 118.929688 C 218.484375 116.8125 217.4375 114.210938 215.464844 111.976562 C 215.316406 111.804688 215.160156 111.636719 215 111.46875 C 214.839844 111.304688 214.675781 111.144531 214.503906 110.988281 C 213.707031 110.242188 212.789062 109.5625 211.742188 108.980469 C 207.34375 106.542969 202.636719 105.089844 197.757812 104.660156 C 192.875 104.230469 187.988281 104.839844 183.234375 106.46875 C 182.101562 106.855469 181.078125 107.367188 180.160156 107.964844 C 179.964844 108.085938 179.773438 108.21875 179.589844 108.351562 C 179.402344 108.484375 179.21875 108.625 179.039062 108.765625 C 176.710938 110.621094 175.226562 113 174.527344 115.027344 C 173.695312 117.460938 173.785156 119.738281 174.785156 121.261719 C 175.34375 122.144531 176.011719 122.828125 176.726562 123.351562 C 176.921875 123.402344 177.398438 123.515625 178.0625 123.617188 C 178.4375 123.675781 178.871094 123.734375 179.34375 123.773438 C 181.746094 123.984375 185.222656 123.824219 187.632812 121.703125 C 187.859375 121.503906 188.074219 121.292969 188.277344 121.058594 C 188.507812 120.796875 188.910156 120.769531 189.175781 121 C 189.4375 121.234375 189.464844 121.632812 189.234375 121.898438 C 187.378906 124.011719 184.835938 124.828125 182.492188 125.058594 C 183.882812 125.058594 185.339844 124.824219 186.753906 124.378906 C 189.808594 123.332031 192.964844 122.9375 196.121094 123.21875 C 199.277344 123.496094 202.316406 124.433594 205.15625 126.007812 C 206.808594 126.871094 208.59375 127.410156 210.308594 127.5625 C 212.351562 127.742188 215.25 127.445312 217.46875 125.027344 C 218.722656 123.695312 219.210938 121.476562 218.8125 118.929688 Z M 191.824219 119.800781 C 191.191406 120.328125 190.253906 120.246094 189.726562 119.617188 C 189.195312 118.984375 189.277344 118.042969 189.910156 117.515625 C 190.539062 116.988281 191.480469 117.070312 192.007812 117.699219 C 192.535156 118.332031 192.453125 119.273438 191.824219 119.800781 Z M 198.46875 117.667969 C 198.386719 118.601562 197.492188 119.285156 196.476562 119.195312 C 195.460938 119.105469 194.699219 118.277344 194.785156 117.34375 L 194.984375 115.042969 L 192.683594 114.839844 C 191.75 114.757812 191.066406 113.867188 191.15625 112.847656 C 191.246094 111.832031 192.074219 111.074219 193.011719 111.15625 L 195.3125 111.359375 L 195.511719 109.058594 C 195.59375 108.125 196.488281 107.4375 197.503906 107.527344 C 198.519531 107.617188 199.28125 108.449219 199.195312 109.382812 L 198.996094 111.683594 L 201.292969 111.886719 C 202.230469 111.96875 202.914062 112.859375 202.824219 113.875 C 202.734375 114.894531 201.90625 115.652344 200.96875 115.570312 L 198.667969 115.367188 Z M 198.46875 117.667969 " fill-opacity="1" fill-rule="nonzero"/><path fill="#002d75" d="M 218.8125 118.929688 C 218.484375 116.8125 217.4375 114.210938 215.464844 111.976562 C 215.316406 111.804688 215.160156 111.636719 215 111.46875 C 214.839844 111.304688 214.675781 111.144531 214.503906 110.988281 C 213.707031 110.242188 212.789062 109.5625 211.742188 108.980469 C 207.34375 106.542969 202.636719 105.089844 197.757812 104.660156 C 192.875 104.230469 187.988281 104.839844 183.234375 106.46875 C 182.101562 106.855469 181.078125 107.367188 180.160156 107.964844 C 179.964844 108.085938 179.773438 108.21875 179.589844 108.351562 C 179.402344 108.484375 179.21875 108.625 179.039062 108.765625 C 176.710938 110.621094 175.226562 113 174.527344 115.027344 C 173.695312 117.460938 173.785156 119.738281 174.785156 121.261719 C 175.34375 122.144531 176.011719 122.828125 176.726562 123.351562 C 176.921875 123.402344 177.398438 123.515625 178.0625 123.617188 C 178.4375 123.675781 178.871094 123.734375 179.34375 123.773438 C 181.746094 123.984375 185.222656 123.824219 187.632812 121.703125 C 187.859375 121.503906 188.074219 121.292969 188.277344 121.058594 C 188.507812 120.796875 188.910156 120.769531 189.175781 121 C 189.4375 121.234375 189.464844 121.632812 189.234375 121.898438 C 187.378906 124.011719 184.835938 124.828125 182.492188 125.058594 C 183.882812 125.058594 185.339844 124.824219 186.753906 124.378906 C 189.808594 123.332031 192.964844 122.9375 196.121094 123.21875 C 199.277344 123.496094 202.316406 124.433594 205.15625 126.007812 C 206.808594 126.871094 208.59375 127.410156 210.308594 127.5625 C 212.351562 127.742188 215.25 127.445312 217.46875 125.027344 C 218.722656 123.695312 219.210938 121.476562 218.8125 118.929688 Z M 191.824219 119.800781 C 191.191406 120.328125 190.253906 120.246094 189.726562 119.617188 C 189.195312 118.984375 189.277344 118.042969 189.910156 117.515625 C 190.539062 116.988281 191.480469 117.070312 192.007812 117.699219 C 192.535156 118.332031 192.453125 119.273438 191.824219 119.800781 Z M 198.46875 117.667969 C 198.386719 118.601562 197.492188 119.285156 196.476562 119.195312 C 195.460938 119.105469 194.699219 118.277344 194.785156 117.34375 L 194.984375 115.042969 L 192.683594 114.839844 C 191.75 114.757812 191.066406 113.867188 191.15625 112.847656 C 191.246094 111.832031 192.074219 111.074219 193.011719 111.15625 L 195.3125 111.359375 L 195.511719 109.058594 C 195.59375 108.125 196.488281 107.4375 197.503906 107.527344 C 198.519531 107.617188 199.28125 108.449219 199.195312 109.382812 L 198.996094 111.683594 L 201.292969 111.886719 C 202.230469 111.96875 202.914062 112.859375 202.824219 113.875 C 202.734375 114.894531 201.90625 115.652344 200.96875 115.570312 L 198.667969 115.367188 Z M 198.46875 117.667969 " fill-opacity="1" fill-rule="nonzero"/></g></g></g><g clip-path="url(#d39e27ca5d)"><g clip-path="url(#ad501fc1a1)"><g clip-path="url(#06cd8754ae)"><path fill="#002d75" d="M 187.632812 121.703125 C 185.222656 123.824219 181.746094 123.984375 179.34375 123.773438 C 178.871094 123.734375 178.4375 123.675781 178.0625 123.617188 Z M 187.632812 121.703125 " fill-opacity="1" fill-rule="nonzero"/></g></g></g></svg>