<svg xmlns="http://www.w3.org/2000/svg" xmlns:xlink="http://www.w3.org/1999/xlink" width="500" zoomAndPan="magnify" viewBox="0 0 375 374.999991" height="500" preserveAspectRatio="xMidYMid meet" version="1.0"><defs><clipPath id="9e145fc74c"><path d="M 200 231 L 228 231 L 228 262.5 L 200 262.5 Z M 200 231 " clip-rule="nonzero"/></clipPath><clipPath id="b236c7e203"><path d="M 165 231 L 193 231 L 193 262.5 L 165 262.5 Z M 165 231 " clip-rule="nonzero"/></clipPath><clipPath id="73639feaaf"><path d="M 228 112.5 L 237 112.5 L 237 121 L 228 121 Z M 228 112.5 " clip-rule="nonzero"/></clipPath><clipPath id="351a4f6e8e"><path d="M 223 135 L 243.71875 135 L 243.71875 168 L 223 168 Z M 223 135 " clip-rule="nonzero"/></clipPath><clipPath id="17c6a3b954"><path d="M 131.21875 127 L 140 127 L 140 136 L 131.21875 136 Z M 131.21875 127 " clip-rule="nonzero"/></clipPath><clipPath id="8d7c9efc28"><path d="M 143 112.5 L 237 112.5 L 237 199 L 143 199 Z M 143 112.5 " clip-rule="nonzero"/></clipPath><clipPath id="1cd4e73192"><path d="M 207 201.15625 L 211 201.15625 L 211 205 L 207 205 Z M 207 201.15625 " clip-rule="nonzero"/></clipPath><clipPath id="de828023a8"><path d="M 204.074219 201.15625 L 211 201.15625 L 211 208 L 204.074219 208 Z M 204.074219 201.15625 " clip-rule="nonzero"/></clipPath><clipPath id="40ace8caa8"><path d="M 210.074219 201.285156 C 210.074219 201.683594 210.027344 203 209.378906 204.285156 C 209.175781 204.691406 208.914062 205.09375 208.570312 205.460938 C 207.6875 206.417969 206.289062 207.152344 204.074219 207.152344 L 204.074219 204.90625 C 205.707031 204.90625 206.898438 204.65625 207.765625 204.285156 C 208.074219 204.152344 208.339844 204.007812 208.574219 203.851562 C 209.9375 202.925781 210.066406 201.675781 210.074219 201.285156 Z M 210.074219 201.285156 " clip-rule="nonzero"/></clipPath><linearGradient x1="-0.000388917" gradientTransform="matrix(0.0249488, 0, 0, 0.0249079, 204.07251, 201.165085)" y1="122.636002" x2="240.599617" gradientUnits="userSpaceOnUse" y2="122.636002" id="c31a66a61e"><stop stop-opacity="1" stop-color="rgb(23.919678%, 74.119568%, 92.549133%)" offset="0"/><stop stop-opacity="1" stop-color="rgb(23.919678%, 74.119568%, 92.549133%)" offset="0.03125"/><stop stop-opacity="1" stop-color="rgb(23.953247%, 74.008179%, 92.579651%)" offset="0.046875"/><stop stop-opacity="1" stop-color="rgb(24.01886%, 73.800659%, 92.637634%)" offset="0.0546875"/><stop stop-opacity="1" stop-color="rgb(24.079895%, 73.603821%, 92.692566%)" offset="0.0625"/><stop stop-opacity="1" stop-color="rgb(24.171448%, 73.310852%, 92.774963%)" offset="0.078125"/><stop stop-opacity="1" stop-color="rgb(24.263%, 73.016357%, 92.855835%)" offset="0.0859375"/><stop stop-opacity="1" stop-color="rgb(24.324036%, 72.821045%, 92.910767%)" offset="0.09375"/><stop stop-opacity="1" stop-color="rgb(24.385071%, 72.624207%, 92.965698%)" offset="0.101562"/><stop stop-opacity="1" stop-color="rgb(24.446106%, 72.428894%, 93.02063%)" offset="0.109375"/><stop stop-opacity="1" stop-color="rgb(24.507141%, 72.232056%, 93.075562%)" offset="0.117188"/><stop stop-opacity="1" stop-color="rgb(24.568176%, 72.036743%, 93.128967%)" offset="0.125"/><stop stop-opacity="1" stop-color="rgb(24.629211%, 71.841431%, 93.183899%)" offset="0.132813"/><stop stop-opacity="1" stop-color="rgb(24.690247%, 71.644592%, 93.238831%)" offset="0.140625"/><stop stop-opacity="1" stop-color="rgb(24.751282%, 71.44928%, 93.293762%)" offset="0.148438"/><stop stop-opacity="1" stop-color="rgb(24.812317%, 71.252441%, 93.348694%)" offset="0.15625"/><stop stop-opacity="1" stop-color="rgb(24.873352%, 71.057129%, 93.403625%)" offset="0.164062"/><stop stop-opacity="1" stop-color="rgb(24.934387%, 70.860291%, 93.457031%)" offset="0.171875"/><stop stop-opacity="1" stop-color="rgb(25.02594%, 70.567322%, 93.539429%)" offset="0.1875"/><stop stop-opacity="1" stop-color="rgb(25.117493%, 70.272827%, 93.621826%)" offset="0.195312"/><stop stop-opacity="1" stop-color="rgb(25.178528%, 70.077515%, 93.676758%)" offset="0.203125"/><stop stop-opacity="1" stop-color="rgb(25.239563%, 69.880676%, 93.730164%)" offset="0.210938"/><stop stop-opacity="1" stop-color="rgb(25.300598%, 69.685364%, 93.785095%)" offset="0.21875"/><stop stop-opacity="1" stop-color="rgb(25.361633%, 69.488525%, 93.840027%)" offset="0.226562"/><stop stop-opacity="1" stop-color="rgb(25.422668%, 69.293213%, 93.894958%)" offset="0.234375"/><stop stop-opacity="1" stop-color="rgb(25.483704%, 69.096375%, 93.94989%)" offset="0.242187"/><stop stop-opacity="1" stop-color="rgb(25.544739%, 68.901062%, 94.003296%)" offset="0.25"/><stop stop-opacity="1" stop-color="rgb(25.605774%, 68.70575%, 94.058228%)" offset="0.257812"/><stop stop-opacity="1" stop-color="rgb(25.666809%, 68.508911%, 94.113159%)" offset="0.265625"/><stop stop-opacity="1" stop-color="rgb(25.727844%, 68.313599%, 94.168091%)" offset="0.273438"/><stop stop-opacity="1" stop-color="rgb(25.788879%, 68.11676%, 94.223022%)" offset="0.28125"/><stop stop-opacity="1" stop-color="rgb(25.849915%, 67.921448%, 94.277954%)" offset="0.289062"/><stop stop-opacity="1" stop-color="rgb(25.91095%, 67.724609%, 94.33136%)" offset="0.296875"/><stop stop-opacity="1" stop-color="rgb(26.002502%, 67.431641%, 94.413757%)" offset="0.3125"/><stop stop-opacity="1" stop-color="rgb(26.094055%, 67.137146%, 94.496155%)" offset="0.320313"/><stop stop-opacity="1" stop-color="rgb(26.15509%, 66.941833%, 94.551086%)" offset="0.328125"/><stop stop-opacity="1" stop-color="rgb(26.216125%, 66.744995%, 94.604492%)" offset="0.335937"/><stop stop-opacity="1" stop-color="rgb(26.277161%, 66.549683%, 94.659424%)" offset="0.34375"/><stop stop-opacity="1" stop-color="rgb(26.338196%, 66.352844%, 94.714355%)" offset="0.351562"/><stop stop-opacity="1" stop-color="rgb(26.399231%, 66.157532%, 94.769287%)" offset="0.359375"/><stop stop-opacity="1" stop-color="rgb(26.460266%, 65.962219%, 94.824219%)" offset="0.367188"/><stop stop-opacity="1" stop-color="rgb(26.521301%, 65.765381%, 94.87915%)" offset="0.375"/><stop stop-opacity="1" stop-color="rgb(26.582336%, 65.570068%, 94.932556%)" offset="0.382812"/><stop stop-opacity="1" stop-color="rgb(26.643372%, 65.37323%, 94.987488%)" offset="0.390625"/><stop stop-opacity="1" stop-color="rgb(26.704407%, 65.177917%, 95.042419%)" offset="0.398438"/><stop stop-opacity="1" stop-color="rgb(26.765442%, 64.981079%, 95.097351%)" offset="0.40625"/><stop stop-opacity="1" stop-color="rgb(26.856995%, 64.68811%, 95.178223%)" offset="0.421875"/><stop stop-opacity="1" stop-color="rgb(26.948547%, 64.393616%, 95.26062%)" offset="0.429687"/><stop stop-opacity="1" stop-color="rgb(27.009583%, 64.198303%, 95.315552%)" offset="0.4375"/><stop stop-opacity="1" stop-color="rgb(27.070618%, 64.001465%, 95.370483%)" offset="0.445312"/><stop stop-opacity="1" stop-color="rgb(27.131653%, 63.806152%, 95.425415%)" offset="0.453125"/><stop stop-opacity="1" stop-color="rgb(27.192688%, 63.609314%, 95.478821%)" offset="0.460938"/><stop stop-opacity="1" stop-color="rgb(27.253723%, 63.414001%, 95.533752%)" offset="0.46875"/><stop stop-opacity="1" stop-color="rgb(27.314758%, 63.218689%, 95.588684%)" offset="0.476562"/><stop stop-opacity="1" stop-color="rgb(27.375793%, 63.021851%, 95.643616%)" offset="0.484375"/><stop stop-opacity="1" stop-color="rgb(27.436829%, 62.826538%, 95.698547%)" offset="0.492188"/><stop stop-opacity="1" stop-color="rgb(27.497864%, 62.6297%, 95.753479%)" offset="0.5"/><stop stop-opacity="1" stop-color="rgb(27.558899%, 62.434387%, 95.806885%)" offset="0.507812"/><stop stop-opacity="1" stop-color="rgb(27.619934%, 62.237549%, 95.861816%)" offset="0.515625"/><stop stop-opacity="1" stop-color="rgb(27.680969%, 62.042236%, 95.916748%)" offset="0.523438"/><stop stop-opacity="1" stop-color="rgb(27.742004%, 61.845398%, 95.97168%)" offset="0.53125"/><stop stop-opacity="1" stop-color="rgb(27.833557%, 61.552429%, 96.052551%)" offset="0.546875"/><stop stop-opacity="1" stop-color="rgb(27.92511%, 61.257935%, 96.134949%)" offset="0.554688"/><stop stop-opacity="1" stop-color="rgb(27.986145%, 61.062622%, 96.18988%)" offset="0.5625"/><stop stop-opacity="1" stop-color="rgb(28.04718%, 60.865784%, 96.244812%)" offset="0.570312"/><stop stop-opacity="1" stop-color="rgb(28.108215%, 60.670471%, 96.299744%)" offset="0.578125"/><stop stop-opacity="1" stop-color="rgb(28.16925%, 60.473633%, 96.353149%)" offset="0.585938"/><stop stop-opacity="1" stop-color="rgb(28.230286%, 60.27832%, 96.408081%)" offset="0.59375"/><stop stop-opacity="1" stop-color="rgb(28.291321%, 60.083008%, 96.463013%)" offset="0.601562"/><stop stop-opacity="1" stop-color="rgb(28.352356%, 59.886169%, 96.517944%)" offset="0.609375"/><stop stop-opacity="1" stop-color="rgb(28.413391%, 59.690857%, 96.572876%)" offset="0.617188"/><stop stop-opacity="1" stop-color="rgb(28.474426%, 59.494019%, 96.627808%)" offset="0.625"/><stop stop-opacity="1" stop-color="rgb(28.535461%, 59.298706%, 96.681213%)" offset="0.632813"/><stop stop-opacity="1" stop-color="rgb(28.596497%, 59.101868%, 96.736145%)" offset="0.640625"/><stop stop-opacity="1" stop-color="rgb(28.688049%, 58.808899%, 96.818542%)" offset="0.65625"/><stop stop-opacity="1" stop-color="rgb(28.779602%, 58.514404%, 96.90094%)" offset="0.664062"/><stop stop-opacity="1" stop-color="rgb(28.840637%, 58.319092%, 96.954346%)" offset="0.671875"/><stop stop-opacity="1" stop-color="rgb(28.901672%, 58.122253%, 97.009277%)" offset="0.679688"/><stop stop-opacity="1" stop-color="rgb(28.962708%, 57.926941%, 97.064209%)" offset="0.6875"/><stop stop-opacity="1" stop-color="rgb(29.023743%, 57.730103%, 97.119141%)" offset="0.695312"/><stop stop-opacity="1" stop-color="rgb(29.084778%, 57.53479%, 97.174072%)" offset="0.703125"/><stop stop-opacity="1" stop-color="rgb(29.145813%, 57.339478%, 97.227478%)" offset="0.710938"/><stop stop-opacity="1" stop-color="rgb(29.206848%, 57.142639%, 97.28241%)" offset="0.71875"/><stop stop-opacity="1" stop-color="rgb(29.267883%, 56.947327%, 97.337341%)" offset="0.726563"/><stop stop-opacity="1" stop-color="rgb(29.328918%, 56.750488%, 97.392273%)" offset="0.734375"/><stop stop-opacity="1" stop-color="rgb(29.389954%, 56.555176%, 97.447205%)" offset="0.742188"/><stop stop-opacity="1" stop-color="rgb(29.450989%, 56.358337%, 97.502136%)" offset="0.75"/><stop stop-opacity="1" stop-color="rgb(29.542542%, 56.065369%, 97.583008%)" offset="0.765625"/><stop stop-opacity="1" stop-color="rgb(29.634094%, 55.770874%, 97.665405%)" offset="0.773437"/><stop stop-opacity="1" stop-color="rgb(29.695129%, 55.575562%, 97.720337%)" offset="0.78125"/><stop stop-opacity="1" stop-color="rgb(29.756165%, 55.378723%, 97.775269%)" offset="0.789062"/><stop stop-opacity="1" stop-color="rgb(29.8172%, 55.183411%, 97.828674%)" offset="0.796875"/><stop stop-opacity="1" stop-color="rgb(29.878235%, 54.986572%, 97.883606%)" offset="0.804688"/><stop stop-opacity="1" stop-color="rgb(29.93927%, 54.79126%, 97.938538%)" offset="0.8125"/><stop stop-opacity="1" stop-color="rgb(30.000305%, 54.594421%, 97.993469%)" offset="0.820312"/><stop stop-opacity="1" stop-color="rgb(30.06134%, 54.399109%, 98.048401%)" offset="0.828125"/><stop stop-opacity="1" stop-color="rgb(30.122375%, 54.203796%, 98.101807%)" offset="0.835938"/><stop stop-opacity="1" stop-color="rgb(30.183411%, 54.006958%, 98.156738%)" offset="0.84375"/><stop stop-opacity="1" stop-color="rgb(30.244446%, 53.811646%, 98.21167%)" offset="0.851562"/><stop stop-opacity="1" stop-color="rgb(30.305481%, 53.614807%, 98.266602%)" offset="0.859375"/><stop stop-opacity="1" stop-color="rgb(30.366516%, 53.419495%, 98.321533%)" offset="0.867187"/><stop stop-opacity="1" stop-color="rgb(30.427551%, 53.222656%, 98.376465%)" offset="0.875"/><stop stop-opacity="1" stop-color="rgb(30.519104%, 52.929688%, 98.457336%)" offset="0.890625"/><stop stop-opacity="1" stop-color="rgb(30.610657%, 52.635193%, 98.539734%)" offset="0.898438"/><stop stop-opacity="1" stop-color="rgb(30.671692%, 52.43988%, 98.594666%)" offset="0.90625"/><stop stop-opacity="1" stop-color="rgb(30.732727%, 52.243042%, 98.649597%)" offset="0.914062"/><stop stop-opacity="1" stop-color="rgb(30.793762%, 52.047729%, 98.703003%)" offset="0.921875"/><stop stop-opacity="1" stop-color="rgb(30.854797%, 51.850891%, 98.757935%)" offset="0.929688"/><stop stop-opacity="1" stop-color="rgb(30.915833%, 51.655579%, 98.812866%)" offset="0.9375"/><stop stop-opacity="1" stop-color="rgb(30.976868%, 51.460266%, 98.867798%)" offset="0.945312"/><stop stop-opacity="1" stop-color="rgb(31.037903%, 51.263428%, 98.922729%)" offset="0.953125"/><stop stop-opacity="1" stop-color="rgb(31.098938%, 51.068115%, 98.976135%)" offset="0.960938"/><stop stop-opacity="1" stop-color="rgb(31.159973%, 50.871277%, 99.031067%)" offset="0.96875"/><stop stop-opacity="1" stop-color="rgb(31.221008%, 50.675964%, 99.085999%)" offset="0.976562"/><stop stop-opacity="1" stop-color="rgb(31.282043%, 50.479126%, 99.14093%)" offset="0.984375"/><stop stop-opacity="1" stop-color="rgb(31.340027%, 50.289917%, 99.19281%)" offset="1"/></linearGradient><clipPath id="6e31fdaa26"><path d="M 207 206 L 211 206 L 211 210.15625 L 207 210.15625 Z M 207 206 " clip-rule="nonzero"/></clipPath><clipPath id="7d3ef68fd2"><path d="M 207 204 L 213.824219 204 L 213.824219 210.15625 L 207 210.15625 Z M 207 204 " clip-rule="nonzero"/></clipPath><clipPath id="1d14cca209"><path d="M 207.820312 210.023438 C 207.820312 209.625 207.867188 208.308594 208.511719 207.023438 C 208.71875 206.621094 208.980469 206.21875 209.320312 205.851562 C 210.203125 204.894531 211.605469 204.160156 213.820312 204.160156 L 213.820312 206.402344 C 212.1875 206.402344 210.996094 206.652344 210.128906 207.023438 C 209.820312 207.15625 209.554688 207.304688 209.320312 207.460938 C 207.957031 208.382812 207.828125 209.636719 207.820312 210.023438 Z M 207.820312 210.023438 " clip-rule="nonzero"/></clipPath><linearGradient x1="167.432237" gradientTransform="matrix(-0.0249488, 0, 0, -0.0249079, 217.998989, 206.151045)" y1="-37.771" x2="408.042249" gradientUnits="userSpaceOnUse" y2="-37.771" id="83cc621d3a"><stop stop-opacity="1" stop-color="rgb(23.919678%, 74.119568%, 92.549133%)" offset="0"/><stop stop-opacity="1" stop-color="rgb(23.919678%, 74.119568%, 92.549133%)" offset="0.03125"/><stop stop-opacity="1" stop-color="rgb(23.953247%, 74.009705%, 92.579651%)" offset="0.046875"/><stop stop-opacity="1" stop-color="rgb(24.01886%, 73.800659%, 92.637634%)" offset="0.0546875"/><stop stop-opacity="1" stop-color="rgb(24.079895%, 73.605347%, 92.692566%)" offset="0.0625"/><stop stop-opacity="1" stop-color="rgb(24.14093%, 73.408508%, 92.747498%)" offset="0.0703125"/><stop stop-opacity="1" stop-color="rgb(24.201965%, 73.213196%, 92.802429%)" offset="0.078125"/><stop stop-opacity="1" stop-color="rgb(24.263%, 73.016357%, 92.855835%)" offset="0.0859375"/><stop stop-opacity="1" stop-color="rgb(24.324036%, 72.821045%, 92.910767%)" offset="0.09375"/><stop stop-opacity="1" stop-color="rgb(24.385071%, 72.624207%, 92.965698%)" offset="0.101563"/><stop stop-opacity="1" stop-color="rgb(24.446106%, 72.428894%, 93.02063%)" offset="0.109375"/><stop stop-opacity="1" stop-color="rgb(24.507141%, 72.233582%, 93.075562%)" offset="0.117188"/><stop stop-opacity="1" stop-color="rgb(24.568176%, 72.036743%, 93.128967%)" offset="0.125"/><stop stop-opacity="1" stop-color="rgb(24.629211%, 71.841431%, 93.183899%)" offset="0.132812"/><stop stop-opacity="1" stop-color="rgb(24.690247%, 71.644592%, 93.238831%)" offset="0.140625"/><stop stop-opacity="1" stop-color="rgb(24.751282%, 71.44928%, 93.293762%)" offset="0.148438"/><stop stop-opacity="1" stop-color="rgb(24.812317%, 71.252441%, 93.348694%)" offset="0.15625"/><stop stop-opacity="1" stop-color="rgb(24.90387%, 70.959473%, 93.429565%)" offset="0.171875"/><stop stop-opacity="1" stop-color="rgb(24.995422%, 70.664978%, 93.511963%)" offset="0.179688"/><stop stop-opacity="1" stop-color="rgb(25.056458%, 70.469666%, 93.566895%)" offset="0.1875"/><stop stop-opacity="1" stop-color="rgb(25.117493%, 70.272827%, 93.621826%)" offset="0.195313"/><stop stop-opacity="1" stop-color="rgb(25.178528%, 70.077515%, 93.676758%)" offset="0.203125"/><stop stop-opacity="1" stop-color="rgb(25.239563%, 69.880676%, 93.730164%)" offset="0.210938"/><stop stop-opacity="1" stop-color="rgb(25.300598%, 69.685364%, 93.785095%)" offset="0.21875"/><stop stop-opacity="1" stop-color="rgb(25.361633%, 69.488525%, 93.840027%)" offset="0.226563"/><stop stop-opacity="1" stop-color="rgb(25.422668%, 69.293213%, 93.894958%)" offset="0.234375"/><stop stop-opacity="1" stop-color="rgb(25.483704%, 69.0979%, 93.94989%)" offset="0.242188"/><stop stop-opacity="1" stop-color="rgb(25.544739%, 68.901062%, 94.003296%)" offset="0.25"/><stop stop-opacity="1" stop-color="rgb(25.605774%, 68.70575%, 94.058228%)" offset="0.257812"/><stop stop-opacity="1" stop-color="rgb(25.666809%, 68.508911%, 94.113159%)" offset="0.265625"/><stop stop-opacity="1" stop-color="rgb(25.727844%, 68.313599%, 94.168091%)" offset="0.273438"/><stop stop-opacity="1" stop-color="rgb(25.788879%, 68.11676%, 94.223022%)" offset="0.28125"/><stop stop-opacity="1" stop-color="rgb(25.880432%, 67.823792%, 94.303894%)" offset="0.296875"/><stop stop-opacity="1" stop-color="rgb(25.971985%, 67.529297%, 94.386292%)" offset="0.304688"/><stop stop-opacity="1" stop-color="rgb(26.03302%, 67.333984%, 94.441223%)" offset="0.3125"/><stop stop-opacity="1" stop-color="rgb(26.094055%, 67.137146%, 94.496155%)" offset="0.320312"/><stop stop-opacity="1" stop-color="rgb(26.15509%, 66.941833%, 94.551086%)" offset="0.328125"/><stop stop-opacity="1" stop-color="rgb(26.216125%, 66.744995%, 94.604492%)" offset="0.335938"/><stop stop-opacity="1" stop-color="rgb(26.277161%, 66.549683%, 94.659424%)" offset="0.34375"/><stop stop-opacity="1" stop-color="rgb(26.338196%, 66.352844%, 94.714355%)" offset="0.351562"/><stop stop-opacity="1" stop-color="rgb(26.399231%, 66.157532%, 94.769287%)" offset="0.359375"/><stop stop-opacity="1" stop-color="rgb(26.460266%, 65.962219%, 94.824219%)" offset="0.367188"/><stop stop-opacity="1" stop-color="rgb(26.521301%, 65.765381%, 94.877625%)" offset="0.375"/><stop stop-opacity="1" stop-color="rgb(26.582336%, 65.570068%, 94.932556%)" offset="0.382813"/><stop stop-opacity="1" stop-color="rgb(26.643372%, 65.37323%, 94.987488%)" offset="0.390625"/><stop stop-opacity="1" stop-color="rgb(26.704407%, 65.177917%, 95.042419%)" offset="0.398438"/><stop stop-opacity="1" stop-color="rgb(26.765442%, 64.981079%, 95.097351%)" offset="0.40625"/><stop stop-opacity="1" stop-color="rgb(26.856995%, 64.68811%, 95.178223%)" offset="0.421875"/><stop stop-opacity="1" stop-color="rgb(26.948547%, 64.393616%, 95.26062%)" offset="0.429688"/><stop stop-opacity="1" stop-color="rgb(27.009583%, 64.198303%, 95.315552%)" offset="0.4375"/><stop stop-opacity="1" stop-color="rgb(27.070618%, 64.001465%, 95.370483%)" offset="0.445313"/><stop stop-opacity="1" stop-color="rgb(27.131653%, 63.806152%, 95.425415%)" offset="0.453125"/><stop stop-opacity="1" stop-color="rgb(27.192688%, 63.609314%, 95.478821%)" offset="0.460938"/><stop stop-opacity="1" stop-color="rgb(27.253723%, 63.414001%, 95.533752%)" offset="0.46875"/><stop stop-opacity="1" stop-color="rgb(27.314758%, 63.217163%, 95.588684%)" offset="0.476563"/><stop stop-opacity="1" stop-color="rgb(27.375793%, 63.021851%, 95.643616%)" offset="0.484375"/><stop stop-opacity="1" stop-color="rgb(27.436829%, 62.826538%, 95.698547%)" offset="0.492188"/><stop stop-opacity="1" stop-color="rgb(27.497864%, 62.6297%, 95.753479%)" offset="0.5"/><stop stop-opacity="1" stop-color="rgb(27.558899%, 62.434387%, 95.806885%)" offset="0.507812"/><stop stop-opacity="1" stop-color="rgb(27.619934%, 62.237549%, 95.861816%)" offset="0.515625"/><stop stop-opacity="1" stop-color="rgb(27.680969%, 62.042236%, 95.916748%)" offset="0.523438"/><stop stop-opacity="1" stop-color="rgb(27.742004%, 61.845398%, 95.97168%)" offset="0.53125"/><stop stop-opacity="1" stop-color="rgb(27.833557%, 61.552429%, 96.052551%)" offset="0.546875"/><stop stop-opacity="1" stop-color="rgb(27.92511%, 61.257935%, 96.134949%)" offset="0.554688"/><stop stop-opacity="1" stop-color="rgb(27.986145%, 61.062622%, 96.18988%)" offset="0.5625"/><stop stop-opacity="1" stop-color="rgb(28.04718%, 60.865784%, 96.244812%)" offset="0.570313"/><stop stop-opacity="1" stop-color="rgb(28.108215%, 60.670471%, 96.299744%)" offset="0.578125"/><stop stop-opacity="1" stop-color="rgb(28.16925%, 60.473633%, 96.353149%)" offset="0.585938"/><stop stop-opacity="1" stop-color="rgb(28.230286%, 60.27832%, 96.408081%)" offset="0.59375"/><stop stop-opacity="1" stop-color="rgb(28.291321%, 60.081482%, 96.463013%)" offset="0.601563"/><stop stop-opacity="1" stop-color="rgb(28.352356%, 59.886169%, 96.517944%)" offset="0.609375"/><stop stop-opacity="1" stop-color="rgb(28.413391%, 59.690857%, 96.572876%)" offset="0.617188"/><stop stop-opacity="1" stop-color="rgb(28.474426%, 59.494019%, 96.627808%)" offset="0.625"/><stop stop-opacity="1" stop-color="rgb(28.535461%, 59.298706%, 96.681213%)" offset="0.632813"/><stop stop-opacity="1" stop-color="rgb(28.596497%, 59.101868%, 96.736145%)" offset="0.640625"/><stop stop-opacity="1" stop-color="rgb(28.657532%, 58.906555%, 96.791077%)" offset="0.648438"/><stop stop-opacity="1" stop-color="rgb(28.718567%, 58.709717%, 96.846008%)" offset="0.65625"/><stop stop-opacity="1" stop-color="rgb(28.81012%, 58.416748%, 96.92688%)" offset="0.671875"/><stop stop-opacity="1" stop-color="rgb(28.901672%, 58.122253%, 97.009277%)" offset="0.679688"/><stop stop-opacity="1" stop-color="rgb(28.962708%, 57.926941%, 97.064209%)" offset="0.6875"/><stop stop-opacity="1" stop-color="rgb(29.023743%, 57.730103%, 97.119141%)" offset="0.695313"/><stop stop-opacity="1" stop-color="rgb(29.084778%, 57.53479%, 97.174072%)" offset="0.703125"/><stop stop-opacity="1" stop-color="rgb(29.145813%, 57.337952%, 97.229004%)" offset="0.710938"/><stop stop-opacity="1" stop-color="rgb(29.206848%, 57.142639%, 97.28241%)" offset="0.71875"/><stop stop-opacity="1" stop-color="rgb(29.267883%, 56.945801%, 97.337341%)" offset="0.726563"/><stop stop-opacity="1" stop-color="rgb(29.328918%, 56.750488%, 97.392273%)" offset="0.734375"/><stop stop-opacity="1" stop-color="rgb(29.389954%, 56.555176%, 97.447205%)" offset="0.742188"/><stop stop-opacity="1" stop-color="rgb(29.450989%, 56.358337%, 97.502136%)" offset="0.75"/><stop stop-opacity="1" stop-color="rgb(29.512024%, 56.163025%, 97.555542%)" offset="0.757813"/><stop stop-opacity="1" stop-color="rgb(29.573059%, 55.966187%, 97.610474%)" offset="0.765625"/><stop stop-opacity="1" stop-color="rgb(29.634094%, 55.770874%, 97.665405%)" offset="0.773438"/><stop stop-opacity="1" stop-color="rgb(29.695129%, 55.574036%, 97.720337%)" offset="0.78125"/><stop stop-opacity="1" stop-color="rgb(29.786682%, 55.281067%, 97.801208%)" offset="0.796875"/><stop stop-opacity="1" stop-color="rgb(29.878235%, 54.986572%, 97.883606%)" offset="0.804688"/><stop stop-opacity="1" stop-color="rgb(29.93927%, 54.79126%, 97.938538%)" offset="0.8125"/><stop stop-opacity="1" stop-color="rgb(30.000305%, 54.594421%, 97.993469%)" offset="0.820313"/><stop stop-opacity="1" stop-color="rgb(30.06134%, 54.399109%, 98.048401%)" offset="0.828125"/><stop stop-opacity="1" stop-color="rgb(30.122375%, 54.202271%, 98.103333%)" offset="0.835938"/><stop stop-opacity="1" stop-color="rgb(30.183411%, 54.006958%, 98.156738%)" offset="0.84375"/><stop stop-opacity="1" stop-color="rgb(30.244446%, 53.81012%, 98.21167%)" offset="0.851563"/><stop stop-opacity="1" stop-color="rgb(30.305481%, 53.614807%, 98.266602%)" offset="0.859375"/><stop stop-opacity="1" stop-color="rgb(30.366516%, 53.419495%, 98.321533%)" offset="0.867188"/><stop stop-opacity="1" stop-color="rgb(30.427551%, 53.222656%, 98.376465%)" offset="0.875"/><stop stop-opacity="1" stop-color="rgb(30.488586%, 53.027344%, 98.429871%)" offset="0.882813"/><stop stop-opacity="1" stop-color="rgb(30.549622%, 52.830505%, 98.484802%)" offset="0.890625"/><stop stop-opacity="1" stop-color="rgb(30.610657%, 52.635193%, 98.539734%)" offset="0.898438"/><stop stop-opacity="1" stop-color="rgb(30.671692%, 52.438354%, 98.594666%)" offset="0.90625"/><stop stop-opacity="1" stop-color="rgb(30.763245%, 52.145386%, 98.675537%)" offset="0.921875"/><stop stop-opacity="1" stop-color="rgb(30.854797%, 51.850891%, 98.757935%)" offset="0.929688"/><stop stop-opacity="1" stop-color="rgb(30.915833%, 51.655579%, 98.812866%)" offset="0.9375"/><stop stop-opacity="1" stop-color="rgb(30.976868%, 51.45874%, 98.867798%)" offset="0.945313"/><stop stop-opacity="1" stop-color="rgb(31.037903%, 51.263428%, 98.922729%)" offset="0.953125"/><stop stop-opacity="1" stop-color="rgb(31.098938%, 51.066589%, 98.977661%)" offset="0.960937"/><stop stop-opacity="1" stop-color="rgb(31.159973%, 50.871277%, 99.031067%)" offset="0.96875"/><stop stop-opacity="1" stop-color="rgb(31.221008%, 50.674438%, 99.085999%)" offset="0.976562"/><stop stop-opacity="1" stop-color="rgb(31.282043%, 50.479126%, 99.14093%)" offset="0.984375"/><stop stop-opacity="1" stop-color="rgb(31.340027%, 50.289917%, 99.19281%)" offset="1"/></linearGradient><clipPath id="da7a3f3c6a"><path d="M 163 97 L 199 97 L 199 112 L 163 112 Z M 163 97 " clip-rule="nonzero"/></clipPath><clipPath id="63b24a2ecc"><path d="M 156.902344 102.707031 L 201.996094 94.996094 L 206.675781 122.347656 L 161.578125 130.058594 Z M 156.902344 102.707031 " clip-rule="nonzero"/></clipPath><clipPath id="37aad203a8"><path d="M 156.902344 102.707031 L 201.996094 94.996094 L 206.675781 122.347656 L 161.578125 130.058594 Z M 156.902344 102.707031 " clip-rule="nonzero"/></clipPath><clipPath id="00fd141e20"><path d="M 163 104 L 199 104 L 199 118 L 163 118 Z M 163 104 " clip-rule="nonzero"/></clipPath><clipPath id="2401dcd23e"><path d="M 156.902344 102.707031 L 201.996094 94.996094 L 206.675781 122.347656 L 161.578125 130.058594 Z M 156.902344 102.707031 " clip-rule="nonzero"/></clipPath><clipPath id="1e05771cbb"><path d="M 156.902344 102.707031 L 201.996094 94.996094 L 206.675781 122.347656 L 161.578125 130.058594 Z M 156.902344 102.707031 " clip-rule="nonzero"/></clipPath><clipPath id="c1cb139328"><path d="M 163 106 L 200 106 L 200 119 L 163 119 Z M 163 106 " clip-rule="nonzero"/></clipPath><clipPath id="d666b6a075"><path d="M 156.902344 102.707031 L 201.996094 94.996094 L 206.675781 122.347656 L 161.578125 130.058594 Z M 156.902344 102.707031 " clip-rule="nonzero"/></clipPath><clipPath id="33907ba760"><path d="M 156.902344 102.707031 L 201.996094 94.996094 L 206.675781 122.347656 L 161.578125 130.058594 Z M 156.902344 102.707031 " clip-rule="nonzero"/></clipPath><clipPath id="edd8e41a99"><path d="M 160 104 L 206 104 L 206 129 L 160 129 Z M 160 104 " clip-rule="nonzero"/></clipPath><clipPath id="024eedf6e7"><path d="M 156.902344 102.707031 L 201.996094 94.996094 L 206.675781 122.347656 L 161.578125 130.058594 Z M 156.902344 102.707031 " clip-rule="nonzero"/></clipPath><clipPath id="ae2436d35b"><path d="M 156.902344 102.707031 L 201.996094 94.996094 L 206.675781 122.347656 L 161.578125 130.058594 Z M 156.902344 102.707031 " clip-rule="nonzero"/></clipPath><clipPath id="62d78a0d34"><path d="M 166 123 L 175 123 L 175 129 L 166 129 Z M 166 123 " clip-rule="nonzero"/></clipPath><clipPath id="f5886c30fa"><path d="M 156.902344 102.707031 L 201.996094 94.996094 L 206.675781 122.347656 L 161.578125 130.058594 Z M 156.902344 102.707031 " clip-rule="nonzero"/></clipPath><clipPath id="c9ab7affdd"><path d="M 156.902344 102.707031 L 201.996094 94.996094 L 206.675781 122.347656 L 161.578125 130.058594 Z M 156.902344 102.707031 " clip-rule="nonzero"/></clipPath><clipPath id="15be0cae72"><path d="M 136 194 L 146 194 L 146 205 L 136 205 Z M 136 194 " clip-rule="nonzero"/></clipPath><clipPath id="7c5f65383a"><path d="M 134.390625 191.265625 L 182.027344 201.621094 L 173.582031 240.464844 L 125.945312 230.109375 Z M 134.390625 191.265625 " clip-rule="nonzero"/></clipPath><clipPath id="78efde473f"><path d="M 134.390625 191.265625 L 182.027344 201.621094 L 173.582031 240.464844 L 125.945312 230.109375 Z M 134.390625 191.265625 " clip-rule="nonzero"/></clipPath><clipPath id="6a1505e561"><path d="M 134.390625 191.265625 L 182.027344 201.621094 L 173.582031 240.464844 L 125.945312 230.109375 Z M 134.390625 191.265625 " clip-rule="nonzero"/></clipPath><clipPath id="555723be90"><path d="M 140 199 L 163 199 L 163 225 L 140 225 Z M 140 199 " clip-rule="nonzero"/></clipPath><clipPath id="941c146a6d"><path d="M 134.390625 191.265625 L 182.027344 201.621094 L 173.582031 240.464844 L 125.945312 230.109375 Z M 134.390625 191.265625 " clip-rule="nonzero"/></clipPath><clipPath id="e40fbbc9df"><path d="M 134.390625 191.265625 L 182.027344 201.621094 L 173.582031 240.464844 L 125.945312 230.109375 Z M 134.390625 191.265625 " clip-rule="nonzero"/></clipPath><clipPath id="1e1043e167"><path d="M 134.390625 191.265625 L 182.027344 201.621094 L 173.582031 240.464844 L 125.945312 230.109375 Z M 134.390625 191.265625 " clip-rule="nonzero"/></clipPath><clipPath id="38f0d85ca8"><path d="M 139 199 L 163 199 L 163 225 L 139 225 Z M 139 199 " clip-rule="nonzero"/></clipPath><clipPath id="ead993314b"><path d="M 134.390625 191.265625 L 182.027344 201.621094 L 173.582031 240.464844 L 125.945312 230.109375 Z M 134.390625 191.265625 " clip-rule="nonzero"/></clipPath><clipPath id="be4c69dc7e"><path d="M 134.390625 191.265625 L 182.027344 201.621094 L 173.582031 240.464844 L 125.945312 230.109375 Z M 134.390625 191.265625 " clip-rule="nonzero"/></clipPath><clipPath id="c50e57249a"><path d="M 134.390625 191.265625 L 182.027344 201.621094 L 173.582031 240.464844 L 125.945312 230.109375 Z M 134.390625 191.265625 " clip-rule="nonzero"/></clipPath><clipPath id="4bd2e1f6a9"><path d="M 143 203 L 160 203 L 160 221 L 143 221 Z M 143 203 " clip-rule="nonzero"/></clipPath><clipPath id="1d4818e776"><path d="M 134.390625 191.265625 L 182.027344 201.621094 L 173.582031 240.464844 L 125.945312 230.109375 Z M 134.390625 191.265625 " clip-rule="nonzero"/></clipPath><clipPath id="df181efb1e"><path d="M 134.390625 191.265625 L 182.027344 201.621094 L 173.582031 240.464844 L 125.945312 230.109375 Z M 134.390625 191.265625 " clip-rule="nonzero"/></clipPath><clipPath id="3dbffa4781"><path d="M 134.390625 191.265625 L 182.027344 201.621094 L 173.582031 240.464844 L 125.945312 230.109375 Z M 134.390625 191.265625 " clip-rule="nonzero"/></clipPath><clipPath id="dfc20f95e6"><path d="M 142 202 L 160 202 L 160 222 L 142 222 Z M 142 202 " clip-rule="nonzero"/></clipPath><clipPath id="4685f1d4c6"><path d="M 134.390625 191.265625 L 182.027344 201.621094 L 173.582031 240.464844 L 125.945312 230.109375 Z M 134.390625 191.265625 " clip-rule="nonzero"/></clipPath><clipPath id="bf525006a7"><path d="M 134.390625 191.265625 L 182.027344 201.621094 L 173.582031 240.464844 L 125.945312 230.109375 Z M 134.390625 191.265625 " clip-rule="nonzero"/></clipPath><clipPath id="5595fca41c"><path d="M 134.390625 191.265625 L 182.027344 201.621094 L 173.582031 240.464844 L 125.945312 230.109375 Z M 134.390625 191.265625 " clip-rule="nonzero"/></clipPath><clipPath id="e05c12742b"><path d="M 158 221 L 172 221 L 172 236 L 158 236 Z M 158 221 " clip-rule="nonzero"/></clipPath><clipPath id="2524ca4a4c"><path d="M 134.390625 191.265625 L 182.027344 201.621094 L 173.582031 240.464844 L 125.945312 230.109375 Z M 134.390625 191.265625 " clip-rule="nonzero"/></clipPath><clipPath id="b0917cf688"><path d="M 134.390625 191.265625 L 182.027344 201.621094 L 173.582031 240.464844 L 125.945312 230.109375 Z M 134.390625 191.265625 " clip-rule="nonzero"/></clipPath><clipPath id="c84bd7d669"><path d="M 134.390625 191.265625 L 182.027344 201.621094 L 173.582031 240.464844 L 125.945312 230.109375 Z M 134.390625 191.265625 " clip-rule="nonzero"/></clipPath><clipPath id="7d529ad743"><path d="M 158 221 L 172 221 L 172 237 L 158 237 Z M 158 221 " clip-rule="nonzero"/></clipPath><clipPath id="95e84164b8"><path d="M 134.390625 191.265625 L 182.027344 201.621094 L 173.582031 240.464844 L 125.945312 230.109375 Z M 134.390625 191.265625 " clip-rule="nonzero"/></clipPath><clipPath id="d5482b4dc3"><path d="M 134.390625 191.265625 L 182.027344 201.621094 L 173.582031 240.464844 L 125.945312 230.109375 Z M 134.390625 191.265625 " clip-rule="nonzero"/></clipPath><clipPath id="2bef386719"><path d="M 134.390625 191.265625 L 182.027344 201.621094 L 173.582031 240.464844 L 125.945312 230.109375 Z M 134.390625 191.265625 " clip-rule="nonzero"/></clipPath><clipPath id="7ff1109674"><path d="M 167 232 L 175 232 L 175 239 L 167 239 Z M 167 232 " clip-rule="nonzero"/></clipPath><clipPath id="cb75801263"><path d="M 134.390625 191.265625 L 182.027344 201.621094 L 173.582031 240.464844 L 125.945312 230.109375 Z M 134.390625 191.265625 " clip-rule="nonzero"/></clipPath><clipPath id="aae6bdd287"><path d="M 134.390625 191.265625 L 182.027344 201.621094 L 173.582031 240.464844 L 125.945312 230.109375 Z M 134.390625 191.265625 " clip-rule="nonzero"/></clipPath><clipPath id="f21be01318"><path d="M 134.390625 191.265625 L 182.027344 201.621094 L 173.582031 240.464844 L 125.945312 230.109375 Z M 134.390625 191.265625 " clip-rule="nonzero"/></clipPath><clipPath id="403e8268ef"><path d="M 166 232 L 175 232 L 175 240 L 166 240 Z M 166 232 " clip-rule="nonzero"/></clipPath><clipPath id="ab58b6100a"><path d="M 134.390625 191.265625 L 182.027344 201.621094 L 173.582031 240.464844 L 125.945312 230.109375 Z M 134.390625 191.265625 " clip-rule="nonzero"/></clipPath><clipPath id="64616ba8fd"><path d="M 134.390625 191.265625 L 182.027344 201.621094 L 173.582031 240.464844 L 125.945312 230.109375 Z M 134.390625 191.265625 " clip-rule="nonzero"/></clipPath><clipPath id="0a43ff49cc"><path d="M 134.390625 191.265625 L 182.027344 201.621094 L 173.582031 240.464844 L 125.945312 230.109375 Z M 134.390625 191.265625 " clip-rule="nonzero"/></clipPath><clipPath id="263c36b38e"><path d="M 153 217 L 166 217 L 166 227 L 153 227 Z M 153 217 " clip-rule="nonzero"/></clipPath><clipPath id="4f8013aaeb"><path d="M 134.390625 191.265625 L 182.027344 201.621094 L 173.582031 240.464844 L 125.945312 230.109375 Z M 134.390625 191.265625 " clip-rule="nonzero"/></clipPath><clipPath id="938e4d2d99"><path d="M 134.390625 191.265625 L 182.027344 201.621094 L 173.582031 240.464844 L 125.945312 230.109375 Z M 134.390625 191.265625 " clip-rule="nonzero"/></clipPath><clipPath id="fa03f68cc8"><path d="M 134.390625 191.265625 L 182.027344 201.621094 L 173.582031 240.464844 L 125.945312 230.109375 Z M 134.390625 191.265625 " clip-rule="nonzero"/></clipPath><clipPath id="89f3aeb3af"><path d="M 153 216 L 166 216 L 166 228 L 153 228 Z M 153 216 " clip-rule="nonzero"/></clipPath><clipPath id="ed90e4bffe"><path d="M 134.390625 191.265625 L 182.027344 201.621094 L 173.582031 240.464844 L 125.945312 230.109375 Z M 134.390625 191.265625 " clip-rule="nonzero"/></clipPath><clipPath id="2234364d2a"><path d="M 134.390625 191.265625 L 182.027344 201.621094 L 173.582031 240.464844 L 125.945312 230.109375 Z M 134.390625 191.265625 " clip-rule="nonzero"/></clipPath><clipPath id="ea4ab1c3c8"><path d="M 134.390625 191.265625 L 182.027344 201.621094 L 173.582031 240.464844 L 125.945312 230.109375 Z M 134.390625 191.265625 " clip-rule="nonzero"/></clipPath><clipPath id="71a971ae0d"><path d="M 134 191 L 138 191 L 138 196 L 134 196 Z M 134 191 " clip-rule="nonzero"/></clipPath><clipPath id="15660af286"><path d="M 134.390625 191.265625 L 182.027344 201.621094 L 173.582031 240.464844 L 125.945312 230.109375 Z M 134.390625 191.265625 " clip-rule="nonzero"/></clipPath><clipPath id="e8d94e0610"><path d="M 134.390625 191.265625 L 182.027344 201.621094 L 173.582031 240.464844 L 125.945312 230.109375 Z M 134.390625 191.265625 " clip-rule="nonzero"/></clipPath><clipPath id="e3575d6bc3"><path d="M 134.390625 191.265625 L 182.027344 201.621094 L 173.582031 240.464844 L 125.945312 230.109375 Z M 134.390625 191.265625 " clip-rule="nonzero"/></clipPath><clipPath id="234b1caff5"><path d="M 134 191 L 139 191 L 139 196 L 134 196 Z M 134 191 " clip-rule="nonzero"/></clipPath><clipPath id="fc9bd28c8c"><path d="M 134.390625 191.265625 L 182.027344 201.621094 L 173.582031 240.464844 L 125.945312 230.109375 Z M 134.390625 191.265625 " clip-rule="nonzero"/></clipPath><clipPath id="03c1a26367"><path d="M 134.390625 191.265625 L 182.027344 201.621094 L 173.582031 240.464844 L 125.945312 230.109375 Z M 134.390625 191.265625 " clip-rule="nonzero"/></clipPath><clipPath id="140d8e7317"><path d="M 134.390625 191.265625 L 182.027344 201.621094 L 173.582031 240.464844 L 125.945312 230.109375 Z M 134.390625 191.265625 " clip-rule="nonzero"/></clipPath><clipPath id="4f69302f25"><path d="M 152 216 L 155 216 L 155 219 L 152 219 Z M 152 216 " clip-rule="nonzero"/></clipPath><clipPath id="100075dd70"><path d="M 134.390625 191.265625 L 182.027344 201.621094 L 173.582031 240.464844 L 125.945312 230.109375 Z M 134.390625 191.265625 " clip-rule="nonzero"/></clipPath><clipPath id="059cf82b26"><path d="M 134.390625 191.265625 L 182.027344 201.621094 L 173.582031 240.464844 L 125.945312 230.109375 Z M 134.390625 191.265625 " clip-rule="nonzero"/></clipPath><clipPath id="c3797d4980"><path d="M 134.390625 191.265625 L 182.027344 201.621094 L 173.582031 240.464844 L 125.945312 230.109375 Z M 134.390625 191.265625 " clip-rule="nonzero"/></clipPath><clipPath id="fed58aa968"><path d="M 152 216 L 156 216 L 156 219 L 152 219 Z M 152 216 " clip-rule="nonzero"/></clipPath><clipPath id="10f1902c1b"><path d="M 134.390625 191.265625 L 182.027344 201.621094 L 173.582031 240.464844 L 125.945312 230.109375 Z M 134.390625 191.265625 " clip-rule="nonzero"/></clipPath><clipPath id="3d23ab0b4d"><path d="M 134.390625 191.265625 L 182.027344 201.621094 L 173.582031 240.464844 L 125.945312 230.109375 Z M 134.390625 191.265625 " clip-rule="nonzero"/></clipPath><clipPath id="1d483f18bc"><path d="M 134.390625 191.265625 L 182.027344 201.621094 L 173.582031 240.464844 L 125.945312 230.109375 Z M 134.390625 191.265625 " clip-rule="nonzero"/></clipPath><clipPath id="d6ba20cdb1"><path d="M 149 213 L 152 213 L 152 215 L 149 215 Z M 149 213 " clip-rule="nonzero"/></clipPath><clipPath id="96b77b787a"><path d="M 134.390625 191.265625 L 182.027344 201.621094 L 173.582031 240.464844 L 125.945312 230.109375 Z M 134.390625 191.265625 " clip-rule="nonzero"/></clipPath><clipPath id="ae564940e1"><path d="M 134.390625 191.265625 L 182.027344 201.621094 L 173.582031 240.464844 L 125.945312 230.109375 Z M 134.390625 191.265625 " clip-rule="nonzero"/></clipPath><clipPath id="c29fe40bb8"><path d="M 134.390625 191.265625 L 182.027344 201.621094 L 173.582031 240.464844 L 125.945312 230.109375 Z M 134.390625 191.265625 " clip-rule="nonzero"/></clipPath><clipPath id="612eb41a6c"><path d="M 149 212 L 153 212 L 153 216 L 149 216 Z M 149 212 " clip-rule="nonzero"/></clipPath><clipPath id="bfb2465d2f"><path d="M 134.390625 191.265625 L 182.027344 201.621094 L 173.582031 240.464844 L 125.945312 230.109375 Z M 134.390625 191.265625 " clip-rule="nonzero"/></clipPath><clipPath id="47107f7f1e"><path d="M 134.390625 191.265625 L 182.027344 201.621094 L 173.582031 240.464844 L 125.945312 230.109375 Z M 134.390625 191.265625 " clip-rule="nonzero"/></clipPath><clipPath id="5de253722d"><path d="M 134.390625 191.265625 L 182.027344 201.621094 L 173.582031 240.464844 L 125.945312 230.109375 Z M 134.390625 191.265625 " clip-rule="nonzero"/></clipPath><clipPath id="1695c95ca3"><path d="M 146 209 L 149 209 L 149 212 L 146 212 Z M 146 209 " clip-rule="nonzero"/></clipPath><clipPath id="6e0f29e380"><path d="M 134.390625 191.265625 L 182.027344 201.621094 L 173.582031 240.464844 L 125.945312 230.109375 Z M 134.390625 191.265625 " clip-rule="nonzero"/></clipPath><clipPath id="ad1fd006e3"><path d="M 134.390625 191.265625 L 182.027344 201.621094 L 173.582031 240.464844 L 125.945312 230.109375 Z M 134.390625 191.265625 " clip-rule="nonzero"/></clipPath><clipPath id="8bf054b19d"><path d="M 134.390625 191.265625 L 182.027344 201.621094 L 173.582031 240.464844 L 125.945312 230.109375 Z M 134.390625 191.265625 " clip-rule="nonzero"/></clipPath><clipPath id="df33b74b86"><path d="M 146 209 L 150 209 L 150 212 L 146 212 Z M 146 209 " clip-rule="nonzero"/></clipPath><clipPath id="7ca11d9ce6"><path d="M 134.390625 191.265625 L 182.027344 201.621094 L 173.582031 240.464844 L 125.945312 230.109375 Z M 134.390625 191.265625 " clip-rule="nonzero"/></clipPath><clipPath id="a29b7ad65f"><path d="M 134.390625 191.265625 L 182.027344 201.621094 L 173.582031 240.464844 L 125.945312 230.109375 Z M 134.390625 191.265625 " clip-rule="nonzero"/></clipPath><clipPath id="12ec6e463c"><path d="M 134.390625 191.265625 L 182.027344 201.621094 L 173.582031 240.464844 L 125.945312 230.109375 Z M 134.390625 191.265625 " clip-rule="nonzero"/></clipPath><clipPath id="80e18c55f2"><path d="M 138 195 L 143 195 L 143 202 L 138 202 Z M 138 195 " clip-rule="nonzero"/></clipPath><clipPath id="1992f625c5"><path d="M 134.390625 191.265625 L 182.027344 201.621094 L 173.582031 240.464844 L 125.945312 230.109375 Z M 134.390625 191.265625 " clip-rule="nonzero"/></clipPath><clipPath id="e31a56d535"><path d="M 134.390625 191.265625 L 182.027344 201.621094 L 173.582031 240.464844 L 125.945312 230.109375 Z M 134.390625 191.265625 " clip-rule="nonzero"/></clipPath><clipPath id="eed43b4020"><path d="M 134.390625 191.265625 L 182.027344 201.621094 L 173.582031 240.464844 L 125.945312 230.109375 Z M 134.390625 191.265625 " clip-rule="nonzero"/></clipPath><clipPath id="ad806fa630"><path d="M 146 204 L 158 204 L 158 218 L 146 218 Z M 146 204 " clip-rule="nonzero"/></clipPath><clipPath id="fe219dfcc7"><path d="M 134.390625 191.265625 L 182.027344 201.621094 L 173.582031 240.464844 L 125.945312 230.109375 Z M 134.390625 191.265625 " clip-rule="nonzero"/></clipPath><clipPath id="c8ef69bf79"><path d="M 134.390625 191.265625 L 182.027344 201.621094 L 173.582031 240.464844 L 125.945312 230.109375 Z M 134.390625 191.265625 " clip-rule="nonzero"/></clipPath><clipPath id="7309634486"><path d="M 134.390625 191.265625 L 182.027344 201.621094 L 173.582031 240.464844 L 125.945312 230.109375 Z M 134.390625 191.265625 " clip-rule="nonzero"/></clipPath><clipPath id="28026beeb2"><path d="M 160 223 L 170 223 L 170 235 L 160 235 Z M 160 223 " clip-rule="nonzero"/></clipPath><clipPath id="9442652c68"><path d="M 134.390625 191.265625 L 182.027344 201.621094 L 173.582031 240.464844 L 125.945312 230.109375 Z M 134.390625 191.265625 " clip-rule="nonzero"/></clipPath><clipPath id="aa6ad24aa7"><path d="M 134.390625 191.265625 L 182.027344 201.621094 L 173.582031 240.464844 L 125.945312 230.109375 Z M 134.390625 191.265625 " clip-rule="nonzero"/></clipPath><clipPath id="9525a9e068"><path d="M 134.390625 191.265625 L 182.027344 201.621094 L 173.582031 240.464844 L 125.945312 230.109375 Z M 134.390625 191.265625 " clip-rule="nonzero"/></clipPath><clipPath id="ee5ea5ed23"><path d="M 169 233 L 174 233 L 174 238 L 169 238 Z M 169 233 " clip-rule="nonzero"/></clipPath><clipPath id="ea5212ec86"><path d="M 134.390625 191.265625 L 182.027344 201.621094 L 173.582031 240.464844 L 125.945312 230.109375 Z M 134.390625 191.265625 " clip-rule="nonzero"/></clipPath><clipPath id="7c0b54d0d3"><path d="M 134.390625 191.265625 L 182.027344 201.621094 L 173.582031 240.464844 L 125.945312 230.109375 Z M 134.390625 191.265625 " clip-rule="nonzero"/></clipPath><clipPath id="0125b85a53"><path d="M 134.390625 191.265625 L 182.027344 201.621094 L 173.582031 240.464844 L 125.945312 230.109375 Z M 134.390625 191.265625 " clip-rule="nonzero"/></clipPath></defs><path fill="#f6f6f6" d="M 219.679688 217.910156 C 219.636719 218.941406 219.5625 219.960938 219.46875 220.957031 C 219.046875 225.332031 218.15625 229.261719 216.910156 232.003906 C 216.863281 232.101562 216.820312 232.199219 216.773438 232.296875 C 215.003906 235.996094 208.597656 239.261719 201.011719 240.722656 C 198.109375 241.28125 195.035156 241.578125 191.984375 241.535156 C 185.628906 241.445312 179.363281 239.878906 174.929688 236.152344 C 173.410156 234.875 172.105469 233.339844 171.085938 231.527344 C 168.964844 227.753906 167.980469 223.65625 167.722656 219.585938 C 167.652344 218.515625 167.636719 217.445312 167.660156 216.386719 C 167.941406 204.058594 173.976562 192.855469 173.976562 192.855469 C 174.167969 191.023438 204.242188 184.558594 212.820312 192.277344 C 218.222656 197.132812 220.109375 208.152344 219.679688 217.910156 Z M 219.679688 217.910156 " fill-opacity="1" fill-rule="nonzero"/><path fill="#54a3e6" d="M 219.679688 217.910156 C 219.636719 218.941406 219.5625 219.960938 219.46875 220.957031 C 218.074219 221.191406 216.671875 221.394531 215.269531 221.578125 C 212.949219 221.882812 210.613281 222.113281 208.277344 222.285156 C 205.933594 222.457031 203.589844 222.574219 201.242188 222.644531 C 198.894531 222.714844 196.542969 222.742188 194.191406 222.742188 C 191.804688 222.738281 189.414062 222.71875 187.023438 222.648438 C 184.601562 222.578125 182.175781 222.445312 179.761719 222.191406 C 177.335938 221.933594 174.914062 221.570312 172.535156 221.011719 C 170.90625 220.628906 169.296875 220.160156 167.722656 219.585938 C 167.652344 218.515625 167.636719 217.445312 167.660156 216.386719 C 168.179688 216.589844 168.707031 216.785156 169.238281 216.964844 C 172.132812 217.957031 175.132812 218.601562 178.160156 219.019531 C 178.382812 219.046875 178.609375 219.074219 178.832031 219.101562 C 181.335938 219.402344 183.855469 219.558594 186.375 219.644531 C 188.851562 219.726562 191.332031 219.753906 193.808594 219.757812 C 196.253906 219.761719 198.695312 219.738281 201.136719 219.664062 C 203.566406 219.59375 205.992188 219.472656 208.417969 219.292969 C 210.765625 219.117188 213.109375 218.878906 215.441406 218.570312 C 216.503906 218.429688 217.5625 218.269531 218.617188 218.09375 C 218.972656 218.03125 219.328125 217.972656 219.679688 217.910156 Z M 219.679688 217.910156 " fill-opacity="1" fill-rule="nonzero"/><g clip-path="url(#9e145fc74c)"><path fill="#f6f6f6" d="M 226.859375 260.84375 C 225.125 263.222656 204.5 262.707031 202.507812 261.359375 C 200.515625 260.007812 201.414062 258.785156 201.609375 254.027344 C 201.652344 252.882812 201.632812 251.375 201.574219 249.730469 C 201.539062 248.765625 201.488281 247.753906 201.433594 246.742188 C 201.308594 244.566406 201.152344 242.398438 201.011719 240.722656 C 200.871094 239.015625 200.746094 237.816406 200.707031 237.632812 L 201.09375 237.378906 C 201.265625 235.1875 213.578125 231.03125 216.910156 232.003906 C 217.292969 232.117188 217.558594 232.296875 217.671875 232.554688 C 218.355469 234.121094 218.234375 240.460938 218.046875 244.996094 C 218 246.222656 217.941406 247.316406 217.898438 248.148438 C 217.84375 249.160156 217.800781 249.785156 217.800781 249.785156 C 217.800781 249.785156 220.691406 249.269531 223.519531 250.621094 C 226.347656 251.972656 228.597656 258.464844 226.863281 260.84375 Z M 226.859375 260.84375 " fill-opacity="1" fill-rule="nonzero"/></g><g clip-path="url(#b236c7e203)"><path fill="#f6f6f6" d="M 191.550781 248.511719 C 191.46875 250.472656 191.429688 252.304688 191.484375 253.644531 C 191.675781 258.402344 192.578125 259.621094 190.585938 260.972656 C 188.59375 262.324219 167.964844 262.835938 166.230469 260.457031 C 164.496094 258.078125 166.746094 251.585938 169.570312 250.234375 C 172.398438 248.886719 175.289062 249.398438 175.289062 249.398438 C 175.289062 249.398438 175.230469 248.460938 175.15625 247.011719 C 175.109375 246.117188 175.058594 245.023438 175.011719 243.84375 C 174.921875 241.359375 174.855469 238.472656 174.929688 236.152344 C 174.988281 234.3125 175.132812 232.824219 175.417969 232.167969 C 176.511719 229.664062 191.804688 234.546875 192 236.992188 L 192.382812 237.25 C 192.335938 237.46875 192.164062 239.207031 191.984375 241.535156 C 191.890625 242.746094 191.792969 244.117188 191.707031 245.515625 C 191.648438 246.515625 191.59375 247.53125 191.550781 248.511719 Z M 191.550781 248.511719 " fill-opacity="1" fill-rule="nonzero"/></g><path fill="#f6f6f6" d="M 231.679688 225.210938 C 231.679688 225.210938 235.441406 234.660156 226.042969 234.613281 C 216.644531 234.5625 210.714844 227.621094 211.777344 222.605469 C 212.835938 217.589844 223.328125 212.191406 223.132812 212.238281 C 223.039062 212.261719 222.089844 211.011719 220.46875 209.5625 C 219.941406 209.089844 219.335938 208.597656 218.667969 208.121094 C 217.292969 207.140625 215.636719 206.230469 213.753906 205.730469 C 208.164062 204.234375 209.558594 195.121094 210.8125 194.445312 C 210.945312 194.375 214.621094 190.347656 225.269531 195.554688 C 227.058594 196.429688 228.679688 197.328125 230.144531 198.25 C 230.90625 198.726562 231.625 199.207031 232.300781 199.695312 C 238.074219 203.839844 240.777344 208.238281 240.886719 212.046875 C 241.03125 217.15625 234.332031 224.195312 231.679688 225.210938 Z M 231.679688 225.210938 " fill-opacity="1" fill-rule="nonzero"/><path fill="#160e0b" d="M 225.398438 219.796875 C 226.007812 220 226.539062 220.417969 227.039062 220.8125 C 227.554688 221.214844 228.046875 221.644531 228.519531 222.097656 C 229.460938 223.003906 230.308594 224.003906 231.042969 225.082031 C 231.242188 225.375 231.722656 225.097656 231.519531 224.804688 C 230.316406 223.035156 228.832031 221.472656 227.121094 220.183594 C 226.632812 219.816406 226.132812 219.457031 225.546875 219.265625 C 225.207031 219.152344 225.0625 219.6875 225.398438 219.796875 Z M 225.398438 219.796875 " fill-opacity="1" fill-rule="nonzero"/><path fill="#160e0b" d="M 224.363281 212.046875 C 224.960938 211.902344 225.453125 211.515625 225.988281 211.238281 C 226.511719 210.96875 227.066406 210.765625 227.636719 210.625 C 228.207031 210.484375 228.789062 210.414062 229.375 210.40625 C 229.671875 210.402344 229.964844 210.417969 230.257812 210.449219 C 230.433594 210.464844 230.859375 210.460938 230.964844 210.632812 C 231.15625 210.929688 231.636719 210.65625 231.445312 210.355469 C 231.277344 210.089844 231 210 230.707031 209.953125 C 230.390625 209.90625 230.074219 209.871094 229.753906 209.859375 C 229.097656 209.835938 228.441406 209.894531 227.796875 210.023438 C 227.15625 210.15625 226.53125 210.367188 225.9375 210.648438 C 225.363281 210.921875 224.839844 211.363281 224.214844 211.515625 C 223.871094 211.601562 224.019531 212.132812 224.363281 212.050781 Z M 224.363281 212.046875 " fill-opacity="1" fill-rule="nonzero"/><path fill="#160e0b" d="M 219.070312 214.820312 C 216.84375 215.902344 215.378906 218.109375 214.574219 220.386719 C 213.738281 222.753906 213.554688 225.492188 214.527344 227.847656 C 215.128906 229.304688 216.171875 230.4375 217.265625 231.546875 C 217.515625 231.800781 217.90625 231.410156 217.65625 231.15625 C 216.730469 230.214844 215.804688 229.261719 215.222656 228.0625 C 214.699219 226.984375 214.457031 225.785156 214.429688 224.59375 C 214.375 222.214844 215.125 219.769531 216.484375 217.820312 C 217.222656 216.761719 218.183594 215.863281 219.351562 215.296875 C 219.667969 215.140625 219.390625 214.664062 219.070312 214.820312 Z M 219.070312 214.820312 " fill-opacity="1" fill-rule="nonzero"/><path fill="#f6f6f6" d="M 164.589844 212.238281 C 164.398438 212.191406 174.886719 217.589844 175.949219 222.605469 C 177.007812 227.621094 171.082031 234.5625 161.683594 234.613281 C 152.285156 234.660156 156.042969 225.210938 156.042969 225.210938 C 153.394531 224.195312 146.695312 217.15625 146.839844 212.046875 C 146.933594 208.785156 148.925781 205.097656 153.117188 201.5 C 153.820312 200.894531 154.589844 200.292969 155.421875 199.695312 C 157.398438 198.277344 159.734375 196.882812 162.453125 195.554688 C 173.105469 190.347656 176.777344 194.375 176.914062 194.445312 C 178.164062 195.121094 179.5625 204.234375 173.972656 205.730469 C 172.398438 206.148438 170.980469 206.855469 169.753906 207.648438 C 169.054688 208.097656 168.417969 208.578125 167.851562 209.050781 C 165.867188 210.699219 164.699219 212.265625 164.589844 212.238281 Z M 164.589844 212.238281 " fill-opacity="1" fill-rule="nonzero"/><path fill="#160e0b" d="M 162.179688 219.265625 C 161.664062 219.433594 161.214844 219.730469 160.78125 220.050781 C 160.355469 220.367188 159.9375 220.695312 159.539062 221.042969 C 158.734375 221.742188 157.988281 222.507812 157.308594 223.328125 C 156.917969 223.804688 156.550781 224.296875 156.203125 224.804688 C 156.003906 225.097656 156.480469 225.375 156.679688 225.082031 C 157.417969 224.003906 158.261719 223.003906 159.207031 222.097656 C 159.675781 221.644531 160.171875 221.214844 160.6875 220.8125 C 161.1875 220.417969 161.714844 220 162.328125 219.796875 C 162.664062 219.6875 162.519531 219.152344 162.179688 219.265625 Z M 162.179688 219.265625 " fill-opacity="1" fill-rule="nonzero"/><path fill="#160e0b" d="M 163.507812 211.515625 C 162.882812 211.363281 162.363281 210.921875 161.789062 210.648438 C 161.195312 210.367188 160.570312 210.15625 159.929688 210.023438 C 159.285156 209.894531 158.625 209.835938 157.96875 209.859375 C 157.652344 209.871094 157.332031 209.90625 157.015625 209.953125 C 156.722656 210 156.449219 210.089844 156.28125 210.355469 C 156.089844 210.65625 156.566406 210.933594 156.757812 210.632812 C 156.863281 210.46875 157.265625 210.46875 157.433594 210.453125 C 157.738281 210.417969 158.042969 210.402344 158.347656 210.40625 C 158.9375 210.414062 159.519531 210.484375 160.089844 210.625 C 160.660156 210.765625 161.210938 210.96875 161.734375 211.238281 C 162.273438 211.515625 162.765625 211.902344 163.363281 212.046875 C 163.707031 212.132812 163.855469 211.601562 163.507812 211.515625 Z M 163.507812 211.515625 " fill-opacity="1" fill-rule="nonzero"/><path fill="#160e0b" d="M 168.375 215.296875 C 170.484375 216.320312 171.871094 218.402344 172.628906 220.5625 C 173.421875 222.828125 173.601562 225.414062 172.675781 227.671875 C 172.113281 229.046875 171.097656 230.113281 170.066406 231.15625 C 169.816406 231.410156 170.207031 231.800781 170.457031 231.546875 C 171.425781 230.570312 172.390625 229.566406 172.992188 228.3125 C 173.542969 227.164062 173.8125 225.898438 173.847656 224.625 C 173.910156 222.136719 173.125 219.554688 171.699219 217.515625 C 170.910156 216.394531 169.894531 215.421875 168.652344 214.820312 C 168.335938 214.664062 168.054688 215.140625 168.375 215.296875 Z M 168.375 215.296875 " fill-opacity="1" fill-rule="nonzero"/><path fill="#54a3e6" d="M 167 216.121094 C 167.066406 216.148438 167.132812 216.175781 167.199219 216.207031 C 167.082031 216.15625 166.964844 216.105469 166.84375 216.054688 C 166.894531 216.078125 166.949219 216.097656 167 216.121094 Z M 167 216.121094 " fill-opacity="1" fill-rule="nonzero"/><path fill="#54a3e6" d="M 199.289062 246.511719 C 199.371094 246.523438 199.457031 246.535156 199.539062 246.546875 C 199.40625 246.53125 199.273438 246.511719 199.144531 246.496094 C 199.191406 246.5 199.238281 246.507812 199.289062 246.511719 Z M 199.289062 246.511719 " fill-opacity="1" fill-rule="nonzero"/><path fill="#54a3e6" d="M 218.046875 244.996094 C 217.996094 246.222656 217.941406 247.316406 217.898438 248.148438 C 214.648438 249.050781 211.292969 249.59375 207.929688 249.796875 C 205.808594 249.921875 203.6875 249.898438 201.574219 249.730469 C 201.539062 248.765625 201.488281 247.753906 201.433594 246.742188 C 201.558594 246.753906 201.683594 246.761719 201.808594 246.769531 C 204.898438 247 208.011719 246.910156 211.082031 246.515625 C 211.90625 246.402344 212.722656 246.265625 213.539062 246.109375 C 215.058594 245.8125 216.566406 245.441406 218.046875 244.996094 Z M 218.046875 244.996094 " fill-opacity="1" fill-rule="nonzero"/><path fill="#54a3e6" d="M 191.707031 245.515625 C 191.648438 246.515625 191.59375 247.53125 191.550781 248.511719 C 190.472656 248.632812 189.394531 248.714844 188.308594 248.75 C 185.691406 248.828125 183.078125 248.632812 180.492188 248.226562 C 178.6875 247.945312 176.902344 247.539062 175.152344 247.011719 C 175.109375 246.117188 175.058594 245.023438 175.011719 243.84375 C 177.269531 244.582031 179.589844 245.117188 181.941406 245.449219 C 182.660156 245.542969 183.382812 245.617188 184.109375 245.671875 C 186.640625 245.859375 189.1875 245.808594 191.707031 245.515625 Z M 191.707031 245.515625 " fill-opacity="1" fill-rule="nonzero"/><path fill="#54a3e6" d="M 192.390625 245.429688 C 192.28125 245.445312 192.171875 245.460938 192.0625 245.476562 C 192.066406 245.472656 192.070312 245.472656 192.078125 245.472656 C 192.179688 245.457031 192.285156 245.445312 192.390625 245.429688 Z M 192.390625 245.429688 " fill-opacity="1" fill-rule="nonzero"/><path fill="#54a3e6" d="M 211.789062 193.933594 C 211.808594 194.3125 211.699219 194.695312 211.457031 195.082031 C 211.214844 195.46875 210.847656 195.851562 210.351562 196.230469 C 209.855469 196.609375 209.242188 196.976562 208.511719 197.335938 C 207.78125 197.691406 206.949219 198.03125 206.011719 198.351562 C 205.074219 198.675781 204.054688 198.972656 202.945312 199.246094 C 201.839844 199.519531 200.667969 199.761719 199.433594 199.976562 C 198.195312 200.191406 196.921875 200.371094 195.605469 200.519531 C 194.289062 200.667969 192.957031 200.777344 191.613281 200.851562 C 190.265625 200.929688 188.929688 200.964844 187.605469 200.964844 C 186.28125 200.964844 184.996094 200.925781 183.742188 200.851562 C 182.492188 200.773438 181.300781 200.664062 180.167969 200.515625 C 179.039062 200.367188 177.988281 200.183594 177.023438 199.96875 C 176.054688 199.753906 175.191406 199.511719 174.425781 199.234375 C 173.660156 198.960938 173.007812 198.664062 172.476562 198.34375 C 171.941406 198.019531 171.53125 197.683594 171.246094 197.324219 C 170.964844 196.96875 170.8125 196.597656 170.792969 196.21875 C 170.769531 195.839844 170.878906 195.457031 171.121094 195.070312 C 171.363281 194.683594 171.734375 194.300781 172.226562 193.921875 C 172.722656 193.542969 173.335938 193.175781 174.066406 192.816406 C 174.796875 192.460938 175.628906 192.121094 176.566406 191.800781 C 177.503906 191.476562 178.527344 191.179688 179.632812 190.90625 C 180.742188 190.632812 181.914062 190.390625 183.148438 190.175781 C 184.382812 189.960938 185.660156 189.78125 186.976562 189.632812 C 188.292969 189.484375 189.621094 189.375 190.96875 189.300781 C 192.3125 189.222656 193.648438 189.1875 194.972656 189.1875 C 196.296875 189.1875 197.585938 189.226562 198.835938 189.300781 C 200.089844 189.378906 201.28125 189.488281 202.410156 189.636719 C 203.542969 189.785156 204.589844 189.96875 205.558594 190.183594 C 206.523438 190.398438 207.390625 190.640625 208.15625 190.917969 C 208.921875 191.191406 209.570312 191.488281 210.105469 191.808594 C 210.640625 192.132812 211.050781 192.46875 211.332031 192.828125 C 211.617188 193.183594 211.769531 193.554688 211.789062 193.933594 Z M 211.789062 193.933594 " fill-opacity="1" fill-rule="nonzero"/><path fill="#f6f6f6" d="M 231.660156 139.371094 C 231.480469 139.390625 230.800781 120.089844 230.800781 120.089844 L 235.308594 119.570312 C 235.308594 119.570312 238.847656 143.09375 238.410156 143.183594 C 237.96875 143.273438 231.660156 139.371094 231.660156 139.371094 Z M 231.660156 139.371094 " fill-opacity="1" fill-rule="nonzero"/><g clip-path="url(#73639feaaf)"><path fill="#f6f6f6" d="M 236.625 116.570312 C 236.625 116.839844 236.597656 117.101562 236.546875 117.367188 C 236.496094 117.628906 236.417969 117.882812 236.316406 118.128906 C 236.214844 118.375 236.085938 118.609375 235.9375 118.832031 C 235.789062 119.054688 235.621094 119.261719 235.433594 119.449219 C 235.242188 119.640625 235.039062 119.808594 234.816406 119.957031 C 234.59375 120.105469 234.359375 120.230469 234.113281 120.332031 C 233.867188 120.433594 233.613281 120.511719 233.347656 120.5625 C 233.085938 120.617188 232.824219 120.644531 232.554688 120.644531 C 232.289062 120.644531 232.023438 120.617188 231.761719 120.5625 C 231.5 120.511719 231.246094 120.433594 231 120.332031 C 230.75 120.230469 230.515625 120.105469 230.292969 119.957031 C 230.074219 119.808594 229.867188 119.640625 229.679688 119.449219 C 229.488281 119.261719 229.320312 119.054688 229.171875 118.832031 C 229.023438 118.609375 228.898438 118.375 228.796875 118.128906 C 228.695312 117.882812 228.617188 117.628906 228.5625 117.367188 C 228.511719 117.101562 228.484375 116.839844 228.484375 116.570312 C 228.484375 116.304688 228.511719 116.039062 228.5625 115.777344 C 228.617188 115.515625 228.695312 115.261719 228.796875 115.011719 C 228.898438 114.765625 229.023438 114.53125 229.171875 114.308594 C 229.320312 114.085938 229.488281 113.882812 229.679688 113.691406 C 229.867188 113.503906 230.074219 113.335938 230.292969 113.183594 C 230.515625 113.035156 230.75 112.910156 231 112.808594 C 231.246094 112.707031 231.5 112.628906 231.761719 112.578125 C 232.023438 112.527344 232.289062 112.5 232.554688 112.5 C 232.824219 112.5 233.085938 112.527344 233.347656 112.578125 C 233.613281 112.628906 233.867188 112.707031 234.113281 112.808594 C 234.359375 112.910156 234.59375 113.035156 234.816406 113.183594 C 235.039062 113.335938 235.242188 113.503906 235.433594 113.691406 C 235.621094 113.882812 235.789062 114.085938 235.9375 114.308594 C 236.085938 114.53125 236.214844 114.765625 236.316406 115.011719 C 236.417969 115.261719 236.496094 115.515625 236.546875 115.777344 C 236.597656 116.039062 236.625 116.304688 236.625 116.570312 Z M 236.625 116.570312 " fill-opacity="1" fill-rule="nonzero"/></g><g clip-path="url(#351a4f6e8e)"><path fill="#54a3e6" d="M 236.933594 166.667969 L 235.0625 166.960938 C 230.691406 167.640625 226.597656 164.648438 225.917969 160.277344 L 223.617188 145.503906 C 222.9375 141.132812 225.925781 137.039062 230.296875 136.359375 L 232.167969 136.066406 C 236.535156 135.386719 240.628906 138.375 241.308594 142.746094 L 243.609375 157.519531 C 244.292969 161.890625 241.300781 165.988281 236.933594 166.667969 Z M 236.933594 166.667969 " fill-opacity="1" fill-rule="nonzero"/></g><path fill="#f6f6f6" d="M 143.765625 152.386719 C 143.9375 152.347656 138.128906 133.929688 138.128906 133.929688 L 133.707031 134.949219 C 133.707031 134.949219 138.234375 158.300781 138.675781 158.238281 C 139.121094 158.175781 143.765625 152.386719 143.765625 152.386719 Z M 143.765625 152.386719 " fill-opacity="1" fill-rule="nonzero"/><g clip-path="url(#17c6a3b954)"><path fill="#f6f6f6" d="M 139.367188 131.199219 C 139.367188 131.46875 139.339844 131.730469 139.289062 131.996094 C 139.234375 132.257812 139.160156 132.511719 139.058594 132.757812 C 138.953125 133.003906 138.828125 133.238281 138.679688 133.460938 C 138.53125 133.683594 138.363281 133.890625 138.175781 134.078125 C 137.984375 134.269531 137.78125 134.4375 137.558594 134.585938 C 137.335938 134.734375 137.101562 134.859375 136.855469 134.960938 C 136.605469 135.0625 136.351562 135.140625 136.089844 135.195312 C 135.828125 135.246094 135.5625 135.273438 135.296875 135.273438 C 135.03125 135.273438 134.765625 135.246094 134.503906 135.195312 C 134.242188 135.140625 133.988281 135.0625 133.738281 134.960938 C 133.492188 134.859375 133.257812 134.734375 133.035156 134.585938 C 132.8125 134.4375 132.609375 134.269531 132.417969 134.078125 C 132.230469 133.890625 132.0625 133.683594 131.914062 133.460938 C 131.765625 133.238281 131.640625 133.003906 131.539062 132.757812 C 131.433594 132.511719 131.359375 132.257812 131.304688 131.996094 C 131.253906 131.730469 131.226562 131.46875 131.226562 131.199219 C 131.226562 130.933594 131.253906 130.667969 131.304688 130.40625 C 131.359375 130.144531 131.433594 129.890625 131.539062 129.640625 C 131.640625 129.394531 131.765625 129.160156 131.914062 128.9375 C 132.0625 128.714844 132.230469 128.511719 132.417969 128.320312 C 132.609375 128.132812 132.8125 127.964844 133.035156 127.816406 C 133.257812 127.667969 133.492188 127.539062 133.738281 127.4375 C 133.988281 127.335938 134.242188 127.257812 134.503906 127.207031 C 134.765625 127.15625 135.03125 127.128906 135.296875 127.128906 C 135.5625 127.128906 135.828125 127.15625 136.089844 127.207031 C 136.351562 127.257812 136.605469 127.335938 136.855469 127.4375 C 137.101562 127.539062 137.335938 127.667969 137.558594 127.816406 C 137.78125 127.964844 137.984375 128.132812 138.175781 128.320312 C 138.363281 128.511719 138.53125 128.714844 138.679688 128.9375 C 138.828125 129.160156 138.953125 129.394531 139.058594 129.640625 C 139.160156 129.890625 139.234375 130.144531 139.289062 130.40625 C 139.339844 130.667969 139.367188 130.933594 139.367188 131.199219 Z M 139.367188 131.199219 " fill-opacity="1" fill-rule="nonzero"/></g><path fill="#54a3e6" d="M 147.917969 179.878906 L 149.777344 179.527344 C 154.125 178.707031 156.980469 174.519531 156.160156 170.171875 L 153.390625 155.476562 C 152.570312 151.132812 148.386719 148.273438 144.039062 149.089844 L 142.179688 149.441406 C 137.835938 150.261719 134.976562 154.453125 135.796875 158.796875 L 138.566406 173.492188 C 139.386719 177.839844 143.574219 180.699219 147.917969 179.878906 Z M 147.917969 179.878906 " fill-opacity="1" fill-rule="nonzero"/><g clip-path="url(#8d7c9efc28)"><path fill="#f6f6f6" d="M 235.632812 152.335938 C 239.515625 175.546875 221.929688 193.710938 196.875 197.902344 C 171.828125 202.09375 148.796875 190.730469 144.917969 167.515625 C 141.035156 144.300781 147.632812 120.097656 182.824219 113.835938 C 218.214844 107.539062 231.753906 129.121094 235.632812 152.335938 Z M 235.632812 152.335938 " fill-opacity="1" fill-rule="nonzero"/></g><path fill="#160e0b" d="M 170.234375 135.003906 C 170.234375 135.003906 155.082031 138.386719 154.015625 152.097656 C 153.011719 165.023438 155.328125 186.203125 180.757812 188.785156 C 206.191406 191.367188 224.460938 179.070312 226.882812 162.347656 C 229.304688 145.628906 221.933594 132.203125 212.199219 130.363281 C 198.816406 127.828125 170.234375 135.003906 170.234375 135.003906 Z M 170.234375 135.003906 " fill-opacity="1" fill-rule="nonzero"/><path fill="#54a3e6" d="M 184.027344 170.367188 C 186.609375 171.425781 189.414062 171.972656 192.199219 171.988281 C 193.574219 172 194.980469 171.863281 196.28125 171.40625 C 197.496094 170.976562 198.585938 170.347656 199.574219 169.527344 C 200.566406 168.710938 201.453125 167.617188 202.050781 166.441406 C 202.199219 166.15625 202.261719 165.835938 202.171875 165.515625 C 202.09375 165.238281 201.878906 164.933594 201.621094 164.796875 C 201.074219 164.507812 200.28125 164.632812 199.976562 165.230469 C 199.726562 165.71875 199.433594 166.179688 199.097656 166.617188 L 199.289062 166.375 C 198.8125 166.984375 198.261719 167.535156 197.648438 168.011719 L 197.894531 167.824219 C 197.265625 168.304688 196.582031 168.707031 195.855469 169.019531 L 196.140625 168.898438 C 195.398438 169.207031 194.625 169.410156 193.828125 169.519531 L 194.148438 169.476562 C 192.621094 169.675781 191.046875 169.601562 189.519531 169.398438 L 189.839844 169.441406 C 188.066406 169.195312 186.324219 168.730469 184.667969 168.050781 C 184.398438 167.941406 183.980469 168.03125 183.742188 168.171875 C 183.492188 168.316406 183.253906 168.601562 183.1875 168.890625 C 183.117188 169.199219 183.132812 169.542969 183.308594 169.816406 C 183.371094 169.898438 183.433594 169.976562 183.496094 170.058594 C 183.648438 170.207031 183.824219 170.3125 184.027344 170.367188 Z M 184.027344 170.367188 " fill-opacity="1" fill-rule="nonzero"/><path fill="#54a3e6" d="M 213.910156 160.121094 C 213.652344 160.121094 213.402344 160.058594 213.179688 159.9375 C 212.078125 159.597656 206.121094 158.175781 200.820312 156.949219 C 200.296875 156.828125 199.875 156.445312 199.707031 155.933594 C 199.535156 155.421875 199.648438 154.863281 199.996094 154.453125 C 203.410156 150.453125 207.167969 145.929688 207.695312 145.105469 C 207.976562 144.457031 208.683594 144.066406 209.40625 144.210938 C 210.238281 144.378906 210.777344 145.1875 210.609375 146.023438 C 210.527344 146.4375 210.378906 146.734375 209.015625 148.4375 C 208.347656 149.277344 207.421875 150.402344 206.273438 151.78125 C 205.460938 152.757812 204.644531 153.726562 203.96875 154.523438 C 205.101562 154.789062 206.5 155.117188 207.894531 155.449219 C 209.75 155.890625 211.230469 156.253906 212.296875 156.519531 C 212.9375 156.683594 213.4375 156.8125 213.78125 156.910156 C 213.988281 156.96875 214.144531 157.015625 214.261719 157.054688 C 214.359375 157.089844 214.4375 157.117188 214.511719 157.148438 C 215.070312 157.402344 215.425781 157.910156 215.453125 158.503906 C 215.484375 159.191406 215.050781 159.824219 214.394531 160.042969 C 214.234375 160.097656 214.070312 160.121094 213.910156 160.121094 Z M 213.417969 157.125 Z M 213.421875 157.125 Z M 213.425781 157.125 C 213.425781 157.125 213.421875 157.125 213.421875 157.125 C 213.421875 157.125 213.421875 157.125 213.425781 157.125 Z M 207.597656 145.417969 C 207.597656 145.417969 207.597656 145.417969 207.59375 145.417969 C 207.59375 145.417969 207.59375 145.417969 207.597656 145.417969 Z M 207.597656 145.414062 C 207.597656 145.414062 207.597656 145.417969 207.597656 145.417969 C 207.597656 145.417969 207.597656 145.414062 207.597656 145.414062 Z M 207.597656 145.414062 " fill-opacity="1" fill-rule="nonzero"/><path fill="#54a3e6" d="M 177.550781 157.023438 C 177.605469 157.535156 177.621094 158.046875 177.605469 158.554688 C 177.585938 159.0625 177.53125 159.5625 177.441406 160.046875 C 177.351562 160.535156 177.226562 161.003906 177.070312 161.449219 C 176.914062 161.894531 176.726562 162.3125 176.503906 162.703125 C 176.285156 163.089844 176.039062 163.441406 175.765625 163.757812 C 175.492188 164.074219 175.199219 164.347656 174.882812 164.578125 C 174.566406 164.808594 174.238281 164.992188 173.890625 165.132812 C 173.542969 165.269531 173.1875 165.355469 172.824219 165.394531 C 172.460938 165.433594 172.09375 165.421875 171.726562 165.359375 C 171.359375 165.296875 170.996094 165.183594 170.640625 165.023438 C 170.285156 164.863281 169.9375 164.65625 169.605469 164.40625 C 169.273438 164.152344 168.960938 163.859375 168.664062 163.523438 C 168.371094 163.191406 168.097656 162.820312 167.851562 162.417969 C 167.605469 162.011719 167.386719 161.582031 167.199219 161.125 C 167.007812 160.664062 166.851562 160.191406 166.730469 159.695312 C 166.605469 159.203125 166.515625 158.699219 166.464844 158.1875 C 166.410156 157.675781 166.390625 157.164062 166.410156 156.65625 C 166.429688 156.148438 166.484375 155.648438 166.574219 155.164062 C 166.664062 154.675781 166.785156 154.207031 166.945312 153.761719 C 167.101562 153.316406 167.289062 152.898438 167.507812 152.507812 C 167.730469 152.121094 167.976562 151.769531 168.25 151.453125 C 168.519531 151.136719 168.816406 150.863281 169.132812 150.632812 C 169.445312 150.402344 169.777344 150.21875 170.125 150.078125 C 170.472656 149.941406 170.828125 149.855469 171.191406 149.816406 C 171.554688 149.777344 171.921875 149.789062 172.289062 149.851562 C 172.65625 149.914062 173.015625 150.027344 173.375 150.1875 C 173.730469 150.347656 174.074219 150.554688 174.410156 150.804688 C 174.742188 151.058594 175.054688 151.351562 175.351562 151.6875 C 175.644531 152.019531 175.917969 152.390625 176.164062 152.792969 C 176.410156 153.199219 176.628906 153.628906 176.816406 154.085938 C 177.003906 154.542969 177.160156 155.019531 177.285156 155.515625 C 177.410156 156.007812 177.496094 156.511719 177.550781 157.023438 Z M 177.550781 157.023438 " fill-opacity="1" fill-rule="nonzero"/><path fill="#54a3e6" d="M 219.851562 210.34375 C 219.914062 210.265625 219.972656 210.1875 220.035156 210.109375 C 220.011719 210.136719 219.988281 210.167969 219.96875 210.195312 C 219.929688 210.246094 219.890625 210.292969 219.851562 210.34375 Z M 219.851562 210.34375 " fill-opacity="1" fill-rule="nonzero"/><path fill="#54a3e6" d="M 232.300781 199.695312 C 230.46875 200.699219 228.714844 201.847656 227.054688 203.121094 C 226.5 203.550781 225.957031 203.996094 225.429688 204.453125 C 223.628906 206.007812 221.96875 207.71875 220.46875 209.566406 C 219.9375 209.089844 219.335938 208.597656 218.667969 208.121094 C 219.257812 207.386719 219.875 206.671875 220.511719 205.980469 C 222.90625 203.394531 225.640625 201.113281 228.601562 199.199219 C 229.109375 198.871094 229.625 198.554688 230.144531 198.25 C 230.90625 198.726562 231.625 199.207031 232.300781 199.695312 Z M 232.300781 199.695312 " fill-opacity="1" fill-rule="nonzero"/><path fill="#54a3e6" d="M 169.753906 207.648438 C 169.054688 208.097656 168.417969 208.578125 167.851562 209.050781 C 167.332031 208.59375 166.796875 208.152344 166.253906 207.722656 C 165.75 207.339844 165.238281 206.96875 164.71875 206.609375 C 162.808594 205.304688 160.773438 204.1875 158.648438 203.277344 C 158.144531 203.070312 157.636719 202.871094 157.125 202.683594 C 155.8125 202.210938 154.476562 201.8125 153.117188 201.5 C 153.820312 200.894531 154.589844 200.292969 155.421875 199.695312 C 155.882812 199.828125 156.339844 199.96875 156.796875 200.121094 C 159.941406 201.160156 162.953125 202.621094 165.695312 204.476562 C 167.121094 205.4375 168.476562 206.496094 169.753906 207.648438 Z M 169.753906 207.648438 " fill-opacity="1" fill-rule="nonzero"/><g clip-path="url(#1cd4e73192)"><path fill="#1f2b5b" d="M 207.820312 204.386719 L 207.820312 201.164062 L 210.074219 201.164062 C 210.074219 201.164062 210.101562 202.671875 209.527344 203.28125 C 208.953125 203.886719 207.820312 204.386719 207.820312 204.386719 Z M 207.820312 204.386719 " fill-opacity="1" fill-rule="nonzero"/></g><g clip-path="url(#de828023a8)"><g clip-path="url(#40ace8caa8)"><path fill="url(#c31a66a61e)" d="M 204.074219 201.285156 L 204.074219 207.152344 L 210.074219 207.152344 L 210.074219 201.285156 Z M 204.074219 201.285156 " fill-rule="nonzero"/></g></g><g clip-path="url(#6e31fdaa26)"><path fill="#1f2b5b" d="M 210.074219 206.925781 L 210.074219 210.144531 L 207.820312 210.144531 C 207.820312 210.144531 207.792969 208.636719 208.367188 208.03125 C 208.941406 207.421875 210.074219 206.925781 210.074219 206.925781 Z M 210.074219 206.925781 " fill-opacity="1" fill-rule="nonzero"/></g><g clip-path="url(#7d3ef68fd2)"><g clip-path="url(#1d14cca209)"><path fill="url(#83cc621d3a)" d="M 213.820312 210.023438 L 213.820312 204.160156 L 207.820312 204.160156 L 207.820312 210.023438 Z M 213.820312 210.023438 " fill-rule="nonzero"/></g></g><g clip-path="url(#da7a3f3c6a)"><g clip-path="url(#63b24a2ecc)"><g clip-path="url(#37aad203a8)"><path fill="#002d75" d="M 198.195312 104.207031 C 198.253906 104.539062 198.289062 104.875 198.304688 105.203125 C 197.375 104.746094 196.394531 104.382812 195.390625 104.128906 C 190.34375 102.847656 185.246094 102.632812 180.242188 103.488281 C 175.234375 104.34375 170.496094 106.238281 166.164062 109.125 C 165.296875 109.699219 164.496094 110.367188 163.769531 111.109375 C 163.675781 110.792969 163.597656 110.464844 163.542969 110.132812 C 162.757812 105.542969 165.851562 101.171875 170.441406 100.386719 L 188.453125 97.308594 C 193.039062 96.523438 197.414062 99.617188 198.195312 104.207031 Z M 198.195312 104.207031 " fill-opacity="1" fill-rule="nonzero"/></g></g></g><g clip-path="url(#00fd141e20)"><g clip-path="url(#2401dcd23e)"><g clip-path="url(#1e05771cbb)"><path fill="#002d75" d="M 198.261719 106.601562 C 197.300781 106.082031 196.238281 105.65625 195.078125 105.359375 C 190.207031 104.121094 185.285156 103.914062 180.457031 104.742188 C 175.625 105.566406 171.050781 107.398438 166.867188 110.183594 C 165.871094 110.847656 165.011719 111.601562 164.277344 112.410156 C 164.121094 112.578125 163.96875 112.753906 163.824219 112.929688 C 165.601562 116.320312 169.417969 118.339844 173.394531 117.660156 L 180.578125 116.429688 L 180.414062 115.484375 L 178.140625 115.875 C 177.214844 116.03125 176.324219 115.34375 176.152344 114.339844 C 175.980469 113.332031 176.589844 112.386719 177.515625 112.230469 L 179.792969 111.839844 L 179.402344 109.5625 C 179.246094 108.640625 179.933594 107.75 180.9375 107.578125 C 181.945312 107.40625 182.890625 108.015625 183.046875 108.941406 L 183.4375 111.21875 L 185.714844 110.828125 C 186.636719 110.671875 187.527344 111.355469 187.699219 112.363281 C 187.871094 113.371094 187.261719 114.316406 186.335938 114.472656 L 184.0625 114.863281 L 184.222656 115.808594 L 191.40625 114.582031 C 195.382812 113.898438 198.3125 110.730469 198.859375 106.9375 C 198.664062 106.820312 198.464844 106.707031 198.261719 106.601562 Z M 198.261719 106.601562 " fill-opacity="1" fill-rule="nonzero"/></g></g></g><g clip-path="url(#c1cb139328)"><g clip-path="url(#d666b6a075)"><g clip-path="url(#33907ba760)"><path fill="#ffffff" d="M 198.859375 106.9375 C 198.664062 106.820312 198.464844 106.707031 198.261719 106.601562 C 197.839844 110.226562 195.078125 113.308594 191.296875 113.953125 L 184.113281 115.179688 L 184.328125 116.433594 L 191.511719 115.207031 C 195.664062 114.496094 198.75 111.238281 199.441406 107.308594 C 199.253906 107.183594 199.058594 107.058594 198.859375 106.9375 Z M 173.285156 117.03125 C 169.507812 117.679688 165.878906 115.691406 164.277344 112.410156 C 164.117188 112.578125 163.96875 112.753906 163.824219 112.929688 C 163.675781 113.109375 163.535156 113.289062 163.398438 113.472656 C 165.355469 116.949219 169.351562 118.996094 173.5 118.285156 L 180.683594 117.058594 L 180.46875 115.804688 L 173.289062 117.03125 Z M 173.285156 117.03125 " fill-opacity="1" fill-rule="nonzero"/></g></g></g><g clip-path="url(#edd8e41a99)"><g clip-path="url(#024eedf6e7)"><g clip-path="url(#ae2436d35b)"><path fill="#002d75" d="M 204.449219 113.183594 C 203.589844 111.21875 201.917969 108.96875 199.441406 107.3125 C 199.253906 107.183594 199.058594 107.058594 198.859375 106.9375 C 198.664062 106.820312 198.464844 106.707031 198.261719 106.601562 C 197.300781 106.082031 196.238281 105.65625 195.078125 105.359375 C 190.207031 104.121094 185.285156 103.914062 180.457031 104.742188 C 175.625 105.566406 171.050781 107.398438 166.867188 110.183594 C 165.871094 110.847656 165.011719 111.601562 164.277344 112.410156 C 164.121094 112.578125 163.96875 112.753906 163.824219 112.929688 C 163.675781 113.109375 163.535156 113.289062 163.398438 113.472656 C 161.617188 115.859375 160.785156 118.539062 160.628906 120.675781 C 160.441406 123.242188 161.105469 125.417969 162.460938 126.640625 C 163.226562 127.351562 164.042969 127.84375 164.871094 128.167969 C 165.074219 128.164062 165.5625 128.152344 166.226562 128.085938 L 166.230469 128.085938 C 166.605469 128.046875 167.039062 127.988281 167.511719 127.910156 C 169.886719 127.503906 173.210938 126.464844 175 123.796875 C 175.167969 123.550781 175.320312 123.289062 175.457031 123.011719 C 175.613281 122.699219 175.996094 122.570312 176.3125 122.726562 C 176.625 122.882812 176.753906 123.265625 176.597656 123.578125 C 175.34375 126.09375 173.089844 127.53125 170.878906 128.351562 C 172.226562 127.996094 173.574219 127.402344 174.832031 126.609375 C 177.519531 124.820312 180.46875 123.636719 183.59375 123.101562 C 186.714844 122.570312 189.894531 122.703125 193.039062 123.503906 C 194.855469 123.917969 196.722656 123.984375 198.421875 123.695312 C 200.441406 123.347656 203.167969 122.328125 204.699219 119.421875 C 205.574219 117.816406 205.480469 115.542969 204.449219 113.183594 Z M 178.566406 120.890625 C 178.09375 121.5625 177.160156 121.722656 176.492188 121.246094 C 175.816406 120.769531 175.660156 119.839844 176.136719 119.167969 C 176.609375 118.496094 177.539062 118.339844 178.210938 118.8125 C 178.882812 119.289062 179.042969 120.222656 178.566406 120.890625 Z M 184.449219 117.140625 C 184.609375 118.0625 183.917969 118.953125 182.914062 119.125 C 181.90625 119.296875 180.960938 118.6875 180.804688 117.761719 L 180.414062 115.484375 L 178.140625 115.875 C 177.214844 116.035156 176.324219 115.34375 176.152344 114.339844 C 175.980469 113.332031 176.589844 112.386719 177.515625 112.230469 L 179.792969 111.839844 L 179.402344 109.566406 C 179.246094 108.640625 179.933594 107.75 180.9375 107.578125 C 181.945312 107.40625 182.890625 108.015625 183.046875 108.941406 L 183.4375 111.21875 L 185.714844 110.828125 C 186.636719 110.671875 187.527344 111.359375 187.699219 112.363281 C 187.871094 113.371094 187.261719 114.316406 186.335938 114.472656 L 184.0625 114.863281 Z M 184.449219 117.140625 " fill-opacity="1" fill-rule="nonzero"/><path fill="#002d75" d="M 204.449219 113.183594 C 203.589844 111.21875 201.917969 108.96875 199.441406 107.3125 C 199.253906 107.183594 199.058594 107.058594 198.859375 106.9375 C 198.664062 106.820312 198.464844 106.707031 198.261719 106.601562 C 197.300781 106.082031 196.238281 105.65625 195.078125 105.359375 C 190.207031 104.121094 185.285156 103.914062 180.457031 104.742188 C 175.625 105.566406 171.050781 107.398438 166.867188 110.183594 C 165.871094 110.847656 165.011719 111.601562 164.277344 112.410156 C 164.121094 112.578125 163.96875 112.753906 163.824219 112.929688 C 163.675781 113.109375 163.535156 113.289062 163.398438 113.472656 C 161.617188 115.859375 160.785156 118.539062 160.628906 120.675781 C 160.441406 123.242188 161.105469 125.417969 162.460938 126.640625 C 163.226562 127.351562 164.042969 127.84375 164.871094 128.167969 C 165.074219 128.164062 165.5625 128.152344 166.226562 128.085938 L 166.230469 128.085938 C 166.605469 128.046875 167.039062 127.988281 167.511719 127.910156 C 169.886719 127.503906 173.210938 126.464844 175 123.796875 C 175.167969 123.550781 175.320312 123.289062 175.457031 123.011719 C 175.613281 122.699219 175.996094 122.570312 176.3125 122.726562 C 176.625 122.882812 176.753906 123.265625 176.597656 123.578125 C 175.34375 126.09375 173.089844 127.53125 170.878906 128.351562 C 172.226562 127.996094 173.574219 127.402344 174.832031 126.609375 C 177.519531 124.820312 180.46875 123.636719 183.59375 123.101562 C 186.714844 122.570312 189.894531 122.703125 193.039062 123.503906 C 194.855469 123.917969 196.722656 123.984375 198.421875 123.695312 C 200.441406 123.347656 203.167969 122.328125 204.699219 119.421875 C 205.574219 117.816406 205.480469 115.542969 204.449219 113.183594 Z M 178.566406 120.890625 C 178.09375 121.5625 177.160156 121.722656 176.492188 121.246094 C 175.816406 120.769531 175.660156 119.839844 176.136719 119.167969 C 176.609375 118.496094 177.539062 118.339844 178.210938 118.8125 C 178.882812 119.289062 179.042969 120.222656 178.566406 120.890625 Z M 184.449219 117.140625 C 184.609375 118.0625 183.917969 118.953125 182.914062 119.125 C 181.90625 119.296875 180.960938 118.6875 180.804688 117.761719 L 180.414062 115.484375 L 178.140625 115.875 C 177.214844 116.035156 176.324219 115.34375 176.152344 114.339844 C 175.980469 113.332031 176.589844 112.386719 177.515625 112.230469 L 179.792969 111.839844 L 179.402344 109.566406 C 179.246094 108.640625 179.933594 107.75 180.9375 107.578125 C 181.945312 107.40625 182.890625 108.015625 183.046875 108.941406 L 183.4375 111.21875 L 185.714844 110.828125 C 186.636719 110.671875 187.527344 111.359375 187.699219 112.363281 C 187.871094 113.371094 187.261719 114.316406 186.335938 114.472656 L 184.0625 114.863281 Z M 184.449219 117.140625 " fill-opacity="1" fill-rule="nonzero"/></g></g></g><g clip-path="url(#62d78a0d34)"><g clip-path="url(#f5886c30fa)"><g clip-path="url(#c9ab7affdd)"><path fill="#002d75" d="M 175 123.796875 C 173.207031 126.464844 169.886719 127.503906 167.511719 127.910156 C 167.039062 127.988281 166.605469 128.046875 166.230469 128.085938 Z M 175 123.796875 " fill-opacity="1" fill-rule="nonzero"/></g></g></g><g clip-path="url(#15be0cae72)"><g clip-path="url(#7c5f65383a)"><g clip-path="url(#78efde473f)"><g clip-path="url(#6a1505e561)"><path fill="#b1b7bc" d="M 136.652344 196.738281 C 136.574219 196.644531 136.585938 196.507812 136.679688 196.429688 L 138.894531 194.621094 C 138.988281 194.542969 139.128906 194.554688 139.207031 194.652344 L 145.269531 202.011719 C 145.347656 202.105469 145.335938 202.242188 145.238281 202.320312 L 143.027344 204.128906 C 142.933594 204.207031 142.792969 204.191406 142.714844 204.101562 L 136.652344 196.738281 " fill-opacity="1" fill-rule="nonzero"/><path stroke-linecap="round" transform="matrix(0.0240714, 0.00523292, 0.00521475, -0.0239878, 91.356846, 255.28267)" fill="none" stroke-linejoin="round" d="M 1291.937004 2722.420605 C 1288.029456 2725.476409 1287.315317 2731.020123 1290.36051 2734.941286 L 1362.623203 2826.10158 C 1365.668396 2830.022743 1371.347815 2830.773173 1375.289049 2827.561875 L 1679.242403 2587.072854 C 1683.149952 2584.017051 1683.86409 2578.473337 1680.663943 2574.51837 L 1608.556204 2483.391879 C 1605.511011 2479.470716 1599.797906 2478.875781 1595.924044 2481.77609 Z M 1291.937004 2722.420605 " stroke="#24578f" stroke-width="30" stroke-opacity="1" stroke-miterlimit="10"/></g></g></g></g><g clip-path="url(#555723be90)"><g clip-path="url(#941c146a6d)"><g clip-path="url(#e40fbbc9df)"><g clip-path="url(#1e1043e167)"><path fill="#b1b7bc" d="M 140.316406 204.644531 C 140.238281 204.550781 140.25 204.414062 140.34375 204.335938 L 145.960938 199.738281 C 146.054688 199.660156 146.191406 199.675781 146.269531 199.769531 L 162.449219 219.402344 C 162.527344 219.496094 162.515625 219.632812 162.417969 219.710938 L 156.804688 224.308594 C 156.710938 224.382812 156.570312 224.371094 156.492188 224.277344 L 140.316406 204.644531 " fill-opacity="1" fill-rule="nonzero"/></g></g></g></g><g clip-path="url(#38f0d85ca8)"><g clip-path="url(#ead993314b)"><g clip-path="url(#be4c69dc7e)"><g clip-path="url(#c50e57249a)"><path stroke-linecap="round" transform="matrix(0.0240714, 0.00523292, 0.00521475, -0.0239878, 91.356846, 255.28267)" fill="none" stroke-linejoin="round" d="M 1505.464302 2439.407241 C 1501.556754 2442.463044 1500.842616 2448.006758 1503.887809 2451.927922 L 1687.064237 2683.553761 C 1690.10943 2687.474924 1695.66758 2688.036056 1699.575128 2684.980253 L 2510.701292 2043.477885 C 2514.60884 2040.422081 2515.322979 2034.878367 2512.122831 2030.9234 L 2329.101358 1799.331365 C 2326.022479 1795.565695 2320.34306 1794.815266 2316.435512 1797.871069 Z M 1505.464302 2439.407241 " stroke="#24578f" stroke-width="30" stroke-opacity="1" stroke-miterlimit="10"/></g></g></g></g><g clip-path="url(#4bd2e1f6a9)"><g clip-path="url(#1d4818e776)"><g clip-path="url(#df181efb1e)"><g clip-path="url(#3dbffa4781)"><path fill="#72c3ee" d="M 143.375 206.683594 C 143.320312 206.617188 143.328125 206.515625 143.394531 206.460938 L 147.460938 203.136719 C 147.527344 203.078125 147.628906 203.089844 147.683594 203.15625 L 159.390625 217.363281 C 159.445312 217.429688 159.4375 217.527344 159.367188 217.585938 L 155.304688 220.910156 C 155.238281 220.964844 155.136719 220.957031 155.082031 220.886719 L 143.375 206.683594 " fill-opacity="1" fill-rule="nonzero"/></g></g></g></g><g clip-path="url(#dfc20f95e6)"><g clip-path="url(#4685f1d4c6)"><g clip-path="url(#bf525006a7)"><g clip-path="url(#5595fca41c)"><path stroke-linecap="round" transform="matrix(0.0240714, 0.00523292, 0.00521475, -0.0239878, 91.356846, 255.28267)" fill="none" stroke-linejoin="round" d="M 1644.377641 2384.707008 C 1641.635621 2386.877169 1641.0697 2390.987631 1643.232326 2393.739206 L 1775.873376 2561.25402 C 1778.002316 2564.161089 1782.13219 2564.573487 1784.874211 2562.403326 L 2371.787953 2098.178117 C 2374.529974 2096.007956 2375.062209 2092.052989 2372.778315 2089.112117 L 2240.292219 1921.631106 C 2238.129593 1918.879531 2234.033404 1918.311638 2231.257698 1920.637294 Z M 1644.377641 2384.707008 " stroke="#24578f" stroke-width="30" stroke-opacity="1" stroke-miterlimit="10"/></g></g></g></g><g clip-path="url(#e05c12742b)"><g clip-path="url(#2524ca4a4c)"><g clip-path="url(#b0917cf688)"><g clip-path="url(#c84bd7d669)"><path fill="#b1b7bc" d="M 158.734375 223.367188 L 161.117188 221.417969 L 171.328125 233.804688 L 168.945312 235.757812 L 158.734375 223.367188 " fill-opacity="1" fill-rule="nonzero"/></g></g></g></g><g clip-path="url(#7d529ad743)"><g clip-path="url(#95e84164b8)"><g clip-path="url(#d5482b4dc3)"><g clip-path="url(#2bef386719)"><path stroke-linecap="round" transform="matrix(0.0240714, 0.00523292, 0.00521475, -0.0239878, 91.356846, 255.28267)" fill="none" stroke-linejoin="round" d="M 2397.530611 1853.504268 L 2475.243661 1951.715895 L 2987.112266 1547.004485 L 2909.432902 1448.637364 Z M 2397.530611 1853.504268 " stroke="#24578f" stroke-width="30" stroke-opacity="1" stroke-miterlimit="10"/></g></g></g></g><g clip-path="url(#7ff1109674)"><g clip-path="url(#cb75801263)"><g clip-path="url(#aae6bdd287)"><g clip-path="url(#f21be01318)"><path fill="#b1b7bc" d="M 167.296875 237.386719 C 167.222656 237.296875 167.234375 237.15625 167.328125 237.078125 L 172.945312 232.484375 C 173.039062 232.40625 173.175781 232.417969 173.253906 232.511719 L 174.46875 233.984375 C 174.546875 234.078125 174.53125 234.21875 174.4375 234.296875 L 168.820312 238.890625 C 168.726562 238.96875 168.585938 238.953125 168.507812 238.859375 L 167.296875 237.386719 " fill-opacity="1" fill-rule="nonzero"/></g></g></g></g><g clip-path="url(#403e8268ef)"><g clip-path="url(#ab58b6100a)"><g clip-path="url(#64616ba8fd)"><g clip-path="url(#0a43ff49cc)"><path stroke-linecap="round" transform="matrix(0.0240714, 0.00523292, 0.00521475, -0.0239878, 91.356846, 255.28267)" fill="none" stroke-linejoin="round" d="M 2858.089066 1369.531268 C 2854.370158 1372.46538 2853.622334 1378.164589 2856.667527 1382.085752 L 3039.877641 1613.556097 C 3042.922834 1617.47726 3048.447298 1618.193887 3052.354846 1615.138083 L 3113.245227 1567.029462 C 3117.152775 1563.973659 3117.745645 1558.240647 3114.700452 1554.319484 L 2931.490338 1322.849139 C 2928.445145 1318.927975 2922.73204 1318.33304 2918.824492 1321.388844 Z M 2858.089066 1369.531268 " stroke="#24578f" stroke-width="30" stroke-opacity="1" stroke-miterlimit="10"/></g></g></g></g><g clip-path="url(#263c36b38e)"><g clip-path="url(#4f8013aaeb)"><g clip-path="url(#938e4d2d99)"><g clip-path="url(#fa03f68cc8)"><path fill="#b1b7bc" d="M 153.886719 225.699219 C 153.8125 225.601562 153.824219 225.464844 153.917969 225.386719 L 164.042969 217.101562 C 164.136719 217.023438 164.277344 217.039062 164.355469 217.128906 L 165.335938 218.320312 C 165.414062 218.414062 165.398438 218.554688 165.304688 218.632812 L 155.179688 226.917969 C 155.085938 226.996094 154.945312 226.984375 154.871094 226.886719 L 153.886719 225.699219 " fill-opacity="1" fill-rule="nonzero"/></g></g></g></g><g clip-path="url(#89f3aeb3af)"><g clip-path="url(#ed90e4bffe)"><g clip-path="url(#2234364d2a)"><g clip-path="url(#ea4ab1c3c8)"><path stroke-linecap="round" transform="matrix(0.0240714, 0.00523292, 0.00521475, -0.0239878, 91.356846, 255.28267)" fill="none" stroke-linejoin="round" d="M 2225.342478 1718.72441 C 2221.556199 1721.969511 2220.842061 1727.513225 2223.887253 1731.434389 L 2554.081814 2148.855777 C 2557.127007 2152.77694 2562.840112 2153.371875 2566.713975 2150.471566 L 2615.881711 2111.530355 C 2619.789259 2108.474552 2620.382128 2102.74154 2617.336936 2098.820377 L 2287.142374 1681.398989 C 2284.097182 1677.477825 2278.417762 1676.727395 2274.631483 1679.972496 Z M 2225.342478 1718.72441 " stroke="#24578f" stroke-width="30" stroke-opacity="1" stroke-miterlimit="10"/></g></g></g></g><g clip-path="url(#71a971ae0d)"><g clip-path="url(#15660af286)"><g clip-path="url(#e8d94e0610)"><g clip-path="url(#e3575d6bc3)"><path fill="#b1b7bc" d="M 137.789062 195.527344 L 134.707031 191.789062 " fill-opacity="1" fill-rule="nonzero"/></g></g></g></g><g clip-path="url(#234b1caff5)"><g clip-path="url(#fc9bd28c8c)"><g clip-path="url(#03c1a26367)"><g clip-path="url(#140d8e7317)"><path stroke-linecap="round" transform="matrix(0.0240714, 0.00523292, 0.00521475, -0.0239878, 91.356846, 255.28267)" fill="none" stroke-linejoin="round" d="M 1326.586177 2780.460587 L 1172.089805 2902.598074 " stroke="#24578f" stroke-width="30" stroke-opacity="1" stroke-miterlimit="10"/></g></g></g></g><g clip-path="url(#4f69302f25)"><g clip-path="url(#100075dd70)"><g clip-path="url(#059cf82b26)"><g clip-path="url(#c3797d4980)"><path fill="#b1b7bc" d="M 154.757812 216.902344 L 152.832031 218.480469 " fill-opacity="1" fill-rule="nonzero"/></g></g></g></g><g clip-path="url(#fed58aa968)"><g clip-path="url(#10f1902c1b)"><g clip-path="url(#3d23ab0b4d)"><g clip-path="url(#1d483f18bc)"><path stroke-linecap="round" transform="matrix(0.0240714, 0.00523292, 0.00521475, -0.0239878, 91.356846, 255.28267)" fill="none" stroke-linejoin="round" d="M 2184.036999 2076.435941 L 2121.253478 1996.95125 " stroke="#24578f" stroke-width="30" stroke-opacity="1" stroke-miterlimit="10"/></g></g></g></g><g clip-path="url(#d6ba20cdb1)"><g clip-path="url(#96b77b787a)"><g clip-path="url(#ae564940e1)"><g clip-path="url(#c29fe40bb8)"><path fill="#b1b7bc" d="M 151.820312 213.332031 L 149.890625 214.914062 " fill-opacity="1" fill-rule="nonzero"/></g></g></g></g><g clip-path="url(#612eb41a6c)"><g clip-path="url(#bfb2465d2f)"><g clip-path="url(#47107f7f1e)"><g clip-path="url(#5de253722d)"><path stroke-linecap="round" transform="matrix(0.0240714, 0.00523292, 0.00521475, -0.0239878, 91.356846, 255.28267)" fill="none" stroke-linejoin="round" d="M 2036.722431 2193.137883 L 1973.817642 2113.463895 " stroke="#24578f" stroke-width="30" stroke-opacity="1" stroke-miterlimit="10"/></g></g></g></g><g clip-path="url(#1695c95ca3)"><g clip-path="url(#6e0f29e380)"><g clip-path="url(#ad1fd006e3)"><g clip-path="url(#8bf054b19d)"><path fill="#b1b7bc" d="M 148.882812 209.765625 L 146.953125 211.34375 " fill-opacity="1" fill-rule="nonzero"/></g></g></g></g><g clip-path="url(#df33b74b86)"><g clip-path="url(#7ca11d9ce6)"><g clip-path="url(#a29b7ad65f)"><g clip-path="url(#12ec6e463c)"><path stroke-linecap="round" transform="matrix(0.0240714, 0.00523292, 0.00521475, -0.0239878, 91.356846, 255.28267)" fill="none" stroke-linejoin="round" d="M 1889.441549 2309.684331 L 1826.503074 2230.165837 " stroke="#24578f" stroke-width="30" stroke-opacity="1" stroke-miterlimit="10"/></g></g></g></g><g clip-path="url(#80e18c55f2)"><g clip-path="url(#1992f625c5)"><g clip-path="url(#e31a56d535)"><g clip-path="url(#eed43b4020)"><path stroke-linecap="round" transform="matrix(0.0240714, 0.00523292, 0.00521475, -0.0239878, 91.356846, 255.28267)" fill="none" stroke-linejoin="round" d="M 1369.306458 2764.539311 L 1556.727293 2609.524896 " stroke="#ffffff" stroke-width="30" stroke-opacity="1" stroke-miterlimit="10"/></g></g></g></g><g clip-path="url(#ad806fa630)"><g clip-path="url(#fe219dfcc7)"><g clip-path="url(#c8ef69bf79)"><g clip-path="url(#7309634486)"><path stroke-linecap="round" transform="matrix(0.0240714, 0.00523292, 0.00521475, -0.0239878, 91.356846, 255.28267)" fill="none" stroke-linejoin="round" d="M 1776.789629 2479.869593 L 2286.832465 2089.5786 " stroke="#ffffff" stroke-width="30" stroke-opacity="1" stroke-miterlimit="10"/></g></g></g></g><g clip-path="url(#28026beeb2)"><g clip-path="url(#9442652c68)"><g clip-path="url(#aa6ad24aa7)"><g clip-path="url(#9525a9e068)"><path stroke-linecap="round" transform="matrix(0.0240714, 0.00523292, 0.00521475, -0.0239878, 91.356846, 255.28267)" fill="none" stroke-linejoin="round" d="M 2486.717031 1869.540475 L 2916.850506 1524.51188 " stroke="#ffffff" stroke-width="30" stroke-opacity="1" stroke-miterlimit="10"/></g></g></g></g><g clip-path="url(#ee5ea5ed23)"><g clip-path="url(#ea5212ec86)"><g clip-path="url(#7c0b54d0d3)"><g clip-path="url(#0125b85a53)"><path stroke-linecap="round" transform="matrix(0.0240714, 0.00523292, 0.00521475, -0.0239878, 91.356846, 255.28267)" fill="none" stroke-linejoin="round" d="M 3052.718653 1567.015941 L 3070.033134 1554.508781 L 2949.916449 1406.336121 " stroke="#ffffff" stroke-width="30" stroke-opacity="1" stroke-miterlimit="10"/></g></g></g></g></svg>