<svg xmlns="http://www.w3.org/2000/svg" xmlns:xlink="http://www.w3.org/1999/xlink" width="500" zoomAndPan="magnify" viewBox="0 0 375 374.999991" height="500" preserveAspectRatio="xMidYMid meet" version="1.0"><defs><clipPath id="4245b7a404"><path d="M 232 118 L 240.96875 118 L 240.96875 127 L 232 127 Z M 232 118 " clip-rule="nonzero"/></clipPath><clipPath id="5de634ab95"><path d="M 223 142 L 240.96875 142 L 240.96875 174 L 223 174 Z M 223 142 " clip-rule="nonzero"/></clipPath><clipPath id="c35b0a20f5"><path d="M 133.71875 118 L 142 118 L 142 127 L 133.71875 127 Z M 133.71875 118 " clip-rule="nonzero"/></clipPath><clipPath id="b090d5049f"><path d="M 163 230 L 185 230 L 185 262.5 L 163 262.5 Z M 163 230 " clip-rule="nonzero"/></clipPath><clipPath id="95479b1c47"><path d="M 141 112.5 L 234 112.5 L 234 199 L 141 199 Z M 141 112.5 " clip-rule="nonzero"/></clipPath><clipPath id="d3c7a49ef9"><path d="M 192 230 L 214 230 L 214 262.5 L 192 262.5 Z M 192 230 " clip-rule="nonzero"/></clipPath><clipPath id="2226116f32"><path d="M 200 195.054688 L 203 195.054688 L 203 199 L 200 199 Z M 200 195.054688 " clip-rule="nonzero"/></clipPath><clipPath id="02c6badb94"><path d="M 196.445312 195.054688 L 203 195.054688 L 203 202 L 196.445312 202 Z M 196.445312 195.054688 " clip-rule="nonzero"/></clipPath><clipPath id="8e5fa73092"><path d="M 202.445312 195.183594 C 202.445312 195.582031 202.398438 196.898438 201.753906 198.183594 C 201.546875 198.589844 201.285156 198.988281 200.945312 199.359375 C 200.0625 200.3125 198.660156 201.050781 196.445312 201.050781 L 196.445312 198.804688 C 198.078125 198.804688 199.269531 198.554688 200.136719 198.183594 C 200.445312 198.050781 200.710938 197.90625 200.945312 197.746094 C 202.308594 196.824219 202.4375 195.574219 202.445312 195.183594 Z M 202.445312 195.183594 " clip-rule="nonzero"/></clipPath><linearGradient x1="0.000136873" gradientTransform="matrix(0.0249488, 0, 0, 0.0249079, 196.44409, 195.062485)" y1="122.636002" x2="240.600143" gradientUnits="userSpaceOnUse" y2="122.636002" id="bc51cdfded"><stop stop-opacity="1" stop-color="rgb(23.919678%, 74.119568%, 92.549133%)" offset="0"/><stop stop-opacity="1" stop-color="rgb(23.919678%, 74.119568%, 92.549133%)" offset="0.03125"/><stop stop-opacity="1" stop-color="rgb(23.953247%, 74.008179%, 92.579651%)" offset="0.046875"/><stop stop-opacity="1" stop-color="rgb(24.01886%, 73.800659%, 92.637634%)" offset="0.0546875"/><stop stop-opacity="1" stop-color="rgb(24.079895%, 73.603821%, 92.692566%)" offset="0.0625"/><stop stop-opacity="1" stop-color="rgb(24.171448%, 73.310852%, 92.774963%)" offset="0.078125"/><stop stop-opacity="1" stop-color="rgb(24.263%, 73.016357%, 92.855835%)" offset="0.0859375"/><stop stop-opacity="1" stop-color="rgb(24.324036%, 72.821045%, 92.910767%)" offset="0.09375"/><stop stop-opacity="1" stop-color="rgb(24.385071%, 72.624207%, 92.965698%)" offset="0.101562"/><stop stop-opacity="1" stop-color="rgb(24.446106%, 72.428894%, 93.02063%)" offset="0.109375"/><stop stop-opacity="1" stop-color="rgb(24.507141%, 72.232056%, 93.075562%)" offset="0.117187"/><stop stop-opacity="1" stop-color="rgb(24.568176%, 72.036743%, 93.128967%)" offset="0.125"/><stop stop-opacity="1" stop-color="rgb(24.629211%, 71.839905%, 93.183899%)" offset="0.132812"/><stop stop-opacity="1" stop-color="rgb(24.690247%, 71.644592%, 93.238831%)" offset="0.140625"/><stop stop-opacity="1" stop-color="rgb(24.751282%, 71.44928%, 93.293762%)" offset="0.148438"/><stop stop-opacity="1" stop-color="rgb(24.812317%, 71.252441%, 93.348694%)" offset="0.15625"/><stop stop-opacity="1" stop-color="rgb(24.873352%, 71.057129%, 93.403625%)" offset="0.164062"/><stop stop-opacity="1" stop-color="rgb(24.934387%, 70.860291%, 93.457031%)" offset="0.171875"/><stop stop-opacity="1" stop-color="rgb(24.995422%, 70.664978%, 93.511963%)" offset="0.179688"/><stop stop-opacity="1" stop-color="rgb(25.056458%, 70.46814%, 93.566895%)" offset="0.1875"/><stop stop-opacity="1" stop-color="rgb(25.14801%, 70.175171%, 93.649292%)" offset="0.203125"/><stop stop-opacity="1" stop-color="rgb(25.239563%, 69.880676%, 93.730164%)" offset="0.210938"/><stop stop-opacity="1" stop-color="rgb(25.300598%, 69.685364%, 93.785095%)" offset="0.21875"/><stop stop-opacity="1" stop-color="rgb(25.361633%, 69.488525%, 93.840027%)" offset="0.226562"/><stop stop-opacity="1" stop-color="rgb(25.422668%, 69.293213%, 93.894958%)" offset="0.234375"/><stop stop-opacity="1" stop-color="rgb(25.483704%, 69.096375%, 93.94989%)" offset="0.242188"/><stop stop-opacity="1" stop-color="rgb(25.544739%, 68.901062%, 94.004822%)" offset="0.25"/><stop stop-opacity="1" stop-color="rgb(25.605774%, 68.70575%, 94.058228%)" offset="0.257812"/><stop stop-opacity="1" stop-color="rgb(25.666809%, 68.508911%, 94.113159%)" offset="0.265625"/><stop stop-opacity="1" stop-color="rgb(25.727844%, 68.313599%, 94.168091%)" offset="0.273438"/><stop stop-opacity="1" stop-color="rgb(25.788879%, 68.11676%, 94.223022%)" offset="0.28125"/><stop stop-opacity="1" stop-color="rgb(25.849915%, 67.921448%, 94.277954%)" offset="0.289063"/><stop stop-opacity="1" stop-color="rgb(25.91095%, 67.724609%, 94.33136%)" offset="0.296875"/><stop stop-opacity="1" stop-color="rgb(26.002502%, 67.431641%, 94.413757%)" offset="0.3125"/><stop stop-opacity="1" stop-color="rgb(26.094055%, 67.137146%, 94.496155%)" offset="0.320312"/><stop stop-opacity="1" stop-color="rgb(26.15509%, 66.941833%, 94.551086%)" offset="0.328125"/><stop stop-opacity="1" stop-color="rgb(26.216125%, 66.744995%, 94.604492%)" offset="0.335937"/><stop stop-opacity="1" stop-color="rgb(26.277161%, 66.549683%, 94.659424%)" offset="0.34375"/><stop stop-opacity="1" stop-color="rgb(26.338196%, 66.352844%, 94.714355%)" offset="0.351563"/><stop stop-opacity="1" stop-color="rgb(26.399231%, 66.157532%, 94.769287%)" offset="0.359375"/><stop stop-opacity="1" stop-color="rgb(26.460266%, 65.962219%, 94.824219%)" offset="0.367188"/><stop stop-opacity="1" stop-color="rgb(26.521301%, 65.765381%, 94.87915%)" offset="0.375"/><stop stop-opacity="1" stop-color="rgb(26.582336%, 65.570068%, 94.932556%)" offset="0.382812"/><stop stop-opacity="1" stop-color="rgb(26.643372%, 65.37323%, 94.987488%)" offset="0.390625"/><stop stop-opacity="1" stop-color="rgb(26.704407%, 65.177917%, 95.042419%)" offset="0.398437"/><stop stop-opacity="1" stop-color="rgb(26.765442%, 64.981079%, 95.097351%)" offset="0.40625"/><stop stop-opacity="1" stop-color="rgb(26.826477%, 64.785767%, 95.152283%)" offset="0.414063"/><stop stop-opacity="1" stop-color="rgb(26.887512%, 64.588928%, 95.205688%)" offset="0.421875"/><stop stop-opacity="1" stop-color="rgb(26.979065%, 64.295959%, 95.288086%)" offset="0.4375"/><stop stop-opacity="1" stop-color="rgb(27.070618%, 64.001465%, 95.370483%)" offset="0.445312"/><stop stop-opacity="1" stop-color="rgb(27.131653%, 63.806152%, 95.425415%)" offset="0.453125"/><stop stop-opacity="1" stop-color="rgb(27.192688%, 63.609314%, 95.478821%)" offset="0.460937"/><stop stop-opacity="1" stop-color="rgb(27.253723%, 63.414001%, 95.533752%)" offset="0.46875"/><stop stop-opacity="1" stop-color="rgb(27.314758%, 63.217163%, 95.588684%)" offset="0.476563"/><stop stop-opacity="1" stop-color="rgb(27.375793%, 63.021851%, 95.643616%)" offset="0.484375"/><stop stop-opacity="1" stop-color="rgb(27.436829%, 62.826538%, 95.698547%)" offset="0.492188"/><stop stop-opacity="1" stop-color="rgb(27.497864%, 62.6297%, 95.753479%)" offset="0.5"/><stop stop-opacity="1" stop-color="rgb(27.558899%, 62.434387%, 95.806885%)" offset="0.507812"/><stop stop-opacity="1" stop-color="rgb(27.619934%, 62.237549%, 95.861816%)" offset="0.515625"/><stop stop-opacity="1" stop-color="rgb(27.680969%, 62.042236%, 95.916748%)" offset="0.523438"/><stop stop-opacity="1" stop-color="rgb(27.742004%, 61.845398%, 95.97168%)" offset="0.53125"/><stop stop-opacity="1" stop-color="rgb(27.833557%, 61.552429%, 96.052551%)" offset="0.546875"/><stop stop-opacity="1" stop-color="rgb(27.92511%, 61.257935%, 96.134949%)" offset="0.554688"/><stop stop-opacity="1" stop-color="rgb(27.986145%, 61.062622%, 96.18988%)" offset="0.5625"/><stop stop-opacity="1" stop-color="rgb(28.04718%, 60.865784%, 96.244812%)" offset="0.570312"/><stop stop-opacity="1" stop-color="rgb(28.108215%, 60.670471%, 96.299744%)" offset="0.578125"/><stop stop-opacity="1" stop-color="rgb(28.16925%, 60.473633%, 96.353149%)" offset="0.585938"/><stop stop-opacity="1" stop-color="rgb(28.230286%, 60.27832%, 96.408081%)" offset="0.59375"/><stop stop-opacity="1" stop-color="rgb(28.291321%, 60.083008%, 96.463013%)" offset="0.601562"/><stop stop-opacity="1" stop-color="rgb(28.352356%, 59.886169%, 96.517944%)" offset="0.609375"/><stop stop-opacity="1" stop-color="rgb(28.413391%, 59.690857%, 96.572876%)" offset="0.617188"/><stop stop-opacity="1" stop-color="rgb(28.474426%, 59.494019%, 96.627808%)" offset="0.625"/><stop stop-opacity="1" stop-color="rgb(28.535461%, 59.298706%, 96.681213%)" offset="0.632812"/><stop stop-opacity="1" stop-color="rgb(28.596497%, 59.101868%, 96.736145%)" offset="0.640625"/><stop stop-opacity="1" stop-color="rgb(28.688049%, 58.808899%, 96.818542%)" offset="0.65625"/><stop stop-opacity="1" stop-color="rgb(28.779602%, 58.514404%, 96.90094%)" offset="0.664062"/><stop stop-opacity="1" stop-color="rgb(28.840637%, 58.319092%, 96.954346%)" offset="0.671875"/><stop stop-opacity="1" stop-color="rgb(28.901672%, 58.122253%, 97.009277%)" offset="0.679688"/><stop stop-opacity="1" stop-color="rgb(28.962708%, 57.926941%, 97.064209%)" offset="0.6875"/><stop stop-opacity="1" stop-color="rgb(29.023743%, 57.730103%, 97.119141%)" offset="0.695312"/><stop stop-opacity="1" stop-color="rgb(29.084778%, 57.53479%, 97.174072%)" offset="0.703125"/><stop stop-opacity="1" stop-color="rgb(29.145813%, 57.337952%, 97.227478%)" offset="0.710938"/><stop stop-opacity="1" stop-color="rgb(29.206848%, 57.142639%, 97.28241%)" offset="0.71875"/><stop stop-opacity="1" stop-color="rgb(29.267883%, 56.947327%, 97.337341%)" offset="0.726562"/><stop stop-opacity="1" stop-color="rgb(29.328918%, 56.750488%, 97.392273%)" offset="0.734375"/><stop stop-opacity="1" stop-color="rgb(29.389954%, 56.555176%, 97.447205%)" offset="0.742188"/><stop stop-opacity="1" stop-color="rgb(29.450989%, 56.358337%, 97.502136%)" offset="0.75"/><stop stop-opacity="1" stop-color="rgb(29.512024%, 56.163025%, 97.555542%)" offset="0.757812"/><stop stop-opacity="1" stop-color="rgb(29.573059%, 55.966187%, 97.610474%)" offset="0.765625"/><stop stop-opacity="1" stop-color="rgb(29.664612%, 55.673218%, 97.692871%)" offset="0.78125"/><stop stop-opacity="1" stop-color="rgb(29.756165%, 55.378723%, 97.775269%)" offset="0.789062"/><stop stop-opacity="1" stop-color="rgb(29.8172%, 55.183411%, 97.828674%)" offset="0.796875"/><stop stop-opacity="1" stop-color="rgb(29.878235%, 54.986572%, 97.883606%)" offset="0.804688"/><stop stop-opacity="1" stop-color="rgb(29.93927%, 54.79126%, 97.938538%)" offset="0.8125"/><stop stop-opacity="1" stop-color="rgb(30.000305%, 54.594421%, 97.993469%)" offset="0.820312"/><stop stop-opacity="1" stop-color="rgb(30.06134%, 54.399109%, 98.048401%)" offset="0.828125"/><stop stop-opacity="1" stop-color="rgb(30.122375%, 54.203796%, 98.101807%)" offset="0.835938"/><stop stop-opacity="1" stop-color="rgb(30.183411%, 54.006958%, 98.156738%)" offset="0.84375"/><stop stop-opacity="1" stop-color="rgb(30.244446%, 53.811646%, 98.21167%)" offset="0.851562"/><stop stop-opacity="1" stop-color="rgb(30.305481%, 53.614807%, 98.266602%)" offset="0.859375"/><stop stop-opacity="1" stop-color="rgb(30.366516%, 53.419495%, 98.321533%)" offset="0.867188"/><stop stop-opacity="1" stop-color="rgb(30.427551%, 53.222656%, 98.376465%)" offset="0.875"/><stop stop-opacity="1" stop-color="rgb(30.519104%, 52.929688%, 98.457336%)" offset="0.890625"/><stop stop-opacity="1" stop-color="rgb(30.610657%, 52.635193%, 98.539734%)" offset="0.898438"/><stop stop-opacity="1" stop-color="rgb(30.671692%, 52.43988%, 98.594666%)" offset="0.90625"/><stop stop-opacity="1" stop-color="rgb(30.732727%, 52.243042%, 98.649597%)" offset="0.914062"/><stop stop-opacity="1" stop-color="rgb(30.793762%, 52.047729%, 98.703003%)" offset="0.921875"/><stop stop-opacity="1" stop-color="rgb(30.854797%, 51.850891%, 98.757935%)" offset="0.929688"/><stop stop-opacity="1" stop-color="rgb(30.915833%, 51.655579%, 98.812866%)" offset="0.9375"/><stop stop-opacity="1" stop-color="rgb(30.976868%, 51.460266%, 98.867798%)" offset="0.945312"/><stop stop-opacity="1" stop-color="rgb(31.037903%, 51.263428%, 98.922729%)" offset="0.953125"/><stop stop-opacity="1" stop-color="rgb(31.098938%, 51.068115%, 98.976135%)" offset="0.960938"/><stop stop-opacity="1" stop-color="rgb(31.159973%, 50.871277%, 99.031067%)" offset="0.96875"/><stop stop-opacity="1" stop-color="rgb(31.221008%, 50.675964%, 99.085999%)" offset="0.976562"/><stop stop-opacity="1" stop-color="rgb(31.282043%, 50.479126%, 99.14093%)" offset="0.984375"/><stop stop-opacity="1" stop-color="rgb(31.340027%, 50.289917%, 99.19281%)" offset="1"/></linearGradient><clipPath id="6dd340762d"><path d="M 200 200 L 203 200 L 203 204.054688 L 200 204.054688 Z M 200 200 " clip-rule="nonzero"/></clipPath><clipPath id="8869654e5d"><path d="M 200 198 L 206.195312 198 L 206.195312 204 L 200 204 Z M 200 198 " clip-rule="nonzero"/></clipPath><clipPath id="187dc9923d"><path d="M 200.191406 203.921875 C 200.191406 203.523438 200.238281 202.207031 200.886719 200.921875 C 201.089844 200.519531 201.351562 200.117188 201.695312 199.746094 C 202.578125 198.792969 203.976562 198.054688 206.191406 198.054688 L 206.191406 200.300781 C 204.558594 200.300781 203.367188 200.550781 202.5 200.921875 C 202.191406 201.054688 201.925781 201.203125 201.691406 201.359375 C 200.328125 202.28125 200.199219 203.53125 200.191406 203.921875 Z M 200.191406 203.921875 " clip-rule="nonzero"/></clipPath><linearGradient x1="167.431711" gradientTransform="matrix(-0.0249488, 0, 0, -0.0249079, 210.370569, 200.048445)" y1="-37.771" x2="408.041723" gradientUnits="userSpaceOnUse" y2="-37.771" id="19811c384c"><stop stop-opacity="1" stop-color="rgb(23.919678%, 74.119568%, 92.549133%)" offset="0"/><stop stop-opacity="1" stop-color="rgb(23.919678%, 74.119568%, 92.549133%)" offset="0.03125"/><stop stop-opacity="1" stop-color="rgb(23.953247%, 74.009705%, 92.579651%)" offset="0.046875"/><stop stop-opacity="1" stop-color="rgb(24.01886%, 73.800659%, 92.637634%)" offset="0.0546875"/><stop stop-opacity="1" stop-color="rgb(24.079895%, 73.605347%, 92.692566%)" offset="0.0625"/><stop stop-opacity="1" stop-color="rgb(24.14093%, 73.408508%, 92.747498%)" offset="0.0703125"/><stop stop-opacity="1" stop-color="rgb(24.201965%, 73.213196%, 92.802429%)" offset="0.078125"/><stop stop-opacity="1" stop-color="rgb(24.263%, 73.016357%, 92.855835%)" offset="0.0859375"/><stop stop-opacity="1" stop-color="rgb(24.324036%, 72.821045%, 92.910767%)" offset="0.09375"/><stop stop-opacity="1" stop-color="rgb(24.385071%, 72.625732%, 92.965698%)" offset="0.101562"/><stop stop-opacity="1" stop-color="rgb(24.446106%, 72.428894%, 93.02063%)" offset="0.109375"/><stop stop-opacity="1" stop-color="rgb(24.507141%, 72.233582%, 93.075562%)" offset="0.117188"/><stop stop-opacity="1" stop-color="rgb(24.568176%, 72.036743%, 93.128967%)" offset="0.125"/><stop stop-opacity="1" stop-color="rgb(24.629211%, 71.841431%, 93.183899%)" offset="0.132812"/><stop stop-opacity="1" stop-color="rgb(24.690247%, 71.644592%, 93.238831%)" offset="0.140625"/><stop stop-opacity="1" stop-color="rgb(24.751282%, 71.44928%, 93.293762%)" offset="0.148438"/><stop stop-opacity="1" stop-color="rgb(24.812317%, 71.252441%, 93.348694%)" offset="0.15625"/><stop stop-opacity="1" stop-color="rgb(24.90387%, 70.959473%, 93.429565%)" offset="0.171875"/><stop stop-opacity="1" stop-color="rgb(24.995422%, 70.664978%, 93.511963%)" offset="0.179688"/><stop stop-opacity="1" stop-color="rgb(25.056458%, 70.469666%, 93.566895%)" offset="0.1875"/><stop stop-opacity="1" stop-color="rgb(25.117493%, 70.272827%, 93.621826%)" offset="0.195312"/><stop stop-opacity="1" stop-color="rgb(25.178528%, 70.077515%, 93.676758%)" offset="0.203125"/><stop stop-opacity="1" stop-color="rgb(25.239563%, 69.880676%, 93.730164%)" offset="0.210938"/><stop stop-opacity="1" stop-color="rgb(25.300598%, 69.685364%, 93.785095%)" offset="0.21875"/><stop stop-opacity="1" stop-color="rgb(25.361633%, 69.490051%, 93.840027%)" offset="0.226562"/><stop stop-opacity="1" stop-color="rgb(25.422668%, 69.293213%, 93.894958%)" offset="0.234375"/><stop stop-opacity="1" stop-color="rgb(25.483704%, 69.0979%, 93.94989%)" offset="0.242188"/><stop stop-opacity="1" stop-color="rgb(25.544739%, 68.901062%, 94.003296%)" offset="0.25"/><stop stop-opacity="1" stop-color="rgb(25.605774%, 68.70575%, 94.058228%)" offset="0.257812"/><stop stop-opacity="1" stop-color="rgb(25.666809%, 68.508911%, 94.113159%)" offset="0.265625"/><stop stop-opacity="1" stop-color="rgb(25.727844%, 68.313599%, 94.168091%)" offset="0.273438"/><stop stop-opacity="1" stop-color="rgb(25.788879%, 68.11676%, 94.223022%)" offset="0.28125"/><stop stop-opacity="1" stop-color="rgb(25.880432%, 67.823792%, 94.303894%)" offset="0.296875"/><stop stop-opacity="1" stop-color="rgb(25.971985%, 67.529297%, 94.386292%)" offset="0.304688"/><stop stop-opacity="1" stop-color="rgb(26.03302%, 67.333984%, 94.441223%)" offset="0.3125"/><stop stop-opacity="1" stop-color="rgb(26.094055%, 67.137146%, 94.496155%)" offset="0.320313"/><stop stop-opacity="1" stop-color="rgb(26.15509%, 66.941833%, 94.551086%)" offset="0.328125"/><stop stop-opacity="1" stop-color="rgb(26.216125%, 66.744995%, 94.604492%)" offset="0.335938"/><stop stop-opacity="1" stop-color="rgb(26.277161%, 66.549683%, 94.659424%)" offset="0.34375"/><stop stop-opacity="1" stop-color="rgb(26.338196%, 66.35437%, 94.714355%)" offset="0.351563"/><stop stop-opacity="1" stop-color="rgb(26.399231%, 66.157532%, 94.769287%)" offset="0.359375"/><stop stop-opacity="1" stop-color="rgb(26.460266%, 65.962219%, 94.824219%)" offset="0.367188"/><stop stop-opacity="1" stop-color="rgb(26.521301%, 65.765381%, 94.877625%)" offset="0.375"/><stop stop-opacity="1" stop-color="rgb(26.582336%, 65.570068%, 94.932556%)" offset="0.382812"/><stop stop-opacity="1" stop-color="rgb(26.643372%, 65.37323%, 94.987488%)" offset="0.390625"/><stop stop-opacity="1" stop-color="rgb(26.704407%, 65.177917%, 95.042419%)" offset="0.398438"/><stop stop-opacity="1" stop-color="rgb(26.765442%, 64.981079%, 95.097351%)" offset="0.40625"/><stop stop-opacity="1" stop-color="rgb(26.856995%, 64.68811%, 95.178223%)" offset="0.421875"/><stop stop-opacity="1" stop-color="rgb(26.948547%, 64.393616%, 95.26062%)" offset="0.429688"/><stop stop-opacity="1" stop-color="rgb(27.009583%, 64.198303%, 95.315552%)" offset="0.4375"/><stop stop-opacity="1" stop-color="rgb(27.070618%, 64.001465%, 95.370483%)" offset="0.445313"/><stop stop-opacity="1" stop-color="rgb(27.131653%, 63.806152%, 95.425415%)" offset="0.453125"/><stop stop-opacity="1" stop-color="rgb(27.192688%, 63.609314%, 95.478821%)" offset="0.460938"/><stop stop-opacity="1" stop-color="rgb(27.253723%, 63.414001%, 95.533752%)" offset="0.46875"/><stop stop-opacity="1" stop-color="rgb(27.314758%, 63.218689%, 95.588684%)" offset="0.476563"/><stop stop-opacity="1" stop-color="rgb(27.375793%, 63.021851%, 95.643616%)" offset="0.484375"/><stop stop-opacity="1" stop-color="rgb(27.436829%, 62.826538%, 95.698547%)" offset="0.492188"/><stop stop-opacity="1" stop-color="rgb(27.497864%, 62.6297%, 95.753479%)" offset="0.5"/><stop stop-opacity="1" stop-color="rgb(27.558899%, 62.434387%, 95.806885%)" offset="0.507812"/><stop stop-opacity="1" stop-color="rgb(27.619934%, 62.237549%, 95.861816%)" offset="0.515625"/><stop stop-opacity="1" stop-color="rgb(27.680969%, 62.042236%, 95.916748%)" offset="0.523438"/><stop stop-opacity="1" stop-color="rgb(27.742004%, 61.845398%, 95.97168%)" offset="0.53125"/><stop stop-opacity="1" stop-color="rgb(27.833557%, 61.552429%, 96.052551%)" offset="0.546875"/><stop stop-opacity="1" stop-color="rgb(27.92511%, 61.257935%, 96.134949%)" offset="0.554688"/><stop stop-opacity="1" stop-color="rgb(27.986145%, 61.062622%, 96.18988%)" offset="0.5625"/><stop stop-opacity="1" stop-color="rgb(28.04718%, 60.865784%, 96.244812%)" offset="0.570313"/><stop stop-opacity="1" stop-color="rgb(28.108215%, 60.670471%, 96.299744%)" offset="0.578125"/><stop stop-opacity="1" stop-color="rgb(28.16925%, 60.473633%, 96.353149%)" offset="0.585938"/><stop stop-opacity="1" stop-color="rgb(28.230286%, 60.27832%, 96.408081%)" offset="0.59375"/><stop stop-opacity="1" stop-color="rgb(28.291321%, 60.083008%, 96.463013%)" offset="0.601563"/><stop stop-opacity="1" stop-color="rgb(28.352356%, 59.886169%, 96.517944%)" offset="0.609375"/><stop stop-opacity="1" stop-color="rgb(28.413391%, 59.690857%, 96.572876%)" offset="0.617188"/><stop stop-opacity="1" stop-color="rgb(28.474426%, 59.494019%, 96.627808%)" offset="0.625"/><stop stop-opacity="1" stop-color="rgb(28.535461%, 59.298706%, 96.681213%)" offset="0.632813"/><stop stop-opacity="1" stop-color="rgb(28.596497%, 59.101868%, 96.736145%)" offset="0.640625"/><stop stop-opacity="1" stop-color="rgb(28.657532%, 58.906555%, 96.791077%)" offset="0.648438"/><stop stop-opacity="1" stop-color="rgb(28.718567%, 58.709717%, 96.846008%)" offset="0.65625"/><stop stop-opacity="1" stop-color="rgb(28.81012%, 58.416748%, 96.92688%)" offset="0.671875"/><stop stop-opacity="1" stop-color="rgb(28.901672%, 58.122253%, 97.009277%)" offset="0.679688"/><stop stop-opacity="1" stop-color="rgb(28.962708%, 57.926941%, 97.064209%)" offset="0.6875"/><stop stop-opacity="1" stop-color="rgb(29.023743%, 57.730103%, 97.119141%)" offset="0.695313"/><stop stop-opacity="1" stop-color="rgb(29.084778%, 57.53479%, 97.174072%)" offset="0.703125"/><stop stop-opacity="1" stop-color="rgb(29.145813%, 57.337952%, 97.227478%)" offset="0.710938"/><stop stop-opacity="1" stop-color="rgb(29.206848%, 57.142639%, 97.28241%)" offset="0.71875"/><stop stop-opacity="1" stop-color="rgb(29.267883%, 56.947327%, 97.337341%)" offset="0.726563"/><stop stop-opacity="1" stop-color="rgb(29.328918%, 56.750488%, 97.392273%)" offset="0.734375"/><stop stop-opacity="1" stop-color="rgb(29.389954%, 56.555176%, 97.447205%)" offset="0.742188"/><stop stop-opacity="1" stop-color="rgb(29.450989%, 56.358337%, 97.502136%)" offset="0.75"/><stop stop-opacity="1" stop-color="rgb(29.512024%, 56.163025%, 97.555542%)" offset="0.757813"/><stop stop-opacity="1" stop-color="rgb(29.573059%, 55.966187%, 97.610474%)" offset="0.765625"/><stop stop-opacity="1" stop-color="rgb(29.634094%, 55.770874%, 97.665405%)" offset="0.773438"/><stop stop-opacity="1" stop-color="rgb(29.695129%, 55.574036%, 97.720337%)" offset="0.78125"/><stop stop-opacity="1" stop-color="rgb(29.786682%, 55.281067%, 97.801208%)" offset="0.796875"/><stop stop-opacity="1" stop-color="rgb(29.878235%, 54.986572%, 97.883606%)" offset="0.804688"/><stop stop-opacity="1" stop-color="rgb(29.93927%, 54.79126%, 97.938538%)" offset="0.8125"/><stop stop-opacity="1" stop-color="rgb(30.000305%, 54.594421%, 97.993469%)" offset="0.820313"/><stop stop-opacity="1" stop-color="rgb(30.06134%, 54.399109%, 98.048401%)" offset="0.828125"/><stop stop-opacity="1" stop-color="rgb(30.122375%, 54.202271%, 98.103333%)" offset="0.835938"/><stop stop-opacity="1" stop-color="rgb(30.183411%, 54.006958%, 98.156738%)" offset="0.84375"/><stop stop-opacity="1" stop-color="rgb(30.244446%, 53.811646%, 98.21167%)" offset="0.851563"/><stop stop-opacity="1" stop-color="rgb(30.305481%, 53.614807%, 98.266602%)" offset="0.859375"/><stop stop-opacity="1" stop-color="rgb(30.366516%, 53.419495%, 98.321533%)" offset="0.867188"/><stop stop-opacity="1" stop-color="rgb(30.427551%, 53.222656%, 98.376465%)" offset="0.875"/><stop stop-opacity="1" stop-color="rgb(30.488586%, 53.027344%, 98.429871%)" offset="0.882813"/><stop stop-opacity="1" stop-color="rgb(30.549622%, 52.830505%, 98.484802%)" offset="0.890625"/><stop stop-opacity="1" stop-color="rgb(30.610657%, 52.635193%, 98.539734%)" offset="0.898438"/><stop stop-opacity="1" stop-color="rgb(30.671692%, 52.438354%, 98.594666%)" offset="0.90625"/><stop stop-opacity="1" stop-color="rgb(30.763245%, 52.145386%, 98.675537%)" offset="0.921875"/><stop stop-opacity="1" stop-color="rgb(30.854797%, 51.850891%, 98.757935%)" offset="0.929688"/><stop stop-opacity="1" stop-color="rgb(30.915833%, 51.655579%, 98.812866%)" offset="0.9375"/><stop stop-opacity="1" stop-color="rgb(30.976868%, 51.45874%, 98.867798%)" offset="0.945313"/><stop stop-opacity="1" stop-color="rgb(31.037903%, 51.263428%, 98.922729%)" offset="0.953125"/><stop stop-opacity="1" stop-color="rgb(31.098938%, 51.066589%, 98.977661%)" offset="0.960938"/><stop stop-opacity="1" stop-color="rgb(31.159973%, 50.871277%, 99.031067%)" offset="0.96875"/><stop stop-opacity="1" stop-color="rgb(31.221008%, 50.675964%, 99.085999%)" offset="0.976563"/><stop stop-opacity="1" stop-color="rgb(31.282043%, 50.479126%, 99.14093%)" offset="0.984375"/><stop stop-opacity="1" stop-color="rgb(31.340027%, 50.289917%, 99.19281%)" offset="1"/></linearGradient><clipPath id="81ca916be2"><path d="M 169 97 L 205 97 L 205 108 L 169 108 Z M 169 97 " clip-rule="nonzero"/></clipPath><clipPath id="c416c5ad89"><path d="M 164.1875 98.253906 L 209.914062 96.742188 L 210.832031 124.476562 L 165.105469 125.988281 Z M 164.1875 98.253906 " clip-rule="nonzero"/></clipPath><clipPath id="ab03b2eacd"><path d="M 164.1875 98.253906 L 209.914062 96.742188 L 210.832031 124.476562 L 165.105469 125.988281 Z M 164.1875 98.253906 " clip-rule="nonzero"/></clipPath><clipPath id="992733178f"><path d="M 169 103 L 206 103 L 206 116 L 169 116 Z M 169 103 " clip-rule="nonzero"/></clipPath><clipPath id="0cb72f4ab5"><path d="M 164.1875 98.253906 L 209.914062 96.742188 L 210.832031 124.476562 L 165.105469 125.988281 Z M 164.1875 98.253906 " clip-rule="nonzero"/></clipPath><clipPath id="353fe9654d"><path d="M 164.1875 98.253906 L 209.914062 96.742188 L 210.832031 124.476562 L 165.105469 125.988281 Z M 164.1875 98.253906 " clip-rule="nonzero"/></clipPath><clipPath id="439aaf266d"><path d="M 169 107 L 206 107 L 206 116 L 169 116 Z M 169 107 " clip-rule="nonzero"/></clipPath><clipPath id="61dfd2b46b"><path d="M 164.1875 98.253906 L 209.914062 96.742188 L 210.832031 124.476562 L 165.105469 125.988281 Z M 164.1875 98.253906 " clip-rule="nonzero"/></clipPath><clipPath id="c646b871bc"><path d="M 164.1875 98.253906 L 209.914062 96.742188 L 210.832031 124.476562 L 165.105469 125.988281 Z M 164.1875 98.253906 " clip-rule="nonzero"/></clipPath><clipPath id="af355dcdaf"><path d="M 165 103 L 211 103 L 211 126 L 165 126 Z M 165 103 " clip-rule="nonzero"/></clipPath><clipPath id="d45ecab924"><path d="M 164.1875 98.253906 L 209.914062 96.742188 L 210.832031 124.476562 L 165.105469 125.988281 Z M 164.1875 98.253906 " clip-rule="nonzero"/></clipPath><clipPath id="a5ddadc39c"><path d="M 164.1875 98.253906 L 209.914062 96.742188 L 210.832031 124.476562 L 165.105469 125.988281 Z M 164.1875 98.253906 " clip-rule="nonzero"/></clipPath><clipPath id="cb91a37b4e"><path d="M 169 121 L 180 121 L 180 125 L 169 125 Z M 169 121 " clip-rule="nonzero"/></clipPath><clipPath id="4d5578e67c"><path d="M 164.1875 98.253906 L 209.914062 96.742188 L 210.832031 124.476562 L 165.105469 125.988281 Z M 164.1875 98.253906 " clip-rule="nonzero"/></clipPath><clipPath id="14b81574ab"><path d="M 164.1875 98.253906 L 209.914062 96.742188 L 210.832031 124.476562 L 165.105469 125.988281 Z M 164.1875 98.253906 " clip-rule="nonzero"/></clipPath></defs><path fill="#f6f6f6" d="M 231.929688 145.390625 C 231.753906 145.382812 234.046875 126.125 234.046875 126.125 L 238.585938 126.304688 C 238.585938 126.304688 238.472656 150.191406 238.027344 150.214844 C 237.582031 150.234375 231.929688 145.390625 231.929688 145.390625 Z M 231.929688 145.390625 " fill-opacity="1" fill-rule="nonzero"/><g clip-path="url(#4245b7a404)"><path fill="#f6f6f6" d="M 240.402344 122.90625 C 240.402344 123.175781 240.375 123.441406 240.324219 123.703125 C 240.269531 123.964844 240.191406 124.222656 240.089844 124.46875 C 239.988281 124.71875 239.863281 124.953125 239.714844 125.175781 C 239.566406 125.398438 239.394531 125.605469 239.207031 125.796875 C 239.019531 125.984375 238.8125 126.15625 238.589844 126.304688 C 238.367188 126.453125 238.132812 126.578125 237.882812 126.683594 C 237.636719 126.785156 237.382812 126.863281 237.121094 126.914062 C 236.855469 126.96875 236.59375 126.992188 236.324219 126.992188 C 236.054688 126.992188 235.792969 126.96875 235.527344 126.914062 C 235.265625 126.863281 235.011719 126.785156 234.765625 126.683594 C 234.515625 126.578125 234.28125 126.453125 234.058594 126.304688 C 233.835938 126.15625 233.628906 125.984375 233.441406 125.796875 C 233.253906 125.605469 233.082031 125.398438 232.933594 125.175781 C 232.785156 124.953125 232.660156 124.71875 232.558594 124.46875 C 232.457031 124.222656 232.378906 123.964844 232.324219 123.703125 C 232.273438 123.441406 232.246094 123.175781 232.246094 122.90625 C 232.246094 122.636719 232.273438 122.371094 232.324219 122.109375 C 232.378906 121.84375 232.457031 121.589844 232.558594 121.339844 C 232.660156 121.09375 232.785156 120.855469 232.933594 120.632812 C 233.082031 120.410156 233.253906 120.203125 233.441406 120.015625 C 233.628906 119.824219 233.835938 119.65625 234.058594 119.507812 C 234.28125 119.355469 234.515625 119.230469 234.765625 119.128906 C 235.011719 119.027344 235.265625 118.949219 235.527344 118.894531 C 235.792969 118.84375 236.054688 118.816406 236.324219 118.816406 C 236.59375 118.816406 236.855469 118.84375 237.121094 118.894531 C 237.382812 118.949219 237.636719 119.027344 237.882812 119.128906 C 238.132812 119.230469 238.367188 119.355469 238.589844 119.507812 C 238.8125 119.65625 239.019531 119.824219 239.207031 120.015625 C 239.394531 120.203125 239.566406 120.410156 239.714844 120.632812 C 239.863281 120.855469 239.988281 121.09375 240.089844 121.339844 C 240.191406 121.589844 240.269531 121.84375 240.324219 122.109375 C 240.375 122.371094 240.402344 122.636719 240.402344 122.90625 Z M 240.402344 122.90625 " fill-opacity="1" fill-rule="nonzero"/></g><g clip-path="url(#5de634ab95)"><path fill="#54a3e6" d="M 230.824219 142.191406 L 233.175781 142.191406 C 233.6875 142.191406 234.195312 142.238281 234.699219 142.339844 C 235.199219 142.441406 235.6875 142.589844 236.160156 142.785156 C 236.632812 142.980469 237.082031 143.222656 237.507812 143.507812 C 237.933594 143.792969 238.324219 144.117188 238.6875 144.476562 C 239.050781 144.839844 239.371094 145.234375 239.65625 145.664062 C 239.941406 146.089844 240.179688 146.539062 240.375 147.011719 C 240.574219 147.488281 240.71875 147.976562 240.820312 148.480469 C 240.917969 148.984375 240.96875 149.492188 240.96875 150.003906 L 240.96875 165.472656 C 240.96875 165.988281 240.917969 166.496094 240.820312 167 C 240.71875 167.503906 240.574219 167.992188 240.375 168.464844 C 240.179688 168.9375 239.941406 169.390625 239.65625 169.816406 C 239.371094 170.242188 239.050781 170.636719 238.6875 171 C 238.324219 171.363281 237.933594 171.6875 237.507812 171.972656 C 237.082031 172.257812 236.632812 172.496094 236.160156 172.695312 C 235.6875 172.890625 235.199219 173.039062 234.699219 173.140625 C 234.195312 173.238281 233.6875 173.289062 233.175781 173.289062 L 230.824219 173.289062 C 230.3125 173.289062 229.804688 173.238281 229.304688 173.140625 C 228.800781 173.039062 228.316406 172.890625 227.84375 172.695312 C 227.371094 172.496094 226.921875 172.257812 226.496094 171.972656 C 226.070312 171.6875 225.675781 171.363281 225.3125 171 C 224.953125 170.636719 224.628906 170.242188 224.34375 169.816406 C 224.0625 169.390625 223.820312 168.9375 223.625 168.464844 C 223.429688 167.992188 223.28125 167.503906 223.179688 167 C 223.082031 166.496094 223.03125 165.988281 223.03125 165.472656 L 223.03125 150.003906 C 223.03125 149.492188 223.082031 148.984375 223.179688 148.480469 C 223.28125 147.976562 223.429688 147.488281 223.625 147.011719 C 223.820312 146.539062 224.0625 146.089844 224.34375 145.664062 C 224.628906 145.234375 224.953125 144.839844 225.3125 144.476562 C 225.675781 144.117188 226.070312 143.792969 226.496094 143.507812 C 226.921875 143.222656 227.371094 142.980469 227.84375 142.785156 C 228.316406 142.589844 228.800781 142.441406 229.304688 142.339844 C 229.804688 142.238281 230.3125 142.191406 230.824219 142.191406 Z M 230.824219 142.191406 " fill-opacity="1" fill-rule="nonzero"/></g><path fill="#f6f6f6" d="M 142.921875 144.75 C 143.097656 144.734375 140.179688 125.5625 140.179688 125.5625 L 135.644531 125.890625 C 135.644531 125.890625 136.535156 149.761719 136.984375 149.769531 C 137.433594 149.777344 142.921875 144.75 142.921875 144.75 Z M 142.921875 144.75 " fill-opacity="1" fill-rule="nonzero"/><g clip-path="url(#c35b0a20f5)"><path fill="#f6f6f6" d="M 141.871094 122.417969 C 141.871094 122.6875 141.847656 122.953125 141.792969 123.214844 C 141.742188 123.480469 141.664062 123.734375 141.5625 123.984375 C 141.460938 124.230469 141.335938 124.46875 141.1875 124.691406 C 141.039062 124.914062 140.867188 125.121094 140.679688 125.308594 C 140.488281 125.5 140.285156 125.667969 140.0625 125.816406 C 139.839844 125.96875 139.605469 126.09375 139.355469 126.195312 C 139.109375 126.296875 138.855469 126.375 138.589844 126.429688 C 138.328125 126.480469 138.0625 126.507812 137.796875 126.507812 C 137.527344 126.507812 137.261719 126.480469 137 126.429688 C 136.738281 126.375 136.484375 126.296875 136.234375 126.195312 C 135.988281 126.09375 135.753906 125.96875 135.53125 125.816406 C 135.308594 125.667969 135.101562 125.5 134.914062 125.308594 C 134.722656 125.121094 134.554688 124.914062 134.40625 124.691406 C 134.257812 124.46875 134.132812 124.230469 134.03125 123.984375 C 133.925781 123.734375 133.851562 123.480469 133.796875 123.214844 C 133.746094 122.953125 133.71875 122.6875 133.71875 122.417969 C 133.71875 122.148438 133.746094 121.882812 133.796875 121.621094 C 133.851562 121.359375 133.925781 121.101562 134.03125 120.855469 C 134.132812 120.605469 134.257812 120.371094 134.40625 120.148438 C 134.554688 119.925781 134.722656 119.71875 134.914062 119.527344 C 135.101562 119.339844 135.308594 119.167969 135.53125 119.019531 C 135.753906 118.871094 135.988281 118.746094 136.234375 118.640625 C 136.484375 118.539062 136.738281 118.460938 137 118.410156 C 137.261719 118.355469 137.527344 118.332031 137.796875 118.332031 C 138.0625 118.332031 138.328125 118.355469 138.589844 118.410156 C 138.855469 118.460938 139.109375 118.539062 139.355469 118.640625 C 139.605469 118.746094 139.839844 118.871094 140.0625 119.019531 C 140.285156 119.167969 140.488281 119.339844 140.679688 119.527344 C 140.867188 119.71875 141.039062 119.925781 141.1875 120.148438 C 141.335938 120.371094 141.460938 120.605469 141.5625 120.855469 C 141.664062 121.101562 141.742188 121.359375 141.792969 121.621094 C 141.847656 121.882812 141.871094 122.148438 141.871094 122.417969 Z M 141.871094 122.417969 " fill-opacity="1" fill-rule="nonzero"/></g><path fill="#54a3e6" d="M 144.929688 172.59375 L 142.578125 172.671875 C 142.066406 172.6875 141.558594 172.65625 141.054688 172.570312 C 140.550781 172.488281 140.058594 172.355469 139.578125 172.171875 C 139.101562 171.992188 138.644531 171.765625 138.210938 171.496094 C 137.773438 171.222656 137.371094 170.914062 136.996094 170.5625 C 136.625 170.210938 136.289062 169.828125 135.992188 169.410156 C 135.691406 168.992188 135.4375 168.550781 135.226562 168.082031 C 135.015625 167.617188 134.851562 167.132812 134.738281 166.632812 C 134.621094 166.132812 134.554688 165.625 134.539062 165.113281 L 134.039062 149.652344 C 134.023438 149.136719 134.058594 148.628906 134.140625 148.121094 C 134.226562 147.617188 134.355469 147.125 134.535156 146.644531 C 134.71875 146.164062 134.941406 145.707031 135.214844 145.269531 C 135.484375 144.832031 135.792969 144.429688 136.144531 144.054688 C 136.492188 143.679688 136.875 143.34375 137.292969 143.046875 C 137.707031 142.746094 138.148438 142.492188 138.617188 142.28125 C 139.082031 142.066406 139.5625 141.902344 140.0625 141.789062 C 140.5625 141.671875 141.066406 141.605469 141.578125 141.589844 L 143.929688 141.511719 C 144.441406 141.496094 144.949219 141.53125 145.453125 141.613281 C 145.957031 141.695312 146.449219 141.828125 146.929688 142.011719 C 147.40625 142.191406 147.863281 142.417969 148.296875 142.6875 C 148.734375 142.960938 149.136719 143.269531 149.511719 143.621094 C 149.882812 143.972656 150.21875 144.355469 150.515625 144.773438 C 150.816406 145.191406 151.070312 145.632812 151.28125 146.101562 C 151.492188 146.570312 151.65625 147.050781 151.769531 147.550781 C 151.886719 148.050781 151.953125 148.558594 151.96875 149.070312 L 152.46875 164.53125 C 152.484375 165.046875 152.449219 165.554688 152.367188 166.0625 C 152.28125 166.566406 152.152344 167.0625 151.96875 167.539062 C 151.789062 168.019531 151.566406 168.480469 151.292969 168.914062 C 151.023438 169.351562 150.714844 169.753906 150.363281 170.128906 C 150.015625 170.503906 149.632812 170.839844 149.214844 171.140625 C 148.800781 171.4375 148.359375 171.691406 147.890625 171.90625 C 147.425781 172.117188 146.941406 172.28125 146.445312 172.394531 C 145.945312 172.511719 145.441406 172.578125 144.929688 172.59375 Z M 144.929688 172.59375 " fill-opacity="1" fill-rule="nonzero"/><g clip-path="url(#b090d5049f)"><path fill="#f6f6f6" d="M 184.019531 244.269531 C 184 245.367188 183.96875 246.488281 183.925781 247.597656 C 183.730469 252.417969 183.277344 257.027344 182.289062 258.664062 C 179.914062 262.59375 165.652344 264.023438 163.632812 260.449219 C 161.613281 256.875 168.269531 253.417969 168.269531 253.417969 C 167.761719 252.03125 167.636719 249.597656 167.734375 246.8125 C 167.769531 245.746094 167.839844 244.628906 167.929688 243.496094 C 168.4375 237.199219 169.644531 230.5 169.929688 230.066406 L 183.953125 233.640625 C 183.953125 233.640625 184.121094 238.667969 184.019531 244.269531 Z M 184.019531 244.269531 " fill-opacity="1" fill-rule="nonzero"/></g><g clip-path="url(#95479b1c47)"><path fill="#f6f6f6" d="M 233.875 158.867188 C 234.144531 182.496094 213.945312 197.804688 188.5 198.101562 C 163.058594 198.394531 142.007812 183.566406 141.734375 159.9375 C 141.464844 136.304688 151.714844 113.304688 187.511719 112.519531 C 223.515625 111.730469 233.601562 135.234375 233.875 158.867188 Z M 233.875 158.867188 " fill-opacity="1" fill-rule="nonzero"/></g><path fill="#160e0b" d="M 171.796875 131.582031 C 171.796875 131.582031 156.277344 132.597656 153.113281 146.042969 C 150.132812 158.710938 149.167969 180.085938 173.949219 186.570312 C 198.726562 193.054688 218.703125 183.667969 223.671875 167.453125 C 228.636719 151.238281 223.40625 136.777344 214.054688 133.449219 C 201.195312 128.871094 171.796875 131.582031 171.796875 131.582031 Z M 171.796875 131.582031 " fill-opacity="1" fill-rule="nonzero"/><path fill="#54a3e6" d="M 207.640625 153.246094 C 208.007812 153.265625 208.367188 153.332031 208.722656 153.449219 C 209.078125 153.570312 209.417969 153.734375 209.746094 153.949219 C 210.074219 154.164062 210.386719 154.421875 210.675781 154.722656 C 210.964844 155.027344 211.230469 155.367188 211.472656 155.742188 C 211.714844 156.121094 211.925781 156.527344 212.105469 156.96875 C 212.289062 157.40625 212.4375 157.867188 212.554688 158.351562 C 212.671875 158.835938 212.753906 159.332031 212.800781 159.839844 C 212.847656 160.351562 212.855469 160.863281 212.832031 161.378906 C 212.804688 161.894531 212.746094 162.402344 212.648438 162.90625 C 212.550781 163.40625 212.421875 163.894531 212.257812 164.363281 C 212.09375 164.832031 211.898438 165.277344 211.675781 165.695312 C 211.449219 166.113281 211.199219 166.5 210.921875 166.851562 C 210.644531 167.203125 210.347656 167.515625 210.027344 167.785156 C 209.710938 168.058594 209.375 168.28125 209.027344 168.464844 C 208.679688 168.644531 208.324219 168.777344 207.960938 168.859375 C 207.597656 168.941406 207.230469 168.972656 206.863281 168.957031 C 206.5 168.9375 206.136719 168.867188 205.785156 168.75 C 205.429688 168.632812 205.089844 168.464844 204.761719 168.25 C 204.429688 168.035156 204.121094 167.777344 203.832031 167.476562 C 203.542969 167.175781 203.277344 166.835938 203.035156 166.457031 C 202.792969 166.082031 202.582031 165.671875 202.398438 165.234375 C 202.21875 164.792969 202.066406 164.332031 201.953125 163.851562 C 201.835938 163.367188 201.753906 162.871094 201.707031 162.359375 C 201.660156 161.851562 201.648438 161.339844 201.675781 160.824219 C 201.703125 160.308594 201.761719 159.796875 201.859375 159.296875 C 201.957031 158.792969 202.085938 158.308594 202.25 157.839844 C 202.414062 157.367188 202.605469 156.925781 202.832031 156.507812 C 203.054688 156.085938 203.308594 155.703125 203.585938 155.351562 C 203.859375 155 204.160156 154.6875 204.476562 154.414062 C 204.796875 154.144531 205.128906 153.917969 205.476562 153.738281 C 205.824219 153.558594 206.183594 153.425781 206.546875 153.34375 C 206.910156 153.261719 207.277344 153.226562 207.640625 153.246094 Z M 207.640625 153.246094 " fill-opacity="1" fill-rule="nonzero"/><path fill="#54a3e6" d="M 170.546875 152.828125 C 170.914062 152.847656 171.273438 152.914062 171.628906 153.035156 C 171.984375 153.152344 172.324219 153.320312 172.652344 153.535156 C 172.980469 153.746094 173.292969 154.003906 173.582031 154.308594 C 173.871094 154.609375 174.136719 154.949219 174.378906 155.324219 C 174.621094 155.703125 174.832031 156.113281 175.011719 156.550781 C 175.195312 156.988281 175.34375 157.449219 175.460938 157.933594 C 175.578125 158.417969 175.660156 158.914062 175.707031 159.421875 C 175.753906 159.933594 175.761719 160.445312 175.738281 160.960938 C 175.710938 161.476562 175.652344 161.984375 175.554688 162.488281 C 175.457031 162.992188 175.328125 163.476562 175.164062 163.945312 C 175 164.414062 174.804688 164.859375 174.582031 165.277344 C 174.355469 165.695312 174.105469 166.082031 173.828125 166.433594 C 173.550781 166.785156 173.253906 167.097656 172.9375 167.367188 C 172.617188 167.640625 172.285156 167.867188 171.9375 168.046875 C 171.585938 168.226562 171.230469 168.359375 170.867188 168.441406 C 170.503906 168.523438 170.136719 168.558594 169.773438 168.539062 C 169.40625 168.519531 169.046875 168.453125 168.691406 168.332031 C 168.335938 168.214844 167.996094 168.046875 167.667969 167.835938 C 167.339844 167.621094 167.027344 167.363281 166.738281 167.058594 C 166.449219 166.757812 166.183594 166.417969 165.941406 166.042969 C 165.699219 165.664062 165.488281 165.253906 165.308594 164.816406 C 165.125 164.378906 164.976562 163.917969 164.859375 163.433594 C 164.742188 162.949219 164.660156 162.453125 164.613281 161.945312 C 164.566406 161.433594 164.558594 160.921875 164.582031 160.40625 C 164.609375 159.890625 164.667969 159.382812 164.765625 158.878906 C 164.863281 158.378906 164.992188 157.890625 165.15625 157.421875 C 165.320312 156.953125 165.515625 156.507812 165.738281 156.089844 C 165.964844 155.671875 166.214844 155.285156 166.492188 154.933594 C 166.769531 154.582031 167.066406 154.269531 167.382812 154 C 167.703125 153.726562 168.035156 153.5 168.382812 153.320312 C 168.734375 153.140625 169.089844 153.007812 169.453125 152.925781 C 169.816406 152.84375 170.183594 152.8125 170.546875 152.828125 Z M 170.546875 152.828125 " fill-opacity="1" fill-rule="nonzero"/><path fill="#54a3e6" d="M 166.425781 161.34375 C 166.425781 161.34375 166.421875 161.34375 166.421875 161.347656 C 166.425781 161.347656 166.425781 161.347656 166.425781 161.34375 Z M 166.425781 161.34375 Z M 164.316406 150.40625 C 164.316406 150.40625 164.320312 150.40625 164.320312 150.40625 C 164.320312 150.40625 164.316406 150.40625 164.316406 150.40625 Z M 164.316406 150.40625 Z M 164.007812 150.347656 Z M 164.007812 150.347656 " fill-opacity="1" fill-rule="nonzero"/><path fill="#f6f6f6" d="M 214.367188 223.511719 C 210.921875 238.285156 174.566406 244.007812 166.367188 228.636719 C 163.804688 223.828125 162.921875 218.425781 162.945312 213.25 C 162.949219 212.140625 162.996094 211.046875 163.074219 209.96875 C 163.808594 199.96875 167.425781 191.546875 167.792969 191.101562 L 208.902344 192.292969 C 208.902344 192.292969 213.355469 200.507812 214.75 210.542969 C 214.894531 211.597656 215.007812 212.667969 215.078125 213.753906 C 215.285156 216.957031 215.125 220.277344 214.367188 223.511719 Z M 214.367188 223.511719 " fill-opacity="1" fill-rule="nonzero"/><path fill="#54a3e6" d="M 184.019531 244.269531 C 184 245.367188 183.96875 246.488281 183.925781 247.597656 C 182.425781 247.992188 180.894531 248.242188 179.351562 248.378906 C 177.542969 248.542969 175.710938 248.511719 173.90625 248.289062 C 171.96875 248.046875 170.0625 247.644531 168.21875 246.992188 C 168.058594 246.933594 167.894531 246.875 167.734375 246.8125 C 167.769531 245.746094 167.839844 244.628906 167.929688 243.496094 C 167.929688 243.496094 167.929688 243.496094 167.933594 243.496094 C 167.933594 243.496094 167.9375 243.5 167.9375 243.5 C 169.835938 244.28125 171.828125 244.816406 173.859375 245.109375 C 174.28125 245.160156 174.703125 245.203125 175.125 245.234375 C 176.839844 245.363281 178.5625 245.320312 180.269531 245.105469 C 181.539062 244.921875 182.792969 244.644531 184.019531 244.269531 Z M 184.019531 244.269531 " fill-opacity="1" fill-rule="nonzero"/><g clip-path="url(#d3c7a49ef9)"><path fill="#f6f6f6" d="M 192.988281 244.269531 C 193.011719 245.367188 193.039062 246.488281 193.085938 247.597656 C 193.277344 252.417969 193.730469 257.027344 194.71875 258.664062 C 197.097656 262.59375 211.355469 264.023438 213.375 260.449219 C 215.394531 256.875 208.742188 253.417969 208.742188 253.417969 C 209.25 252.03125 209.371094 249.597656 209.273438 246.8125 C 209.238281 245.746094 209.171875 244.628906 209.078125 243.496094 C 208.570312 237.199219 207.367188 230.5 207.078125 230.066406 L 193.058594 233.640625 C 193.058594 233.640625 192.886719 238.667969 192.988281 244.269531 Z M 192.988281 244.269531 " fill-opacity="1" fill-rule="nonzero"/></g><path fill="#54a3e6" d="M 192.988281 244.269531 C 193.011719 245.367188 193.039062 246.488281 193.085938 247.597656 C 194.582031 247.992188 196.117188 248.242188 197.65625 248.378906 C 199.46875 248.542969 201.296875 248.511719 203.101562 248.289062 C 205.039062 248.046875 206.945312 247.644531 208.789062 246.992188 C 208.953125 246.933594 209.113281 246.875 209.273438 246.8125 C 209.238281 245.746094 209.171875 244.628906 209.078125 243.496094 C 209.074219 243.496094 209.074219 243.5 209.070312 243.5 C 207.171875 244.28125 205.179688 244.816406 203.152344 245.109375 C 202.730469 245.160156 202.308594 245.203125 201.882812 245.234375 C 200.171875 245.363281 198.445312 245.320312 196.742188 245.105469 C 195.472656 244.921875 194.214844 244.644531 192.988281 244.269531 Z M 192.988281 244.269531 " fill-opacity="1" fill-rule="nonzero"/><path fill="#54a3e6" d="M 186.382812 243.414062 C 186.253906 243.46875 186.128906 243.519531 186.003906 243.574219 C 186.058594 243.550781 186.113281 243.527344 186.167969 243.5 C 186.242188 243.472656 186.3125 243.445312 186.382812 243.414062 Z M 186.382812 243.414062 " fill-opacity="1" fill-rule="nonzero"/><path fill="#54a3e6" d="M 215.078125 213.75 C 214.699219 213.859375 214.320312 213.957031 213.941406 214.050781 C 211.15625 214.742188 208.300781 215.066406 205.449219 215.28125 C 202.609375 215.496094 199.769531 215.667969 196.929688 215.832031 C 194.074219 215.992188 191.222656 216.121094 188.367188 216.171875 C 185.5 216.21875 182.632812 216.1875 179.773438 216.027344 C 177.003906 215.871094 174.246094 215.585938 171.503906 215.160156 C 169.175781 214.800781 166.863281 214.328125 164.585938 213.714844 C 164.308594 213.640625 164.035156 213.566406 163.757812 213.488281 C 163.488281 213.410156 163.214844 213.332031 162.945312 213.25 C 162.949219 212.140625 162.996094 211.046875 163.074219 209.96875 C 164.625 210.457031 166.195312 210.878906 167.78125 211.238281 C 169.679688 211.664062 171.597656 212.007812 173.523438 212.273438 C 173.726562 212.300781 173.929688 212.324219 174.132812 212.351562 C 176.363281 212.628906 178.609375 212.804688 180.855469 212.90625 C 183.242188 213.015625 185.636719 213.039062 188.027344 213.003906 C 190.421875 212.96875 192.8125 212.875 195.203125 212.75 C 197.59375 212.628906 199.984375 212.472656 202.371094 212.316406 C 204.644531 212.167969 206.917969 212.03125 209.179688 211.742188 C 209.984375 211.628906 210.785156 211.496094 211.582031 211.332031 C 212.648438 211.117188 213.703125 210.851562 214.75 210.542969 C 214.894531 211.59375 215.007812 212.667969 215.078125 213.75 Z M 215.078125 213.75 " fill-opacity="1" fill-rule="nonzero"/><path fill="#54a3e6" d="M 190.96875 169.734375 C 193.933594 170.042969 196.476562 170.832031 198.535156 172.085938 C 200.414062 173.226562 201.363281 174.445312 201.71875 174.90625 C 201.742188 174.933594 201.765625 174.960938 201.78125 174.984375 C 202.160156 175.347656 202.242188 175.941406 201.949219 176.402344 C 201.617188 176.925781 200.921875 177.082031 200.398438 176.746094 C 200.207031 176.625 200.101562 176.484375 199.949219 176.292969 C 197.425781 173.054688 193.0625 172.117188 189.847656 171.898438 C 182.261719 171.386719 180.28125 176.300781 180.261719 176.351562 C 180.039062 176.933594 179.390625 177.222656 178.8125 176.996094 C 178.234375 176.773438 177.945312 176.121094 178.167969 175.542969 C 178.195312 175.472656 178.84375 173.816406 180.65625 172.285156 C 181.707031 171.398438 182.9375 170.722656 184.316406 170.269531 C 186.003906 169.71875 187.914062 169.511719 189.996094 169.652344 C 190.324219 169.671875 190.648438 169.703125 190.96875 169.734375 Z M 201.609375 174.847656 L 201.605469 174.847656 Z M 201.609375 174.847656 Z M 201.609375 174.847656 " fill-opacity="1" fill-rule="nonzero"/><path fill="#54a3e6" d="M 223.191406 206.382812 C 223.15625 206.410156 223.109375 206.375 223.042969 206.285156 C 223.21875 206.277344 223.289062 206.304688 223.191406 206.382812 Z M 223.191406 206.382812 " fill-opacity="1" fill-rule="nonzero"/><path fill="#f6f6f6" d="M 216.699219 180.230469 C 216.789062 180.09375 217.371094 177.101562 220.800781 178.976562 C 224.230469 180.855469 224.453125 186.976562 220.976562 188.496094 C 217.503906 190.015625 215.898438 181.433594 216.699219 180.230469 Z M 216.699219 180.230469 " fill-opacity="1" fill-rule="nonzero"/><path fill="#f6f6f6" d="M 216.269531 208.796875 C 211.339844 207.246094 210.507812 204.746094 209.855469 201.109375 C 209.710938 200.308594 209.546875 199.578125 209.375 198.933594 C 208.9375 197.25 208.46875 196.121094 208.25 195.644531 C 208.175781 195.476562 208.132812 195.390625 208.132812 195.390625 C 207.894531 195.390625 200.109375 183.59375 200.765625 180.496094 C 201.417969 177.398438 203.855469 177.695312 204.863281 178.171875 C 205.859375 178.640625 206.335938 180.148438 206.347656 180.199219 C 206.332031 180.128906 205.597656 177.203125 207.300781 175.910156 C 209.023438 174.597656 211.101562 177.039062 211.101562 177.039062 C 211.101562 177.039062 211.578125 173.585938 213.597656 173.464844 C 214.980469 173.386719 216.976562 175.734375 218.457031 178.386719 C 219.140625 179.613281 219.71875 180.898438 220.074219 182.046875 C 220.929688 184.804688 221.238281 186.773438 221.234375 188.371094 C 221.230469 188.878906 221.199219 189.347656 221.140625 189.789062 C 220.980469 191.039062 220.6875 192.121094 220.511719 192.695312 C 220.425781 192.96875 220.371094 193.128906 220.371094 193.128906 C 220.371094 193.128906 220.984375 193.820312 221.722656 194.96875 C 222.570312 196.296875 223.582031 198.226562 223.992188 200.394531 C 224.765625 204.445312 221.203125 210.34375 216.269531 208.796875 Z M 216.269531 208.796875 " fill-opacity="1" fill-rule="nonzero"/><path fill="#f6f6f6" d="M 209.375 198.933594 C 208.410156 198.5625 207.824219 198.203125 207.789062 198.148438 C 207.699219 198.011719 207.699219 197.164062 207.613281 197.296875 L 207.523438 195.285156 C 207.59375 195.230469 207.824219 195.40625 208.25 195.648438 C 208.46875 196.121094 208.9375 197.253906 209.375 198.933594 Z M 209.375 198.933594 " fill-opacity="1" fill-rule="nonzero"/><path fill="#54a3e6" d="M 221.722656 194.96875 C 220.980469 196.3125 218.800781 199.207031 215.453125 199.664062 C 212.957031 200.007812 210.765625 199.464844 209.375 198.933594 C 208.9375 197.25 208.46875 196.121094 208.25 195.644531 C 209.15625 196.15625 210.941406 196.949219 213.9375 196.402344 C 217.304688 195.789062 219.609375 193.664062 220.511719 192.695312 C 220.425781 192.96875 220.371094 193.125 220.371094 193.125 C 220.371094 193.125 220.984375 193.820312 221.722656 194.96875 Z M 221.722656 194.96875 " fill-opacity="1" fill-rule="nonzero"/><path fill="#160e0b" d="M 206.246094 180.984375 C 207.324219 182.886719 208.390625 184.800781 209.445312 186.71875 C 209.742188 187.265625 210.039062 187.808594 210.335938 188.355469 C 210.519531 188.691406 211.035156 188.390625 210.851562 188.054688 C 209.804688 186.128906 208.746094 184.214844 207.671875 182.304688 C 207.371094 181.761719 207.066406 181.222656 206.757812 180.683594 C 206.570312 180.347656 206.054688 180.648438 206.246094 180.984375 Z M 206.246094 180.984375 " fill-opacity="1" fill-rule="nonzero"/><path fill="#160e0b" d="M 211.292969 178.523438 C 212.5 180.113281 213.546875 181.824219 214.410156 183.628906 C 214.652344 184.144531 214.882812 184.664062 215.09375 185.191406 C 215.152344 185.339844 215.292969 185.445312 215.460938 185.398438 C 215.601562 185.359375 215.726562 185.179688 215.667969 185.03125 C 214.90625 183.144531 213.957031 181.335938 212.824219 179.644531 C 212.5 179.160156 212.160156 178.6875 211.804688 178.222656 C 211.707031 178.09375 211.546875 178.027344 211.398438 178.117188 C 211.273438 178.191406 211.191406 178.394531 211.292969 178.523438 Z M 211.292969 178.523438 " fill-opacity="1" fill-rule="nonzero"/><path fill="#160e0b" d="M 217.945312 178.824219 C 219.359375 180.824219 220.308594 183.128906 220.714844 185.546875 C 220.828125 186.226562 220.890625 186.914062 220.917969 187.601562 C 220.929688 187.984375 221.523438 187.988281 221.511719 187.601562 C 221.421875 185.066406 220.753906 182.566406 219.570312 180.324219 C 219.238281 179.699219 218.867188 179.097656 218.460938 178.523438 C 218.367188 178.390625 218.199219 178.328125 218.054688 178.414062 C 217.925781 178.492188 217.851562 178.691406 217.945312 178.824219 Z M 217.945312 178.824219 " fill-opacity="1" fill-rule="nonzero"/><path fill="#f6f6f6" d="M 161.902344 178.796875 C 161.8125 178.664062 161.234375 175.671875 157.804688 177.546875 C 154.375 179.425781 154.152344 185.546875 157.625 187.066406 C 161.101562 188.585938 162.707031 180.003906 161.902344 178.796875 Z M 161.902344 178.796875 " fill-opacity="1" fill-rule="nonzero"/><path fill="#f6f6f6" d="M 162.332031 207.367188 C 167.265625 205.816406 168.097656 203.316406 168.75 199.679688 C 168.894531 198.878906 169.058594 198.148438 169.226562 197.503906 C 169.667969 195.820312 170.136719 194.691406 170.351562 194.214844 C 170.429688 194.046875 170.472656 193.960938 170.472656 193.960938 C 170.710938 193.960938 178.492188 182.164062 177.839844 179.066406 C 177.1875 175.96875 174.75 176.265625 173.742188 176.742188 C 172.746094 177.210938 172.269531 178.71875 172.253906 178.765625 C 172.273438 178.699219 173.007812 175.773438 171.304688 174.480469 C 169.582031 173.167969 167.503906 175.609375 167.503906 175.609375 C 167.503906 175.609375 167.027344 172.15625 165.007812 172.035156 C 163.625 171.957031 161.628906 174.304688 160.144531 176.957031 C 159.460938 178.179688 158.886719 179.46875 158.53125 180.617188 C 157.675781 183.375 157.363281 185.34375 157.371094 186.941406 C 157.371094 187.449219 157.40625 187.917969 157.460938 188.359375 C 157.621094 189.609375 157.917969 190.691406 158.09375 191.265625 C 158.175781 191.539062 158.234375 191.699219 158.234375 191.699219 C 158.234375 191.699219 157.617188 192.390625 156.882812 193.539062 C 156.035156 194.867188 155.023438 196.796875 154.609375 198.964844 C 153.839844 203.015625 157.402344 208.914062 162.332031 207.367188 Z M 162.332031 207.367188 " fill-opacity="1" fill-rule="nonzero"/><path fill="#f6f6f6" d="M 169.230469 197.503906 C 170.195312 197.132812 170.777344 196.769531 170.816406 196.714844 C 170.902344 196.582031 170.902344 195.734375 170.992188 195.867188 L 171.082031 193.855469 C 171.011719 193.800781 170.78125 193.976562 170.351562 194.214844 C 170.136719 194.691406 169.667969 195.824219 169.226562 197.503906 Z M 169.230469 197.503906 " fill-opacity="1" fill-rule="nonzero"/><path fill="#54a3e6" d="M 156.882812 193.539062 C 157.625 194.882812 159.800781 197.777344 163.152344 198.234375 C 165.648438 198.578125 167.835938 198.035156 169.230469 197.503906 C 169.667969 195.820312 170.136719 194.691406 170.351562 194.214844 C 169.449219 194.726562 167.664062 195.519531 164.664062 194.972656 C 161.296875 194.359375 158.996094 192.234375 158.09375 191.265625 C 158.179688 191.539062 158.234375 191.695312 158.234375 191.695312 C 158.234375 191.695312 157.621094 192.390625 156.882812 193.539062 Z M 156.882812 193.539062 " fill-opacity="1" fill-rule="nonzero"/><path fill="#160e0b" d="M 171.847656 179.253906 C 170.765625 181.15625 169.699219 183.070312 168.644531 184.988281 C 168.347656 185.53125 168.050781 186.078125 167.753906 186.625 C 167.570312 186.960938 168.082031 187.261719 168.265625 186.925781 C 169.3125 185 170.371094 183.085938 171.445312 181.175781 C 171.75 180.632812 172.054688 180.09375 172.359375 179.554688 C 172.550781 179.21875 172.035156 178.917969 171.847656 179.253906 Z M 171.847656 179.253906 " fill-opacity="1" fill-rule="nonzero"/><path fill="#160e0b" d="M 166.800781 176.792969 C 165.570312 178.40625 164.511719 180.144531 163.644531 181.980469 C 163.390625 182.511719 163.15625 183.054688 162.9375 183.601562 C 162.875 183.75 163.003906 183.929688 163.144531 183.96875 C 163.316406 184.015625 163.449219 183.910156 163.511719 183.757812 C 164.257812 181.914062 165.199219 180.144531 166.3125 178.492188 C 166.632812 178.015625 166.964844 177.550781 167.3125 177.09375 C 167.410156 176.964844 167.332031 176.761719 167.207031 176.6875 C 167.054688 176.597656 166.898438 176.664062 166.800781 176.792969 Z M 166.800781 176.792969 " fill-opacity="1" fill-rule="nonzero"/><path fill="#160e0b" d="M 160.144531 177.09375 C 158.6875 179.152344 157.707031 181.550781 157.304688 184.042969 C 157.1875 184.75 157.117188 185.457031 157.09375 186.171875 C 157.078125 186.558594 157.675781 186.554688 157.6875 186.171875 C 157.773438 183.734375 158.417969 181.324219 159.5625 179.171875 C 159.890625 178.554688 160.253906 177.960938 160.65625 177.394531 C 160.75 177.261719 160.679688 177.0625 160.550781 176.984375 C 160.402344 176.898438 160.238281 176.960938 160.144531 177.09375 Z M 160.144531 177.09375 " fill-opacity="1" fill-rule="nonzero"/><path fill="#54a3e6" d="M 198.414062 144.480469 C 199.5 145.925781 200.796875 147.15625 202.3125 148.136719 C 203.722656 149.054688 205.316406 149.742188 206.953125 150.132812 C 207.929688 150.363281 208.9375 150.5 209.941406 150.53125 C 210.554688 150.550781 211.140625 149.976562 211.113281 149.355469 C 211.085938 148.699219 210.597656 148.199219 209.941406 148.175781 C 209.480469 148.164062 209.023438 148.125 208.566406 148.0625 L 208.878906 148.105469 C 207.6875 147.941406 206.527344 147.617188 205.417969 147.152344 L 205.695312 147.269531 C 204.574219 146.792969 203.511719 146.175781 202.546875 145.429688 L 202.785156 145.613281 C 201.875 144.90625 201.058594 144.09375 200.355469 143.179688 L 200.539062 143.417969 C 200.503906 143.378906 200.472656 143.335938 200.441406 143.292969 C 200.25 143.039062 200.058594 142.839844 199.738281 142.75 C 199.457031 142.675781 199.082031 142.710938 198.835938 142.871094 C 198.585938 143.03125 198.363281 143.273438 198.296875 143.574219 C 198.226562 143.875 198.226562 144.234375 198.414062 144.480469 Z M 198.414062 144.480469 " fill-opacity="1" fill-rule="nonzero"/><path fill="#54a3e6" d="M 178.105469 144.125 C 177.019531 145.566406 175.722656 146.796875 174.207031 147.78125 C 172.792969 148.699219 171.199219 149.382812 169.5625 149.773438 C 168.585938 150.007812 167.578125 150.144531 166.578125 150.175781 C 165.960938 150.195312 165.375 149.621094 165.402344 148.996094 C 165.433594 148.34375 165.917969 147.839844 166.578125 147.820312 C 167.035156 147.804688 167.492188 147.765625 167.949219 147.707031 C 167.84375 147.71875 167.742188 147.734375 167.636719 147.746094 C 168.828125 147.582031 169.992188 147.257812 171.101562 146.792969 L 170.820312 146.914062 C 171.945312 146.4375 173.003906 145.820312 173.972656 145.074219 C 173.890625 145.132812 173.8125 145.195312 173.734375 145.257812 C 174.640625 144.550781 175.460938 143.734375 176.164062 142.824219 L 175.980469 143.0625 C 176.011719 143.019531 176.042969 142.976562 176.074219 142.933594 C 176.265625 142.679688 176.457031 142.480469 176.777344 142.394531 C 177.058594 142.316406 177.433594 142.351562 177.683594 142.511719 C 177.929688 142.675781 178.152344 142.917969 178.222656 143.214844 C 178.289062 143.503906 178.289062 143.875 178.105469 144.125 Z M 178.105469 144.125 " fill-opacity="1" fill-rule="nonzero"/><g clip-path="url(#2226116f32)"><path fill="#1f2b5b" d="M 200.191406 198.285156 L 200.191406 195.0625 L 202.445312 195.0625 C 202.445312 195.0625 202.476562 196.570312 201.898438 197.179688 C 201.324219 197.785156 200.191406 198.285156 200.191406 198.285156 Z M 200.191406 198.285156 " fill-opacity="1" fill-rule="nonzero"/></g><g clip-path="url(#02c6badb94)"><g clip-path="url(#8e5fa73092)"><path fill="url(#bc51cdfded)" d="M 196.445312 195.183594 L 196.445312 201.050781 L 202.445312 201.050781 L 202.445312 195.183594 Z M 196.445312 195.183594 " fill-rule="nonzero"/></g></g><g clip-path="url(#6dd340762d)"><path fill="#1f2b5b" d="M 202.445312 200.820312 L 202.445312 204.042969 L 200.191406 204.042969 C 200.191406 204.042969 200.164062 202.535156 200.738281 201.929688 C 201.3125 201.320312 202.445312 200.820312 202.445312 200.820312 Z M 202.445312 200.820312 " fill-opacity="1" fill-rule="nonzero"/></g><g clip-path="url(#8869654e5d)"><g clip-path="url(#187dc9923d)"><path fill="url(#19811c384c)" d="M 206.191406 203.921875 L 206.191406 198.054688 L 200.191406 198.054688 L 200.191406 203.921875 Z M 206.191406 203.921875 " fill-rule="nonzero"/></g></g><g clip-path="url(#81ca916be2)"><g clip-path="url(#c416c5ad89)"><g clip-path="url(#ab03b2eacd)"><path fill="#002d75" d="M 204.894531 105.351562 C 204.90625 105.691406 204.898438 106.023438 204.871094 106.355469 C 204.007812 105.777344 203.089844 105.28125 202.125 104.894531 C 197.300781 102.9375 192.28125 102.03125 187.203125 102.199219 C 182.125 102.367188 177.175781 103.601562 172.492188 105.871094 C 171.554688 106.324219 170.671875 106.878906 169.851562 107.511719 C 169.800781 107.183594 169.769531 106.851562 169.757812 106.511719 C 169.605469 101.859375 173.265625 97.949219 177.917969 97.796875 L 196.179688 97.191406 C 200.832031 97.039062 204.742188 100.699219 204.894531 105.351562 Z M 204.894531 105.351562 " fill-opacity="1" fill-rule="nonzero"/></g></g></g><g clip-path="url(#992733178f)"><g clip-path="url(#0cb72f4ab5)"><g clip-path="url(#353fe9654d)"><path fill="#002d75" d="M 204.632812 107.730469 C 203.753906 107.085938 202.757812 106.519531 201.648438 106.070312 C 196.992188 104.183594 192.144531 103.308594 187.246094 103.46875 C 182.347656 103.632812 177.570312 104.824219 173.046875 107.015625 C 171.96875 107.539062 171.015625 108.167969 170.175781 108.871094 C 169.996094 109.015625 169.824219 109.167969 169.65625 109.324219 C 170.957031 112.925781 174.464844 115.441406 178.496094 115.308594 L 185.78125 115.070312 L 185.746094 114.109375 L 183.4375 114.1875 C 182.5 114.21875 181.714844 113.414062 181.679688 112.394531 C 181.644531 111.371094 182.378906 110.519531 183.316406 110.492188 L 185.625 110.414062 L 185.550781 108.105469 C 185.519531 107.167969 186.320312 106.378906 187.339844 106.347656 C 188.359375 106.3125 189.214844 107.046875 189.246094 107.984375 L 189.320312 110.292969 L 191.628906 110.214844 C 192.566406 110.183594 193.351562 110.984375 193.386719 112.007812 C 193.421875 113.027344 192.6875 113.882812 191.75 113.910156 L 189.445312 113.988281 L 189.476562 114.945312 L 196.757812 114.707031 C 200.792969 114.574219 204.125 111.828125 205.183594 108.148438 C 205.003906 108.003906 204.824219 107.867188 204.632812 107.730469 Z M 204.632812 107.730469 " fill-opacity="1" fill-rule="nonzero"/></g></g></g><g clip-path="url(#439aaf266d)"><g clip-path="url(#61dfd2b46b)"><g clip-path="url(#c646b871bc)"><path fill="#ffffff" d="M 205.183594 108.148438 C 205.003906 108.003906 204.824219 107.867188 204.632812 107.730469 C 203.726562 111.269531 200.570312 113.945312 196.738281 114.070312 L 189.453125 114.3125 L 189.496094 115.582031 L 196.777344 115.34375 C 200.988281 115.203125 204.492188 112.394531 205.707031 108.597656 C 205.539062 108.445312 205.363281 108.296875 205.183594 108.148438 Z M 178.476562 114.675781 C 174.644531 114.800781 171.316406 112.339844 170.175781 108.871094 C 169.996094 109.015625 169.824219 109.167969 169.65625 109.324219 C 169.484375 109.480469 169.320312 109.640625 169.160156 109.804688 C 170.628906 113.511719 174.308594 116.085938 178.515625 115.945312 L 185.800781 115.703125 L 185.757812 114.433594 Z M 178.476562 114.675781 " fill-opacity="1" fill-rule="nonzero"/></g></g></g><g clip-path="url(#af355dcdaf)"><g clip-path="url(#d45ecab924)"><g clip-path="url(#a5ddadc39c)"><path fill="#002d75" d="M 209.871094 115.09375 C 209.289062 113.03125 207.9375 110.574219 205.707031 108.597656 C 205.539062 108.445312 205.363281 108.296875 205.183594 108.148438 C 205.003906 108.003906 204.824219 107.867188 204.632812 107.730469 C 203.753906 107.085938 202.757812 106.519531 201.648438 106.070312 C 196.992188 104.183594 192.144531 103.308594 187.246094 103.46875 C 182.347656 103.632812 177.570312 104.824219 173.046875 107.015625 C 171.96875 107.539062 171.015625 108.167969 170.175781 108.871094 C 169.996094 109.015625 169.824219 109.167969 169.65625 109.324219 C 169.484375 109.480469 169.320312 109.640625 169.160156 109.804688 C 167.070312 111.925781 165.886719 114.464844 165.4375 116.5625 C 164.902344 119.082031 165.269531 121.328125 166.441406 122.722656 C 167.105469 123.53125 167.847656 124.128906 168.621094 124.5625 C 168.824219 124.585938 169.3125 124.640625 169.980469 124.664062 C 170.359375 124.675781 170.796875 124.679688 171.273438 124.664062 C 173.683594 124.585938 177.117188 124.007812 179.253906 121.609375 C 179.453125 121.386719 179.636719 121.148438 179.8125 120.890625 C 180.011719 120.605469 180.40625 120.527344 180.699219 120.726562 C 180.988281 120.925781 181.0625 121.320312 180.863281 121.609375 C 179.28125 123.929688 176.851562 125.046875 174.550781 125.558594 C 175.933594 125.390625 177.351562 124.984375 178.703125 124.371094 C 181.609375 122.964844 184.695312 122.191406 187.859375 122.085938 C 191.027344 121.984375 194.15625 122.546875 197.164062 123.769531 C 198.910156 124.425781 200.746094 124.746094 202.46875 124.6875 C 204.519531 124.621094 207.359375 123.980469 209.269531 121.3125 C 210.355469 119.835938 210.570312 117.574219 209.871094 115.09375 Z M 183.179688 119.214844 C 182.621094 119.816406 181.675781 119.847656 181.078125 119.285156 C 180.472656 118.71875 180.441406 117.777344 181.007812 117.179688 C 181.570312 116.578125 182.511719 116.546875 183.113281 117.109375 C 183.710938 117.671875 183.742188 118.613281 183.179688 119.214844 Z M 189.519531 116.296875 C 189.550781 117.234375 188.746094 118.019531 187.726562 118.054688 C 186.707031 118.085938 185.855469 117.355469 185.824219 116.417969 L 185.746094 114.109375 L 183.4375 114.1875 C 182.5 114.21875 181.714844 113.414062 181.679688 112.394531 C 181.644531 111.375 182.378906 110.519531 183.316406 110.492188 L 185.625 110.414062 L 185.550781 108.105469 C 185.519531 107.167969 186.320312 106.378906 187.339844 106.347656 C 188.359375 106.3125 189.214844 107.046875 189.246094 107.984375 L 189.320312 110.292969 L 191.628906 110.214844 C 192.566406 110.183594 193.351562 110.988281 193.386719 112.007812 C 193.421875 113.027344 192.6875 113.882812 191.75 113.910156 L 189.445312 113.988281 Z M 189.519531 116.296875 " fill-opacity="1" fill-rule="nonzero"/><path fill="#002d75" d="M 209.871094 115.09375 C 209.289062 113.03125 207.9375 110.574219 205.707031 108.597656 C 205.539062 108.445312 205.363281 108.296875 205.183594 108.148438 C 205.003906 108.003906 204.824219 107.867188 204.632812 107.730469 C 203.753906 107.085938 202.757812 106.519531 201.648438 106.070312 C 196.992188 104.183594 192.144531 103.308594 187.246094 103.46875 C 182.347656 103.632812 177.570312 104.824219 173.046875 107.015625 C 171.96875 107.539062 171.015625 108.167969 170.175781 108.871094 C 169.996094 109.015625 169.824219 109.167969 169.65625 109.324219 C 169.484375 109.480469 169.320312 109.640625 169.160156 109.804688 C 167.070312 111.925781 165.886719 114.464844 165.4375 116.5625 C 164.902344 119.082031 165.269531 121.328125 166.441406 122.722656 C 167.105469 123.53125 167.847656 124.128906 168.621094 124.5625 C 168.824219 124.585938 169.3125 124.640625 169.980469 124.664062 C 170.359375 124.675781 170.796875 124.679688 171.273438 124.664062 C 173.683594 124.585938 177.117188 124.007812 179.253906 121.609375 C 179.453125 121.386719 179.636719 121.148438 179.8125 120.890625 C 180.011719 120.605469 180.40625 120.527344 180.699219 120.726562 C 180.988281 120.925781 181.0625 121.320312 180.863281 121.609375 C 179.28125 123.929688 176.851562 125.046875 174.550781 125.558594 C 175.933594 125.390625 177.351562 124.984375 178.703125 124.371094 C 181.609375 122.964844 184.695312 122.191406 187.859375 122.085938 C 191.027344 121.984375 194.15625 122.546875 197.164062 123.769531 C 198.910156 124.425781 200.746094 124.746094 202.46875 124.6875 C 204.519531 124.621094 207.359375 123.980469 209.269531 121.3125 C 210.355469 119.835938 210.570312 117.574219 209.871094 115.09375 Z M 183.179688 119.214844 C 182.621094 119.816406 181.675781 119.847656 181.078125 119.285156 C 180.472656 118.71875 180.441406 117.777344 181.007812 117.179688 C 181.570312 116.578125 182.511719 116.546875 183.113281 117.109375 C 183.710938 117.671875 183.742188 118.613281 183.179688 119.214844 Z M 189.519531 116.296875 C 189.550781 117.234375 188.746094 118.019531 187.726562 118.054688 C 186.707031 118.085938 185.855469 117.355469 185.824219 116.417969 L 185.746094 114.109375 L 183.4375 114.1875 C 182.5 114.21875 181.714844 113.414062 181.679688 112.394531 C 181.644531 111.375 182.378906 110.519531 183.316406 110.492188 L 185.625 110.414062 L 185.550781 108.105469 C 185.519531 107.167969 186.320312 106.378906 187.339844 106.347656 C 188.359375 106.3125 189.214844 107.046875 189.246094 107.984375 L 189.320312 110.292969 L 191.628906 110.214844 C 192.566406 110.183594 193.351562 110.988281 193.386719 112.007812 C 193.421875 113.027344 192.6875 113.882812 191.75 113.910156 L 189.445312 113.988281 Z M 189.519531 116.296875 " fill-opacity="1" fill-rule="nonzero"/></g></g></g><g clip-path="url(#cb91a37b4e)"><g clip-path="url(#4d5578e67c)"><g clip-path="url(#14b81574ab)"><path fill="#002d75" d="M 179.25 121.609375 C 177.117188 124.007812 173.683594 124.585938 171.273438 124.664062 C 170.796875 124.679688 170.359375 124.675781 169.980469 124.664062 Z M 179.25 121.609375 " fill-opacity="1" fill-rule="nonzero"/></g></g></g></svg>