<svg xmlns="http://www.w3.org/2000/svg" xmlns:xlink="http://www.w3.org/1999/xlink" width="500" zoomAndPan="magnify" viewBox="0 0 375 374.999991" height="500" preserveAspectRatio="xMidYMid meet" version="1.0"><defs><clipPath id="5d5d826dba"><path d="M 126.71875 141 L 142 141 L 142 174 L 126.71875 174 Z M 126.71875 141 " clip-rule="nonzero"/></clipPath><clipPath id="a398c2fcb0"><path d="M 162 231 L 190 231 L 190 262.5 L 162 262.5 Z M 162 231 " clip-rule="nonzero"/></clipPath><clipPath id="e0db48da90"><path d="M 197 231 L 225 231 L 225 262.5 L 197 262.5 Z M 197 231 " clip-rule="nonzero"/></clipPath><clipPath id="fda5d47588"><path d="M 169 98.65625 L 206 98.65625 L 206 109 L 169 109 Z M 169 98.65625 " clip-rule="nonzero"/></clipPath><clipPath id="f02944506c"><path d="M 164.632812 104 L 210.382812 104 L 210.382812 126.40625 L 164.632812 126.40625 Z M 164.632812 104 " clip-rule="nonzero"/></clipPath></defs><path fill="#f6f6f6" d="M 176.90625 194.132812 C 175.878906 196.007812 165.0625 210.574219 169.65625 226.71875 C 174.25 242.859375 194.792969 242.316406 204.703125 239.714844 C 214.613281 237.117188 221.082031 228.652344 218.664062 218.132812 C 216.246094 207.613281 208.933594 188.449219 207.785156 189.054688 C 206.636719 189.660156 176.96875 193.890625 176.96875 193.890625 Z M 176.90625 194.132812 " fill-opacity="1" fill-rule="nonzero"/><path fill="#f6f6f6" d="M 216.667969 232.21875 C 216.230469 232.90625 215.726562 233.566406 215.167969 234.195312 C 211.375 238.457031 204.945312 241.378906 198.066406 242.445312 C 195.164062 242.898438 192.183594 243.015625 189.289062 242.765625 C 182.34375 242.167969 175.890625 239.449219 172.203125 234.070312 C 171.652344 233.273438 171.164062 232.414062 170.746094 231.492188 C 169.621094 229.03125 168.925781 226.453125 168.550781 223.84375 C 168.402344 222.800781 168.304688 221.75 168.253906 220.699219 C 167.5625 206.609375 175.09375 192.679688 175.09375 192.679688 C 175.457031 190.503906 204.460938 189.417969 209.902344 192.199219 C 213.410156 193.992188 218.574219 204.839844 219.628906 215.722656 C 219.734375 216.800781 219.796875 217.878906 219.816406 218.949219 C 219.898438 223.824219 219.027344 228.523438 216.667969 232.21875 Z M 216.667969 232.21875 " fill-opacity="1" fill-rule="nonzero"/><path fill="#54a3e6" d="M 219.816406 218.949219 C 218.578125 219.367188 217.328125 219.753906 216.070312 220.113281 C 213.808594 220.757812 211.515625 221.308594 209.207031 221.777344 C 206.898438 222.242188 204.574219 222.628906 202.242188 222.945312 C 199.777344 223.28125 197.304688 223.554688 194.824219 223.757812 C 192.46875 223.953125 190.105469 224.09375 187.742188 224.1875 C 185.125 224.292969 182.507812 224.351562 179.886719 224.339844 C 177.253906 224.332031 174.617188 224.253906 171.988281 224.097656 C 170.84375 224.027344 169.695312 223.949219 168.550781 223.84375 C 168.402344 222.800781 168.304688 221.75 168.253906 220.699219 C 170.089844 220.878906 171.933594 220.988281 173.773438 221.074219 C 176.234375 221.1875 178.695312 221.234375 181.160156 221.222656 C 183.589844 221.210938 186.023438 221.148438 188.449219 221.042969 C 190.648438 220.945312 192.847656 220.808594 195.039062 220.625 C 197.199219 220.441406 199.355469 220.214844 201.507812 219.925781 C 201.523438 219.925781 201.535156 219.921875 201.550781 219.921875 C 203.15625 219.699219 204.757812 219.449219 206.351562 219.160156 C 209.375 218.609375 212.378906 217.925781 215.332031 217.082031 C 216.777344 216.667969 218.210938 216.214844 219.628906 215.722656 C 219.734375 216.800781 219.796875 217.878906 219.816406 218.949219 Z M 219.816406 218.949219 " fill-opacity="1" fill-rule="nonzero"/><g clip-path="url(#5d5d826dba)"><path fill="#54a3e6" d="M 139.503906 142.960938 C 139.199219 142.84375 135.074219 140.132812 130.703125 143.886719 C 126.335938 147.636719 125.058594 161.199219 129.414062 169.152344 C 133.769531 177.105469 141.667969 172.945312 141.660156 172.484375 C 141.648438 172.019531 139.503906 142.960938 139.503906 142.960938 Z M 139.503906 142.960938 " fill-opacity="1" fill-rule="nonzero"/></g><path fill="#f6f6f6" d="M 136.605469 142.859375 C 136.378906 143.097656 129.863281 148.066406 131.234375 159.742188 C 132.605469 171.417969 137.273438 174.476562 143.46875 172.269531 C 149.664062 170.066406 149.335938 157.226562 148.339844 152.710938 C 147.34375 148.195312 144.289062 145.714844 144.289062 145.714844 L 146.863281 124.992188 L 142.519531 123.816406 Z M 136.605469 142.859375 " fill-opacity="1" fill-rule="nonzero"/><path fill="#f6f6f6" d="M 148.386719 118.570312 C 148.582031 118.765625 148.757812 118.980469 148.910156 119.210938 C 149.066406 119.441406 149.195312 119.683594 149.300781 119.9375 C 149.40625 120.195312 149.488281 120.457031 149.539062 120.730469 C 149.59375 121 149.621094 121.277344 149.621094 121.550781 C 149.621094 121.828125 149.59375 122.101562 149.539062 122.375 C 149.488281 122.648438 149.40625 122.910156 149.300781 123.167969 C 149.195312 123.421875 149.066406 123.664062 148.910156 123.894531 C 148.757812 124.125 148.582031 124.339844 148.386719 124.535156 C 148.191406 124.730469 147.976562 124.90625 147.75 125.058594 C 147.519531 125.210938 147.273438 125.34375 147.019531 125.449219 C 146.765625 125.554688 146.5 125.632812 146.230469 125.6875 C 145.957031 125.742188 145.683594 125.769531 145.40625 125.769531 C 145.128906 125.769531 144.855469 125.742188 144.585938 125.6875 C 144.3125 125.632812 144.050781 125.554688 143.792969 125.449219 C 143.539062 125.34375 143.296875 125.210938 143.066406 125.058594 C 142.835938 124.90625 142.621094 124.730469 142.425781 124.535156 C 142.230469 124.339844 142.054688 124.125 141.902344 123.894531 C 141.75 123.664062 141.617188 123.421875 141.511719 123.167969 C 141.40625 122.910156 141.328125 122.648438 141.273438 122.375 C 141.21875 122.101562 141.191406 121.828125 141.191406 121.550781 C 141.191406 121.277344 141.21875 121 141.273438 120.730469 C 141.328125 120.457031 141.40625 120.195312 141.511719 119.9375 C 141.617188 119.683594 141.75 119.441406 141.902344 119.210938 C 142.054688 118.980469 142.230469 118.765625 142.425781 118.570312 C 142.621094 118.375 142.835938 118.199219 143.066406 118.046875 C 143.296875 117.890625 143.539062 117.761719 143.792969 117.65625 C 144.050781 117.550781 144.3125 117.46875 144.585938 117.417969 C 144.855469 117.363281 145.128906 117.335938 145.40625 117.335938 C 145.683594 117.335938 145.957031 117.363281 146.230469 117.417969 C 146.5 117.46875 146.765625 117.550781 147.019531 117.65625 C 147.273438 117.761719 147.519531 117.890625 147.75 118.046875 C 147.976562 118.199219 148.191406 118.375 148.386719 118.570312 Z M 148.386719 118.570312 " fill-opacity="1" fill-rule="nonzero"/><path fill="#4ac95b" d="M 233.347656 140.976562 C 233.410156 140.964844 233.390625 140.863281 233.324219 140.875 C 233.257812 140.890625 233.28125 140.992188 233.347656 140.976562 Z M 233.347656 140.976562 " fill-opacity="1" fill-rule="nonzero"/><path fill="#f6f6f6" d="M 144.324219 181.613281 C 144.3125 181.601562 144.25 181.449219 144.144531 181.171875 C 142.683594 177.304688 133.375 149.03125 151.023438 130.109375 C 169.941406 109.832031 200.71875 110.210938 218.859375 121.1875 C 237 132.160156 246.898438 161.300781 231 180.664062 C 215.101562 200.027344 177.410156 200.523438 164.988281 197.851562 C 146.539062 193.878906 144.324219 181.613281 144.324219 181.613281 Z M 144.324219 181.613281 " fill-opacity="1" fill-rule="nonzero"/><path fill="#1e1915" d="M 147.089844 181.25 C 144.265625 176.304688 138.15625 148.058594 150.460938 141.007812 C 162.765625 133.953125 196.941406 130.117188 205.191406 138.324219 C 213.4375 146.53125 216.664062 177.394531 204.160156 184.117188 C 191.660156 190.84375 155.886719 196.660156 147.089844 181.25 Z M 147.089844 181.25 " fill-opacity="1" fill-rule="nonzero"/><path fill="#54a3e6" d="M 197.179688 162.085938 C 197.191406 162.679688 197.164062 163.269531 197.09375 163.855469 C 197.023438 164.441406 196.910156 165.011719 196.757812 165.5625 C 196.609375 166.117188 196.417969 166.644531 196.1875 167.144531 C 195.960938 167.644531 195.699219 168.109375 195.40625 168.535156 C 195.109375 168.964844 194.785156 169.347656 194.4375 169.6875 C 194.085938 170.027344 193.710938 170.3125 193.320312 170.550781 C 192.925781 170.789062 192.519531 170.96875 192.097656 171.09375 C 191.679688 171.222656 191.253906 171.289062 190.820312 171.300781 C 190.390625 171.308594 189.960938 171.261719 189.535156 171.15625 C 189.109375 171.050781 188.695312 170.886719 188.289062 170.667969 C 187.886719 170.449219 187.5 170.179688 187.136719 169.859375 C 186.769531 169.535156 186.429688 169.167969 186.113281 168.753906 C 185.796875 168.34375 185.515625 167.890625 185.261719 167.402344 C 185.011719 166.914062 184.796875 166.394531 184.621094 165.851562 C 184.441406 165.304688 184.304688 164.742188 184.207031 164.160156 C 184.109375 163.578125 184.050781 162.988281 184.039062 162.394531 C 184.023438 161.800781 184.050781 161.210938 184.121094 160.625 C 184.191406 160.039062 184.304688 159.46875 184.457031 158.917969 C 184.609375 158.363281 184.796875 157.835938 185.027344 157.335938 C 185.253906 156.835938 185.515625 156.371094 185.8125 155.945312 C 186.105469 155.515625 186.429688 155.132812 186.78125 154.792969 C 187.132812 154.453125 187.503906 154.167969 187.894531 153.929688 C 188.289062 153.691406 188.695312 153.511719 189.117188 153.386719 C 189.539062 153.257812 189.964844 153.191406 190.394531 153.179688 C 190.824219 153.171875 191.253906 153.21875 191.679688 153.324219 C 192.105469 153.429688 192.519531 153.59375 192.925781 153.8125 C 193.328125 154.027344 193.714844 154.300781 194.082031 154.621094 C 194.445312 154.945312 194.789062 155.3125 195.101562 155.722656 C 195.417969 156.136719 195.699219 156.589844 195.953125 157.078125 C 196.203125 157.566406 196.417969 158.085938 196.597656 158.628906 C 196.773438 159.175781 196.914062 159.738281 197.011719 160.320312 C 197.109375 160.902344 197.164062 161.492188 197.179688 162.085938 Z M 197.179688 162.085938 " fill-opacity="1" fill-rule="nonzero"/><path fill="#54a3e6" d="M 167.117188 164.648438 C 167.191406 165.238281 167.222656 165.828125 167.214844 166.417969 C 167.203125 167.007812 167.152344 167.585938 167.0625 168.152344 C 166.96875 168.714844 166.839844 169.257812 166.667969 169.777344 C 166.496094 170.300781 166.289062 170.785156 166.046875 171.242188 C 165.800781 171.695312 165.527344 172.109375 165.222656 172.480469 C 164.914062 172.851562 164.582031 173.171875 164.222656 173.449219 C 163.867188 173.722656 163.488281 173.941406 163.09375 174.109375 C 162.699219 174.273438 162.292969 174.382812 161.875 174.4375 C 161.457031 174.488281 161.035156 174.480469 160.609375 174.417969 C 160.1875 174.355469 159.765625 174.234375 159.351562 174.054688 C 158.9375 173.878906 158.535156 173.644531 158.148438 173.363281 C 157.757812 173.078125 157.390625 172.746094 157.042969 172.363281 C 156.695312 171.984375 156.375 171.5625 156.082031 171.101562 C 155.789062 170.636719 155.527344 170.144531 155.300781 169.617188 C 155.074219 169.09375 154.882812 168.546875 154.726562 167.976562 C 154.574219 167.40625 154.460938 166.828125 154.386719 166.238281 C 154.3125 165.648438 154.28125 165.058594 154.289062 164.46875 C 154.300781 163.878906 154.351562 163.300781 154.441406 162.734375 C 154.535156 162.171875 154.664062 161.628906 154.835938 161.109375 C 155.007812 160.589844 155.214844 160.101562 155.457031 159.648438 C 155.703125 159.191406 155.976562 158.78125 156.285156 158.40625 C 156.589844 158.035156 156.921875 157.714844 157.28125 157.441406 C 157.636719 157.164062 158.015625 156.945312 158.410156 156.777344 C 158.804688 156.613281 159.214844 156.503906 159.632812 156.453125 C 160.050781 156.398438 160.46875 156.40625 160.894531 156.46875 C 161.320312 156.53125 161.738281 156.652344 162.152344 156.832031 C 162.566406 157.007812 162.96875 157.242188 163.355469 157.527344 C 163.746094 157.808594 164.113281 158.144531 164.460938 158.523438 C 164.808594 158.902344 165.128906 159.324219 165.421875 159.789062 C 165.714844 160.25 165.976562 160.742188 166.203125 161.269531 C 166.433594 161.792969 166.621094 162.339844 166.777344 162.910156 C 166.929688 163.480469 167.042969 164.058594 167.117188 164.648438 Z M 167.117188 164.648438 " fill-opacity="1" fill-rule="nonzero"/><path fill="#54a3e6" d="M 236.355469 139.886719 C 236.050781 139.769531 231.925781 137.058594 227.554688 140.8125 C 223.183594 144.5625 221.910156 158.125 226.261719 166.078125 C 230.617188 174.03125 238.519531 169.871094 238.507812 169.410156 C 238.5 168.945312 236.355469 139.886719 236.355469 139.886719 Z M 236.355469 139.886719 " fill-opacity="1" fill-rule="nonzero"/><path fill="#f6f6f6" d="M 233.453125 139.785156 C 233.226562 140.023438 226.714844 144.992188 228.085938 156.667969 C 229.457031 168.34375 234.121094 171.402344 240.316406 169.195312 C 246.515625 166.992188 246.1875 154.152344 245.191406 149.636719 C 244.191406 145.121094 241.140625 142.640625 241.140625 142.640625 L 243.710938 121.917969 L 239.367188 120.742188 Z M 233.453125 139.785156 " fill-opacity="1" fill-rule="nonzero"/><path fill="#f6f6f6" d="M 245.238281 115.496094 C 245.433594 115.691406 245.605469 115.90625 245.761719 116.136719 C 245.914062 116.363281 246.042969 116.609375 246.152344 116.863281 C 246.257812 117.121094 246.335938 117.382812 246.390625 117.65625 C 246.445312 117.925781 246.472656 118.199219 246.472656 118.476562 C 246.472656 118.753906 246.445312 119.027344 246.390625 119.300781 C 246.335938 119.570312 246.257812 119.835938 246.152344 120.089844 C 246.042969 120.347656 245.914062 120.589844 245.761719 120.820312 C 245.605469 121.050781 245.433594 121.261719 245.238281 121.460938 C 245.042969 121.65625 244.828125 121.828125 244.597656 121.984375 C 244.367188 122.136719 244.125 122.265625 243.871094 122.375 C 243.613281 122.480469 243.351562 122.558594 243.078125 122.613281 C 242.808594 122.667969 242.535156 122.695312 242.257812 122.695312 C 241.980469 122.695312 241.707031 122.667969 241.433594 122.613281 C 241.164062 122.558594 240.898438 122.480469 240.644531 122.375 C 240.386719 122.265625 240.144531 122.136719 239.914062 121.984375 C 239.683594 121.828125 239.472656 121.65625 239.277344 121.460938 C 239.082031 121.261719 238.90625 121.050781 238.753906 120.820312 C 238.597656 120.589844 238.46875 120.347656 238.363281 120.089844 C 238.257812 119.835938 238.175781 119.570312 238.121094 119.300781 C 238.070312 119.027344 238.042969 118.753906 238.042969 118.476562 C 238.042969 118.199219 238.070312 117.925781 238.121094 117.65625 C 238.175781 117.382812 238.257812 117.121094 238.363281 116.863281 C 238.46875 116.609375 238.597656 116.363281 238.753906 116.136719 C 238.90625 115.90625 239.082031 115.691406 239.277344 115.496094 C 239.472656 115.300781 239.683594 115.125 239.914062 114.972656 C 240.144531 114.816406 240.386719 114.6875 240.644531 114.582031 C 240.898438 114.476562 241.164062 114.394531 241.433594 114.34375 C 241.707031 114.289062 241.980469 114.261719 242.257812 114.261719 C 242.535156 114.261719 242.808594 114.289062 243.078125 114.34375 C 243.351562 114.394531 243.613281 114.476562 243.871094 114.582031 C 244.125 114.6875 244.367188 114.816406 244.597656 114.972656 C 244.828125 115.125 245.042969 115.300781 245.238281 115.496094 Z M 245.238281 115.496094 " fill-opacity="1" fill-rule="nonzero"/><path fill="#f6f6f6" d="M 171.046875 209.667969 C 171.105469 209.546875 179.082031 201.144531 182.707031 202.597656 C 186.335938 204.046875 185.609375 207.613281 185.609375 207.613281 C 185.609375 207.613281 189.839844 210.578125 189.296875 215.835938 C 188.75 221.097656 181.921875 226.355469 176.0625 227.324219 C 170.199219 228.289062 166.9375 222.425781 166.574219 218.253906 C 166.210938 214.082031 171.046875 209.667969 171.046875 209.667969 Z M 171.046875 209.667969 " fill-opacity="1" fill-rule="nonzero"/><path fill="#f6f6f6" d="M 173.464844 227.019531 C 169.234375 228.835938 163.128906 228.046875 161.4375 217.226562 C 161.253906 216.039062 161.257812 214.871094 161.410156 213.734375 C 161.410156 213.730469 161.410156 213.730469 161.410156 213.730469 C 161.710938 211.503906 162.585938 209.398438 163.738281 207.476562 C 167.351562 201.445312 173.6875 197.257812 173.523438 197.09375 C 173.28125 196.851562 178.539062 199.816406 179.386719 204.46875 C 180.230469 209.125 177.691406 225.207031 173.464844 227.019531 Z M 173.464844 227.019531 " fill-opacity="1" fill-rule="nonzero"/><path fill="#1e1915" d="M 176.0625 227.691406 C 175.886719 227.691406 175.730469 227.5625 175.699219 227.382812 C 175.667969 227.183594 175.800781 226.992188 176.003906 226.960938 C 178.796875 226.5 181.949219 224.984375 184.4375 222.90625 C 187.089844 220.691406 188.683594 218.167969 188.929688 215.796875 C 189.148438 213.707031 188.617188 211.746094 187.355469 209.964844 C 186.414062 208.632812 185.410156 207.921875 185.398438 207.914062 C 185.28125 207.832031 185.222656 207.683594 185.25 207.539062 C 185.25 207.535156 185.414062 206.695312 185.15625 205.710938 C 184.820312 204.421875 183.953125 203.488281 182.574219 202.9375 C 181.855469 202.648438 180.84375 202.796875 179.578125 203.378906 C 178.503906 203.871094 177.257812 204.664062 175.882812 205.742188 C 173.46875 207.625 171.5 209.699219 171.34375 209.882812 C 171.242188 210.027344 171.046875 210.078125 170.882812 209.996094 C 170.703125 209.90625 170.628906 209.6875 170.71875 209.503906 C 170.808594 209.324219 172.117188 208.058594 172.128906 208.042969 C 172.867188 207.335938 174.015625 206.277344 175.3125 205.253906 C 178.671875 202.609375 181.207031 201.597656 182.84375 202.253906 C 184.859375 203.0625 185.605469 204.496094 185.875 205.558594 C 186.082031 206.378906 186.042969 207.097656 186.003906 207.453125 C 186.359375 207.734375 187.175781 208.4375 187.957031 209.539062 C 188.550781 210.382812 189.003906 211.285156 189.296875 212.222656 C 189.667969 213.394531 189.789062 214.625 189.660156 215.875 C 189.523438 217.199219 189.007812 218.558594 188.128906 219.914062 C 187.320312 221.164062 186.234375 222.363281 184.90625 223.46875 C 183.644531 224.527344 182.183594 225.464844 180.683594 226.191406 C 179.160156 226.925781 177.582031 227.445312 176.121094 227.683594 C 176.101562 227.6875 176.082031 227.691406 176.0625 227.691406 Z M 171.375 209.835938 Z M 171.375 209.832031 C 171.375 209.832031 171.375 209.832031 171.375 209.835938 C 171.375 209.835938 171.375 209.832031 171.375 209.832031 Z M 171.375 209.832031 " fill-opacity="1" fill-rule="nonzero"/><g clip-path="url(#a398c2fcb0)"><path fill="#f6f6f6" d="M 188.75 260.875 C 187.664062 262.691406 164.460938 263.234375 163.3125 261.117188 C 162.164062 259 163.855469 252.773438 168.023438 250.355469 C 170.738281 248.785156 172.617188 249.207031 172.617188 249.207031 C 172.617188 249.207031 172.53125 248.019531 172.433594 246.257812 C 172.378906 245.292969 172.320312 244.160156 172.269531 242.953125 C 172.140625 239.90625 172.054688 236.40625 172.203125 234.070312 C 172.28125 232.792969 172.429688 231.867188 172.679688 231.554688 C 173.886719 230.042969 188.328125 236.148438 189.054688 238.265625 C 189.121094 238.464844 189.214844 240.261719 189.289062 242.765625 C 189.304688 243.347656 189.320312 243.964844 189.335938 244.613281 C 189.359375 245.601562 189.375 246.652344 189.386719 247.726562 C 189.453125 253.472656 189.34375 259.886719 188.75 260.875 Z M 188.75 260.875 " fill-opacity="1" fill-rule="nonzero"/></g><g clip-path="url(#e0db48da90)"><path fill="#f6f6f6" d="M 224.039062 260.9375 C 222.890625 263.050781 199.6875 262.507812 198.601562 260.695312 C 198.003906 259.699219 197.898438 253.191406 197.964844 247.410156 C 197.976562 246.332031 197.996094 245.277344 198.019531 244.289062 C 198.03125 243.644531 198.050781 243.027344 198.066406 242.445312 C 198.140625 240.015625 198.230469 238.28125 198.296875 238.082031 C 199.023438 235.96875 213.464844 229.863281 214.675781 231.371094 C 214.941406 231.707031 215.09375 232.757812 215.167969 234.195312 C 215.265625 236.042969 215.230469 238.53125 215.152344 240.9375 C 215.113281 242.113281 215.0625 243.269531 215.011719 244.320312 C 214.878906 247.003906 214.734375 249.027344 214.734375 249.027344 C 214.734375 249.027344 216.613281 248.601562 219.328125 250.175781 C 223.496094 252.59375 225.1875 258.820312 224.039062 260.9375 Z M 224.039062 260.9375 " fill-opacity="1" fill-rule="nonzero"/></g><path fill="#1e1915" d="M 177.574219 214.269531 C 177.421875 214.269531 177.285156 214.175781 177.226562 214.027344 C 177.160156 213.839844 177.253906 213.628906 177.445312 213.558594 C 179.980469 212.621094 182 210.949219 183.25 209.710938 C 184.601562 208.367188 185.355469 207.242188 185.363281 207.230469 C 185.476562 207.0625 185.703125 207.015625 185.871094 207.128906 C 186.042969 207.238281 186.085938 207.46875 185.976562 207.636719 C 185.941406 207.683594 185.171875 208.835938 183.765625 210.230469 C 182.464844 211.519531 180.359375 213.261719 177.699219 214.246094 C 177.65625 214.261719 177.613281 214.269531 177.574219 214.269531 Z M 177.574219 214.269531 " fill-opacity="1" fill-rule="nonzero"/><path fill="#f6f6f6" d="M 209.660156 194.011719 C 210.023438 194.011719 215.582031 192.984375 219.328125 200.660156 C 223.074219 208.339844 221.988281 220.492188 214.734375 225.027344 C 207.484375 229.558594 197.875 228.957031 192.617188 226.234375 C 187.363281 223.515625 181.730469 215.988281 183.253906 212.511719 C 185.609375 207.128906 190.261719 208.582031 190.261719 208.582031 C 190.261719 208.582031 188.21875 203.84375 191.832031 203.441406 C 199.992188 202.535156 198.058594 209.066406 203.375 210.152344 C 208.691406 211.242188 213.101562 204.894531 213.40625 202.414062 Z M 209.660156 194.011719 " fill-opacity="1" fill-rule="nonzero"/><path fill="#f6f6f6" d="M 214.464844 225.027344 C 214.089844 225.261719 213.707031 225.480469 213.320312 225.6875 C 212.445312 226.15625 211.542969 226.558594 210.621094 226.894531 C 204.09375 229.296875 196.71875 228.496094 192.347656 226.234375 C 187.089844 223.515625 181.457031 215.988281 182.980469 212.511719 C 185.335938 207.128906 189.992188 208.582031 189.992188 208.582031 C 189.992188 208.582031 187.945312 203.84375 191.5625 203.441406 C 199.71875 202.535156 197.785156 209.066406 203.101562 210.152344 C 203.460938 210.226562 203.8125 210.265625 204.15625 210.273438 C 205.160156 210.304688 206.121094 210.082031 207.015625 209.691406 C 210.4375 208.199219 212.910156 204.246094 213.132812 202.414062 L 209.386719 194.011719 C 209.75 194.011719 215.308594 192.984375 219.054688 200.660156 C 222.800781 208.339844 221.714844 220.492188 214.464844 225.023438 Z M 214.464844 225.027344 " fill-opacity="1" fill-rule="nonzero"/><path fill="#54a3e6" d="M 210.621094 226.894531 C 210.648438 225.980469 210.601562 225.066406 210.492188 224.15625 C 210.210938 222.214844 209.648438 220.320312 208.902344 218.507812 C 208.597656 217.804688 208.273438 217.113281 207.921875 216.433594 C 206.820312 214.289062 205.941406 213.109375 204.582031 211.121094 C 205.585938 211.148438 206.121094 210.082031 207.015625 209.691406 C 207.488281 210.394531 207.953125 211.109375 208.402344 211.828125 C 209.949219 214.316406 211.316406 216.941406 212.222656 219.734375 C 212.84375 221.648438 213.246094 223.664062 213.320312 225.6875 C 212.445312 226.15625 211.542969 226.558594 210.621094 226.898438 Z M 210.621094 226.894531 " fill-opacity="1" fill-rule="nonzero"/><path fill="#1e1915" d="M 190.214844 209.023438 C 191.164062 209.496094 192.125 209.96875 193.007812 210.566406 C 193.863281 211.152344 194.59375 211.921875 195.144531 212.800781 C 195.464844 213.3125 195.71875 213.855469 195.886719 214.4375 C 196.003906 214.847656 196.652344 214.671875 196.53125 214.257812 C 196.207031 213.144531 195.601562 212.140625 194.832031 211.285156 C 194.0625 210.425781 193.171875 209.832031 192.195312 209.289062 C 191.65625 208.992188 191.105469 208.71875 190.550781 208.441406 C 190.390625 208.363281 190.191406 208.398438 190.09375 208.5625 C 190.007812 208.710938 190.050781 208.941406 190.214844 209.023438 Z M 190.214844 209.023438 " fill-opacity="1" fill-rule="nonzero"/><path fill="#1e1915" d="M 202.148438 228.722656 C 198.335938 228.722656 194.769531 227.902344 192.179688 226.558594 C 190.882812 225.890625 189.511719 224.902344 188.203125 223.703125 C 186.945312 222.546875 185.777344 221.222656 184.820312 219.867188 C 182.679688 216.832031 181.886719 214.097656 182.644531 212.363281 C 183.207031 211.082031 183.945312 210.066406 184.839844 209.34375 C 185.5625 208.757812 186.390625 208.363281 187.292969 208.167969 C 188.222656 207.972656 189.039062 208.03125 189.550781 208.113281 C 189.503906 207.667969 189.476562 207.003906 189.601562 206.292969 C 189.894531 204.605469 190.882812 203.476562 192.457031 203.03125 C 194.242188 202.523438 196.027344 202.851562 197.621094 203.984375 C 198.570312 204.65625 199.402344 205.585938 200.023438 206.664062 C 200.609375 207.679688 200.964844 208.761719 201.019531 209.707031 C 201.023438 209.722656 201.023438 209.738281 201.019531 209.75 C 201.019531 209.8125 200.964844 211.320312 202.503906 211.734375 C 203.136719 211.902344 204.386719 211.664062 205.75 210.742188 C 207.554688 209.527344 208.730469 207.6875 208.976562 205.695312 C 209.003906 205.496094 209.1875 205.351562 209.386719 205.375 C 209.585938 205.402344 209.730469 205.585938 209.707031 205.785156 C 209.433594 207.988281 208.140625 210.015625 206.160156 211.351562 C 204.789062 212.273438 203.28125 212.703125 202.3125 212.441406 C 201.203125 212.144531 200.710938 211.417969 200.492188 210.855469 C 200.285156 210.328125 200.285156 209.851562 200.289062 209.734375 C 200.1875 208.191406 199.097656 205.929688 197.199219 204.582031 C 196.21875 203.886719 194.632812 203.175781 192.65625 203.734375 C 191.359375 204.105469 190.574219 205 190.324219 206.398438 C 190.132812 207.492188 190.34375 208.492188 190.347656 208.503906 C 190.375 208.628906 190.332031 208.765625 190.238281 208.851562 C 190.140625 208.941406 190.003906 208.972656 189.878906 208.933594 C 189.871094 208.929688 188.765625 208.597656 187.414062 208.894531 C 185.617188 209.289062 184.238281 210.554688 183.316406 212.660156 C 182.671875 214.128906 183.457031 216.667969 185.421875 219.445312 C 187.335938 222.160156 190.054688 224.636719 192.515625 225.910156 C 197.777344 228.632812 207.191406 229.140625 214.269531 224.714844 C 217.539062 222.667969 219.761719 218.851562 220.519531 213.964844 C 221.21875 209.472656 220.546875 204.558594 218.726562 200.824219 C 215.757812 194.746094 211.699219 194.171875 209.542969 194.367188 C 209.46875 194.375 209.425781 194.378906 209.386719 194.378906 C 209.183594 194.378906 209.019531 194.214844 209.019531 194.011719 C 209.019531 193.808594 209.183594 193.644531 209.382812 193.644531 C 209.398438 193.644531 209.4375 193.640625 209.472656 193.636719 C 210.835938 193.511719 212.171875 193.71875 213.445312 194.257812 C 214.527344 194.714844 215.542969 195.402344 216.460938 196.304688 C 217.574219 197.394531 218.558594 198.804688 219.382812 200.5 C 220.320312 202.414062 220.980469 204.667969 221.300781 207.019531 C 221.617188 209.359375 221.601562 211.800781 221.246094 214.078125 C 220.867188 216.496094 220.140625 218.679688 219.085938 220.566406 C 217.9375 222.609375 216.449219 224.214844 214.65625 225.335938 C 210.828125 227.730469 206.339844 228.722656 202.144531 228.722656 Z M 202.148438 228.722656 " fill-opacity="1" fill-rule="nonzero"/><path fill="#54a3e6" d="M 215.152344 240.941406 C 215.113281 242.113281 215.0625 243.269531 215.011719 244.320312 C 213.875 244.75 212.726562 245.152344 211.570312 245.527344 C 209.605469 246.167969 207.605469 246.710938 205.570312 247.0625 C 203.074219 247.496094 200.492188 247.667969 197.964844 247.410156 C 197.976562 246.332031 197.996094 245.277344 198.019531 244.289062 C 199.9375 244.5 201.878906 244.449219 203.792969 244.207031 C 204.71875 244.074219 205.640625 243.902344 206.550781 243.695312 C 208.265625 243.304688 209.953125 242.796875 211.621094 242.230469 C 212.804688 241.828125 213.984375 241.398438 215.152344 240.941406 Z M 215.152344 240.941406 " fill-opacity="1" fill-rule="nonzero"/><path fill="#54a3e6" d="M 189.386719 247.726562 C 188.558594 247.742188 187.730469 247.753906 186.902344 247.757812 C 183.871094 247.777344 180.828125 247.707031 177.816406 247.316406 C 176.210938 247.105469 174.617188 246.835938 173.050781 246.425781 C 172.84375 246.375 172.636719 246.316406 172.433594 246.257812 C 172.378906 245.292969 172.320312 244.15625 172.269531 242.953125 C 174.085938 243.539062 175.960938 243.9375 177.851562 244.203125 C 177.851562 244.203125 177.855469 244.203125 177.859375 244.203125 C 178.707031 244.3125 179.558594 244.398438 180.410156 244.460938 C 182.082031 244.585938 183.757812 244.632812 185.433594 244.640625 C 186.277344 244.648438 187.121094 244.640625 187.964844 244.632812 C 188.378906 244.625 188.796875 244.621094 189.210938 244.613281 C 189.253906 244.613281 189.292969 244.613281 189.335938 244.613281 C 189.359375 245.601562 189.375 246.652344 189.386719 247.726562 Z M 189.386719 247.726562 " fill-opacity="1" fill-rule="nonzero"/><path fill="#54a3e6" d="M 173.882812 204.929688 C 173.160156 205.15625 172.445312 205.414062 171.746094 205.703125 C 171.328125 205.886719 170.910156 206.078125 170.5 206.277344 C 168.953125 207.042969 167.480469 207.960938 166.109375 209.007812 C 165.757812 209.285156 165.410156 209.566406 165.074219 209.859375 C 163.757812 211 162.554688 212.265625 161.484375 213.636719 C 161.480469 213.636719 161.480469 213.640625 161.480469 213.640625 C 161.457031 213.671875 161.433594 213.703125 161.410156 213.734375 C 161.410156 213.730469 161.410156 213.730469 161.410156 213.730469 C 161.398438 213.746094 161.386719 213.757812 161.375 213.773438 C 161.386719 213.757812 161.398438 213.746094 161.410156 213.730469 C 161.710938 211.503906 162.585938 209.398438 163.738281 207.476562 C 164.21875 207.074219 164.71875 206.6875 165.226562 206.316406 C 167.628906 204.5625 170.515625 203.664062 173.164062 202.324219 C 173.464844 202.171875 174.214844 204.824219 173.882812 204.929688 Z M 173.882812 204.929688 " fill-opacity="1" fill-rule="nonzero"/><path fill="#54a3e6" d="M 169.886719 180.972656 C 170.238281 180.292969 170.648438 179.640625 171.113281 179.03125 L 170.945312 179.253906 C 171.488281 178.554688 172.105469 177.914062 172.808594 177.367188 L 172.585938 177.539062 C 173.140625 177.113281 173.738281 176.75 174.378906 176.476562 C 174.292969 176.511719 174.207031 176.550781 174.121094 176.585938 C 174.667969 176.355469 175.238281 176.195312 175.828125 176.113281 C 175.730469 176.125 175.632812 176.140625 175.539062 176.152344 C 176.15625 176.070312 176.78125 176.074219 177.398438 176.160156 L 177.109375 176.121094 C 177.886719 176.230469 178.636719 176.457031 179.363281 176.761719 C 179.277344 176.722656 179.1875 176.6875 179.101562 176.648438 C 180.796875 177.371094 182.308594 178.457031 183.773438 179.554688 C 183.988281 179.714844 184.371094 179.730469 184.617188 179.664062 C 184.867188 179.59375 185.144531 179.398438 185.265625 179.164062 C 185.402344 178.910156 185.46875 178.605469 185.378906 178.324219 C 185.285156 178.042969 185.117188 177.851562 184.875 177.671875 C 183.8125 176.875 182.734375 176.089844 181.570312 175.441406 C 180.386719 174.777344 179.09375 174.222656 177.746094 174.023438 C 176.382812 173.824219 174.992188 173.90625 173.703125 174.414062 C 172.488281 174.894531 171.40625 175.613281 170.464844 176.519531 C 169.46875 177.484375 168.636719 178.640625 168.003906 179.871094 C 167.742188 180.378906 167.855469 181.078125 168.394531 181.367188 C 168.894531 181.628906 169.609375 181.515625 169.886719 180.972656 Z M 169.886719 180.972656 " fill-opacity="1" fill-rule="nonzero"/><path fill="#54a3e6" d="M 179.925781 145.65625 C 181.089844 146.839844 182.53125 147.714844 184.097656 148.253906 C 184.882812 148.523438 185.695312 148.679688 186.515625 148.761719 C 187.359375 148.847656 188.199219 148.792969 189.039062 148.710938 C 190.046875 148.605469 191.054688 148.496094 192.0625 148.386719 C 192.359375 148.355469 192.613281 148.285156 192.832031 148.066406 C 193.023438 147.878906 193.164062 147.566406 193.152344 147.296875 C 193.140625 147.023438 193.046875 146.722656 192.832031 146.523438 C 192.632812 146.339844 192.34375 146.175781 192.0625 146.207031 C 191.042969 146.3125 190.027344 146.425781 189.007812 146.53125 C 188.074219 146.625 187.144531 146.667969 186.210938 146.542969 L 186.5 146.582031 C 185.667969 146.46875 184.855469 146.242188 184.078125 145.921875 C 184.164062 145.957031 184.25 145.992188 184.335938 146.03125 C 183.5625 145.703125 182.832031 145.277344 182.164062 144.761719 C 182.238281 144.820312 182.3125 144.878906 182.386719 144.933594 C 182.0625 144.679688 181.753906 144.40625 181.464844 144.113281 C 181.066406 143.707031 180.320312 143.683594 179.925781 144.113281 C 179.523438 144.550781 179.496094 145.222656 179.925781 145.65625 Z M 179.925781 145.65625 " fill-opacity="1" fill-rule="nonzero"/><path fill="#54a3e6" d="M 165.441406 146.761719 C 164.675781 148.238281 163.5625 149.503906 162.222656 150.480469 C 161.554688 150.96875 160.824219 151.359375 160.066406 151.683594 C 159.285156 152.015625 158.46875 152.214844 157.640625 152.382812 C 156.648438 152.582031 155.652344 152.773438 154.65625 152.96875 C 154.363281 153.027344 154.101562 153.039062 153.824219 152.894531 C 153.589844 152.769531 153.363281 152.515625 153.292969 152.25 C 153.222656 151.988281 153.222656 151.671875 153.367188 151.417969 C 153.503906 151.183594 153.734375 150.941406 154.011719 150.886719 C 155.015625 150.6875 156.023438 150.492188 157.027344 150.289062 C 157.945312 150.105469 158.84375 149.867188 159.699219 149.472656 C 159.613281 149.515625 159.523438 149.554688 159.433594 149.597656 C 160.195312 149.238281 160.90625 148.785156 161.554688 148.246094 C 161.480469 148.304688 161.410156 148.367188 161.339844 148.425781 C 161.980469 147.882812 162.550781 147.261719 163.035156 146.574219 C 162.984375 146.648438 162.929688 146.726562 162.875 146.800781 C 163.109375 146.464844 163.324219 146.113281 163.511719 145.746094 C 163.773438 145.238281 164.476562 144.996094 164.984375 145.289062 C 165.496094 145.589844 165.722656 146.222656 165.441406 146.761719 Z M 165.441406 146.761719 " fill-opacity="1" fill-rule="nonzero"/><g clip-path="url(#fda5d47588)"><path fill="#002d75" d="M 205.085938 107.09375 C 205.085938 107.433594 205.0625 107.765625 205.023438 108.09375 C 204.183594 107.488281 203.28125 106.964844 202.332031 106.542969 C 197.574219 104.429688 192.585938 103.359375 187.507812 103.359375 C 182.425781 103.359375 177.4375 104.429688 172.679688 106.542969 C 171.730469 106.964844 170.828125 107.488281 169.988281 108.09375 C 169.945312 107.765625 169.925781 107.433594 169.925781 107.09375 C 169.925781 102.4375 173.714844 98.652344 178.371094 98.652344 L 196.640625 98.652344 C 201.296875 98.652344 205.085938 102.4375 205.085938 107.09375 Z M 205.085938 107.09375 " fill-opacity="1" fill-rule="nonzero"/></g><path fill="#002d75" d="M 204.746094 109.464844 C 203.882812 108.789062 202.910156 108.191406 201.816406 107.703125 C 197.222656 105.664062 192.40625 104.628906 187.507812 104.628906 C 182.605469 104.628906 177.789062 105.664062 173.195312 107.703125 C 172.101562 108.191406 171.128906 108.789062 170.265625 109.464844 C 170.082031 109.601562 169.90625 109.75 169.734375 109.898438 C 170.914062 113.542969 174.335938 116.175781 178.371094 116.175781 L 185.65625 116.175781 L 185.65625 115.214844 L 183.347656 115.214844 C 182.410156 115.214844 181.648438 114.386719 181.648438 113.363281 C 181.648438 112.34375 182.410156 111.515625 183.347656 111.515625 L 185.65625 111.515625 L 185.65625 109.207031 C 185.65625 108.269531 186.484375 107.507812 187.503906 107.507812 C 188.527344 107.507812 189.355469 108.269531 189.355469 109.207031 L 189.355469 111.515625 L 191.664062 111.515625 C 192.601562 111.515625 193.363281 112.34375 193.363281 113.363281 C 193.363281 114.386719 192.601562 115.214844 191.664062 115.214844 L 189.355469 115.214844 L 189.355469 116.175781 L 196.640625 116.175781 C 200.679688 116.175781 204.097656 113.542969 205.277344 109.898438 C 205.105469 109.75 204.929688 109.601562 204.746094 109.464844 Z M 204.746094 109.464844 " fill-opacity="1" fill-rule="nonzero"/><path fill="#ffffff" d="M 205.277344 109.898438 C 205.105469 109.75 204.929688 109.601562 204.746094 109.464844 C 203.71875 112.96875 200.476562 115.539062 196.640625 115.539062 L 189.355469 115.539062 L 189.355469 116.808594 L 196.640625 116.808594 C 200.851562 116.808594 204.445312 114.117188 205.789062 110.363281 C 205.625 110.203125 205.453125 110.050781 205.277344 109.898438 Z M 178.371094 115.539062 C 174.535156 115.539062 171.292969 112.96875 170.265625 109.464844 C 170.082031 109.601562 169.90625 109.75 169.734375 109.898438 C 169.554688 110.050781 169.386719 110.203125 169.222656 110.363281 C 170.566406 114.117188 174.160156 116.808594 178.371094 116.808594 L 185.65625 116.808594 L 185.65625 115.539062 Z M 178.371094 115.539062 " fill-opacity="1" fill-rule="nonzero"/><g clip-path="url(#f02944506c)"><path fill="#002d75" d="M 209.734375 116.996094 C 209.21875 114.914062 207.949219 112.414062 205.789062 110.363281 C 205.625 110.203125 205.453125 110.050781 205.277344 109.898438 C 205.105469 109.75 204.929688 109.601562 204.742188 109.464844 C 203.882812 108.789062 202.910156 108.191406 201.816406 107.703125 C 197.222656 105.664062 192.40625 104.628906 187.507812 104.628906 C 182.605469 104.628906 177.789062 105.664062 173.195312 107.703125 C 172.101562 108.191406 171.128906 108.789062 170.265625 109.464844 C 170.082031 109.601562 169.90625 109.75 169.734375 109.898438 C 169.554688 110.050781 169.386719 110.203125 169.222656 110.363281 C 167.0625 112.414062 165.792969 114.914062 165.277344 116.992188 C 164.660156 119.496094 164.949219 121.75 166.078125 123.183594 C 166.714844 124.015625 167.4375 124.636719 168.195312 125.09375 C 168.398438 125.128906 168.882812 125.195312 169.550781 125.242188 C 169.929688 125.269531 170.363281 125.285156 170.84375 125.285156 C 173.253906 125.285156 176.703125 124.820312 178.917969 122.496094 C 179.125 122.277344 179.320312 122.046875 179.503906 121.796875 C 179.710938 121.515625 180.105469 121.453125 180.390625 121.660156 C 180.675781 121.867188 180.734375 122.265625 180.527344 122.550781 C 178.867188 124.816406 176.402344 125.851562 174.089844 126.289062 C 175.476562 126.164062 176.90625 125.808594 178.277344 125.238281 C 181.226562 123.925781 184.335938 123.257812 187.503906 123.257812 C 190.671875 123.257812 193.785156 123.925781 196.75 125.242188 C 198.46875 125.957031 200.296875 126.339844 202.019531 126.339844 C 204.070312 126.339844 206.933594 125.792969 208.929688 123.1875 C 210.0625 121.75 210.351562 119.496094 209.734375 116.996094 Z M 182.921875 120.230469 C 182.34375 120.8125 181.398438 120.8125 180.816406 120.230469 C 180.234375 119.648438 180.234375 118.707031 180.816406 118.125 C 181.398438 117.542969 182.34375 117.542969 182.921875 118.125 C 183.503906 118.707031 183.503906 119.652344 182.921875 120.230469 Z M 189.355469 117.523438 C 189.355469 118.460938 188.527344 119.222656 187.503906 119.222656 C 186.484375 119.222656 185.65625 118.460938 185.65625 117.523438 L 185.65625 115.214844 L 183.347656 115.214844 C 182.410156 115.214844 181.648438 114.386719 181.648438 113.363281 C 181.648438 112.34375 182.410156 111.515625 183.347656 111.515625 L 185.65625 111.515625 L 185.65625 109.207031 C 185.65625 108.269531 186.484375 107.507812 187.503906 107.507812 C 188.527344 107.507812 189.355469 108.269531 189.355469 109.207031 L 189.355469 111.515625 L 191.664062 111.515625 C 192.601562 111.515625 193.363281 112.34375 193.363281 113.363281 C 193.363281 114.386719 192.601562 115.214844 191.664062 115.214844 L 189.355469 115.214844 Z M 189.355469 117.523438 " fill-opacity="1" fill-rule="nonzero"/><path fill="#002d75" d="M 209.734375 116.996094 C 209.21875 114.914062 207.949219 112.414062 205.789062 110.363281 C 205.625 110.203125 205.453125 110.050781 205.277344 109.898438 C 205.105469 109.75 204.929688 109.601562 204.742188 109.464844 C 203.882812 108.789062 202.910156 108.191406 201.816406 107.703125 C 197.222656 105.664062 192.40625 104.628906 187.507812 104.628906 C 182.605469 104.628906 177.789062 105.664062 173.195312 107.703125 C 172.101562 108.191406 171.128906 108.789062 170.265625 109.464844 C 170.082031 109.601562 169.90625 109.75 169.734375 109.898438 C 169.554688 110.050781 169.386719 110.203125 169.222656 110.363281 C 167.0625 112.414062 165.792969 114.914062 165.277344 116.992188 C 164.660156 119.496094 164.949219 121.75 166.078125 123.183594 C 166.714844 124.015625 167.4375 124.636719 168.195312 125.09375 C 168.398438 125.128906 168.882812 125.195312 169.550781 125.242188 C 169.929688 125.269531 170.363281 125.285156 170.84375 125.285156 C 173.253906 125.285156 176.703125 124.820312 178.917969 122.496094 C 179.125 122.277344 179.320312 122.046875 179.503906 121.796875 C 179.710938 121.515625 180.105469 121.453125 180.390625 121.660156 C 180.675781 121.867188 180.734375 122.265625 180.527344 122.550781 C 178.867188 124.816406 176.402344 125.851562 174.089844 126.289062 C 175.476562 126.164062 176.90625 125.808594 178.277344 125.238281 C 181.226562 123.925781 184.335938 123.257812 187.503906 123.257812 C 190.671875 123.257812 193.785156 123.925781 196.75 125.242188 C 198.46875 125.957031 200.296875 126.339844 202.019531 126.339844 C 204.070312 126.339844 206.933594 125.792969 208.929688 123.1875 C 210.0625 121.75 210.351562 119.496094 209.734375 116.996094 Z M 182.921875 120.230469 C 182.34375 120.8125 181.398438 120.8125 180.816406 120.230469 C 180.234375 119.648438 180.234375 118.707031 180.816406 118.125 C 181.398438 117.542969 182.34375 117.542969 182.921875 118.125 C 183.503906 118.707031 183.503906 119.652344 182.921875 120.230469 Z M 189.355469 117.523438 C 189.355469 118.460938 188.527344 119.222656 187.503906 119.222656 C 186.484375 119.222656 185.65625 118.460938 185.65625 117.523438 L 185.65625 115.214844 L 183.347656 115.214844 C 182.410156 115.214844 181.648438 114.386719 181.648438 113.363281 C 181.648438 112.34375 182.410156 111.515625 183.347656 111.515625 L 185.65625 111.515625 L 185.65625 109.207031 C 185.65625 108.269531 186.484375 107.507812 187.503906 107.507812 C 188.527344 107.507812 189.355469 108.269531 189.355469 109.207031 L 189.355469 111.515625 L 191.664062 111.515625 C 192.601562 111.515625 193.363281 112.34375 193.363281 113.363281 C 193.363281 114.386719 192.601562 115.214844 191.664062 115.214844 L 189.355469 115.214844 Z M 189.355469 117.523438 " fill-opacity="1" fill-rule="nonzero"/></g><path fill="#002d75" d="M 178.917969 122.496094 C 176.703125 124.820312 173.253906 125.285156 170.84375 125.285156 C 170.363281 125.285156 169.929688 125.265625 169.550781 125.242188 Z M 178.917969 122.496094 " fill-opacity="1" fill-rule="nonzero"/></svg>