<svg xmlns="http://www.w3.org/2000/svg" xmlns:xlink="http://www.w3.org/1999/xlink" width="500" zoomAndPan="magnify" viewBox="0 0 375 374.999991" height="500" preserveAspectRatio="xMidYMid meet" version="1.0"><defs><clipPath id="409f50b48a"><path d="M 182 226 L 208 226 L 208 262.5 L 182 262.5 Z M 182 226 " clip-rule="nonzero"/></clipPath><clipPath id="635f42381e"><path d="M 146 226 L 172 226 L 172 262.5 L 146 262.5 Z M 146 226 " clip-rule="nonzero"/></clipPath><clipPath id="5eb40e476f"><path d="M 129 112.5 L 220 112.5 L 220 197 L 129 197 Z M 129 112.5 " clip-rule="nonzero"/></clipPath><clipPath id="677086b1ed"><path d="M 221 145 L 256.09375 145 L 256.09375 180 L 221 180 Z M 221 145 " clip-rule="nonzero"/></clipPath><clipPath id="7714dfa1ae"><path d="M 191 193.527344 L 194 193.527344 L 194 197 L 191 197 Z M 191 193.527344 " clip-rule="nonzero"/></clipPath><clipPath id="64047624ee"><path d="M 187.5 193.527344 L 194 193.527344 L 194 200 L 187.5 200 Z M 187.5 193.527344 " clip-rule="nonzero"/></clipPath><clipPath id="8d88120cc8"><path d="M 193.5 193.660156 C 193.503906 194.058594 193.457031 195.371094 192.808594 196.660156 C 192.605469 197.0625 192.339844 197.464844 192 197.832031 C 191.117188 198.789062 189.714844 199.523438 187.5 199.523438 L 187.5 197.277344 C 189.136719 197.277344 190.324219 197.027344 191.191406 196.660156 C 191.5 196.527344 191.769531 196.378906 192 196.222656 C 193.363281 195.296875 193.496094 194.046875 193.5 193.660156 Z M 193.5 193.660156 " clip-rule="nonzero"/></clipPath><linearGradient x1="-0.000313141" gradientTransform="matrix(0.0249488, 0, 0, 0.0249079, 187.5, 193.536775)" y1="122.636002" x2="240.599693" gradientUnits="userSpaceOnUse" y2="122.636002" id="64778d563d"><stop stop-opacity="1" stop-color="rgb(23.919678%, 74.119568%, 92.549133%)" offset="0"/><stop stop-opacity="1" stop-color="rgb(23.919678%, 74.119568%, 92.549133%)" offset="0.03125"/><stop stop-opacity="1" stop-color="rgb(23.953247%, 74.008179%, 92.579651%)" offset="0.046875"/><stop stop-opacity="1" stop-color="rgb(24.01886%, 73.800659%, 92.637634%)" offset="0.0546875"/><stop stop-opacity="1" stop-color="rgb(24.079895%, 73.603821%, 92.692566%)" offset="0.0625"/><stop stop-opacity="1" stop-color="rgb(24.171448%, 73.310852%, 92.774963%)" offset="0.078125"/><stop stop-opacity="1" stop-color="rgb(24.263%, 73.016357%, 92.855835%)" offset="0.0859375"/><stop stop-opacity="1" stop-color="rgb(24.324036%, 72.821045%, 92.910767%)" offset="0.09375"/><stop stop-opacity="1" stop-color="rgb(24.385071%, 72.624207%, 92.965698%)" offset="0.101563"/><stop stop-opacity="1" stop-color="rgb(24.446106%, 72.428894%, 93.02063%)" offset="0.109375"/><stop stop-opacity="1" stop-color="rgb(24.507141%, 72.232056%, 93.075562%)" offset="0.117188"/><stop stop-opacity="1" stop-color="rgb(24.568176%, 72.036743%, 93.128967%)" offset="0.125"/><stop stop-opacity="1" stop-color="rgb(24.629211%, 71.841431%, 93.183899%)" offset="0.132813"/><stop stop-opacity="1" stop-color="rgb(24.690247%, 71.644592%, 93.238831%)" offset="0.140625"/><stop stop-opacity="1" stop-color="rgb(24.751282%, 71.44928%, 93.293762%)" offset="0.148438"/><stop stop-opacity="1" stop-color="rgb(24.812317%, 71.252441%, 93.348694%)" offset="0.15625"/><stop stop-opacity="1" stop-color="rgb(24.873352%, 71.057129%, 93.403625%)" offset="0.164062"/><stop stop-opacity="1" stop-color="rgb(24.934387%, 70.860291%, 93.457031%)" offset="0.171875"/><stop stop-opacity="1" stop-color="rgb(25.02594%, 70.567322%, 93.539429%)" offset="0.1875"/><stop stop-opacity="1" stop-color="rgb(25.117493%, 70.272827%, 93.621826%)" offset="0.195313"/><stop stop-opacity="1" stop-color="rgb(25.178528%, 70.077515%, 93.676758%)" offset="0.203125"/><stop stop-opacity="1" stop-color="rgb(25.239563%, 69.880676%, 93.730164%)" offset="0.210938"/><stop stop-opacity="1" stop-color="rgb(25.300598%, 69.685364%, 93.785095%)" offset="0.21875"/><stop stop-opacity="1" stop-color="rgb(25.361633%, 69.488525%, 93.840027%)" offset="0.226563"/><stop stop-opacity="1" stop-color="rgb(25.422668%, 69.293213%, 93.894958%)" offset="0.234375"/><stop stop-opacity="1" stop-color="rgb(25.483704%, 69.096375%, 93.94989%)" offset="0.242187"/><stop stop-opacity="1" stop-color="rgb(25.544739%, 68.901062%, 94.003296%)" offset="0.25"/><stop stop-opacity="1" stop-color="rgb(25.605774%, 68.70575%, 94.058228%)" offset="0.257812"/><stop stop-opacity="1" stop-color="rgb(25.666809%, 68.508911%, 94.113159%)" offset="0.265625"/><stop stop-opacity="1" stop-color="rgb(25.727844%, 68.313599%, 94.168091%)" offset="0.273438"/><stop stop-opacity="1" stop-color="rgb(25.788879%, 68.11676%, 94.223022%)" offset="0.28125"/><stop stop-opacity="1" stop-color="rgb(25.849915%, 67.921448%, 94.277954%)" offset="0.289063"/><stop stop-opacity="1" stop-color="rgb(25.91095%, 67.724609%, 94.33136%)" offset="0.296875"/><stop stop-opacity="1" stop-color="rgb(26.002502%, 67.431641%, 94.413757%)" offset="0.3125"/><stop stop-opacity="1" stop-color="rgb(26.094055%, 67.137146%, 94.496155%)" offset="0.320313"/><stop stop-opacity="1" stop-color="rgb(26.15509%, 66.941833%, 94.551086%)" offset="0.328125"/><stop stop-opacity="1" stop-color="rgb(26.216125%, 66.744995%, 94.604492%)" offset="0.335938"/><stop stop-opacity="1" stop-color="rgb(26.277161%, 66.549683%, 94.659424%)" offset="0.34375"/><stop stop-opacity="1" stop-color="rgb(26.338196%, 66.352844%, 94.714355%)" offset="0.351562"/><stop stop-opacity="1" stop-color="rgb(26.399231%, 66.157532%, 94.769287%)" offset="0.359375"/><stop stop-opacity="1" stop-color="rgb(26.460266%, 65.962219%, 94.824219%)" offset="0.367188"/><stop stop-opacity="1" stop-color="rgb(26.521301%, 65.765381%, 94.87915%)" offset="0.375"/><stop stop-opacity="1" stop-color="rgb(26.582336%, 65.570068%, 94.932556%)" offset="0.382813"/><stop stop-opacity="1" stop-color="rgb(26.643372%, 65.37323%, 94.987488%)" offset="0.390625"/><stop stop-opacity="1" stop-color="rgb(26.704407%, 65.177917%, 95.042419%)" offset="0.398438"/><stop stop-opacity="1" stop-color="rgb(26.765442%, 64.981079%, 95.097351%)" offset="0.40625"/><stop stop-opacity="1" stop-color="rgb(26.856995%, 64.68811%, 95.178223%)" offset="0.421875"/><stop stop-opacity="1" stop-color="rgb(26.948547%, 64.393616%, 95.26062%)" offset="0.429688"/><stop stop-opacity="1" stop-color="rgb(27.009583%, 64.198303%, 95.315552%)" offset="0.4375"/><stop stop-opacity="1" stop-color="rgb(27.070618%, 64.001465%, 95.370483%)" offset="0.445313"/><stop stop-opacity="1" stop-color="rgb(27.131653%, 63.806152%, 95.425415%)" offset="0.453125"/><stop stop-opacity="1" stop-color="rgb(27.192688%, 63.609314%, 95.478821%)" offset="0.460938"/><stop stop-opacity="1" stop-color="rgb(27.253723%, 63.414001%, 95.533752%)" offset="0.46875"/><stop stop-opacity="1" stop-color="rgb(27.314758%, 63.218689%, 95.588684%)" offset="0.476563"/><stop stop-opacity="1" stop-color="rgb(27.375793%, 63.021851%, 95.643616%)" offset="0.484375"/><stop stop-opacity="1" stop-color="rgb(27.436829%, 62.826538%, 95.698547%)" offset="0.492188"/><stop stop-opacity="1" stop-color="rgb(27.497864%, 62.6297%, 95.753479%)" offset="0.5"/><stop stop-opacity="1" stop-color="rgb(27.558899%, 62.434387%, 95.806885%)" offset="0.507812"/><stop stop-opacity="1" stop-color="rgb(27.619934%, 62.237549%, 95.861816%)" offset="0.515625"/><stop stop-opacity="1" stop-color="rgb(27.680969%, 62.042236%, 95.916748%)" offset="0.523438"/><stop stop-opacity="1" stop-color="rgb(27.742004%, 61.845398%, 95.97168%)" offset="0.53125"/><stop stop-opacity="1" stop-color="rgb(27.833557%, 61.552429%, 96.052551%)" offset="0.546875"/><stop stop-opacity="1" stop-color="rgb(27.92511%, 61.257935%, 96.134949%)" offset="0.554688"/><stop stop-opacity="1" stop-color="rgb(27.986145%, 61.062622%, 96.18988%)" offset="0.5625"/><stop stop-opacity="1" stop-color="rgb(28.04718%, 60.865784%, 96.244812%)" offset="0.570312"/><stop stop-opacity="1" stop-color="rgb(28.108215%, 60.670471%, 96.299744%)" offset="0.578125"/><stop stop-opacity="1" stop-color="rgb(28.16925%, 60.473633%, 96.353149%)" offset="0.585938"/><stop stop-opacity="1" stop-color="rgb(28.230286%, 60.27832%, 96.408081%)" offset="0.59375"/><stop stop-opacity="1" stop-color="rgb(28.291321%, 60.083008%, 96.463013%)" offset="0.601563"/><stop stop-opacity="1" stop-color="rgb(28.352356%, 59.886169%, 96.517944%)" offset="0.609375"/><stop stop-opacity="1" stop-color="rgb(28.413391%, 59.690857%, 96.572876%)" offset="0.617188"/><stop stop-opacity="1" stop-color="rgb(28.474426%, 59.494019%, 96.627808%)" offset="0.625"/><stop stop-opacity="1" stop-color="rgb(28.535461%, 59.298706%, 96.681213%)" offset="0.632813"/><stop stop-opacity="1" stop-color="rgb(28.596497%, 59.101868%, 96.736145%)" offset="0.640625"/><stop stop-opacity="1" stop-color="rgb(28.688049%, 58.808899%, 96.818542%)" offset="0.65625"/><stop stop-opacity="1" stop-color="rgb(28.779602%, 58.514404%, 96.90094%)" offset="0.664062"/><stop stop-opacity="1" stop-color="rgb(28.840637%, 58.319092%, 96.954346%)" offset="0.671875"/><stop stop-opacity="1" stop-color="rgb(28.901672%, 58.122253%, 97.009277%)" offset="0.679688"/><stop stop-opacity="1" stop-color="rgb(28.962708%, 57.926941%, 97.064209%)" offset="0.6875"/><stop stop-opacity="1" stop-color="rgb(29.023743%, 57.730103%, 97.119141%)" offset="0.695313"/><stop stop-opacity="1" stop-color="rgb(29.084778%, 57.53479%, 97.174072%)" offset="0.703125"/><stop stop-opacity="1" stop-color="rgb(29.145813%, 57.339478%, 97.227478%)" offset="0.710938"/><stop stop-opacity="1" stop-color="rgb(29.206848%, 57.142639%, 97.28241%)" offset="0.71875"/><stop stop-opacity="1" stop-color="rgb(29.267883%, 56.947327%, 97.337341%)" offset="0.726563"/><stop stop-opacity="1" stop-color="rgb(29.328918%, 56.750488%, 97.392273%)" offset="0.734375"/><stop stop-opacity="1" stop-color="rgb(29.389954%, 56.555176%, 97.447205%)" offset="0.742188"/><stop stop-opacity="1" stop-color="rgb(29.450989%, 56.358337%, 97.502136%)" offset="0.75"/><stop stop-opacity="1" stop-color="rgb(29.542542%, 56.065369%, 97.583008%)" offset="0.765625"/><stop stop-opacity="1" stop-color="rgb(29.634094%, 55.770874%, 97.665405%)" offset="0.773438"/><stop stop-opacity="1" stop-color="rgb(29.695129%, 55.575562%, 97.720337%)" offset="0.78125"/><stop stop-opacity="1" stop-color="rgb(29.756165%, 55.378723%, 97.775269%)" offset="0.789063"/><stop stop-opacity="1" stop-color="rgb(29.8172%, 55.183411%, 97.828674%)" offset="0.796875"/><stop stop-opacity="1" stop-color="rgb(29.878235%, 54.986572%, 97.883606%)" offset="0.804688"/><stop stop-opacity="1" stop-color="rgb(29.93927%, 54.79126%, 97.938538%)" offset="0.8125"/><stop stop-opacity="1" stop-color="rgb(30.000305%, 54.594421%, 97.993469%)" offset="0.820313"/><stop stop-opacity="1" stop-color="rgb(30.06134%, 54.399109%, 98.048401%)" offset="0.828125"/><stop stop-opacity="1" stop-color="rgb(30.122375%, 54.203796%, 98.101807%)" offset="0.835938"/><stop stop-opacity="1" stop-color="rgb(30.183411%, 54.006958%, 98.156738%)" offset="0.84375"/><stop stop-opacity="1" stop-color="rgb(30.244446%, 53.811646%, 98.21167%)" offset="0.851563"/><stop stop-opacity="1" stop-color="rgb(30.305481%, 53.614807%, 98.266602%)" offset="0.859375"/><stop stop-opacity="1" stop-color="rgb(30.366516%, 53.419495%, 98.321533%)" offset="0.867188"/><stop stop-opacity="1" stop-color="rgb(30.427551%, 53.222656%, 98.376465%)" offset="0.875"/><stop stop-opacity="1" stop-color="rgb(30.519104%, 52.929688%, 98.457336%)" offset="0.890625"/><stop stop-opacity="1" stop-color="rgb(30.610657%, 52.635193%, 98.539734%)" offset="0.898438"/><stop stop-opacity="1" stop-color="rgb(30.671692%, 52.43988%, 98.594666%)" offset="0.90625"/><stop stop-opacity="1" stop-color="rgb(30.732727%, 52.243042%, 98.649597%)" offset="0.914063"/><stop stop-opacity="1" stop-color="rgb(30.793762%, 52.047729%, 98.703003%)" offset="0.921875"/><stop stop-opacity="1" stop-color="rgb(30.854797%, 51.850891%, 98.757935%)" offset="0.929688"/><stop stop-opacity="1" stop-color="rgb(30.915833%, 51.655579%, 98.812866%)" offset="0.9375"/><stop stop-opacity="1" stop-color="rgb(30.976868%, 51.460266%, 98.867798%)" offset="0.945313"/><stop stop-opacity="1" stop-color="rgb(31.037903%, 51.263428%, 98.922729%)" offset="0.953125"/><stop stop-opacity="1" stop-color="rgb(31.098938%, 51.068115%, 98.976135%)" offset="0.960938"/><stop stop-opacity="1" stop-color="rgb(31.159973%, 50.871277%, 99.031067%)" offset="0.96875"/><stop stop-opacity="1" stop-color="rgb(31.221008%, 50.675964%, 99.085999%)" offset="0.976563"/><stop stop-opacity="1" stop-color="rgb(31.282043%, 50.479126%, 99.14093%)" offset="0.984375"/><stop stop-opacity="1" stop-color="rgb(31.340027%, 50.289917%, 99.19281%)" offset="1"/></linearGradient><clipPath id="a965b3a3a9"><path d="M 191 199 L 194 199 L 194 202.527344 L 191 202.527344 Z M 191 199 " clip-rule="nonzero"/></clipPath><clipPath id="bfad3cc8ac"><path d="M 191 196 L 197.25 196 L 197.25 202.527344 L 191 202.527344 Z M 191 196 " clip-rule="nonzero"/></clipPath><clipPath id="3c57ef6eb1"><path d="M 191.25 202.398438 C 191.246094 201.996094 191.292969 200.683594 191.941406 199.398438 C 192.144531 198.992188 192.410156 198.589844 192.75 198.222656 C 193.632812 197.265625 195.03125 196.53125 197.25 196.53125 L 197.25 198.777344 C 195.613281 198.777344 194.425781 199.027344 193.558594 199.398438 C 193.25 199.527344 192.980469 199.675781 192.75 199.832031 C 191.386719 200.757812 191.253906 202.007812 191.25 202.398438 Z M 191.25 202.398438 " clip-rule="nonzero"/></clipPath><linearGradient x1="167.432161" gradientTransform="matrix(-0.0249488, 0, 0, -0.0249079, 201.42648, 198.522735)" y1="-37.771" x2="408.042173" gradientUnits="userSpaceOnUse" y2="-37.771" id="5186b3b949"><stop stop-opacity="1" stop-color="rgb(23.919678%, 74.119568%, 92.549133%)" offset="0"/><stop stop-opacity="1" stop-color="rgb(23.919678%, 74.119568%, 92.549133%)" offset="0.03125"/><stop stop-opacity="1" stop-color="rgb(23.953247%, 74.009705%, 92.579651%)" offset="0.046875"/><stop stop-opacity="1" stop-color="rgb(24.01886%, 73.800659%, 92.637634%)" offset="0.0546875"/><stop stop-opacity="1" stop-color="rgb(24.079895%, 73.605347%, 92.692566%)" offset="0.0625"/><stop stop-opacity="1" stop-color="rgb(24.14093%, 73.408508%, 92.747498%)" offset="0.0703125"/><stop stop-opacity="1" stop-color="rgb(24.201965%, 73.213196%, 92.802429%)" offset="0.078125"/><stop stop-opacity="1" stop-color="rgb(24.263%, 73.016357%, 92.855835%)" offset="0.0859375"/><stop stop-opacity="1" stop-color="rgb(24.324036%, 72.821045%, 92.910767%)" offset="0.09375"/><stop stop-opacity="1" stop-color="rgb(24.385071%, 72.624207%, 92.965698%)" offset="0.101562"/><stop stop-opacity="1" stop-color="rgb(24.446106%, 72.428894%, 93.02063%)" offset="0.109375"/><stop stop-opacity="1" stop-color="rgb(24.507141%, 72.233582%, 93.075562%)" offset="0.117188"/><stop stop-opacity="1" stop-color="rgb(24.568176%, 72.036743%, 93.128967%)" offset="0.125"/><stop stop-opacity="1" stop-color="rgb(24.629211%, 71.841431%, 93.183899%)" offset="0.132812"/><stop stop-opacity="1" stop-color="rgb(24.690247%, 71.644592%, 93.238831%)" offset="0.140625"/><stop stop-opacity="1" stop-color="rgb(24.751282%, 71.44928%, 93.293762%)" offset="0.148437"/><stop stop-opacity="1" stop-color="rgb(24.812317%, 71.252441%, 93.348694%)" offset="0.15625"/><stop stop-opacity="1" stop-color="rgb(24.90387%, 70.959473%, 93.429565%)" offset="0.171875"/><stop stop-opacity="1" stop-color="rgb(24.995422%, 70.664978%, 93.511963%)" offset="0.179687"/><stop stop-opacity="1" stop-color="rgb(25.056458%, 70.469666%, 93.566895%)" offset="0.1875"/><stop stop-opacity="1" stop-color="rgb(25.117493%, 70.272827%, 93.621826%)" offset="0.195312"/><stop stop-opacity="1" stop-color="rgb(25.178528%, 70.077515%, 93.676758%)" offset="0.203125"/><stop stop-opacity="1" stop-color="rgb(25.239563%, 69.880676%, 93.730164%)" offset="0.210937"/><stop stop-opacity="1" stop-color="rgb(25.300598%, 69.685364%, 93.785095%)" offset="0.21875"/><stop stop-opacity="1" stop-color="rgb(25.361633%, 69.488525%, 93.840027%)" offset="0.226562"/><stop stop-opacity="1" stop-color="rgb(25.422668%, 69.293213%, 93.894958%)" offset="0.234375"/><stop stop-opacity="1" stop-color="rgb(25.483704%, 69.0979%, 93.94989%)" offset="0.242187"/><stop stop-opacity="1" stop-color="rgb(25.544739%, 68.901062%, 94.003296%)" offset="0.25"/><stop stop-opacity="1" stop-color="rgb(25.605774%, 68.70575%, 94.058228%)" offset="0.257812"/><stop stop-opacity="1" stop-color="rgb(25.666809%, 68.508911%, 94.113159%)" offset="0.265625"/><stop stop-opacity="1" stop-color="rgb(25.727844%, 68.313599%, 94.168091%)" offset="0.273438"/><stop stop-opacity="1" stop-color="rgb(25.788879%, 68.11676%, 94.223022%)" offset="0.28125"/><stop stop-opacity="1" stop-color="rgb(25.880432%, 67.823792%, 94.303894%)" offset="0.296875"/><stop stop-opacity="1" stop-color="rgb(25.971985%, 67.529297%, 94.386292%)" offset="0.304688"/><stop stop-opacity="1" stop-color="rgb(26.03302%, 67.333984%, 94.441223%)" offset="0.3125"/><stop stop-opacity="1" stop-color="rgb(26.094055%, 67.137146%, 94.496155%)" offset="0.320312"/><stop stop-opacity="1" stop-color="rgb(26.15509%, 66.941833%, 94.551086%)" offset="0.328125"/><stop stop-opacity="1" stop-color="rgb(26.216125%, 66.744995%, 94.604492%)" offset="0.335938"/><stop stop-opacity="1" stop-color="rgb(26.277161%, 66.549683%, 94.659424%)" offset="0.34375"/><stop stop-opacity="1" stop-color="rgb(26.338196%, 66.352844%, 94.714355%)" offset="0.351562"/><stop stop-opacity="1" stop-color="rgb(26.399231%, 66.157532%, 94.769287%)" offset="0.359375"/><stop stop-opacity="1" stop-color="rgb(26.460266%, 65.962219%, 94.824219%)" offset="0.367187"/><stop stop-opacity="1" stop-color="rgb(26.521301%, 65.765381%, 94.877625%)" offset="0.375"/><stop stop-opacity="1" stop-color="rgb(26.582336%, 65.570068%, 94.932556%)" offset="0.382812"/><stop stop-opacity="1" stop-color="rgb(26.643372%, 65.37323%, 94.987488%)" offset="0.390625"/><stop stop-opacity="1" stop-color="rgb(26.704407%, 65.177917%, 95.042419%)" offset="0.398437"/><stop stop-opacity="1" stop-color="rgb(26.765442%, 64.981079%, 95.097351%)" offset="0.40625"/><stop stop-opacity="1" stop-color="rgb(26.856995%, 64.68811%, 95.178223%)" offset="0.421875"/><stop stop-opacity="1" stop-color="rgb(26.948547%, 64.393616%, 95.26062%)" offset="0.429687"/><stop stop-opacity="1" stop-color="rgb(27.009583%, 64.198303%, 95.315552%)" offset="0.4375"/><stop stop-opacity="1" stop-color="rgb(27.070618%, 64.001465%, 95.370483%)" offset="0.445312"/><stop stop-opacity="1" stop-color="rgb(27.131653%, 63.806152%, 95.425415%)" offset="0.453125"/><stop stop-opacity="1" stop-color="rgb(27.192688%, 63.609314%, 95.478821%)" offset="0.460937"/><stop stop-opacity="1" stop-color="rgb(27.253723%, 63.414001%, 95.533752%)" offset="0.46875"/><stop stop-opacity="1" stop-color="rgb(27.314758%, 63.217163%, 95.588684%)" offset="0.476562"/><stop stop-opacity="1" stop-color="rgb(27.375793%, 63.021851%, 95.643616%)" offset="0.484375"/><stop stop-opacity="1" stop-color="rgb(27.436829%, 62.826538%, 95.698547%)" offset="0.492188"/><stop stop-opacity="1" stop-color="rgb(27.497864%, 62.6297%, 95.753479%)" offset="0.5"/><stop stop-opacity="1" stop-color="rgb(27.558899%, 62.434387%, 95.806885%)" offset="0.507812"/><stop stop-opacity="1" stop-color="rgb(27.619934%, 62.237549%, 95.861816%)" offset="0.515625"/><stop stop-opacity="1" stop-color="rgb(27.680969%, 62.042236%, 95.916748%)" offset="0.523438"/><stop stop-opacity="1" stop-color="rgb(27.742004%, 61.845398%, 95.97168%)" offset="0.53125"/><stop stop-opacity="1" stop-color="rgb(27.833557%, 61.552429%, 96.052551%)" offset="0.546875"/><stop stop-opacity="1" stop-color="rgb(27.92511%, 61.257935%, 96.134949%)" offset="0.554688"/><stop stop-opacity="1" stop-color="rgb(27.986145%, 61.062622%, 96.18988%)" offset="0.5625"/><stop stop-opacity="1" stop-color="rgb(28.04718%, 60.865784%, 96.244812%)" offset="0.570312"/><stop stop-opacity="1" stop-color="rgb(28.108215%, 60.670471%, 96.299744%)" offset="0.578125"/><stop stop-opacity="1" stop-color="rgb(28.16925%, 60.473633%, 96.353149%)" offset="0.585938"/><stop stop-opacity="1" stop-color="rgb(28.230286%, 60.27832%, 96.408081%)" offset="0.59375"/><stop stop-opacity="1" stop-color="rgb(28.291321%, 60.081482%, 96.463013%)" offset="0.601562"/><stop stop-opacity="1" stop-color="rgb(28.352356%, 59.886169%, 96.517944%)" offset="0.609375"/><stop stop-opacity="1" stop-color="rgb(28.413391%, 59.690857%, 96.572876%)" offset="0.617188"/><stop stop-opacity="1" stop-color="rgb(28.474426%, 59.494019%, 96.627808%)" offset="0.625"/><stop stop-opacity="1" stop-color="rgb(28.535461%, 59.298706%, 96.681213%)" offset="0.632812"/><stop stop-opacity="1" stop-color="rgb(28.596497%, 59.101868%, 96.736145%)" offset="0.640625"/><stop stop-opacity="1" stop-color="rgb(28.657532%, 58.906555%, 96.791077%)" offset="0.648438"/><stop stop-opacity="1" stop-color="rgb(28.718567%, 58.709717%, 96.846008%)" offset="0.65625"/><stop stop-opacity="1" stop-color="rgb(28.81012%, 58.416748%, 96.92688%)" offset="0.671875"/><stop stop-opacity="1" stop-color="rgb(28.901672%, 58.122253%, 97.009277%)" offset="0.679688"/><stop stop-opacity="1" stop-color="rgb(28.962708%, 57.926941%, 97.064209%)" offset="0.6875"/><stop stop-opacity="1" stop-color="rgb(29.023743%, 57.730103%, 97.119141%)" offset="0.695313"/><stop stop-opacity="1" stop-color="rgb(29.084778%, 57.53479%, 97.174072%)" offset="0.703125"/><stop stop-opacity="1" stop-color="rgb(29.145813%, 57.337952%, 97.229004%)" offset="0.710938"/><stop stop-opacity="1" stop-color="rgb(29.206848%, 57.142639%, 97.28241%)" offset="0.71875"/><stop stop-opacity="1" stop-color="rgb(29.267883%, 56.945801%, 97.337341%)" offset="0.726562"/><stop stop-opacity="1" stop-color="rgb(29.328918%, 56.750488%, 97.392273%)" offset="0.734375"/><stop stop-opacity="1" stop-color="rgb(29.389954%, 56.555176%, 97.447205%)" offset="0.742188"/><stop stop-opacity="1" stop-color="rgb(29.450989%, 56.358337%, 97.502136%)" offset="0.75"/><stop stop-opacity="1" stop-color="rgb(29.512024%, 56.163025%, 97.555542%)" offset="0.757812"/><stop stop-opacity="1" stop-color="rgb(29.573059%, 55.966187%, 97.610474%)" offset="0.765625"/><stop stop-opacity="1" stop-color="rgb(29.634094%, 55.770874%, 97.665405%)" offset="0.773438"/><stop stop-opacity="1" stop-color="rgb(29.695129%, 55.574036%, 97.720337%)" offset="0.78125"/><stop stop-opacity="1" stop-color="rgb(29.786682%, 55.281067%, 97.801208%)" offset="0.796875"/><stop stop-opacity="1" stop-color="rgb(29.878235%, 54.986572%, 97.883606%)" offset="0.804687"/><stop stop-opacity="1" stop-color="rgb(29.93927%, 54.79126%, 97.938538%)" offset="0.8125"/><stop stop-opacity="1" stop-color="rgb(30.000305%, 54.594421%, 97.993469%)" offset="0.820312"/><stop stop-opacity="1" stop-color="rgb(30.06134%, 54.399109%, 98.048401%)" offset="0.828125"/><stop stop-opacity="1" stop-color="rgb(30.122375%, 54.202271%, 98.103333%)" offset="0.835938"/><stop stop-opacity="1" stop-color="rgb(30.183411%, 54.006958%, 98.156738%)" offset="0.84375"/><stop stop-opacity="1" stop-color="rgb(30.244446%, 53.81012%, 98.21167%)" offset="0.851562"/><stop stop-opacity="1" stop-color="rgb(30.305481%, 53.614807%, 98.266602%)" offset="0.859375"/><stop stop-opacity="1" stop-color="rgb(30.366516%, 53.419495%, 98.321533%)" offset="0.867188"/><stop stop-opacity="1" stop-color="rgb(30.427551%, 53.222656%, 98.376465%)" offset="0.875"/><stop stop-opacity="1" stop-color="rgb(30.488586%, 53.027344%, 98.429871%)" offset="0.882812"/><stop stop-opacity="1" stop-color="rgb(30.549622%, 52.830505%, 98.484802%)" offset="0.890625"/><stop stop-opacity="1" stop-color="rgb(30.610657%, 52.635193%, 98.539734%)" offset="0.898438"/><stop stop-opacity="1" stop-color="rgb(30.671692%, 52.438354%, 98.594666%)" offset="0.90625"/><stop stop-opacity="1" stop-color="rgb(30.763245%, 52.145386%, 98.675537%)" offset="0.921875"/><stop stop-opacity="1" stop-color="rgb(30.854797%, 51.850891%, 98.757935%)" offset="0.929688"/><stop stop-opacity="1" stop-color="rgb(30.915833%, 51.655579%, 98.812866%)" offset="0.9375"/><stop stop-opacity="1" stop-color="rgb(30.976868%, 51.45874%, 98.867798%)" offset="0.945312"/><stop stop-opacity="1" stop-color="rgb(31.037903%, 51.263428%, 98.922729%)" offset="0.953125"/><stop stop-opacity="1" stop-color="rgb(31.098938%, 51.066589%, 98.977661%)" offset="0.960938"/><stop stop-opacity="1" stop-color="rgb(31.159973%, 50.871277%, 99.031067%)" offset="0.96875"/><stop stop-opacity="1" stop-color="rgb(31.221008%, 50.674438%, 99.085999%)" offset="0.976562"/><stop stop-opacity="1" stop-color="rgb(31.282043%, 50.479126%, 99.14093%)" offset="0.984375"/><stop stop-opacity="1" stop-color="rgb(31.340027%, 50.289917%, 99.19281%)" offset="1"/></linearGradient><clipPath id="6713abbb52"><path d="M 156 97 L 193 97 L 193 108 L 156 108 Z M 156 97 " clip-rule="nonzero"/></clipPath><clipPath id="8862d4ff51"><path d="M 151.292969 98.4375 L 196.996094 96.425781 L 198.21875 124.148438 L 152.511719 126.160156 Z M 151.292969 98.4375 " clip-rule="nonzero"/></clipPath><clipPath id="2577e35dc5"><path d="M 151.292969 98.4375 L 196.996094 96.425781 L 198.21875 124.148438 L 152.511719 126.160156 Z M 151.292969 98.4375 " clip-rule="nonzero"/></clipPath><clipPath id="22bd94efe3"><path d="M 156 103 L 193 103 L 193 116 L 156 116 Z M 156 103 " clip-rule="nonzero"/></clipPath><clipPath id="8ee666f7f3"><path d="M 151.292969 98.4375 L 196.996094 96.425781 L 198.21875 124.148438 L 152.511719 126.160156 Z M 151.292969 98.4375 " clip-rule="nonzero"/></clipPath><clipPath id="f57af52638"><path d="M 151.292969 98.4375 L 196.996094 96.425781 L 198.21875 124.148438 L 152.511719 126.160156 Z M 151.292969 98.4375 " clip-rule="nonzero"/></clipPath><clipPath id="f15f109748"><path d="M 156 107 L 193 107 L 193 116 L 156 116 Z M 156 107 " clip-rule="nonzero"/></clipPath><clipPath id="b1b013c050"><path d="M 151.292969 98.4375 L 196.996094 96.425781 L 198.21875 124.148438 L 152.511719 126.160156 Z M 151.292969 98.4375 " clip-rule="nonzero"/></clipPath><clipPath id="c40951951a"><path d="M 151.292969 98.4375 L 196.996094 96.425781 L 198.21875 124.148438 L 152.511719 126.160156 Z M 151.292969 98.4375 " clip-rule="nonzero"/></clipPath><clipPath id="528b94da74"><path d="M 152 103 L 198 103 L 198 126 L 152 126 Z M 152 103 " clip-rule="nonzero"/></clipPath><clipPath id="77bca4c224"><path d="M 151.292969 98.4375 L 196.996094 96.425781 L 198.21875 124.148438 L 152.511719 126.160156 Z M 151.292969 98.4375 " clip-rule="nonzero"/></clipPath><clipPath id="d5a6802fc4"><path d="M 151.292969 98.4375 L 196.996094 96.425781 L 198.21875 124.148438 L 152.511719 126.160156 Z M 151.292969 98.4375 " clip-rule="nonzero"/></clipPath><clipPath id="ad91aebb31"><path d="M 157 121 L 167 121 L 167 125 L 157 125 Z M 157 121 " clip-rule="nonzero"/></clipPath><clipPath id="640d6d0611"><path d="M 151.292969 98.4375 L 196.996094 96.425781 L 198.21875 124.148438 L 152.511719 126.160156 Z M 151.292969 98.4375 " clip-rule="nonzero"/></clipPath><clipPath id="fb0db3c839"><path d="M 151.292969 98.4375 L 196.996094 96.425781 L 198.21875 124.148438 L 152.511719 126.160156 Z M 151.292969 98.4375 " clip-rule="nonzero"/></clipPath><clipPath id="4777d3fe16"><path d="M 111 193 L 121 193 L 121 204 L 111 204 Z M 111 193 " clip-rule="nonzero"/></clipPath><clipPath id="5982f37220"><path d="M 109.515625 190.550781 L 157.15625 200.90625 L 148.710938 239.75 L 101.074219 229.394531 Z M 109.515625 190.550781 " clip-rule="nonzero"/></clipPath><clipPath id="3243acd394"><path d="M 109.515625 190.550781 L 157.15625 200.90625 L 148.710938 239.75 L 101.074219 229.394531 Z M 109.515625 190.550781 " clip-rule="nonzero"/></clipPath><clipPath id="ed35dee16f"><path d="M 109.515625 190.550781 L 157.15625 200.90625 L 148.710938 239.75 L 101.074219 229.394531 Z M 109.515625 190.550781 " clip-rule="nonzero"/></clipPath><clipPath id="5668ecf321"><path d="M 115 198 L 138 198 L 138 224 L 115 224 Z M 115 198 " clip-rule="nonzero"/></clipPath><clipPath id="74575a5de4"><path d="M 109.515625 190.550781 L 157.15625 200.90625 L 148.710938 239.75 L 101.074219 229.394531 Z M 109.515625 190.550781 " clip-rule="nonzero"/></clipPath><clipPath id="a72099186d"><path d="M 109.515625 190.550781 L 157.15625 200.90625 L 148.710938 239.75 L 101.074219 229.394531 Z M 109.515625 190.550781 " clip-rule="nonzero"/></clipPath><clipPath id="0fec766648"><path d="M 109.515625 190.550781 L 157.15625 200.90625 L 148.710938 239.75 L 101.074219 229.394531 Z M 109.515625 190.550781 " clip-rule="nonzero"/></clipPath><clipPath id="88b0c13239"><path d="M 115 198 L 138 198 L 138 225 L 115 225 Z M 115 198 " clip-rule="nonzero"/></clipPath><clipPath id="f34142373d"><path d="M 109.515625 190.550781 L 157.15625 200.90625 L 148.710938 239.75 L 101.074219 229.394531 Z M 109.515625 190.550781 " clip-rule="nonzero"/></clipPath><clipPath id="a8791407f2"><path d="M 109.515625 190.550781 L 157.15625 200.90625 L 148.710938 239.75 L 101.074219 229.394531 Z M 109.515625 190.550781 " clip-rule="nonzero"/></clipPath><clipPath id="be97acb629"><path d="M 109.515625 190.550781 L 157.15625 200.90625 L 148.710938 239.75 L 101.074219 229.394531 Z M 109.515625 190.550781 " clip-rule="nonzero"/></clipPath><clipPath id="48bbe82d50"><path d="M 118 202 L 135 202 L 135 221 L 118 221 Z M 118 202 " clip-rule="nonzero"/></clipPath><clipPath id="6269c4039f"><path d="M 109.515625 190.550781 L 157.15625 200.90625 L 148.710938 239.75 L 101.074219 229.394531 Z M 109.515625 190.550781 " clip-rule="nonzero"/></clipPath><clipPath id="71dd8dff1d"><path d="M 109.515625 190.550781 L 157.15625 200.90625 L 148.710938 239.75 L 101.074219 229.394531 Z M 109.515625 190.550781 " clip-rule="nonzero"/></clipPath><clipPath id="e8378a277e"><path d="M 109.515625 190.550781 L 157.15625 200.90625 L 148.710938 239.75 L 101.074219 229.394531 Z M 109.515625 190.550781 " clip-rule="nonzero"/></clipPath><clipPath id="4fa77658b6"><path d="M 133 220 L 147 220 L 147 236 L 133 236 Z M 133 220 " clip-rule="nonzero"/></clipPath><clipPath id="3f1ff9f9f8"><path d="M 109.515625 190.550781 L 157.15625 200.90625 L 148.710938 239.75 L 101.074219 229.394531 Z M 109.515625 190.550781 " clip-rule="nonzero"/></clipPath><clipPath id="fce153f1e9"><path d="M 109.515625 190.550781 L 157.15625 200.90625 L 148.710938 239.75 L 101.074219 229.394531 Z M 109.515625 190.550781 " clip-rule="nonzero"/></clipPath><clipPath id="8eefba74c8"><path d="M 109.515625 190.550781 L 157.15625 200.90625 L 148.710938 239.75 L 101.074219 229.394531 Z M 109.515625 190.550781 " clip-rule="nonzero"/></clipPath><clipPath id="336774923f"><path d="M 142 231 L 150 231 L 150 239 L 142 239 Z M 142 231 " clip-rule="nonzero"/></clipPath><clipPath id="ed2a1c03f0"><path d="M 109.515625 190.550781 L 157.15625 200.90625 L 148.710938 239.75 L 101.074219 229.394531 Z M 109.515625 190.550781 " clip-rule="nonzero"/></clipPath><clipPath id="e6acea3029"><path d="M 109.515625 190.550781 L 157.15625 200.90625 L 148.710938 239.75 L 101.074219 229.394531 Z M 109.515625 190.550781 " clip-rule="nonzero"/></clipPath><clipPath id="edfb834a6b"><path d="M 109.515625 190.550781 L 157.15625 200.90625 L 148.710938 239.75 L 101.074219 229.394531 Z M 109.515625 190.550781 " clip-rule="nonzero"/></clipPath><clipPath id="b709a73abc"><path d="M 142 231 L 151 231 L 151 239 L 142 239 Z M 142 231 " clip-rule="nonzero"/></clipPath><clipPath id="4218e73486"><path d="M 109.515625 190.550781 L 157.15625 200.90625 L 148.710938 239.75 L 101.074219 229.394531 Z M 109.515625 190.550781 " clip-rule="nonzero"/></clipPath><clipPath id="4bbb21cfea"><path d="M 109.515625 190.550781 L 157.15625 200.90625 L 148.710938 239.75 L 101.074219 229.394531 Z M 109.515625 190.550781 " clip-rule="nonzero"/></clipPath><clipPath id="92b870321f"><path d="M 109.515625 190.550781 L 157.15625 200.90625 L 148.710938 239.75 L 101.074219 229.394531 Z M 109.515625 190.550781 " clip-rule="nonzero"/></clipPath><clipPath id="8f4e03198a"><path d="M 128 216 L 141 216 L 141 227 L 128 227 Z M 128 216 " clip-rule="nonzero"/></clipPath><clipPath id="0bee65b664"><path d="M 109.515625 190.550781 L 157.15625 200.90625 L 148.710938 239.75 L 101.074219 229.394531 Z M 109.515625 190.550781 " clip-rule="nonzero"/></clipPath><clipPath id="e7bb5bdb53"><path d="M 109.515625 190.550781 L 157.15625 200.90625 L 148.710938 239.75 L 101.074219 229.394531 Z M 109.515625 190.550781 " clip-rule="nonzero"/></clipPath><clipPath id="f1de374ef5"><path d="M 109.515625 190.550781 L 157.15625 200.90625 L 148.710938 239.75 L 101.074219 229.394531 Z M 109.515625 190.550781 " clip-rule="nonzero"/></clipPath><clipPath id="429d672708"><path d="M 128 215 L 141 215 L 141 227 L 128 227 Z M 128 215 " clip-rule="nonzero"/></clipPath><clipPath id="f270eb9df7"><path d="M 109.515625 190.550781 L 157.15625 200.90625 L 148.710938 239.75 L 101.074219 229.394531 Z M 109.515625 190.550781 " clip-rule="nonzero"/></clipPath><clipPath id="52cd353e54"><path d="M 109.515625 190.550781 L 157.15625 200.90625 L 148.710938 239.75 L 101.074219 229.394531 Z M 109.515625 190.550781 " clip-rule="nonzero"/></clipPath><clipPath id="a8262f8abc"><path d="M 109.515625 190.550781 L 157.15625 200.90625 L 148.710938 239.75 L 101.074219 229.394531 Z M 109.515625 190.550781 " clip-rule="nonzero"/></clipPath><clipPath id="255dba560f"><path d="M 109 191 L 113 191 L 113 195 L 109 195 Z M 109 191 " clip-rule="nonzero"/></clipPath><clipPath id="12ba8df90b"><path d="M 109.515625 190.550781 L 157.15625 200.90625 L 148.710938 239.75 L 101.074219 229.394531 Z M 109.515625 190.550781 " clip-rule="nonzero"/></clipPath><clipPath id="88d6bddb36"><path d="M 109.515625 190.550781 L 157.15625 200.90625 L 148.710938 239.75 L 101.074219 229.394531 Z M 109.515625 190.550781 " clip-rule="nonzero"/></clipPath><clipPath id="4f9462bc72"><path d="M 109.515625 190.550781 L 157.15625 200.90625 L 148.710938 239.75 L 101.074219 229.394531 Z M 109.515625 190.550781 " clip-rule="nonzero"/></clipPath><clipPath id="00c418de6d"><path d="M 109 190 L 114 190 L 114 196 L 109 196 Z M 109 190 " clip-rule="nonzero"/></clipPath><clipPath id="c69757f6e4"><path d="M 109.515625 190.550781 L 157.15625 200.90625 L 148.710938 239.75 L 101.074219 229.394531 Z M 109.515625 190.550781 " clip-rule="nonzero"/></clipPath><clipPath id="320821f526"><path d="M 109.515625 190.550781 L 157.15625 200.90625 L 148.710938 239.75 L 101.074219 229.394531 Z M 109.515625 190.550781 " clip-rule="nonzero"/></clipPath><clipPath id="1c05a42761"><path d="M 109.515625 190.550781 L 157.15625 200.90625 L 148.710938 239.75 L 101.074219 229.394531 Z M 109.515625 190.550781 " clip-rule="nonzero"/></clipPath><clipPath id="64c6f7ccfc"><path d="M 127 216 L 130 216 L 130 218 L 127 218 Z M 127 216 " clip-rule="nonzero"/></clipPath><clipPath id="2189e52dd1"><path d="M 109.515625 190.550781 L 157.15625 200.90625 L 148.710938 239.75 L 101.074219 229.394531 Z M 109.515625 190.550781 " clip-rule="nonzero"/></clipPath><clipPath id="eccf1fd20e"><path d="M 109.515625 190.550781 L 157.15625 200.90625 L 148.710938 239.75 L 101.074219 229.394531 Z M 109.515625 190.550781 " clip-rule="nonzero"/></clipPath><clipPath id="25a1a7efc1"><path d="M 109.515625 190.550781 L 157.15625 200.90625 L 148.710938 239.75 L 101.074219 229.394531 Z M 109.515625 190.550781 " clip-rule="nonzero"/></clipPath><clipPath id="f6cc11866f"><path d="M 127 215 L 131 215 L 131 219 L 127 219 Z M 127 215 " clip-rule="nonzero"/></clipPath><clipPath id="3563f80cb4"><path d="M 109.515625 190.550781 L 157.15625 200.90625 L 148.710938 239.75 L 101.074219 229.394531 Z M 109.515625 190.550781 " clip-rule="nonzero"/></clipPath><clipPath id="e75a1491e0"><path d="M 109.515625 190.550781 L 157.15625 200.90625 L 148.710938 239.75 L 101.074219 229.394531 Z M 109.515625 190.550781 " clip-rule="nonzero"/></clipPath><clipPath id="1d4b0c3934"><path d="M 109.515625 190.550781 L 157.15625 200.90625 L 148.710938 239.75 L 101.074219 229.394531 Z M 109.515625 190.550781 " clip-rule="nonzero"/></clipPath><clipPath id="cdb9963b54"><path d="M 125 212 L 127 212 L 127 215 L 125 215 Z M 125 212 " clip-rule="nonzero"/></clipPath><clipPath id="0aa5a84989"><path d="M 109.515625 190.550781 L 157.15625 200.90625 L 148.710938 239.75 L 101.074219 229.394531 Z M 109.515625 190.550781 " clip-rule="nonzero"/></clipPath><clipPath id="a21fe669d0"><path d="M 109.515625 190.550781 L 157.15625 200.90625 L 148.710938 239.75 L 101.074219 229.394531 Z M 109.515625 190.550781 " clip-rule="nonzero"/></clipPath><clipPath id="42acaeb486"><path d="M 109.515625 190.550781 L 157.15625 200.90625 L 148.710938 239.75 L 101.074219 229.394531 Z M 109.515625 190.550781 " clip-rule="nonzero"/></clipPath><clipPath id="efb5fe6d45"><path d="M 124 212 L 128 212 L 128 215 L 124 215 Z M 124 212 " clip-rule="nonzero"/></clipPath><clipPath id="afa69d591e"><path d="M 109.515625 190.550781 L 157.15625 200.90625 L 148.710938 239.75 L 101.074219 229.394531 Z M 109.515625 190.550781 " clip-rule="nonzero"/></clipPath><clipPath id="3070ee570b"><path d="M 109.515625 190.550781 L 157.15625 200.90625 L 148.710938 239.75 L 101.074219 229.394531 Z M 109.515625 190.550781 " clip-rule="nonzero"/></clipPath><clipPath id="29ca215d5d"><path d="M 109.515625 190.550781 L 157.15625 200.90625 L 148.710938 239.75 L 101.074219 229.394531 Z M 109.515625 190.550781 " clip-rule="nonzero"/></clipPath><clipPath id="84ef1700d5"><path d="M 122 209 L 125 209 L 125 211 L 122 211 Z M 122 209 " clip-rule="nonzero"/></clipPath><clipPath id="cb8c5a64cb"><path d="M 109.515625 190.550781 L 157.15625 200.90625 L 148.710938 239.75 L 101.074219 229.394531 Z M 109.515625 190.550781 " clip-rule="nonzero"/></clipPath><clipPath id="2b16443e27"><path d="M 109.515625 190.550781 L 157.15625 200.90625 L 148.710938 239.75 L 101.074219 229.394531 Z M 109.515625 190.550781 " clip-rule="nonzero"/></clipPath><clipPath id="88b99cbb22"><path d="M 109.515625 190.550781 L 157.15625 200.90625 L 148.710938 239.75 L 101.074219 229.394531 Z M 109.515625 190.550781 " clip-rule="nonzero"/></clipPath><clipPath id="b7440b89a3"><path d="M 121 208 L 125 208 L 125 211 L 121 211 Z M 121 208 " clip-rule="nonzero"/></clipPath><clipPath id="340609719e"><path d="M 109.515625 190.550781 L 157.15625 200.90625 L 148.710938 239.75 L 101.074219 229.394531 Z M 109.515625 190.550781 " clip-rule="nonzero"/></clipPath><clipPath id="5a91c3ca53"><path d="M 109.515625 190.550781 L 157.15625 200.90625 L 148.710938 239.75 L 101.074219 229.394531 Z M 109.515625 190.550781 " clip-rule="nonzero"/></clipPath><clipPath id="02e981fa2d"><path d="M 109.515625 190.550781 L 157.15625 200.90625 L 148.710938 239.75 L 101.074219 229.394531 Z M 109.515625 190.550781 " clip-rule="nonzero"/></clipPath><clipPath id="d22a8f6578"><path d="M 113 195 L 118 195 L 118 201 L 113 201 Z M 113 195 " clip-rule="nonzero"/></clipPath><clipPath id="44abaea33d"><path d="M 109.515625 190.550781 L 157.15625 200.90625 L 148.710938 239.75 L 101.074219 229.394531 Z M 109.515625 190.550781 " clip-rule="nonzero"/></clipPath><clipPath id="d3e2052b10"><path d="M 109.515625 190.550781 L 157.15625 200.90625 L 148.710938 239.75 L 101.074219 229.394531 Z M 109.515625 190.550781 " clip-rule="nonzero"/></clipPath><clipPath id="ffe79a9eae"><path d="M 109.515625 190.550781 L 157.15625 200.90625 L 148.710938 239.75 L 101.074219 229.394531 Z M 109.515625 190.550781 " clip-rule="nonzero"/></clipPath><clipPath id="9cab9e16d4"><path d="M 121 204 L 133 204 L 133 217 L 121 217 Z M 121 204 " clip-rule="nonzero"/></clipPath><clipPath id="6891a8dacf"><path d="M 109.515625 190.550781 L 157.15625 200.90625 L 148.710938 239.75 L 101.074219 229.394531 Z M 109.515625 190.550781 " clip-rule="nonzero"/></clipPath><clipPath id="d14ffdb188"><path d="M 109.515625 190.550781 L 157.15625 200.90625 L 148.710938 239.75 L 101.074219 229.394531 Z M 109.515625 190.550781 " clip-rule="nonzero"/></clipPath><clipPath id="b3c85cf217"><path d="M 109.515625 190.550781 L 157.15625 200.90625 L 148.710938 239.75 L 101.074219 229.394531 Z M 109.515625 190.550781 " clip-rule="nonzero"/></clipPath><clipPath id="5e4a2de9a6"><path d="M 135 222 L 146 222 L 146 234 L 135 234 Z M 135 222 " clip-rule="nonzero"/></clipPath><clipPath id="0fcd624967"><path d="M 109.515625 190.550781 L 157.15625 200.90625 L 148.710938 239.75 L 101.074219 229.394531 Z M 109.515625 190.550781 " clip-rule="nonzero"/></clipPath><clipPath id="b97c673eda"><path d="M 109.515625 190.550781 L 157.15625 200.90625 L 148.710938 239.75 L 101.074219 229.394531 Z M 109.515625 190.550781 " clip-rule="nonzero"/></clipPath><clipPath id="a8b1905e7c"><path d="M 109.515625 190.550781 L 157.15625 200.90625 L 148.710938 239.75 L 101.074219 229.394531 Z M 109.515625 190.550781 " clip-rule="nonzero"/></clipPath><clipPath id="bf3965719c"><path d="M 144 232 L 149 232 L 149 237 L 144 237 Z M 144 232 " clip-rule="nonzero"/></clipPath><clipPath id="b5a94f9605"><path d="M 109.515625 190.550781 L 157.15625 200.90625 L 148.710938 239.75 L 101.074219 229.394531 Z M 109.515625 190.550781 " clip-rule="nonzero"/></clipPath><clipPath id="aabf185773"><path d="M 109.515625 190.550781 L 157.15625 200.90625 L 148.710938 239.75 L 101.074219 229.394531 Z M 109.515625 190.550781 " clip-rule="nonzero"/></clipPath><clipPath id="b2fb9d7c9f"><path d="M 109.515625 190.550781 L 157.15625 200.90625 L 148.710938 239.75 L 101.074219 229.394531 Z M 109.515625 190.550781 " clip-rule="nonzero"/></clipPath></defs><path fill="#f6f6f6" d="M 131.710938 232.144531 C 135.683594 241.808594 142.925781 241.433594 143.804688 239.621094 C 144.679688 237.808594 143.539062 235.582031 141.808594 233.109375 C 140.078125 230.636719 140.371094 225.226562 140.558594 225.421875 C 140.746094 225.617188 142.820312 230.539062 145.1875 230.414062 C 147.554688 230.292969 148.882812 227.234375 147.234375 224.367188 C 145.585938 221.503906 144.203125 219.792969 144.042969 217.929688 C 143.949219 216.839844 144.476562 212.75 145.199219 209.027344 C 145.21875 208.933594 145.238281 208.839844 145.253906 208.746094 C 145.496094 207.53125 145.753906 206.367188 146.019531 205.367188 C 146.023438 205.355469 146.023438 205.34375 146.027344 205.332031 C 146.234375 204.554688 146.441406 203.882812 146.644531 203.367188 C 146.71875 203.183594 146.789062 203.019531 146.863281 202.875 C 148.191406 200.230469 152.605469 191.320312 153.484375 190.269531 C 154.363281 189.214844 156.960938 186.839844 156.960938 186.839844 C 156.792969 186.738281 155.097656 186.355469 152.640625 186.550781 C 148.84375 186.851562 143.226562 188.539062 138.660156 194.804688 C 137.296875 196.675781 136.066406 198.78125 134.992188 201.027344 C 134.867188 201.292969 134.742188 201.5625 134.621094 201.832031 C 134.257812 202.632812 133.910156 203.449219 133.585938 204.277344 C 133.558594 204.347656 133.53125 204.417969 133.503906 204.492188 C 129.835938 213.996094 128.820312 225.113281 131.710938 232.144531 Z M 131.710938 232.144531 " fill-opacity="1" fill-rule="nonzero"/><path fill="#54a3e6" d="M 133.503906 204.492188 C 135.632812 206.097656 137.945312 208.066406 145.203125 209.027344 C 145.21875 208.933594 145.238281 208.839844 145.253906 208.746094 C 145.496094 207.53125 145.753906 206.367188 146.019531 205.367188 C 144.597656 205.179688 138.011719 204.207031 134.621094 201.832031 C 134.257812 202.632812 133.910156 203.449219 133.585938 204.277344 C 133.558594 204.347656 133.53125 204.417969 133.503906 204.492188 Z M 133.503906 204.492188 " fill-opacity="1" fill-rule="nonzero"/><path fill="#f6f6f6" d="M 146.144531 219.777344 C 150.257812 235.964844 193.667969 242.234375 203.453125 225.390625 C 206.515625 220.121094 207.566406 214.203125 207.539062 208.53125 C 207.535156 207.320312 207.480469 206.117188 207.386719 204.9375 C 206.507812 193.980469 202.191406 184.75 201.75 184.265625 L 152.671875 185.570312 C 152.671875 185.570312 147.355469 194.570312 145.691406 205.566406 C 145.519531 206.71875 145.382812 207.894531 145.300781 209.082031 C 145.050781 212.597656 145.246094 216.230469 146.144531 219.777344 Z M 146.144531 219.777344 " fill-opacity="1" fill-rule="nonzero"/><g clip-path="url(#409f50b48a)"><path fill="#f6f6f6" d="M 182.378906 242.523438 C 182.402344 243.726562 182.441406 244.953125 182.492188 246.167969 C 182.722656 251.453125 183.265625 256.5 184.445312 258.292969 C 187.285156 262.601562 204.304688 264.167969 206.71875 260.25 C 209.128906 256.332031 201.183594 252.546875 201.183594 252.546875 C 201.789062 251.023438 201.9375 248.359375 201.820312 245.308594 C 201.777344 244.140625 201.695312 242.914062 201.589844 241.675781 L 201.589844 241.671875 C 200.984375 234.773438 199.542969 227.433594 199.199219 226.957031 L 182.460938 230.875 C 182.460938 230.875 182.257812 236.382812 182.378906 242.523438 Z M 182.378906 242.523438 " fill-opacity="1" fill-rule="nonzero"/></g><path fill="#54a3e6" d="M 182.378906 242.523438 C 182.402344 243.726562 182.441406 244.953125 182.492188 246.167969 C 184.28125 246.597656 186.113281 246.875 187.953125 247.027344 C 190.113281 247.203125 192.296875 247.171875 194.453125 246.925781 C 196.765625 246.660156 199.039062 246.222656 201.242188 245.503906 C 201.4375 245.441406 201.628906 245.375 201.820312 245.308594 C 201.777344 244.140625 201.695312 242.914062 201.589844 241.675781 L 201.589844 241.671875 C 201.589844 241.671875 201.585938 241.675781 201.585938 241.675781 C 201.582031 241.675781 201.582031 241.675781 201.578125 241.675781 C 199.3125 242.53125 196.933594 243.121094 194.511719 243.4375 C 194.007812 243.496094 193.503906 243.542969 192.996094 243.578125 C 190.953125 243.722656 188.894531 243.671875 186.859375 243.4375 C 185.34375 243.238281 183.84375 242.933594 182.378906 242.523438 Z M 182.378906 242.523438 " fill-opacity="1" fill-rule="nonzero"/><g clip-path="url(#635f42381e)"><path fill="#f6f6f6" d="M 171.671875 242.523438 C 171.644531 243.726562 171.609375 244.953125 171.554688 246.167969 C 171.328125 251.453125 170.785156 256.5 169.605469 258.292969 C 166.765625 262.601562 149.746094 264.167969 147.332031 260.25 C 144.921875 256.332031 152.863281 252.546875 152.863281 252.546875 C 152.261719 251.023438 152.113281 248.359375 152.226562 245.308594 C 152.273438 244.140625 152.351562 242.914062 152.460938 241.675781 L 152.460938 241.671875 C 153.066406 234.773438 154.507812 227.433594 154.851562 226.957031 L 171.589844 230.875 C 171.589844 230.875 171.792969 236.382812 171.671875 242.523438 Z M 171.671875 242.523438 " fill-opacity="1" fill-rule="nonzero"/></g><path fill="#54a3e6" d="M 171.671875 242.523438 C 171.644531 243.726562 171.609375 244.953125 171.554688 246.167969 C 169.769531 246.597656 167.9375 246.875 166.097656 247.027344 C 163.9375 247.203125 161.753906 247.171875 159.597656 246.925781 C 157.285156 246.660156 155.007812 246.222656 152.808594 245.503906 C 152.613281 245.441406 152.421875 245.375 152.226562 245.308594 C 152.273438 244.140625 152.351562 242.914062 152.460938 241.675781 L 152.460938 241.671875 C 152.460938 241.671875 152.464844 241.675781 152.464844 241.675781 C 152.46875 241.675781 152.46875 241.675781 152.472656 241.675781 C 154.738281 242.53125 157.117188 243.121094 159.539062 243.4375 C 160.042969 243.496094 160.546875 243.542969 161.050781 243.578125 C 163.097656 243.722656 165.15625 243.671875 167.191406 243.4375 C 168.707031 243.238281 170.207031 242.933594 171.671875 242.523438 Z M 171.671875 242.523438 " fill-opacity="1" fill-rule="nonzero"/><path fill="#54a3e6" d="M 179.558594 241.582031 C 179.710938 241.640625 179.859375 241.699219 180.011719 241.757812 C 179.945312 241.734375 179.878906 241.707031 179.8125 241.679688 C 179.726562 241.648438 179.644531 241.617188 179.558594 241.582031 Z M 179.558594 241.582031 " fill-opacity="1" fill-rule="nonzero"/><path fill="#54a3e6" d="M 145.300781 209.082031 C 145.75 209.199219 146.203125 209.308594 146.65625 209.414062 C 149.980469 210.167969 153.390625 210.523438 156.796875 210.757812 C 160.183594 210.992188 163.578125 211.183594 166.96875 211.359375 C 170.371094 211.539062 173.78125 211.679688 177.191406 211.734375 C 180.609375 211.789062 184.03125 211.75 187.449219 211.574219 C 190.753906 211.402344 194.050781 211.089844 197.320312 210.628906 C 200.101562 210.234375 202.863281 209.714844 205.582031 209.042969 C 205.910156 208.960938 206.242188 208.878906 206.570312 208.792969 C 206.894531 208.707031 207.21875 208.621094 207.539062 208.53125 C 207.535156 207.320312 207.480469 206.117188 207.386719 204.9375 C 205.535156 205.472656 203.660156 205.933594 201.765625 206.328125 C 199.5 206.796875 197.210938 207.171875 194.910156 207.460938 C 194.667969 207.492188 194.425781 207.519531 194.183594 207.546875 C 191.519531 207.851562 188.839844 208.046875 186.15625 208.15625 C 183.304688 208.273438 180.449219 208.300781 177.59375 208.261719 C 174.738281 208.222656 171.882812 208.121094 169.027344 207.984375 C 166.171875 207.851562 163.320312 207.679688 160.46875 207.511719 C 157.757812 207.347656 155.039062 207.199219 152.34375 206.878906 C 151.382812 206.753906 150.425781 206.609375 149.472656 206.433594 C 148.199219 206.195312 146.9375 205.902344 145.691406 205.566406 C 145.519531 206.71875 145.382812 207.894531 145.300781 209.082031 Z M 145.300781 209.082031 " fill-opacity="1" fill-rule="nonzero"/><path fill="#f6f6f6" d="M 217.277344 143.195312 C 217.101562 143.191406 218.699219 124.335938 218.699219 124.335938 L 223.144531 124.359375 C 223.144531 124.359375 223.832031 147.65625 223.394531 147.695312 C 222.960938 147.730469 217.277344 143.195312 217.277344 143.195312 Z M 217.277344 143.195312 " fill-opacity="1" fill-rule="nonzero"/><path fill="#f6f6f6" d="M 224.808594 121.121094 C 224.808594 121.382812 224.78125 121.640625 224.730469 121.898438 C 224.679688 122.15625 224.605469 122.402344 224.503906 122.644531 C 224.402344 122.886719 224.28125 123.117188 224.136719 123.335938 C 223.988281 123.554688 223.824219 123.753906 223.640625 123.941406 C 223.453125 124.125 223.253906 124.289062 223.035156 124.4375 C 222.816406 124.582031 222.585938 124.703125 222.34375 124.804688 C 222.105469 124.90625 221.855469 124.980469 221.597656 125.03125 C 221.339844 125.082031 221.082031 125.109375 220.820312 125.109375 C 220.558594 125.109375 220.296875 125.082031 220.042969 125.03125 C 219.785156 124.980469 219.535156 124.90625 219.292969 124.804688 C 219.050781 124.703125 218.820312 124.582031 218.605469 124.4375 C 218.386719 124.289062 218.183594 124.125 218 123.941406 C 217.816406 123.753906 217.648438 123.554688 217.503906 123.335938 C 217.359375 123.117188 217.234375 122.886719 217.136719 122.644531 C 217.035156 122.402344 216.960938 122.15625 216.910156 121.898438 C 216.855469 121.640625 216.832031 121.382812 216.832031 121.121094 C 216.832031 120.855469 216.855469 120.597656 216.910156 120.339844 C 216.960938 120.085938 217.035156 119.835938 217.136719 119.59375 C 217.234375 119.351562 217.359375 119.121094 217.503906 118.902344 C 217.648438 118.683594 217.816406 118.484375 218 118.296875 C 218.183594 118.113281 218.386719 117.949219 218.605469 117.800781 C 218.820312 117.65625 219.050781 117.535156 219.292969 117.433594 C 219.535156 117.332031 219.785156 117.257812 220.042969 117.207031 C 220.296875 117.15625 220.558594 117.128906 220.820312 117.128906 C 221.082031 117.128906 221.339844 117.15625 221.597656 117.207031 C 221.855469 117.257812 222.105469 117.332031 222.34375 117.433594 C 222.585938 117.535156 222.816406 117.65625 223.035156 117.800781 C 223.253906 117.949219 223.453125 118.113281 223.640625 118.296875 C 223.824219 118.484375 223.988281 118.683594 224.136719 118.902344 C 224.28125 119.121094 224.402344 119.351562 224.503906 119.59375 C 224.605469 119.835938 224.679688 120.085938 224.730469 120.339844 C 224.78125 120.597656 224.808594 120.855469 224.808594 121.121094 Z M 224.808594 121.121094 " fill-opacity="1" fill-rule="nonzero"/><path fill="#54a3e6" d="M 219.210938 170.367188 L 217.355469 170.433594 C 213.023438 170.582031 209.390625 167.191406 209.242188 162.859375 L 208.734375 148.21875 C 208.585938 143.886719 211.972656 140.253906 216.304688 140.101562 L 218.15625 140.039062 C 222.488281 139.890625 226.121094 143.277344 226.269531 147.609375 L 226.777344 162.253906 C 226.929688 166.585938 223.539062 170.21875 219.210938 170.367188 Z M 219.210938 170.367188 " fill-opacity="1" fill-rule="nonzero"/><path fill="#f6f6f6" d="M 130.238281 145.550781 C 130.410156 145.53125 126.917969 126.933594 126.917969 126.933594 L 122.496094 127.40625 C 122.496094 127.40625 124.167969 150.652344 124.605469 150.644531 C 125.042969 150.636719 130.238281 145.550781 130.238281 145.550781 Z M 130.238281 145.550781 " fill-opacity="1" fill-rule="nonzero"/><path fill="#f6f6f6" d="M 127.304688 121.125 C 127.488281 121.3125 127.652344 121.511719 127.800781 121.730469 C 127.945312 121.949219 128.066406 122.179688 128.167969 122.421875 C 128.269531 122.660156 128.34375 122.910156 128.394531 123.167969 C 128.445312 123.425781 128.472656 123.683594 128.472656 123.945312 C 128.472656 124.207031 128.445312 124.46875 128.394531 124.726562 C 128.34375 124.980469 128.269531 125.230469 128.167969 125.472656 C 128.066406 125.714844 127.945312 125.945312 127.800781 126.164062 C 127.652344 126.382812 127.488281 126.582031 127.304688 126.769531 C 127.117188 126.953125 126.917969 127.117188 126.699219 127.265625 C 126.480469 127.410156 126.25 127.53125 126.007812 127.632812 C 125.769531 127.734375 125.519531 127.808594 125.261719 127.859375 C 125.003906 127.910156 124.746094 127.9375 124.484375 127.9375 C 124.222656 127.9375 123.960938 127.910156 123.707031 127.859375 C 123.449219 127.808594 123.199219 127.734375 122.957031 127.632812 C 122.714844 127.53125 122.484375 127.410156 122.269531 127.265625 C 122.050781 127.117188 121.847656 126.953125 121.664062 126.769531 C 121.480469 126.582031 121.3125 126.382812 121.167969 126.164062 C 121.023438 125.945312 120.898438 125.714844 120.800781 125.472656 C 120.699219 125.230469 120.625 124.980469 120.574219 124.726562 C 120.519531 124.46875 120.496094 124.207031 120.496094 123.945312 C 120.496094 123.683594 120.519531 123.425781 120.574219 123.167969 C 120.625 122.910156 120.699219 122.660156 120.800781 122.421875 C 120.898438 122.179688 121.023438 121.949219 121.167969 121.730469 C 121.3125 121.511719 121.480469 121.3125 121.664062 121.125 C 121.847656 120.941406 122.050781 120.773438 122.269531 120.628906 C 122.484375 120.484375 122.714844 120.359375 122.957031 120.261719 C 123.199219 120.160156 123.449219 120.085938 123.707031 120.035156 C 123.960938 119.984375 124.222656 119.957031 124.484375 119.957031 C 124.746094 119.957031 125.003906 119.984375 125.261719 120.035156 C 125.519531 120.085938 125.769531 120.160156 126.007812 120.261719 C 126.25 120.359375 126.480469 120.484375 126.699219 120.628906 C 126.917969 120.773438 127.117188 120.941406 127.304688 121.125 Z M 127.304688 121.125 " fill-opacity="1" fill-rule="nonzero"/><path fill="#54a3e6" d="M 131.058594 172.78125 L 132.910156 172.65625 C 137.234375 172.367188 140.503906 168.628906 140.21875 164.304688 L 139.242188 149.6875 C 138.957031 145.359375 135.21875 142.089844 130.894531 142.375 L 129.042969 142.5 C 124.71875 142.789062 121.449219 146.527344 121.738281 150.851562 L 122.710938 165.472656 C 123 169.796875 126.738281 173.070312 131.058594 172.78125 Z M 131.058594 172.78125 " fill-opacity="1" fill-rule="nonzero"/><g clip-path="url(#5eb40e476f)"><path fill="#f6f6f6" d="M 219.625 156.269531 C 220.679688 179.308594 201.441406 194.914062 176.582031 196.054688 C 151.71875 197.195312 130.644531 183.441406 129.589844 160.402344 C 128.53125 137.363281 137.785156 114.589844 172.753906 112.625 C 207.925781 110.652344 218.566406 133.234375 219.625 156.269531 Z M 219.625 156.269531 " fill-opacity="1" fill-rule="nonzero"/></g><path fill="#160e0b" d="M 158.027344 131.746094 C 158.027344 131.746094 142.890625 133.253906 140.25 146.472656 C 137.757812 158.925781 137.527344 179.804688 161.96875 185.296875 C 186.410156 190.789062 205.625 180.96875 209.9375 164.988281 C 214.253906 149.007812 208.65625 135.082031 199.402344 132.148438 C 186.675781 128.117188 158.027344 131.746094 158.027344 131.746094 Z M 158.027344 131.746094 " fill-opacity="1" fill-rule="nonzero"/><path fill="#54a3e6" d="M 193.496094 145.429688 C 193.855469 145.433594 194.210938 145.488281 194.558594 145.59375 C 194.910156 145.695312 195.25 145.847656 195.578125 146.046875 C 195.90625 146.242188 196.21875 146.484375 196.511719 146.769531 C 196.804688 147.054688 197.078125 147.375 197.324219 147.734375 C 197.574219 148.097656 197.792969 148.488281 197.984375 148.910156 C 198.179688 149.332031 198.339844 149.777344 198.46875 150.242188 C 198.601562 150.710938 198.695312 151.191406 198.757812 151.6875 C 198.820312 152.183594 198.847656 152.683594 198.839844 153.1875 C 198.832031 153.691406 198.789062 154.1875 198.714844 154.679688 C 198.636719 155.175781 198.523438 155.652344 198.378906 156.117188 C 198.234375 156.578125 198.0625 157.019531 197.855469 157.433594 C 197.648438 157.851562 197.417969 158.234375 197.15625 158.585938 C 196.898438 158.941406 196.617188 159.253906 196.316406 159.527344 C 196.011719 159.804688 195.695312 160.035156 195.359375 160.222656 C 195.027344 160.410156 194.683594 160.550781 194.328125 160.644531 C 193.976562 160.738281 193.621094 160.78125 193.261719 160.773438 C 192.902344 160.769531 192.546875 160.714844 192.199219 160.613281 C 191.847656 160.507812 191.507812 160.355469 191.179688 160.160156 C 190.851562 159.960938 190.539062 159.71875 190.246094 159.4375 C 189.953125 159.152344 189.683594 158.828125 189.433594 158.46875 C 189.1875 158.109375 188.964844 157.71875 188.773438 157.296875 C 188.578125 156.875 188.417969 156.429688 188.289062 155.960938 C 188.15625 155.492188 188.0625 155.011719 188 154.515625 C 187.9375 154.023438 187.910156 153.523438 187.917969 153.019531 C 187.925781 152.515625 187.96875 152.015625 188.046875 151.523438 C 188.121094 151.03125 188.234375 150.550781 188.378906 150.089844 C 188.523438 149.625 188.699219 149.1875 188.902344 148.769531 C 189.109375 148.355469 189.339844 147.96875 189.601562 147.617188 C 189.859375 147.265625 190.140625 146.953125 190.441406 146.675781 C 190.746094 146.402344 191.0625 146.167969 191.398438 145.980469 C 191.730469 145.792969 192.074219 145.652344 192.429688 145.558594 C 192.78125 145.46875 193.136719 145.425781 193.496094 145.429688 Z M 193.496094 145.429688 " fill-opacity="1" fill-rule="nonzero"/><path fill="#54a3e6" d="M 157.21875 146.265625 C 157.578125 146.273438 157.933594 146.328125 158.28125 146.429688 C 158.632812 146.535156 158.972656 146.683594 159.300781 146.882812 C 159.628906 147.082031 159.941406 147.320312 160.234375 147.605469 C 160.527344 147.890625 160.800781 148.210938 161.046875 148.574219 C 161.296875 148.933594 161.515625 149.324219 161.707031 149.746094 C 161.902344 150.167969 162.0625 150.613281 162.191406 151.082031 C 162.324219 151.546875 162.417969 152.027344 162.480469 152.523438 C 162.542969 153.019531 162.570312 153.519531 162.5625 154.023438 C 162.554688 154.527344 162.511719 155.023438 162.4375 155.519531 C 162.359375 156.011719 162.246094 156.488281 162.101562 156.953125 C 161.957031 157.417969 161.785156 157.855469 161.578125 158.273438 C 161.371094 158.6875 161.140625 159.070312 160.882812 159.425781 C 160.621094 159.777344 160.339844 160.089844 160.039062 160.367188 C 159.734375 160.640625 159.417969 160.871094 159.082031 161.058594 C 158.75 161.246094 158.40625 161.386719 158.050781 161.480469 C 157.699219 161.574219 157.34375 161.617188 156.984375 161.613281 C 156.625 161.605469 156.269531 161.550781 155.921875 161.449219 C 155.570312 161.34375 155.230469 161.195312 154.902344 160.996094 C 154.574219 160.796875 154.261719 160.558594 153.96875 160.273438 C 153.675781 159.988281 153.40625 159.664062 153.15625 159.304688 C 152.910156 158.945312 152.6875 158.554688 152.496094 158.132812 C 152.300781 157.710938 152.140625 157.265625 152.011719 156.796875 C 151.878906 156.332031 151.785156 155.847656 151.722656 155.355469 C 151.660156 154.859375 151.632812 154.359375 151.640625 153.855469 C 151.648438 153.351562 151.691406 152.851562 151.769531 152.359375 C 151.84375 151.867188 151.957031 151.386719 152.101562 150.925781 C 152.246094 150.460938 152.421875 150.023438 152.625 149.605469 C 152.832031 149.191406 153.0625 148.804688 153.324219 148.453125 C 153.582031 148.101562 153.863281 147.789062 154.164062 147.511719 C 154.46875 147.238281 154.785156 147.003906 155.121094 146.816406 C 155.453125 146.628906 155.796875 146.488281 156.152344 146.398438 C 156.503906 146.304688 156.859375 146.261719 157.21875 146.265625 Z M 157.21875 146.265625 " fill-opacity="1" fill-rule="nonzero"/><path fill="#f6f6f6" d="M 241.425781 175.84375 C 241.425781 175.84375 238.339844 181.65625 232.179688 187.878906 C 230.949219 189.121094 229.597656 190.378906 228.125 191.609375 C 228.089844 191.640625 228.050781 191.671875 228.015625 191.699219 C 227 192.546875 225.925781 193.378906 224.796875 194.183594 C 219.777344 197.753906 213.621094 200.800781 206.335938 202.109375 C 182.960938 206.3125 195.242188 186.433594 195.242188 186.433594 C 195.242188 186.433594 204.816406 181.753906 216.816406 176.527344 C 216.914062 176.484375 217.007812 176.441406 217.101562 176.402344 C 217.652344 176.15625 218.175781 175.917969 218.675781 175.683594 C 219.511719 175.289062 220.269531 174.90625 220.960938 174.539062 C 221.980469 173.996094 222.847656 173.480469 223.589844 172.996094 C 228.371094 169.871094 227.800781 168.03125 227.800781 168.03125 Z M 241.425781 175.84375 " fill-opacity="1" fill-rule="nonzero"/><g clip-path="url(#677086b1ed)"><path fill="#f6f6f6" d="M 253.382812 153.851562 C 250.914062 153.300781 243.386719 161.058594 243.453125 160.832031 C 243.523438 160.601562 250.5625 151.847656 250.238281 149.3125 C 249.914062 146.777344 247.113281 146.171875 245.105469 147.054688 C 243.097656 147.9375 237.410156 158.296875 237.410156 158.296875 C 237.410156 158.296875 240.109375 149.414062 239.722656 147.753906 C 239.332031 146.09375 238.03125 144.15625 234.765625 145.898438 C 232.804688 146.945312 232.042969 152.894531 231.121094 157.152344 C 230.507812 159.988281 230.535156 159.734375 230.5 159.527344 C 230.410156 159 227.101562 155.40625 225.277344 154.855469 C 223.457031 154.300781 222.042969 154.863281 221.441406 157.664062 C 220.835938 160.46875 226.65625 168.132812 226.585938 168.882812 C 226.164062 173.378906 233.832031 181.5 239.324219 178.449219 C 242.875 176.476562 245.386719 173.128906 246.496094 170.679688 C 253.507812 169.195312 257.046875 167.585938 255.660156 164.082031 C 254.835938 161.996094 249.230469 164.167969 247.296875 164.683594 C 248.808594 163.605469 255.015625 160.039062 255.757812 158.304688 C 256.609375 156.324219 255.851562 154.402344 253.382812 153.851562 Z M 253.382812 153.851562 " fill-opacity="1" fill-rule="nonzero"/></g><path fill="#160e0b" d="M 230.9375 162.050781 C 231.875 162.175781 232.699219 162.785156 233.25 163.53125 C 233.910156 164.429688 234.207031 165.519531 234.304688 166.617188 C 234.367188 167.300781 234.359375 167.992188 234.335938 168.679688 C 234.324219 169 234.820312 169 234.835938 168.679688 C 234.882812 167.382812 234.859375 166.050781 234.453125 164.8125 C 234.113281 163.773438 233.488281 162.832031 232.589844 162.195312 C 232.097656 161.847656 231.535156 161.632812 230.9375 161.550781 C 230.804688 161.535156 230.6875 161.679688 230.6875 161.800781 C 230.6875 161.953125 230.804688 162.035156 230.9375 162.050781 Z M 230.9375 162.050781 " fill-opacity="1" fill-rule="nonzero"/><path fill="#54a3e6" d="M 202.53125 161.863281 C 202.53125 161.863281 197.695312 167.613281 201.964844 168.191406 C 206.644531 168.820312 203.988281 163.832031 202.53125 161.863281 Z M 202.53125 161.863281 " fill-opacity="1" fill-rule="nonzero"/><path fill="#54a3e6" d="M 150.5625 164.851562 C 150.5625 164.851562 146.878906 169.230469 150.128906 169.667969 C 153.691406 170.152344 151.671875 166.351562 150.5625 164.851562 Z M 150.5625 164.851562 " fill-opacity="1" fill-rule="nonzero"/><path fill="#54a3e6" d="M 188.335938 172.511719 C 187.832031 175.15625 186.8125 175.394531 184.851562 174.992188 C 183.039062 174.621094 180.421875 173.707031 176.65625 173.632812 C 173.222656 173.570312 169.953125 174.808594 167.511719 175.285156 C 164.835938 175.8125 163.160156 175.421875 163.367188 171.390625 C 163.378906 171.222656 164.742188 161.292969 174.136719 159.644531 C 183.527344 158 189.308594 167.425781 188.335938 172.511719 Z M 188.335938 172.511719 " fill-opacity="1" fill-rule="nonzero"/><path fill="#f6f6f6" d="M 184.851562 174.992188 C 183.039062 174.621094 180.421875 173.707031 176.65625 173.632812 C 173.222656 173.570312 169.953125 174.808594 167.511719 175.285156 C 167.820312 171.355469 171.589844 168.25 176.195312 168.25 C 180.804688 168.25 184.386719 171.203125 184.851562 174.992188 Z M 184.851562 174.992188 " fill-opacity="1" fill-rule="nonzero"/><path fill="#54a3e6" d="M 221.546875 168.519531 C 221.453125 168.296875 221.359375 168.074219 221.265625 167.851562 C 221.316406 167.96875 221.363281 168.082031 221.414062 168.199219 C 221.457031 168.308594 221.503906 168.414062 221.546875 168.519531 Z M 221.546875 168.519531 " fill-opacity="1" fill-rule="nonzero"/><path fill="#54a3e6" d="M 232.179688 187.878906 C 230.949219 189.121094 229.597656 190.378906 228.125 191.609375 C 228.089844 191.640625 228.050781 191.671875 228.015625 191.699219 C 227.917969 191.558594 227.816406 191.414062 227.71875 191.273438 C 226.105469 188.9375 224.582031 186.546875 223.148438 184.097656 C 221.710938 181.652344 220.371094 179.152344 219.121094 176.605469 C 218.96875 176.296875 218.820312 175.992188 218.675781 175.683594 C 219.511719 175.289062 220.269531 174.90625 220.960938 174.539062 C 221.980469 173.996094 222.847656 173.480469 223.589844 172.996094 C 223.652344 173.128906 223.714844 173.261719 223.78125 173.394531 C 225.355469 176.636719 227.082031 179.800781 228.957031 182.878906 C 229.898438 184.425781 230.875 185.953125 231.890625 187.453125 C 231.984375 187.59375 232.082031 187.738281 232.179688 187.878906 Z M 232.179688 187.878906 " fill-opacity="1" fill-rule="nonzero"/><g clip-path="url(#7714dfa1ae)"><path fill="#1f2b5b" d="M 191.25 196.757812 L 191.25 193.535156 L 193.5 193.535156 C 193.5 193.535156 193.53125 195.046875 192.953125 195.652344 C 192.378906 196.261719 191.25 196.757812 191.25 196.757812 Z M 191.25 196.757812 " fill-opacity="1" fill-rule="nonzero"/></g><g clip-path="url(#64047624ee)"><g clip-path="url(#8d88120cc8)"><path fill="url(#64778d563d)" d="M 187.5 193.660156 L 187.5 199.523438 L 193.503906 199.523438 L 193.503906 193.660156 Z M 187.5 193.660156 " fill-rule="nonzero"/></g></g><g clip-path="url(#a965b3a3a9)"><path fill="#1f2b5b" d="M 193.5 199.296875 L 193.5 202.519531 L 191.25 202.519531 C 191.25 202.519531 191.21875 201.011719 191.792969 200.402344 C 192.371094 199.796875 193.5 199.296875 193.5 199.296875 Z M 193.5 199.296875 " fill-opacity="1" fill-rule="nonzero"/></g><g clip-path="url(#bfad3cc8ac)"><g clip-path="url(#3c57ef6eb1)"><path fill="url(#5186b3b949)" d="M 197.25 202.398438 L 197.25 196.53125 L 191.246094 196.53125 L 191.246094 202.398438 Z M 197.25 202.398438 " fill-rule="nonzero"/></g></g><g clip-path="url(#6713abbb52)"><g clip-path="url(#8862d4ff51)"><g clip-path="url(#2577e35dc5)"><path fill="#002d75" d="M 192.074219 105.089844 C 192.089844 105.425781 192.085938 105.761719 192.058594 106.089844 C 191.191406 105.523438 190.265625 105.039062 189.300781 104.660156 C 184.453125 102.757812 179.425781 101.90625 174.351562 102.128906 C 169.273438 102.355469 164.335938 103.644531 159.679688 105.964844 C 158.746094 106.429688 157.871094 106.988281 157.054688 107.632812 C 157 107.308594 156.96875 106.972656 156.953125 106.636719 C 156.746094 101.984375 160.363281 98.035156 165.015625 97.828125 L 183.269531 97.027344 C 187.917969 96.820312 191.871094 100.4375 192.074219 105.089844 Z M 192.074219 105.089844 " fill-opacity="1" fill-rule="nonzero"/></g></g></g><g clip-path="url(#22bd94efe3)"><g clip-path="url(#8ee666f7f3)"><g clip-path="url(#f57af52638)"><path fill="#002d75" d="M 191.839844 107.46875 C 190.953125 106.835938 189.949219 106.28125 188.835938 105.84375 C 184.15625 104.003906 179.300781 103.183594 174.40625 103.398438 C 169.507812 103.617188 164.746094 104.859375 160.246094 107.101562 C 159.171875 107.636719 158.226562 108.277344 157.394531 108.988281 C 157.21875 109.136719 157.046875 109.292969 156.882812 109.449219 C 158.222656 113.035156 161.757812 115.511719 165.785156 115.335938 L 173.066406 115.015625 L 173.023438 114.058594 L 170.714844 114.160156 C 169.78125 114.199219 168.984375 113.40625 168.9375 112.386719 C 168.894531 111.363281 169.617188 110.503906 170.554688 110.464844 L 172.859375 110.363281 L 172.757812 108.054688 C 172.71875 107.117188 173.511719 106.320312 174.53125 106.277344 C 175.550781 106.230469 176.414062 106.957031 176.453125 107.890625 L 176.554688 110.199219 L 178.863281 110.097656 C 179.800781 110.054688 180.59375 110.847656 180.640625 111.871094 C 180.683594 112.890625 179.960938 113.75 179.027344 113.792969 L 176.71875 113.894531 L 176.761719 114.851562 L 184.039062 114.53125 C 188.074219 114.355469 191.375 111.574219 192.394531 107.882812 C 192.214844 107.738281 192.03125 107.601562 191.839844 107.46875 Z M 191.839844 107.46875 " fill-opacity="1" fill-rule="nonzero"/></g></g></g><g clip-path="url(#f15f109748)"><g clip-path="url(#b1b013c050)"><g clip-path="url(#c40951951a)"><path fill="#ffffff" d="M 192.390625 107.882812 C 192.214844 107.738281 192.03125 107.601562 191.839844 107.46875 C 190.96875 111.015625 187.84375 113.726562 184.011719 113.894531 L 176.730469 114.21875 L 176.789062 115.488281 L 184.066406 115.167969 C 188.273438 114.980469 191.746094 112.132812 192.921875 108.324219 C 192.75 108.171875 192.574219 108.027344 192.390625 107.882812 Z M 165.757812 114.699219 C 161.925781 114.871094 158.574219 112.445312 157.394531 108.988281 C 157.21875 109.136719 157.046875 109.292969 156.882812 109.449219 C 156.710938 109.605469 156.550781 109.769531 156.390625 109.933594 C 157.898438 113.625 161.609375 116.15625 165.8125 115.972656 L 173.09375 115.652344 L 173.039062 114.378906 Z M 165.757812 114.699219 " fill-opacity="1" fill-rule="nonzero"/></g></g></g><g clip-path="url(#528b94da74)"><g clip-path="url(#77bca4c224)"><g clip-path="url(#d5a6802fc4)"><path fill="#002d75" d="M 197.15625 114.777344 C 196.550781 112.71875 195.171875 110.277344 192.921875 108.324219 C 192.75 108.171875 192.574219 108.027344 192.390625 107.882812 C 192.214844 107.738281 192.03125 107.601562 191.839844 107.46875 C 190.953125 106.835938 189.949219 106.28125 188.835938 105.84375 C 184.15625 104.007812 179.300781 103.183594 174.40625 103.402344 C 169.507812 103.617188 164.746094 104.863281 160.246094 107.101562 C 159.171875 107.636719 158.226562 108.277344 157.394531 108.988281 C 157.21875 109.136719 157.046875 109.292969 156.882812 109.449219 C 156.710938 109.605469 156.550781 109.769531 156.390625 109.933594 C 154.324219 112.078125 153.167969 114.632812 152.742188 116.730469 C 152.234375 119.257812 152.625 121.5 153.816406 122.878906 C 154.488281 123.679688 155.238281 124.269531 156.015625 124.695312 C 156.21875 124.71875 156.707031 124.765625 157.375 124.785156 C 157.753906 124.792969 158.191406 124.792969 158.667969 124.769531 C 161.074219 124.664062 164.503906 124.046875 166.613281 121.625 C 166.808594 121.402344 166.992188 121.160156 167.164062 120.902344 C 167.359375 120.613281 167.753906 120.535156 168.046875 120.726562 C 168.339844 120.921875 168.417969 121.316406 168.222656 121.609375 C 166.664062 123.949219 164.25 125.089844 161.953125 125.628906 C 163.335938 125.445312 164.746094 125.023438 166.09375 124.394531 C 168.984375 122.953125 172.058594 122.148438 175.222656 122.011719 C 178.390625 121.871094 181.527344 122.402344 184.546875 123.585938 C 186.296875 124.226562 188.140625 124.527344 189.863281 124.449219 C 191.910156 124.359375 194.746094 123.6875 196.625 121 C 197.691406 119.511719 197.882812 117.246094 197.15625 114.777344 Z M 170.515625 119.191406 C 169.960938 119.796875 169.015625 119.835938 168.410156 119.28125 C 167.800781 118.726562 167.761719 117.78125 168.316406 117.175781 C 168.871094 116.570312 169.816406 116.527344 170.421875 117.082031 C 171.027344 117.640625 171.070312 118.582031 170.515625 119.191406 Z M 176.820312 116.203125 C 176.859375 117.136719 176.066406 117.933594 175.046875 117.976562 C 174.027344 118.023438 173.167969 117.300781 173.125 116.363281 L 173.023438 114.058594 L 170.714844 114.160156 C 169.78125 114.199219 168.984375 113.40625 168.9375 112.386719 C 168.894531 111.363281 169.617188 110.503906 170.554688 110.464844 L 172.859375 110.363281 L 172.757812 108.054688 C 172.71875 107.117188 173.511719 106.320312 174.53125 106.277344 C 175.550781 106.230469 176.414062 106.957031 176.453125 107.890625 L 176.554688 110.199219 L 178.863281 110.097656 C 179.800781 110.054688 180.59375 110.847656 180.640625 111.871094 C 180.683594 112.890625 179.960938 113.75 179.027344 113.792969 L 176.71875 113.894531 Z M 176.820312 116.203125 " fill-opacity="1" fill-rule="nonzero"/><path fill="#002d75" d="M 197.15625 114.777344 C 196.550781 112.71875 195.171875 110.277344 192.921875 108.324219 C 192.75 108.171875 192.574219 108.027344 192.390625 107.882812 C 192.214844 107.738281 192.03125 107.601562 191.839844 107.46875 C 190.953125 106.835938 189.949219 106.28125 188.835938 105.84375 C 184.15625 104.007812 179.300781 103.183594 174.40625 103.402344 C 169.507812 103.617188 164.746094 104.863281 160.246094 107.101562 C 159.171875 107.636719 158.226562 108.277344 157.394531 108.988281 C 157.21875 109.136719 157.046875 109.292969 156.882812 109.449219 C 156.710938 109.605469 156.550781 109.769531 156.390625 109.933594 C 154.324219 112.078125 153.167969 114.632812 152.742188 116.730469 C 152.234375 119.257812 152.625 121.5 153.816406 122.878906 C 154.488281 123.679688 155.238281 124.269531 156.015625 124.695312 C 156.21875 124.71875 156.707031 124.765625 157.375 124.785156 C 157.753906 124.792969 158.191406 124.792969 158.667969 124.769531 C 161.074219 124.664062 164.503906 124.046875 166.613281 121.625 C 166.808594 121.402344 166.992188 121.160156 167.164062 120.902344 C 167.359375 120.613281 167.753906 120.535156 168.046875 120.726562 C 168.339844 120.921875 168.417969 121.316406 168.222656 121.609375 C 166.664062 123.949219 164.25 125.089844 161.953125 125.628906 C 163.335938 125.445312 164.746094 125.023438 166.09375 124.394531 C 168.984375 122.953125 172.058594 122.148438 175.222656 122.011719 C 178.390625 121.871094 181.527344 122.402344 184.546875 123.585938 C 186.296875 124.226562 188.140625 124.527344 189.863281 124.449219 C 191.910156 124.359375 194.746094 123.6875 196.625 121 C 197.691406 119.511719 197.882812 117.246094 197.15625 114.777344 Z M 170.515625 119.191406 C 169.960938 119.796875 169.015625 119.835938 168.410156 119.28125 C 167.800781 118.726562 167.761719 117.78125 168.316406 117.175781 C 168.871094 116.570312 169.816406 116.527344 170.421875 117.082031 C 171.027344 117.640625 171.070312 118.582031 170.515625 119.191406 Z M 176.820312 116.203125 C 176.859375 117.136719 176.066406 117.933594 175.046875 117.976562 C 174.027344 118.023438 173.167969 117.300781 173.125 116.363281 L 173.023438 114.058594 L 170.714844 114.160156 C 169.78125 114.199219 168.984375 113.40625 168.9375 112.386719 C 168.894531 111.363281 169.617188 110.503906 170.554688 110.464844 L 172.859375 110.363281 L 172.757812 108.054688 C 172.71875 107.117188 173.511719 106.320312 174.53125 106.277344 C 175.550781 106.230469 176.414062 106.957031 176.453125 107.890625 L 176.554688 110.199219 L 178.863281 110.097656 C 179.800781 110.054688 180.59375 110.847656 180.640625 111.871094 C 180.683594 112.890625 179.960938 113.75 179.027344 113.792969 L 176.71875 113.894531 Z M 176.820312 116.203125 " fill-opacity="1" fill-rule="nonzero"/></g></g></g><g clip-path="url(#ad91aebb31)"><g clip-path="url(#640d6d0611)"><g clip-path="url(#fb0db3c839)"><path fill="#002d75" d="M 166.609375 121.625 C 164.503906 124.046875 161.074219 124.664062 158.667969 124.769531 C 158.191406 124.789062 157.753906 124.792969 157.375 124.785156 Z M 166.609375 121.625 " fill-opacity="1" fill-rule="nonzero"/></g></g></g><g clip-path="url(#4777d3fe16)"><g clip-path="url(#5982f37220)"><g clip-path="url(#3243acd394)"><g clip-path="url(#ed35dee16f)"><path fill="#b1b7bc" d="M 111.777344 196.023438 C 111.699219 195.929688 111.710938 195.792969 111.808594 195.714844 L 114.019531 193.90625 C 114.113281 193.828125 114.253906 193.839844 114.332031 193.9375 L 120.394531 201.296875 C 120.472656 201.390625 120.460938 201.527344 120.367188 201.605469 L 118.152344 203.414062 C 118.058594 203.492188 117.921875 203.476562 117.84375 203.386719 L 111.777344 196.023438 " fill-opacity="1" fill-rule="nonzero"/><path stroke-linecap="round" transform="matrix(0.0240714, 0.00523292, 0.00521475, -0.0239878, 66.484152, 254.56765)" fill="none" stroke-linejoin="round" d="M 1291.847031 2722.393632 C 1287.939483 2725.449436 1287.225345 2730.99315 1290.425492 2734.948117 L 1362.533231 2826.074607 C 1365.578423 2829.99577 1371.257843 2830.7462 1375.199077 2827.534902 L 1679.152431 2587.045881 C 1683.059979 2583.990078 1683.774117 2578.446364 1680.728924 2574.5252 L 1608.466231 2483.364906 C 1605.421038 2479.443743 1599.862888 2478.882611 1595.989025 2481.78292 Z M 1291.847031 2722.393632 " stroke="#24578f" stroke-width="30" stroke-opacity="1" stroke-miterlimit="10"/></g></g></g></g><g clip-path="url(#5668ecf321)"><g clip-path="url(#74575a5de4)"><g clip-path="url(#a72099186d)"><g clip-path="url(#0fec766648)"><path fill="#b1b7bc" d="M 115.441406 203.929688 C 115.363281 203.835938 115.378906 203.695312 115.472656 203.621094 L 121.089844 199.023438 C 121.179688 198.945312 121.320312 198.960938 121.398438 199.054688 L 137.578125 218.6875 C 137.65625 218.78125 137.640625 218.917969 137.546875 218.996094 L 131.933594 223.59375 C 131.835938 223.667969 131.699219 223.65625 131.621094 223.5625 L 115.441406 203.929688 " fill-opacity="1" fill-rule="nonzero"/></g></g></g></g><g clip-path="url(#88b0c13239)"><g clip-path="url(#f34142373d)"><g clip-path="url(#a8791407f2)"><g clip-path="url(#be97acb629)"><path stroke-linecap="round" transform="matrix(0.0240714, 0.00523292, 0.00521475, -0.0239878, 66.484152, 254.56765)" fill="none" stroke-linejoin="round" d="M 1505.374329 2439.380268 C 1501.466781 2442.436071 1500.873912 2448.169083 1503.95279 2451.934752 L 1687.129219 2683.560591 C 1690.019457 2687.447951 1695.732562 2688.042887 1699.64011 2684.987083 L 2510.766274 2043.484715 C 2514.673822 2040.428911 2515.233006 2034.851394 2512.187813 2030.930231 L 2329.166339 1799.338195 C 2325.932506 1795.538722 2320.408041 1794.822096 2316.500493 1797.877899 Z M 1505.374329 2439.380268 " stroke="#24578f" stroke-width="30" stroke-opacity="1" stroke-miterlimit="10"/></g></g></g></g><g clip-path="url(#48bbe82d50)"><g clip-path="url(#6269c4039f)"><g clip-path="url(#71dd8dff1d)"><g clip-path="url(#e8378a277e)"><path fill="#72c3ee" d="M 118.503906 205.96875 C 118.445312 205.902344 118.457031 205.800781 118.523438 205.746094 L 122.585938 202.421875 C 122.652344 202.363281 122.753906 202.375 122.8125 202.441406 L 134.519531 216.648438 C 134.570312 216.714844 134.5625 216.8125 134.496094 216.871094 L 130.433594 220.195312 C 130.363281 220.25 130.261719 220.242188 130.207031 220.171875 L 118.503906 205.96875 " fill-opacity="1" fill-rule="nonzero"/><path stroke-linecap="round" transform="matrix(0.0240714, 0.00523292, 0.00521475, -0.0239878, 66.484152, 254.56765)" fill="none" stroke-linejoin="round" d="M 1644.442623 2384.713838 C 1641.545648 2386.850196 1641.134681 2390.994461 1643.297307 2393.746036 L 1775.783403 2561.227047 C 1777.912343 2564.134116 1782.042217 2564.546514 1784.939193 2562.410156 L 2371.852935 2098.184947 C 2374.440001 2095.980983 2374.972236 2092.026016 2372.843296 2089.118947 L 2240.3572 1921.637936 C 2238.03962 1918.852558 2233.943431 1918.284665 2231.167725 1920.610321 Z M 1644.442623 2384.713838 " stroke="#24578f" stroke-width="30" stroke-opacity="1" stroke-miterlimit="10"/></g></g></g></g><g clip-path="url(#4fa77658b6)"><g clip-path="url(#3f1ff9f9f8)"><g clip-path="url(#fce153f1e9)"><g clip-path="url(#8eefba74c8)"><path fill="#b1b7bc" d="M 133.863281 222.652344 L 136.246094 220.703125 L 146.457031 233.089844 L 144.070312 235.042969 L 133.863281 222.652344 " fill-opacity="1" fill-rule="nonzero"/><path stroke-linecap="round" transform="matrix(0.0240714, 0.00523292, 0.00521475, -0.0239878, 66.484152, 254.56765)" fill="none" stroke-linejoin="round" d="M 2397.595593 1853.511098 L 2475.308642 1951.722726 L 2987.177247 1547.011315 L 2909.342929 1448.610391 Z M 2397.595593 1853.511098 " stroke="#24578f" stroke-width="30" stroke-opacity="1" stroke-miterlimit="10"/></g></g></g></g><g clip-path="url(#336774923f)"><g clip-path="url(#ed2a1c03f0)"><g clip-path="url(#e6acea3029)"><g clip-path="url(#edfb834a6b)"><path fill="#b1b7bc" d="M 142.425781 236.671875 C 142.347656 236.582031 142.359375 236.441406 142.457031 236.363281 L 148.070312 231.769531 C 148.164062 231.691406 148.304688 231.703125 148.382812 231.796875 L 149.59375 233.269531 C 149.671875 233.363281 149.65625 233.503906 149.566406 233.578125 L 143.949219 238.175781 C 143.855469 238.253906 143.714844 238.238281 143.636719 238.144531 L 142.425781 236.671875 " fill-opacity="1" fill-rule="nonzero"/></g></g></g></g><g clip-path="url(#b709a73abc)"><g clip-path="url(#4218e73486)"><g clip-path="url(#4bbb21cfea)"><g clip-path="url(#92b870321f)"><path stroke-linecap="round" transform="matrix(0.0240714, 0.00523292, 0.00521475, -0.0239878, 66.484152, 254.56765)" fill="none" stroke-linejoin="round" d="M 2858.154048 1369.538098 C 2854.280185 1372.438407 2853.687316 1378.171419 2856.732508 1382.092582 L 3039.787668 1613.529124 C 3042.832861 1617.450287 3048.51228 1618.200717 3052.419828 1615.144914 L 3113.155254 1567.002489 C 3117.062802 1563.946686 3117.655672 1558.213674 3114.731748 1554.481808 L 2931.55532 1322.855969 C 2928.510127 1318.934806 2922.797022 1318.33987 2918.889474 1321.395674 Z M 2858.154048 1369.538098 " stroke="#24578f" stroke-width="30" stroke-opacity="1" stroke-miterlimit="10"/></g></g></g></g><g clip-path="url(#8f4e03198a)"><g clip-path="url(#0bee65b664)"><g clip-path="url(#e7bb5bdb53)"><g clip-path="url(#f1de374ef5)"><path fill="#b1b7bc" d="M 129.015625 224.984375 C 128.9375 224.886719 128.949219 224.75 129.046875 224.671875 L 139.171875 216.386719 C 139.265625 216.308594 139.402344 216.324219 139.480469 216.414062 L 140.464844 217.605469 C 140.542969 217.699219 140.527344 217.839844 140.433594 217.917969 L 130.304688 226.203125 C 130.214844 226.28125 130.074219 226.265625 129.996094 226.171875 L 129.015625 224.984375 " fill-opacity="1" fill-rule="nonzero"/></g></g></g></g><g clip-path="url(#429d672708)"><g clip-path="url(#f270eb9df7)"><g clip-path="url(#52cd353e54)"><g clip-path="url(#a8262f8abc)"><path stroke-linecap="round" transform="matrix(0.0240714, 0.00523292, 0.00521475, -0.0239878, 66.484152, 254.56765)" fill="none" stroke-linejoin="round" d="M 2225.40746 1718.73124 C 2221.466226 1721.942538 2220.752088 1727.486252 2223.952235 1731.441219 L 2554.146796 2148.862607 C 2557.191989 2152.78377 2562.750139 2153.344902 2566.624002 2150.444593 L 2615.946692 2111.537185 C 2619.85424 2108.481382 2620.44711 2102.74837 2617.401917 2098.827207 L 2287.052401 1681.372016 C 2284.162163 1677.484655 2278.449058 1676.88972 2274.54151 1679.945523 Z M 2225.40746 1718.73124 " stroke="#24578f" stroke-width="30" stroke-opacity="1" stroke-miterlimit="10"/></g></g></g></g><g clip-path="url(#255dba560f)"><g clip-path="url(#12ba8df90b)"><g clip-path="url(#88d6bddb36)"><g clip-path="url(#4f9462bc72)"><path fill="#b1b7bc" d="M 112.914062 194.8125 L 109.835938 191.074219 " fill-opacity="1" fill-rule="nonzero"/></g></g></g></g><g clip-path="url(#00c418de6d)"><g clip-path="url(#c69757f6e4)"><g clip-path="url(#320821f526)"><g clip-path="url(#1c05a42761)"><path stroke-linecap="round" transform="matrix(0.0240714, 0.00523292, 0.00521475, -0.0239878, 66.484152, 254.56765)" fill="none" stroke-linejoin="round" d="M 1326.496204 2780.433614 L 1172.154787 2902.604904 " stroke="#24578f" stroke-width="30" stroke-opacity="1" stroke-miterlimit="10"/></g></g></g></g><g clip-path="url(#64c6f7ccfc)"><g clip-path="url(#2189e52dd1)"><g clip-path="url(#eccf1fd20e)"><g clip-path="url(#25a1a7efc1)"><path fill="#b1b7bc" d="M 129.886719 216.1875 L 127.957031 217.765625 " fill-opacity="1" fill-rule="nonzero"/></g></g></g></g><g clip-path="url(#f6cc11866f)"><g clip-path="url(#3563f80cb4)"><g clip-path="url(#e75a1491e0)"><g clip-path="url(#1d4b0c3934)"><path stroke-linecap="round" transform="matrix(0.0240714, 0.00523292, 0.00521475, -0.0239878, 66.484152, 254.56765)" fill="none" stroke-linejoin="round" d="M 2184.10198 2076.442771 L 2121.163505 1996.924277 " stroke="#24578f" stroke-width="30" stroke-opacity="1" stroke-miterlimit="10"/></g></g></g></g><g clip-path="url(#cdb9963b54)"><g clip-path="url(#0aa5a84989)"><g clip-path="url(#a21fe669d0)"><g clip-path="url(#42acaeb486)"><path fill="#b1b7bc" d="M 126.949219 212.617188 L 125.019531 214.199219 " fill-opacity="1" fill-rule="nonzero"/></g></g></g></g><g clip-path="url(#efb5fe6d45)"><g clip-path="url(#afa69d591e)"><g clip-path="url(#3070ee570b)"><g clip-path="url(#29ca215d5d)"><path stroke-linecap="round" transform="matrix(0.0240714, 0.00523292, 0.00521475, -0.0239878, 66.484152, 254.56765)" fill="none" stroke-linejoin="round" d="M 2036.787412 2193.144713 L 1973.882623 2113.470725 " stroke="#24578f" stroke-width="30" stroke-opacity="1" stroke-miterlimit="10"/></g></g></g></g><g clip-path="url(#84ef1700d5)"><g clip-path="url(#cb8c5a64cb)"><g clip-path="url(#2b16443e27)"><g clip-path="url(#88b99cbb22)"><path fill="#b1b7bc" d="M 124.007812 209.050781 L 122.078125 210.628906 " fill-opacity="1" fill-rule="nonzero"/></g></g></g></g><g clip-path="url(#b7440b89a3)"><g clip-path="url(#340609719e)"><g clip-path="url(#5a91c3ca53)"><g clip-path="url(#02e981fa2d)"><path stroke-linecap="round" transform="matrix(0.0240714, 0.00523292, 0.00521475, -0.0239878, 66.484152, 254.56765)" fill="none" stroke-linejoin="round" d="M 1889.351576 2309.657358 L 1826.413101 2230.138864 " stroke="#24578f" stroke-width="30" stroke-opacity="1" stroke-miterlimit="10"/></g></g></g></g><g clip-path="url(#d22a8f6578)"><g clip-path="url(#44abaea33d)"><g clip-path="url(#d3e2052b10)"><g clip-path="url(#ffe79a9eae)"><path stroke-linecap="round" transform="matrix(0.0240714, 0.00523292, 0.00521475, -0.0239878, 66.484152, 254.56765)" fill="none" stroke-linejoin="round" d="M 1369.216485 2764.512338 L 1556.792274 2609.531726 " stroke="#ffffff" stroke-width="30" stroke-opacity="1" stroke-miterlimit="10"/></g></g></g></g><g clip-path="url(#9cab9e16d4)"><g clip-path="url(#6891a8dacf)"><g clip-path="url(#d14ffdb188)"><g clip-path="url(#b3c85cf217)"><path stroke-linecap="round" transform="matrix(0.0240714, 0.00523292, 0.00521475, -0.0239878, 66.484152, 254.56765)" fill="none" stroke-linejoin="round" d="M 1776.85461 2479.876423 L 2286.742492 2089.551627 " stroke="#ffffff" stroke-width="30" stroke-opacity="1" stroke-miterlimit="10"/></g></g></g></g><g clip-path="url(#5e4a2de9a6)"><g clip-path="url(#0fcd624967)"><g clip-path="url(#b97c673eda)"><g clip-path="url(#a8b1905e7c)"><path stroke-linecap="round" transform="matrix(0.0240714, 0.00523292, 0.00521475, -0.0239878, 66.484152, 254.56765)" fill="none" stroke-linejoin="round" d="M 2486.782012 1869.547305 L 2916.760534 1524.484907 " stroke="#ffffff" stroke-width="30" stroke-opacity="1" stroke-miterlimit="10"/></g></g></g></g><g clip-path="url(#bf3965719c)"><g clip-path="url(#b5a94f9605)"><g clip-path="url(#aabf185773)"><g clip-path="url(#b2fb9d7c9f)"><path stroke-linecap="round" transform="matrix(0.0240714, 0.00523292, 0.00521475, -0.0239878, 66.484152, 254.56765)" fill="none" stroke-linejoin="round" d="M 3052.783634 1567.022771 L 3070.098115 1554.515611 L 2949.981431 1406.342951 " stroke="#ffffff" stroke-width="30" stroke-opacity="1" stroke-miterlimit="10"/></g></g></g></g></svg>