<svg xmlns="http://www.w3.org/2000/svg" xmlns:xlink="http://www.w3.org/1999/xlink" width="500" zoomAndPan="magnify" viewBox="0 0 375 374.999991" height="500" preserveAspectRatio="xMidYMid meet" version="1.0"><defs><clipPath id="95f57d9cc4"><path d="M 112.5 159 L 126 159 L 126 188 L 112.5 188 Z M 112.5 159 " clip-rule="nonzero"/></clipPath><clipPath id="d2bbb6cb87"><path d="M 224 203 L 262.5 203 L 262.5 236 L 224 236 Z M 224 203 " clip-rule="nonzero"/></clipPath><clipPath id="b96109a685"><path d="M 205 232 L 227 232 L 227 241.84375 L 205 241.84375 Z M 205 232 " clip-rule="nonzero"/></clipPath><clipPath id="c385195a35"><path d="M 207 200.335938 L 211 200.335938 L 211 204 L 207 204 Z M 207 200.335938 " clip-rule="nonzero"/></clipPath><clipPath id="2926bff915"><path d="M 204.238281 200.335938 L 211 200.335938 L 211 207 L 204.238281 207 Z M 204.238281 200.335938 " clip-rule="nonzero"/></clipPath><clipPath id="8dffe9ee67"><path d="M 210.234375 200.46875 C 210.238281 200.867188 210.191406 202.183594 209.542969 203.46875 C 209.339844 203.871094 209.078125 204.273438 208.734375 204.640625 C 207.851562 205.597656 206.453125 206.332031 204.238281 206.332031 L 204.238281 204.089844 C 205.871094 204.089844 207.0625 203.839844 207.929688 203.46875 C 208.238281 203.335938 208.503906 203.1875 208.738281 203.03125 C 210.101562 202.109375 210.230469 200.855469 210.234375 200.46875 Z M 210.234375 200.46875 " clip-rule="nonzero"/></clipPath><linearGradient x1="-0.0000845671" gradientTransform="matrix(0.0249488, 0, 0, 0.0249079, 204.23636, 200.345885)" y1="122.636002" x2="240.599922" gradientUnits="userSpaceOnUse" y2="122.636002" id="1c6e06e1c9"><stop stop-opacity="1" stop-color="rgb(23.919678%, 74.119568%, 92.549133%)" offset="0"/><stop stop-opacity="1" stop-color="rgb(23.919678%, 74.119568%, 92.549133%)" offset="0.03125"/><stop stop-opacity="1" stop-color="rgb(23.953247%, 74.008179%, 92.579651%)" offset="0.046875"/><stop stop-opacity="1" stop-color="rgb(24.01886%, 73.800659%, 92.637634%)" offset="0.0546875"/><stop stop-opacity="1" stop-color="rgb(24.079895%, 73.603821%, 92.692566%)" offset="0.0625"/><stop stop-opacity="1" stop-color="rgb(24.171448%, 73.310852%, 92.774963%)" offset="0.078125"/><stop stop-opacity="1" stop-color="rgb(24.263%, 73.016357%, 92.855835%)" offset="0.0859375"/><stop stop-opacity="1" stop-color="rgb(24.324036%, 72.821045%, 92.910767%)" offset="0.09375"/><stop stop-opacity="1" stop-color="rgb(24.385071%, 72.624207%, 92.965698%)" offset="0.101562"/><stop stop-opacity="1" stop-color="rgb(24.446106%, 72.428894%, 93.02063%)" offset="0.109375"/><stop stop-opacity="1" stop-color="rgb(24.507141%, 72.232056%, 93.075562%)" offset="0.117187"/><stop stop-opacity="1" stop-color="rgb(24.568176%, 72.036743%, 93.128967%)" offset="0.125"/><stop stop-opacity="1" stop-color="rgb(24.629211%, 71.841431%, 93.183899%)" offset="0.132812"/><stop stop-opacity="1" stop-color="rgb(24.690247%, 71.644592%, 93.238831%)" offset="0.140625"/><stop stop-opacity="1" stop-color="rgb(24.751282%, 71.44928%, 93.293762%)" offset="0.148437"/><stop stop-opacity="1" stop-color="rgb(24.812317%, 71.252441%, 93.348694%)" offset="0.15625"/><stop stop-opacity="1" stop-color="rgb(24.873352%, 71.057129%, 93.403625%)" offset="0.164062"/><stop stop-opacity="1" stop-color="rgb(24.934387%, 70.860291%, 93.457031%)" offset="0.171875"/><stop stop-opacity="1" stop-color="rgb(24.995422%, 70.664978%, 93.511963%)" offset="0.179688"/><stop stop-opacity="1" stop-color="rgb(25.056458%, 70.46814%, 93.566895%)" offset="0.1875"/><stop stop-opacity="1" stop-color="rgb(25.14801%, 70.175171%, 93.649292%)" offset="0.203125"/><stop stop-opacity="1" stop-color="rgb(25.239563%, 69.880676%, 93.730164%)" offset="0.210937"/><stop stop-opacity="1" stop-color="rgb(25.300598%, 69.685364%, 93.785095%)" offset="0.21875"/><stop stop-opacity="1" stop-color="rgb(25.361633%, 69.488525%, 93.840027%)" offset="0.226562"/><stop stop-opacity="1" stop-color="rgb(25.422668%, 69.293213%, 93.894958%)" offset="0.234375"/><stop stop-opacity="1" stop-color="rgb(25.483704%, 69.096375%, 93.94989%)" offset="0.242187"/><stop stop-opacity="1" stop-color="rgb(25.544739%, 68.901062%, 94.004822%)" offset="0.25"/><stop stop-opacity="1" stop-color="rgb(25.605774%, 68.70575%, 94.058228%)" offset="0.257812"/><stop stop-opacity="1" stop-color="rgb(25.666809%, 68.508911%, 94.113159%)" offset="0.265625"/><stop stop-opacity="1" stop-color="rgb(25.727844%, 68.313599%, 94.168091%)" offset="0.273438"/><stop stop-opacity="1" stop-color="rgb(25.788879%, 68.11676%, 94.223022%)" offset="0.28125"/><stop stop-opacity="1" stop-color="rgb(25.849915%, 67.921448%, 94.277954%)" offset="0.289062"/><stop stop-opacity="1" stop-color="rgb(25.91095%, 67.724609%, 94.33136%)" offset="0.296875"/><stop stop-opacity="1" stop-color="rgb(26.002502%, 67.431641%, 94.413757%)" offset="0.3125"/><stop stop-opacity="1" stop-color="rgb(26.094055%, 67.137146%, 94.496155%)" offset="0.320312"/><stop stop-opacity="1" stop-color="rgb(26.15509%, 66.941833%, 94.551086%)" offset="0.328125"/><stop stop-opacity="1" stop-color="rgb(26.216125%, 66.744995%, 94.604492%)" offset="0.335938"/><stop stop-opacity="1" stop-color="rgb(26.277161%, 66.549683%, 94.659424%)" offset="0.34375"/><stop stop-opacity="1" stop-color="rgb(26.338196%, 66.352844%, 94.714355%)" offset="0.351562"/><stop stop-opacity="1" stop-color="rgb(26.399231%, 66.157532%, 94.769287%)" offset="0.359375"/><stop stop-opacity="1" stop-color="rgb(26.460266%, 65.962219%, 94.824219%)" offset="0.367187"/><stop stop-opacity="1" stop-color="rgb(26.521301%, 65.765381%, 94.87915%)" offset="0.375"/><stop stop-opacity="1" stop-color="rgb(26.582336%, 65.570068%, 94.932556%)" offset="0.382812"/><stop stop-opacity="1" stop-color="rgb(26.643372%, 65.37323%, 94.987488%)" offset="0.390625"/><stop stop-opacity="1" stop-color="rgb(26.704407%, 65.177917%, 95.042419%)" offset="0.398438"/><stop stop-opacity="1" stop-color="rgb(26.765442%, 64.981079%, 95.097351%)" offset="0.40625"/><stop stop-opacity="1" stop-color="rgb(26.856995%, 64.68811%, 95.178223%)" offset="0.421875"/><stop stop-opacity="1" stop-color="rgb(26.948547%, 64.393616%, 95.26062%)" offset="0.429687"/><stop stop-opacity="1" stop-color="rgb(27.009583%, 64.198303%, 95.315552%)" offset="0.4375"/><stop stop-opacity="1" stop-color="rgb(27.070618%, 64.001465%, 95.370483%)" offset="0.445312"/><stop stop-opacity="1" stop-color="rgb(27.131653%, 63.806152%, 95.425415%)" offset="0.453125"/><stop stop-opacity="1" stop-color="rgb(27.192688%, 63.609314%, 95.478821%)" offset="0.460938"/><stop stop-opacity="1" stop-color="rgb(27.253723%, 63.414001%, 95.533752%)" offset="0.46875"/><stop stop-opacity="1" stop-color="rgb(27.314758%, 63.217163%, 95.588684%)" offset="0.476562"/><stop stop-opacity="1" stop-color="rgb(27.375793%, 63.021851%, 95.643616%)" offset="0.484375"/><stop stop-opacity="1" stop-color="rgb(27.436829%, 62.826538%, 95.698547%)" offset="0.492188"/><stop stop-opacity="1" stop-color="rgb(27.497864%, 62.6297%, 95.753479%)" offset="0.5"/><stop stop-opacity="1" stop-color="rgb(27.558899%, 62.434387%, 95.806885%)" offset="0.507812"/><stop stop-opacity="1" stop-color="rgb(27.619934%, 62.237549%, 95.861816%)" offset="0.515625"/><stop stop-opacity="1" stop-color="rgb(27.680969%, 62.042236%, 95.916748%)" offset="0.523437"/><stop stop-opacity="1" stop-color="rgb(27.742004%, 61.845398%, 95.97168%)" offset="0.53125"/><stop stop-opacity="1" stop-color="rgb(27.833557%, 61.552429%, 96.052551%)" offset="0.546875"/><stop stop-opacity="1" stop-color="rgb(27.92511%, 61.257935%, 96.134949%)" offset="0.554688"/><stop stop-opacity="1" stop-color="rgb(27.986145%, 61.062622%, 96.18988%)" offset="0.5625"/><stop stop-opacity="1" stop-color="rgb(28.04718%, 60.865784%, 96.244812%)" offset="0.570312"/><stop stop-opacity="1" stop-color="rgb(28.108215%, 60.670471%, 96.299744%)" offset="0.578125"/><stop stop-opacity="1" stop-color="rgb(28.16925%, 60.473633%, 96.353149%)" offset="0.585938"/><stop stop-opacity="1" stop-color="rgb(28.230286%, 60.27832%, 96.408081%)" offset="0.59375"/><stop stop-opacity="1" stop-color="rgb(28.291321%, 60.083008%, 96.463013%)" offset="0.601562"/><stop stop-opacity="1" stop-color="rgb(28.352356%, 59.886169%, 96.517944%)" offset="0.609375"/><stop stop-opacity="1" stop-color="rgb(28.413391%, 59.690857%, 96.572876%)" offset="0.617187"/><stop stop-opacity="1" stop-color="rgb(28.474426%, 59.494019%, 96.627808%)" offset="0.625"/><stop stop-opacity="1" stop-color="rgb(28.535461%, 59.298706%, 96.681213%)" offset="0.632812"/><stop stop-opacity="1" stop-color="rgb(28.596497%, 59.101868%, 96.736145%)" offset="0.640625"/><stop stop-opacity="1" stop-color="rgb(28.688049%, 58.808899%, 96.818542%)" offset="0.65625"/><stop stop-opacity="1" stop-color="rgb(28.779602%, 58.514404%, 96.90094%)" offset="0.664062"/><stop stop-opacity="1" stop-color="rgb(28.840637%, 58.319092%, 96.954346%)" offset="0.671875"/><stop stop-opacity="1" stop-color="rgb(28.901672%, 58.122253%, 97.009277%)" offset="0.679687"/><stop stop-opacity="1" stop-color="rgb(28.962708%, 57.926941%, 97.064209%)" offset="0.6875"/><stop stop-opacity="1" stop-color="rgb(29.023743%, 57.730103%, 97.119141%)" offset="0.695312"/><stop stop-opacity="1" stop-color="rgb(29.084778%, 57.53479%, 97.174072%)" offset="0.703125"/><stop stop-opacity="1" stop-color="rgb(29.145813%, 57.339478%, 97.227478%)" offset="0.710937"/><stop stop-opacity="1" stop-color="rgb(29.206848%, 57.142639%, 97.28241%)" offset="0.71875"/><stop stop-opacity="1" stop-color="rgb(29.267883%, 56.947327%, 97.337341%)" offset="0.726562"/><stop stop-opacity="1" stop-color="rgb(29.328918%, 56.750488%, 97.392273%)" offset="0.734375"/><stop stop-opacity="1" stop-color="rgb(29.389954%, 56.555176%, 97.447205%)" offset="0.742187"/><stop stop-opacity="1" stop-color="rgb(29.450989%, 56.358337%, 97.502136%)" offset="0.75"/><stop stop-opacity="1" stop-color="rgb(29.512024%, 56.163025%, 97.555542%)" offset="0.757812"/><stop stop-opacity="1" stop-color="rgb(29.573059%, 55.966187%, 97.610474%)" offset="0.765625"/><stop stop-opacity="1" stop-color="rgb(29.664612%, 55.673218%, 97.692871%)" offset="0.78125"/><stop stop-opacity="1" stop-color="rgb(29.756165%, 55.378723%, 97.775269%)" offset="0.789062"/><stop stop-opacity="1" stop-color="rgb(29.8172%, 55.183411%, 97.828674%)" offset="0.796875"/><stop stop-opacity="1" stop-color="rgb(29.878235%, 54.986572%, 97.883606%)" offset="0.804688"/><stop stop-opacity="1" stop-color="rgb(29.93927%, 54.79126%, 97.938538%)" offset="0.8125"/><stop stop-opacity="1" stop-color="rgb(30.000305%, 54.594421%, 97.993469%)" offset="0.820312"/><stop stop-opacity="1" stop-color="rgb(30.06134%, 54.399109%, 98.048401%)" offset="0.828125"/><stop stop-opacity="1" stop-color="rgb(30.122375%, 54.203796%, 98.101807%)" offset="0.835937"/><stop stop-opacity="1" stop-color="rgb(30.183411%, 54.006958%, 98.156738%)" offset="0.84375"/><stop stop-opacity="1" stop-color="rgb(30.244446%, 53.811646%, 98.21167%)" offset="0.851562"/><stop stop-opacity="1" stop-color="rgb(30.305481%, 53.614807%, 98.266602%)" offset="0.859375"/><stop stop-opacity="1" stop-color="rgb(30.366516%, 53.419495%, 98.321533%)" offset="0.867188"/><stop stop-opacity="1" stop-color="rgb(30.427551%, 53.222656%, 98.376465%)" offset="0.875"/><stop stop-opacity="1" stop-color="rgb(30.519104%, 52.929688%, 98.457336%)" offset="0.890625"/><stop stop-opacity="1" stop-color="rgb(30.610657%, 52.635193%, 98.539734%)" offset="0.898438"/><stop stop-opacity="1" stop-color="rgb(30.671692%, 52.43988%, 98.594666%)" offset="0.90625"/><stop stop-opacity="1" stop-color="rgb(30.732727%, 52.243042%, 98.649597%)" offset="0.914062"/><stop stop-opacity="1" stop-color="rgb(30.793762%, 52.047729%, 98.703003%)" offset="0.921875"/><stop stop-opacity="1" stop-color="rgb(30.854797%, 51.850891%, 98.757935%)" offset="0.929688"/><stop stop-opacity="1" stop-color="rgb(30.915833%, 51.655579%, 98.812866%)" offset="0.9375"/><stop stop-opacity="1" stop-color="rgb(30.976868%, 51.460266%, 98.867798%)" offset="0.945312"/><stop stop-opacity="1" stop-color="rgb(31.037903%, 51.263428%, 98.922729%)" offset="0.953125"/><stop stop-opacity="1" stop-color="rgb(31.098938%, 51.068115%, 98.976135%)" offset="0.960937"/><stop stop-opacity="1" stop-color="rgb(31.159973%, 50.871277%, 99.031067%)" offset="0.96875"/><stop stop-opacity="1" stop-color="rgb(31.221008%, 50.675964%, 99.085999%)" offset="0.976562"/><stop stop-opacity="1" stop-color="rgb(31.282043%, 50.479126%, 99.14093%)" offset="0.984375"/><stop stop-opacity="1" stop-color="rgb(31.340027%, 50.289917%, 99.19281%)" offset="1"/></linearGradient><clipPath id="b15b5fdf45"><path d="M 207 206 L 211 206 L 211 209.335938 L 207 209.335938 Z M 207 206 " clip-rule="nonzero"/></clipPath><clipPath id="0ef5e385d9"><path d="M 207 203 L 213.988281 203 L 213.988281 209.335938 L 207 209.335938 Z M 207 203 " clip-rule="nonzero"/></clipPath><clipPath id="cea610d851"><path d="M 207.984375 209.207031 C 207.984375 208.808594 208.03125 207.492188 208.675781 206.207031 C 208.882812 205.800781 209.144531 205.398438 209.484375 205.03125 C 210.367188 204.074219 211.769531 203.339844 213.984375 203.339844 L 213.984375 205.585938 C 212.351562 205.585938 211.160156 205.835938 210.292969 206.207031 C 209.984375 206.339844 209.71875 206.484375 209.484375 206.640625 C 208.121094 207.566406 207.992188 208.816406 207.984375 209.207031 Z M 207.984375 209.207031 " clip-rule="nonzero"/></clipPath><linearGradient x1="167.431932" gradientTransform="matrix(-0.0249488, 0, 0, -0.0249079, 218.162839, 205.331845)" y1="-37.771" x2="408.041945" gradientUnits="userSpaceOnUse" y2="-37.771" id="47f242dca7"><stop stop-opacity="1" stop-color="rgb(23.919678%, 74.119568%, 92.549133%)" offset="0"/><stop stop-opacity="1" stop-color="rgb(23.919678%, 74.119568%, 92.549133%)" offset="0.03125"/><stop stop-opacity="1" stop-color="rgb(23.953247%, 74.009705%, 92.579651%)" offset="0.046875"/><stop stop-opacity="1" stop-color="rgb(24.01886%, 73.800659%, 92.637634%)" offset="0.0546875"/><stop stop-opacity="1" stop-color="rgb(24.079895%, 73.605347%, 92.692566%)" offset="0.0625"/><stop stop-opacity="1" stop-color="rgb(24.14093%, 73.408508%, 92.747498%)" offset="0.0703125"/><stop stop-opacity="1" stop-color="rgb(24.201965%, 73.213196%, 92.802429%)" offset="0.078125"/><stop stop-opacity="1" stop-color="rgb(24.263%, 73.016357%, 92.855835%)" offset="0.0859375"/><stop stop-opacity="1" stop-color="rgb(24.324036%, 72.821045%, 92.910767%)" offset="0.09375"/><stop stop-opacity="1" stop-color="rgb(24.385071%, 72.625732%, 92.965698%)" offset="0.101562"/><stop stop-opacity="1" stop-color="rgb(24.446106%, 72.428894%, 93.02063%)" offset="0.109375"/><stop stop-opacity="1" stop-color="rgb(24.507141%, 72.233582%, 93.075562%)" offset="0.117188"/><stop stop-opacity="1" stop-color="rgb(24.568176%, 72.036743%, 93.128967%)" offset="0.125"/><stop stop-opacity="1" stop-color="rgb(24.629211%, 71.841431%, 93.183899%)" offset="0.132812"/><stop stop-opacity="1" stop-color="rgb(24.690247%, 71.644592%, 93.238831%)" offset="0.140625"/><stop stop-opacity="1" stop-color="rgb(24.751282%, 71.44928%, 93.293762%)" offset="0.148438"/><stop stop-opacity="1" stop-color="rgb(24.812317%, 71.252441%, 93.348694%)" offset="0.15625"/><stop stop-opacity="1" stop-color="rgb(24.90387%, 70.959473%, 93.429565%)" offset="0.171875"/><stop stop-opacity="1" stop-color="rgb(24.995422%, 70.664978%, 93.511963%)" offset="0.179687"/><stop stop-opacity="1" stop-color="rgb(25.056458%, 70.469666%, 93.566895%)" offset="0.1875"/><stop stop-opacity="1" stop-color="rgb(25.117493%, 70.272827%, 93.621826%)" offset="0.195312"/><stop stop-opacity="1" stop-color="rgb(25.178528%, 70.077515%, 93.676758%)" offset="0.203125"/><stop stop-opacity="1" stop-color="rgb(25.239563%, 69.880676%, 93.730164%)" offset="0.210938"/><stop stop-opacity="1" stop-color="rgb(25.300598%, 69.685364%, 93.785095%)" offset="0.21875"/><stop stop-opacity="1" stop-color="rgb(25.361633%, 69.490051%, 93.840027%)" offset="0.226562"/><stop stop-opacity="1" stop-color="rgb(25.422668%, 69.293213%, 93.894958%)" offset="0.234375"/><stop stop-opacity="1" stop-color="rgb(25.483704%, 69.0979%, 93.94989%)" offset="0.242188"/><stop stop-opacity="1" stop-color="rgb(25.544739%, 68.901062%, 94.003296%)" offset="0.25"/><stop stop-opacity="1" stop-color="rgb(25.605774%, 68.70575%, 94.058228%)" offset="0.257812"/><stop stop-opacity="1" stop-color="rgb(25.666809%, 68.508911%, 94.113159%)" offset="0.265625"/><stop stop-opacity="1" stop-color="rgb(25.727844%, 68.313599%, 94.168091%)" offset="0.273438"/><stop stop-opacity="1" stop-color="rgb(25.788879%, 68.11676%, 94.223022%)" offset="0.28125"/><stop stop-opacity="1" stop-color="rgb(25.880432%, 67.823792%, 94.303894%)" offset="0.296875"/><stop stop-opacity="1" stop-color="rgb(25.971985%, 67.529297%, 94.386292%)" offset="0.304688"/><stop stop-opacity="1" stop-color="rgb(26.03302%, 67.333984%, 94.441223%)" offset="0.3125"/><stop stop-opacity="1" stop-color="rgb(26.094055%, 67.137146%, 94.496155%)" offset="0.320312"/><stop stop-opacity="1" stop-color="rgb(26.15509%, 66.941833%, 94.551086%)" offset="0.328125"/><stop stop-opacity="1" stop-color="rgb(26.216125%, 66.744995%, 94.604492%)" offset="0.335937"/><stop stop-opacity="1" stop-color="rgb(26.277161%, 66.549683%, 94.659424%)" offset="0.34375"/><stop stop-opacity="1" stop-color="rgb(26.338196%, 66.35437%, 94.714355%)" offset="0.351562"/><stop stop-opacity="1" stop-color="rgb(26.399231%, 66.157532%, 94.769287%)" offset="0.359375"/><stop stop-opacity="1" stop-color="rgb(26.460266%, 65.962219%, 94.824219%)" offset="0.367188"/><stop stop-opacity="1" stop-color="rgb(26.521301%, 65.765381%, 94.877625%)" offset="0.375"/><stop stop-opacity="1" stop-color="rgb(26.582336%, 65.570068%, 94.932556%)" offset="0.382812"/><stop stop-opacity="1" stop-color="rgb(26.643372%, 65.37323%, 94.987488%)" offset="0.390625"/><stop stop-opacity="1" stop-color="rgb(26.704407%, 65.177917%, 95.042419%)" offset="0.398438"/><stop stop-opacity="1" stop-color="rgb(26.765442%, 64.981079%, 95.097351%)" offset="0.40625"/><stop stop-opacity="1" stop-color="rgb(26.856995%, 64.68811%, 95.178223%)" offset="0.421875"/><stop stop-opacity="1" stop-color="rgb(26.948547%, 64.393616%, 95.26062%)" offset="0.429688"/><stop stop-opacity="1" stop-color="rgb(27.009583%, 64.198303%, 95.315552%)" offset="0.4375"/><stop stop-opacity="1" stop-color="rgb(27.070618%, 64.001465%, 95.370483%)" offset="0.445312"/><stop stop-opacity="1" stop-color="rgb(27.131653%, 63.806152%, 95.425415%)" offset="0.453125"/><stop stop-opacity="1" stop-color="rgb(27.192688%, 63.609314%, 95.478821%)" offset="0.460937"/><stop stop-opacity="1" stop-color="rgb(27.253723%, 63.414001%, 95.533752%)" offset="0.46875"/><stop stop-opacity="1" stop-color="rgb(27.314758%, 63.218689%, 95.588684%)" offset="0.476562"/><stop stop-opacity="1" stop-color="rgb(27.375793%, 63.021851%, 95.643616%)" offset="0.484375"/><stop stop-opacity="1" stop-color="rgb(27.436829%, 62.826538%, 95.698547%)" offset="0.492188"/><stop stop-opacity="1" stop-color="rgb(27.497864%, 62.6297%, 95.753479%)" offset="0.5"/><stop stop-opacity="1" stop-color="rgb(27.558899%, 62.434387%, 95.806885%)" offset="0.507812"/><stop stop-opacity="1" stop-color="rgb(27.619934%, 62.237549%, 95.861816%)" offset="0.515625"/><stop stop-opacity="1" stop-color="rgb(27.680969%, 62.042236%, 95.916748%)" offset="0.523438"/><stop stop-opacity="1" stop-color="rgb(27.742004%, 61.845398%, 95.97168%)" offset="0.53125"/><stop stop-opacity="1" stop-color="rgb(27.833557%, 61.552429%, 96.052551%)" offset="0.546875"/><stop stop-opacity="1" stop-color="rgb(27.92511%, 61.257935%, 96.134949%)" offset="0.554688"/><stop stop-opacity="1" stop-color="rgb(27.986145%, 61.062622%, 96.18988%)" offset="0.5625"/><stop stop-opacity="1" stop-color="rgb(28.04718%, 60.865784%, 96.244812%)" offset="0.570313"/><stop stop-opacity="1" stop-color="rgb(28.108215%, 60.670471%, 96.299744%)" offset="0.578125"/><stop stop-opacity="1" stop-color="rgb(28.16925%, 60.473633%, 96.353149%)" offset="0.585938"/><stop stop-opacity="1" stop-color="rgb(28.230286%, 60.27832%, 96.408081%)" offset="0.59375"/><stop stop-opacity="1" stop-color="rgb(28.291321%, 60.081482%, 96.463013%)" offset="0.601563"/><stop stop-opacity="1" stop-color="rgb(28.352356%, 59.886169%, 96.517944%)" offset="0.609375"/><stop stop-opacity="1" stop-color="rgb(28.413391%, 59.690857%, 96.572876%)" offset="0.617188"/><stop stop-opacity="1" stop-color="rgb(28.474426%, 59.494019%, 96.627808%)" offset="0.625"/><stop stop-opacity="1" stop-color="rgb(28.535461%, 59.298706%, 96.681213%)" offset="0.632812"/><stop stop-opacity="1" stop-color="rgb(28.596497%, 59.101868%, 96.736145%)" offset="0.640625"/><stop stop-opacity="1" stop-color="rgb(28.657532%, 58.906555%, 96.791077%)" offset="0.648437"/><stop stop-opacity="1" stop-color="rgb(28.718567%, 58.709717%, 96.846008%)" offset="0.65625"/><stop stop-opacity="1" stop-color="rgb(28.81012%, 58.416748%, 96.92688%)" offset="0.671875"/><stop stop-opacity="1" stop-color="rgb(28.901672%, 58.122253%, 97.009277%)" offset="0.679687"/><stop stop-opacity="1" stop-color="rgb(28.962708%, 57.926941%, 97.064209%)" offset="0.6875"/><stop stop-opacity="1" stop-color="rgb(29.023743%, 57.730103%, 97.119141%)" offset="0.695312"/><stop stop-opacity="1" stop-color="rgb(29.084778%, 57.53479%, 97.174072%)" offset="0.703125"/><stop stop-opacity="1" stop-color="rgb(29.145813%, 57.337952%, 97.229004%)" offset="0.710938"/><stop stop-opacity="1" stop-color="rgb(29.206848%, 57.142639%, 97.28241%)" offset="0.71875"/><stop stop-opacity="1" stop-color="rgb(29.267883%, 56.945801%, 97.337341%)" offset="0.726562"/><stop stop-opacity="1" stop-color="rgb(29.328918%, 56.750488%, 97.392273%)" offset="0.734375"/><stop stop-opacity="1" stop-color="rgb(29.389954%, 56.555176%, 97.447205%)" offset="0.742188"/><stop stop-opacity="1" stop-color="rgb(29.450989%, 56.358337%, 97.502136%)" offset="0.75"/><stop stop-opacity="1" stop-color="rgb(29.512024%, 56.163025%, 97.555542%)" offset="0.757812"/><stop stop-opacity="1" stop-color="rgb(29.573059%, 55.966187%, 97.610474%)" offset="0.765625"/><stop stop-opacity="1" stop-color="rgb(29.634094%, 55.770874%, 97.665405%)" offset="0.773438"/><stop stop-opacity="1" stop-color="rgb(29.695129%, 55.574036%, 97.720337%)" offset="0.78125"/><stop stop-opacity="1" stop-color="rgb(29.786682%, 55.281067%, 97.801208%)" offset="0.796875"/><stop stop-opacity="1" stop-color="rgb(29.878235%, 54.986572%, 97.883606%)" offset="0.804688"/><stop stop-opacity="1" stop-color="rgb(29.93927%, 54.79126%, 97.938538%)" offset="0.8125"/><stop stop-opacity="1" stop-color="rgb(30.000305%, 54.594421%, 97.993469%)" offset="0.820313"/><stop stop-opacity="1" stop-color="rgb(30.06134%, 54.399109%, 98.048401%)" offset="0.828125"/><stop stop-opacity="1" stop-color="rgb(30.122375%, 54.202271%, 98.103333%)" offset="0.835938"/><stop stop-opacity="1" stop-color="rgb(30.183411%, 54.006958%, 98.156738%)" offset="0.84375"/><stop stop-opacity="1" stop-color="rgb(30.244446%, 53.81012%, 98.21167%)" offset="0.851563"/><stop stop-opacity="1" stop-color="rgb(30.305481%, 53.614807%, 98.266602%)" offset="0.859375"/><stop stop-opacity="1" stop-color="rgb(30.366516%, 53.419495%, 98.321533%)" offset="0.867188"/><stop stop-opacity="1" stop-color="rgb(30.427551%, 53.222656%, 98.376465%)" offset="0.875"/><stop stop-opacity="1" stop-color="rgb(30.488586%, 53.027344%, 98.429871%)" offset="0.882812"/><stop stop-opacity="1" stop-color="rgb(30.549622%, 52.830505%, 98.484802%)" offset="0.890625"/><stop stop-opacity="1" stop-color="rgb(30.610657%, 52.635193%, 98.539734%)" offset="0.898437"/><stop stop-opacity="1" stop-color="rgb(30.671692%, 52.438354%, 98.594666%)" offset="0.90625"/><stop stop-opacity="1" stop-color="rgb(30.763245%, 52.145386%, 98.675537%)" offset="0.921875"/><stop stop-opacity="1" stop-color="rgb(30.854797%, 51.850891%, 98.757935%)" offset="0.929687"/><stop stop-opacity="1" stop-color="rgb(30.915833%, 51.655579%, 98.812866%)" offset="0.9375"/><stop stop-opacity="1" stop-color="rgb(30.976868%, 51.45874%, 98.867798%)" offset="0.945312"/><stop stop-opacity="1" stop-color="rgb(31.037903%, 51.263428%, 98.922729%)" offset="0.953125"/><stop stop-opacity="1" stop-color="rgb(31.098938%, 51.066589%, 98.977661%)" offset="0.960937"/><stop stop-opacity="1" stop-color="rgb(31.159973%, 50.871277%, 99.031067%)" offset="0.96875"/><stop stop-opacity="1" stop-color="rgb(31.221008%, 50.674438%, 99.085999%)" offset="0.976562"/><stop stop-opacity="1" stop-color="rgb(31.282043%, 50.479126%, 99.14093%)" offset="0.984375"/><stop stop-opacity="1" stop-color="rgb(31.340027%, 50.289917%, 99.19281%)" offset="1"/></linearGradient><clipPath id="98e064fda6"><path d="M 149 119.25 L 185 119.25 L 185 129 L 149 129 Z M 149 119.25 " clip-rule="nonzero"/></clipPath><clipPath id="6d68d60581"><path d="M 144.082031 125 L 189.832031 125 L 189.832031 147 L 144.082031 147 Z M 144.082031 125 " clip-rule="nonzero"/></clipPath></defs><path fill="#f6f6f6" d="M 212.027344 226.867188 C 204.503906 228.300781 193.820312 226.199219 184.746094 223.515625 C 182.636719 222.890625 180.617188 222.234375 178.738281 221.585938 C 173.355469 219.722656 169.183594 217.902344 167.628906 217.007812 C 163.207031 214.457031 158.1875 205.226562 158.1875 205.226562 C 158.867188 203.1875 205.988281 187.597656 205.308594 186.832031 C 204.859375 186.328125 210.988281 189.128906 216.472656 191.472656 C 217.769531 192.023438 219.027344 192.550781 220.15625 193.003906 C 221.519531 193.550781 222.695312 193.988281 223.507812 194.226562 C 227.847656 195.5 231.417969 197.203125 232.695312 206.722656 C 233.96875 216.242188 226.316406 224.148438 212.027344 226.867188 Z M 212.027344 226.867188 " fill-opacity="1" fill-rule="nonzero"/><path fill="#54a3e6" d="M 180.957031 215.0625 L 186.609375 212.363281 C 186.734375 212.304688 186.863281 212.273438 186.996094 212.265625 C 187.132812 212.257812 187.265625 212.277344 187.390625 212.324219 C 187.519531 212.367188 187.632812 212.4375 187.734375 212.527344 C 187.835938 212.617188 187.914062 212.722656 187.972656 212.84375 C 188.03125 212.96875 188.0625 213.09375 188.070312 213.230469 C 188.078125 213.367188 188.058594 213.496094 188.015625 213.625 C 187.96875 213.753906 187.902344 213.867188 187.808594 213.96875 C 187.71875 214.066406 187.613281 214.148438 187.492188 214.207031 L 181.839844 216.90625 C 181.714844 216.964844 181.585938 216.996094 181.453125 217.003906 C 181.316406 217.011719 181.1875 216.992188 181.058594 216.945312 C 180.929688 216.902344 180.816406 216.832031 180.714844 216.742188 C 180.613281 216.652344 180.535156 216.546875 180.476562 216.425781 C 180.417969 216.300781 180.386719 216.171875 180.378906 216.039062 C 180.371094 215.902344 180.390625 215.773438 180.4375 215.644531 C 180.480469 215.515625 180.546875 215.402344 180.640625 215.300781 C 180.730469 215.203125 180.835938 215.121094 180.957031 215.0625 Z M 180.957031 215.0625 " fill-opacity="1" fill-rule="nonzero"/><path fill="#54a3e6" d="M 220.15625 193.003906 C 219.90625 193.523438 219.65625 194.039062 219.398438 194.554688 C 218.453125 196.449219 217.4375 198.308594 216.332031 200.113281 C 215.15625 202.03125 213.871094 203.871094 212.480469 205.640625 C 211.1875 207.289062 209.78125 208.851562 208.253906 210.292969 C 206.585938 211.867188 204.773438 213.289062 202.878906 214.582031 C 201.09375 215.804688 199.21875 216.898438 197.304688 217.90625 C 195.382812 218.914062 193.417969 219.835938 191.429688 220.707031 C 189.292969 221.644531 187.136719 222.535156 184.972656 223.421875 C 184.898438 223.453125 184.820312 223.484375 184.746094 223.515625 C 182.636719 222.890625 180.617188 222.234375 178.738281 221.585938 C 179.84375 221.199219 180.9375 220.773438 182.023438 220.339844 C 183.796875 219.625 185.5625 218.898438 187.324219 218.160156 C 188.480469 217.667969 189.636719 217.167969 190.78125 216.648438 C 192.921875 215.675781 195.039062 214.636719 197.085938 213.476562 C 199.039062 212.375 200.929688 211.160156 202.714844 209.800781 C 203.273438 209.363281 203.820312 208.910156 204.355469 208.445312 C 206.320312 206.726562 208.101562 204.804688 209.707031 202.75 C 209.710938 202.746094 209.714844 202.742188 209.71875 202.738281 C 210.535156 201.667969 211.304688 200.566406 212.039062 199.4375 C 213.433594 197.289062 214.6875 195.046875 215.835938 192.757812 C 216.050781 192.332031 216.265625 191.902344 216.472656 191.472656 C 217.769531 192.023438 219.027344 192.550781 220.15625 193.003906 Z M 220.15625 193.003906 " fill-opacity="1" fill-rule="nonzero"/><g clip-path="url(#95f57d9cc4)"><path fill="#54a3e6" d="M 123.695312 160.285156 C 123.425781 160.183594 119.792969 157.824219 115.972656 161.136719 C 112.152344 164.449219 111.097656 176.351562 114.960938 183.304688 C 118.820312 190.261719 125.738281 186.574219 125.726562 186.167969 C 125.714844 185.761719 123.695312 160.285156 123.695312 160.285156 Z M 123.695312 160.285156 " fill-opacity="1" fill-rule="nonzero"/></g><path fill="#f6f6f6" d="M 121.148438 160.210938 C 120.949219 160.417969 115.253906 164.804688 116.511719 175.042969 C 117.773438 185.277344 121.882812 187.9375 127.3125 185.972656 C 132.742188 184.007812 132.394531 172.75 131.5 168.792969 C 130.601562 164.839844 127.910156 162.675781 127.910156 162.675781 L 130.070312 144.488281 L 126.25 143.476562 Z M 121.148438 160.210938 " fill-opacity="1" fill-rule="nonzero"/><path fill="#f6f6f6" d="M 131.394531 138.863281 C 131.738281 139.210938 132.007812 139.609375 132.195312 140.0625 C 132.382812 140.515625 132.476562 140.988281 132.476562 141.476562 C 132.476562 141.96875 132.382812 142.441406 132.195312 142.894531 C 132.007812 143.347656 131.738281 143.746094 131.394531 144.09375 C 131.046875 144.441406 130.644531 144.707031 130.191406 144.894531 C 129.738281 145.082031 129.265625 145.175781 128.777344 145.175781 C 128.285156 145.175781 127.8125 145.082031 127.359375 144.894531 C 126.90625 144.707031 126.507812 144.441406 126.160156 144.09375 C 125.8125 143.746094 125.546875 143.347656 125.355469 142.894531 C 125.167969 142.441406 125.074219 141.96875 125.074219 141.476562 C 125.074219 140.988281 125.167969 140.515625 125.355469 140.0625 C 125.546875 139.609375 125.8125 139.210938 126.160156 138.863281 C 126.507812 138.515625 126.90625 138.25 127.359375 138.058594 C 127.8125 137.871094 128.285156 137.777344 128.777344 137.777344 C 129.265625 137.777344 129.738281 137.871094 130.191406 138.058594 C 130.644531 138.25 131.046875 138.515625 131.394531 138.863281 Z M 131.394531 138.863281 " fill-opacity="1" fill-rule="nonzero"/><path fill="#4ac95b" d="M 206.082031 158.101562 C 206.136719 158.085938 206.117188 158 206.058594 158.011719 C 206.003906 158.023438 206.023438 158.113281 206.082031 158.101562 Z M 206.082031 158.101562 " fill-opacity="1" fill-rule="nonzero"/><path fill="#f6f6f6" d="M 128.109375 194.164062 C 128.101562 194.152344 128.042969 194.019531 127.949219 193.777344 C 126.648438 190.390625 118.339844 165.636719 133.75 148.957031 C 150.261719 131.082031 177.285156 131.269531 193.265625 140.808594 C 209.246094 150.347656 218.074219 175.863281 204.207031 192.921875 C 190.339844 209.980469 157.246094 210.59375 146.332031 208.308594 C 130.109375 204.914062 128.109375 194.164062 128.109375 194.164062 Z M 128.109375 194.164062 " fill-opacity="1" fill-rule="nonzero"/><path fill="#1e1915" d="M 130.539062 193.832031 C 128.035156 189.507812 122.535156 164.761719 133.304688 158.519531 C 144.074219 152.273438 174.066406 148.746094 181.347656 155.90625 C 188.628906 163.066406 191.605469 190.121094 180.660156 196.078125 C 169.714844 202.035156 138.335938 207.304688 130.539062 193.832031 Z M 130.539062 193.832031 " fill-opacity="1" fill-rule="nonzero"/><path fill="#54a3e6" d="M 151.683594 188.785156 C 151.957031 188.46875 152.242188 188.164062 152.546875 187.878906 C 152.703125 187.734375 152.859375 187.589844 153.023438 187.453125 C 153.097656 187.390625 153.171875 187.328125 153.25 187.269531 C 153.289062 187.238281 153.328125 187.207031 153.367188 187.175781 C 153.425781 187.128906 153.328125 187.207031 153.324219 187.207031 C 153.351562 187.195312 153.378906 187.167969 153.402344 187.148438 C 154.070312 186.644531 154.785156 186.214844 155.539062 185.855469 C 155.636719 185.808594 155.730469 185.761719 155.828125 185.71875 C 155.875 185.699219 155.917969 185.679688 155.964844 185.660156 C 155.984375 185.652344 156.011719 185.644531 156.03125 185.632812 C 155.996094 185.65625 155.921875 185.675781 156.003906 185.644531 C 156.195312 185.566406 156.382812 185.492188 156.578125 185.421875 C 156.96875 185.28125 157.371094 185.160156 157.773438 185.058594 C 158.179688 184.957031 158.605469 184.871094 159.027344 184.808594 C 159.050781 184.804688 159.074219 184.804688 159.101562 184.800781 C 159.179688 184.789062 159.042969 184.808594 159.039062 184.808594 C 159.089844 184.804688 159.136719 184.796875 159.1875 184.789062 C 159.292969 184.777344 159.398438 184.765625 159.503906 184.753906 C 159.714844 184.734375 159.925781 184.722656 160.140625 184.714844 C 160.605469 184.695312 161.070312 184.703125 161.535156 184.738281 C 161.648438 184.746094 161.765625 184.753906 161.878906 184.769531 C 161.933594 184.773438 161.992188 184.78125 162.050781 184.785156 C 162.074219 184.789062 162.097656 184.792969 162.121094 184.796875 C 162.210938 184.808594 162.128906 184.800781 162.085938 184.792969 C 162.320312 184.851562 162.574219 184.867188 162.8125 184.917969 C 163.160156 184.988281 163.566406 184.816406 163.652344 184.441406 C 163.730469 184.101562 163.550781 183.675781 163.175781 183.601562 C 161.386719 183.238281 159.550781 183.265625 157.769531 183.660156 C 156.058594 184.035156 154.398438 184.761719 152.96875 185.78125 C 152.144531 186.371094 151.378906 187.046875 150.71875 187.820312 C 150.484375 188.089844 150.433594 188.519531 150.71875 188.785156 C 150.972656 189.015625 151.433594 189.070312 151.683594 188.785156 Z M 151.683594 188.785156 " fill-opacity="1" fill-rule="nonzero"/><path fill="#54a3e6" d="M 167.140625 164.5625 C 167.519531 164.574219 167.894531 164.636719 168.261719 164.746094 C 168.632812 164.859375 168.988281 165.019531 169.332031 165.230469 C 169.675781 165.4375 170.003906 165.691406 170.308594 165.992188 C 170.617188 166.289062 170.898438 166.628906 171.15625 167.003906 C 171.414062 167.378906 171.640625 167.789062 171.839844 168.230469 C 172.039062 168.667969 172.203125 169.132812 172.335938 169.617188 C 172.464844 170.101562 172.5625 170.601562 172.621094 171.117188 C 172.679688 171.628906 172.703125 172.148438 172.6875 172.671875 C 172.675781 173.191406 172.621094 173.707031 172.535156 174.21875 C 172.445312 174.726562 172.324219 175.21875 172.164062 175.699219 C 172.007812 176.175781 171.816406 176.628906 171.59375 177.058594 C 171.371094 177.484375 171.121094 177.878906 170.84375 178.242188 C 170.5625 178.601562 170.261719 178.925781 169.941406 179.203125 C 169.617188 179.484375 169.277344 179.722656 168.921875 179.910156 C 168.566406 180.101562 168.203125 180.242188 167.828125 180.332031 C 167.453125 180.425781 167.078125 180.464844 166.699219 180.453125 C 166.320312 180.445312 165.945312 180.382812 165.578125 180.269531 C 165.207031 180.160156 164.851562 179.996094 164.507812 179.789062 C 164.164062 179.578125 163.835938 179.324219 163.53125 179.027344 C 163.222656 178.726562 162.941406 178.390625 162.683594 178.011719 C 162.425781 177.636719 162.199219 177.230469 162 176.789062 C 161.800781 176.351562 161.636719 175.886719 161.507812 175.402344 C 161.375 174.914062 161.277344 174.414062 161.21875 173.902344 C 161.160156 173.386719 161.136719 172.871094 161.152344 172.347656 C 161.167969 171.828125 161.21875 171.308594 161.304688 170.800781 C 161.394531 170.292969 161.519531 169.796875 161.675781 169.320312 C 161.835938 168.839844 162.023438 168.386719 162.246094 167.960938 C 162.46875 167.53125 162.71875 167.136719 163 166.777344 C 163.277344 166.414062 163.578125 166.09375 163.898438 165.8125 C 164.222656 165.53125 164.5625 165.296875 164.917969 165.105469 C 165.273438 164.917969 165.636719 164.777344 166.011719 164.683594 C 166.386719 164.59375 166.765625 164.554688 167.140625 164.5625 Z M 167.140625 164.5625 " fill-opacity="1" fill-rule="nonzero"/><path fill="#54a3e6" d="M 146.265625 174.71875 C 146.304688 175.242188 146.304688 175.757812 146.269531 176.273438 C 146.234375 176.789062 146.164062 177.292969 146.058594 177.785156 C 145.953125 178.277344 145.8125 178.746094 145.640625 179.195312 C 145.46875 179.640625 145.261719 180.058594 145.03125 180.445312 C 144.796875 180.832031 144.535156 181.183594 144.25 181.492188 C 143.964844 181.804688 143.660156 182.074219 143.332031 182.296875 C 143.007812 182.519531 142.667969 182.695312 142.3125 182.824219 C 141.957031 182.953125 141.597656 183.03125 141.226562 183.058594 C 140.859375 183.085938 140.488281 183.058594 140.121094 182.984375 C 139.75 182.910156 139.390625 182.785156 139.035156 182.609375 C 138.679688 182.4375 138.335938 182.214844 138.007812 181.949219 C 137.679688 181.683594 137.375 181.375 137.085938 181.023438 C 136.796875 180.675781 136.535156 180.292969 136.300781 179.875 C 136.0625 179.457031 135.855469 179.011719 135.679688 178.542969 C 135.503906 178.070312 135.363281 177.582031 135.253906 177.078125 C 135.144531 176.574219 135.070312 176.058594 135.03125 175.539062 C 134.992188 175.019531 134.992188 174.5 135.027344 173.984375 C 135.0625 173.46875 135.132812 172.964844 135.238281 172.472656 C 135.34375 171.984375 135.484375 171.511719 135.65625 171.066406 C 135.832031 170.617188 136.035156 170.199219 136.269531 169.8125 C 136.5 169.425781 136.761719 169.078125 137.046875 168.765625 C 137.332031 168.453125 137.636719 168.1875 137.964844 167.960938 C 138.292969 167.738281 138.632812 167.5625 138.984375 167.433594 C 139.339844 167.304688 139.703125 167.230469 140.070312 167.203125 C 140.4375 167.175781 140.808594 167.199219 141.175781 167.273438 C 141.546875 167.347656 141.910156 167.472656 142.265625 167.648438 C 142.621094 167.824219 142.960938 168.042969 143.289062 168.3125 C 143.617188 168.578125 143.925781 168.886719 144.210938 169.234375 C 144.5 169.582031 144.761719 169.96875 144.996094 170.386719 C 145.234375 170.804688 145.441406 171.246094 145.617188 171.71875 C 145.792969 172.1875 145.9375 172.675781 146.046875 173.179688 C 146.152344 173.6875 146.226562 174.199219 146.265625 174.71875 Z M 146.265625 174.71875 " fill-opacity="1" fill-rule="nonzero"/><path fill="#1e1915" d="M 134.203125 168.839844 C 134.65625 168.953125 147.8125 175.980469 147.8125 175.980469 C 147.8125 175.980469 150.875 166.457031 143.277344 164.871094 C 135.679688 163.285156 134.203125 168.839844 134.203125 168.839844 Z M 134.203125 168.839844 " fill-opacity="1" fill-rule="nonzero"/><path fill="#54a3e6" d="M 208.714844 157.128906 C 208.449219 157.027344 204.8125 154.671875 200.992188 157.980469 C 197.175781 161.292969 196.117188 173.195312 199.980469 180.148438 C 203.839844 187.105469 210.757812 183.417969 210.746094 183.011719 C 210.738281 182.609375 208.714844 157.128906 208.714844 157.128906 Z M 208.714844 157.128906 " fill-opacity="1" fill-rule="nonzero"/><path fill="#f6f6f6" d="M 206.167969 157.054688 C 205.972656 157.261719 200.273438 161.652344 201.535156 171.886719 C 202.792969 182.125 206.90625 184.78125 212.335938 182.816406 C 217.765625 180.855469 217.417969 169.597656 216.519531 165.640625 C 215.625 161.683594 212.929688 159.519531 212.929688 159.519531 L 215.089844 141.332031 L 211.273438 140.324219 Z M 206.167969 157.054688 " fill-opacity="1" fill-rule="nonzero"/><path fill="#f6f6f6" d="M 216.414062 135.707031 C 216.761719 136.054688 217.027344 136.453125 217.214844 136.90625 C 217.402344 137.359375 217.496094 137.832031 217.496094 138.324219 C 217.496094 138.8125 217.402344 139.285156 217.214844 139.738281 C 217.027344 140.191406 216.761719 140.589844 216.414062 140.9375 C 216.066406 141.285156 215.667969 141.550781 215.214844 141.742188 C 214.761719 141.929688 214.289062 142.023438 213.796875 142.023438 C 213.304688 142.023438 212.835938 141.929688 212.378906 141.742188 C 211.925781 141.550781 211.527344 141.285156 211.179688 140.9375 C 210.832031 140.589844 210.566406 140.191406 210.378906 139.738281 C 210.191406 139.285156 210.097656 138.8125 210.097656 138.324219 C 210.097656 137.832031 210.191406 137.359375 210.378906 136.90625 C 210.566406 136.453125 210.832031 136.054688 211.179688 135.707031 C 211.527344 135.359375 211.925781 135.09375 212.378906 134.90625 C 212.835938 134.71875 213.304688 134.625 213.796875 134.625 C 214.289062 134.625 214.761719 134.71875 215.214844 134.90625 C 215.667969 135.09375 216.066406 135.359375 216.414062 135.707031 Z M 216.414062 135.707031 " fill-opacity="1" fill-rule="nonzero"/><path fill="#f6f6f6" d="M 227.421875 238.855469 L 226.488281 239.0625 C 226.074219 239.152344 225.652344 239.199219 225.226562 239.195312 C 222.464844 239.167969 211.976562 238.835938 211.089844 235.371094 C 210.074219 231.394531 213.519531 224.5625 209.539062 218.132812 C 209.519531 218.097656 209.496094 218.0625 209.472656 218.027344 C 208.917969 217.148438 208.316406 216.363281 207.6875 215.664062 C 205.148438 212.828125 202.210938 211.390625 200.421875 210.71875 C 199.039062 210.203125 197.917969 209.167969 197.296875 207.828125 C 196.070312 205.175781 195.003906 200.957031 198.164062 198.648438 C 202.925781 195.160156 212.195312 193.375 220.617188 203.492188 C 223.046875 206.410156 224.796875 208.945312 226.074219 211.210938 C 226.660156 212.25 227.144531 213.226562 227.554688 214.160156 C 229.339844 218.253906 229.613281 221.457031 230.058594 224.660156 C 230.824219 230.183594 228.953125 238.515625 227.421875 238.855469 Z M 227.421875 238.855469 " fill-opacity="1" fill-rule="nonzero"/><path fill="#54a3e6" d="M 227.554688 214.160156 C 225.898438 214.214844 224.246094 214.351562 222.605469 214.5625 C 221.644531 214.695312 220.683594 214.855469 219.730469 215.042969 C 216.246094 215.722656 212.835938 216.757812 209.558594 218.125 C 209.550781 218.128906 209.546875 218.128906 209.539062 218.132812 C 209.519531 218.097656 209.496094 218.0625 209.472656 218.027344 C 208.917969 217.148438 208.316406 216.363281 207.6875 215.664062 C 209.992188 214.652344 212.367188 213.792969 214.789062 213.113281 C 217.644531 212.3125 220.5625 211.765625 223.507812 211.433594 C 224.359375 211.339844 225.214844 211.265625 226.074219 211.210938 C 226.660156 212.25 227.144531 213.226562 227.554688 214.160156 Z M 227.554688 214.160156 " fill-opacity="1" fill-rule="nonzero"/><path fill="#f6f6f6" d="M 159.890625 217.859375 C 159.613281 218.324219 159.363281 218.792969 159.136719 219.257812 C 158.683594 220.199219 158.324219 221.136719 158.039062 222.058594 C 156.386719 227.414062 157.226562 232.253906 155.808594 234.347656 C 154.019531 236.984375 139.816406 237.917969 140.074219 225.933594 C 140.136719 222.972656 140.484375 220.320312 141.03125 217.976562 C 141.273438 216.941406 141.554688 215.964844 141.867188 215.054688 C 143.710938 209.664062 146.652344 206.402344 149.171875 205.363281 C 153.085938 203.746094 175.878906 206.46875 177.324219 209.1875 C 177.75 209.984375 163.972656 210.972656 159.890625 217.859375 Z M 159.890625 217.859375 " fill-opacity="1" fill-rule="nonzero"/><path fill="#f6f6f6" d="M 134.757812 237.113281 C 134.757812 237.113281 134.925781 232.777344 137.265625 231.417969 C 139.605469 230.054688 141.433594 232.648438 141.433594 232.648438 C 141.433594 232.648438 142.582031 230.734375 145.089844 230.652344 C 147.597656 230.566406 148.789062 232.777344 148.746094 232.945312 C 148.703125 233.117188 150.066406 230.3125 153.042969 231.246094 C 156.019531 232.179688 156.0625 236.941406 154.488281 239.152344 C 152.914062 241.363281 148.664062 240.597656 148.28125 238.472656 C 148.28125 238.472656 147.089844 240.511719 144.664062 240.382812 C 142.242188 240.257812 141.519531 238.515625 141.519531 238.515625 C 141.519531 238.515625 140.074219 240.171875 137.605469 240 C 135.140625 239.832031 134.628906 237.621094 134.757812 237.113281 Z M 134.757812 237.113281 " fill-opacity="1" fill-rule="nonzero"/><path stroke-linecap="round" transform="matrix(0.032485, 0, 0, 0.0324675, 104.632322, 102.106692)" fill="none" stroke-linejoin="round" d="M 1004.564488 3982.787608 C 1076.592869 3940.918855 1132.868799 4020.686048 1132.868799 4020.686048 C 1132.868799 4020.686048 1168.221627 3961.853231 1245.420659 3959.206356 C 1322.619691 3956.559481 1359.295244 4024.656361 1357.972519 4029.829799 C 1356.649794 4035.123549 1398.616246 3948.739168 1490.245004 3977.493858 C 1490.245004 3977.493858 1562.273385 4011.542298 1558.30521 4120.184493 " stroke="#1e1915" stroke-width="18" stroke-opacity="1" stroke-miterlimit="4"/><g clip-path="url(#d2bbb6cb87)"><path fill="#f6f6f6" d="M 260.761719 231.96875 C 258.976562 235.792969 249.703125 236.21875 245.875 234.09375 C 242.050781 231.96875 245.792969 228.230469 245.707031 227.71875 C 245.65625 227.40625 245.09375 227.253906 243.328125 227.027344 C 242.554688 226.929688 241.546875 226.8125 240.246094 226.667969 C 239.664062 226.601562 239.015625 226.527344 238.308594 226.445312 C 232.4375 225.765625 226.308594 221.359375 225.632812 220.664062 C 222.828125 217.773438 229.375 203.917969 229.375 203.917969 C 229.375 203.917969 231.757812 205.871094 238.308594 208.507812 C 239.839844 209.125 241.675781 209.699219 243.636719 210.25 C 244.601562 210.519531 245.59375 210.78125 246.59375 211.042969 C 252.265625 212.519531 258.175781 213.871094 260.335938 215.476562 C 263.652344 217.945312 262.546875 228.144531 260.761719 231.96875 Z M 260.761719 231.96875 " fill-opacity="1" fill-rule="nonzero"/></g><path fill="#f6f6f6" d="M 204.738281 224.660156 C 204.683594 225.226562 202.019531 230.4375 204.171875 232.535156 C 206.328125 234.632812 213.414062 235.257812 213.925781 234.121094 C 214.4375 232.988281 215.570312 224.941406 214.832031 224.488281 C 214.097656 224.035156 204.738281 224.660156 204.738281 224.660156 Z M 204.738281 224.660156 " fill-opacity="1" fill-rule="nonzero"/><path fill="#1e1915" d="M 203.921875 227.964844 C 205.027344 227.578125 206.152344 227.226562 207.242188 226.792969 C 208.277344 226.382812 209.210938 225.804688 210.003906 225.015625 C 210.1875 224.828125 210.1875 224.511719 210.003906 224.328125 C 209.816406 224.140625 209.5 224.140625 209.3125 224.328125 C 208.617188 225.019531 207.796875 225.539062 206.871094 225.898438 C 205.8125 226.304688 204.730469 226.652344 203.660156 227.027344 C 203.414062 227.113281 203.246094 227.359375 203.320312 227.625 C 203.386719 227.867188 203.671875 228.054688 203.917969 227.964844 Z M 203.921875 227.964844 " fill-opacity="1" fill-rule="nonzero"/><path stroke-linecap="round" transform="matrix(0.032485, 0, 0, 0.0324675, 104.632322, 102.106692)" fill="none" stroke-linejoin="round" d="M 2941.995654 2804.326582 C 3675.145966 2898.531276 3837.480379 3604.404767 3861.048931 3774.646967 " stroke="#1e1915" stroke-width="29" stroke-opacity="1" stroke-miterlimit="4"/><path stroke-linecap="round" transform="matrix(0.032485, 0, 0, 0.0324675, 104.632322, 102.106692)" fill="none" stroke-linejoin="round" d="M 3227.343479 3570.356327 C 3141.005621 3433.561004 3017.390971 3370.998499 2948.729526 3345.251623 C 2906.161835 3329.370371 2871.650742 3297.487556 2852.531355 3256.220366 " stroke="#1e1915" stroke-width="29" stroke-opacity="1" stroke-miterlimit="4"/><g clip-path="url(#b96109a685)"><path fill="#f6f6f6" d="M 205.691406 238.472656 C 205.691406 238.472656 205.859375 234.136719 208.199219 232.777344 C 210.539062 231.417969 212.367188 234.007812 212.367188 234.007812 C 212.367188 234.007812 213.515625 232.097656 216.023438 232.011719 C 218.53125 231.925781 219.722656 234.136719 219.679688 234.304688 C 219.636719 234.476562 221 231.671875 223.976562 232.605469 C 226.953125 233.542969 226.996094 238.300781 225.421875 240.511719 C 223.847656 242.722656 219.59375 241.957031 219.210938 239.832031 C 219.210938 239.832031 218.023438 241.871094 215.597656 241.746094 C 213.175781 241.617188 212.453125 239.875 212.453125 239.875 C 212.453125 239.875 211.003906 241.53125 208.539062 241.363281 C 206.074219 241.191406 205.5625 238.980469 205.691406 238.472656 Z M 205.691406 238.472656 " fill-opacity="1" fill-rule="nonzero"/></g><path stroke-linecap="round" transform="matrix(0.032485, 0, 0, 0.0324675, 104.632322, 102.106692)" fill="none" stroke-linejoin="round" d="M 3188.142724 4024.656361 C 3260.171105 3982.787608 3316.447035 4062.554801 3316.447035 4062.554801 C 3316.447035 4062.554801 3351.799863 4003.721984 3428.998895 4001.075109 C 3506.197928 3998.428234 3542.87348 4066.525114 3541.550756 4071.818865 C 3540.228031 4076.992302 3582.194483 3990.607921 3673.823241 4019.362611 C 3673.823241 4019.362611 3745.851621 4053.411051 3741.883447 4162.053246 " stroke="#1e1915" stroke-width="18" stroke-opacity="1" stroke-miterlimit="4"/><path fill="#54a3e6" d="M 246.59375 211.042969 C 246.574219 211.300781 246.550781 211.558594 246.527344 211.820312 C 246.257812 214.734375 245.859375 217.648438 245.234375 220.511719 C 244.75 222.722656 244.128906 224.90625 243.328125 227.027344 C 242.554688 226.929688 241.546875 226.8125 240.246094 226.667969 C 240.441406 226.171875 240.625 225.675781 240.796875 225.171875 C 241.945312 221.863281 242.679688 218.421875 243.15625 214.953125 C 243.269531 214.097656 243.367188 213.238281 243.453125 212.378906 C 243.523438 211.667969 243.582031 210.957031 243.636719 210.25 C 244.601562 210.519531 245.59375 210.78125 246.59375 211.042969 Z M 246.59375 211.042969 " fill-opacity="1" fill-rule="nonzero"/><path fill="#54a3e6" d="M 159.136719 219.257812 C 158.683594 220.199219 158.324219 221.136719 158.039062 222.058594 C 157.65625 221.875 157.269531 221.703125 156.878906 221.535156 C 156.074219 221.203125 155.253906 220.898438 154.429688 220.621094 C 151.023438 219.480469 147.484375 218.8125 143.933594 218.328125 C 142.96875 218.199219 142 218.085938 141.03125 217.976562 C 141.273438 216.941406 141.554688 215.964844 141.867188 215.054688 C 142.925781 215.179688 143.984375 215.308594 145.039062 215.457031 C 148.980469 216.007812 152.90625 216.796875 156.632812 218.207031 C 157.480469 218.527344 158.316406 218.878906 159.136719 219.257812 Z M 159.136719 219.257812 " fill-opacity="1" fill-rule="nonzero"/><path fill="#1e1915" d="M 160.171875 173.597656 C 160.738281 173.03125 175.027344 164.304688 174.914062 164.53125 C 174.800781 164.757812 172.195312 158.523438 165.050781 160.90625 C 157.90625 163.285156 160.171875 173.597656 160.171875 173.597656 Z M 160.171875 173.597656 " fill-opacity="1" fill-rule="nonzero"/><g clip-path="url(#c385195a35)"><path fill="#1f2b5b" d="M 207.984375 203.566406 L 207.984375 200.347656 L 210.238281 200.347656 C 210.238281 200.347656 210.265625 201.855469 209.691406 202.460938 C 209.117188 203.070312 207.984375 203.566406 207.984375 203.566406 Z M 207.984375 203.566406 " fill-opacity="1" fill-rule="nonzero"/></g><g clip-path="url(#2926bff915)"><g clip-path="url(#8dffe9ee67)"><path fill="url(#1c6e06e1c9)" d="M 204.238281 200.46875 L 204.238281 206.332031 L 210.238281 206.332031 L 210.238281 200.46875 Z M 204.238281 200.46875 " fill-rule="nonzero"/></g></g><g clip-path="url(#b15b5fdf45)"><path fill="#1f2b5b" d="M 210.238281 206.105469 L 210.238281 209.328125 L 207.984375 209.328125 C 207.984375 209.328125 207.953125 207.820312 208.53125 207.210938 C 209.105469 206.605469 210.238281 206.105469 210.238281 206.105469 Z M 210.238281 206.105469 " fill-opacity="1" fill-rule="nonzero"/></g><g clip-path="url(#0ef5e385d9)"><g clip-path="url(#cea610d851)"><path fill="url(#47f242dca7)" d="M 213.984375 209.207031 L 213.984375 203.339844 L 207.984375 203.339844 L 207.984375 209.207031 Z M 213.984375 209.207031 " fill-rule="nonzero"/></g></g><g clip-path="url(#98e064fda6)"><path fill="#002d75" d="M 184.53125 127.6875 C 184.53125 128.027344 184.511719 128.359375 184.472656 128.6875 C 183.628906 128.082031 182.726562 127.558594 181.777344 127.136719 C 177.019531 125.023438 172.03125 123.953125 166.953125 123.953125 C 161.875 123.953125 156.886719 125.023438 152.128906 127.136719 C 151.175781 127.558594 150.277344 128.082031 149.433594 128.6875 C 149.394531 128.359375 149.375 128.027344 149.375 127.6875 C 149.375 123.03125 153.160156 119.246094 157.816406 119.246094 L 176.089844 119.246094 C 180.746094 119.246094 184.53125 123.03125 184.53125 127.6875 Z M 184.53125 127.6875 " fill-opacity="1" fill-rule="nonzero"/></g><path fill="#002d75" d="M 184.191406 130.058594 C 183.332031 129.382812 182.355469 128.785156 181.261719 128.296875 C 176.667969 126.257812 171.851562 125.222656 166.953125 125.222656 C 162.054688 125.222656 157.238281 126.257812 152.644531 128.296875 C 151.550781 128.785156 150.574219 129.382812 149.714844 130.058594 C 149.53125 130.195312 149.351562 130.34375 149.179688 130.492188 C 150.363281 134.136719 153.78125 136.769531 157.816406 136.769531 L 165.105469 136.769531 L 165.105469 135.808594 L 162.792969 135.808594 C 161.855469 135.808594 161.09375 134.980469 161.09375 133.957031 C 161.09375 132.9375 161.855469 132.109375 162.792969 132.109375 L 165.105469 132.109375 L 165.105469 129.800781 C 165.105469 128.863281 165.933594 128.101562 166.953125 128.101562 C 167.972656 128.101562 168.800781 128.863281 168.800781 129.800781 L 168.800781 132.109375 L 171.113281 132.109375 C 172.050781 132.109375 172.808594 132.9375 172.808594 133.957031 C 172.808594 134.980469 172.050781 135.808594 171.113281 135.808594 L 168.800781 135.808594 L 168.800781 136.769531 L 176.089844 136.769531 C 180.125 136.769531 183.546875 134.136719 184.726562 130.492188 C 184.554688 130.34375 184.375 130.195312 184.191406 130.058594 Z M 184.191406 130.058594 " fill-opacity="1" fill-rule="nonzero"/><path fill="#ffffff" d="M 184.726562 130.492188 C 184.554688 130.34375 184.375 130.195312 184.191406 130.058594 C 183.167969 133.5625 179.921875 136.132812 176.089844 136.132812 L 168.800781 136.132812 L 168.800781 137.402344 L 176.089844 137.402344 C 180.300781 137.402344 183.894531 134.710938 185.238281 130.957031 C 185.070312 130.796875 184.902344 130.644531 184.726562 130.492188 Z M 157.816406 136.132812 C 153.984375 136.132812 150.738281 133.5625 149.714844 130.058594 C 149.53125 130.195312 149.351562 130.34375 149.179688 130.492188 C 149.003906 130.644531 148.835938 130.796875 148.667969 130.957031 C 150.011719 134.710938 153.605469 137.402344 157.816406 137.402344 L 165.105469 137.402344 L 165.105469 136.132812 Z M 157.816406 136.132812 " fill-opacity="1" fill-rule="nonzero"/><g clip-path="url(#6d68d60581)"><path fill="#002d75" d="M 189.183594 137.589844 C 188.667969 135.507812 187.398438 133.007812 185.238281 130.957031 C 185.070312 130.796875 184.902344 130.644531 184.726562 130.492188 C 184.554688 130.34375 184.375 130.195312 184.191406 130.058594 C 183.332031 129.382812 182.355469 128.785156 181.261719 128.296875 C 176.667969 126.257812 171.851562 125.222656 166.953125 125.222656 C 162.054688 125.222656 157.238281 126.257812 152.644531 128.296875 C 151.550781 128.785156 150.574219 129.382812 149.714844 130.058594 C 149.53125 130.195312 149.351562 130.34375 149.179688 130.492188 C 149.003906 130.644531 148.835938 130.796875 148.667969 130.957031 C 146.511719 133.007812 145.242188 135.507812 144.722656 137.585938 C 144.105469 140.089844 144.398438 142.34375 145.527344 143.777344 C 146.160156 144.609375 146.886719 145.230469 147.644531 145.6875 C 147.84375 145.722656 148.328125 145.789062 148.996094 145.835938 L 149 145.835938 C 149.375 145.863281 149.8125 145.878906 150.289062 145.878906 C 152.699219 145.878906 156.152344 145.414062 158.363281 143.089844 C 158.570312 142.871094 158.765625 142.640625 158.949219 142.390625 C 159.15625 142.109375 159.554688 142.046875 159.839844 142.253906 C 160.121094 142.460938 160.183594 142.859375 159.976562 143.144531 C 158.316406 145.410156 155.851562 146.445312 153.535156 146.882812 C 154.925781 146.757812 156.351562 146.402344 157.722656 145.832031 C 160.675781 144.519531 163.785156 143.851562 166.953125 143.851562 C 170.121094 143.851562 173.230469 144.519531 176.195312 145.835938 C 177.917969 146.550781 179.746094 146.933594 181.46875 146.933594 C 183.519531 146.933594 186.378906 146.386719 188.375 143.78125 C 189.507812 142.34375 189.800781 140.089844 189.183594 137.589844 Z M 162.371094 140.824219 C 161.789062 141.40625 160.847656 141.40625 160.265625 140.824219 C 159.683594 140.242188 159.683594 139.300781 160.265625 138.71875 C 160.847656 138.136719 161.789062 138.136719 162.371094 138.71875 C 162.953125 139.300781 162.953125 140.246094 162.371094 140.824219 Z M 168.800781 138.117188 C 168.800781 139.054688 167.972656 139.816406 166.953125 139.816406 C 165.933594 139.816406 165.105469 139.054688 165.105469 138.117188 L 165.105469 135.808594 L 162.792969 135.808594 C 161.855469 135.808594 161.09375 134.980469 161.09375 133.957031 C 161.09375 132.9375 161.855469 132.109375 162.792969 132.109375 L 165.105469 132.109375 L 165.105469 129.800781 C 165.105469 128.863281 165.933594 128.101562 166.953125 128.101562 C 167.972656 128.101562 168.800781 128.863281 168.800781 129.800781 L 168.800781 132.109375 L 171.113281 132.109375 C 172.050781 132.109375 172.808594 132.9375 172.808594 133.957031 C 172.808594 134.980469 172.050781 135.808594 171.113281 135.808594 L 168.800781 135.808594 Z M 168.800781 138.117188 " fill-opacity="1" fill-rule="nonzero"/><path fill="#002d75" d="M 189.183594 137.589844 C 188.667969 135.507812 187.398438 133.007812 185.238281 130.957031 C 185.070312 130.796875 184.902344 130.644531 184.726562 130.492188 C 184.554688 130.34375 184.375 130.195312 184.191406 130.058594 C 183.332031 129.382812 182.355469 128.785156 181.261719 128.296875 C 176.667969 126.257812 171.851562 125.222656 166.953125 125.222656 C 162.054688 125.222656 157.238281 126.257812 152.644531 128.296875 C 151.550781 128.785156 150.574219 129.382812 149.714844 130.058594 C 149.53125 130.195312 149.351562 130.34375 149.179688 130.492188 C 149.003906 130.644531 148.835938 130.796875 148.667969 130.957031 C 146.511719 133.007812 145.242188 135.507812 144.722656 137.585938 C 144.105469 140.089844 144.398438 142.34375 145.527344 143.777344 C 146.160156 144.609375 146.886719 145.230469 147.644531 145.6875 C 147.84375 145.722656 148.328125 145.789062 148.996094 145.835938 L 149 145.835938 C 149.375 145.863281 149.8125 145.878906 150.289062 145.878906 C 152.699219 145.878906 156.152344 145.414062 158.363281 143.089844 C 158.570312 142.871094 158.765625 142.640625 158.949219 142.390625 C 159.15625 142.109375 159.554688 142.046875 159.839844 142.253906 C 160.121094 142.460938 160.183594 142.859375 159.976562 143.144531 C 158.316406 145.410156 155.851562 146.445312 153.535156 146.882812 C 154.925781 146.757812 156.351562 146.402344 157.722656 145.832031 C 160.675781 144.519531 163.785156 143.851562 166.953125 143.851562 C 170.121094 143.851562 173.230469 144.519531 176.195312 145.835938 C 177.917969 146.550781 179.746094 146.933594 181.46875 146.933594 C 183.519531 146.933594 186.378906 146.386719 188.375 143.78125 C 189.507812 142.34375 189.800781 140.089844 189.183594 137.589844 Z M 162.371094 140.824219 C 161.789062 141.40625 160.847656 141.40625 160.265625 140.824219 C 159.683594 140.242188 159.683594 139.300781 160.265625 138.71875 C 160.847656 138.136719 161.789062 138.136719 162.371094 138.71875 C 162.953125 139.300781 162.953125 140.246094 162.371094 140.824219 Z M 168.800781 138.117188 C 168.800781 139.054688 167.972656 139.816406 166.953125 139.816406 C 165.933594 139.816406 165.105469 139.054688 165.105469 138.117188 L 165.105469 135.808594 L 162.792969 135.808594 C 161.855469 135.808594 161.09375 134.980469 161.09375 133.957031 C 161.09375 132.9375 161.855469 132.109375 162.792969 132.109375 L 165.105469 132.109375 L 165.105469 129.800781 C 165.105469 128.863281 165.933594 128.101562 166.953125 128.101562 C 167.972656 128.101562 168.800781 128.863281 168.800781 129.800781 L 168.800781 132.109375 L 171.113281 132.109375 C 172.050781 132.109375 172.808594 132.9375 172.808594 133.957031 C 172.808594 134.980469 172.050781 135.808594 171.113281 135.808594 L 168.800781 135.808594 Z M 168.800781 138.117188 " fill-opacity="1" fill-rule="nonzero"/></g><path fill="#002d75" d="M 158.363281 143.089844 C 156.152344 145.414062 152.699219 145.878906 150.289062 145.878906 C 149.8125 145.878906 149.375 145.859375 149 145.835938 Z M 158.363281 143.089844 " fill-opacity="1" fill-rule="nonzero"/></svg>