<svg xmlns="http://www.w3.org/2000/svg" xmlns:xlink="http://www.w3.org/1999/xlink" width="500" zoomAndPan="magnify" viewBox="0 0 375 374.999991" height="500" preserveAspectRatio="xMidYMid meet" version="1.0"><defs><clipPath id="1ed91854a7"><path d="M 196 230 L 221 230 L 221 262.5 L 196 262.5 Z M 196 230 " clip-rule="nonzero"/></clipPath><clipPath id="cfc89e88f3"><path d="M 161 230 L 187 230 L 187 262.5 L 161 262.5 Z M 161 230 " clip-rule="nonzero"/></clipPath><clipPath id="f18b3341f0"><path d="M 126.875 124 L 136 124 L 136 134 L 126.875 134 Z M 126.875 124 " clip-rule="nonzero"/></clipPath><clipPath id="0469569220"><path d="M 138 112.5 L 232 112.5 L 232 199 L 138 199 Z M 138 112.5 " clip-rule="nonzero"/></clipPath><clipPath id="2ddd4bc1d8"><path d="M 226 146 L 248.375 146 L 248.375 181 L 226 181 Z M 226 146 " clip-rule="nonzero"/></clipPath><clipPath id="928c66bf9f"><path d="M 206 193.671875 L 209 193.671875 L 209 197 L 206 197 Z M 206 193.671875 " clip-rule="nonzero"/></clipPath><clipPath id="2c6cab36ad"><path d="M 202.46875 193.671875 L 209 193.671875 L 209 200 L 202.46875 200 Z M 202.46875 193.671875 " clip-rule="nonzero"/></clipPath><clipPath id="d9de7569ce"><path d="M 208.46875 193.804688 C 208.472656 194.203125 208.425781 195.519531 207.777344 196.804688 C 207.574219 197.207031 207.308594 197.609375 206.96875 197.976562 C 206.085938 198.933594 204.683594 199.667969 202.46875 199.667969 L 202.46875 197.421875 C 204.105469 197.421875 205.292969 197.171875 206.160156 196.804688 C 206.46875 196.671875 206.738281 196.523438 206.96875 196.367188 C 208.332031 195.445312 208.464844 194.191406 208.46875 193.804688 Z M 208.46875 193.804688 " clip-rule="nonzero"/></clipPath><linearGradient x1="-0.000386239" gradientTransform="matrix(0.0249488, 0, 0, 0.0249079, 202.46883, 193.681425)" y1="122.636002" x2="240.59962" gradientUnits="userSpaceOnUse" y2="122.636002" id="c7ae4e5807"><stop stop-opacity="1" stop-color="rgb(23.919678%, 74.119568%, 92.549133%)" offset="0"/><stop stop-opacity="1" stop-color="rgb(23.919678%, 74.119568%, 92.549133%)" offset="0.03125"/><stop stop-opacity="1" stop-color="rgb(23.953247%, 74.008179%, 92.579651%)" offset="0.046875"/><stop stop-opacity="1" stop-color="rgb(24.01886%, 73.800659%, 92.637634%)" offset="0.0546875"/><stop stop-opacity="1" stop-color="rgb(24.079895%, 73.603821%, 92.692566%)" offset="0.0625"/><stop stop-opacity="1" stop-color="rgb(24.171448%, 73.310852%, 92.774963%)" offset="0.078125"/><stop stop-opacity="1" stop-color="rgb(24.263%, 73.016357%, 92.855835%)" offset="0.0859375"/><stop stop-opacity="1" stop-color="rgb(24.324036%, 72.821045%, 92.910767%)" offset="0.09375"/><stop stop-opacity="1" stop-color="rgb(24.385071%, 72.624207%, 92.965698%)" offset="0.101563"/><stop stop-opacity="1" stop-color="rgb(24.446106%, 72.428894%, 93.02063%)" offset="0.109375"/><stop stop-opacity="1" stop-color="rgb(24.507141%, 72.232056%, 93.075562%)" offset="0.117188"/><stop stop-opacity="1" stop-color="rgb(24.568176%, 72.036743%, 93.128967%)" offset="0.125"/><stop stop-opacity="1" stop-color="rgb(24.629211%, 71.841431%, 93.183899%)" offset="0.132812"/><stop stop-opacity="1" stop-color="rgb(24.690247%, 71.644592%, 93.238831%)" offset="0.140625"/><stop stop-opacity="1" stop-color="rgb(24.751282%, 71.44928%, 93.293762%)" offset="0.148438"/><stop stop-opacity="1" stop-color="rgb(24.812317%, 71.252441%, 93.348694%)" offset="0.15625"/><stop stop-opacity="1" stop-color="rgb(24.873352%, 71.057129%, 93.403625%)" offset="0.164063"/><stop stop-opacity="1" stop-color="rgb(24.934387%, 70.860291%, 93.457031%)" offset="0.171875"/><stop stop-opacity="1" stop-color="rgb(25.02594%, 70.567322%, 93.539429%)" offset="0.1875"/><stop stop-opacity="1" stop-color="rgb(25.117493%, 70.272827%, 93.621826%)" offset="0.195313"/><stop stop-opacity="1" stop-color="rgb(25.178528%, 70.077515%, 93.676758%)" offset="0.203125"/><stop stop-opacity="1" stop-color="rgb(25.239563%, 69.880676%, 93.730164%)" offset="0.210938"/><stop stop-opacity="1" stop-color="rgb(25.300598%, 69.685364%, 93.785095%)" offset="0.21875"/><stop stop-opacity="1" stop-color="rgb(25.361633%, 69.488525%, 93.840027%)" offset="0.226563"/><stop stop-opacity="1" stop-color="rgb(25.422668%, 69.293213%, 93.894958%)" offset="0.234375"/><stop stop-opacity="1" stop-color="rgb(25.483704%, 69.096375%, 93.94989%)" offset="0.242188"/><stop stop-opacity="1" stop-color="rgb(25.544739%, 68.901062%, 94.003296%)" offset="0.25"/><stop stop-opacity="1" stop-color="rgb(25.605774%, 68.70575%, 94.058228%)" offset="0.257813"/><stop stop-opacity="1" stop-color="rgb(25.666809%, 68.508911%, 94.113159%)" offset="0.265625"/><stop stop-opacity="1" stop-color="rgb(25.727844%, 68.313599%, 94.168091%)" offset="0.273438"/><stop stop-opacity="1" stop-color="rgb(25.788879%, 68.11676%, 94.223022%)" offset="0.28125"/><stop stop-opacity="1" stop-color="rgb(25.849915%, 67.921448%, 94.277954%)" offset="0.289063"/><stop stop-opacity="1" stop-color="rgb(25.91095%, 67.724609%, 94.33136%)" offset="0.296875"/><stop stop-opacity="1" stop-color="rgb(26.002502%, 67.431641%, 94.413757%)" offset="0.3125"/><stop stop-opacity="1" stop-color="rgb(26.094055%, 67.137146%, 94.496155%)" offset="0.320313"/><stop stop-opacity="1" stop-color="rgb(26.15509%, 66.941833%, 94.551086%)" offset="0.328125"/><stop stop-opacity="1" stop-color="rgb(26.216125%, 66.744995%, 94.604492%)" offset="0.335938"/><stop stop-opacity="1" stop-color="rgb(26.277161%, 66.549683%, 94.659424%)" offset="0.34375"/><stop stop-opacity="1" stop-color="rgb(26.338196%, 66.352844%, 94.714355%)" offset="0.351563"/><stop stop-opacity="1" stop-color="rgb(26.399231%, 66.157532%, 94.769287%)" offset="0.359375"/><stop stop-opacity="1" stop-color="rgb(26.460266%, 65.962219%, 94.824219%)" offset="0.367188"/><stop stop-opacity="1" stop-color="rgb(26.521301%, 65.765381%, 94.87915%)" offset="0.375"/><stop stop-opacity="1" stop-color="rgb(26.582336%, 65.570068%, 94.932556%)" offset="0.382813"/><stop stop-opacity="1" stop-color="rgb(26.643372%, 65.37323%, 94.987488%)" offset="0.390625"/><stop stop-opacity="1" stop-color="rgb(26.704407%, 65.177917%, 95.042419%)" offset="0.398438"/><stop stop-opacity="1" stop-color="rgb(26.765442%, 64.981079%, 95.097351%)" offset="0.40625"/><stop stop-opacity="1" stop-color="rgb(26.856995%, 64.68811%, 95.178223%)" offset="0.421875"/><stop stop-opacity="1" stop-color="rgb(26.948547%, 64.393616%, 95.26062%)" offset="0.429688"/><stop stop-opacity="1" stop-color="rgb(27.009583%, 64.198303%, 95.315552%)" offset="0.4375"/><stop stop-opacity="1" stop-color="rgb(27.070618%, 64.001465%, 95.370483%)" offset="0.445313"/><stop stop-opacity="1" stop-color="rgb(27.131653%, 63.806152%, 95.425415%)" offset="0.453125"/><stop stop-opacity="1" stop-color="rgb(27.192688%, 63.609314%, 95.478821%)" offset="0.460938"/><stop stop-opacity="1" stop-color="rgb(27.253723%, 63.414001%, 95.533752%)" offset="0.46875"/><stop stop-opacity="1" stop-color="rgb(27.314758%, 63.218689%, 95.588684%)" offset="0.476563"/><stop stop-opacity="1" stop-color="rgb(27.375793%, 63.021851%, 95.643616%)" offset="0.484375"/><stop stop-opacity="1" stop-color="rgb(27.436829%, 62.826538%, 95.698547%)" offset="0.492188"/><stop stop-opacity="1" stop-color="rgb(27.497864%, 62.6297%, 95.753479%)" offset="0.5"/><stop stop-opacity="1" stop-color="rgb(27.558899%, 62.434387%, 95.806885%)" offset="0.507812"/><stop stop-opacity="1" stop-color="rgb(27.619934%, 62.237549%, 95.861816%)" offset="0.515625"/><stop stop-opacity="1" stop-color="rgb(27.680969%, 62.042236%, 95.916748%)" offset="0.523438"/><stop stop-opacity="1" stop-color="rgb(27.742004%, 61.845398%, 95.97168%)" offset="0.53125"/><stop stop-opacity="1" stop-color="rgb(27.833557%, 61.552429%, 96.052551%)" offset="0.546875"/><stop stop-opacity="1" stop-color="rgb(27.92511%, 61.257935%, 96.134949%)" offset="0.554688"/><stop stop-opacity="1" stop-color="rgb(27.986145%, 61.062622%, 96.18988%)" offset="0.5625"/><stop stop-opacity="1" stop-color="rgb(28.04718%, 60.865784%, 96.244812%)" offset="0.570312"/><stop stop-opacity="1" stop-color="rgb(28.108215%, 60.670471%, 96.299744%)" offset="0.578125"/><stop stop-opacity="1" stop-color="rgb(28.16925%, 60.473633%, 96.353149%)" offset="0.585938"/><stop stop-opacity="1" stop-color="rgb(28.230286%, 60.27832%, 96.408081%)" offset="0.59375"/><stop stop-opacity="1" stop-color="rgb(28.291321%, 60.083008%, 96.463013%)" offset="0.601562"/><stop stop-opacity="1" stop-color="rgb(28.352356%, 59.886169%, 96.517944%)" offset="0.609375"/><stop stop-opacity="1" stop-color="rgb(28.413391%, 59.690857%, 96.572876%)" offset="0.617188"/><stop stop-opacity="1" stop-color="rgb(28.474426%, 59.494019%, 96.627808%)" offset="0.625"/><stop stop-opacity="1" stop-color="rgb(28.535461%, 59.298706%, 96.681213%)" offset="0.632812"/><stop stop-opacity="1" stop-color="rgb(28.596497%, 59.101868%, 96.736145%)" offset="0.640625"/><stop stop-opacity="1" stop-color="rgb(28.688049%, 58.808899%, 96.818542%)" offset="0.65625"/><stop stop-opacity="1" stop-color="rgb(28.779602%, 58.514404%, 96.90094%)" offset="0.664062"/><stop stop-opacity="1" stop-color="rgb(28.840637%, 58.319092%, 96.954346%)" offset="0.671875"/><stop stop-opacity="1" stop-color="rgb(28.901672%, 58.122253%, 97.009277%)" offset="0.679688"/><stop stop-opacity="1" stop-color="rgb(28.962708%, 57.926941%, 97.064209%)" offset="0.6875"/><stop stop-opacity="1" stop-color="rgb(29.023743%, 57.730103%, 97.119141%)" offset="0.695312"/><stop stop-opacity="1" stop-color="rgb(29.084778%, 57.53479%, 97.174072%)" offset="0.703125"/><stop stop-opacity="1" stop-color="rgb(29.145813%, 57.339478%, 97.227478%)" offset="0.710938"/><stop stop-opacity="1" stop-color="rgb(29.206848%, 57.142639%, 97.28241%)" offset="0.71875"/><stop stop-opacity="1" stop-color="rgb(29.267883%, 56.947327%, 97.337341%)" offset="0.726562"/><stop stop-opacity="1" stop-color="rgb(29.328918%, 56.750488%, 97.392273%)" offset="0.734375"/><stop stop-opacity="1" stop-color="rgb(29.389954%, 56.555176%, 97.447205%)" offset="0.742188"/><stop stop-opacity="1" stop-color="rgb(29.450989%, 56.358337%, 97.502136%)" offset="0.75"/><stop stop-opacity="1" stop-color="rgb(29.542542%, 56.065369%, 97.583008%)" offset="0.765625"/><stop stop-opacity="1" stop-color="rgb(29.634094%, 55.770874%, 97.665405%)" offset="0.773438"/><stop stop-opacity="1" stop-color="rgb(29.695129%, 55.575562%, 97.720337%)" offset="0.78125"/><stop stop-opacity="1" stop-color="rgb(29.756165%, 55.378723%, 97.775269%)" offset="0.789062"/><stop stop-opacity="1" stop-color="rgb(29.8172%, 55.183411%, 97.828674%)" offset="0.796875"/><stop stop-opacity="1" stop-color="rgb(29.878235%, 54.986572%, 97.883606%)" offset="0.804688"/><stop stop-opacity="1" stop-color="rgb(29.93927%, 54.79126%, 97.938538%)" offset="0.8125"/><stop stop-opacity="1" stop-color="rgb(30.000305%, 54.594421%, 97.993469%)" offset="0.820312"/><stop stop-opacity="1" stop-color="rgb(30.06134%, 54.399109%, 98.048401%)" offset="0.828125"/><stop stop-opacity="1" stop-color="rgb(30.122375%, 54.203796%, 98.101807%)" offset="0.835938"/><stop stop-opacity="1" stop-color="rgb(30.183411%, 54.006958%, 98.156738%)" offset="0.84375"/><stop stop-opacity="1" stop-color="rgb(30.244446%, 53.811646%, 98.21167%)" offset="0.851562"/><stop stop-opacity="1" stop-color="rgb(30.305481%, 53.614807%, 98.266602%)" offset="0.859375"/><stop stop-opacity="1" stop-color="rgb(30.366516%, 53.419495%, 98.321533%)" offset="0.867188"/><stop stop-opacity="1" stop-color="rgb(30.427551%, 53.222656%, 98.376465%)" offset="0.875"/><stop stop-opacity="1" stop-color="rgb(30.519104%, 52.929688%, 98.457336%)" offset="0.890625"/><stop stop-opacity="1" stop-color="rgb(30.610657%, 52.635193%, 98.539734%)" offset="0.898438"/><stop stop-opacity="1" stop-color="rgb(30.671692%, 52.43988%, 98.594666%)" offset="0.90625"/><stop stop-opacity="1" stop-color="rgb(30.732727%, 52.243042%, 98.649597%)" offset="0.914062"/><stop stop-opacity="1" stop-color="rgb(30.793762%, 52.047729%, 98.703003%)" offset="0.921875"/><stop stop-opacity="1" stop-color="rgb(30.854797%, 51.850891%, 98.757935%)" offset="0.929688"/><stop stop-opacity="1" stop-color="rgb(30.915833%, 51.655579%, 98.812866%)" offset="0.9375"/><stop stop-opacity="1" stop-color="rgb(30.976868%, 51.460266%, 98.867798%)" offset="0.945312"/><stop stop-opacity="1" stop-color="rgb(31.037903%, 51.263428%, 98.922729%)" offset="0.953125"/><stop stop-opacity="1" stop-color="rgb(31.098938%, 51.068115%, 98.976135%)" offset="0.960938"/><stop stop-opacity="1" stop-color="rgb(31.159973%, 50.871277%, 99.031067%)" offset="0.96875"/><stop stop-opacity="1" stop-color="rgb(31.221008%, 50.675964%, 99.085999%)" offset="0.976563"/><stop stop-opacity="1" stop-color="rgb(31.282043%, 50.479126%, 99.14093%)" offset="0.984375"/><stop stop-opacity="1" stop-color="rgb(31.340027%, 50.289917%, 99.19281%)" offset="1"/></linearGradient><clipPath id="a81fa35b0c"><path d="M 206 199 L 209 199 L 209 202.671875 L 206 202.671875 Z M 206 199 " clip-rule="nonzero"/></clipPath><clipPath id="9a69c41232"><path d="M 206 196 L 212.21875 196 L 212.21875 202.671875 L 206 202.671875 Z M 206 196 " clip-rule="nonzero"/></clipPath><clipPath id="f42043502d"><path d="M 206.21875 202.542969 C 206.214844 202.144531 206.261719 200.828125 206.910156 199.542969 C 207.113281 199.136719 207.378906 198.734375 207.71875 198.367188 C 208.601562 197.410156 210 196.675781 212.21875 196.675781 L 212.21875 198.921875 C 210.582031 198.921875 209.394531 199.171875 208.527344 199.542969 C 208.21875 199.671875 207.949219 199.820312 207.71875 199.976562 C 206.355469 200.902344 206.222656 202.152344 206.21875 202.542969 Z M 206.21875 202.542969 " clip-rule="nonzero"/></clipPath><linearGradient x1="167.432234" gradientTransform="matrix(-0.0249488, 0, 0, -0.0249079, 216.395309, 198.667385)" y1="-37.771" x2="408.042246" gradientUnits="userSpaceOnUse" y2="-37.771" id="b4b144b822"><stop stop-opacity="1" stop-color="rgb(23.919678%, 74.119568%, 92.549133%)" offset="0"/><stop stop-opacity="1" stop-color="rgb(23.919678%, 74.119568%, 92.549133%)" offset="0.03125"/><stop stop-opacity="1" stop-color="rgb(23.953247%, 74.009705%, 92.579651%)" offset="0.046875"/><stop stop-opacity="1" stop-color="rgb(24.01886%, 73.800659%, 92.637634%)" offset="0.0546875"/><stop stop-opacity="1" stop-color="rgb(24.079895%, 73.605347%, 92.692566%)" offset="0.0625"/><stop stop-opacity="1" stop-color="rgb(24.14093%, 73.408508%, 92.747498%)" offset="0.0703125"/><stop stop-opacity="1" stop-color="rgb(24.201965%, 73.213196%, 92.802429%)" offset="0.078125"/><stop stop-opacity="1" stop-color="rgb(24.263%, 73.016357%, 92.855835%)" offset="0.0859375"/><stop stop-opacity="1" stop-color="rgb(24.324036%, 72.821045%, 92.910767%)" offset="0.09375"/><stop stop-opacity="1" stop-color="rgb(24.385071%, 72.624207%, 92.965698%)" offset="0.101563"/><stop stop-opacity="1" stop-color="rgb(24.446106%, 72.428894%, 93.02063%)" offset="0.109375"/><stop stop-opacity="1" stop-color="rgb(24.507141%, 72.233582%, 93.075562%)" offset="0.117188"/><stop stop-opacity="1" stop-color="rgb(24.568176%, 72.036743%, 93.128967%)" offset="0.125"/><stop stop-opacity="1" stop-color="rgb(24.629211%, 71.841431%, 93.183899%)" offset="0.132812"/><stop stop-opacity="1" stop-color="rgb(24.690247%, 71.644592%, 93.238831%)" offset="0.140625"/><stop stop-opacity="1" stop-color="rgb(24.751282%, 71.44928%, 93.293762%)" offset="0.148438"/><stop stop-opacity="1" stop-color="rgb(24.812317%, 71.252441%, 93.348694%)" offset="0.15625"/><stop stop-opacity="1" stop-color="rgb(24.90387%, 70.959473%, 93.429565%)" offset="0.171875"/><stop stop-opacity="1" stop-color="rgb(24.995422%, 70.664978%, 93.511963%)" offset="0.179688"/><stop stop-opacity="1" stop-color="rgb(25.056458%, 70.469666%, 93.566895%)" offset="0.1875"/><stop stop-opacity="1" stop-color="rgb(25.117493%, 70.272827%, 93.621826%)" offset="0.195312"/><stop stop-opacity="1" stop-color="rgb(25.178528%, 70.077515%, 93.676758%)" offset="0.203125"/><stop stop-opacity="1" stop-color="rgb(25.239563%, 69.880676%, 93.730164%)" offset="0.210938"/><stop stop-opacity="1" stop-color="rgb(25.300598%, 69.685364%, 93.785095%)" offset="0.21875"/><stop stop-opacity="1" stop-color="rgb(25.361633%, 69.488525%, 93.840027%)" offset="0.226562"/><stop stop-opacity="1" stop-color="rgb(25.422668%, 69.293213%, 93.894958%)" offset="0.234375"/><stop stop-opacity="1" stop-color="rgb(25.483704%, 69.0979%, 93.94989%)" offset="0.242188"/><stop stop-opacity="1" stop-color="rgb(25.544739%, 68.901062%, 94.003296%)" offset="0.25"/><stop stop-opacity="1" stop-color="rgb(25.605774%, 68.70575%, 94.058228%)" offset="0.257812"/><stop stop-opacity="1" stop-color="rgb(25.666809%, 68.508911%, 94.113159%)" offset="0.265625"/><stop stop-opacity="1" stop-color="rgb(25.727844%, 68.313599%, 94.168091%)" offset="0.273437"/><stop stop-opacity="1" stop-color="rgb(25.788879%, 68.11676%, 94.223022%)" offset="0.28125"/><stop stop-opacity="1" stop-color="rgb(25.880432%, 67.823792%, 94.303894%)" offset="0.296875"/><stop stop-opacity="1" stop-color="rgb(25.971985%, 67.529297%, 94.386292%)" offset="0.304688"/><stop stop-opacity="1" stop-color="rgb(26.03302%, 67.333984%, 94.441223%)" offset="0.3125"/><stop stop-opacity="1" stop-color="rgb(26.094055%, 67.137146%, 94.496155%)" offset="0.320312"/><stop stop-opacity="1" stop-color="rgb(26.15509%, 66.941833%, 94.551086%)" offset="0.328125"/><stop stop-opacity="1" stop-color="rgb(26.216125%, 66.744995%, 94.604492%)" offset="0.335938"/><stop stop-opacity="1" stop-color="rgb(26.277161%, 66.549683%, 94.659424%)" offset="0.34375"/><stop stop-opacity="1" stop-color="rgb(26.338196%, 66.352844%, 94.714355%)" offset="0.351563"/><stop stop-opacity="1" stop-color="rgb(26.399231%, 66.157532%, 94.769287%)" offset="0.359375"/><stop stop-opacity="1" stop-color="rgb(26.460266%, 65.962219%, 94.824219%)" offset="0.367188"/><stop stop-opacity="1" stop-color="rgb(26.521301%, 65.765381%, 94.877625%)" offset="0.375"/><stop stop-opacity="1" stop-color="rgb(26.582336%, 65.570068%, 94.932556%)" offset="0.382812"/><stop stop-opacity="1" stop-color="rgb(26.643372%, 65.37323%, 94.987488%)" offset="0.390625"/><stop stop-opacity="1" stop-color="rgb(26.704407%, 65.177917%, 95.042419%)" offset="0.398437"/><stop stop-opacity="1" stop-color="rgb(26.765442%, 64.981079%, 95.097351%)" offset="0.40625"/><stop stop-opacity="1" stop-color="rgb(26.856995%, 64.68811%, 95.178223%)" offset="0.421875"/><stop stop-opacity="1" stop-color="rgb(26.948547%, 64.393616%, 95.26062%)" offset="0.429688"/><stop stop-opacity="1" stop-color="rgb(27.009583%, 64.198303%, 95.315552%)" offset="0.4375"/><stop stop-opacity="1" stop-color="rgb(27.070618%, 64.001465%, 95.370483%)" offset="0.445312"/><stop stop-opacity="1" stop-color="rgb(27.131653%, 63.806152%, 95.425415%)" offset="0.453125"/><stop stop-opacity="1" stop-color="rgb(27.192688%, 63.609314%, 95.478821%)" offset="0.460938"/><stop stop-opacity="1" stop-color="rgb(27.253723%, 63.414001%, 95.533752%)" offset="0.46875"/><stop stop-opacity="1" stop-color="rgb(27.314758%, 63.217163%, 95.588684%)" offset="0.476563"/><stop stop-opacity="1" stop-color="rgb(27.375793%, 63.021851%, 95.643616%)" offset="0.484375"/><stop stop-opacity="1" stop-color="rgb(27.436829%, 62.826538%, 95.698547%)" offset="0.492188"/><stop stop-opacity="1" stop-color="rgb(27.497864%, 62.6297%, 95.753479%)" offset="0.5"/><stop stop-opacity="1" stop-color="rgb(27.558899%, 62.434387%, 95.806885%)" offset="0.507812"/><stop stop-opacity="1" stop-color="rgb(27.619934%, 62.237549%, 95.861816%)" offset="0.515625"/><stop stop-opacity="1" stop-color="rgb(27.680969%, 62.042236%, 95.916748%)" offset="0.523438"/><stop stop-opacity="1" stop-color="rgb(27.742004%, 61.845398%, 95.97168%)" offset="0.53125"/><stop stop-opacity="1" stop-color="rgb(27.833557%, 61.552429%, 96.052551%)" offset="0.546875"/><stop stop-opacity="1" stop-color="rgb(27.92511%, 61.257935%, 96.134949%)" offset="0.554688"/><stop stop-opacity="1" stop-color="rgb(27.986145%, 61.062622%, 96.18988%)" offset="0.5625"/><stop stop-opacity="1" stop-color="rgb(28.04718%, 60.865784%, 96.244812%)" offset="0.570313"/><stop stop-opacity="1" stop-color="rgb(28.108215%, 60.670471%, 96.299744%)" offset="0.578125"/><stop stop-opacity="1" stop-color="rgb(28.16925%, 60.473633%, 96.353149%)" offset="0.585938"/><stop stop-opacity="1" stop-color="rgb(28.230286%, 60.27832%, 96.408081%)" offset="0.59375"/><stop stop-opacity="1" stop-color="rgb(28.291321%, 60.081482%, 96.463013%)" offset="0.601563"/><stop stop-opacity="1" stop-color="rgb(28.352356%, 59.886169%, 96.517944%)" offset="0.609375"/><stop stop-opacity="1" stop-color="rgb(28.413391%, 59.690857%, 96.572876%)" offset="0.617188"/><stop stop-opacity="1" stop-color="rgb(28.474426%, 59.494019%, 96.627808%)" offset="0.625"/><stop stop-opacity="1" stop-color="rgb(28.535461%, 59.298706%, 96.681213%)" offset="0.632813"/><stop stop-opacity="1" stop-color="rgb(28.596497%, 59.101868%, 96.736145%)" offset="0.640625"/><stop stop-opacity="1" stop-color="rgb(28.657532%, 58.906555%, 96.791077%)" offset="0.648438"/><stop stop-opacity="1" stop-color="rgb(28.718567%, 58.709717%, 96.846008%)" offset="0.65625"/><stop stop-opacity="1" stop-color="rgb(28.81012%, 58.416748%, 96.92688%)" offset="0.671875"/><stop stop-opacity="1" stop-color="rgb(28.901672%, 58.122253%, 97.009277%)" offset="0.679688"/><stop stop-opacity="1" stop-color="rgb(28.962708%, 57.926941%, 97.064209%)" offset="0.6875"/><stop stop-opacity="1" stop-color="rgb(29.023743%, 57.730103%, 97.119141%)" offset="0.695313"/><stop stop-opacity="1" stop-color="rgb(29.084778%, 57.53479%, 97.174072%)" offset="0.703125"/><stop stop-opacity="1" stop-color="rgb(29.145813%, 57.337952%, 97.229004%)" offset="0.710938"/><stop stop-opacity="1" stop-color="rgb(29.206848%, 57.142639%, 97.28241%)" offset="0.71875"/><stop stop-opacity="1" stop-color="rgb(29.267883%, 56.945801%, 97.337341%)" offset="0.726563"/><stop stop-opacity="1" stop-color="rgb(29.328918%, 56.750488%, 97.392273%)" offset="0.734375"/><stop stop-opacity="1" stop-color="rgb(29.389954%, 56.555176%, 97.447205%)" offset="0.742188"/><stop stop-opacity="1" stop-color="rgb(29.450989%, 56.358337%, 97.502136%)" offset="0.75"/><stop stop-opacity="1" stop-color="rgb(29.512024%, 56.163025%, 97.555542%)" offset="0.757813"/><stop stop-opacity="1" stop-color="rgb(29.573059%, 55.966187%, 97.610474%)" offset="0.765625"/><stop stop-opacity="1" stop-color="rgb(29.634094%, 55.770874%, 97.665405%)" offset="0.773438"/><stop stop-opacity="1" stop-color="rgb(29.695129%, 55.574036%, 97.720337%)" offset="0.78125"/><stop stop-opacity="1" stop-color="rgb(29.786682%, 55.281067%, 97.801208%)" offset="0.796875"/><stop stop-opacity="1" stop-color="rgb(29.878235%, 54.986572%, 97.883606%)" offset="0.804688"/><stop stop-opacity="1" stop-color="rgb(29.93927%, 54.79126%, 97.938538%)" offset="0.8125"/><stop stop-opacity="1" stop-color="rgb(30.000305%, 54.594421%, 97.993469%)" offset="0.820313"/><stop stop-opacity="1" stop-color="rgb(30.06134%, 54.399109%, 98.048401%)" offset="0.828125"/><stop stop-opacity="1" stop-color="rgb(30.122375%, 54.202271%, 98.103333%)" offset="0.835938"/><stop stop-opacity="1" stop-color="rgb(30.183411%, 54.006958%, 98.156738%)" offset="0.84375"/><stop stop-opacity="1" stop-color="rgb(30.244446%, 53.81012%, 98.21167%)" offset="0.851563"/><stop stop-opacity="1" stop-color="rgb(30.305481%, 53.614807%, 98.266602%)" offset="0.859375"/><stop stop-opacity="1" stop-color="rgb(30.366516%, 53.419495%, 98.321533%)" offset="0.867188"/><stop stop-opacity="1" stop-color="rgb(30.427551%, 53.222656%, 98.376465%)" offset="0.875"/><stop stop-opacity="1" stop-color="rgb(30.488586%, 53.027344%, 98.429871%)" offset="0.882813"/><stop stop-opacity="1" stop-color="rgb(30.549622%, 52.830505%, 98.484802%)" offset="0.890625"/><stop stop-opacity="1" stop-color="rgb(30.610657%, 52.635193%, 98.539734%)" offset="0.898438"/><stop stop-opacity="1" stop-color="rgb(30.671692%, 52.438354%, 98.594666%)" offset="0.90625"/><stop stop-opacity="1" stop-color="rgb(30.763245%, 52.145386%, 98.675537%)" offset="0.921875"/><stop stop-opacity="1" stop-color="rgb(30.854797%, 51.850891%, 98.757935%)" offset="0.929688"/><stop stop-opacity="1" stop-color="rgb(30.915833%, 51.655579%, 98.812866%)" offset="0.9375"/><stop stop-opacity="1" stop-color="rgb(30.976868%, 51.45874%, 98.867798%)" offset="0.945313"/><stop stop-opacity="1" stop-color="rgb(31.037903%, 51.263428%, 98.922729%)" offset="0.953125"/><stop stop-opacity="1" stop-color="rgb(31.098938%, 51.066589%, 98.977661%)" offset="0.960938"/><stop stop-opacity="1" stop-color="rgb(31.159973%, 50.871277%, 99.031067%)" offset="0.96875"/><stop stop-opacity="1" stop-color="rgb(31.221008%, 50.674438%, 99.085999%)" offset="0.976563"/><stop stop-opacity="1" stop-color="rgb(31.282043%, 50.479126%, 99.14093%)" offset="0.984375"/><stop stop-opacity="1" stop-color="rgb(31.340027%, 50.289917%, 99.19281%)" offset="1"/></linearGradient><clipPath id="04eaf2e5d9"><path d="M 162 97 L 198 97 L 198 111 L 162 111 Z M 162 97 " clip-rule="nonzero"/></clipPath><clipPath id="26163243a8"><path d="M 156.089844 101.554688 L 201.496094 95.960938 L 204.886719 123.503906 L 159.480469 129.097656 Z M 156.089844 101.554688 " clip-rule="nonzero"/></clipPath><clipPath id="d31e85e60c"><path d="M 156.089844 101.554688 L 201.496094 95.960938 L 204.886719 123.503906 L 159.480469 129.097656 Z M 156.089844 101.554688 " clip-rule="nonzero"/></clipPath><clipPath id="2251721230"><path d="M 162 104 L 198 104 L 198 118 L 162 118 Z M 162 104 " clip-rule="nonzero"/></clipPath><clipPath id="d42fce7351"><path d="M 156.089844 101.554688 L 201.496094 95.960938 L 204.886719 123.503906 L 159.480469 129.097656 Z M 156.089844 101.554688 " clip-rule="nonzero"/></clipPath><clipPath id="cd635c2500"><path d="M 156.089844 101.554688 L 201.496094 95.960938 L 204.886719 123.503906 L 159.480469 129.097656 Z M 156.089844 101.554688 " clip-rule="nonzero"/></clipPath><clipPath id="3e8e1c2499"><path d="M 162 107 L 199 107 L 199 118 L 162 118 Z M 162 107 " clip-rule="nonzero"/></clipPath><clipPath id="a99b4387e1"><path d="M 156.089844 101.554688 L 201.496094 95.960938 L 204.886719 123.503906 L 159.480469 129.097656 Z M 156.089844 101.554688 " clip-rule="nonzero"/></clipPath><clipPath id="4f472c5450"><path d="M 156.089844 101.554688 L 201.496094 95.960938 L 204.886719 123.503906 L 159.480469 129.097656 Z M 156.089844 101.554688 " clip-rule="nonzero"/></clipPath><clipPath id="c56487d5b9"><path d="M 158 104 L 204 104 L 204 128 L 158 128 Z M 158 104 " clip-rule="nonzero"/></clipPath><clipPath id="65e03d1fdf"><path d="M 156.089844 101.554688 L 201.496094 95.960938 L 204.886719 123.503906 L 159.480469 129.097656 Z M 156.089844 101.554688 " clip-rule="nonzero"/></clipPath><clipPath id="bb13249ca4"><path d="M 156.089844 101.554688 L 201.496094 95.960938 L 204.886719 123.503906 L 159.480469 129.097656 Z M 156.089844 101.554688 " clip-rule="nonzero"/></clipPath><clipPath id="90aac22933"><path d="M 164 123 L 174 123 L 174 128 L 164 128 Z M 164 123 " clip-rule="nonzero"/></clipPath><clipPath id="38e40a936b"><path d="M 156.089844 101.554688 L 201.496094 95.960938 L 204.886719 123.503906 L 159.480469 129.097656 Z M 156.089844 101.554688 " clip-rule="nonzero"/></clipPath><clipPath id="2a82124dd0"><path d="M 156.089844 101.554688 L 201.496094 95.960938 L 204.886719 123.503906 L 159.480469 129.097656 Z M 156.089844 101.554688 " clip-rule="nonzero"/></clipPath><clipPath id="43410b1e6d"><path d="M 127 196 L 136 196 L 136 207 L 127 207 Z M 127 196 " clip-rule="nonzero"/></clipPath><clipPath id="26e2fb0afd"><path d="M 124.972656 193.671875 L 172.609375 204.027344 L 164.164062 242.871094 L 116.527344 232.515625 Z M 124.972656 193.671875 " clip-rule="nonzero"/></clipPath><clipPath id="76d02b6c7b"><path d="M 124.972656 193.671875 L 172.609375 204.027344 L 164.164062 242.871094 L 116.527344 232.515625 Z M 124.972656 193.671875 " clip-rule="nonzero"/></clipPath><clipPath id="d1acf79b36"><path d="M 124.972656 193.671875 L 172.609375 204.027344 L 164.164062 242.871094 L 116.527344 232.515625 Z M 124.972656 193.671875 " clip-rule="nonzero"/></clipPath><clipPath id="6922226d91"><path d="M 126 196 L 137 196 L 137 207 L 126 207 Z M 126 196 " clip-rule="nonzero"/></clipPath><clipPath id="664f3e7ec6"><path d="M 124.972656 193.671875 L 172.609375 204.027344 L 164.164062 242.871094 L 116.527344 232.515625 Z M 124.972656 193.671875 " clip-rule="nonzero"/></clipPath><clipPath id="bb81bbf507"><path d="M 124.972656 193.671875 L 172.609375 204.027344 L 164.164062 242.871094 L 116.527344 232.515625 Z M 124.972656 193.671875 " clip-rule="nonzero"/></clipPath><clipPath id="486545c62e"><path d="M 124.972656 193.671875 L 172.609375 204.027344 L 164.164062 242.871094 L 116.527344 232.515625 Z M 124.972656 193.671875 " clip-rule="nonzero"/></clipPath><clipPath id="c6e661410f"><path d="M 130 202 L 154 202 L 154 227 L 130 227 Z M 130 202 " clip-rule="nonzero"/></clipPath><clipPath id="d31ac08699"><path d="M 124.972656 193.671875 L 172.609375 204.027344 L 164.164062 242.871094 L 116.527344 232.515625 Z M 124.972656 193.671875 " clip-rule="nonzero"/></clipPath><clipPath id="4b10fdccba"><path d="M 124.972656 193.671875 L 172.609375 204.027344 L 164.164062 242.871094 L 116.527344 232.515625 Z M 124.972656 193.671875 " clip-rule="nonzero"/></clipPath><clipPath id="e30a77b62e"><path d="M 124.972656 193.671875 L 172.609375 204.027344 L 164.164062 242.871094 L 116.527344 232.515625 Z M 124.972656 193.671875 " clip-rule="nonzero"/></clipPath><clipPath id="3657e44feb"><path d="M 130 201 L 154 201 L 154 228 L 130 228 Z M 130 201 " clip-rule="nonzero"/></clipPath><clipPath id="06d48677de"><path d="M 124.972656 193.671875 L 172.609375 204.027344 L 164.164062 242.871094 L 116.527344 232.515625 Z M 124.972656 193.671875 " clip-rule="nonzero"/></clipPath><clipPath id="0663af0125"><path d="M 124.972656 193.671875 L 172.609375 204.027344 L 164.164062 242.871094 L 116.527344 232.515625 Z M 124.972656 193.671875 " clip-rule="nonzero"/></clipPath><clipPath id="71381329d3"><path d="M 124.972656 193.671875 L 172.609375 204.027344 L 164.164062 242.871094 L 116.527344 232.515625 Z M 124.972656 193.671875 " clip-rule="nonzero"/></clipPath><clipPath id="4a92b49d86"><path d="M 133 205 L 151 205 L 151 224 L 133 224 Z M 133 205 " clip-rule="nonzero"/></clipPath><clipPath id="83b21a5055"><path d="M 124.972656 193.671875 L 172.609375 204.027344 L 164.164062 242.871094 L 116.527344 232.515625 Z M 124.972656 193.671875 " clip-rule="nonzero"/></clipPath><clipPath id="89415ad81d"><path d="M 124.972656 193.671875 L 172.609375 204.027344 L 164.164062 242.871094 L 116.527344 232.515625 Z M 124.972656 193.671875 " clip-rule="nonzero"/></clipPath><clipPath id="b40b6ef53d"><path d="M 124.972656 193.671875 L 172.609375 204.027344 L 164.164062 242.871094 L 116.527344 232.515625 Z M 124.972656 193.671875 " clip-rule="nonzero"/></clipPath><clipPath id="4e52dba3e2"><path d="M 149 223 L 162 223 L 162 239 L 149 239 Z M 149 223 " clip-rule="nonzero"/></clipPath><clipPath id="65cf36aa81"><path d="M 124.972656 193.671875 L 172.609375 204.027344 L 164.164062 242.871094 L 116.527344 232.515625 Z M 124.972656 193.671875 " clip-rule="nonzero"/></clipPath><clipPath id="3abb2e1468"><path d="M 124.972656 193.671875 L 172.609375 204.027344 L 164.164062 242.871094 L 116.527344 232.515625 Z M 124.972656 193.671875 " clip-rule="nonzero"/></clipPath><clipPath id="483c3ae23f"><path d="M 124.972656 193.671875 L 172.609375 204.027344 L 164.164062 242.871094 L 116.527344 232.515625 Z M 124.972656 193.671875 " clip-rule="nonzero"/></clipPath><clipPath id="9324f451da"><path d="M 148 223 L 163 223 L 163 239 L 148 239 Z M 148 223 " clip-rule="nonzero"/></clipPath><clipPath id="c93fafdd51"><path d="M 124.972656 193.671875 L 172.609375 204.027344 L 164.164062 242.871094 L 116.527344 232.515625 Z M 124.972656 193.671875 " clip-rule="nonzero"/></clipPath><clipPath id="7b6bfc8254"><path d="M 124.972656 193.671875 L 172.609375 204.027344 L 164.164062 242.871094 L 116.527344 232.515625 Z M 124.972656 193.671875 " clip-rule="nonzero"/></clipPath><clipPath id="d95d9116c3"><path d="M 124.972656 193.671875 L 172.609375 204.027344 L 164.164062 242.871094 L 116.527344 232.515625 Z M 124.972656 193.671875 " clip-rule="nonzero"/></clipPath><clipPath id="09b7b3971a"><path d="M 157 234 L 166 234 L 166 242 L 157 242 Z M 157 234 " clip-rule="nonzero"/></clipPath><clipPath id="36567bd3e8"><path d="M 124.972656 193.671875 L 172.609375 204.027344 L 164.164062 242.871094 L 116.527344 232.515625 Z M 124.972656 193.671875 " clip-rule="nonzero"/></clipPath><clipPath id="ca947bba4d"><path d="M 124.972656 193.671875 L 172.609375 204.027344 L 164.164062 242.871094 L 116.527344 232.515625 Z M 124.972656 193.671875 " clip-rule="nonzero"/></clipPath><clipPath id="17544aaab3"><path d="M 124.972656 193.671875 L 172.609375 204.027344 L 164.164062 242.871094 L 116.527344 232.515625 Z M 124.972656 193.671875 " clip-rule="nonzero"/></clipPath><clipPath id="8b8604aa7e"><path d="M 144 219 L 156 219 L 156 230 L 144 230 Z M 144 219 " clip-rule="nonzero"/></clipPath><clipPath id="1987b50db0"><path d="M 124.972656 193.671875 L 172.609375 204.027344 L 164.164062 242.871094 L 116.527344 232.515625 Z M 124.972656 193.671875 " clip-rule="nonzero"/></clipPath><clipPath id="1c99d14299"><path d="M 124.972656 193.671875 L 172.609375 204.027344 L 164.164062 242.871094 L 116.527344 232.515625 Z M 124.972656 193.671875 " clip-rule="nonzero"/></clipPath><clipPath id="5a9ec193eb"><path d="M 124.972656 193.671875 L 172.609375 204.027344 L 164.164062 242.871094 L 116.527344 232.515625 Z M 124.972656 193.671875 " clip-rule="nonzero"/></clipPath><clipPath id="3c4c712b7e"><path d="M 144 219 L 157 219 L 157 230 L 144 230 Z M 144 219 " clip-rule="nonzero"/></clipPath><clipPath id="08827e9df1"><path d="M 124.972656 193.671875 L 172.609375 204.027344 L 164.164062 242.871094 L 116.527344 232.515625 Z M 124.972656 193.671875 " clip-rule="nonzero"/></clipPath><clipPath id="642af47813"><path d="M 124.972656 193.671875 L 172.609375 204.027344 L 164.164062 242.871094 L 116.527344 232.515625 Z M 124.972656 193.671875 " clip-rule="nonzero"/></clipPath><clipPath id="7c3572e7bd"><path d="M 124.972656 193.671875 L 172.609375 204.027344 L 164.164062 242.871094 L 116.527344 232.515625 Z M 124.972656 193.671875 " clip-rule="nonzero"/></clipPath><clipPath id="6ebf042b1a"><path d="M 125 194 L 129 194 L 129 198 L 125 198 Z M 125 194 " clip-rule="nonzero"/></clipPath><clipPath id="2a062119b4"><path d="M 124.972656 193.671875 L 172.609375 204.027344 L 164.164062 242.871094 L 116.527344 232.515625 Z M 124.972656 193.671875 " clip-rule="nonzero"/></clipPath><clipPath id="530a35ae46"><path d="M 124.972656 193.671875 L 172.609375 204.027344 L 164.164062 242.871094 L 116.527344 232.515625 Z M 124.972656 193.671875 " clip-rule="nonzero"/></clipPath><clipPath id="7736570365"><path d="M 124.972656 193.671875 L 172.609375 204.027344 L 164.164062 242.871094 L 116.527344 232.515625 Z M 124.972656 193.671875 " clip-rule="nonzero"/></clipPath><clipPath id="2bb1485867"><path d="M 124 193 L 129 193 L 129 199 L 124 199 Z M 124 193 " clip-rule="nonzero"/></clipPath><clipPath id="edf6e6186d"><path d="M 124.972656 193.671875 L 172.609375 204.027344 L 164.164062 242.871094 L 116.527344 232.515625 Z M 124.972656 193.671875 " clip-rule="nonzero"/></clipPath><clipPath id="a3d45cfb5f"><path d="M 124.972656 193.671875 L 172.609375 204.027344 L 164.164062 242.871094 L 116.527344 232.515625 Z M 124.972656 193.671875 " clip-rule="nonzero"/></clipPath><clipPath id="a894f6a50e"><path d="M 124.972656 193.671875 L 172.609375 204.027344 L 164.164062 242.871094 L 116.527344 232.515625 Z M 124.972656 193.671875 " clip-rule="nonzero"/></clipPath><clipPath id="0e99cd91fc"><path d="M 143 219 L 146 219 L 146 221 L 143 221 Z M 143 219 " clip-rule="nonzero"/></clipPath><clipPath id="5f13920364"><path d="M 124.972656 193.671875 L 172.609375 204.027344 L 164.164062 242.871094 L 116.527344 232.515625 Z M 124.972656 193.671875 " clip-rule="nonzero"/></clipPath><clipPath id="dcab5750ea"><path d="M 124.972656 193.671875 L 172.609375 204.027344 L 164.164062 242.871094 L 116.527344 232.515625 Z M 124.972656 193.671875 " clip-rule="nonzero"/></clipPath><clipPath id="43eed35cd5"><path d="M 124.972656 193.671875 L 172.609375 204.027344 L 164.164062 242.871094 L 116.527344 232.515625 Z M 124.972656 193.671875 " clip-rule="nonzero"/></clipPath><clipPath id="51ea284af6"><path d="M 143 218 L 146 218 L 146 222 L 143 222 Z M 143 218 " clip-rule="nonzero"/></clipPath><clipPath id="9b12cdbc8c"><path d="M 124.972656 193.671875 L 172.609375 204.027344 L 164.164062 242.871094 L 116.527344 232.515625 Z M 124.972656 193.671875 " clip-rule="nonzero"/></clipPath><clipPath id="d666aa557f"><path d="M 124.972656 193.671875 L 172.609375 204.027344 L 164.164062 242.871094 L 116.527344 232.515625 Z M 124.972656 193.671875 " clip-rule="nonzero"/></clipPath><clipPath id="898403c4c2"><path d="M 124.972656 193.671875 L 172.609375 204.027344 L 164.164062 242.871094 L 116.527344 232.515625 Z M 124.972656 193.671875 " clip-rule="nonzero"/></clipPath><clipPath id="acc0684331"><path d="M 140 215 L 143 215 L 143 218 L 140 218 Z M 140 215 " clip-rule="nonzero"/></clipPath><clipPath id="1df8728132"><path d="M 124.972656 193.671875 L 172.609375 204.027344 L 164.164062 242.871094 L 116.527344 232.515625 Z M 124.972656 193.671875 " clip-rule="nonzero"/></clipPath><clipPath id="a228300a26"><path d="M 124.972656 193.671875 L 172.609375 204.027344 L 164.164062 242.871094 L 116.527344 232.515625 Z M 124.972656 193.671875 " clip-rule="nonzero"/></clipPath><clipPath id="d8d4fc8291"><path d="M 124.972656 193.671875 L 172.609375 204.027344 L 164.164062 242.871094 L 116.527344 232.515625 Z M 124.972656 193.671875 " clip-rule="nonzero"/></clipPath><clipPath id="03f428c25a"><path d="M 137 212 L 140 212 L 140 214 L 137 214 Z M 137 212 " clip-rule="nonzero"/></clipPath><clipPath id="63e931d12c"><path d="M 124.972656 193.671875 L 172.609375 204.027344 L 164.164062 242.871094 L 116.527344 232.515625 Z M 124.972656 193.671875 " clip-rule="nonzero"/></clipPath><clipPath id="bbd5e404f6"><path d="M 124.972656 193.671875 L 172.609375 204.027344 L 164.164062 242.871094 L 116.527344 232.515625 Z M 124.972656 193.671875 " clip-rule="nonzero"/></clipPath><clipPath id="f47fc26c48"><path d="M 124.972656 193.671875 L 172.609375 204.027344 L 164.164062 242.871094 L 116.527344 232.515625 Z M 124.972656 193.671875 " clip-rule="nonzero"/></clipPath><clipPath id="4983cae496"><path d="M 137 211 L 140 211 L 140 215 L 137 215 Z M 137 211 " clip-rule="nonzero"/></clipPath><clipPath id="d3fcebc834"><path d="M 124.972656 193.671875 L 172.609375 204.027344 L 164.164062 242.871094 L 116.527344 232.515625 Z M 124.972656 193.671875 " clip-rule="nonzero"/></clipPath><clipPath id="1f03a69636"><path d="M 124.972656 193.671875 L 172.609375 204.027344 L 164.164062 242.871094 L 116.527344 232.515625 Z M 124.972656 193.671875 " clip-rule="nonzero"/></clipPath><clipPath id="65f0a5c3c2"><path d="M 124.972656 193.671875 L 172.609375 204.027344 L 164.164062 242.871094 L 116.527344 232.515625 Z M 124.972656 193.671875 " clip-rule="nonzero"/></clipPath><clipPath id="45369d85e4"><path d="M 128 198 L 134 198 L 134 204 L 128 204 Z M 128 198 " clip-rule="nonzero"/></clipPath><clipPath id="579d3f9e26"><path d="M 124.972656 193.671875 L 172.609375 204.027344 L 164.164062 242.871094 L 116.527344 232.515625 Z M 124.972656 193.671875 " clip-rule="nonzero"/></clipPath><clipPath id="066ed2bcf0"><path d="M 124.972656 193.671875 L 172.609375 204.027344 L 164.164062 242.871094 L 116.527344 232.515625 Z M 124.972656 193.671875 " clip-rule="nonzero"/></clipPath><clipPath id="6c6f6737f1"><path d="M 124.972656 193.671875 L 172.609375 204.027344 L 164.164062 242.871094 L 116.527344 232.515625 Z M 124.972656 193.671875 " clip-rule="nonzero"/></clipPath><clipPath id="28282daa54"><path d="M 137 207 L 149 207 L 149 220 L 137 220 Z M 137 207 " clip-rule="nonzero"/></clipPath><clipPath id="0a20cec695"><path d="M 124.972656 193.671875 L 172.609375 204.027344 L 164.164062 242.871094 L 116.527344 232.515625 Z M 124.972656 193.671875 " clip-rule="nonzero"/></clipPath><clipPath id="25a58a2956"><path d="M 124.972656 193.671875 L 172.609375 204.027344 L 164.164062 242.871094 L 116.527344 232.515625 Z M 124.972656 193.671875 " clip-rule="nonzero"/></clipPath><clipPath id="f2905bc3d9"><path d="M 124.972656 193.671875 L 172.609375 204.027344 L 164.164062 242.871094 L 116.527344 232.515625 Z M 124.972656 193.671875 " clip-rule="nonzero"/></clipPath><clipPath id="4cc494b784"><path d="M 151 225 L 161 225 L 161 237 L 151 237 Z M 151 225 " clip-rule="nonzero"/></clipPath><clipPath id="fbb0b90fd2"><path d="M 124.972656 193.671875 L 172.609375 204.027344 L 164.164062 242.871094 L 116.527344 232.515625 Z M 124.972656 193.671875 " clip-rule="nonzero"/></clipPath><clipPath id="10fabdffe8"><path d="M 124.972656 193.671875 L 172.609375 204.027344 L 164.164062 242.871094 L 116.527344 232.515625 Z M 124.972656 193.671875 " clip-rule="nonzero"/></clipPath><clipPath id="4f77d88504"><path d="M 124.972656 193.671875 L 172.609375 204.027344 L 164.164062 242.871094 L 116.527344 232.515625 Z M 124.972656 193.671875 " clip-rule="nonzero"/></clipPath><clipPath id="0b8c59077e"><path d="M 159 235 L 165 235 L 165 240 L 159 240 Z M 159 235 " clip-rule="nonzero"/></clipPath><clipPath id="31cd69d883"><path d="M 124.972656 193.671875 L 172.609375 204.027344 L 164.164062 242.871094 L 116.527344 232.515625 Z M 124.972656 193.671875 " clip-rule="nonzero"/></clipPath><clipPath id="a21c846f15"><path d="M 124.972656 193.671875 L 172.609375 204.027344 L 164.164062 242.871094 L 116.527344 232.515625 Z M 124.972656 193.671875 " clip-rule="nonzero"/></clipPath><clipPath id="c957410c96"><path d="M 124.972656 193.671875 L 172.609375 204.027344 L 164.164062 242.871094 L 116.527344 232.515625 Z M 124.972656 193.671875 " clip-rule="nonzero"/></clipPath></defs><path fill="#f6f6f6" d="M 236.585938 196.339844 C 235.882812 196.945312 235.148438 197.53125 234.378906 198.09375 C 233.652344 198.621094 232.894531 199.128906 232.109375 199.605469 C 221.703125 205.914062 214.015625 206.398438 214.015625 206.398438 C 214.015625 206.398438 206.042969 195.140625 206.820312 193.101562 C 206.996094 192.640625 212.074219 194.945312 221.019531 188.25 C 221.964844 187.542969 222.816406 186.863281 223.589844 186.207031 C 224.351562 185.5625 225.035156 184.945312 225.648438 184.351562 C 230.332031 179.84375 230.941406 176.992188 230.941406 176.992188 C 230.941406 176.992188 246.699219 176.699219 247.28125 179.222656 C 247.777344 181.355469 244.035156 189.925781 236.585938 196.339844 Z M 236.585938 196.339844 " fill-opacity="1" fill-rule="nonzero"/><path fill="#f6f6f6" d="M 146.941406 236.28125 C 150.832031 246.542969 157.925781 246.140625 158.785156 244.21875 C 159.644531 242.292969 158.523438 239.929688 156.832031 237.304688 C 155.136719 234.679688 155.425781 228.933594 155.605469 229.140625 C 155.789062 229.347656 157.820312 234.574219 160.140625 234.445312 C 162.457031 234.3125 163.761719 231.066406 162.144531 228.023438 C 160.53125 224.980469 159.175781 223.160156 159.019531 221.1875 C 158.925781 220.027344 159.445312 215.683594 160.152344 211.730469 C 160.171875 211.628906 160.191406 211.53125 160.207031 211.433594 C 160.441406 210.144531 160.695312 208.90625 160.953125 207.84375 C 160.957031 207.832031 160.960938 207.820312 160.964844 207.804688 C 161.167969 206.984375 161.371094 206.269531 161.570312 205.722656 C 161.640625 205.523438 161.710938 205.351562 161.78125 205.199219 C 163.082031 202.390625 167.40625 192.929688 168.269531 191.8125 C 169.128906 190.691406 171.671875 188.171875 171.671875 188.171875 C 171.507812 188.0625 169.847656 187.65625 167.441406 187.863281 C 163.722656 188.179688 158.222656 189.976562 153.75 196.628906 C 152.414062 198.617188 151.207031 200.851562 150.15625 203.238281 C 150.03125 203.519531 149.910156 203.804688 149.789062 204.089844 C 149.433594 204.9375 149.097656 205.804688 148.78125 206.6875 C 148.753906 206.761719 148.726562 206.835938 148.699219 206.914062 C 145.105469 217.007812 144.109375 228.8125 146.941406 236.28125 Z M 146.941406 236.28125 " fill-opacity="1" fill-rule="nonzero"/><path fill="#54a3e6" d="M 148.699219 206.914062 C 150.78125 208.621094 153.046875 210.710938 160.152344 211.730469 C 160.171875 211.628906 160.191406 211.53125 160.207031 211.433594 C 160.441406 210.144531 160.695312 208.90625 160.953125 207.84375 C 159.5625 207.648438 153.109375 206.609375 149.789062 204.089844 C 149.433594 204.9375 149.097656 205.804688 148.78125 206.6875 C 148.753906 206.761719 148.726562 206.835938 148.699219 206.914062 Z M 148.699219 206.914062 " fill-opacity="1" fill-rule="nonzero"/><path fill="#f6f6f6" d="M 161.078125 223.144531 C 165.109375 240.339844 207.625 246.992188 217.210938 229.109375 C 220.210938 223.511719 221.238281 217.226562 221.210938 211.203125 C 221.207031 209.917969 221.152344 208.640625 221.0625 207.386719 C 220.203125 195.75 215.976562 185.949219 215.542969 185.433594 L 167.472656 186.820312 C 167.472656 186.820312 162.265625 196.378906 160.636719 208.058594 C 160.464844 209.28125 160.332031 210.527344 160.25 211.789062 C 160.007812 215.519531 160.195312 219.378906 161.078125 223.144531 Z M 161.078125 223.144531 " fill-opacity="1" fill-rule="nonzero"/><g clip-path="url(#1ed91854a7)"><path fill="#f6f6f6" d="M 196.570312 244.667969 C 196.59375 245.742188 196.628906 246.839844 196.679688 247.925781 C 196.90625 252.640625 197.4375 257.148438 198.59375 258.75 C 201.371094 262.59375 218.042969 263.992188 220.40625 260.496094 C 222.769531 257 214.988281 253.621094 214.988281 253.621094 C 215.582031 252.257812 215.722656 249.878906 215.613281 247.15625 C 215.570312 246.113281 215.488281 245.019531 215.382812 243.910156 C 214.789062 237.75 213.378906 231.195312 213.042969 230.773438 L 196.648438 234.269531 C 196.648438 234.269531 196.449219 239.1875 196.570312 244.667969 Z M 196.570312 244.667969 " fill-opacity="1" fill-rule="nonzero"/></g><path fill="#54a3e6" d="M 196.570312 244.667969 C 196.59375 245.742188 196.628906 246.839844 196.679688 247.925781 C 198.429688 248.308594 200.226562 248.554688 202.027344 248.6875 C 204.144531 248.847656 206.285156 248.816406 208.394531 248.597656 C 210.660156 248.363281 212.886719 247.972656 215.042969 247.332031 C 215.234375 247.273438 215.425781 247.214844 215.613281 247.15625 C 215.570312 246.113281 215.488281 245.019531 215.382812 243.910156 C 215.382812 243.910156 215.382812 243.910156 215.378906 243.910156 C 215.378906 243.914062 215.375 243.914062 215.375 243.914062 C 213.15625 244.679688 210.824219 245.203125 208.449219 245.488281 C 207.957031 245.539062 207.464844 245.582031 206.96875 245.613281 C 204.964844 245.738281 202.949219 245.695312 200.957031 245.488281 C 199.472656 245.308594 198.003906 245.035156 196.570312 244.667969 Z M 196.570312 244.667969 " fill-opacity="1" fill-rule="nonzero"/><g clip-path="url(#cfc89e88f3)"><path fill="#f6f6f6" d="M 186.078125 244.667969 C 186.054688 245.742188 186.019531 246.839844 185.96875 247.925781 C 185.742188 252.640625 185.210938 257.148438 184.054688 258.75 C 181.277344 262.59375 164.605469 263.992188 162.242188 260.496094 C 159.878906 257 167.660156 253.621094 167.660156 253.621094 C 167.066406 252.257812 166.925781 249.878906 167.039062 247.15625 C 167.078125 246.113281 167.160156 245.019531 167.265625 243.910156 C 167.859375 237.75 169.269531 231.195312 169.605469 230.773438 L 186 234.269531 C 186 234.269531 186.199219 239.1875 186.082031 244.667969 Z M 186.078125 244.667969 " fill-opacity="1" fill-rule="nonzero"/></g><path fill="#54a3e6" d="M 186.078125 244.667969 C 186.054688 245.742188 186.019531 246.839844 185.96875 247.925781 C 184.21875 248.308594 182.425781 248.554688 180.621094 248.6875 C 178.503906 248.847656 176.367188 248.816406 174.253906 248.597656 C 171.988281 248.363281 169.761719 247.972656 167.605469 247.332031 C 167.414062 247.273438 167.226562 247.214844 167.035156 247.15625 C 167.078125 246.113281 167.160156 245.019531 167.265625 243.910156 C 167.265625 243.910156 167.269531 243.910156 167.269531 243.910156 C 167.269531 243.914062 167.273438 243.914062 167.273438 243.914062 C 169.496094 244.679688 171.824219 245.203125 174.199219 245.488281 C 174.691406 245.539062 175.183594 245.582031 175.679688 245.613281 C 177.683594 245.738281 179.699219 245.695312 181.691406 245.488281 C 183.179688 245.308594 184.644531 245.035156 186.078125 244.667969 Z M 186.078125 244.667969 " fill-opacity="1" fill-rule="nonzero"/><path fill="#54a3e6" d="M 193.808594 246.304688 C 193.953125 246.367188 194.101562 246.429688 194.25 246.488281 C 194.183594 246.460938 194.121094 246.433594 194.054688 246.40625 C 193.972656 246.371094 193.890625 246.339844 193.808594 246.304688 Z M 193.808594 246.304688 " fill-opacity="1" fill-rule="nonzero"/><path fill="#54a3e6" d="M 160.25 211.789062 C 160.691406 211.914062 161.136719 212.03125 161.582031 212.140625 C 164.835938 212.941406 168.171875 213.320312 171.511719 213.570312 C 174.828125 213.820312 178.152344 214.019531 181.472656 214.207031 C 184.808594 214.398438 188.144531 214.550781 191.484375 214.605469 C 194.835938 214.664062 198.1875 214.625 201.535156 214.4375 C 204.769531 214.253906 208 213.921875 211.203125 213.429688 C 213.929688 213.011719 216.632812 212.460938 219.296875 211.746094 C 219.617188 211.660156 219.941406 211.574219 220.261719 211.480469 C 220.578125 211.390625 220.894531 211.300781 221.210938 211.203125 C 221.207031 209.917969 221.152344 208.640625 221.0625 207.386719 C 219.25 207.957031 217.410156 208.445312 215.558594 208.863281 C 213.339844 209.363281 211.09375 209.757812 208.84375 210.066406 C 208.605469 210.097656 208.367188 210.128906 208.128906 210.160156 C 205.519531 210.480469 202.898438 210.6875 200.269531 210.804688 C 197.476562 210.933594 194.679688 210.957031 191.882812 210.917969 C 189.082031 210.875 186.289062 210.765625 183.492188 210.625 C 180.695312 210.480469 177.902344 210.300781 175.109375 210.121094 C 172.453125 209.945312 169.789062 209.789062 167.148438 209.449219 C 166.207031 209.320312 165.269531 209.164062 164.339844 208.976562 C 163.089844 208.722656 161.855469 208.414062 160.636719 208.054688 C 160.464844 209.28125 160.332031 210.527344 160.25 211.789062 Z M 160.25 211.789062 " fill-opacity="1" fill-rule="nonzero"/><path fill="#f6f6f6" d="M 228.042969 140.6875 C 227.863281 140.699219 227.859375 121.230469 227.859375 121.230469 L 232.429688 120.867188 C 232.429688 120.867188 235.171875 144.6875 234.726562 144.765625 C 234.28125 144.839844 228.042969 140.6875 228.042969 140.6875 Z M 228.042969 140.6875 " fill-opacity="1" fill-rule="nonzero"/><path fill="#f6f6f6" d="M 233.871094 117.75 C 233.871094 118.019531 233.84375 118.285156 233.792969 118.550781 C 233.738281 118.8125 233.660156 119.070312 233.558594 119.320312 C 233.453125 119.566406 233.328125 119.804688 233.175781 120.027344 C 233.027344 120.253906 232.855469 120.460938 232.667969 120.652344 C 232.476562 120.839844 232.265625 121.011719 232.042969 121.160156 C 231.816406 121.3125 231.582031 121.4375 231.332031 121.539062 C 231.082031 121.644531 230.824219 121.722656 230.558594 121.773438 C 230.296875 121.828125 230.027344 121.851562 229.757812 121.851562 C 229.488281 121.851562 229.21875 121.828125 228.957031 121.773438 C 228.691406 121.722656 228.433594 121.644531 228.183594 121.539062 C 227.933594 121.4375 227.695312 121.3125 227.472656 121.160156 C 227.246094 121.011719 227.039062 120.839844 226.847656 120.652344 C 226.660156 120.460938 226.488281 120.253906 226.335938 120.027344 C 226.1875 119.804688 226.0625 119.566406 225.957031 119.320312 C 225.855469 119.070312 225.777344 118.8125 225.722656 118.550781 C 225.671875 118.285156 225.644531 118.019531 225.644531 117.75 C 225.644531 117.480469 225.671875 117.210938 225.722656 116.949219 C 225.777344 116.683594 225.855469 116.425781 225.957031 116.175781 C 226.0625 115.929688 226.1875 115.691406 226.335938 115.46875 C 226.488281 115.242188 226.660156 115.035156 226.847656 114.847656 C 227.039062 114.65625 227.246094 114.484375 227.472656 114.335938 C 227.695312 114.1875 227.933594 114.058594 228.183594 113.957031 C 228.433594 113.851562 228.691406 113.773438 228.957031 113.722656 C 229.21875 113.671875 229.488281 113.644531 229.757812 113.644531 C 230.027344 113.644531 230.296875 113.671875 230.558594 113.722656 C 230.824219 113.773438 231.082031 113.851562 231.332031 113.957031 C 231.582031 114.058594 231.816406 114.1875 232.042969 114.335938 C 232.265625 114.484375 232.476562 114.65625 232.667969 114.847656 C 232.855469 115.035156 233.027344 115.242188 233.175781 115.46875 C 233.328125 115.691406 233.453125 115.929688 233.558594 116.175781 C 233.660156 116.425781 233.738281 116.683594 233.792969 116.949219 C 233.84375 117.210938 233.871094 117.480469 233.871094 117.75 Z M 233.871094 117.75 " fill-opacity="1" fill-rule="nonzero"/><path fill="#54a3e6" d="M 232.40625 168.375 L 230.503906 168.601562 C 226.066406 169.132812 222.039062 165.972656 221.503906 161.546875 L 219.703125 146.582031 C 219.171875 142.15625 222.335938 138.132812 226.773438 137.601562 L 228.675781 137.375 C 233.113281 136.84375 237.140625 140 237.671875 144.429688 L 239.472656 159.394531 C 240.007812 163.820312 236.84375 167.84375 232.40625 168.375 Z M 232.40625 168.375 " fill-opacity="1" fill-rule="nonzero"/><path fill="#f6f6f6" d="M 138.800781 150.691406 C 138.976562 150.65625 133.761719 131.894531 133.761719 131.894531 L 129.257812 132.765625 C 129.257812 132.765625 133.003906 156.453125 133.453125 156.40625 C 133.902344 156.359375 138.800781 150.691406 138.800781 150.691406 Z M 138.800781 150.691406 " fill-opacity="1" fill-rule="nonzero"/><g clip-path="url(#f18b3341f0)"><path fill="#f6f6f6" d="M 135.113281 129.046875 C 135.113281 129.316406 135.085938 129.582031 135.03125 129.847656 C 134.980469 130.113281 134.902344 130.367188 134.796875 130.617188 C 134.695312 130.867188 134.566406 131.101562 134.417969 131.328125 C 134.269531 131.550781 134.097656 131.757812 133.90625 131.949219 C 133.714844 132.140625 133.507812 132.308594 133.285156 132.460938 C 133.058594 132.609375 132.820312 132.734375 132.574219 132.839844 C 132.324219 132.941406 132.066406 133.019531 131.800781 133.074219 C 131.535156 133.125 131.269531 133.152344 131 133.152344 C 130.726562 133.152344 130.460938 133.125 130.195312 133.074219 C 129.929688 133.019531 129.671875 132.941406 129.425781 132.839844 C 129.175781 132.734375 128.9375 132.609375 128.714844 132.460938 C 128.488281 132.308594 128.28125 132.140625 128.089844 131.949219 C 127.898438 131.757812 127.726562 131.550781 127.578125 131.328125 C 127.429688 131.101562 127.300781 130.867188 127.199219 130.617188 C 127.09375 130.367188 127.015625 130.113281 126.964844 129.847656 C 126.910156 129.582031 126.886719 129.316406 126.886719 129.046875 C 126.886719 128.777344 126.910156 128.511719 126.964844 128.246094 C 127.015625 127.980469 127.09375 127.726562 127.199219 127.476562 C 127.300781 127.226562 127.429688 126.992188 127.578125 126.765625 C 127.726562 126.542969 127.898438 126.335938 128.089844 126.144531 C 128.28125 125.953125 128.488281 125.785156 128.714844 125.632812 C 128.9375 125.484375 129.175781 125.359375 129.425781 125.253906 C 129.671875 125.152344 129.929688 125.074219 130.195312 125.023438 C 130.460938 124.96875 130.726562 124.941406 131 124.941406 C 131.269531 124.941406 131.535156 124.96875 131.800781 125.023438 C 132.066406 125.074219 132.324219 125.152344 132.574219 125.253906 C 132.820312 125.359375 133.058594 125.484375 133.285156 125.632812 C 133.507812 125.785156 133.714844 125.953125 133.90625 126.144531 C 134.097656 126.335938 134.269531 126.542969 134.417969 126.765625 C 134.566406 126.992188 134.695312 127.226562 134.796875 127.476562 C 134.902344 127.726562 134.980469 127.980469 135.03125 128.246094 C 135.085938 128.511719 135.113281 128.777344 135.113281 129.046875 Z M 135.113281 129.046875 " fill-opacity="1" fill-rule="nonzero"/></g><path fill="#54a3e6" d="M 142.023438 178.53125 L 143.914062 178.246094 C 148.332031 177.574219 151.367188 173.453125 150.695312 169.046875 L 148.414062 154.144531 C 147.742188 149.738281 143.613281 146.707031 139.195312 147.382812 L 137.304688 147.667969 C 132.886719 148.339844 129.851562 152.460938 130.523438 156.867188 L 132.804688 171.769531 C 133.476562 176.175781 137.605469 179.207031 142.023438 178.53125 Z M 142.023438 178.53125 " fill-opacity="1" fill-rule="nonzero"/><g clip-path="url(#0469569220)"><path fill="#f6f6f6" d="M 231.601562 153.886719 C 234.699219 177.410156 216.289062 195.085938 190.839844 198.421875 C 165.386719 201.757812 142.527344 189.496094 139.429688 165.972656 C 136.332031 142.449219 143.851562 118.296875 179.621094 113.234375 C 215.59375 108.140625 228.503906 130.363281 231.601562 153.886719 Z M 231.601562 153.886719 " fill-opacity="1" fill-rule="nonzero"/></g><path fill="#160e0b" d="M 166.152344 134.117188 C 166.152344 134.117188 150.730469 136.984375 149.167969 150.761719 C 147.695312 163.746094 149.28125 185.167969 174.878906 188.667969 C 200.480469 192.167969 219.367188 180.425781 222.40625 163.667969 C 225.441406 146.910156 218.472656 133.125 208.707031 130.921875 C 195.277344 127.898438 166.152344 134.117188 166.152344 134.117188 Z M 166.152344 134.117188 " fill-opacity="1" fill-rule="nonzero"/><path fill="#54a3e6" d="M 209.976562 152.535156 C 210.011719 153.050781 210.011719 153.566406 209.976562 154.078125 C 209.9375 154.589844 209.867188 155.089844 209.757812 155.578125 C 209.648438 156.066406 209.507812 156.53125 209.332031 156.976562 C 209.160156 157.421875 208.953125 157.835938 208.71875 158.21875 C 208.480469 158.601562 208.222656 158.949219 207.933594 159.257812 C 207.648438 159.566406 207.339844 159.832031 207.011719 160.050781 C 206.6875 160.273438 206.34375 160.449219 205.988281 160.574219 C 205.636719 160.699219 205.273438 160.777344 204.902344 160.800781 C 204.535156 160.828125 204.167969 160.800781 203.796875 160.726562 C 203.429688 160.652344 203.066406 160.527344 202.710938 160.351562 C 202.355469 160.175781 202.015625 159.957031 201.6875 159.691406 C 201.363281 159.425781 201.054688 159.117188 200.769531 158.769531 C 200.484375 158.421875 200.222656 158.042969 199.988281 157.625 C 199.75 157.210938 199.546875 156.769531 199.371094 156.300781 C 199.199219 155.832031 199.058594 155.347656 198.949219 154.84375 C 198.84375 154.34375 198.769531 153.832031 198.734375 153.316406 C 198.699219 152.796875 198.699219 152.285156 198.734375 151.773438 C 198.773438 151.257812 198.84375 150.761719 198.953125 150.273438 C 199.058594 149.785156 199.203125 149.320312 199.375 148.875 C 199.550781 148.429688 199.757812 148.015625 199.992188 147.632812 C 200.226562 147.25 200.488281 146.902344 200.777344 146.59375 C 201.0625 146.285156 201.371094 146.019531 201.695312 145.796875 C 202.023438 145.578125 202.363281 145.402344 202.71875 145.277344 C 203.074219 145.152344 203.4375 145.074219 203.804688 145.050781 C 204.175781 145.023438 204.542969 145.050781 204.914062 145.125 C 205.28125 145.199219 205.644531 145.324219 206 145.5 C 206.351562 145.675781 206.695312 145.894531 207.019531 146.160156 C 207.347656 146.425781 207.65625 146.734375 207.941406 147.082031 C 208.226562 147.429688 208.488281 147.808594 208.722656 148.226562 C 208.957031 148.640625 209.164062 149.082031 209.335938 149.550781 C 209.511719 150.019531 209.652344 150.503906 209.761719 151.007812 C 209.867188 151.507812 209.941406 152.019531 209.976562 152.535156 Z M 209.976562 152.535156 " fill-opacity="1" fill-rule="nonzero"/><path fill="#54a3e6" d="M 172.765625 156.558594 C 172.800781 157.074219 172.800781 157.589844 172.765625 158.101562 C 172.726562 158.613281 172.65625 159.113281 172.546875 159.601562 C 172.4375 160.089844 172.296875 160.554688 172.121094 161 C 171.949219 161.445312 171.742188 161.855469 171.507812 162.242188 C 171.269531 162.625 171.011719 162.972656 170.722656 163.28125 C 170.4375 163.589844 170.128906 163.851562 169.800781 164.074219 C 169.476562 164.296875 169.132812 164.46875 168.777344 164.597656 C 168.425781 164.722656 168.0625 164.796875 167.691406 164.824219 C 167.324219 164.847656 166.957031 164.824219 166.585938 164.75 C 166.21875 164.671875 165.855469 164.546875 165.5 164.375 C 165.144531 164.199219 164.804688 163.980469 164.476562 163.714844 C 164.152344 163.449219 163.84375 163.140625 163.558594 162.792969 C 163.273438 162.445312 163.011719 162.0625 162.777344 161.648438 C 162.539062 161.230469 162.335938 160.789062 162.160156 160.324219 C 161.988281 159.855469 161.847656 159.371094 161.738281 158.867188 C 161.632812 158.363281 161.558594 157.855469 161.523438 157.339844 C 161.488281 156.820312 161.488281 156.304688 161.523438 155.792969 C 161.5625 155.28125 161.632812 154.78125 161.742188 154.292969 C 161.847656 153.808594 161.992188 153.339844 162.164062 152.898438 C 162.339844 152.453125 162.546875 152.039062 162.78125 151.65625 C 163.015625 151.269531 163.277344 150.925781 163.566406 150.617188 C 163.851562 150.308594 164.160156 150.042969 164.484375 149.820312 C 164.8125 149.597656 165.152344 149.425781 165.507812 149.300781 C 165.863281 149.171875 166.226562 149.097656 166.59375 149.070312 C 166.964844 149.046875 167.332031 149.070312 167.703125 149.148438 C 168.070312 149.222656 168.433594 149.347656 168.789062 149.523438 C 169.140625 149.695312 169.484375 149.917969 169.808594 150.183594 C 170.136719 150.449219 170.445312 150.753906 170.730469 151.101562 C 171.015625 151.449219 171.277344 151.832031 171.511719 152.246094 C 171.746094 152.664062 171.953125 153.105469 172.125 153.574219 C 172.300781 154.042969 172.441406 154.527344 172.550781 155.027344 C 172.65625 155.53125 172.726562 156.039062 172.765625 156.558594 Z M 172.765625 156.558594 " fill-opacity="1" fill-rule="nonzero"/><path fill="#160e0b" d="M 155.785156 146.621094 L 171.351562 143.675781 L 173.519531 155.097656 L 157.957031 158.042969 Z M 155.785156 146.621094 " fill-opacity="1" fill-rule="nonzero"/><path fill="#160e0b" d="M 193.0625 142.90625 L 208.625 139.960938 L 210.796875 151.378906 L 195.230469 154.324219 Z M 193.0625 142.90625 " fill-opacity="1" fill-rule="nonzero"/><path fill="#54a3e6" d="M 164.328125 164.425781 Z M 164.332031 164.425781 Z M 160.910156 153.769531 C 160.910156 153.769531 160.914062 153.769531 160.914062 153.769531 C 160.914062 153.769531 160.910156 153.769531 160.910156 153.769531 Z M 160.910156 153.769531 Z M 160.910156 153.769531 " fill-opacity="1" fill-rule="nonzero"/><g clip-path="url(#2ddd4bc1d8)"><path fill="#f6f6f6" d="M 230.457031 176.40625 C 230.457031 176.40625 230.648438 173.789062 230.648438 173.398438 C 230.648438 173.011719 225.980469 170.292969 227.050781 167.285156 C 228.121094 164.273438 231.363281 165.375 231.363281 165.375 C 231.363281 165.375 228.21875 152.53125 229.96875 149.035156 C 231.71875 145.542969 234.636719 145.445312 236.292969 147 C 237.945312 148.550781 238.140625 158.644531 238.140625 158.644531 C 238.140625 158.644531 241.738281 156.605469 245.53125 159.714844 C 249.324219 162.820312 248.644531 177.085938 247.28125 179.222656 C 245.921875 181.359375 231.136719 179.320312 230.457031 176.40625 Z M 230.457031 176.40625 " fill-opacity="1" fill-rule="nonzero"/></g><path fill="#160e0b" d="M 230.457031 176.691406 C 230.449219 176.691406 230.441406 176.691406 230.433594 176.691406 C 230.277344 176.679688 230.160156 176.542969 230.171875 176.386719 C 230.234375 175.535156 230.351562 173.894531 230.363281 173.464844 C 230.28125 173.367188 230.03125 173.152344 229.804688 172.964844 C 228.539062 171.890625 225.90625 169.664062 226.785156 167.191406 C 227.386719 165.496094 228.636719 165.023438 229.578125 164.921875 C 230.128906 164.863281 230.632812 164.921875 230.980469 164.988281 C 230.746094 163.972656 230.167969 161.382812 229.730469 158.5625 C 228.96875 153.660156 228.960938 150.414062 229.714844 148.910156 C 230.589844 147.167969 231.859375 146.066406 233.289062 145.8125 C 234.4375 145.609375 235.605469 145.964844 236.484375 146.792969 C 237.234375 147.496094 237.765625 149.648438 238.117188 153.378906 C 238.371094 156.078125 238.421875 158.617188 238.421875 158.640625 C 238.425781 158.796875 238.300781 158.925781 238.144531 158.929688 C 237.988281 158.933594 237.859375 158.808594 237.855469 158.652344 C 237.855469 158.628906 237.804688 156.105469 237.550781 153.429688 C 237.117188 148.796875 236.453125 147.542969 236.097656 147.207031 C 235.347656 146.503906 234.359375 146.199219 233.386719 146.371094 C 232.136719 146.59375 231.015625 147.585938 230.222656 149.164062 C 229.53125 150.542969 229.554688 153.761719 230.289062 158.472656 C 230.847656 162.070312 231.628906 165.277344 231.636719 165.308594 C 231.664062 165.410156 231.628906 165.515625 231.554688 165.585938 C 231.476562 165.65625 231.367188 165.679688 231.269531 165.644531 C 231.261719 165.644531 230.492188 165.386719 229.621094 165.488281 C 228.496094 165.613281 227.71875 166.25 227.316406 167.378906 C 226.996094 168.289062 227.210938 169.246094 227.976562 170.316406 C 228.636719 171.234375 229.5625 172.015625 230.171875 172.53125 C 230.742188 173.015625 230.933594 173.175781 230.933594 173.402344 C 230.933594 173.792969 230.746094 176.324219 230.738281 176.429688 C 230.726562 176.578125 230.601562 176.691406 230.453125 176.691406 Z M 230.457031 176.691406 " fill-opacity="1" fill-rule="nonzero"/><path fill="#000000" d="M 231.945312 165.894531 C 233.902344 166.921875 236.027344 168.042969 237.136719 170.050781 C 237.402344 170.53125 237.597656 171.070312 237.582031 171.625 C 237.570312 172.167969 237.308594 172.648438 236.972656 173.0625 C 236.636719 173.480469 236.25 173.890625 235.777344 174.160156 C 235.316406 174.417969 234.777344 174.539062 234.25 174.546875 C 233.152344 174.5625 232.082031 174.09375 231.351562 173.277344 C 231.136719 173.035156 230.78125 173.390625 230.996094 173.628906 C 231.722656 174.441406 232.761719 174.933594 233.84375 175.03125 C 234.394531 175.078125 234.964844 175.015625 235.488281 174.832031 C 236.070312 174.628906 236.554688 174.265625 236.976562 173.820312 C 237.382812 173.386719 237.769531 172.902344 237.960938 172.335938 C 238.160156 171.753906 238.097656 171.117188 237.902344 170.546875 C 237.523438 169.445312 236.726562 168.5 235.851562 167.75 C 234.753906 166.8125 233.472656 166.132812 232.199219 165.460938 C 231.914062 165.3125 231.660156 165.742188 231.945312 165.894531 Z M 231.945312 165.894531 " fill-opacity="1" fill-rule="nonzero"/><path fill="#000000" d="M 237.710938 158.679688 C 236.796875 159.589844 236.019531 160.636719 235.421875 161.777344 C 234.835938 162.894531 234.371094 164.132812 234.179688 165.382812 C 234.082031 166 234.089844 166.722656 234.601562 167.167969 C 234.84375 167.378906 235.199219 167.027344 234.953125 166.8125 C 234.574219 166.484375 234.59375 165.925781 234.667969 165.46875 C 234.765625 164.886719 234.925781 164.308594 235.113281 163.75 C 235.5 162.613281 236.058594 161.539062 236.757812 160.5625 C 237.148438 160.015625 237.589844 159.507812 238.066406 159.035156 C 238.292969 158.808594 237.941406 158.453125 237.710938 158.679688 Z M 237.710938 158.679688 " fill-opacity="1" fill-rule="nonzero"/><path fill="#000000" d="M 238.097656 169.84375 C 239.050781 170.179688 240.144531 170.207031 241.074219 169.773438 C 242.015625 169.332031 242.550781 168.417969 242.8125 167.449219 C 242.964844 166.886719 243.035156 166.308594 243.105469 165.730469 C 243.117188 165.625 243.019531 165.515625 242.921875 165.488281 C 242.742188 165.441406 242.554688 165.535156 242.511719 165.726562 C 242.449219 166.039062 242.929688 166.175781 242.996094 165.859375 L 242.886719 165.964844 L 242.753906 165.964844 L 242.789062 165.972656 C 242.726562 165.890625 242.664062 165.8125 242.605469 165.730469 C 242.5 166.613281 242.378906 167.550781 241.921875 168.332031 C 241.457031 169.113281 240.652344 169.546875 239.75 169.59375 C 239.230469 169.621094 238.71875 169.535156 238.230469 169.359375 C 237.925781 169.253906 237.796875 169.734375 238.097656 169.84375 Z M 238.097656 169.84375 " fill-opacity="1" fill-rule="nonzero"/><path fill="#54a3e6" d="M 236.585938 196.339844 C 235.882812 196.945312 235.148438 197.53125 234.378906 198.09375 C 231.546875 196.203125 228.996094 193.882812 226.886719 191.214844 C 225.777344 189.808594 224.765625 188.335938 223.894531 186.769531 C 223.792969 186.582031 223.691406 186.394531 223.589844 186.207031 C 224.351562 185.5625 225.035156 184.945312 225.648438 184.351562 C 225.9375 184.933594 226.242188 185.503906 226.574219 186.066406 C 227.214844 187.160156 227.921875 188.210938 228.691406 189.214844 C 229.027344 189.644531 229.371094 190.058594 229.726562 190.46875 C 231.054688 191.996094 232.53125 193.394531 234.128906 194.644531 C 234.128906 194.644531 234.132812 194.648438 234.136719 194.648438 C 234.558594 194.972656 234.988281 195.285156 235.429688 195.585938 C 235.808594 195.847656 236.195312 196.097656 236.585938 196.339844 Z M 236.585938 196.339844 " fill-opacity="1" fill-rule="nonzero"/><path fill="#54a3e6" d="M 184.742188 205.601562 L 193.710938 205.601562 C 193.9375 205.601562 194.152344 205.644531 194.359375 205.730469 C 194.566406 205.816406 194.75 205.9375 194.90625 206.097656 C 195.066406 206.253906 195.1875 206.4375 195.273438 206.644531 C 195.359375 206.851562 195.402344 207.066406 195.402344 207.289062 C 195.402344 207.511719 195.359375 207.726562 195.273438 207.933594 C 195.1875 208.140625 195.066406 208.320312 194.90625 208.480469 C 194.75 208.636719 194.566406 208.761719 194.359375 208.84375 C 194.152344 208.929688 193.9375 208.972656 193.710938 208.972656 L 184.742188 208.972656 C 184.519531 208.972656 184.304688 208.929688 184.097656 208.84375 C 183.890625 208.761719 183.707031 208.636719 183.546875 208.480469 C 183.390625 208.320312 183.269531 208.140625 183.183594 207.933594 C 183.097656 207.726562 183.054688 207.511719 183.054688 207.289062 C 183.054688 207.066406 183.097656 206.851562 183.183594 206.644531 C 183.269531 206.4375 183.390625 206.253906 183.546875 206.097656 C 183.707031 205.9375 183.890625 205.816406 184.097656 205.730469 C 184.304688 205.644531 184.519531 205.601562 184.742188 205.601562 Z M 184.742188 205.601562 " fill-opacity="1" fill-rule="nonzero"/><path fill="#54a3e6" d="M 179.753906 172.410156 C 179.996094 171.980469 180.269531 171.566406 180.566406 171.171875 C 180.703125 170.992188 180.445312 171.324219 180.546875 171.195312 C 180.589844 171.144531 180.632812 171.089844 180.671875 171.039062 C 180.753906 170.941406 180.832031 170.84375 180.914062 170.75 C 181.074219 170.566406 181.242188 170.390625 181.410156 170.214844 C 181.765625 169.855469 182.140625 169.523438 182.535156 169.210938 C 182.664062 169.109375 182.332031 169.367188 182.511719 169.230469 C 182.558594 169.195312 182.609375 169.160156 182.65625 169.125 C 182.757812 169.050781 182.859375 168.976562 182.960938 168.90625 C 183.171875 168.761719 183.382812 168.625 183.597656 168.496094 C 184.082031 168.210938 184.582031 167.957031 185.101562 167.738281 L 184.863281 167.835938 C 185.792969 167.449219 186.769531 167.175781 187.773438 167.042969 L 187.503906 167.078125 C 188.519531 166.945312 189.546875 166.949219 190.558594 167.082031 L 190.292969 167.046875 C 191.34375 167.191406 192.367188 167.472656 193.34375 167.878906 L 193.105469 167.777344 C 193.761719 168.054688 194.394531 168.390625 194.992188 168.777344 C 195.140625 168.875 195.285156 168.972656 195.429688 169.078125 C 195.5 169.128906 195.570312 169.179688 195.640625 169.234375 C 195.695312 169.273438 195.804688 169.375 195.585938 169.1875 C 195.617188 169.21875 195.65625 169.242188 195.6875 169.269531 C 195.972656 169.496094 196.242188 169.734375 196.5 169.988281 C 196.878906 170.351562 197.546875 170.386719 197.917969 169.988281 C 198.285156 169.585938 198.320312 168.964844 197.917969 168.574219 C 195.675781 166.40625 192.648438 165.136719 189.535156 164.992188 C 188.058594 164.925781 186.554688 165.132812 185.152344 165.601562 C 183.703125 166.085938 182.382812 166.816406 181.179688 167.75 C 179.90625 168.746094 178.820312 170 178.023438 171.402344 C 177.765625 171.859375 177.902344 172.515625 178.382812 172.769531 C 178.859375 173.019531 179.476562 172.898438 179.753906 172.410156 Z M 179.753906 172.410156 " fill-opacity="1" fill-rule="nonzero"/><g clip-path="url(#928c66bf9f)"><path fill="#1f2b5b" d="M 206.21875 196.902344 L 206.21875 193.679688 L 208.46875 193.679688 C 208.46875 193.679688 208.5 195.191406 207.921875 195.796875 C 207.347656 196.40625 206.21875 196.902344 206.21875 196.902344 Z M 206.21875 196.902344 " fill-opacity="1" fill-rule="nonzero"/></g><g clip-path="url(#2c6cab36ad)"><g clip-path="url(#d9de7569ce)"><path fill="url(#c7ae4e5807)" d="M 202.46875 193.804688 L 202.46875 199.667969 L 208.472656 199.667969 L 208.472656 193.804688 Z M 202.46875 193.804688 " fill-rule="nonzero"/></g></g><g clip-path="url(#a81fa35b0c)"><path fill="#1f2b5b" d="M 208.46875 199.441406 L 208.46875 202.664062 L 206.21875 202.664062 C 206.21875 202.664062 206.1875 201.15625 206.761719 200.546875 C 207.339844 199.941406 208.46875 199.441406 208.46875 199.441406 Z M 208.46875 199.441406 " fill-opacity="1" fill-rule="nonzero"/></g><g clip-path="url(#9a69c41232)"><g clip-path="url(#f42043502d)"><path fill="url(#b4b144b822)" d="M 212.21875 202.542969 L 212.21875 196.675781 L 206.214844 196.675781 L 206.214844 202.542969 Z M 212.21875 202.542969 " fill-rule="nonzero"/></g></g><g clip-path="url(#04eaf2e5d9)"><g clip-path="url(#26163243a8)"><g clip-path="url(#d31e85e60c)"><path fill="#002d75" d="M 197.269531 104.984375 C 197.308594 105.320312 197.332031 105.652344 197.332031 105.984375 C 196.421875 105.484375 195.460938 105.078125 194.46875 104.773438 C 189.488281 103.257812 184.40625 102.804688 179.367188 103.425781 C 174.324219 104.046875 169.503906 105.71875 165.039062 108.398438 C 164.148438 108.933594 163.316406 109.5625 162.554688 110.269531 C 162.476562 109.949219 162.414062 109.617188 162.375 109.28125 C 161.804688 104.660156 165.101562 100.441406 169.722656 99.871094 L 187.855469 97.636719 C 192.476562 97.066406 196.699219 100.363281 197.269531 104.984375 Z M 197.269531 104.984375 " fill-opacity="1" fill-rule="nonzero"/></g></g></g><g clip-path="url(#2251721230)"><g clip-path="url(#d42fce7351)"><g clip-path="url(#cd635c2500)"><path fill="#002d75" d="M 197.21875 107.378906 C 196.285156 106.8125 195.242188 106.339844 194.097656 105.988281 C 189.289062 104.527344 184.382812 104.089844 179.519531 104.6875 C 174.65625 105.285156 170.003906 106.902344 165.695312 109.488281 C 164.667969 110.105469 163.773438 110.816406 163 111.59375 C 162.835938 111.753906 162.675781 111.921875 162.523438 112.089844 C 164.140625 115.5625 167.859375 117.753906 171.863281 117.261719 L 179.097656 116.371094 L 178.980469 115.417969 L 176.6875 115.703125 C 175.757812 115.816406 174.898438 115.085938 174.773438 114.074219 C 174.648438 113.058594 175.304688 112.144531 176.234375 112.03125 L 178.527344 111.75 L 178.246094 109.457031 C 178.128906 108.527344 178.859375 107.667969 179.871094 107.542969 C 180.882812 107.417969 181.800781 108.074219 181.914062 109.003906 L 182.199219 111.296875 L 184.488281 111.015625 C 185.421875 110.898438 186.273438 111.628906 186.398438 112.640625 C 186.523438 113.65625 185.871094 114.570312 184.941406 114.683594 L 182.648438 114.96875 L 182.765625 115.917969 L 190 115.027344 C 194.003906 114.535156 197.078125 111.503906 197.804688 107.742188 C 197.613281 107.617188 197.417969 107.492188 197.21875 107.378906 Z M 197.21875 107.378906 " fill-opacity="1" fill-rule="nonzero"/></g></g></g><g clip-path="url(#3e8e1c2499)"><g clip-path="url(#a99b4387e1)"><g clip-path="url(#4f472c5450)"><path fill="#ffffff" d="M 197.804688 107.742188 C 197.613281 107.617188 197.417969 107.492188 197.21875 107.378906 C 196.632812 110.980469 193.726562 113.929688 189.921875 114.398438 L 182.6875 115.289062 L 182.84375 116.550781 L 190.078125 115.660156 C 194.253906 115.144531 197.492188 112.03125 198.367188 108.140625 C 198.183594 108.003906 197.996094 107.875 197.804688 107.742188 Z M 171.785156 116.632812 C 167.980469 117.101562 164.445312 114.945312 163 111.59375 C 162.835938 111.753906 162.675781 111.921875 162.523438 112.089844 C 162.367188 112.261719 162.21875 112.4375 162.074219 112.613281 C 163.867188 116.175781 167.761719 118.410156 171.941406 117.894531 L 179.175781 117.003906 L 179.019531 115.742188 Z M 171.785156 116.632812 " fill-opacity="1" fill-rule="nonzero"/></g></g></g><g clip-path="url(#c56487d5b9)"><g clip-path="url(#65e03d1fdf)"><g clip-path="url(#bb13249ca4)"><path fill="#002d75" d="M 203.09375 114.242188 C 202.328125 112.242188 200.761719 109.914062 198.367188 108.140625 C 198.183594 108.003906 197.996094 107.875 197.804688 107.742188 C 197.613281 107.617188 197.417969 107.492188 197.21875 107.378906 C 196.285156 106.8125 195.242188 106.339844 194.097656 105.988281 C 189.289062 104.527344 184.382812 104.089844 179.519531 104.6875 C 174.65625 105.285156 170.003906 106.902344 165.695312 109.488281 C 164.667969 110.105469 163.773438 110.816406 163 111.59375 C 162.835938 111.753906 162.675781 111.921875 162.523438 112.089844 C 162.367188 112.261719 162.21875 112.4375 162.074219 112.613281 C 160.183594 114.914062 159.226562 117.550781 158.96875 119.675781 C 158.664062 122.234375 159.226562 124.4375 160.523438 125.722656 C 161.253906 126.46875 162.046875 126.996094 162.855469 127.359375 C 163.0625 127.367188 163.550781 127.378906 164.21875 127.339844 C 164.597656 127.320312 165.035156 127.285156 165.507812 127.226562 C 167.898438 126.929688 171.265625 126.046875 173.179688 123.46875 C 173.359375 123.226562 173.523438 122.972656 173.675781 122.703125 C 173.847656 122.398438 174.234375 122.289062 174.539062 122.460938 C 174.847656 122.632812 174.957031 123.019531 174.785156 123.324219 C 173.414062 125.78125 171.097656 127.109375 168.851562 127.824219 C 170.214844 127.53125 171.589844 127.003906 172.878906 126.269531 C 175.648438 124.605469 178.652344 123.5625 181.796875 123.175781 C 184.941406 122.789062 188.109375 123.070312 191.214844 124.015625 C 193.007812 124.515625 194.871094 124.671875 196.582031 124.460938 C 198.613281 124.210938 201.386719 123.316406 203.050781 120.488281 C 204 118.921875 204.011719 116.648438 203.09375 114.242188 Z M 176.878906 120.734375 C 176.375 121.382812 175.4375 121.496094 174.789062 120.992188 C 174.140625 120.484375 174.023438 119.546875 174.53125 118.898438 C 175.039062 118.25 175.972656 118.132812 176.621094 118.640625 C 177.269531 119.148438 177.386719 120.085938 176.878906 120.734375 Z M 182.933594 117.257812 C 183.046875 118.191406 182.316406 119.046875 181.304688 119.171875 C 180.289062 119.292969 179.375 118.640625 179.261719 117.710938 L 178.980469 115.417969 L 176.6875 115.703125 C 175.757812 115.816406 174.898438 115.085938 174.773438 114.074219 C 174.648438 113.058594 175.304688 112.144531 176.234375 112.03125 L 178.527344 111.75 L 178.246094 109.457031 C 178.128906 108.527344 178.859375 107.667969 179.871094 107.542969 C 180.882812 107.421875 181.800781 108.074219 181.914062 109.003906 L 182.195312 111.296875 L 184.488281 111.015625 C 185.421875 110.898438 186.273438 111.628906 186.398438 112.640625 C 186.523438 113.65625 185.871094 114.570312 184.941406 114.683594 L 182.648438 114.96875 Z M 182.933594 117.257812 " fill-opacity="1" fill-rule="nonzero"/><path fill="#002d75" d="M 203.09375 114.242188 C 202.328125 112.242188 200.761719 109.914062 198.367188 108.140625 C 198.183594 108.003906 197.996094 107.875 197.804688 107.742188 C 197.613281 107.617188 197.417969 107.492188 197.21875 107.378906 C 196.285156 106.8125 195.242188 106.339844 194.097656 105.988281 C 189.289062 104.527344 184.382812 104.089844 179.519531 104.6875 C 174.65625 105.285156 170.003906 106.902344 165.695312 109.488281 C 164.667969 110.105469 163.773438 110.816406 163 111.59375 C 162.835938 111.753906 162.675781 111.921875 162.523438 112.089844 C 162.367188 112.261719 162.21875 112.4375 162.074219 112.613281 C 160.183594 114.914062 159.226562 117.550781 158.96875 119.675781 C 158.664062 122.234375 159.226562 124.4375 160.523438 125.722656 C 161.253906 126.46875 162.046875 126.996094 162.855469 127.359375 C 163.0625 127.367188 163.550781 127.378906 164.21875 127.339844 C 164.597656 127.320312 165.035156 127.285156 165.507812 127.226562 C 167.898438 126.929688 171.265625 126.046875 173.179688 123.46875 C 173.359375 123.226562 173.523438 122.972656 173.675781 122.703125 C 173.847656 122.398438 174.234375 122.289062 174.539062 122.460938 C 174.847656 122.632812 174.957031 123.019531 174.785156 123.324219 C 173.414062 125.78125 171.097656 127.109375 168.851562 127.824219 C 170.214844 127.53125 171.589844 127.003906 172.878906 126.269531 C 175.648438 124.605469 178.652344 123.5625 181.796875 123.175781 C 184.941406 122.789062 188.109375 123.070312 191.214844 124.015625 C 193.007812 124.515625 194.871094 124.671875 196.582031 124.460938 C 198.613281 124.210938 201.386719 123.316406 203.050781 120.488281 C 204 118.921875 204.011719 116.648438 203.09375 114.242188 Z M 176.878906 120.734375 C 176.375 121.382812 175.4375 121.496094 174.789062 120.992188 C 174.140625 120.484375 174.023438 119.546875 174.53125 118.898438 C 175.039062 118.25 175.972656 118.132812 176.621094 118.640625 C 177.269531 119.148438 177.386719 120.085938 176.878906 120.734375 Z M 182.933594 117.257812 C 183.046875 118.191406 182.316406 119.046875 181.304688 119.171875 C 180.289062 119.292969 179.375 118.640625 179.261719 117.710938 L 178.980469 115.417969 L 176.6875 115.703125 C 175.757812 115.816406 174.898438 115.085938 174.773438 114.074219 C 174.648438 113.058594 175.304688 112.144531 176.234375 112.03125 L 178.527344 111.75 L 178.246094 109.457031 C 178.128906 108.527344 178.859375 107.667969 179.871094 107.542969 C 180.882812 107.421875 181.800781 108.074219 181.914062 109.003906 L 182.195312 111.296875 L 184.488281 111.015625 C 185.421875 110.898438 186.273438 111.628906 186.398438 112.640625 C 186.523438 113.65625 185.871094 114.570312 184.941406 114.683594 L 182.648438 114.96875 Z M 182.933594 117.257812 " fill-opacity="1" fill-rule="nonzero"/></g></g></g><g clip-path="url(#90aac22933)"><g clip-path="url(#38e40a936b)"><g clip-path="url(#2a82124dd0)"><path fill="#002d75" d="M 173.179688 123.46875 C 171.265625 126.046875 167.898438 126.929688 165.507812 127.226562 C 165.035156 127.285156 164.597656 127.320312 164.21875 127.339844 Z M 173.179688 123.46875 " fill-opacity="1" fill-rule="nonzero"/></g></g></g><g clip-path="url(#43410b1e6d)"><g clip-path="url(#26e2fb0afd)"><g clip-path="url(#76d02b6c7b)"><g clip-path="url(#d1acf79b36)"><path fill="#b1b7bc" d="M 127.234375 199.144531 C 127.15625 199.050781 127.167969 198.914062 127.261719 198.835938 L 129.476562 197.027344 C 129.566406 196.949219 129.710938 196.960938 129.785156 197.058594 L 135.851562 204.417969 C 135.929688 204.511719 135.914062 204.648438 135.820312 204.726562 L 133.605469 206.539062 C 133.515625 206.613281 133.375 206.597656 133.296875 206.507812 L 127.234375 199.144531 " fill-opacity="1" fill-rule="nonzero"/></g></g></g></g><g clip-path="url(#6922226d91)"><g clip-path="url(#664f3e7ec6)"><g clip-path="url(#bb81bbf507)"><g clip-path="url(#486545c62e)"><path stroke-linecap="round" transform="matrix(0.0240714, 0.00523292, 0.00521475, -0.0239878, 81.938474, 257.688996)" fill="none" stroke-linejoin="round" d="M 1291.95235 2722.427131 C 1288.044802 2725.482935 1287.330663 2731.026649 1290.375856 2734.947812 L 1362.638549 2826.108106 C 1365.528788 2829.995466 1371.363161 2830.779699 1375.149441 2827.534598 L 1679.257749 2587.07938 C 1683.165298 2584.023577 1683.724481 2578.446059 1680.679288 2574.524896 L 1608.450281 2483.209108 C 1605.526357 2479.477242 1599.813252 2478.882307 1595.939389 2481.782616 Z M 1291.95235 2722.427131 " stroke="#24578f" stroke-width="30" stroke-opacity="1" stroke-miterlimit="10"/></g></g></g></g><g clip-path="url(#c6e661410f)"><g clip-path="url(#d31ac08699)"><g clip-path="url(#4b10fdccba)"><g clip-path="url(#e30a77b62e)"><path fill="#b1b7bc" d="M 130.894531 207.050781 C 130.820312 206.957031 130.832031 206.820312 130.925781 206.742188 L 136.542969 202.144531 C 136.636719 202.066406 136.773438 202.082031 136.851562 202.175781 L 153.03125 221.808594 C 153.109375 221.902344 153.097656 222.039062 153 222.117188 L 147.386719 226.714844 C 147.292969 226.789062 147.152344 226.777344 147.074219 226.683594 L 130.894531 207.050781 " fill-opacity="1" fill-rule="nonzero"/></g></g></g></g><g clip-path="url(#3657e44feb)"><g clip-path="url(#06d48677de)"><g clip-path="url(#0663af0125)"><g clip-path="url(#71381329d3)"><path stroke-linecap="round" transform="matrix(0.0240714, 0.00523292, 0.00521475, -0.0239878, 81.938474, 257.688996)" fill="none" stroke-linejoin="round" d="M 1505.324694 2439.379964 C 1501.5721 2442.46957 1500.857962 2448.013284 1503.903155 2451.934448 L 1687.079583 2683.560287 C 1690.124776 2687.48145 1695.682926 2688.042583 1699.590474 2684.986779 L 2510.716638 2043.484411 C 2514.624186 2040.428607 2515.338325 2034.884893 2512.138177 2030.929927 L 2329.116704 1799.337891 C 2326.037825 1795.572222 2320.358406 1794.821792 2316.450858 1797.877595 Z M 1505.324694 2439.379964 " stroke="#24578f" stroke-width="30" stroke-opacity="1" stroke-miterlimit="10"/></g></g></g></g><g clip-path="url(#4a92b49d86)"><g clip-path="url(#83b21a5055)"><g clip-path="url(#89415ad81d)"><g clip-path="url(#b40b6ef53d)"><path fill="#72c3ee" d="M 133.957031 209.089844 C 133.902344 209.023438 133.910156 208.921875 133.976562 208.867188 L 138.042969 205.542969 C 138.109375 205.484375 138.210938 205.496094 138.265625 205.5625 L 149.972656 219.769531 C 150.027344 219.835938 150.015625 219.933594 149.949219 219.992188 L 145.886719 223.316406 C 145.820312 223.371094 145.71875 223.363281 145.660156 223.292969 L 133.957031 209.089844 " fill-opacity="1" fill-rule="nonzero"/><path stroke-linecap="round" transform="matrix(0.0240714, 0.00523292, 0.00521475, -0.0239878, 81.938474, 257.688996)" fill="none" stroke-linejoin="round" d="M 1644.392987 2384.713534 C 1641.650966 2386.883696 1641.085046 2390.994157 1643.247672 2393.745732 L 1775.888722 2561.260546 C 1778.017662 2564.167615 1782.147536 2564.580014 1784.889557 2562.409852 L 2371.803299 2098.184643 C 2374.54532 2096.014482 2374.922601 2092.025712 2372.79366 2089.118643 L 2240.307565 1921.637632 C 2238.144939 1918.886057 2234.04875 1918.318164 2231.118089 1920.610017 Z M 1644.392987 2384.713534 " stroke="#24578f" stroke-width="30" stroke-opacity="1" stroke-miterlimit="10"/></g></g></g></g><g clip-path="url(#4e52dba3e2)"><g clip-path="url(#65cf36aa81)"><g clip-path="url(#3abb2e1468)"><g clip-path="url(#483c3ae23f)"><path fill="#b1b7bc" d="M 149.316406 225.773438 L 151.699219 223.824219 L 161.910156 236.210938 L 159.527344 238.164062 L 149.316406 225.773438 " fill-opacity="1" fill-rule="nonzero"/></g></g></g></g><g clip-path="url(#9324f451da)"><g clip-path="url(#c93fafdd51)"><g clip-path="url(#7b6bfc8254)"><g clip-path="url(#d95d9116c3)"><path stroke-linecap="round" transform="matrix(0.0240714, 0.00523292, 0.00521475, -0.0239878, 81.938474, 257.688996)" fill="none" stroke-linejoin="round" d="M 2397.545957 1853.510794 L 2475.259007 1951.722422 L 2987.127612 1547.011011 L 2909.448248 1448.64389 Z M 2397.545957 1853.510794 " stroke="#24578f" stroke-width="30" stroke-opacity="1" stroke-miterlimit="10"/></g></g></g></g><g clip-path="url(#09b7b3971a)"><g clip-path="url(#36567bd3e8)"><g clip-path="url(#ca947bba4d)"><g clip-path="url(#17544aaab3)"><path fill="#b1b7bc" d="M 157.878906 239.792969 C 157.804688 239.703125 157.816406 239.5625 157.910156 239.484375 L 163.523438 234.890625 C 163.621094 234.8125 163.757812 234.824219 163.835938 234.917969 L 165.050781 236.390625 C 165.125 236.484375 165.113281 236.625 165.019531 236.703125 L 159.402344 241.296875 C 159.308594 241.375 159.167969 241.359375 159.089844 241.265625 L 157.878906 239.792969 " fill-opacity="1" fill-rule="nonzero"/><path stroke-linecap="round" transform="matrix(0.0240714, 0.00523292, 0.00521475, -0.0239878, 81.938474, 257.688996)" fill="none" stroke-linejoin="round" d="M 2858.104412 1369.537794 C 2854.385504 1372.471906 2853.63768 1378.171115 2856.682873 1382.092278 L 3039.738032 1613.52882 C 3042.93818 1617.483786 3048.462644 1618.200413 3052.370192 1615.14461 L 3113.260573 1567.035988 C 3117.013167 1563.946382 3117.760991 1558.247173 3114.715798 1554.32601 L 2931.505684 1322.855665 C 2928.460491 1318.934501 2922.747386 1318.339566 2918.839838 1321.39537 Z M 2858.104412 1369.537794 " stroke="#24578f" stroke-width="30" stroke-opacity="1" stroke-miterlimit="10"/></g></g></g></g><g clip-path="url(#8b8604aa7e)"><g clip-path="url(#1987b50db0)"><g clip-path="url(#1c99d14299)"><g clip-path="url(#5a9ec193eb)"><path fill="#b1b7bc" d="M 144.46875 228.105469 C 144.390625 228.007812 144.40625 227.871094 144.5 227.792969 L 154.625 219.507812 C 154.71875 219.429688 154.859375 219.445312 154.9375 219.535156 L 155.917969 220.726562 C 155.996094 220.820312 155.980469 220.960938 155.886719 221.039062 L 145.761719 229.324219 C 145.667969 229.402344 145.527344 229.390625 145.453125 229.292969 L 144.46875 228.105469 " fill-opacity="1" fill-rule="nonzero"/></g></g></g></g><g clip-path="url(#3c4c712b7e)"><g clip-path="url(#08827e9df1)"><g clip-path="url(#642af47813)"><g clip-path="url(#7c3572e7bd)"><path stroke-linecap="round" transform="matrix(0.0240714, 0.00523292, 0.00521475, -0.0239878, 81.938474, 257.688996)" fill="none" stroke-linejoin="round" d="M 2225.357824 1718.730936 C 2221.41659 1721.942234 2220.857407 1727.519751 2223.902599 1731.440915 L 2554.09716 2148.862303 C 2557.142353 2152.783466 2562.855458 2153.378401 2566.729321 2150.478092 L 2615.897057 2111.536881 C 2619.804605 2108.481078 2620.397474 2102.748066 2617.352282 2098.826903 L 2287.15772 1681.405515 C 2284.112528 1677.484351 2278.433108 1676.733921 2274.646829 1679.979022 Z M 2225.357824 1718.730936 " stroke="#24578f" stroke-width="30" stroke-opacity="1" stroke-miterlimit="10"/></g></g></g></g><g clip-path="url(#6ebf042b1a)"><g clip-path="url(#2a062119b4)"><g clip-path="url(#530a35ae46)"><g clip-path="url(#7736570365)"><path fill="#b1b7bc" d="M 128.367188 197.933594 L 125.289062 194.195312 " fill-opacity="1" fill-rule="nonzero"/></g></g></g></g><g clip-path="url(#2bb1485867)"><g clip-path="url(#edf6e6186d)"><g clip-path="url(#a3d45cfb5f)"><g clip-path="url(#a894f6a50e)"><path stroke-linecap="round" transform="matrix(0.0240714, 0.00523292, 0.00521475, -0.0239878, 81.938474, 257.688996)" fill="none" stroke-linejoin="round" d="M 1326.446568 2780.43331 L 1172.105151 2902.6046 " stroke="#24578f" stroke-width="30" stroke-opacity="1" stroke-miterlimit="10"/></g></g></g></g><g clip-path="url(#0e99cd91fc)"><g clip-path="url(#5f13920364)"><g clip-path="url(#dcab5750ea)"><g clip-path="url(#43eed35cd5)"><path fill="#b1b7bc" d="M 145.339844 219.308594 L 143.414062 220.886719 " fill-opacity="1" fill-rule="nonzero"/></g></g></g></g><g clip-path="url(#51ea284af6)"><g clip-path="url(#9b12cdbc8c)"><g clip-path="url(#d666aa557f)"><g clip-path="url(#898403c4c2)"><path stroke-linecap="round" transform="matrix(0.0240714, 0.00523292, 0.00521475, -0.0239878, 81.938474, 257.688996)" fill="none" stroke-linejoin="round" d="M 2184.052345 2076.442467 L 2121.268824 1996.957777 " stroke="#24578f" stroke-width="30" stroke-opacity="1" stroke-miterlimit="10"/></g></g></g></g><g clip-path="url(#acc0684331)"><g clip-path="url(#1df8728132)"><g clip-path="url(#a228300a26)"><g clip-path="url(#d8d4fc8291)"><path stroke-linecap="round" transform="matrix(0.0240714, 0.00523292, 0.00521475, -0.0239878, 81.938474, 257.688996)" fill-opacity="1" fill="#b1b7bc" fill-rule="nonzero" stroke-linejoin="round" d="M 2036.737777 2193.144409 L 1973.832988 2113.470421 " stroke="#24578f" stroke-width="30" stroke-opacity="1" stroke-miterlimit="10"/></g></g></g></g><g clip-path="url(#03f428c25a)"><g clip-path="url(#63e931d12c)"><g clip-path="url(#bbd5e404f6)"><g clip-path="url(#f47fc26c48)"><path fill="#b1b7bc" d="M 139.464844 212.171875 L 137.535156 213.75 " fill-opacity="1" fill-rule="nonzero"/></g></g></g></g><g clip-path="url(#4983cae496)"><g clip-path="url(#d3fcebc834)"><g clip-path="url(#1f03a69636)"><g clip-path="url(#65f0a5c3c2)"><path stroke-linecap="round" transform="matrix(0.0240714, 0.00523292, 0.00521475, -0.0239878, 81.938474, 257.688996)" fill="none" stroke-linejoin="round" d="M 1889.456895 2309.690857 L 1826.51842 2230.172363 " stroke="#24578f" stroke-width="30" stroke-opacity="1" stroke-miterlimit="10"/></g></g></g></g><g clip-path="url(#45369d85e4)"><g clip-path="url(#579d3f9e26)"><g clip-path="url(#066ed2bcf0)"><g clip-path="url(#6c6f6737f1)"><path stroke-linecap="round" transform="matrix(0.0240714, 0.00523292, 0.00521475, -0.0239878, 81.938474, 257.688996)" fill="none" stroke-linejoin="round" d="M 1369.321804 2764.545837 L 1556.742639 2609.531422 " stroke="#ffffff" stroke-width="30" stroke-opacity="1" stroke-miterlimit="10"/></g></g></g></g><g clip-path="url(#28282daa54)"><g clip-path="url(#0a20cec695)"><g clip-path="url(#25a58a2956)"><g clip-path="url(#f2905bc3d9)"><path stroke-linecap="round" transform="matrix(0.0240714, 0.00523292, 0.00521475, -0.0239878, 81.938474, 257.688996)" fill="none" stroke-linejoin="round" d="M 1776.804975 2479.876119 L 2286.847811 2089.585126 " stroke="#ffffff" stroke-width="30" stroke-opacity="1" stroke-miterlimit="10"/></g></g></g></g><g clip-path="url(#4cc494b784)"><g clip-path="url(#fbb0b90fd2)"><g clip-path="url(#10fabdffe8)"><g clip-path="url(#4f77d88504)"><path stroke-linecap="round" transform="matrix(0.0240714, 0.00523292, 0.00521475, -0.0239878, 81.938474, 257.688996)" fill="none" stroke-linejoin="round" d="M 2486.732377 1869.547001 L 2916.865852 1524.518406 " stroke="#ffffff" stroke-width="30" stroke-opacity="1" stroke-miterlimit="10"/></g></g></g></g><g clip-path="url(#0b8c59077e)"><g clip-path="url(#31cd69d883)"><g clip-path="url(#a21c846f15)"><g clip-path="url(#c957410c96)"><path stroke-linecap="round" transform="matrix(0.0240714, 0.00523292, 0.00521475, -0.0239878, 81.938474, 257.688996)" fill="none" stroke-linejoin="round" d="M 3052.733999 1567.022467 L 3070.04848 1554.515307 L 2949.931795 1406.342647 " stroke="#ffffff" stroke-width="30" stroke-opacity="1" stroke-miterlimit="10"/></g></g></g></g></svg>