<svg xmlns="http://www.w3.org/2000/svg" xmlns:xlink="http://www.w3.org/1999/xlink" width="500" zoomAndPan="magnify" viewBox="0 0 375 374.999991" height="500" preserveAspectRatio="xMidYMid meet" version="1.0"><defs><clipPath id="6d176dc736"><path d="M 152 228 L 185 228 L 185 260.96875 L 152 260.96875 Z M 152 228 " clip-rule="nonzero"/></clipPath><clipPath id="dfae9fdc4e"><path d="M 188 227 L 221 227 L 221 260.96875 L 188 260.96875 Z M 188 227 " clip-rule="nonzero"/></clipPath><clipPath id="2ebce363b8"><path d="M 217 113.96875 L 226 113.96875 L 226 122 L 217 122 Z M 217 113.96875 " clip-rule="nonzero"/></clipPath><clipPath id="5e8f66c0c4"><path d="M 215 176 L 262.5 176 L 262.5 218 L 215 218 Z M 215 176 " clip-rule="nonzero"/></clipPath><clipPath id="aad42220a6"><path d="M 112.5 148 L 167 148 L 167 237 L 112.5 237 Z M 112.5 148 " clip-rule="nonzero"/></clipPath><clipPath id="4647d5edc3"><path d="M 199 194.207031 L 203 194.207031 L 203 198 L 199 198 Z M 199 194.207031 " clip-rule="nonzero"/></clipPath><clipPath id="ab90b27711"><path d="M 196.054688 194.207031 L 203 194.207031 L 203 201 L 196.054688 201 Z M 196.054688 194.207031 " clip-rule="nonzero"/></clipPath><clipPath id="648768b1f2"><path d="M 202.054688 194.335938 C 202.058594 194.734375 202.011719 196.050781 201.363281 197.335938 C 201.15625 197.742188 200.894531 198.144531 200.554688 198.511719 C 199.671875 199.46875 198.269531 200.203125 196.054688 200.203125 L 196.054688 197.957031 C 197.6875 197.957031 198.878906 197.707031 199.746094 197.335938 C 200.054688 197.203125 200.324219 197.058594 200.554688 196.902344 C 201.917969 195.976562 202.046875 194.726562 202.054688 194.335938 Z M 202.054688 194.335938 " clip-rule="nonzero"/></clipPath><linearGradient x1="0.0000413277" gradientTransform="matrix(0.0249488, 0, 0, 0.0249079, 196.05415, 194.215865)" y1="122.636002" x2="240.600047" gradientUnits="userSpaceOnUse" y2="122.636002" id="247a74625c"><stop stop-opacity="1" stop-color="rgb(23.919678%, 74.119568%, 92.549133%)" offset="0"/><stop stop-opacity="1" stop-color="rgb(23.919678%, 74.119568%, 92.549133%)" offset="0.03125"/><stop stop-opacity="1" stop-color="rgb(23.953247%, 74.008179%, 92.579651%)" offset="0.046875"/><stop stop-opacity="1" stop-color="rgb(24.01886%, 73.800659%, 92.637634%)" offset="0.0546875"/><stop stop-opacity="1" stop-color="rgb(24.079895%, 73.603821%, 92.692566%)" offset="0.0625"/><stop stop-opacity="1" stop-color="rgb(24.171448%, 73.310852%, 92.774963%)" offset="0.078125"/><stop stop-opacity="1" stop-color="rgb(24.263%, 73.016357%, 92.855835%)" offset="0.0859375"/><stop stop-opacity="1" stop-color="rgb(24.324036%, 72.821045%, 92.910767%)" offset="0.09375"/><stop stop-opacity="1" stop-color="rgb(24.385071%, 72.624207%, 92.965698%)" offset="0.101562"/><stop stop-opacity="1" stop-color="rgb(24.446106%, 72.428894%, 93.02063%)" offset="0.109375"/><stop stop-opacity="1" stop-color="rgb(24.507141%, 72.232056%, 93.075562%)" offset="0.117188"/><stop stop-opacity="1" stop-color="rgb(24.568176%, 72.036743%, 93.128967%)" offset="0.125"/><stop stop-opacity="1" stop-color="rgb(24.629211%, 71.841431%, 93.183899%)" offset="0.132813"/><stop stop-opacity="1" stop-color="rgb(24.690247%, 71.644592%, 93.238831%)" offset="0.140625"/><stop stop-opacity="1" stop-color="rgb(24.751282%, 71.44928%, 93.293762%)" offset="0.148438"/><stop stop-opacity="1" stop-color="rgb(24.812317%, 71.252441%, 93.348694%)" offset="0.15625"/><stop stop-opacity="1" stop-color="rgb(24.873352%, 71.057129%, 93.403625%)" offset="0.164062"/><stop stop-opacity="1" stop-color="rgb(24.934387%, 70.860291%, 93.457031%)" offset="0.171875"/><stop stop-opacity="1" stop-color="rgb(24.995422%, 70.664978%, 93.511963%)" offset="0.179688"/><stop stop-opacity="1" stop-color="rgb(25.056458%, 70.46814%, 93.566895%)" offset="0.1875"/><stop stop-opacity="1" stop-color="rgb(25.14801%, 70.175171%, 93.649292%)" offset="0.203125"/><stop stop-opacity="1" stop-color="rgb(25.239563%, 69.880676%, 93.730164%)" offset="0.210938"/><stop stop-opacity="1" stop-color="rgb(25.300598%, 69.685364%, 93.785095%)" offset="0.21875"/><stop stop-opacity="1" stop-color="rgb(25.361633%, 69.488525%, 93.840027%)" offset="0.226563"/><stop stop-opacity="1" stop-color="rgb(25.422668%, 69.293213%, 93.894958%)" offset="0.234375"/><stop stop-opacity="1" stop-color="rgb(25.483704%, 69.096375%, 93.94989%)" offset="0.242187"/><stop stop-opacity="1" stop-color="rgb(25.544739%, 68.901062%, 94.004822%)" offset="0.25"/><stop stop-opacity="1" stop-color="rgb(25.605774%, 68.70575%, 94.058228%)" offset="0.257812"/><stop stop-opacity="1" stop-color="rgb(25.666809%, 68.508911%, 94.113159%)" offset="0.265625"/><stop stop-opacity="1" stop-color="rgb(25.727844%, 68.313599%, 94.168091%)" offset="0.273438"/><stop stop-opacity="1" stop-color="rgb(25.788879%, 68.11676%, 94.223022%)" offset="0.28125"/><stop stop-opacity="1" stop-color="rgb(25.849915%, 67.921448%, 94.277954%)" offset="0.289062"/><stop stop-opacity="1" stop-color="rgb(25.91095%, 67.724609%, 94.33136%)" offset="0.296875"/><stop stop-opacity="1" stop-color="rgb(26.002502%, 67.431641%, 94.413757%)" offset="0.3125"/><stop stop-opacity="1" stop-color="rgb(26.094055%, 67.137146%, 94.496155%)" offset="0.320313"/><stop stop-opacity="1" stop-color="rgb(26.15509%, 66.941833%, 94.551086%)" offset="0.328125"/><stop stop-opacity="1" stop-color="rgb(26.216125%, 66.744995%, 94.604492%)" offset="0.335937"/><stop stop-opacity="1" stop-color="rgb(26.277161%, 66.549683%, 94.659424%)" offset="0.34375"/><stop stop-opacity="1" stop-color="rgb(26.338196%, 66.352844%, 94.714355%)" offset="0.351562"/><stop stop-opacity="1" stop-color="rgb(26.399231%, 66.157532%, 94.769287%)" offset="0.359375"/><stop stop-opacity="1" stop-color="rgb(26.460266%, 65.962219%, 94.824219%)" offset="0.367188"/><stop stop-opacity="1" stop-color="rgb(26.521301%, 65.765381%, 94.87915%)" offset="0.375"/><stop stop-opacity="1" stop-color="rgb(26.582336%, 65.570068%, 94.932556%)" offset="0.382812"/><stop stop-opacity="1" stop-color="rgb(26.643372%, 65.37323%, 94.987488%)" offset="0.390625"/><stop stop-opacity="1" stop-color="rgb(26.704407%, 65.177917%, 95.042419%)" offset="0.398438"/><stop stop-opacity="1" stop-color="rgb(26.765442%, 64.981079%, 95.097351%)" offset="0.40625"/><stop stop-opacity="1" stop-color="rgb(26.856995%, 64.68811%, 95.178223%)" offset="0.421875"/><stop stop-opacity="1" stop-color="rgb(26.948547%, 64.393616%, 95.26062%)" offset="0.429687"/><stop stop-opacity="1" stop-color="rgb(27.009583%, 64.198303%, 95.315552%)" offset="0.4375"/><stop stop-opacity="1" stop-color="rgb(27.070618%, 64.001465%, 95.370483%)" offset="0.445312"/><stop stop-opacity="1" stop-color="rgb(27.131653%, 63.806152%, 95.425415%)" offset="0.453125"/><stop stop-opacity="1" stop-color="rgb(27.192688%, 63.609314%, 95.478821%)" offset="0.460938"/><stop stop-opacity="1" stop-color="rgb(27.253723%, 63.414001%, 95.533752%)" offset="0.46875"/><stop stop-opacity="1" stop-color="rgb(27.314758%, 63.217163%, 95.588684%)" offset="0.476562"/><stop stop-opacity="1" stop-color="rgb(27.375793%, 63.021851%, 95.643616%)" offset="0.484375"/><stop stop-opacity="1" stop-color="rgb(27.436829%, 62.826538%, 95.698547%)" offset="0.492188"/><stop stop-opacity="1" stop-color="rgb(27.497864%, 62.6297%, 95.753479%)" offset="0.5"/><stop stop-opacity="1" stop-color="rgb(27.558899%, 62.434387%, 95.806885%)" offset="0.507812"/><stop stop-opacity="1" stop-color="rgb(27.619934%, 62.237549%, 95.861816%)" offset="0.515625"/><stop stop-opacity="1" stop-color="rgb(27.680969%, 62.042236%, 95.916748%)" offset="0.523438"/><stop stop-opacity="1" stop-color="rgb(27.742004%, 61.845398%, 95.97168%)" offset="0.53125"/><stop stop-opacity="1" stop-color="rgb(27.833557%, 61.552429%, 96.052551%)" offset="0.546875"/><stop stop-opacity="1" stop-color="rgb(27.92511%, 61.257935%, 96.134949%)" offset="0.554688"/><stop stop-opacity="1" stop-color="rgb(27.986145%, 61.062622%, 96.18988%)" offset="0.5625"/><stop stop-opacity="1" stop-color="rgb(28.04718%, 60.865784%, 96.244812%)" offset="0.570312"/><stop stop-opacity="1" stop-color="rgb(28.108215%, 60.670471%, 96.299744%)" offset="0.578125"/><stop stop-opacity="1" stop-color="rgb(28.16925%, 60.473633%, 96.353149%)" offset="0.585938"/><stop stop-opacity="1" stop-color="rgb(28.230286%, 60.27832%, 96.408081%)" offset="0.59375"/><stop stop-opacity="1" stop-color="rgb(28.291321%, 60.083008%, 96.463013%)" offset="0.601562"/><stop stop-opacity="1" stop-color="rgb(28.352356%, 59.886169%, 96.517944%)" offset="0.609375"/><stop stop-opacity="1" stop-color="rgb(28.413391%, 59.690857%, 96.572876%)" offset="0.617188"/><stop stop-opacity="1" stop-color="rgb(28.474426%, 59.494019%, 96.627808%)" offset="0.625"/><stop stop-opacity="1" stop-color="rgb(28.535461%, 59.298706%, 96.681213%)" offset="0.632813"/><stop stop-opacity="1" stop-color="rgb(28.596497%, 59.101868%, 96.736145%)" offset="0.640625"/><stop stop-opacity="1" stop-color="rgb(28.688049%, 58.808899%, 96.818542%)" offset="0.65625"/><stop stop-opacity="1" stop-color="rgb(28.779602%, 58.514404%, 96.90094%)" offset="0.664062"/><stop stop-opacity="1" stop-color="rgb(28.840637%, 58.319092%, 96.954346%)" offset="0.671875"/><stop stop-opacity="1" stop-color="rgb(28.901672%, 58.122253%, 97.009277%)" offset="0.679688"/><stop stop-opacity="1" stop-color="rgb(28.962708%, 57.926941%, 97.064209%)" offset="0.6875"/><stop stop-opacity="1" stop-color="rgb(29.023743%, 57.730103%, 97.119141%)" offset="0.695312"/><stop stop-opacity="1" stop-color="rgb(29.084778%, 57.53479%, 97.174072%)" offset="0.703125"/><stop stop-opacity="1" stop-color="rgb(29.145813%, 57.339478%, 97.227478%)" offset="0.710938"/><stop stop-opacity="1" stop-color="rgb(29.206848%, 57.142639%, 97.28241%)" offset="0.71875"/><stop stop-opacity="1" stop-color="rgb(29.267883%, 56.947327%, 97.337341%)" offset="0.726563"/><stop stop-opacity="1" stop-color="rgb(29.328918%, 56.750488%, 97.392273%)" offset="0.734375"/><stop stop-opacity="1" stop-color="rgb(29.389954%, 56.555176%, 97.447205%)" offset="0.742188"/><stop stop-opacity="1" stop-color="rgb(29.450989%, 56.358337%, 97.502136%)" offset="0.75"/><stop stop-opacity="1" stop-color="rgb(29.512024%, 56.163025%, 97.555542%)" offset="0.757812"/><stop stop-opacity="1" stop-color="rgb(29.573059%, 55.966187%, 97.610474%)" offset="0.765625"/><stop stop-opacity="1" stop-color="rgb(29.664612%, 55.673218%, 97.692871%)" offset="0.78125"/><stop stop-opacity="1" stop-color="rgb(29.756165%, 55.378723%, 97.775269%)" offset="0.789062"/><stop stop-opacity="1" stop-color="rgb(29.8172%, 55.183411%, 97.828674%)" offset="0.796875"/><stop stop-opacity="1" stop-color="rgb(29.878235%, 54.986572%, 97.883606%)" offset="0.804688"/><stop stop-opacity="1" stop-color="rgb(29.93927%, 54.79126%, 97.938538%)" offset="0.8125"/><stop stop-opacity="1" stop-color="rgb(30.000305%, 54.594421%, 97.993469%)" offset="0.820312"/><stop stop-opacity="1" stop-color="rgb(30.06134%, 54.399109%, 98.048401%)" offset="0.828125"/><stop stop-opacity="1" stop-color="rgb(30.122375%, 54.203796%, 98.101807%)" offset="0.835938"/><stop stop-opacity="1" stop-color="rgb(30.183411%, 54.006958%, 98.156738%)" offset="0.84375"/><stop stop-opacity="1" stop-color="rgb(30.244446%, 53.811646%, 98.21167%)" offset="0.851562"/><stop stop-opacity="1" stop-color="rgb(30.305481%, 53.614807%, 98.266602%)" offset="0.859375"/><stop stop-opacity="1" stop-color="rgb(30.366516%, 53.419495%, 98.321533%)" offset="0.867187"/><stop stop-opacity="1" stop-color="rgb(30.427551%, 53.222656%, 98.376465%)" offset="0.875"/><stop stop-opacity="1" stop-color="rgb(30.519104%, 52.929688%, 98.457336%)" offset="0.890625"/><stop stop-opacity="1" stop-color="rgb(30.610657%, 52.635193%, 98.539734%)" offset="0.898438"/><stop stop-opacity="1" stop-color="rgb(30.671692%, 52.43988%, 98.594666%)" offset="0.90625"/><stop stop-opacity="1" stop-color="rgb(30.732727%, 52.243042%, 98.649597%)" offset="0.914062"/><stop stop-opacity="1" stop-color="rgb(30.793762%, 52.047729%, 98.703003%)" offset="0.921875"/><stop stop-opacity="1" stop-color="rgb(30.854797%, 51.850891%, 98.757935%)" offset="0.929688"/><stop stop-opacity="1" stop-color="rgb(30.915833%, 51.655579%, 98.812866%)" offset="0.9375"/><stop stop-opacity="1" stop-color="rgb(30.976868%, 51.460266%, 98.867798%)" offset="0.945312"/><stop stop-opacity="1" stop-color="rgb(31.037903%, 51.263428%, 98.922729%)" offset="0.953125"/><stop stop-opacity="1" stop-color="rgb(31.098938%, 51.068115%, 98.976135%)" offset="0.960938"/><stop stop-opacity="1" stop-color="rgb(31.159973%, 50.871277%, 99.031067%)" offset="0.96875"/><stop stop-opacity="1" stop-color="rgb(31.221008%, 50.675964%, 99.085999%)" offset="0.976563"/><stop stop-opacity="1" stop-color="rgb(31.282043%, 50.479126%, 99.14093%)" offset="0.984375"/><stop stop-opacity="1" stop-color="rgb(31.340027%, 50.289917%, 99.19281%)" offset="1"/></linearGradient><clipPath id="28c4171c35"><path d="M 199 199 L 203 199 L 203 203.207031 L 199 203.207031 Z M 199 199 " clip-rule="nonzero"/></clipPath><clipPath id="d65801ffa8"><path d="M 199 197 L 205.804688 197 L 205.804688 203.207031 L 199 203.207031 Z M 199 197 " clip-rule="nonzero"/></clipPath><clipPath id="fc7e4a4c86"><path d="M 199.804688 203.074219 C 199.800781 202.675781 199.847656 201.359375 200.496094 200.074219 C 200.699219 199.671875 200.960938 199.269531 201.304688 198.902344 C 202.1875 197.945312 203.585938 197.210938 205.804688 197.210938 L 205.804688 199.453125 C 204.167969 199.453125 202.976562 199.703125 202.113281 200.074219 C 201.804688 200.207031 201.535156 200.355469 201.304688 200.511719 C 199.9375 201.433594 199.808594 202.6875 199.804688 203.074219 Z M 199.804688 203.074219 " clip-rule="nonzero"/></clipPath><linearGradient x1="167.432207" gradientTransform="matrix(-0.0249488, 0, 0, -0.0249079, 209.980639, 199.201825)" y1="-37.771" x2="408.042219" gradientUnits="userSpaceOnUse" y2="-37.771" id="bd9b9e6059"><stop stop-opacity="1" stop-color="rgb(23.919678%, 74.119568%, 92.549133%)" offset="0"/><stop stop-opacity="1" stop-color="rgb(23.919678%, 74.119568%, 92.549133%)" offset="0.03125"/><stop stop-opacity="1" stop-color="rgb(23.953247%, 74.009705%, 92.579651%)" offset="0.046875"/><stop stop-opacity="1" stop-color="rgb(24.01886%, 73.800659%, 92.637634%)" offset="0.0546875"/><stop stop-opacity="1" stop-color="rgb(24.079895%, 73.605347%, 92.692566%)" offset="0.0625"/><stop stop-opacity="1" stop-color="rgb(24.14093%, 73.408508%, 92.747498%)" offset="0.0703125"/><stop stop-opacity="1" stop-color="rgb(24.201965%, 73.213196%, 92.802429%)" offset="0.078125"/><stop stop-opacity="1" stop-color="rgb(24.263%, 73.016357%, 92.855835%)" offset="0.0859375"/><stop stop-opacity="1" stop-color="rgb(24.324036%, 72.821045%, 92.910767%)" offset="0.09375"/><stop stop-opacity="1" stop-color="rgb(24.385071%, 72.624207%, 92.965698%)" offset="0.101562"/><stop stop-opacity="1" stop-color="rgb(24.446106%, 72.428894%, 93.02063%)" offset="0.109375"/><stop stop-opacity="1" stop-color="rgb(24.507141%, 72.233582%, 93.075562%)" offset="0.117188"/><stop stop-opacity="1" stop-color="rgb(24.568176%, 72.036743%, 93.128967%)" offset="0.125"/><stop stop-opacity="1" stop-color="rgb(24.629211%, 71.841431%, 93.183899%)" offset="0.132812"/><stop stop-opacity="1" stop-color="rgb(24.690247%, 71.644592%, 93.238831%)" offset="0.140625"/><stop stop-opacity="1" stop-color="rgb(24.751282%, 71.44928%, 93.293762%)" offset="0.148438"/><stop stop-opacity="1" stop-color="rgb(24.812317%, 71.252441%, 93.348694%)" offset="0.15625"/><stop stop-opacity="1" stop-color="rgb(24.90387%, 70.959473%, 93.429565%)" offset="0.171875"/><stop stop-opacity="1" stop-color="rgb(24.995422%, 70.664978%, 93.511963%)" offset="0.179688"/><stop stop-opacity="1" stop-color="rgb(25.056458%, 70.469666%, 93.566895%)" offset="0.1875"/><stop stop-opacity="1" stop-color="rgb(25.117493%, 70.272827%, 93.621826%)" offset="0.195312"/><stop stop-opacity="1" stop-color="rgb(25.178528%, 70.077515%, 93.676758%)" offset="0.203125"/><stop stop-opacity="1" stop-color="rgb(25.239563%, 69.880676%, 93.730164%)" offset="0.210938"/><stop stop-opacity="1" stop-color="rgb(25.300598%, 69.685364%, 93.785095%)" offset="0.21875"/><stop stop-opacity="1" stop-color="rgb(25.361633%, 69.488525%, 93.840027%)" offset="0.226562"/><stop stop-opacity="1" stop-color="rgb(25.422668%, 69.293213%, 93.894958%)" offset="0.234375"/><stop stop-opacity="1" stop-color="rgb(25.483704%, 69.0979%, 93.94989%)" offset="0.242188"/><stop stop-opacity="1" stop-color="rgb(25.544739%, 68.901062%, 94.003296%)" offset="0.25"/><stop stop-opacity="1" stop-color="rgb(25.605774%, 68.70575%, 94.058228%)" offset="0.257812"/><stop stop-opacity="1" stop-color="rgb(25.666809%, 68.508911%, 94.113159%)" offset="0.265625"/><stop stop-opacity="1" stop-color="rgb(25.727844%, 68.313599%, 94.168091%)" offset="0.273437"/><stop stop-opacity="1" stop-color="rgb(25.788879%, 68.11676%, 94.223022%)" offset="0.28125"/><stop stop-opacity="1" stop-color="rgb(25.880432%, 67.823792%, 94.303894%)" offset="0.296875"/><stop stop-opacity="1" stop-color="rgb(25.971985%, 67.529297%, 94.386292%)" offset="0.304688"/><stop stop-opacity="1" stop-color="rgb(26.03302%, 67.333984%, 94.441223%)" offset="0.3125"/><stop stop-opacity="1" stop-color="rgb(26.094055%, 67.137146%, 94.496155%)" offset="0.320312"/><stop stop-opacity="1" stop-color="rgb(26.15509%, 66.941833%, 94.551086%)" offset="0.328125"/><stop stop-opacity="1" stop-color="rgb(26.216125%, 66.744995%, 94.604492%)" offset="0.335937"/><stop stop-opacity="1" stop-color="rgb(26.277161%, 66.549683%, 94.659424%)" offset="0.34375"/><stop stop-opacity="1" stop-color="rgb(26.338196%, 66.352844%, 94.714355%)" offset="0.351562"/><stop stop-opacity="1" stop-color="rgb(26.399231%, 66.157532%, 94.769287%)" offset="0.359375"/><stop stop-opacity="1" stop-color="rgb(26.460266%, 65.962219%, 94.824219%)" offset="0.367187"/><stop stop-opacity="1" stop-color="rgb(26.521301%, 65.765381%, 94.877625%)" offset="0.375"/><stop stop-opacity="1" stop-color="rgb(26.582336%, 65.570068%, 94.932556%)" offset="0.382812"/><stop stop-opacity="1" stop-color="rgb(26.643372%, 65.37323%, 94.987488%)" offset="0.390625"/><stop stop-opacity="1" stop-color="rgb(26.704407%, 65.177917%, 95.042419%)" offset="0.398437"/><stop stop-opacity="1" stop-color="rgb(26.765442%, 64.981079%, 95.097351%)" offset="0.40625"/><stop stop-opacity="1" stop-color="rgb(26.856995%, 64.68811%, 95.178223%)" offset="0.421875"/><stop stop-opacity="1" stop-color="rgb(26.948547%, 64.393616%, 95.26062%)" offset="0.429688"/><stop stop-opacity="1" stop-color="rgb(27.009583%, 64.198303%, 95.315552%)" offset="0.4375"/><stop stop-opacity="1" stop-color="rgb(27.070618%, 64.001465%, 95.370483%)" offset="0.445312"/><stop stop-opacity="1" stop-color="rgb(27.131653%, 63.806152%, 95.425415%)" offset="0.453125"/><stop stop-opacity="1" stop-color="rgb(27.192688%, 63.609314%, 95.478821%)" offset="0.460937"/><stop stop-opacity="1" stop-color="rgb(27.253723%, 63.414001%, 95.533752%)" offset="0.46875"/><stop stop-opacity="1" stop-color="rgb(27.314758%, 63.217163%, 95.588684%)" offset="0.476562"/><stop stop-opacity="1" stop-color="rgb(27.375793%, 63.021851%, 95.643616%)" offset="0.484375"/><stop stop-opacity="1" stop-color="rgb(27.436829%, 62.826538%, 95.698547%)" offset="0.492188"/><stop stop-opacity="1" stop-color="rgb(27.497864%, 62.6297%, 95.753479%)" offset="0.5"/><stop stop-opacity="1" stop-color="rgb(27.558899%, 62.434387%, 95.806885%)" offset="0.507812"/><stop stop-opacity="1" stop-color="rgb(27.619934%, 62.237549%, 95.861816%)" offset="0.515625"/><stop stop-opacity="1" stop-color="rgb(27.680969%, 62.042236%, 95.916748%)" offset="0.523438"/><stop stop-opacity="1" stop-color="rgb(27.742004%, 61.845398%, 95.97168%)" offset="0.53125"/><stop stop-opacity="1" stop-color="rgb(27.833557%, 61.552429%, 96.052551%)" offset="0.546875"/><stop stop-opacity="1" stop-color="rgb(27.92511%, 61.257935%, 96.134949%)" offset="0.554688"/><stop stop-opacity="1" stop-color="rgb(27.986145%, 61.062622%, 96.18988%)" offset="0.5625"/><stop stop-opacity="1" stop-color="rgb(28.04718%, 60.865784%, 96.244812%)" offset="0.570313"/><stop stop-opacity="1" stop-color="rgb(28.108215%, 60.670471%, 96.299744%)" offset="0.578125"/><stop stop-opacity="1" stop-color="rgb(28.16925%, 60.473633%, 96.353149%)" offset="0.585938"/><stop stop-opacity="1" stop-color="rgb(28.230286%, 60.27832%, 96.408081%)" offset="0.59375"/><stop stop-opacity="1" stop-color="rgb(28.291321%, 60.081482%, 96.463013%)" offset="0.601563"/><stop stop-opacity="1" stop-color="rgb(28.352356%, 59.886169%, 96.517944%)" offset="0.609375"/><stop stop-opacity="1" stop-color="rgb(28.413391%, 59.690857%, 96.572876%)" offset="0.617188"/><stop stop-opacity="1" stop-color="rgb(28.474426%, 59.494019%, 96.627808%)" offset="0.625"/><stop stop-opacity="1" stop-color="rgb(28.535461%, 59.298706%, 96.681213%)" offset="0.632812"/><stop stop-opacity="1" stop-color="rgb(28.596497%, 59.101868%, 96.736145%)" offset="0.640625"/><stop stop-opacity="1" stop-color="rgb(28.657532%, 58.906555%, 96.791077%)" offset="0.648437"/><stop stop-opacity="1" stop-color="rgb(28.718567%, 58.709717%, 96.846008%)" offset="0.65625"/><stop stop-opacity="1" stop-color="rgb(28.81012%, 58.416748%, 96.92688%)" offset="0.671875"/><stop stop-opacity="1" stop-color="rgb(28.901672%, 58.122253%, 97.009277%)" offset="0.679687"/><stop stop-opacity="1" stop-color="rgb(28.962708%, 57.926941%, 97.064209%)" offset="0.6875"/><stop stop-opacity="1" stop-color="rgb(29.023743%, 57.730103%, 97.119141%)" offset="0.695312"/><stop stop-opacity="1" stop-color="rgb(29.084778%, 57.53479%, 97.174072%)" offset="0.703125"/><stop stop-opacity="1" stop-color="rgb(29.145813%, 57.337952%, 97.229004%)" offset="0.710938"/><stop stop-opacity="1" stop-color="rgb(29.206848%, 57.142639%, 97.28241%)" offset="0.71875"/><stop stop-opacity="1" stop-color="rgb(29.267883%, 56.945801%, 97.337341%)" offset="0.726562"/><stop stop-opacity="1" stop-color="rgb(29.328918%, 56.750488%, 97.392273%)" offset="0.734375"/><stop stop-opacity="1" stop-color="rgb(29.389954%, 56.555176%, 97.447205%)" offset="0.742188"/><stop stop-opacity="1" stop-color="rgb(29.450989%, 56.358337%, 97.502136%)" offset="0.75"/><stop stop-opacity="1" stop-color="rgb(29.512024%, 56.163025%, 97.555542%)" offset="0.757812"/><stop stop-opacity="1" stop-color="rgb(29.573059%, 55.966187%, 97.610474%)" offset="0.765625"/><stop stop-opacity="1" stop-color="rgb(29.634094%, 55.770874%, 97.665405%)" offset="0.773438"/><stop stop-opacity="1" stop-color="rgb(29.695129%, 55.574036%, 97.720337%)" offset="0.78125"/><stop stop-opacity="1" stop-color="rgb(29.786682%, 55.281067%, 97.801208%)" offset="0.796875"/><stop stop-opacity="1" stop-color="rgb(29.878235%, 54.986572%, 97.883606%)" offset="0.804688"/><stop stop-opacity="1" stop-color="rgb(29.93927%, 54.79126%, 97.938538%)" offset="0.8125"/><stop stop-opacity="1" stop-color="rgb(30.000305%, 54.594421%, 97.993469%)" offset="0.820313"/><stop stop-opacity="1" stop-color="rgb(30.06134%, 54.399109%, 98.048401%)" offset="0.828125"/><stop stop-opacity="1" stop-color="rgb(30.122375%, 54.202271%, 98.103333%)" offset="0.835938"/><stop stop-opacity="1" stop-color="rgb(30.183411%, 54.006958%, 98.156738%)" offset="0.84375"/><stop stop-opacity="1" stop-color="rgb(30.244446%, 53.81012%, 98.21167%)" offset="0.851563"/><stop stop-opacity="1" stop-color="rgb(30.305481%, 53.614807%, 98.266602%)" offset="0.859375"/><stop stop-opacity="1" stop-color="rgb(30.366516%, 53.419495%, 98.321533%)" offset="0.867188"/><stop stop-opacity="1" stop-color="rgb(30.427551%, 53.222656%, 98.376465%)" offset="0.875"/><stop stop-opacity="1" stop-color="rgb(30.488586%, 53.027344%, 98.429871%)" offset="0.882812"/><stop stop-opacity="1" stop-color="rgb(30.549622%, 52.830505%, 98.484802%)" offset="0.890625"/><stop stop-opacity="1" stop-color="rgb(30.610657%, 52.635193%, 98.539734%)" offset="0.898437"/><stop stop-opacity="1" stop-color="rgb(30.671692%, 52.438354%, 98.594666%)" offset="0.90625"/><stop stop-opacity="1" stop-color="rgb(30.763245%, 52.145386%, 98.675537%)" offset="0.921875"/><stop stop-opacity="1" stop-color="rgb(30.854797%, 51.850891%, 98.757935%)" offset="0.929687"/><stop stop-opacity="1" stop-color="rgb(30.915833%, 51.655579%, 98.812866%)" offset="0.9375"/><stop stop-opacity="1" stop-color="rgb(30.976868%, 51.45874%, 98.867798%)" offset="0.945312"/><stop stop-opacity="1" stop-color="rgb(31.037903%, 51.263428%, 98.922729%)" offset="0.953125"/><stop stop-opacity="1" stop-color="rgb(31.098938%, 51.066589%, 98.977661%)" offset="0.960937"/><stop stop-opacity="1" stop-color="rgb(31.159973%, 50.871277%, 99.031067%)" offset="0.96875"/><stop stop-opacity="1" stop-color="rgb(31.221008%, 50.674438%, 99.085999%)" offset="0.976562"/><stop stop-opacity="1" stop-color="rgb(31.282043%, 50.479126%, 99.14093%)" offset="0.984375"/><stop stop-opacity="1" stop-color="rgb(31.340027%, 50.289917%, 99.19281%)" offset="1"/></linearGradient><clipPath id="fb526b67ce"><path d="M 157 98 L 193 98 L 193 113 L 157 113 Z M 157 98 " clip-rule="nonzero"/></clipPath><clipPath id="93f0ea8e55"><path d="M 151.296875 104.261719 L 196.367188 96.394531 L 201.136719 123.730469 L 156.070312 131.597656 Z M 151.296875 104.261719 " clip-rule="nonzero"/></clipPath><clipPath id="b84f19c9da"><path d="M 151.296875 104.261719 L 196.367188 96.394531 L 201.136719 123.730469 L 156.070312 131.597656 Z M 151.296875 104.261719 " clip-rule="nonzero"/></clipPath><clipPath id="0db66d76ab"><path d="M 158 105 L 194 105 L 194 120 L 158 120 Z M 158 105 " clip-rule="nonzero"/></clipPath><clipPath id="fe02e2b514"><path d="M 151.296875 104.261719 L 196.367188 96.394531 L 201.136719 123.730469 L 156.070312 131.597656 Z M 151.296875 104.261719 " clip-rule="nonzero"/></clipPath><clipPath id="9a8b9c1c27"><path d="M 151.296875 104.261719 L 196.367188 96.394531 L 201.136719 123.730469 L 156.070312 131.597656 Z M 151.296875 104.261719 " clip-rule="nonzero"/></clipPath><clipPath id="2900776113"><path d="M 157 108 L 194 108 L 194 120 L 157 120 Z M 157 108 " clip-rule="nonzero"/></clipPath><clipPath id="f739954191"><path d="M 151.296875 104.261719 L 196.367188 96.394531 L 201.136719 123.730469 L 156.070312 131.597656 Z M 151.296875 104.261719 " clip-rule="nonzero"/></clipPath><clipPath id="9102a2bb3a"><path d="M 151.296875 104.261719 L 196.367188 96.394531 L 201.136719 123.730469 L 156.070312 131.597656 Z M 151.296875 104.261719 " clip-rule="nonzero"/></clipPath><clipPath id="376d89e8ba"><path d="M 155 105 L 200 105 L 200 130 L 155 130 Z M 155 105 " clip-rule="nonzero"/></clipPath><clipPath id="ebdb44772e"><path d="M 151.296875 104.261719 L 196.367188 96.394531 L 201.136719 123.730469 L 156.070312 131.597656 Z M 151.296875 104.261719 " clip-rule="nonzero"/></clipPath><clipPath id="f85190fa2d"><path d="M 151.296875 104.261719 L 196.367188 96.394531 L 201.136719 123.730469 L 156.070312 131.597656 Z M 151.296875 104.261719 " clip-rule="nonzero"/></clipPath><clipPath id="b5fb1adbc0"><path d="M 160 125 L 170 125 L 170 130 L 160 130 Z M 160 125 " clip-rule="nonzero"/></clipPath><clipPath id="4409c26bf2"><path d="M 151.296875 104.261719 L 196.367188 96.394531 L 201.136719 123.730469 L 156.070312 131.597656 Z M 151.296875 104.261719 " clip-rule="nonzero"/></clipPath><clipPath id="3ec76071d5"><path d="M 151.296875 104.261719 L 196.367188 96.394531 L 201.136719 123.730469 L 156.070312 131.597656 Z M 151.296875 104.261719 " clip-rule="nonzero"/></clipPath></defs><path fill="#f6f6f6" d="M 144.972656 198.125 C 145.101562 198.019531 157.703125 194.214844 161.457031 192.546875 C 165.214844 190.875 168.550781 205.476562 165.476562 207.71875 C 162.398438 209.960938 146.957031 212.464844 145.183594 210.898438 C 143.410156 209.335938 143.410156 199.375 144.972656 198.125 Z M 144.972656 198.125 " fill-opacity="1" fill-rule="nonzero"/><path fill="#f6f6f6" d="M 204.050781 189.992188 C 204.4375 189.492188 215.554688 188.972656 224.863281 183.027344 C 234.175781 177.085938 234.019531 174.660156 236.992188 176.851562 C 239.964844 179.039062 243.722656 182.089844 239.964844 187.097656 C 236.210938 192.101562 215.789062 206.492188 210.308594 206.023438 C 204.832031 205.554688 201.9375 192.726562 204.050781 189.992188 Z M 204.050781 189.992188 " fill-opacity="1" fill-rule="nonzero"/><g clip-path="url(#6d176dc736)"><path fill="#f6f6f6" d="M 183.171875 259.089844 C 180.8125 261.523438 155.984375 261.09375 154.125 260.519531 C 152.265625 259.949219 151.835938 256.515625 153.839844 252.867188 C 155.839844 249.21875 164.214844 247.71875 164.214844 247.71875 C 164.214844 247.71875 164.503906 240.804688 164.746094 235.277344 C 164.902344 231.691406 165.042969 228.691406 165.070312 228.550781 L 165 228.265625 C 165 228.265625 182.601562 233.699219 182.671875 233.558594 C 182.699219 233.503906 182.746094 236.023438 182.796875 239.191406 C 182.875 244.433594 182.960938 251.4375 182.960938 251.4375 C 182.960938 251.4375 185.535156 256.660156 183.175781 259.089844 Z M 183.171875 259.089844 " fill-opacity="1" fill-rule="nonzero"/></g><path fill="#54a3e6" d="M 182.796875 239.191406 C 173.925781 238.953125 168.179688 236.984375 164.746094 235.277344 C 164.902344 231.691406 165.042969 228.691406 165.070312 228.550781 L 165 228.265625 C 165 228.265625 182.601562 233.699219 182.671875 233.558594 C 182.699219 233.503906 182.746094 236.023438 182.796875 239.191406 Z M 182.796875 239.191406 " fill-opacity="1" fill-rule="nonzero"/><g clip-path="url(#dfae9fdc4e)"><path fill="#f6f6f6" d="M 189.925781 258.152344 C 192.289062 260.585938 217.117188 260.15625 218.976562 259.582031 C 220.835938 259.011719 221.265625 255.578125 219.261719 251.929688 C 217.257812 248.28125 208.886719 246.78125 208.886719 246.78125 C 208.886719 246.78125 208.597656 239.863281 208.355469 234.339844 C 208.195312 230.753906 208.058594 227.753906 208.03125 227.613281 L 208.101562 227.328125 C 208.101562 227.328125 190.5 232.761719 190.425781 232.617188 C 190.398438 232.566406 190.351562 235.085938 190.304688 238.253906 C 190.226562 243.492188 190.140625 250.5 190.140625 250.5 C 190.140625 250.5 187.566406 255.71875 189.925781 258.152344 Z M 189.925781 258.152344 " fill-opacity="1" fill-rule="nonzero"/></g><path fill="#54a3e6" d="M 190.226562 239.660156 C 199.097656 239.421875 204.84375 237.453125 208.277344 235.746094 C 208.117188 232.160156 207.980469 229.160156 207.953125 229.019531 L 208.023438 228.734375 C 208.023438 228.734375 190.421875 234.167969 190.347656 234.027344 C 190.324219 233.972656 190.277344 236.496094 190.226562 239.660156 Z M 190.226562 239.660156 " fill-opacity="1" fill-rule="nonzero"/><path fill="#f6f6f6" d="M 189.683594 233.484375 C 189.683594 233.503906 189.683594 233.589844 189.683594 233.734375 C 189.542969 233.757812 189.46875 233.773438 189.46875 233.773438 Z M 189.683594 233.484375 " fill-opacity="1" fill-rule="nonzero"/><path fill="#f6f6f6" d="M 205.640625 233.414062 C 193.761719 237.632812 164.355469 238.207031 159.277344 222.328125 C 158.011719 218.382812 157.527344 214.03125 157.519531 209.714844 C 157.519531 209.03125 157.527344 208.347656 157.550781 207.664062 C 157.933594 195.359375 161.832031 183.878906 162.136719 183.421875 L 206.355469 188.140625 C 206.355469 188.140625 209.789062 191.503906 211.722656 198.726562 C 212.332031 201.007812 213.136719 204.882812 213.574219 209.253906 C 213.71875 210.707031 213.824219 212.210938 213.871094 213.730469 C 214.121094 222.132812 212.523438 230.96875 205.640625 233.414062 Z M 205.640625 233.414062 " fill-opacity="1" fill-rule="nonzero"/><path fill="#54a3e6" d="M 189.683594 233.484375 C 189.683594 233.503906 189.683594 233.589844 189.683594 233.734375 C 189.542969 233.757812 189.46875 233.773438 189.46875 233.773438 Z M 189.683594 233.484375 " fill-opacity="1" fill-rule="nonzero"/><path fill="#54a3e6" d="M 213.871094 213.730469 C 209.019531 215.25 175.875 220.824219 157.519531 209.714844 C 157.519531 209.03125 157.527344 208.347656 157.550781 207.664062 C 166.078125 209.921875 193.980469 217.214844 213.65625 210.097656 C 213.800781 211.546875 213.824219 212.210938 213.871094 213.730469 Z M 213.871094 213.730469 " fill-opacity="1" fill-rule="nonzero"/><path fill="#f6f6f6" d="M 220.460938 139.691406 C 220.289062 139.710938 219.597656 121.238281 219.597656 121.238281 L 223.914062 120.730469 C 223.914062 120.730469 227.351562 143.238281 226.933594 143.328125 C 226.515625 143.414062 220.460938 139.691406 220.460938 139.691406 Z M 220.460938 139.691406 " fill-opacity="1" fill-rule="nonzero"/><g clip-path="url(#2ebce363b8)"><path fill="#f6f6f6" d="M 225.167969 117.867188 C 225.167969 118.382812 225.070312 118.878906 224.871094 119.359375 C 224.675781 119.835938 224.394531 120.257812 224.027344 120.621094 C 223.660156 120.988281 223.242188 121.269531 222.761719 121.46875 C 222.285156 121.664062 221.789062 121.765625 221.269531 121.765625 C 220.753906 121.765625 220.257812 121.664062 219.777344 121.46875 C 219.300781 121.269531 218.878906 120.988281 218.515625 120.621094 C 218.148438 120.257812 217.867188 119.835938 217.667969 119.359375 C 217.472656 118.878906 217.371094 118.382812 217.371094 117.867188 C 217.371094 117.351562 217.472656 116.851562 217.667969 116.375 C 217.867188 115.898438 218.148438 115.476562 218.515625 115.109375 C 218.878906 114.746094 219.300781 114.464844 219.777344 114.265625 C 220.257812 114.066406 220.753906 113.96875 221.269531 113.96875 C 221.789062 113.96875 222.285156 114.066406 222.761719 114.265625 C 223.242188 114.464844 223.660156 114.746094 224.027344 115.109375 C 224.394531 115.476562 224.675781 115.898438 224.871094 116.375 C 225.070312 116.851562 225.167969 117.351562 225.167969 117.867188 Z M 225.167969 117.867188 " fill-opacity="1" fill-rule="nonzero"/></g><path fill="#54a3e6" d="M 225.570312 165.808594 L 223.777344 166.09375 C 219.59375 166.753906 215.664062 163.898438 215.003906 159.714844 L 212.769531 145.582031 C 212.105469 141.398438 214.964844 137.472656 219.148438 136.8125 L 220.941406 136.527344 C 225.125 135.867188 229.050781 138.722656 229.714844 142.902344 L 231.949219 157.039062 C 232.609375 161.222656 229.753906 165.148438 225.570312 165.808594 Z M 225.570312 165.808594 " fill-opacity="1" fill-rule="nonzero"/><path fill="#f6f6f6" d="M 136.28125 152.335938 C 136.445312 152.296875 130.839844 134.679688 130.839844 134.679688 L 126.609375 135.664062 C 126.609375 135.664062 130.992188 158.003906 131.417969 157.945312 C 131.84375 157.886719 136.28125 152.335938 136.28125 152.335938 Z M 136.28125 152.335938 " fill-opacity="1" fill-rule="nonzero"/><path fill="#f6f6f6" d="M 132.023438 132.074219 C 132.023438 132.589844 131.921875 133.085938 131.726562 133.566406 C 131.527344 134.042969 131.246094 134.464844 130.878906 134.828125 C 130.515625 135.195312 130.09375 135.476562 129.617188 135.675781 C 129.136719 135.871094 128.640625 135.972656 128.125 135.972656 C 127.605469 135.972656 127.109375 135.871094 126.632812 135.675781 C 126.152344 135.476562 125.730469 135.195312 125.367188 134.828125 C 125 134.464844 124.71875 134.042969 124.523438 133.566406 C 124.324219 133.085938 124.226562 132.589844 124.226562 132.074219 C 124.226562 131.558594 124.324219 131.058594 124.523438 130.582031 C 124.71875 130.105469 125 129.683594 125.367188 129.316406 C 125.730469 128.953125 126.152344 128.671875 126.632812 128.472656 C 127.109375 128.273438 127.605469 128.175781 128.125 128.175781 C 128.640625 128.175781 129.136719 128.273438 129.617188 128.472656 C 130.09375 128.671875 130.515625 128.953125 130.878906 129.316406 C 131.246094 129.683594 131.527344 130.105469 131.726562 130.582031 C 131.921875 131.058594 132.023438 131.558594 132.023438 132.074219 Z M 132.023438 132.074219 " fill-opacity="1" fill-rule="nonzero"/><path fill="#54a3e6" d="M 140.316406 178.640625 L 142.097656 178.300781 C 146.261719 177.503906 148.988281 173.488281 148.195312 169.332031 L 145.511719 155.273438 C 144.714844 151.113281 140.699219 148.386719 136.539062 149.179688 L 134.753906 149.519531 C 130.59375 150.3125 127.867188 154.328125 128.660156 158.488281 L 131.34375 172.546875 C 132.140625 176.707031 136.15625 179.433594 140.316406 178.640625 Z M 140.316406 178.640625 " fill-opacity="1" fill-rule="nonzero"/><path fill="#f6f6f6" d="M 224.292969 152.089844 C 228.0625 174.304688 211.25 191.722656 187.257812 195.789062 C 163.269531 199.851562 141.183594 189.023438 137.417969 166.8125 C 133.648438 144.601562 139.917969 121.417969 173.621094 115.351562 C 207.511719 109.25 220.527344 129.878906 224.292969 152.089844 Z M 224.292969 152.089844 " fill-opacity="1" fill-rule="nonzero"/><path fill="#160e0b" d="M 161.601562 135.640625 C 161.601562 135.640625 147.09375 138.910156 146.101562 152.035156 C 145.167969 164.410156 147.429688 184.679688 171.800781 187.097656 C 196.171875 189.515625 213.648438 177.703125 215.933594 161.695312 C 218.214844 145.6875 211.128906 132.851562 201.800781 131.109375 C 188.972656 128.714844 161.601562 135.640625 161.601562 135.640625 Z M 161.601562 135.640625 " fill-opacity="1" fill-rule="nonzero"/><path fill="#54a3e6" d="M 170.808594 166.929688 C 171.152344 166.804688 174.230469 168.632812 182.054688 167.617188 C 189.574219 166.640625 191.875 163.527344 192.746094 164.179688 C 193.972656 165.09375 190.765625 175.101562 182.28125 175.609375 C 173.796875 176.117188 168.546875 167.742188 170.808594 166.929688 Z M 170.808594 166.929688 " fill-opacity="1" fill-rule="nonzero"/><path fill="#54a3e6" d="M 203.761719 151.582031 C 203.8125 152.070312 203.832031 152.558594 203.816406 153.046875 C 203.796875 153.53125 203.746094 154.011719 203.664062 154.476562 C 203.578125 154.941406 203.460938 155.390625 203.308594 155.816406 C 203.160156 156.246094 202.980469 156.644531 202.769531 157.019531 C 202.5625 157.390625 202.324219 157.726562 202.066406 158.03125 C 201.804688 158.332031 201.523438 158.597656 201.21875 158.816406 C 200.917969 159.039062 200.601562 159.214844 200.269531 159.347656 C 199.9375 159.480469 199.597656 159.566406 199.25 159.601562 C 198.902344 159.640625 198.550781 159.628906 198.199219 159.570312 C 197.84375 159.511719 197.5 159.40625 197.15625 159.253906 C 196.8125 159.101562 196.484375 158.902344 196.164062 158.664062 C 195.84375 158.421875 195.542969 158.140625 195.261719 157.820312 C 194.976562 157.5 194.714844 157.148438 194.480469 156.761719 C 194.242188 156.375 194.03125 155.964844 193.851562 155.527344 C 193.667969 155.089844 193.519531 154.632812 193.398438 154.160156 C 193.277344 153.6875 193.191406 153.207031 193.140625 152.71875 C 193.089844 152.226562 193.070312 151.738281 193.085938 151.253906 C 193.105469 150.765625 193.15625 150.289062 193.238281 149.820312 C 193.324219 149.355469 193.441406 148.90625 193.59375 148.480469 C 193.742188 148.050781 193.921875 147.652344 194.132812 147.28125 C 194.339844 146.90625 194.578125 146.570312 194.835938 146.265625 C 195.097656 145.964844 195.378906 145.703125 195.679688 145.480469 C 195.984375 145.257812 196.300781 145.082031 196.632812 144.949219 C 196.964844 144.816406 197.304688 144.734375 197.652344 144.695312 C 198 144.65625 198.351562 144.667969 198.703125 144.726562 C 199.054688 144.785156 199.402344 144.890625 199.746094 145.046875 C 200.085938 145.199219 200.417969 145.394531 200.738281 145.636719 C 201.054688 145.875 201.359375 146.15625 201.640625 146.476562 C 201.925781 146.796875 202.1875 147.148438 202.421875 147.535156 C 202.660156 147.921875 202.871094 148.332031 203.050781 148.773438 C 203.234375 149.210938 203.382812 149.664062 203.503906 150.136719 C 203.621094 150.609375 203.707031 151.089844 203.761719 151.582031 Z M 203.761719 151.582031 " fill-opacity="1" fill-rule="nonzero"/><path fill="#54a3e6" d="M 168.65625 156.707031 C 168.707031 157.199219 168.726562 157.6875 168.710938 158.171875 C 168.691406 158.660156 168.640625 159.136719 168.558594 159.605469 C 168.472656 160.070312 168.355469 160.515625 168.203125 160.945312 C 168.054688 161.371094 167.875 161.773438 167.664062 162.144531 C 167.457031 162.519531 167.21875 162.855469 166.960938 163.160156 C 166.699219 163.460938 166.417969 163.722656 166.113281 163.945312 C 165.8125 164.167969 165.496094 164.34375 165.164062 164.476562 C 164.832031 164.609375 164.492188 164.691406 164.144531 164.730469 C 163.796875 164.769531 163.445312 164.757812 163.09375 164.699219 C 162.742188 164.640625 162.394531 164.53125 162.050781 164.378906 C 161.707031 164.226562 161.378906 164.03125 161.058594 163.789062 C 160.738281 163.550781 160.4375 163.269531 160.15625 162.949219 C 159.871094 162.628906 159.609375 162.277344 159.375 161.890625 C 159.136719 161.503906 158.925781 161.089844 158.746094 160.652344 C 158.5625 160.214844 158.414062 159.761719 158.292969 159.289062 C 158.171875 158.816406 158.085938 158.335938 158.035156 157.84375 C 157.984375 157.355469 157.964844 156.867188 157.980469 156.378906 C 158 155.890625 158.050781 155.414062 158.132812 154.949219 C 158.21875 154.484375 158.335938 154.035156 158.488281 153.609375 C 158.636719 153.179688 158.816406 152.78125 159.027344 152.40625 C 159.234375 152.035156 159.472656 151.699219 159.730469 151.394531 C 159.992188 151.089844 160.273438 150.828125 160.574219 150.609375 C 160.878906 150.386719 161.195312 150.207031 161.527344 150.078125 C 161.859375 149.945312 162.199219 149.859375 162.546875 149.824219 C 162.894531 149.785156 163.246094 149.796875 163.597656 149.855469 C 163.949219 149.914062 164.296875 150.019531 164.640625 150.171875 C 164.984375 150.324219 165.3125 150.523438 165.632812 150.761719 C 165.953125 151.003906 166.253906 151.285156 166.535156 151.605469 C 166.820312 151.921875 167.082031 152.277344 167.316406 152.664062 C 167.554688 153.050781 167.765625 153.460938 167.945312 153.898438 C 168.128906 154.335938 168.277344 154.792969 168.398438 155.265625 C 168.515625 155.738281 168.601562 156.21875 168.65625 156.707031 Z M 168.65625 156.707031 " fill-opacity="1" fill-rule="nonzero"/><path fill="#54a3e6" d="M 160.949219 164.464844 C 160.949219 164.464844 160.945312 164.464844 160.945312 164.464844 C 160.945312 164.464844 160.945312 164.464844 160.949219 164.464844 Z M 160.949219 164.464844 Z M 157.332031 154.476562 C 157.332031 154.476562 157.332031 154.476562 157.335938 154.476562 C 157.332031 154.476562 157.332031 154.476562 157.332031 154.476562 Z M 157.332031 154.476562 Z M 157.332031 154.476562 " fill-opacity="1" fill-rule="nonzero"/><g clip-path="url(#5e8f66c0c4)"><path fill="#54a3e6" d="M 219.164062 176.539062 L 259.28125 176.539062 C 259.707031 176.539062 260.117188 176.617188 260.511719 176.78125 C 260.90625 176.945312 261.253906 177.179688 261.558594 177.480469 C 261.859375 177.78125 262.09375 178.128906 262.253906 178.523438 C 262.417969 178.917969 262.5 179.328125 262.5 179.757812 L 262.5 213.988281 C 262.5 214.417969 262.417969 214.828125 262.253906 215.222656 C 262.09375 215.617188 261.859375 215.964844 261.558594 216.265625 C 261.253906 216.570312 260.90625 216.800781 260.511719 216.964844 C 260.117188 217.128906 259.707031 217.210938 259.28125 217.210938 L 219.164062 217.210938 C 218.738281 217.210938 218.328125 217.128906 217.933594 216.964844 C 217.539062 216.800781 217.1875 216.570312 216.886719 216.265625 C 216.585938 215.964844 216.351562 215.617188 216.1875 215.222656 C 216.027344 214.828125 215.945312 214.417969 215.945312 213.988281 L 215.945312 179.757812 C 215.945312 179.328125 216.027344 178.917969 216.1875 178.523438 C 216.351562 178.128906 216.585938 177.78125 216.886719 177.480469 C 217.1875 177.179688 217.539062 176.945312 217.933594 176.78125 C 218.328125 176.617188 218.738281 176.539062 219.164062 176.539062 Z M 219.164062 176.539062 " fill-opacity="1" fill-rule="nonzero"/></g><path fill="#f6f6f6" d="M 221.851562 178.882812 L 256.59375 178.882812 C 257.023438 178.882812 257.433594 178.964844 257.828125 179.128906 C 258.222656 179.292969 258.570312 179.523438 258.871094 179.828125 C 259.175781 180.128906 259.40625 180.476562 259.570312 180.871094 C 259.734375 181.265625 259.816406 181.675781 259.816406 182.101562 L 259.816406 211.644531 C 259.816406 212.070312 259.734375 212.480469 259.570312 212.875 C 259.40625 213.269531 259.175781 213.617188 258.871094 213.917969 C 258.570312 214.222656 258.222656 214.453125 257.828125 214.617188 C 257.433594 214.78125 257.023438 214.863281 256.59375 214.863281 L 221.851562 214.863281 C 221.425781 214.863281 221.011719 214.78125 220.617188 214.617188 C 220.222656 214.453125 219.875 214.222656 219.574219 213.917969 C 219.273438 213.617188 219.039062 213.269531 218.875 212.875 C 218.710938 212.480469 218.628906 212.070312 218.628906 211.644531 L 218.628906 182.101562 C 218.628906 181.675781 218.710938 181.265625 218.875 180.871094 C 219.039062 180.476562 219.273438 180.128906 219.574219 179.828125 C 219.875 179.523438 220.222656 179.292969 220.617188 179.128906 C 221.011719 178.964844 221.425781 178.882812 221.851562 178.882812 Z M 221.851562 178.882812 " fill-opacity="1" fill-rule="nonzero"/><path fill="#f6f6f6" d="M 233.628906 172.703125 C 233.964844 172.617188 245.992188 171.296875 247.164062 174.191406 C 248.339844 177.085938 245.917969 182.164062 239.183594 181.699219 C 234.644531 181.386719 229.980469 179.390625 230.339844 176.066406 C 230.65625 173.175781 231.828125 173.175781 233.628906 172.703125 Z M 233.628906 172.703125 " fill-opacity="1" fill-rule="nonzero"/><path fill="#f6f6f6" d="M 233.628906 172.703125 C 233.964844 172.617188 245.992188 171.296875 247.164062 174.191406 C 248.339844 177.085938 245.917969 182.164062 239.183594 181.699219 C 234.644531 181.386719 229.980469 179.390625 230.339844 176.066406 C 230.65625 173.175781 231.828125 173.175781 233.628906 172.703125 Z M 233.628906 172.703125 " fill-opacity="1" fill-rule="nonzero"/><path fill="#160e0b" d="M 240.214844 182.101562 C 239.871094 182.101562 239.519531 182.089844 239.15625 182.066406 C 236.296875 181.867188 232.621094 180.917969 230.882812 178.84375 C 230.171875 177.996094 229.867188 177.046875 229.976562 176.027344 C 229.996094 175.828125 230.179688 175.679688 230.382812 175.703125 C 230.582031 175.722656 230.730469 175.90625 230.707031 176.105469 C 230.617188 176.917969 230.867188 177.679688 231.449219 178.375 C 232.117188 179.171875 233.226562 179.871094 234.65625 180.398438 C 236.011719 180.898438 237.585938 181.222656 239.207031 181.332031 C 239.566406 181.359375 239.910156 181.367188 240.238281 181.367188 C 243.902344 181.367188 245.546875 179.898438 246.222656 178.96875 C 247.015625 177.875 247.203125 176.507812 246.71875 175.320312 C 246.644531 175.128906 246.734375 174.917969 246.921875 174.839844 C 247.109375 174.765625 247.324219 174.855469 247.402344 175.042969 C 247.980469 176.46875 247.761719 178.097656 246.816406 179.402344 C 246.160156 180.304688 245.175781 181.023438 243.96875 181.480469 C 242.878906 181.894531 241.621094 182.101562 240.214844 182.101562 Z M 240.214844 182.101562 " fill-opacity="1" fill-rule="nonzero"/><g clip-path="url(#aad42220a6)"><path fill="#54a3e6" d="M 125.097656 148.222656 L 112.5 153.933594 C 112.5 153.933594 153.738281 235.980469 154.050781 236.371094 L 166.023438 230.351562 Z M 121.929688 158.3125 C 120.527344 158.3125 119.386719 157.175781 119.386719 155.769531 C 119.386719 154.367188 120.527344 153.226562 121.929688 153.226562 C 123.335938 153.226562 124.472656 154.367188 124.472656 155.769531 C 124.472656 157.175781 123.335938 158.3125 121.929688 158.3125 Z M 121.929688 158.3125 " fill-opacity="1" fill-rule="nonzero"/></g><path fill="#f6f6f6" d="M 133.472656 201.878906 C 133.675781 201.617188 136.835938 198.4375 140.671875 199.53125 C 144.503906 200.628906 149.277344 209.386719 147.242188 213.21875 C 145.207031 217.054688 140.90625 217.445312 138.167969 215.410156 C 135.425781 213.378906 131.28125 204.695312 133.472656 201.878906 Z M 133.472656 201.878906 " fill-opacity="1" fill-rule="nonzero"/><path fill="#160e0b" d="M 128.710938 155.121094 C 130.164062 158.039062 131.59375 160.972656 133.011719 163.90625 C 134.429688 166.84375 135.835938 169.789062 137.238281 172.734375 C 138.027344 174.390625 138.816406 176.054688 139.601562 177.714844 C 139.726562 177.972656 140.113281 177.746094 139.988281 177.488281 C 138.59375 174.542969 137.195312 171.59375 135.789062 168.652344 C 134.378906 165.710938 132.964844 162.773438 131.535156 159.839844 C 130.726562 158.1875 129.914062 156.539062 129.097656 154.894531 C 128.96875 154.636719 128.582031 154.863281 128.710938 155.121094 Z M 128.710938 155.121094 " fill-opacity="1" fill-rule="nonzero"/><g clip-path="url(#4647d5edc3)"><path fill="#1f2b5b" d="M 199.800781 197.4375 L 199.800781 194.214844 L 202.054688 194.214844 C 202.054688 194.214844 202.085938 195.722656 201.507812 196.332031 C 200.933594 196.9375 199.800781 197.4375 199.800781 197.4375 Z M 199.800781 197.4375 " fill-opacity="1" fill-rule="nonzero"/></g><g clip-path="url(#ab90b27711)"><g clip-path="url(#648768b1f2)"><path fill="url(#247a74625c)" d="M 196.054688 194.335938 L 196.054688 200.203125 L 202.058594 200.203125 L 202.058594 194.335938 Z M 196.054688 194.335938 " fill-rule="nonzero"/></g></g><g clip-path="url(#28c4171c35)"><path fill="#1f2b5b" d="M 202.054688 199.976562 L 202.054688 203.195312 L 199.804688 203.195312 C 199.804688 203.195312 199.773438 201.6875 200.347656 201.082031 C 200.925781 200.472656 202.054688 199.976562 202.054688 199.976562 Z M 202.054688 199.976562 " fill-opacity="1" fill-rule="nonzero"/></g><g clip-path="url(#d65801ffa8)"><g clip-path="url(#fc7e4a4c86)"><path fill="url(#bd9b9e6059)" d="M 205.804688 203.074219 L 205.804688 197.210938 L 199.800781 197.210938 L 199.800781 203.074219 Z M 205.804688 203.074219 " fill-rule="nonzero"/></g></g><g clip-path="url(#fb526b67ce)"><g clip-path="url(#93f0ea8e55)"><g clip-path="url(#b84f19c9da)"><path fill="#002d75" d="M 192.597656 105.617188 C 192.65625 105.953125 192.691406 106.285156 192.710938 106.617188 C 191.777344 106.160156 190.796875 105.800781 189.789062 105.550781 C 184.742188 104.285156 179.640625 104.085938 174.640625 104.960938 C 169.632812 105.835938 164.902344 107.75 160.582031 110.648438 C 159.71875 111.226562 158.917969 111.898438 158.195312 112.640625 C 158.097656 112.324219 158.023438 111.996094 157.964844 111.664062 C 157.164062 107.078125 160.242188 102.695312 164.828125 101.894531 L 182.828125 98.753906 C 187.414062 97.953125 191.796875 101.03125 192.597656 105.617188 Z M 192.597656 105.617188 " fill-opacity="1" fill-rule="nonzero"/></g></g></g><g clip-path="url(#0db66d76ab)"><g clip-path="url(#fe02e2b514)"><g clip-path="url(#9a8b9c1c27)"><path fill="#002d75" d="M 192.667969 108.011719 C 191.707031 107.496094 190.644531 107.074219 189.480469 106.78125 C 184.605469 105.5625 179.683594 105.371094 174.859375 106.214844 C 170.03125 107.054688 165.464844 108.902344 161.289062 111.703125 C 160.296875 112.371094 159.4375 113.128906 158.707031 113.941406 C 158.550781 114.109375 158.398438 114.285156 158.253906 114.460938 C 160.042969 117.847656 163.867188 119.851562 167.84375 119.15625 L 175.019531 117.90625 L 174.855469 116.960938 L 172.582031 117.355469 C 171.65625 117.519531 170.765625 116.832031 170.589844 115.828125 C 170.414062 114.820312 171.019531 113.875 171.945312 113.714844 L 174.21875 113.316406 L 173.824219 111.042969 C 173.660156 110.117188 174.347656 109.226562 175.351562 109.050781 C 176.355469 108.875 177.304688 109.480469 177.464844 110.40625 L 177.863281 112.679688 L 180.136719 112.28125 C 181.0625 112.121094 181.953125 112.804688 182.128906 113.8125 C 182.304688 114.816406 181.695312 115.765625 180.773438 115.925781 L 178.5 116.324219 L 178.664062 117.269531 L 185.839844 116.015625 C 189.816406 115.320312 192.734375 112.140625 193.269531 108.347656 C 193.074219 108.230469 192.875 108.117188 192.667969 108.011719 Z M 192.667969 108.011719 " fill-opacity="1" fill-rule="nonzero"/></g></g></g><g clip-path="url(#2900776113)"><g clip-path="url(#f739954191)"><g clip-path="url(#9102a2bb3a)"><path fill="#ffffff" d="M 193.269531 108.347656 C 193.074219 108.230469 192.875 108.117188 192.667969 108.011719 C 192.261719 111.640625 189.507812 114.730469 185.730469 115.390625 L 178.554688 116.640625 L 178.773438 117.894531 L 185.949219 116.640625 C 190.097656 115.917969 193.175781 112.648438 193.855469 108.71875 C 193.664062 108.589844 193.46875 108.46875 193.269531 108.347656 Z M 167.730469 118.53125 C 163.957031 119.191406 160.316406 117.214844 158.707031 113.941406 C 158.546875 114.109375 158.398438 114.285156 158.253906 114.460938 C 158.105469 114.640625 157.964844 114.820312 157.832031 115.003906 C 159.800781 118.472656 163.804688 120.507812 167.949219 119.785156 L 175.128906 118.53125 L 174.910156 117.277344 Z M 167.730469 118.53125 " fill-opacity="1" fill-rule="nonzero"/></g></g></g><g clip-path="url(#376d89e8ba)"><g clip-path="url(#ebdb44772e)"><g clip-path="url(#f85190fa2d)"><path fill="#002d75" d="M 198.878906 114.574219 C 198.015625 112.613281 196.335938 110.367188 193.855469 108.71875 C 193.664062 108.589844 193.46875 108.46875 193.269531 108.347656 C 193.074219 108.230469 192.875 108.117188 192.667969 108.011719 C 191.707031 107.496094 190.644531 107.074219 189.480469 106.78125 C 184.605469 105.5625 179.683594 105.371094 174.859375 106.214844 C 170.03125 107.058594 165.464844 108.902344 161.289062 111.703125 C 160.296875 112.371094 159.4375 113.128906 158.707031 113.941406 C 158.550781 114.109375 158.398438 114.285156 158.253906 114.460938 C 158.105469 114.640625 157.96875 114.820312 157.832031 115.003906 C 156.058594 117.398438 155.234375 120.078125 155.085938 122.214844 C 154.90625 124.785156 155.582031 126.960938 156.9375 128.175781 C 157.707031 128.882812 158.527344 129.371094 159.351562 129.695312 C 159.558594 129.691406 160.046875 129.675781 160.710938 129.605469 L 160.714844 129.605469 C 161.089844 129.566406 161.523438 129.511719 161.996094 129.425781 C 164.367188 129.011719 167.6875 127.960938 169.46875 125.289062 C 169.632812 125.039062 169.785156 124.777344 169.925781 124.5 C 170.082031 124.1875 170.460938 124.058594 170.777344 124.214844 C 171.089844 124.371094 171.21875 124.75 171.066406 125.066406 C 169.820312 127.585938 167.570312 129.03125 165.363281 129.859375 C 166.710938 129.496094 168.054688 128.898438 169.308594 128.101562 C 171.992188 126.304688 174.9375 125.109375 178.058594 124.566406 C 181.179688 124.019531 184.359375 124.144531 187.507812 124.933594 C 189.324219 125.339844 191.191406 125.402344 192.886719 125.105469 C 194.90625 124.75 197.632812 123.722656 199.152344 120.8125 C 200.019531 119.203125 199.917969 116.929688 198.878906 114.574219 Z M 173.027344 122.371094 C 172.554688 123.042969 171.625 123.207031 170.949219 122.734375 C 170.277344 122.257812 170.113281 121.332031 170.589844 120.65625 C 171.0625 119.984375 171.992188 119.824219 172.664062 120.296875 C 173.335938 120.769531 173.5 121.699219 173.027344 122.371094 Z M 178.894531 118.597656 C 179.058594 119.523438 178.371094 120.414062 177.363281 120.589844 C 176.359375 120.765625 175.414062 120.160156 175.253906 119.234375 L 174.855469 116.960938 L 172.582031 117.355469 C 171.65625 117.519531 170.765625 116.832031 170.589844 115.828125 C 170.414062 114.820312 171.019531 113.875 171.945312 113.714844 L 174.21875 113.316406 L 173.824219 111.042969 C 173.660156 110.117188 174.347656 109.226562 175.351562 109.050781 C 176.355469 108.875 177.304688 109.480469 177.464844 110.40625 L 177.863281 112.679688 L 180.136719 112.285156 C 181.0625 112.121094 181.953125 112.804688 182.128906 113.8125 C 182.304688 114.816406 181.695312 115.765625 180.773438 115.925781 L 178.5 116.324219 Z M 178.894531 118.597656 " fill-opacity="1" fill-rule="nonzero"/><path fill="#002d75" d="M 198.878906 114.574219 C 198.015625 112.613281 196.335938 110.367188 193.855469 108.71875 C 193.664062 108.589844 193.46875 108.46875 193.269531 108.347656 C 193.074219 108.230469 192.875 108.117188 192.667969 108.011719 C 191.707031 107.496094 190.644531 107.074219 189.480469 106.78125 C 184.605469 105.5625 179.683594 105.371094 174.859375 106.214844 C 170.03125 107.058594 165.464844 108.902344 161.289062 111.703125 C 160.296875 112.371094 159.4375 113.128906 158.707031 113.941406 C 158.550781 114.109375 158.398438 114.285156 158.253906 114.460938 C 158.105469 114.640625 157.96875 114.820312 157.832031 115.003906 C 156.058594 117.398438 155.234375 120.078125 155.085938 122.214844 C 154.90625 124.785156 155.582031 126.960938 156.9375 128.175781 C 157.707031 128.882812 158.527344 129.371094 159.351562 129.695312 C 159.558594 129.691406 160.046875 129.675781 160.710938 129.605469 L 160.714844 129.605469 C 161.089844 129.566406 161.523438 129.511719 161.996094 129.425781 C 164.367188 129.011719 167.6875 127.960938 169.46875 125.289062 C 169.632812 125.039062 169.785156 124.777344 169.925781 124.5 C 170.082031 124.1875 170.460938 124.058594 170.777344 124.214844 C 171.089844 124.371094 171.21875 124.75 171.066406 125.066406 C 169.820312 127.585938 167.570312 129.03125 165.363281 129.859375 C 166.710938 129.496094 168.054688 128.898438 169.308594 128.101562 C 171.992188 126.304688 174.9375 125.109375 178.058594 124.566406 C 181.179688 124.019531 184.359375 124.144531 187.507812 124.933594 C 189.324219 125.339844 191.191406 125.402344 192.886719 125.105469 C 194.90625 124.75 197.632812 123.722656 199.152344 120.8125 C 200.019531 119.203125 199.917969 116.929688 198.878906 114.574219 Z M 173.027344 122.371094 C 172.554688 123.042969 171.625 123.207031 170.949219 122.734375 C 170.277344 122.257812 170.113281 121.332031 170.589844 120.65625 C 171.0625 119.984375 171.992188 119.824219 172.664062 120.296875 C 173.335938 120.769531 173.5 121.699219 173.027344 122.371094 Z M 178.894531 118.597656 C 179.058594 119.523438 178.371094 120.414062 177.363281 120.589844 C 176.359375 120.765625 175.414062 120.160156 175.253906 119.234375 L 174.855469 116.960938 L 172.582031 117.355469 C 171.65625 117.519531 170.765625 116.832031 170.589844 115.828125 C 170.414062 114.820312 171.019531 113.875 171.945312 113.714844 L 174.21875 113.316406 L 173.824219 111.042969 C 173.660156 110.117188 174.347656 109.226562 175.351562 109.050781 C 176.355469 108.875 177.304688 109.480469 177.464844 110.40625 L 177.863281 112.679688 L 180.136719 112.285156 C 181.0625 112.121094 181.953125 112.804688 182.128906 113.8125 C 182.304688 114.816406 181.695312 115.765625 180.773438 115.925781 L 178.5 116.324219 Z M 178.894531 118.597656 " fill-opacity="1" fill-rule="nonzero"/></g></g></g><g clip-path="url(#b5fb1adbc0)"><g clip-path="url(#4409c26bf2)"><g clip-path="url(#3ec76071d5)"><path fill="#002d75" d="M 169.46875 125.289062 C 167.6875 127.960938 164.367188 129.011719 161.992188 129.425781 C 161.523438 129.507812 161.089844 129.566406 160.714844 129.605469 Z M 169.46875 125.289062 " fill-opacity="1" fill-rule="nonzero"/></g></g></g></svg>