<svg xmlns="http://www.w3.org/2000/svg" xmlns:xlink="http://www.w3.org/1999/xlink" width="500" zoomAndPan="magnify" viewBox="0 0 375 374.999991" height="500" preserveAspectRatio="xMidYMid meet" version="1.0"><defs><clipPath id="2ef98fa82c"><path d="M 164 230 L 186 230 L 186 262.5 L 164 262.5 Z M 164 230 " clip-rule="nonzero"/></clipPath><clipPath id="32b2c08e36"><path d="M 224 140 L 242.9375 140 L 242.9375 172 L 224 172 Z M 224 140 " clip-rule="nonzero"/></clipPath><clipPath id="d228ce0662"><path d="M 143 112.5 L 236 112.5 L 236 199 L 143 199 Z M 143 112.5 " clip-rule="nonzero"/></clipPath><clipPath id="03ae02750a"><path d="M 194 230 L 216 230 L 216 262.5 L 194 262.5 Z M 194 230 " clip-rule="nonzero"/></clipPath><clipPath id="26c86e8b77"><path d="M 169 96 L 205 96 L 205 108 L 169 108 Z M 169 96 " clip-rule="nonzero"/></clipPath><clipPath id="ca25ea4c29"><path d="M 163.859375 98.566406 L 209.527344 95.867188 L 211.164062 123.570312 L 165.492188 126.265625 Z M 163.859375 98.566406 " clip-rule="nonzero"/></clipPath><clipPath id="90c0db34a0"><path d="M 163.859375 98.566406 L 209.527344 95.867188 L 211.164062 123.570312 L 165.492188 126.265625 Z M 163.859375 98.566406 " clip-rule="nonzero"/></clipPath><clipPath id="d943300111"><path d="M 169 103 L 206 103 L 206 116 L 169 116 Z M 169 103 " clip-rule="nonzero"/></clipPath><clipPath id="d5ea1f7a40"><path d="M 163.859375 98.566406 L 209.527344 95.867188 L 211.164062 123.570312 L 165.492188 126.265625 Z M 163.859375 98.566406 " clip-rule="nonzero"/></clipPath><clipPath id="c7000342cf"><path d="M 163.859375 98.566406 L 209.527344 95.867188 L 211.164062 123.570312 L 165.492188 126.265625 Z M 163.859375 98.566406 " clip-rule="nonzero"/></clipPath><clipPath id="8431a99c32"><path d="M 169 106 L 206 106 L 206 116 L 169 116 Z M 169 106 " clip-rule="nonzero"/></clipPath><clipPath id="5c32782e57"><path d="M 163.859375 98.566406 L 209.527344 95.867188 L 211.164062 123.570312 L 165.492188 126.265625 Z M 163.859375 98.566406 " clip-rule="nonzero"/></clipPath><clipPath id="76cf7824f0"><path d="M 163.859375 98.566406 L 209.527344 95.867188 L 211.164062 123.570312 L 165.492188 126.265625 Z M 163.859375 98.566406 " clip-rule="nonzero"/></clipPath><clipPath id="2521529078"><path d="M 165 103 L 211 103 L 211 126 L 165 126 Z M 165 103 " clip-rule="nonzero"/></clipPath><clipPath id="0b9ea6c33f"><path d="M 163.859375 98.566406 L 209.527344 95.867188 L 211.164062 123.570312 L 165.492188 126.265625 Z M 163.859375 98.566406 " clip-rule="nonzero"/></clipPath><clipPath id="4a178e8f3a"><path d="M 163.859375 98.566406 L 209.527344 95.867188 L 211.164062 123.570312 L 165.492188 126.265625 Z M 163.859375 98.566406 " clip-rule="nonzero"/></clipPath><clipPath id="6019864b22"><path d="M 170 121 L 180 121 L 180 125 L 170 125 Z M 170 121 " clip-rule="nonzero"/></clipPath><clipPath id="ffb4c81b11"><path d="M 163.859375 98.566406 L 209.527344 95.867188 L 211.164062 123.570312 L 165.492188 126.265625 Z M 163.859375 98.566406 " clip-rule="nonzero"/></clipPath><clipPath id="ff32b754c7"><path d="M 163.859375 98.566406 L 209.527344 95.867188 L 211.164062 123.570312 L 165.492188 126.265625 Z M 163.859375 98.566406 " clip-rule="nonzero"/></clipPath></defs><path fill="#f6f6f6" d="M 168.0625 199.53125 C 167.859375 199.40625 163.070312 200.601562 159.148438 204.441406 C 155.226562 208.277344 155.089844 212.25 156.382812 213.675781 C 157.675781 215.105469 164.496094 209.4375 164.855469 208.902344 C 165.210938 208.367188 169.535156 200.421875 168.0625 199.53125 Z M 168.0625 199.53125 " fill-opacity="1" fill-rule="nonzero"/><g clip-path="url(#2ef98fa82c)"><path fill="#f6f6f6" d="M 185.515625 244.277344 C 185.496094 245.375 185.464844 246.496094 185.421875 247.601562 C 185.226562 252.417969 184.773438 257.019531 183.785156 258.652344 C 181.40625 262.578125 167.140625 264.007812 165.121094 260.4375 C 163.097656 256.867188 169.757812 253.417969 169.757812 253.417969 C 169.25 252.027344 169.125 249.601562 169.222656 246.820312 C 169.257812 245.753906 169.328125 244.636719 169.417969 243.507812 L 169.417969 243.503906 C 169.925781 237.21875 171.132812 230.527344 171.421875 230.09375 L 185.449219 233.664062 C 185.449219 233.664062 185.617188 238.683594 185.515625 244.28125 Z M 185.515625 244.277344 " fill-opacity="1" fill-rule="nonzero"/></g><path fill="#f6f6f6" d="M 232.910156 143.296875 C 232.730469 143.296875 234.070312 123.972656 234.070312 123.972656 L 238.617188 123.929688 C 238.617188 123.929688 239.683594 147.757812 239.238281 147.800781 C 238.792969 147.847656 232.910156 143.296875 232.910156 143.296875 Z M 232.910156 143.296875 " fill-opacity="1" fill-rule="nonzero"/><path fill="#f6f6f6" d="M 240.265625 120.648438 C 240.265625 120.914062 240.238281 121.179688 240.1875 121.445312 C 240.132812 121.707031 240.058594 121.960938 239.953125 122.210938 C 239.851562 122.457031 239.726562 122.695312 239.578125 122.917969 C 239.429688 123.140625 239.257812 123.34375 239.070312 123.535156 C 238.882812 123.726562 238.675781 123.894531 238.453125 124.042969 C 238.230469 124.191406 237.996094 124.316406 237.746094 124.421875 C 237.5 124.523438 237.246094 124.601562 236.980469 124.652344 C 236.71875 124.703125 236.453125 124.730469 236.1875 124.730469 C 235.917969 124.730469 235.652344 124.703125 235.390625 124.652344 C 235.128906 124.601562 234.871094 124.523438 234.625 124.421875 C 234.378906 124.316406 234.140625 124.191406 233.917969 124.042969 C 233.695312 123.894531 233.492188 123.726562 233.300781 123.535156 C 233.113281 123.34375 232.941406 123.140625 232.792969 122.917969 C 232.644531 122.695312 232.519531 122.457031 232.417969 122.210938 C 232.316406 121.960938 232.238281 121.707031 232.183594 121.445312 C 232.132812 121.179688 232.105469 120.914062 232.105469 120.648438 C 232.105469 120.378906 232.132812 120.113281 232.183594 119.851562 C 232.238281 119.589844 232.316406 119.332031 232.417969 119.085938 C 232.519531 118.835938 232.644531 118.601562 232.792969 118.378906 C 232.941406 118.15625 233.113281 117.949219 233.300781 117.761719 C 233.492188 117.570312 233.695312 117.402344 233.917969 117.253906 C 234.140625 117.105469 234.378906 116.976562 234.625 116.875 C 234.871094 116.773438 235.128906 116.695312 235.390625 116.644531 C 235.652344 116.589844 235.917969 116.566406 236.1875 116.566406 C 236.453125 116.566406 236.71875 116.589844 236.980469 116.644531 C 237.246094 116.695312 237.5 116.773438 237.746094 116.875 C 237.996094 116.976562 238.230469 117.105469 238.453125 117.253906 C 238.675781 117.402344 238.882812 117.570312 239.070312 117.761719 C 239.261719 117.949219 239.429688 118.15625 239.578125 118.378906 C 239.726562 118.601562 239.851562 118.835938 239.953125 119.085938 C 240.058594 119.332031 240.132812 119.589844 240.1875 119.851562 C 240.238281 120.113281 240.265625 120.378906 240.265625 120.648438 Z M 240.265625 120.648438 " fill-opacity="1" fill-rule="nonzero"/><g clip-path="url(#32b2c08e36)"><path fill="#54a3e6" d="M 235.316406 171.070312 L 233.417969 171.167969 C 228.992188 171.390625 225.222656 167.976562 225.003906 163.546875 L 224.253906 148.570312 C 224.03125 144.140625 227.4375 140.367188 231.867188 140.144531 L 233.761719 140.050781 C 238.1875 139.828125 241.957031 143.242188 242.175781 147.671875 L 242.925781 162.648438 C 243.148438 167.078125 239.742188 170.847656 235.316406 171.070312 Z M 235.316406 171.070312 " fill-opacity="1" fill-rule="nonzero"/></g><path fill="#f6f6f6" d="M 143.933594 147.078125 C 144.109375 147.054688 140.242188 128.078125 140.242188 128.078125 L 135.730469 128.632812 C 135.730469 128.632812 137.800781 152.394531 138.25 152.378906 C 138.699219 152.367188 143.933594 147.078125 143.933594 147.078125 Z M 143.933594 147.078125 " fill-opacity="1" fill-rule="nonzero"/><path fill="#f6f6f6" d="M 140.589844 122.171875 C 140.78125 122.363281 140.949219 122.566406 141.097656 122.789062 C 141.246094 123.015625 141.371094 123.25 141.476562 123.496094 C 141.578125 123.746094 141.65625 124 141.707031 124.261719 C 141.757812 124.527344 141.785156 124.792969 141.785156 125.058594 C 141.785156 125.328125 141.757812 125.59375 141.707031 125.855469 C 141.65625 126.117188 141.578125 126.375 141.476562 126.621094 C 141.371094 126.871094 141.246094 127.105469 141.097656 127.328125 C 140.949219 127.550781 140.78125 127.757812 140.589844 127.945312 C 140.402344 128.136719 140.195312 128.304688 139.972656 128.453125 C 139.75 128.601562 139.515625 128.730469 139.269531 128.832031 C 139.019531 128.933594 138.765625 129.011719 138.503906 129.0625 C 138.238281 129.117188 137.972656 129.144531 137.707031 129.144531 C 137.4375 129.144531 137.171875 129.117188 136.910156 129.0625 C 136.648438 129.011719 136.394531 128.933594 136.144531 128.832031 C 135.898438 128.730469 135.664062 128.601562 135.441406 128.453125 C 135.21875 128.304688 135.011719 128.136719 134.824219 127.945312 C 134.632812 127.757812 134.464844 127.550781 134.316406 127.328125 C 134.167969 127.105469 134.039062 126.871094 133.9375 126.621094 C 133.835938 126.375 133.757812 126.117188 133.707031 125.855469 C 133.652344 125.59375 133.628906 125.328125 133.628906 125.058594 C 133.628906 124.792969 133.652344 124.527344 133.707031 124.261719 C 133.757812 124 133.835938 123.746094 133.9375 123.496094 C 134.039062 123.25 134.167969 123.015625 134.316406 122.789062 C 134.464844 122.566406 134.632812 122.363281 134.824219 122.171875 C 135.011719 121.980469 135.21875 121.8125 135.441406 121.664062 C 135.664062 121.515625 135.898438 121.390625 136.144531 121.285156 C 136.394531 121.183594 136.648438 121.105469 136.910156 121.054688 C 137.171875 121.003906 137.4375 120.976562 137.707031 120.976562 C 137.972656 120.976562 138.238281 121.003906 138.503906 121.054688 C 138.765625 121.105469 139.019531 121.183594 139.269531 121.285156 C 139.515625 121.390625 139.75 121.515625 139.972656 121.664062 C 140.195312 121.8125 140.402344 121.980469 140.589844 122.171875 Z M 140.589844 122.171875 " fill-opacity="1" fill-rule="nonzero"/><path fill="#54a3e6" d="M 145.199219 174.929688 L 147.09375 174.773438 C 151.507812 174.410156 154.796875 170.53125 154.433594 166.109375 L 153.207031 151.167969 C 152.84375 146.746094 148.96875 143.457031 144.554688 143.820312 L 142.660156 143.976562 C 138.246094 144.339844 134.957031 148.214844 135.320312 152.636719 L 136.546875 167.582031 C 136.910156 172.003906 140.785156 175.292969 145.199219 174.929688 Z M 145.199219 174.929688 " fill-opacity="1" fill-rule="nonzero"/><g clip-path="url(#d228ce0662)"><path fill="#f6f6f6" d="M 235.515625 156.640625 C 236.960938 180.199219 217.53125 196.46875 192.121094 198.03125 C 166.710938 199.589844 144.945312 185.847656 143.5 162.285156 C 142.058594 138.726562 151.164062 115.277344 186.898438 112.714844 C 222.835938 110.140625 234.074219 133.082031 235.515625 156.640625 Z M 235.515625 156.640625 " fill-opacity="1" fill-rule="nonzero"/></g><path fill="#160e0b" d="M 172.132812 132.511719 C 172.132812 132.511719 156.679688 134.296875 154.183594 147.863281 C 151.832031 160.648438 151.925781 182.015625 177.007812 187.25 C 202.089844 192.488281 221.585938 182.132812 225.746094 165.710938 C 229.90625 149.289062 223.964844 135.128906 214.453125 132.273438 C 201.378906 128.347656 172.132812 132.511719 172.132812 132.511719 Z M 172.132812 132.511719 " fill-opacity="1" fill-rule="nonzero"/><path fill="#54a3e6" d="M 214.214844 153.8125 C 214.214844 154.328125 214.179688 154.839844 214.109375 155.34375 C 214.039062 155.851562 213.929688 156.339844 213.789062 156.816406 C 213.652344 157.292969 213.476562 157.746094 213.273438 158.175781 C 213.070312 158.605469 212.839844 159 212.578125 159.367188 C 212.320312 159.730469 212.039062 160.054688 211.734375 160.34375 C 211.429688 160.628906 211.105469 160.871094 210.765625 161.066406 C 210.429688 161.265625 210.078125 161.414062 209.71875 161.515625 C 209.359375 161.617188 208.996094 161.667969 208.628906 161.667969 C 208.261719 161.667969 207.898438 161.617188 207.539062 161.515625 C 207.179688 161.414062 206.828125 161.265625 206.492188 161.066406 C 206.152344 160.871094 205.832031 160.628906 205.523438 160.34375 C 205.21875 160.054688 204.9375 159.730469 204.679688 159.367188 C 204.417969 159 204.1875 158.605469 203.984375 158.175781 C 203.78125 157.746094 203.609375 157.292969 203.46875 156.816406 C 203.328125 156.339844 203.222656 155.851562 203.148438 155.34375 C 203.078125 154.839844 203.042969 154.328125 203.042969 153.8125 C 203.042969 153.296875 203.078125 152.785156 203.148438 152.28125 C 203.222656 151.773438 203.328125 151.28125 203.46875 150.804688 C 203.609375 150.328125 203.78125 149.878906 203.984375 149.449219 C 204.1875 149.019531 204.417969 148.625 204.679688 148.257812 C 204.9375 147.894531 205.21875 147.566406 205.523438 147.28125 C 205.832031 146.996094 206.152344 146.753906 206.492188 146.554688 C 206.828125 146.359375 207.179688 146.210938 207.539062 146.109375 C 207.898438 146.007812 208.261719 145.957031 208.628906 145.957031 C 208.996094 145.957031 209.359375 146.007812 209.71875 146.109375 C 210.078125 146.210938 210.429688 146.359375 210.765625 146.554688 C 211.105469 146.753906 211.429688 146.996094 211.734375 147.28125 C 212.039062 147.566406 212.320312 147.894531 212.578125 148.257812 C 212.839844 148.625 213.070312 149.019531 213.273438 149.449219 C 213.476562 149.878906 213.652344 150.328125 213.789062 150.804688 C 213.929688 151.28125 214.039062 151.773438 214.109375 152.28125 C 214.179688 152.785156 214.214844 153.296875 214.214844 153.8125 Z M 214.214844 153.8125 " fill-opacity="1" fill-rule="nonzero"/><path fill="#54a3e6" d="M 177.125 155.242188 C 177.125 155.757812 177.089844 156.265625 177.019531 156.773438 C 176.949219 157.277344 176.839844 157.769531 176.703125 158.246094 C 176.5625 158.722656 176.390625 159.175781 176.183594 159.605469 C 175.980469 160.03125 175.75 160.429688 175.492188 160.792969 C 175.230469 161.160156 174.949219 161.484375 174.644531 161.769531 C 174.339844 162.058594 174.015625 162.300781 173.675781 162.496094 C 173.339844 162.695312 172.988281 162.84375 172.628906 162.945312 C 172.269531 163.042969 171.90625 163.09375 171.539062 163.09375 C 171.171875 163.09375 170.808594 163.042969 170.449219 162.945312 C 170.089844 162.84375 169.742188 162.695312 169.402344 162.496094 C 169.0625 162.300781 168.742188 162.058594 168.4375 161.769531 C 168.128906 161.484375 167.847656 161.160156 167.589844 160.792969 C 167.328125 160.429688 167.097656 160.03125 166.894531 159.605469 C 166.691406 159.175781 166.519531 158.722656 166.378906 158.246094 C 166.238281 157.769531 166.132812 157.277344 166.058594 156.773438 C 165.988281 156.265625 165.953125 155.757812 165.953125 155.242188 C 165.953125 154.722656 165.988281 154.214844 166.058594 153.707031 C 166.132812 153.203125 166.238281 152.710938 166.378906 152.234375 C 166.519531 151.757812 166.691406 151.304688 166.894531 150.875 C 167.097656 150.449219 167.328125 150.050781 167.589844 149.6875 C 167.847656 149.320312 168.128906 148.996094 168.4375 148.710938 C 168.742188 148.421875 169.0625 148.179688 169.402344 147.984375 C 169.742188 147.785156 170.089844 147.636719 170.449219 147.539062 C 170.808594 147.4375 171.171875 147.386719 171.539062 147.386719 C 171.90625 147.386719 172.269531 147.4375 172.628906 147.539062 C 172.988281 147.636719 173.339844 147.785156 173.675781 147.984375 C 174.015625 148.179688 174.339844 148.421875 174.644531 148.710938 C 174.949219 148.996094 175.230469 149.320312 175.492188 149.6875 C 175.75 150.050781 175.980469 150.449219 176.183594 150.875 C 176.390625 151.304688 176.5625 151.757812 176.703125 152.234375 C 176.839844 152.710938 176.949219 153.203125 177.019531 153.707031 C 177.089844 154.214844 177.125 154.722656 177.125 155.242188 Z M 177.125 155.242188 " fill-opacity="1" fill-rule="nonzero"/><path fill="#54a3e6" d="M 168.242188 162.464844 C 168.242188 162.464844 168.242188 162.464844 168.238281 162.464844 C 168.242188 162.464844 168.242188 162.464844 168.242188 162.464844 Z M 168.242188 162.464844 Z M 165.59375 151.65625 C 165.59375 151.65625 165.59375 151.65625 165.597656 151.65625 C 165.59375 151.65625 165.59375 151.65625 165.59375 151.65625 Z M 165.59375 151.65625 Z M 165.59375 151.65625 " fill-opacity="1" fill-rule="nonzero"/><path fill="#f6f6f6" d="M 215.878906 223.546875 C 212.433594 238.304688 176.058594 244.015625 167.855469 228.664062 C 165.289062 223.863281 164.410156 218.46875 164.429688 213.296875 C 164.433594 212.191406 164.480469 211.097656 164.558594 210.019531 C 165.296875 200.035156 168.914062 191.621094 169.28125 191.179688 L 210.410156 192.367188 C 210.410156 192.367188 214.867188 200.574219 216.261719 210.597656 C 216.40625 211.648438 216.519531 212.714844 216.589844 213.800781 C 216.796875 217.003906 216.636719 220.316406 215.878906 223.546875 Z M 215.878906 223.546875 " fill-opacity="1" fill-rule="nonzero"/><path fill="#54a3e6" d="M 185.515625 244.277344 C 185.496094 245.375 185.464844 246.496094 185.421875 247.601562 C 183.921875 247.996094 182.386719 248.246094 180.847656 248.382812 C 179.035156 248.546875 177.203125 248.515625 175.398438 248.292969 C 173.460938 248.050781 171.554688 247.648438 169.707031 246.996094 C 169.546875 246.9375 169.382812 246.878906 169.222656 246.820312 C 169.257812 245.753906 169.328125 244.636719 169.417969 243.507812 L 169.417969 243.503906 C 169.417969 243.503906 169.421875 243.507812 169.421875 243.507812 C 169.421875 243.507812 169.425781 243.507812 169.425781 243.507812 C 171.324219 244.289062 173.320312 244.824219 175.351562 245.117188 C 175.769531 245.167969 176.195312 245.210938 176.617188 245.242188 C 178.332031 245.371094 180.058594 245.328125 181.761719 245.113281 C 183.03125 244.929688 184.289062 244.652344 185.515625 244.277344 Z M 185.515625 244.277344 " fill-opacity="1" fill-rule="nonzero"/><g clip-path="url(#03ae02750a)"><path fill="#f6f6f6" d="M 194.492188 244.277344 C 194.511719 245.375 194.539062 246.496094 194.585938 247.601562 C 194.777344 252.417969 195.234375 257.019531 196.222656 258.652344 C 198.597656 262.578125 212.863281 264.007812 214.886719 260.4375 C 216.90625 256.867188 210.25 253.417969 210.25 253.417969 C 210.757812 252.027344 210.878906 249.601562 210.785156 246.820312 C 210.746094 245.753906 210.679688 244.636719 210.585938 243.507812 L 210.585938 243.503906 C 210.082031 237.21875 208.875 230.527344 208.585938 230.09375 L 194.558594 233.664062 C 194.558594 233.664062 194.386719 238.683594 194.492188 244.28125 Z M 194.492188 244.277344 " fill-opacity="1" fill-rule="nonzero"/></g><path fill="#54a3e6" d="M 194.492188 244.277344 C 194.511719 245.375 194.539062 246.496094 194.585938 247.601562 C 196.082031 247.996094 197.617188 248.246094 199.160156 248.382812 C 200.972656 248.546875 202.800781 248.515625 204.605469 248.292969 C 206.546875 248.050781 208.453125 247.648438 210.296875 246.996094 C 210.460938 246.9375 210.621094 246.878906 210.78125 246.820312 C 210.746094 245.753906 210.679688 244.636719 210.585938 243.507812 L 210.585938 243.503906 C 210.585938 243.503906 210.585938 243.507812 210.585938 243.507812 C 210.582031 243.507812 210.582031 243.507812 210.578125 243.507812 C 208.679688 244.289062 206.6875 244.824219 204.65625 245.117188 C 204.234375 245.167969 203.8125 245.210938 203.386719 245.242188 C 201.675781 245.371094 199.949219 245.328125 198.242188 245.113281 C 196.972656 244.929688 195.71875 244.652344 194.492188 244.277344 Z M 194.492188 244.277344 " fill-opacity="1" fill-rule="nonzero"/><path fill="#54a3e6" d="M 187.878906 243.421875 C 187.753906 243.476562 187.628906 243.53125 187.5 243.582031 C 187.554688 243.558594 187.613281 243.535156 187.667969 243.511719 C 187.738281 243.484375 187.808594 243.453125 187.878906 243.421875 Z M 187.878906 243.421875 " fill-opacity="1" fill-rule="nonzero"/><path fill="#54a3e6" d="M 216.589844 213.800781 C 216.210938 213.90625 215.832031 214.007812 215.453125 214.101562 C 212.667969 214.785156 209.8125 215.113281 206.957031 215.328125 C 204.117188 215.539062 201.273438 215.714844 198.429688 215.875 C 195.578125 216.039062 192.722656 216.167969 189.863281 216.214844 C 187 216.265625 184.128906 216.230469 181.265625 216.070312 C 178.496094 215.914062 175.738281 215.628906 172.996094 215.207031 C 170.664062 214.847656 168.347656 214.375 166.070312 213.765625 C 165.796875 213.691406 165.519531 213.613281 165.246094 213.535156 C 164.972656 213.457031 164.703125 213.378906 164.429688 213.296875 C 164.433594 212.191406 164.480469 211.097656 164.558594 210.019531 C 166.113281 210.511719 167.683594 210.929688 169.269531 211.289062 C 171.167969 211.714844 173.085938 212.054688 175.015625 212.320312 C 175.21875 212.347656 175.421875 212.375 175.625 212.398438 C 177.855469 212.675781 180.101562 212.855469 182.351562 212.957031 C 184.738281 213.0625 187.132812 213.085938 189.527344 213.050781 C 191.921875 213.015625 194.3125 212.921875 196.703125 212.800781 C 199.097656 212.675781 201.488281 212.523438 203.878906 212.367188 C 206.152344 212.21875 208.425781 212.082031 210.6875 211.789062 C 211.492188 211.679688 212.296875 211.546875 213.09375 211.382812 C 214.160156 211.167969 215.214844 210.902344 216.261719 210.59375 C 216.40625 211.644531 216.519531 212.714844 216.589844 213.800781 Z M 216.589844 213.800781 " fill-opacity="1" fill-rule="nonzero"/><path fill="#54a3e6" d="M 189.757812 176.167969 C 186.777344 176.167969 184.167969 175.644531 181.984375 174.613281 C 180 173.675781 178.929688 172.5625 178.527344 172.144531 C 178.503906 172.121094 178.476562 172.09375 178.457031 172.074219 C 178.042969 171.75 177.898438 171.171875 178.144531 170.683594 C 178.421875 170.128906 179.09375 169.902344 179.652344 170.179688 C 179.851562 170.28125 179.976562 170.40625 180.144531 170.582031 C 182.992188 173.539062 187.429688 174.019531 190.652344 173.898438 C 198.253906 173.621094 199.714844 168.535156 199.726562 168.484375 C 199.890625 167.882812 200.507812 167.527344 201.105469 167.691406 C 201.707031 167.851562 202.058594 168.46875 201.898438 169.070312 C 201.878906 169.140625 201.402344 170.851562 199.753906 172.5625 C 198.804688 173.550781 197.648438 174.351562 196.324219 174.945312 C 194.703125 175.667969 192.820312 176.070312 190.734375 176.148438 C 190.40625 176.160156 190.078125 176.167969 189.757812 176.167969 Z M 178.644531 172.191406 Z M 178.644531 172.191406 Z M 178.644531 172.191406 " fill-opacity="1" fill-rule="nonzero"/><path fill="#f6f6f6" d="M 211.726562 198.816406 C 211.929688 198.691406 216.71875 199.886719 220.640625 203.726562 C 224.566406 207.5625 224.699219 211.535156 223.40625 212.964844 C 222.113281 214.390625 215.292969 208.722656 214.9375 208.1875 C 214.578125 207.652344 210.253906 199.710938 211.726562 198.816406 Z M 211.726562 198.816406 " fill-opacity="1" fill-rule="nonzero"/><path fill="#bfbfbf" d="M 165.585938 197.835938 C 165.585938 197.835938 167.460938 222.46875 169.152344 223.273438 C 170.847656 224.074219 212.574219 223.363281 213.820312 222.558594 C 215.070312 221.753906 216.40625 197.925781 216.40625 197.925781 C 216.40625 197.925781 216.851562 195.515625 213.285156 195.070312 C 209.71875 194.621094 166.746094 196.496094 166.746094 196.496094 C 166.746094 196.496094 165.675781 196.675781 165.585938 197.835938 Z M 165.585938 197.835938 " fill-opacity="1" fill-rule="nonzero"/><path fill="#f6f6f6" d="M 217.296875 205.390625 C 217.296875 205.390625 212.542969 206.226562 209.691406 205.152344 C 206.835938 204.082031 203.984375 206.703125 204.933594 209.320312 C 205.886719 211.9375 207.074219 211.9375 207.074219 211.9375 C 207.074219 211.9375 204.371094 212.742188 204.859375 214.792969 C 205.351562 216.847656 207 217.605469 207 217.605469 C 207 217.605469 205.484375 218.585938 206.554688 220.417969 C 207.625 222.246094 213.109375 222.824219 217.253906 221.933594 C 221.398438 221.042969 223.894531 217.113281 223.808594 212.964844 C 223.71875 208.8125 220.0625 205.273438 217.296875 205.390625 Z M 217.296875 205.390625 " fill-opacity="1" fill-rule="nonzero"/><path fill="#160e0b" d="M 207.886719 212.460938 C 209.953125 213.214844 212.191406 213.695312 214.398438 213.398438 C 215.015625 213.316406 215.621094 213.175781 216.207031 212.960938 C 216.414062 212.882812 216.554688 212.679688 216.492188 212.457031 C 216.4375 212.257812 216.199219 212.09375 215.988281 212.171875 C 214 212.898438 211.847656 212.75 209.832031 212.21875 C 209.246094 212.0625 208.671875 211.878906 208.101562 211.671875 C 207.894531 211.597656 207.65625 211.757812 207.601562 211.957031 C 207.539062 212.183594 207.675781 212.382812 207.886719 212.460938 Z M 207.886719 212.460938 " fill-opacity="1" fill-rule="nonzero"/><path fill="#160e0b" d="M 208.359375 217.816406 C 208.75 218.109375 209.234375 218.195312 209.707031 218.25 C 210.230469 218.308594 210.757812 218.347656 211.285156 218.378906 C 211.824219 218.40625 212.363281 218.425781 212.902344 218.429688 C 213.417969 218.433594 213.910156 218.394531 214.386719 218.1875 C 214.589844 218.097656 214.636719 217.800781 214.535156 217.625 C 214.410156 217.417969 214.175781 217.390625 213.972656 217.480469 C 213.605469 217.640625 213.164062 217.613281 212.769531 217.609375 C 212.273438 217.605469 211.78125 217.585938 211.285156 217.558594 C 210.796875 217.53125 210.308594 217.496094 209.820312 217.445312 C 209.445312 217.40625 209.078125 217.339844 208.773438 217.109375 C 208.597656 216.976562 208.316406 217.082031 208.214844 217.257812 C 208.09375 217.464844 208.183594 217.683594 208.359375 217.816406 Z M 208.359375 217.816406 " fill-opacity="1" fill-rule="nonzero"/><path fill="#160e0b" d="M 216.671875 205.976562 C 217.757812 206.074219 218.820312 206.398438 219.78125 206.910156 C 220.242188 207.160156 220.65625 206.453125 220.191406 206.203125 C 219.097656 205.617188 217.90625 205.269531 216.671875 205.160156 C 216.453125 205.136719 216.265625 205.359375 216.265625 205.566406 C 216.265625 205.804688 216.453125 205.957031 216.671875 205.976562 Z M 216.671875 205.976562 " fill-opacity="1" fill-rule="nonzero"/><path fill="#f6f6f6" d="M 162.492188 206.105469 C 162.492188 206.105469 167.246094 206.9375 170.101562 205.867188 C 172.953125 204.796875 175.804688 207.414062 174.855469 210.035156 C 173.902344 212.652344 172.714844 212.652344 172.714844 212.652344 C 172.714844 212.652344 175.417969 213.453125 174.929688 215.507812 C 174.4375 217.558594 172.789062 218.320312 172.789062 218.320312 C 172.789062 218.320312 174.304688 219.300781 173.234375 221.128906 C 172.164062 222.960938 166.683594 223.539062 162.535156 222.648438 C 158.390625 221.753906 155.894531 217.828125 155.984375 213.675781 C 156.070312 209.527344 159.726562 205.988281 162.492188 206.105469 Z M 162.492188 206.105469 " fill-opacity="1" fill-rule="nonzero"/><path fill="#160e0b" d="M 171.902344 213.175781 C 169.835938 213.929688 167.597656 214.410156 165.394531 214.113281 C 164.773438 214.03125 164.167969 213.886719 163.582031 213.671875 C 163.375 213.597656 163.234375 213.394531 163.296875 213.167969 C 163.351562 212.96875 163.59375 212.808594 163.800781 212.882812 C 165.789062 213.613281 167.941406 213.460938 169.960938 212.933594 C 170.542969 212.777344 171.117188 212.59375 171.6875 212.386719 C 171.894531 212.308594 172.132812 212.46875 172.191406 212.671875 C 172.253906 212.898438 172.113281 213.097656 171.902344 213.175781 Z M 171.902344 213.175781 " fill-opacity="1" fill-rule="nonzero"/><path fill="#160e0b" d="M 171.429688 218.53125 C 171.039062 218.824219 170.554688 218.910156 170.082031 218.964844 C 169.558594 219.023438 169.03125 219.0625 168.503906 219.089844 C 167.964844 219.121094 167.425781 219.140625 166.886719 219.144531 C 166.371094 219.148438 165.878906 219.109375 165.402344 218.898438 C 165.199219 218.8125 165.152344 218.515625 165.257812 218.339844 C 165.378906 218.132812 165.613281 218.105469 165.816406 218.191406 C 166.1875 218.355469 166.628906 218.328125 167.023438 218.324219 C 167.515625 218.316406 168.011719 218.300781 168.503906 218.273438 C 168.992188 218.246094 169.484375 218.207031 169.96875 218.15625 C 170.34375 218.117188 170.710938 218.054688 171.015625 217.824219 C 171.191406 217.691406 171.472656 217.796875 171.574219 217.96875 C 171.695312 218.179688 171.605469 218.398438 171.429688 218.53125 Z M 171.429688 218.53125 " fill-opacity="1" fill-rule="nonzero"/><path fill="#160e0b" d="M 163.117188 206.691406 C 162.03125 206.789062 160.96875 207.109375 160.011719 207.625 C 159.546875 207.875 159.132812 207.167969 159.597656 206.917969 C 160.691406 206.332031 161.882812 205.984375 163.117188 205.871094 C 163.335938 205.851562 163.527344 206.074219 163.527344 206.28125 C 163.527344 206.519531 163.339844 206.671875 163.117188 206.691406 Z M 163.117188 206.691406 " fill-opacity="1" fill-rule="nonzero"/><g clip-path="url(#26c86e8b77)"><g clip-path="url(#ca25ea4c29)"><g clip-path="url(#90c0db34a0)"><path fill="#002d75" d="M 204.734375 104.605469 C 204.753906 104.941406 204.753906 105.277344 204.734375 105.609375 C 203.859375 105.050781 202.925781 104.582031 201.953125 104.21875 C 197.082031 102.386719 192.039062 101.613281 186.96875 101.910156 C 181.894531 102.210938 176.980469 103.574219 172.355469 105.964844 C 171.429688 106.441406 170.5625 107.015625 169.757812 107.671875 C 169.699219 107.347656 169.660156 107.015625 169.640625 106.675781 C 169.363281 102.027344 172.921875 98.027344 177.570312 97.75 L 195.808594 96.675781 C 200.457031 96.398438 204.460938 99.957031 204.734375 104.605469 Z M 204.734375 104.605469 " fill-opacity="1" fill-rule="nonzero"/></g></g></g><g clip-path="url(#d943300111)"><g clip-path="url(#d5ea1f7a40)"><g clip-path="url(#c7000342cf)"><path fill="#002d75" d="M 204.535156 106.992188 C 203.636719 106.367188 202.628906 105.828125 201.507812 105.40625 C 196.800781 103.640625 191.933594 102.890625 187.042969 103.179688 C 182.148438 103.46875 177.402344 104.785156 172.9375 107.09375 C 171.875 107.644531 170.9375 108.296875 170.117188 109.023438 C 169.941406 109.171875 169.773438 109.332031 169.609375 109.488281 C 171.003906 113.054688 174.574219 115.480469 178.601562 115.242188 L 185.875 114.8125 L 185.820312 113.855469 L 183.515625 113.992188 C 182.578125 114.046875 181.769531 113.265625 181.710938 112.246094 C 181.648438 111.226562 182.359375 110.355469 183.296875 110.300781 L 185.601562 110.164062 L 185.464844 107.859375 C 185.410156 106.921875 186.191406 106.113281 187.210938 106.054688 C 188.230469 105.996094 189.101562 106.707031 189.15625 107.640625 L 189.292969 109.945312 L 191.597656 109.8125 C 192.535156 109.753906 193.34375 110.535156 193.402344 111.554688 C 193.460938 112.574219 192.753906 113.449219 191.816406 113.503906 L 189.511719 113.640625 L 189.570312 114.597656 L 196.84375 114.167969 C 200.871094 113.929688 204.128906 111.097656 205.09375 107.394531 C 204.914062 107.253906 204.726562 107.121094 204.535156 106.992188 Z M 204.535156 106.992188 " fill-opacity="1" fill-rule="nonzero"/></g></g></g><g clip-path="url(#8431a99c32)"><g clip-path="url(#5c32782e57)"><g clip-path="url(#76cf7824f0)"><path fill="#ffffff" d="M 205.09375 107.394531 C 204.914062 107.253906 204.726562 107.121094 204.535156 106.992188 C 203.71875 110.550781 200.632812 113.304688 196.804688 113.53125 L 189.53125 113.960938 L 189.605469 115.230469 L 196.878906 114.800781 C 201.082031 114.554688 204.511719 111.652344 205.632812 107.828125 C 205.457031 107.679688 205.28125 107.535156 205.09375 107.394531 Z M 178.566406 114.609375 C 174.738281 114.835938 171.347656 112.460938 170.117188 109.023438 C 169.941406 109.171875 169.773438 109.332031 169.609375 109.488281 C 169.441406 109.648438 169.285156 109.8125 169.128906 109.980469 C 170.691406 113.648438 174.4375 116.125 178.640625 115.878906 L 185.914062 115.449219 L 185.839844 114.179688 Z M 178.566406 114.609375 " fill-opacity="1" fill-rule="nonzero"/></g></g></g><g clip-path="url(#2521529078)"><g clip-path="url(#0b9ea6c33f)"><g clip-path="url(#4a178e8f3a)"><path fill="#002d75" d="M 209.960938 114.214844 C 209.324219 112.167969 207.910156 109.746094 205.632812 107.828125 C 205.457031 107.679688 205.28125 107.535156 205.09375 107.394531 C 204.914062 107.253906 204.726562 107.121094 204.535156 106.992188 C 203.636719 106.367188 202.628906 105.828125 201.507812 105.40625 C 196.800781 103.640625 191.933594 102.890625 187.042969 103.179688 C 182.148438 103.46875 177.402344 104.785156 172.9375 107.09375 C 171.875 107.644531 170.9375 108.296875 170.117188 109.023438 C 169.941406 109.171875 169.773438 109.332031 169.609375 109.488281 C 169.445312 109.648438 169.285156 109.8125 169.128906 109.980469 C 167.09375 112.15625 165.972656 114.726562 165.582031 116.832031 C 165.109375 119.367188 165.535156 121.601562 166.746094 122.964844 C 167.429688 123.757812 168.1875 124.335938 168.972656 124.75 C 169.175781 124.769531 169.664062 124.808594 170.332031 124.816406 C 170.710938 124.820312 171.148438 124.8125 171.625 124.78125 C 174.03125 124.640625 177.449219 123.972656 179.519531 121.519531 C 179.714844 121.292969 179.894531 121.050781 180.0625 120.789062 C 180.253906 120.496094 180.648438 120.410156 180.941406 120.601562 C 181.238281 120.792969 181.324219 121.183594 181.132812 121.480469 C 179.609375 123.84375 177.210938 125.019531 174.925781 125.59375 C 176.304688 125.386719 177.707031 124.945312 179.042969 124.296875 C 181.914062 122.8125 184.976562 121.964844 188.140625 121.777344 C 191.300781 121.589844 194.445312 122.074219 197.484375 123.214844 C 199.242188 123.828125 201.089844 124.097656 202.8125 123.996094 C 204.859375 123.875 207.683594 123.164062 209.523438 120.445312 C 210.566406 118.945312 210.726562 116.675781 209.960938 114.214844 Z M 183.386719 119.027344 C 182.839844 119.640625 181.898438 119.695312 181.285156 119.148438 C 180.667969 118.601562 180.613281 117.660156 181.160156 117.046875 C 181.707031 116.429688 182.648438 116.375 183.261719 116.921875 C 183.878906 117.46875 183.933594 118.410156 183.386719 119.027344 Z M 189.648438 115.945312 C 189.703125 116.878906 188.921875 117.6875 187.902344 117.746094 C 186.882812 117.808594 186.011719 117.097656 185.957031 116.164062 L 185.820312 113.855469 L 183.515625 113.992188 C 182.578125 114.046875 181.769531 113.265625 181.710938 112.246094 C 181.648438 111.226562 182.359375 110.355469 183.296875 110.300781 L 185.601562 110.164062 L 185.464844 107.859375 C 185.410156 106.921875 186.191406 106.113281 187.210938 106.054688 C 188.230469 105.996094 189.101562 106.707031 189.15625 107.640625 L 189.292969 109.945312 L 191.597656 109.8125 C 192.535156 109.753906 193.34375 110.535156 193.402344 111.554688 C 193.460938 112.574219 192.753906 113.449219 191.816406 113.503906 L 189.511719 113.640625 Z M 189.648438 115.945312 " fill-opacity="1" fill-rule="nonzero"/><path fill="#002d75" d="M 209.960938 114.214844 C 209.324219 112.167969 207.910156 109.746094 205.632812 107.828125 C 205.457031 107.679688 205.28125 107.535156 205.09375 107.394531 C 204.914062 107.253906 204.726562 107.121094 204.535156 106.992188 C 203.636719 106.367188 202.628906 105.828125 201.507812 105.40625 C 196.800781 103.640625 191.933594 102.890625 187.042969 103.179688 C 182.148438 103.46875 177.402344 104.785156 172.9375 107.09375 C 171.875 107.644531 170.9375 108.296875 170.117188 109.023438 C 169.941406 109.171875 169.773438 109.332031 169.609375 109.488281 C 169.445312 109.648438 169.285156 109.8125 169.128906 109.980469 C 167.09375 112.15625 165.972656 114.726562 165.582031 116.832031 C 165.109375 119.367188 165.535156 121.601562 166.746094 122.964844 C 167.429688 123.757812 168.1875 124.335938 168.972656 124.75 C 169.175781 124.769531 169.664062 124.808594 170.332031 124.816406 C 170.710938 124.820312 171.148438 124.8125 171.625 124.78125 C 174.03125 124.640625 177.449219 123.972656 179.519531 121.519531 C 179.714844 121.292969 179.894531 121.050781 180.0625 120.789062 C 180.253906 120.496094 180.648438 120.410156 180.941406 120.601562 C 181.238281 120.792969 181.324219 121.183594 181.132812 121.480469 C 179.609375 123.84375 177.210938 125.019531 174.925781 125.59375 C 176.304688 125.386719 177.707031 124.945312 179.042969 124.296875 C 181.914062 122.8125 184.976562 121.964844 188.140625 121.777344 C 191.300781 121.589844 194.445312 122.074219 197.484375 123.214844 C 199.242188 123.828125 201.089844 124.097656 202.8125 123.996094 C 204.859375 123.875 207.683594 123.164062 209.523438 120.445312 C 210.566406 118.945312 210.726562 116.675781 209.960938 114.214844 Z M 183.386719 119.027344 C 182.839844 119.640625 181.898438 119.695312 181.285156 119.148438 C 180.667969 118.601562 180.613281 117.660156 181.160156 117.046875 C 181.707031 116.429688 182.648438 116.375 183.261719 116.921875 C 183.878906 117.46875 183.933594 118.410156 183.386719 119.027344 Z M 189.648438 115.945312 C 189.703125 116.878906 188.921875 117.6875 187.902344 117.746094 C 186.882812 117.808594 186.011719 117.097656 185.957031 116.164062 L 185.820312 113.855469 L 183.515625 113.992188 C 182.578125 114.046875 181.769531 113.265625 181.710938 112.246094 C 181.648438 111.226562 182.359375 110.355469 183.296875 110.300781 L 185.601562 110.164062 L 185.464844 107.859375 C 185.410156 106.921875 186.191406 106.113281 187.210938 106.054688 C 188.230469 105.996094 189.101562 106.707031 189.15625 107.640625 L 189.292969 109.945312 L 191.597656 109.8125 C 192.535156 109.753906 193.34375 110.535156 193.402344 111.554688 C 193.460938 112.574219 192.753906 113.449219 191.816406 113.503906 L 189.511719 113.640625 Z M 189.648438 115.945312 " fill-opacity="1" fill-rule="nonzero"/></g></g></g><g clip-path="url(#6019864b22)"><g clip-path="url(#ffb4c81b11)"><g clip-path="url(#ff32b754c7)"><path fill="#002d75" d="M 179.519531 121.519531 C 177.449219 123.972656 174.03125 124.640625 171.625 124.78125 C 171.148438 124.8125 170.710938 124.820312 170.332031 124.816406 Z M 179.519531 121.519531 " fill-opacity="1" fill-rule="nonzero"/></g></g></g></svg>