<svg width="186" height="163" viewBox="0 0 186 163" fill="none" xmlns="http://www.w3.org/2000/svg">
<g clip-path="url(#clip0_72_11323)">
<mask id="mask0_72_11323" style="mask-type:alpha" maskUnits="userSpaceOnUse" x="77" y="3" width="104" height="89">
<path d="M180.981 3.69263H77.668V91.3035H180.981V3.69263Z" fill="white"/>
</mask>
<g mask="url(#mask0_72_11323)">
<path d="M174.007 -2.6438H84.6419C80.79 -2.6438 77.668 0.478601 77.668 4.33026V77.9929C77.668 81.8448 80.79 84.9669 84.6419 84.9669H174.007C177.859 84.9669 180.981 81.8444 180.981 77.9929V4.33026C180.981 0.478589 177.859 -2.6438 174.007 -2.6438Z" fill="black"/>
<path d="M102.922 70.8888C144.414 70.8888 154.842 37.4437 159.445 22.3276" stroke="#B5E2F7" stroke-width="1.94594" stroke-linecap="round" stroke-linejoin="round"/>
<path fill-rule="evenodd" clip-rule="evenodd" d="M156.082 23.205C155.666 23.0937 155.419 22.6667 155.531 22.2513C155.566 22.1175 155.637 21.9957 155.736 21.8984L160.258 17.4453C160.565 17.1432 161.059 17.1466 161.361 17.4528C161.455 17.5475 161.522 17.6645 161.558 17.7928L163.243 23.9064C163.358 24.321 163.114 24.7498 162.698 24.864C162.565 24.9008 162.424 24.9013 162.29 24.8655" fill="#B5E2F7"/>
<path d="M96.2625 74.0414H166.831C167.262 74.0414 167.611 74.3903 167.611 74.8205C167.611 75.2503 167.262 75.5992 166.831 75.5992H95.4826C95.052 75.5992 94.7031 75.2503 94.7031 74.8205V15.1948C94.7031 14.7647 95.052 14.416 95.4826 14.416C95.9132 14.416 96.2625 14.7647 96.2625 15.1948V74.0414Z" fill="#E5E5E5"/>
</g>
<path d="M181.633 0H77.1497C75.2119 0 73.6406 1.56899 73.6406 3.50443V4.28318C73.6406 6.21864 75.2119 7.78762 77.1497 7.78762H181.633C183.571 7.78762 185.141 6.21864 185.141 4.28318V3.50443C185.141 1.56899 183.571 0 181.633 0Z" fill="#1CB0F6"/>
<path d="M84.2147 157.309H22.9637C21.6311 157.309 20.5508 158.389 20.5508 159.721C20.5508 161.054 21.6311 162.134 22.9637 162.134H84.2147C85.5473 162.134 86.6276 161.054 86.6276 159.721C86.6276 158.389 85.5473 157.309 84.2147 157.309Z" fill="#E5E5E5"/>
<path d="M20.5508 148.157V154.538C20.5508 156.068 19.3101 157.309 17.7797 157.309H-17.0802C-18.6106 157.309 -19.8513 156.068 -19.8513 154.538V148.157C-19.8513 146.627 -18.6106 145.386 -17.0802 145.386H17.7797C19.3101 145.386 20.5508 146.627 20.5508 148.157Z" fill="#A560E8"/>
<mask id="mask1_72_11323" style="mask-type:alpha" maskUnits="userSpaceOnUse" x="34" y="135" width="42" height="13">
<path d="M75.0195 138.386V144.766C75.0195 146.296 73.7789 147.537 72.2485 147.537H37.3886C35.8581 147.537 34.6175 146.296 34.6175 144.766V138.386C34.6175 136.855 35.8581 135.615 37.3886 135.615H72.2485C73.7789 135.615 75.0195 136.855 75.0195 138.386Z" fill="white"/>
</mask>
<g mask="url(#mask1_72_11323)">
<path d="M46.2341 141.118C46.6139 141.118 46.9219 141.426 46.9219 141.806C46.9219 142.186 46.6139 142.494 46.2341 142.494H37.9683C37.5884 142.494 37.2805 142.186 37.2805 141.806C37.2805 141.426 37.5884 141.118 37.9683 141.118H46.2341Z" fill="#B77FEC"/>
<path d="M50.7731 141.118C51.153 141.118 51.4609 141.426 51.4609 141.806C51.4609 142.186 51.153 142.494 50.7731 142.494H48.935C48.5551 142.494 48.2471 142.186 48.2471 141.806C48.2471 141.426 48.5551 141.118 48.935 141.118H50.7731Z" fill="#B77FEC"/>
<path d="M70.1208 141.118C70.5006 141.118 70.8086 141.426 70.8086 141.806C70.8086 142.186 70.5006 142.494 70.1208 142.494H65.0688C64.6889 142.494 64.381 142.186 64.381 141.806C64.381 141.426 64.6889 141.118 65.0688 141.118H70.1208Z" fill="#B77FEC"/>
</g>
<path d="M34.5039 127.676V132.681C34.5039 134.211 33.2633 135.452 31.7328 135.452H-15.0642C-16.5946 135.452 -17.8353 134.211 -17.8353 132.681V127.676C-17.8353 126.146 -16.5946 124.905 -15.0642 124.905H31.7328C33.2633 124.905 34.5039 126.146 34.5039 127.676Z" fill="#00A0F5"/>
<path opacity="0.25" d="M37.5117 146.858V157.405H33.3797V146.858H37.5117Z" fill="white"/>
<path opacity="0.25" d="M73.8164 146.858V157.405H65.0932V146.858H73.8164Z" fill="white"/>
<g clip-path="url(#clip1_72_11323)">
<path d="M37.5186 94.2511C37.6041 94.1823 45.9637 91.6994 48.454 90.611C50.9469 89.5199 53.1599 99.0486 51.1205 100.512C49.0785 101.975 38.835 103.609 37.6585 102.587C36.482 101.567 36.482 95.0669 37.5186 94.2511Z" fill="#F6F6F6"/>
<path d="M76.7062 88.944C76.9627 88.6177 84.3377 88.2787 90.5129 84.3989C96.6906 80.5217 96.587 78.9386 98.559 80.3687C100.531 81.7962 103.024 83.7871 100.531 87.0551C98.0407 90.3206 84.4932 99.7116 80.8575 99.4057C77.2245 99.0998 75.3043 90.7284 76.7062 88.944Z" fill="#F6F6F6"/>
<mask id="mask2_72_11323" style="mask-type:luminance" maskUnits="userSpaceOnUse" x="42" y="113" width="23" height="23">
<path d="M42.1797 113.747H64.0713V135.262H42.1797V113.747Z" fill="white"/>
</mask>
<g mask="url(#mask2_72_11323)">
<path d="M62.8643 134.035C61.2991 135.624 44.8285 135.343 43.5951 134.968C42.3616 134.596 42.0765 132.356 43.4059 129.975C44.7327 127.594 50.2885 126.615 50.2885 126.615C50.2885 126.615 50.4803 122.103 50.6409 118.496C50.7446 116.156 50.8379 114.198 50.856 114.106L50.8094 113.92C50.8094 113.92 62.4859 117.466 62.5326 117.374C62.5507 117.339 62.5818 118.983 62.6155 121.05C62.6673 124.471 62.7243 129.042 62.7243 129.042C62.7243 129.042 64.432 132.45 62.8669 134.035H62.8643Z" fill="#F6F6F6"/>
</g>
<path d="M62.6113 121.05C56.7264 120.895 52.9145 119.61 50.6367 118.496C50.7404 116.156 50.8337 114.198 50.8518 114.106L50.8052 113.92C50.8052 113.92 62.4817 117.466 62.5284 117.375C62.5465 117.339 62.5776 118.983 62.6113 121.05Z" fill="#54A3E6"/>
<mask id="mask3_72_11323" style="mask-type:luminance" maskUnits="userSpaceOnUse" x="66" y="113" width="22" height="23">
<path d="M66.0547 113.094H87.9463V135.262H66.0547V113.094Z" fill="white"/>
</mask>
<g mask="url(#mask3_72_11323)">
<path d="M67.3363 133.424C68.9041 135.012 85.3746 134.732 86.6081 134.357C87.8416 133.985 88.1266 131.744 86.7973 129.363C85.4679 126.982 79.9147 126.003 79.9147 126.003C79.9147 126.003 79.7229 121.489 79.5622 117.884C79.456 115.544 79.3653 113.586 79.3472 113.495L79.3938 113.309C79.3938 113.309 67.7172 116.854 67.668 116.76C67.6498 116.727 67.6187 118.371 67.5877 120.439C67.5358 123.857 67.4788 128.43 67.4788 128.43C67.4788 128.43 65.7711 131.836 67.3363 133.424Z" fill="#F6F6F6"/>
</g>
<path d="M67.5391 121.356C73.424 121.201 77.2359 119.916 79.5136 118.802C79.4074 116.462 79.3167 114.504 79.2986 114.412L79.3452 114.226C79.3452 114.226 67.6686 117.772 67.6194 117.68C67.6038 117.645 67.5728 119.291 67.5391 121.356Z" fill="#54A3E6"/>
<path d="M67.1747 117.326C67.1747 117.339 67.1747 117.395 67.1747 117.49C67.0808 117.505 67.0312 117.516 67.0312 117.516L67.1747 117.326Z" fill="#F6F6F6"/>
<path d="M77.7626 117.28C69.8823 120.033 50.3747 120.408 47.0059 110.045C46.1664 107.471 45.845 104.631 45.8398 101.814C45.8398 101.368 45.845 100.922 45.8606 100.476C46.1145 92.4462 48.7007 84.9543 48.9028 84.656L78.2368 87.7354C78.2368 87.7354 80.5146 89.9302 81.7973 94.6436C82.2015 96.1323 82.7353 98.661 83.0256 101.513C83.1215 102.462 83.1914 103.443 83.2225 104.435C83.3884 109.918 82.3285 115.684 77.7626 117.28Z" fill="#F6F6F6"/>
<path d="M67.1747 117.326C67.1747 117.339 67.1747 117.395 67.1747 117.49C67.0808 117.505 67.0312 117.516 67.0312 117.516L67.1747 117.326Z" fill="#54A3E6"/>
<path d="M83.2225 104.435C80.0041 105.426 58.0166 109.064 45.8398 101.814C45.8398 101.368 45.845 100.922 45.8606 100.476C51.5175 101.949 70.0274 106.708 83.08 102.064C83.1759 103.01 83.1914 103.443 83.2225 104.435Z" fill="#54A3E6"/>
<path d="M89.8232 43.9226C89.8399 44.0302 89.8646 44.1886 89.8955 44.3894C89.9573 44.7911 90.0457 45.3648 90.1504 46.0535C90.3598 47.4312 90.6357 49.2689 90.9033 51.1082C91.171 52.9477 91.4298 54.7892 91.6045 56.1736C91.6918 56.8658 91.7583 57.4428 91.7939 57.8484C91.8118 58.0513 91.8218 58.2096 91.8232 58.3171C91.8236 58.3469 91.8212 58.3721 91.8203 58.3923H91.8193C91.7788 58.379 91.7242 58.3578 91.6572 58.3279C91.5235 58.268 91.3457 58.1786 91.1387 58.0691C90.7246 57.85 90.1969 57.5517 89.6777 57.2517C89.1589 56.9519 88.6482 56.6503 88.2676 56.4236C88.0774 56.3103 87.9198 56.2154 87.8096 56.1492C87.7544 56.116 87.7111 56.0898 87.6816 56.072C87.6746 56.0678 87.6685 56.0636 87.6631 56.0603C87.6599 56.0411 87.6564 56.0132 87.6523 55.9763C87.6429 55.8904 87.6318 55.7624 87.6201 55.5984C87.5967 55.2709 87.5695 54.8019 87.54 54.238C87.481 53.1101 87.4131 51.6044 87.3486 50.0984C87.2842 48.5925 87.2235 47.0857 87.1787 45.9558C87.1563 45.3911 87.1378 44.9201 87.125 44.5906C87.1186 44.4262 87.1137 44.297 87.1104 44.2087C87.1095 44.1876 87.108 44.1684 87.1074 44.1521L89.8105 43.8386C89.8141 43.8618 89.8182 43.8899 89.8232 43.9226Z" fill="#F6F6F6" stroke="#E5E5E5" stroke-width="0.171566"/>
<mask id="mask4_72_11323" style="mask-type:luminance" maskUnits="userSpaceOnUse" x="85" y="39" width="7" height="6">
<path d="M91.1777 39.4182V44.4875H85.3789V39.4182H91.1777Z" fill="white" stroke="white" stroke-width="0.171566"/>
</mask>
<g mask="url(#mask4_72_11323)">
<path d="M88.1289 39.4182C88.4625 39.4182 88.7805 39.4801 89.0859 39.6057H89.0869C89.3181 39.7 89.5266 39.8233 89.7158 39.9758L89.8984 40.1379C90.0751 40.3118 90.2205 40.5047 90.335 40.717L90.4395 40.9358C90.567 41.2359 90.6299 41.551 90.6299 41.8762C90.6299 42.2013 90.5671 42.5137 90.4395 42.8167C90.3143 43.1169 90.1337 43.3826 89.8984 43.6116V43.6125C89.7217 43.7863 89.5269 43.9295 89.3105 44.0432L89.0869 44.1467C88.7806 44.2702 88.4622 44.3342 88.1289 44.3342C87.7983 44.3342 87.4799 44.2703 87.1709 44.1467H87.1699C86.8646 44.0209 86.5946 43.8435 86.3623 43.6125V43.6116C86.1859 43.4399 86.0404 43.2477 85.9248 43.0354L85.8193 42.8167C85.694 42.5131 85.6289 42.2007 85.6289 41.8762C85.6289 41.6325 85.6651 41.3942 85.7363 41.1633L85.8193 40.9358C85.9471 40.6353 86.1269 40.3695 86.3623 40.1379C86.5952 39.9089 86.8658 39.7316 87.1719 39.6057C87.4801 39.48 87.798 39.4182 88.1289 39.4182Z" fill="#F6F6F6" stroke="#E5E5E5" stroke-width="0.171566"/>
</g>
<path d="M90.9851 73.162L89.7956 73.3481C87.0203 73.7789 84.4134 71.9155 83.9755 69.1853L82.4932 59.9625C82.0527 57.2324 83.9496 54.6705 86.7249 54.2397L87.9143 54.0536C90.6896 53.6228 93.2939 55.4862 93.7345 58.2138L95.2167 67.4392C95.6547 70.1693 93.7604 72.7312 90.9851 73.162Z" fill="#54A3E6"/>
<path d="M28.0986 53.0034C28.1258 53.0876 28.1661 53.2115 28.2168 53.3687C28.3183 53.683 28.4623 54.1324 28.6357 54.6714C28.9826 55.7495 29.4444 57.187 29.9023 58.6255C30.3603 60.0641 30.8152 61.5035 31.1484 62.5845C31.315 63.125 31.451 63.5761 31.542 63.8921C31.5875 64.05 31.6217 64.1734 31.6426 64.2573C31.6516 64.2935 31.6575 64.3211 31.6611 64.3403C31.6573 64.345 31.6533 64.351 31.6484 64.3569C31.6268 64.3834 31.5951 64.4227 31.5547 64.4722C31.4737 64.5712 31.3577 64.7125 31.2178 64.8823C30.9376 65.2223 30.561 65.6757 30.1758 66.1304C29.7904 66.5853 29.3966 67.0415 29.082 67.3853C28.9248 67.5571 28.788 67.6996 28.6826 67.8003C28.6299 67.8507 28.5863 67.8896 28.5527 67.9155L28.5498 67.9165C28.5419 67.8974 28.5307 67.8742 28.5205 67.8452C28.4848 67.7437 28.4398 67.5918 28.3867 67.395C28.2807 67.0018 28.1443 66.4366 27.9883 65.7563C27.6762 64.3958 27.2863 62.5771 26.9053 60.7573C26.5242 58.9377 26.152 57.1165 25.875 55.7505C25.7366 55.0677 25.622 54.4986 25.542 54.1001C25.502 53.9008 25.4706 53.744 25.4492 53.6372C25.4428 53.6049 25.4372 53.5772 25.4326 53.5542L28.0801 52.9487C28.0852 52.9646 28.0919 52.9827 28.0986 53.0034Z" fill="#F6F6F6" stroke="#AFAFAF" stroke-width="0.171566"/>
<path d="M26.3359 48.6897C26.6668 48.6897 26.9848 48.7516 27.293 48.8772C27.599 49.0031 27.8697 49.1804 28.1025 49.4094C28.2792 49.5832 28.4254 49.776 28.541 49.9885L28.6465 50.2073C28.7717 50.508 28.8369 50.8231 28.8369 51.1477C28.8369 51.4721 28.7718 51.7847 28.6465 52.0881C28.5188 52.3887 28.3386 52.6542 28.1035 52.8831L28.1025 52.884C27.87 53.1153 27.5998 53.2924 27.2939 53.4182C26.9849 53.5418 26.6665 53.6057 26.3359 53.6057C26.0028 53.6057 25.685 53.5416 25.3789 53.4182C25.0704 53.2924 24.8001 53.1154 24.5674 52.884L24.5664 52.8831C24.3313 52.6541 24.1514 52.3883 24.0264 52.0881C23.8987 51.7852 23.8359 51.4728 23.8359 51.1477C23.8359 50.904 23.8711 50.6661 23.9424 50.4358L24.0264 50.2073C24.1514 49.9071 24.331 49.6411 24.5664 49.4094C24.7993 49.1803 25.0703 49.0031 25.3789 48.8772C25.6844 48.7516 26.0023 48.6897 26.3359 48.6897Z" fill="#F6F6F6" stroke="#AFAFAF" stroke-width="0.171566"/>
<path d="M34.4251 81.5363L35.6067 81.3146C38.3691 80.7945 40.1779 78.174 39.6518 75.4617L37.8716 66.2873C37.3429 63.5725 34.679 61.7932 31.9193 62.3107L30.735 62.5325C27.9753 63.0499 26.1665 65.6705 26.6925 68.3853L28.4728 77.5597C29.0014 80.2745 31.6653 82.0538 34.4251 81.5363Z" fill="#54A3E6"/>
<path d="M90.1407 64.2096C92.6413 78.7066 81.4882 90.0732 65.5722 92.7268C49.6587 95.378 35.0073 88.3117 32.5092 73.8173C30.0086 59.3229 34.1677 44.1937 56.5258 40.2349C79.0083 36.2531 87.6426 49.7151 90.1407 64.2096Z" fill="#F6F6F6"/>
<path d="M48.5455 53.4752C48.5455 53.4752 38.9213 55.6088 38.2631 64.174C37.6437 72.2496 39.1441 85.4772 55.3115 87.0551C71.4789 88.633 83.0725 80.9244 84.5885 70.478C86.1018 60.0316 81.4011 51.6551 75.213 50.5182C66.703 48.9556 48.5455 53.4752 48.5455 53.4752Z" fill="#160E0B"/>
<path d="M54.6539 73.894C54.8819 73.8124 56.9239 75.0054 62.1143 74.3426C67.1027 73.7053 68.629 71.6737 69.2068 72.0994C70.0205 72.6959 67.893 79.2268 62.2646 79.5582C56.6362 79.8896 53.1535 74.4242 54.6539 73.894Z" fill="#54A3E6"/>
<path d="M76.5114 63.8781C76.5451 64.1968 76.558 64.5154 76.5477 64.8341C76.5347 65.1502 76.501 65.4637 76.4466 65.7671C76.3896 66.0704 76.3119 66.3636 76.2108 66.6414C76.1123 66.9218 75.9931 67.1818 75.8532 67.4265C75.7159 67.6687 75.5578 67.8879 75.3868 68.0868C75.2131 68.2831 75.0266 68.4564 74.8244 68.5991C74.6249 68.7445 74.415 68.8592 74.1947 68.9458C73.9745 69.0325 73.749 69.0886 73.5184 69.1115C73.2878 69.137 73.0546 69.1294 72.8213 69.0911C72.5855 69.0529 72.3575 68.9841 72.1294 68.8847C71.9014 68.7852 71.6837 68.6552 71.4712 68.4997C71.2588 68.3417 71.0592 68.1581 70.8726 67.9491C70.6835 67.7401 70.5099 67.5107 70.3544 67.2583C70.1963 67.0059 70.0564 66.7383 69.9372 66.4528C69.8154 66.1673 69.7169 65.869 69.6366 65.5606C69.5562 65.2521 69.4992 64.9386 69.4655 64.6199C69.4319 64.2987 69.4189 63.9801 69.4293 63.664C69.4422 63.3454 69.4759 63.0344 69.5303 62.7285C69.5873 62.4251 69.6651 62.132 69.7661 61.8541C69.8646 61.5737 69.9838 61.3137 70.1237 61.0715C70.2611 60.8268 70.4192 60.6076 70.5902 60.4088C70.7638 60.2125 70.9504 60.0417 71.1499 59.8964C71.352 59.7511 71.5619 59.6364 71.7822 59.5497C72.0025 59.463 72.2279 59.4095 72.4585 59.384C72.6892 59.3585 72.9224 59.3662 73.1556 59.4044C73.3888 59.4426 73.6195 59.5115 73.8475 59.6134C74.0729 59.7128 74.2932 59.8403 74.5057 59.9983C74.7156 60.1538 74.9177 60.3374 75.1043 60.5464C75.2935 60.7554 75.4671 60.9849 75.6226 61.2372C75.7806 61.4896 75.9206 61.7572 76.0398 62.0453C76.1616 62.3308 76.26 62.6265 76.3404 62.935C76.4181 63.2434 76.4751 63.5569 76.5114 63.8781Z" fill="#54A3E6"/>
<path d="M53.2262 67.2225C53.2599 67.5437 53.2729 67.8623 53.2625 68.1784C53.2496 68.4971 53.2159 68.8081 53.1615 69.114C53.1044 69.4173 53.0267 69.7079 52.9256 69.9883C52.8272 70.2662 52.708 70.5288 52.568 70.7709C52.4307 71.0156 52.2726 71.2349 52.1016 71.4337C51.928 71.63 51.7414 71.8008 51.5393 71.9461C51.3397 72.0914 51.1298 72.2061 50.9096 72.2928C50.6893 72.3794 50.4639 72.433 50.2332 72.4585C50.0026 72.4839 49.7694 72.4763 49.5362 72.4381C49.303 72.3998 49.0723 72.3284 48.8443 72.229C48.6162 72.1296 48.3986 72.0022 48.1861 71.8441C47.9736 71.6886 47.7741 71.5051 47.5875 71.296C47.3983 71.087 47.2247 70.8576 47.0692 70.6052C46.9111 70.3529 46.7712 70.0826 46.652 69.7971C46.5302 69.5116 46.4317 69.2159 46.3514 68.9075C46.2711 68.599 46.2141 68.2855 46.1804 67.9643C46.1467 67.6457 46.1337 67.327 46.1441 67.0084C46.1571 66.6897 46.1908 66.3787 46.2452 66.0754C46.3022 65.772 46.3799 65.4789 46.481 65.201C46.5795 64.9206 46.6987 64.6606 46.8386 64.4159C46.9759 64.1737 47.134 63.9545 47.305 63.7557C47.4786 63.5568 47.6652 63.386 47.8648 63.2433C48.0669 63.098 48.2768 62.9807 48.497 62.8966C48.7173 62.8099 48.9428 62.7539 49.1734 62.7309C49.404 62.7054 49.6372 62.7131 49.8705 62.7513C50.1037 62.7895 50.3343 62.8584 50.5623 62.9578C50.7904 63.0572 51.0081 63.1872 51.2205 63.3427C51.433 63.5008 51.6326 63.6843 51.8191 63.8933C52.0083 64.0998 52.1819 64.3318 52.3374 64.5841C52.4955 64.8365 52.6354 65.1042 52.7546 65.3897C52.8764 65.6752 52.9749 65.9734 53.0552 66.2819C53.133 66.5903 53.19 66.9039 53.2262 67.2225Z" fill="#54A3E6"/>
<mask id="mask5_72_11323" style="mask-type:luminance" maskUnits="userSpaceOnUse" x="15" y="61" width="38" height="59">
<path d="M15.9727 61.5405H52.127V119.62H15.9727V61.5405Z" fill="white"/>
</mask>
<g mask="url(#mask5_72_11323)">
<path d="M24.3297 61.686L15.9727 65.4129C15.9727 65.4129 43.3294 118.955 43.5367 119.21L51.4792 115.282L24.3297 61.686ZM22.2282 68.2705C21.2979 68.2705 20.5412 67.5287 20.5412 66.611C20.5412 65.6958 21.2979 64.9515 22.2282 64.9515C23.161 64.9515 23.9151 65.6958 23.9151 66.611C23.9151 67.5287 23.161 68.2705 22.2282 68.2705Z" fill="#54A3E6"/>
</g>
<path d="M29.8856 96.7007C30.0204 96.5299 32.1168 94.4549 34.6615 95.1687C37.2036 95.885 40.3702 101.6 39.0201 104.101C37.67 106.604 34.8169 106.859 33.0004 105.531C31.1813 104.205 28.4319 98.5386 29.8856 96.7007Z" fill="#F6F6F6"/>
<path d="M26.7281 66.1878C27.6921 68.092 28.6406 70.0064 29.5812 71.9208C30.5219 73.8378 31.4548 75.7599 32.385 77.6819C32.9085 78.7627 33.4319 79.8487 33.9528 80.9321C34.0357 81.1003 34.2923 80.9525 34.2093 80.7842C33.2842 78.8622 32.3565 76.9376 31.4237 75.0181C30.4882 73.0985 29.5501 71.1816 28.6017 69.2672C28.0653 68.1889 27.5263 67.1132 26.9847 66.04C26.8992 65.8717 26.6426 66.0196 26.7281 66.1878Z" fill="#160E0B"/>
<mask id="mask6_72_11323" style="mask-type:luminance" maskUnits="userSpaceOnUse" x="73" y="91" width="4" height="4">
<path d="M73.3516 91.6948H76.0051V94.17H73.3516V91.6948Z" fill="white"/>
</mask>
<g mask="url(#mask6_72_11323)">
<path d="M73.8828 93.803V91.7H75.378C75.378 91.7 75.3987 92.6839 75.0152 93.0816C74.6343 93.4767 73.8828 93.803 73.8828 93.803Z" fill="#1F2B5B"/>
</g>
<mask id="mask7_72_11323" style="mask-type:luminance" maskUnits="userSpaceOnUse" x="71" y="91" width="6" height="6">
<path d="M71.4023 91.6948H76.0097V96.1278H71.4023V91.6948Z" fill="white"/>
</mask>
<g mask="url(#mask7_72_11323)">
<mask id="mask8_72_11323" style="mask-type:luminance" maskUnits="userSpaceOnUse" x="71" y="91" width="5" height="5">
<path d="M75.3826 91.7778C75.3852 92.0378 75.3541 92.8969 74.924 93.7356C74.7866 94.0007 74.613 94.2632 74.3876 94.5029C73.8019 95.1274 72.8716 95.6066 71.4023 95.6066V94.1409C72.4855 94.1409 73.2759 93.9777 73.8512 93.7356C74.0559 93.6489 74.2347 93.5546 74.3876 93.4526C75.2919 92.8485 75.3775 92.0327 75.3826 91.7778Z" fill="white"/>
</mask>
<g mask="url(#mask8_72_11323)">
<path d="M71.4023 91.7778V95.6066H75.3852V91.7778H71.4023Z" fill="url(#paint0_linear_72_11323)"/>
</g>
</g>
<mask id="mask9_72_11323" style="mask-type:luminance" maskUnits="userSpaceOnUse" x="73" y="94" width="4" height="4">
<path d="M73.3516 94.8223H76.0051V97.5677H73.3516V94.8223Z" fill="white"/>
</mask>
<g mask="url(#mask9_72_11323)">
<path d="M75.3795 95.4592V97.5597H73.8869C73.8869 97.5597 73.8662 96.5758 74.2471 96.1806C74.6306 95.783 75.3795 95.4592 75.3795 95.4592Z" fill="#1F2B5B"/>
</g>
<mask id="mask10_72_11323" style="mask-type:luminance" maskUnits="userSpaceOnUse" x="73" y="93" width="5" height="5">
<path d="M73.3516 93.5171H77.8657V97.5677H73.3516V93.5171Z" fill="white"/>
</mask>
<g mask="url(#mask10_72_11323)">
<mask id="mask11_72_11323" style="mask-type:luminance" maskUnits="userSpaceOnUse" x="73" y="93" width="5" height="5">
<path d="M73.8869 97.4813C73.8843 97.2213 73.9154 96.3622 74.3455 95.5236C74.4803 95.261 74.6539 94.9984 74.8819 94.7588C75.4676 94.1343 76.3953 93.655 77.8672 93.655V95.1182C76.7814 95.1182 75.991 95.2814 75.4183 95.5236C75.2136 95.6102 75.0348 95.7071 74.8819 95.8091C73.975 96.4107 73.8894 97.2289 73.8869 97.4813Z" fill="white"/>
</mask>
<g mask="url(#mask11_72_11323)">
<path d="M77.8696 97.4813V93.655H73.8867V97.4813H77.8696Z" fill="url(#paint1_linear_72_11323)"/>
</g>
</g>
<mask id="mask12_72_11323" style="mask-type:luminance" maskUnits="userSpaceOnUse" x="45" y="28" width="25" height="11">
<path d="M45.4961 28.9116H69.3779V38.7003H45.4961V28.9116Z" fill="white"/>
</mask>
<g mask="url(#mask12_72_11323)">
<mask id="mask13_72_11323" style="mask-type:luminance" maskUnits="userSpaceOnUse" x="41" y="27" width="34" height="24">
<path d="M41.7109 32.9973L71.6098 27.8633L74.7738 45.7022L44.8776 50.8362L41.7109 32.9973Z" fill="white"/>
</mask>
<g mask="url(#mask13_72_11323)">
<mask id="mask14_72_11323" style="mask-type:luminance" maskUnits="userSpaceOnUse" x="41" y="27" width="34" height="24">
<path d="M41.7109 32.9968L71.6098 27.8628L74.7738 45.7017L44.8776 50.8357L41.7109 32.9968Z" fill="white"/>
</mask>
<g mask="url(#mask14_72_11323)">
<path d="M69.1019 33.8814C69.1407 34.1006 69.1641 34.3173 69.177 34.534C68.5577 34.2357 67.9073 34.0012 67.2387 33.838C63.8907 33.0121 60.5064 32.8821 57.1895 33.4531C53.8674 34.0241 50.7293 35.2732 47.8632 37.1647C47.2905 37.5419 46.7593 37.9804 46.2799 38.4647C46.2151 38.2583 46.1659 38.0441 46.127 37.8274C45.5958 34.8348 47.6378 31.9746 50.68 31.452L62.6209 29.4025C65.6632 28.8799 68.5706 30.8887 69.1019 33.8814Z" fill="#002D75"/>
</g>
</g>
</g>
<mask id="mask15_72_11323" style="mask-type:luminance" maskUnits="userSpaceOnUse" x="46" y="33" width="25" height="11">
<path d="M46.1562 33.4795H70.038V43.2682H46.1562V33.4795Z" fill="white"/>
</mask>
<g mask="url(#mask15_72_11323)">
<mask id="mask16_72_11323" style="mask-type:luminance" maskUnits="userSpaceOnUse" x="41" y="27" width="34" height="24">
<path d="M41.7109 32.997L71.6098 27.863L74.7738 45.7019L44.8776 50.8359L41.7109 32.997Z" fill="white"/>
</mask>
<g mask="url(#mask16_72_11323)">
<mask id="mask17_72_11323" style="mask-type:luminance" maskUnits="userSpaceOnUse" x="41" y="27" width="34" height="24">
<path d="M41.7109 32.9965L71.6098 27.8625L74.7738 45.7015L44.8776 50.8354L41.7109 32.9965Z" fill="white"/>
</mask>
<g mask="url(#mask17_72_11323)">
<path d="M69.1539 35.4439C68.5165 35.1074 67.8116 34.8321 67.0394 34.6409C63.8054 33.8456 60.5403 33.7207 57.34 34.2713C54.1371 34.8193 51.1078 36.0251 48.3377 37.8528C47.6795 38.2887 47.1094 38.7833 46.6248 39.3135C46.5212 39.4231 46.4201 39.5378 46.3242 39.6525C47.5111 41.8626 50.048 43.1703 52.686 42.7166L57.4463 41.9009L57.3374 41.284L55.8293 41.5414C55.2151 41.6485 54.6243 41.1998 54.5077 40.5447C54.3911 39.887 54.7927 39.2701 55.4069 39.1656L56.915 38.9056L56.6533 37.422C56.5445 36.8179 57.0005 36.2367 57.6665 36.122C58.3325 36.0072 58.9622 36.4024 59.0684 37.0065L59.3327 38.4901L60.8409 38.2301C61.4551 38.1256 62.0459 38.5717 62.1625 39.2294C62.2791 39.8845 61.8749 40.5039 61.2633 40.6084L59.7551 40.8685L59.864 41.4854L64.6243 40.6671C67.2622 40.2133 69.198 38.1383 69.553 35.6631C69.4234 35.5866 69.2913 35.5127 69.1539 35.4439Z" fill="#002D75"/>
</g>
</g>
</g>
<mask id="mask18_72_11323" style="mask-type:luminance" maskUnits="userSpaceOnUse" x="45" y="35" width="26" height="9">
<path d="M45.4961 35.4368H70.0413V43.2677H45.4961V35.4368Z" fill="white"/>
</mask>
<g mask="url(#mask18_72_11323)">
<mask id="mask19_72_11323" style="mask-type:luminance" maskUnits="userSpaceOnUse" x="41" y="27" width="34" height="24">
<path d="M41.7109 32.9968L71.6098 27.8628L74.7738 45.7017L44.8776 50.8357L41.7109 32.9968Z" fill="white"/>
</mask>
<g mask="url(#mask19_72_11323)">
<mask id="mask20_72_11323" style="mask-type:luminance" maskUnits="userSpaceOnUse" x="41" y="27" width="34" height="24">
<path d="M41.7109 32.9963L71.6098 27.8623L74.7738 45.7012L44.8776 50.8352L41.7109 32.9963Z" fill="white"/>
</mask>
<g mask="url(#mask20_72_11323)">
<path d="M69.5516 35.6628C69.422 35.5864 69.2899 35.5124 69.1525 35.4436C68.883 37.8118 67.0561 39.8281 64.5503 40.2589L59.79 41.0747L59.9351 41.8929L64.6954 41.0747C67.4474 40.6031 69.4894 38.4694 69.9403 35.905C69.8133 35.8209 69.6838 35.7419 69.5516 35.6628ZM52.6094 42.3084C50.1062 42.7393 47.6911 41.4494 46.6234 39.3132C46.5172 39.4228 46.4187 39.5375 46.3228 39.6522C46.2244 39.7695 46.1311 39.8868 46.043 40.0066C47.349 42.2702 50.0051 43.5983 52.7545 43.1267L57.5174 42.3084L57.3723 41.4902L52.6094 42.3084Z" fill="white"/>
</g>
</g>
</g>
<mask id="mask21_72_11323" style="mask-type:luminance" maskUnits="userSpaceOnUse" x="44" y="33" width="31" height="17">
<path d="M44.168 33.4795H74.0202V49.794H44.168V33.4795Z" fill="white"/>
</mask>
<g mask="url(#mask21_72_11323)">
<mask id="mask22_72_11323" style="mask-type:luminance" maskUnits="userSpaceOnUse" x="41" y="27" width="34" height="24">
<path d="M41.7109 32.997L71.6098 27.863L74.7738 45.7019L44.8776 50.8359L41.7109 32.997Z" fill="white"/>
</mask>
<g mask="url(#mask22_72_11323)">
<mask id="mask23_72_11323" style="mask-type:luminance" maskUnits="userSpaceOnUse" x="41" y="27" width="34" height="24">
<path d="M41.7109 32.9965L71.6098 27.8625L74.7738 45.7015L44.8776 50.8354L41.7109 32.9965Z" fill="white"/>
</mask>
<g mask="url(#mask23_72_11323)">
<path d="M73.2697 39.7264C72.697 38.4468 71.5827 36.981 69.9372 35.9053C69.8102 35.8212 69.6806 35.7421 69.5485 35.6631C69.4189 35.5866 69.2868 35.5127 69.1494 35.4439C68.5119 35.1074 67.8071 34.8321 67.0349 34.6409C63.8009 33.8456 60.5358 33.7207 57.3355 34.2713C54.1326 34.8219 51.1033 36.0251 48.3332 37.8528C47.675 38.2887 47.1049 38.7833 46.6203 39.3135C46.5167 39.4231 46.4156 39.5378 46.3197 39.6525C46.2212 39.7698 46.1305 39.887 46.0398 40.0068C44.8634 41.5695 44.3166 43.3182 44.2181 44.7126C44.0989 46.3899 44.5472 47.8098 45.4464 48.6026C45.9569 49.064 46.5011 49.3826 47.0479 49.5942C47.1852 49.5916 47.5091 49.5814 47.9497 49.5355H47.9523C48.201 49.5101 48.4887 49.4744 48.8022 49.4183C50.3752 49.1481 52.5778 48.4624 53.7594 46.7187C53.8683 46.5556 53.9693 46.3848 54.0626 46.2038C54.1663 45.9999 54.4177 45.9158 54.6275 46.0177C54.8349 46.1197 54.9204 46.367 54.8193 46.5734C53.9927 48.2176 52.5001 49.1608 51.036 49.7012C51.93 49.4642 52.8214 49.0742 53.6532 48.5541C55.4335 47.3815 57.3873 46.6015 59.4578 46.2472C61.5283 45.8903 63.6376 45.9718 65.7263 46.4868C66.9312 46.7519 68.1699 46.7927 69.2945 46.5989C70.6343 46.367 72.443 45.6965 73.451 43.7974C74.0263 42.7472 73.9589 41.2636 73.2697 39.7264ZM56.1202 44.8145C55.8066 45.253 55.1899 45.3601 54.7416 45.0516C54.2959 44.7406 54.187 44.1365 54.5032 43.6955C54.8167 43.257 55.4335 43.1525 55.8792 43.4609C56.3249 43.7694 56.4337 44.3761 56.1202 44.8145ZM60.0124 42.3521C60.1212 42.9562 59.6651 43.5374 58.9965 43.6521C58.3306 43.7668 57.7035 43.3717 57.5972 42.7676L57.3329 41.284L55.8247 41.5414C55.2106 41.6485 54.6198 41.1998 54.5032 40.5447C54.3866 39.887 54.7882 39.2701 55.4024 39.1656L56.9105 38.9056L56.6488 37.422C56.54 36.8179 56.996 36.2367 57.662 36.122C58.328 36.0072 58.9577 36.4024 59.0639 37.0065L59.3282 38.4901L60.8364 38.2326C61.4505 38.1256 62.0414 38.5717 62.158 39.2294C62.2746 39.8845 61.8703 40.5039 61.2588 40.6084L59.7506 40.8685L60.0124 42.3521Z" fill="#002D75"/>
<path d="M73.2697 39.7264C72.697 38.4468 71.5827 36.981 69.9372 35.9053C69.8102 35.8212 69.6806 35.7421 69.5485 35.6631C69.4189 35.5866 69.2868 35.5127 69.1494 35.4439C68.5119 35.1074 67.8071 34.8321 67.0349 34.6409C63.8009 33.8456 60.5358 33.7207 57.3355 34.2713C54.1326 34.8219 51.1033 36.0251 48.3332 37.8528C47.675 38.2887 47.1049 38.7833 46.6203 39.3135C46.5167 39.4231 46.4156 39.5378 46.3197 39.6525C46.2212 39.7698 46.1305 39.887 46.0398 40.0068C44.8634 41.5695 44.3166 43.3182 44.2181 44.7126C44.0989 46.3899 44.5472 47.8098 45.4464 48.6026C45.9569 49.064 46.5011 49.3826 47.0479 49.5942C47.1852 49.5916 47.5091 49.5814 47.9497 49.5355H47.9523C48.201 49.5101 48.4887 49.4744 48.8022 49.4183C50.3752 49.1481 52.5778 48.4624 53.7594 46.7187C53.8683 46.5556 53.9693 46.3848 54.0626 46.2038C54.1663 45.9999 54.4177 45.9158 54.6275 46.0177C54.8349 46.1197 54.9204 46.367 54.8193 46.5734C53.9927 48.2176 52.5001 49.1608 51.036 49.7012C51.93 49.4642 52.8214 49.0742 53.6532 48.5541C55.4335 47.3815 57.3873 46.6015 59.4578 46.2472C61.5283 45.8903 63.6376 45.9718 65.7263 46.4868C66.9312 46.7519 68.1699 46.7927 69.2945 46.5989C70.6343 46.367 72.443 45.6965 73.451 43.7974C74.0263 42.7472 73.9589 41.2636 73.2697 39.7264ZM56.1202 44.8145C55.8066 45.253 55.1899 45.3601 54.7416 45.0516C54.2959 44.7406 54.187 44.1365 54.5032 43.6955C54.8167 43.257 55.4335 43.1525 55.8792 43.4609C56.3249 43.7694 56.4337 44.3761 56.1202 44.8145ZM60.0124 42.3521C60.1212 42.9562 59.6651 43.5374 58.9965 43.6521C58.3306 43.7668 57.7035 43.3717 57.5972 42.7676L57.3329 41.284L55.8247 41.5414C55.2106 41.6485 54.6198 41.1998 54.5032 40.5447C54.3866 39.887 54.7882 39.2701 55.4024 39.1656L56.9105 38.9056L56.6488 37.422C56.54 36.8179 56.996 36.2367 57.662 36.122C58.328 36.0072 58.9577 36.4024 59.0639 37.0065L59.3282 38.4901L60.8364 38.2326C61.4505 38.1256 62.0414 38.5717 62.158 39.2294C62.2746 39.8845 61.8703 40.5039 61.2588 40.6084L59.7506 40.8685L60.0124 42.3521Z" fill="#002D75"/>
</g>
</g>
</g>
<mask id="mask24_72_11323" style="mask-type:luminance" maskUnits="userSpaceOnUse" x="47" y="46" width="8" height="4">
<path d="M47.4844 46.5312H54.1182V49.7942H47.4844V46.5312Z" fill="white"/>
</mask>
<g mask="url(#mask24_72_11323)">
<mask id="mask25_72_11323" style="mask-type:luminance" maskUnits="userSpaceOnUse" x="41" y="27" width="34" height="24">
<path d="M41.7188 32.9975L71.6176 27.8635L74.7817 45.7024L44.8854 50.8364L41.7188 32.9975Z" fill="white"/>
</mask>
<g mask="url(#mask25_72_11323)">
<mask id="mask26_72_11323" style="mask-type:luminance" maskUnits="userSpaceOnUse" x="41" y="27" width="34" height="24">
<path d="M41.7188 32.9975L71.6176 27.8635L74.7817 45.7024L44.8854 50.8364L41.7188 32.9975Z" fill="white"/>
</mask>
<g mask="url(#mask26_72_11323)">
<path d="M53.772 46.7195C52.5904 48.4631 50.3877 49.1488 48.8122 49.419C48.5013 49.4726 48.2136 49.5108 47.9648 49.5363L53.772 46.7195Z" fill="#002D75"/>
</g>
</g>
</g>
</g>
</g>
<defs>
<linearGradient id="paint0_linear_72_11323" x1="71.402" y1="93.6929" x2="75.3841" y2="93.6929" gradientUnits="userSpaceOnUse">
<stop stop-color="#3DBDEC"/>
<stop offset="0.03125" stop-color="#3DBDEC"/>
<stop offset="0.046875" stop-color="#3DBDEC"/>
<stop offset="0.0546875" stop-color="#3DBCEC"/>
<stop offset="0.0625" stop-color="#3DBCEC"/>
<stop offset="0.078125" stop-color="#3EBBED"/>
<stop offset="0.0859375" stop-color="#3EBAED"/>
<stop offset="0.09375" stop-color="#3EBAED"/>
<stop offset="0.101562" stop-color="#3EB9ED"/>
<stop offset="0.109375" stop-color="#3EB9ED"/>
<stop offset="0.117188" stop-color="#3EB8ED"/>
<stop offset="0.125" stop-color="#3FB8ED"/>
<stop offset="0.132813" stop-color="#3FB7EE"/>
<stop offset="0.140625" stop-color="#3FB7EE"/>
<stop offset="0.148438" stop-color="#3FB6EE"/>
<stop offset="0.15625" stop-color="#3FB6EE"/>
<stop offset="0.164062" stop-color="#3FB5EE"/>
<stop offset="0.171875" stop-color="#40B5EE"/>
<stop offset="0.179688" stop-color="#40B4EE"/>
<stop offset="0.1875" stop-color="#40B4EF"/>
<stop offset="0.203125" stop-color="#40B3EF"/>
<stop offset="0.210938" stop-color="#40B2EF"/>
<stop offset="0.21875" stop-color="#41B2EF"/>
<stop offset="0.226563" stop-color="#41B1EF"/>
<stop offset="0.234375" stop-color="#41B1EF"/>
<stop offset="0.242187" stop-color="#41B0F0"/>
<stop offset="0.25" stop-color="#41B0F0"/>
<stop offset="0.257812" stop-color="#41AFF0"/>
<stop offset="0.265625" stop-color="#41AFF0"/>
<stop offset="0.273438" stop-color="#42AEF0"/>
<stop offset="0.28125" stop-color="#42AEF0"/>
<stop offset="0.289062" stop-color="#42ADF0"/>
<stop offset="0.296875" stop-color="#42ADF1"/>
<stop offset="0.3125" stop-color="#42ACF1"/>
<stop offset="0.320313" stop-color="#43ABF1"/>
<stop offset="0.328125" stop-color="#43ABF1"/>
<stop offset="0.335937" stop-color="#43AAF1"/>
<stop offset="0.34375" stop-color="#43AAF1"/>
<stop offset="0.351562" stop-color="#43A9F2"/>
<stop offset="0.359375" stop-color="#43A9F2"/>
<stop offset="0.367188" stop-color="#43A8F2"/>
<stop offset="0.375" stop-color="#44A8F2"/>
<stop offset="0.382812" stop-color="#44A7F2"/>
<stop offset="0.390625" stop-color="#44A7F2"/>
<stop offset="0.398438" stop-color="#44A6F2"/>
<stop offset="0.40625" stop-color="#44A6F2"/>
<stop offset="0.421875" stop-color="#44A5F3"/>
<stop offset="0.429687" stop-color="#45A4F3"/>
<stop offset="0.4375" stop-color="#45A4F3"/>
<stop offset="0.445312" stop-color="#45A3F3"/>
<stop offset="0.453125" stop-color="#45A3F3"/>
<stop offset="0.460938" stop-color="#45A2F3"/>
<stop offset="0.46875" stop-color="#45A2F4"/>
<stop offset="0.476562" stop-color="#46A1F4"/>
<stop offset="0.484375" stop-color="#46A1F4"/>
<stop offset="0.492188" stop-color="#46A0F4"/>
<stop offset="0.5" stop-color="#46A0F4"/>
<stop offset="0.507812" stop-color="#469FF4"/>
<stop offset="0.515625" stop-color="#469FF4"/>
<stop offset="0.523438" stop-color="#479EF5"/>
<stop offset="0.53125" stop-color="#479EF5"/>
<stop offset="0.546875" stop-color="#479DF5"/>
<stop offset="0.554688" stop-color="#479CF5"/>
<stop offset="0.5625" stop-color="#479CF5"/>
<stop offset="0.570312" stop-color="#489BF5"/>
<stop offset="0.578125" stop-color="#489BF6"/>
<stop offset="0.585938" stop-color="#489AF6"/>
<stop offset="0.59375" stop-color="#489AF6"/>
<stop offset="0.601562" stop-color="#4899F6"/>
<stop offset="0.609375" stop-color="#4899F6"/>
<stop offset="0.617188" stop-color="#4898F6"/>
<stop offset="0.625" stop-color="#4998F6"/>
<stop offset="0.632813" stop-color="#4997F7"/>
<stop offset="0.640625" stop-color="#4997F7"/>
<stop offset="0.65625" stop-color="#4996F7"/>
<stop offset="0.664062" stop-color="#4995F7"/>
<stop offset="0.671875" stop-color="#4A95F7"/>
<stop offset="0.679688" stop-color="#4A94F7"/>
<stop offset="0.6875" stop-color="#4A94F8"/>
<stop offset="0.695312" stop-color="#4A93F8"/>
<stop offset="0.703125" stop-color="#4A93F8"/>
<stop offset="0.710938" stop-color="#4A92F8"/>
<stop offset="0.71875" stop-color="#4A92F8"/>
<stop offset="0.726563" stop-color="#4B91F8"/>
<stop offset="0.734375" stop-color="#4B91F8"/>
<stop offset="0.742188" stop-color="#4B90F8"/>
<stop offset="0.75" stop-color="#4B90F9"/>
<stop offset="0.757812" stop-color="#4B8FF9"/>
<stop offset="0.765625" stop-color="#4B8FF9"/>
<stop offset="0.78125" stop-color="#4C8EF9"/>
<stop offset="0.789062" stop-color="#4C8DF9"/>
<stop offset="0.796875" stop-color="#4C8DF9"/>
<stop offset="0.804688" stop-color="#4C8CFA"/>
<stop offset="0.8125" stop-color="#4C8CFA"/>
<stop offset="0.820312" stop-color="#4D8BFA"/>
<stop offset="0.828125" stop-color="#4D8BFA"/>
<stop offset="0.835938" stop-color="#4D8AFA"/>
<stop offset="0.84375" stop-color="#4D8AFA"/>
<stop offset="0.851562" stop-color="#4D89FA"/>
<stop offset="0.859375" stop-color="#4D89FB"/>
<stop offset="0.867187" stop-color="#4D88FB"/>
<stop offset="0.875" stop-color="#4E88FB"/>
<stop offset="0.890625" stop-color="#4E87FB"/>
<stop offset="0.898438" stop-color="#4E86FB"/>
<stop offset="0.90625" stop-color="#4E86FB"/>
<stop offset="0.914062" stop-color="#4E85FC"/>
<stop offset="0.921875" stop-color="#4F85FC"/>
<stop offset="0.929688" stop-color="#4F84FC"/>
<stop offset="0.9375" stop-color="#4F84FC"/>
<stop offset="0.945312" stop-color="#4F83FC"/>
<stop offset="0.953125" stop-color="#4F83FC"/>
<stop offset="0.960938" stop-color="#4F82FC"/>
<stop offset="0.96875" stop-color="#4F82FD"/>
<stop offset="0.976563" stop-color="#5081FD"/>
<stop offset="0.984375" stop-color="#5081FD"/>
<stop offset="1" stop-color="#5080FD"/>
</linearGradient>
<linearGradient id="paint1_linear_72_11323" x1="77.8688" y1="95.5682" x2="73.8865" y2="95.5682" gradientUnits="userSpaceOnUse">
<stop stop-color="#3DBDEC"/>
<stop offset="0.03125" stop-color="#3DBDEC"/>
<stop offset="0.046875" stop-color="#3DBDEC"/>
<stop offset="0.0546875" stop-color="#3DBCEC"/>
<stop offset="0.0625" stop-color="#3DBCEC"/>
<stop offset="0.0703125" stop-color="#3EBBED"/>
<stop offset="0.078125" stop-color="#3EBBED"/>
<stop offset="0.0859375" stop-color="#3EBAED"/>
<stop offset="0.09375" stop-color="#3EBAED"/>
<stop offset="0.101562" stop-color="#3EB9ED"/>
<stop offset="0.109375" stop-color="#3EB9ED"/>
<stop offset="0.117188" stop-color="#3EB8ED"/>
<stop offset="0.125" stop-color="#3FB8ED"/>
<stop offset="0.132812" stop-color="#3FB7EE"/>
<stop offset="0.140625" stop-color="#3FB7EE"/>
<stop offset="0.148438" stop-color="#3FB6EE"/>
<stop offset="0.15625" stop-color="#3FB6EE"/>
<stop offset="0.171875" stop-color="#40B5EE"/>
<stop offset="0.179688" stop-color="#40B4EE"/>
<stop offset="0.1875" stop-color="#40B4EF"/>
<stop offset="0.195312" stop-color="#40B3EF"/>
<stop offset="0.203125" stop-color="#40B3EF"/>
<stop offset="0.210938" stop-color="#40B2EF"/>
<stop offset="0.21875" stop-color="#41B2EF"/>
<stop offset="0.226562" stop-color="#41B1EF"/>
<stop offset="0.234375" stop-color="#41B1EF"/>
<stop offset="0.242188" stop-color="#41B0F0"/>
<stop offset="0.25" stop-color="#41B0F0"/>
<stop offset="0.257812" stop-color="#41AFF0"/>
<stop offset="0.265625" stop-color="#41AFF0"/>
<stop offset="0.273437" stop-color="#42AEF0"/>
<stop offset="0.28125" stop-color="#42AEF0"/>
<stop offset="0.296875" stop-color="#42ADF0"/>
<stop offset="0.304688" stop-color="#42ACF1"/>
<stop offset="0.3125" stop-color="#42ACF1"/>
<stop offset="0.320312" stop-color="#43ABF1"/>
<stop offset="0.328125" stop-color="#43ABF1"/>
<stop offset="0.335937" stop-color="#43AAF1"/>
<stop offset="0.34375" stop-color="#43AAF1"/>
<stop offset="0.351562" stop-color="#43A9F2"/>
<stop offset="0.359375" stop-color="#43A9F2"/>
<stop offset="0.367187" stop-color="#43A8F2"/>
<stop offset="0.375" stop-color="#44A8F2"/>
<stop offset="0.382812" stop-color="#44A7F2"/>
<stop offset="0.390625" stop-color="#44A7F2"/>
<stop offset="0.398437" stop-color="#44A6F2"/>
<stop offset="0.40625" stop-color="#44A6F2"/>
<stop offset="0.421875" stop-color="#44A5F3"/>
<stop offset="0.429688" stop-color="#45A4F3"/>
<stop offset="0.4375" stop-color="#45A4F3"/>
<stop offset="0.445312" stop-color="#45A3F3"/>
<stop offset="0.453125" stop-color="#45A3F3"/>
<stop offset="0.460937" stop-color="#45A2F3"/>
<stop offset="0.46875" stop-color="#45A2F4"/>
<stop offset="0.476562" stop-color="#46A1F4"/>
<stop offset="0.484375" stop-color="#46A1F4"/>
<stop offset="0.492188" stop-color="#46A0F4"/>
<stop offset="0.5" stop-color="#46A0F4"/>
<stop offset="0.507812" stop-color="#469FF4"/>
<stop offset="0.515625" stop-color="#469FF4"/>
<stop offset="0.523438" stop-color="#479EF5"/>
<stop offset="0.53125" stop-color="#479EF5"/>
<stop offset="0.546875" stop-color="#479DF5"/>
<stop offset="0.554688" stop-color="#479CF5"/>
<stop offset="0.5625" stop-color="#479CF5"/>
<stop offset="0.570313" stop-color="#489BF5"/>
<stop offset="0.578125" stop-color="#489BF6"/>
<stop offset="0.585938" stop-color="#489AF6"/>
<stop offset="0.59375" stop-color="#489AF6"/>
<stop offset="0.601563" stop-color="#4899F6"/>
<stop offset="0.609375" stop-color="#4899F6"/>
<stop offset="0.617188" stop-color="#4898F6"/>
<stop offset="0.625" stop-color="#4998F6"/>
<stop offset="0.632812" stop-color="#4997F7"/>
<stop offset="0.640625" stop-color="#4997F7"/>
<stop offset="0.648437" stop-color="#4996F7"/>
<stop offset="0.65625" stop-color="#4996F7"/>
<stop offset="0.671875" stop-color="#4995F7"/>
<stop offset="0.679687" stop-color="#4A94F7"/>
<stop offset="0.6875" stop-color="#4A94F8"/>
<stop offset="0.695312" stop-color="#4A93F8"/>
<stop offset="0.703125" stop-color="#4A93F8"/>
<stop offset="0.710938" stop-color="#4A92F8"/>
<stop offset="0.71875" stop-color="#4A92F8"/>
<stop offset="0.726562" stop-color="#4B91F8"/>
<stop offset="0.734375" stop-color="#4B91F8"/>
<stop offset="0.742188" stop-color="#4B90F8"/>
<stop offset="0.75" stop-color="#4B90F9"/>
<stop offset="0.757812" stop-color="#4B8FF9"/>
<stop offset="0.765625" stop-color="#4B8FF9"/>
<stop offset="0.773438" stop-color="#4C8EF9"/>
<stop offset="0.78125" stop-color="#4C8EF9"/>
<stop offset="0.796875" stop-color="#4C8DF9"/>
<stop offset="0.804688" stop-color="#4C8CFA"/>
<stop offset="0.8125" stop-color="#4C8CFA"/>
<stop offset="0.820313" stop-color="#4D8BFA"/>
<stop offset="0.828125" stop-color="#4D8BFA"/>
<stop offset="0.835938" stop-color="#4D8AFA"/>
<stop offset="0.84375" stop-color="#4D8AFA"/>
<stop offset="0.851563" stop-color="#4D89FA"/>
<stop offset="0.859375" stop-color="#4D89FB"/>
<stop offset="0.867188" stop-color="#4D88FB"/>
<stop offset="0.875" stop-color="#4E88FB"/>
<stop offset="0.882812" stop-color="#4E87FB"/>
<stop offset="0.890625" stop-color="#4E87FB"/>
<stop offset="0.898437" stop-color="#4E86FB"/>
<stop offset="0.90625" stop-color="#4E86FB"/>
<stop offset="0.921875" stop-color="#4E85FC"/>
<stop offset="0.929687" stop-color="#4F84FC"/>
<stop offset="0.9375" stop-color="#4F84FC"/>
<stop offset="0.945312" stop-color="#4F83FC"/>
<stop offset="0.953125" stop-color="#4F83FC"/>
<stop offset="0.960937" stop-color="#4F82FC"/>
<stop offset="0.96875" stop-color="#4F82FD"/>
<stop offset="0.976562" stop-color="#5081FD"/>
<stop offset="0.984375" stop-color="#5081FD"/>
<stop offset="1" stop-color="#5080FD"/>
</linearGradient>
<clipPath id="clip0_72_11323">
<rect width="185.122" height="162.136" fill="white"/>
</clipPath>
<clipPath id="clip1_72_11323">
<rect width="98.6979" height="107.251" fill="white" transform="translate(15.9727 28.9116)"/>
</clipPath>
</defs>
</svg>
