<svg xmlns="http://www.w3.org/2000/svg" xmlns:xlink="http://www.w3.org/1999/xlink" width="500" zoomAndPan="magnify" viewBox="0 0 375 374.999991" height="500" preserveAspectRatio="xMidYMid meet" version="1.0"><defs><clipPath id="7ce2ca13cc"><path d="M 196 230 L 221 230 L 221 262.5 L 196 262.5 Z M 196 230 " clip-rule="nonzero"/></clipPath><clipPath id="b4a2cfed7f"><path d="M 161 230 L 187 230 L 187 262.5 L 161 262.5 Z M 161 230 " clip-rule="nonzero"/></clipPath><clipPath id="1589c89f50"><path d="M 126.875 124 L 136 124 L 136 134 L 126.875 134 Z M 126.875 124 " clip-rule="nonzero"/></clipPath><clipPath id="9edd0c6008"><path d="M 138 112.5 L 232 112.5 L 232 199 L 138 199 Z M 138 112.5 " clip-rule="nonzero"/></clipPath><clipPath id="b978167232"><path d="M 226 146 L 248.375 146 L 248.375 181 L 226 181 Z M 226 146 " clip-rule="nonzero"/></clipPath><clipPath id="3e107c9615"><path d="M 204 194.03125 L 208 194.03125 L 208 198 L 204 198 Z M 204 194.03125 " clip-rule="nonzero"/></clipPath><clipPath id="324843a675"><path d="M 201.039062 194.03125 L 208 194.03125 L 208 201 L 201.039062 201 Z M 201.039062 194.03125 " clip-rule="nonzero"/></clipPath><clipPath id="1ea3079985"><path d="M 207.039062 194.160156 C 207.042969 194.5625 206.996094 195.875 206.347656 197.160156 C 206.140625 197.566406 205.878906 197.96875 205.539062 198.335938 C 204.65625 199.292969 203.253906 200.027344 201.039062 200.027344 L 201.039062 197.78125 C 202.671875 197.78125 203.863281 197.53125 204.730469 197.160156 C 205.039062 197.03125 205.308594 196.882812 205.539062 196.726562 C 206.902344 195.800781 207.03125 194.550781 207.039062 194.160156 Z M 207.039062 194.160156 " clip-rule="nonzero"/></clipPath><linearGradient x1="-0.000239555" gradientTransform="matrix(0.0249488, 0, 0, 0.0249079, 201.03864, 194.040495)" y1="122.636002" x2="240.599767" gradientUnits="userSpaceOnUse" y2="122.636002" id="8ce722241d"><stop stop-opacity="1" stop-color="rgb(23.919678%, 74.119568%, 92.549133%)" offset="0"/><stop stop-opacity="1" stop-color="rgb(23.919678%, 74.119568%, 92.549133%)" offset="0.03125"/><stop stop-opacity="1" stop-color="rgb(23.953247%, 74.008179%, 92.579651%)" offset="0.046875"/><stop stop-opacity="1" stop-color="rgb(24.01886%, 73.800659%, 92.637634%)" offset="0.0546875"/><stop stop-opacity="1" stop-color="rgb(24.079895%, 73.603821%, 92.692566%)" offset="0.0625"/><stop stop-opacity="1" stop-color="rgb(24.171448%, 73.310852%, 92.774963%)" offset="0.078125"/><stop stop-opacity="1" stop-color="rgb(24.263%, 73.016357%, 92.855835%)" offset="0.0859375"/><stop stop-opacity="1" stop-color="rgb(24.324036%, 72.821045%, 92.910767%)" offset="0.09375"/><stop stop-opacity="1" stop-color="rgb(24.385071%, 72.624207%, 92.965698%)" offset="0.101563"/><stop stop-opacity="1" stop-color="rgb(24.446106%, 72.428894%, 93.02063%)" offset="0.109375"/><stop stop-opacity="1" stop-color="rgb(24.507141%, 72.232056%, 93.075562%)" offset="0.117188"/><stop stop-opacity="1" stop-color="rgb(24.568176%, 72.036743%, 93.128967%)" offset="0.125"/><stop stop-opacity="1" stop-color="rgb(24.629211%, 71.841431%, 93.183899%)" offset="0.132813"/><stop stop-opacity="1" stop-color="rgb(24.690247%, 71.644592%, 93.238831%)" offset="0.140625"/><stop stop-opacity="1" stop-color="rgb(24.751282%, 71.44928%, 93.293762%)" offset="0.148438"/><stop stop-opacity="1" stop-color="rgb(24.812317%, 71.252441%, 93.348694%)" offset="0.15625"/><stop stop-opacity="1" stop-color="rgb(24.873352%, 71.057129%, 93.403625%)" offset="0.164063"/><stop stop-opacity="1" stop-color="rgb(24.934387%, 70.860291%, 93.457031%)" offset="0.171875"/><stop stop-opacity="1" stop-color="rgb(24.995422%, 70.664978%, 93.511963%)" offset="0.179688"/><stop stop-opacity="1" stop-color="rgb(25.056458%, 70.46814%, 93.566895%)" offset="0.1875"/><stop stop-opacity="1" stop-color="rgb(25.14801%, 70.175171%, 93.649292%)" offset="0.203125"/><stop stop-opacity="1" stop-color="rgb(25.239563%, 69.880676%, 93.730164%)" offset="0.210938"/><stop stop-opacity="1" stop-color="rgb(25.300598%, 69.685364%, 93.785095%)" offset="0.21875"/><stop stop-opacity="1" stop-color="rgb(25.361633%, 69.488525%, 93.840027%)" offset="0.226562"/><stop stop-opacity="1" stop-color="rgb(25.422668%, 69.293213%, 93.894958%)" offset="0.234375"/><stop stop-opacity="1" stop-color="rgb(25.483704%, 69.096375%, 93.94989%)" offset="0.242187"/><stop stop-opacity="1" stop-color="rgb(25.544739%, 68.901062%, 94.003296%)" offset="0.25"/><stop stop-opacity="1" stop-color="rgb(25.605774%, 68.70575%, 94.058228%)" offset="0.257812"/><stop stop-opacity="1" stop-color="rgb(25.666809%, 68.508911%, 94.113159%)" offset="0.265625"/><stop stop-opacity="1" stop-color="rgb(25.727844%, 68.313599%, 94.168091%)" offset="0.273438"/><stop stop-opacity="1" stop-color="rgb(25.788879%, 68.11676%, 94.223022%)" offset="0.28125"/><stop stop-opacity="1" stop-color="rgb(25.849915%, 67.921448%, 94.277954%)" offset="0.289062"/><stop stop-opacity="1" stop-color="rgb(25.91095%, 67.724609%, 94.33136%)" offset="0.296875"/><stop stop-opacity="1" stop-color="rgb(26.002502%, 67.431641%, 94.413757%)" offset="0.3125"/><stop stop-opacity="1" stop-color="rgb(26.094055%, 67.137146%, 94.496155%)" offset="0.320313"/><stop stop-opacity="1" stop-color="rgb(26.15509%, 66.941833%, 94.551086%)" offset="0.328125"/><stop stop-opacity="1" stop-color="rgb(26.216125%, 66.744995%, 94.604492%)" offset="0.335937"/><stop stop-opacity="1" stop-color="rgb(26.277161%, 66.549683%, 94.659424%)" offset="0.34375"/><stop stop-opacity="1" stop-color="rgb(26.338196%, 66.352844%, 94.714355%)" offset="0.351562"/><stop stop-opacity="1" stop-color="rgb(26.399231%, 66.157532%, 94.769287%)" offset="0.359375"/><stop stop-opacity="1" stop-color="rgb(26.460266%, 65.962219%, 94.824219%)" offset="0.367188"/><stop stop-opacity="1" stop-color="rgb(26.521301%, 65.765381%, 94.87915%)" offset="0.375"/><stop stop-opacity="1" stop-color="rgb(26.582336%, 65.570068%, 94.932556%)" offset="0.382812"/><stop stop-opacity="1" stop-color="rgb(26.643372%, 65.37323%, 94.987488%)" offset="0.390625"/><stop stop-opacity="1" stop-color="rgb(26.704407%, 65.177917%, 95.042419%)" offset="0.398438"/><stop stop-opacity="1" stop-color="rgb(26.765442%, 64.981079%, 95.097351%)" offset="0.40625"/><stop stop-opacity="1" stop-color="rgb(26.856995%, 64.68811%, 95.178223%)" offset="0.421875"/><stop stop-opacity="1" stop-color="rgb(26.948547%, 64.393616%, 95.26062%)" offset="0.429687"/><stop stop-opacity="1" stop-color="rgb(27.009583%, 64.198303%, 95.315552%)" offset="0.4375"/><stop stop-opacity="1" stop-color="rgb(27.070618%, 64.001465%, 95.370483%)" offset="0.445312"/><stop stop-opacity="1" stop-color="rgb(27.131653%, 63.806152%, 95.425415%)" offset="0.453125"/><stop stop-opacity="1" stop-color="rgb(27.192688%, 63.609314%, 95.478821%)" offset="0.460938"/><stop stop-opacity="1" stop-color="rgb(27.253723%, 63.414001%, 95.533752%)" offset="0.46875"/><stop stop-opacity="1" stop-color="rgb(27.314758%, 63.217163%, 95.588684%)" offset="0.476562"/><stop stop-opacity="1" stop-color="rgb(27.375793%, 63.021851%, 95.643616%)" offset="0.484375"/><stop stop-opacity="1" stop-color="rgb(27.436829%, 62.826538%, 95.698547%)" offset="0.492188"/><stop stop-opacity="1" stop-color="rgb(27.497864%, 62.6297%, 95.753479%)" offset="0.5"/><stop stop-opacity="1" stop-color="rgb(27.558899%, 62.434387%, 95.806885%)" offset="0.507812"/><stop stop-opacity="1" stop-color="rgb(27.619934%, 62.237549%, 95.861816%)" offset="0.515625"/><stop stop-opacity="1" stop-color="rgb(27.680969%, 62.042236%, 95.916748%)" offset="0.523438"/><stop stop-opacity="1" stop-color="rgb(27.742004%, 61.845398%, 95.97168%)" offset="0.53125"/><stop stop-opacity="1" stop-color="rgb(27.833557%, 61.552429%, 96.052551%)" offset="0.546875"/><stop stop-opacity="1" stop-color="rgb(27.92511%, 61.257935%, 96.134949%)" offset="0.554688"/><stop stop-opacity="1" stop-color="rgb(27.986145%, 61.062622%, 96.18988%)" offset="0.5625"/><stop stop-opacity="1" stop-color="rgb(28.04718%, 60.865784%, 96.244812%)" offset="0.570312"/><stop stop-opacity="1" stop-color="rgb(28.108215%, 60.670471%, 96.299744%)" offset="0.578125"/><stop stop-opacity="1" stop-color="rgb(28.16925%, 60.473633%, 96.353149%)" offset="0.585938"/><stop stop-opacity="1" stop-color="rgb(28.230286%, 60.27832%, 96.408081%)" offset="0.59375"/><stop stop-opacity="1" stop-color="rgb(28.291321%, 60.083008%, 96.463013%)" offset="0.601562"/><stop stop-opacity="1" stop-color="rgb(28.352356%, 59.886169%, 96.517944%)" offset="0.609375"/><stop stop-opacity="1" stop-color="rgb(28.413391%, 59.690857%, 96.572876%)" offset="0.617188"/><stop stop-opacity="1" stop-color="rgb(28.474426%, 59.494019%, 96.627808%)" offset="0.625"/><stop stop-opacity="1" stop-color="rgb(28.535461%, 59.298706%, 96.681213%)" offset="0.632813"/><stop stop-opacity="1" stop-color="rgb(28.596497%, 59.101868%, 96.736145%)" offset="0.640625"/><stop stop-opacity="1" stop-color="rgb(28.688049%, 58.808899%, 96.818542%)" offset="0.65625"/><stop stop-opacity="1" stop-color="rgb(28.779602%, 58.514404%, 96.90094%)" offset="0.664062"/><stop stop-opacity="1" stop-color="rgb(28.840637%, 58.319092%, 96.954346%)" offset="0.671875"/><stop stop-opacity="1" stop-color="rgb(28.901672%, 58.122253%, 97.009277%)" offset="0.679688"/><stop stop-opacity="1" stop-color="rgb(28.962708%, 57.926941%, 97.064209%)" offset="0.6875"/><stop stop-opacity="1" stop-color="rgb(29.023743%, 57.730103%, 97.119141%)" offset="0.695312"/><stop stop-opacity="1" stop-color="rgb(29.084778%, 57.53479%, 97.174072%)" offset="0.703125"/><stop stop-opacity="1" stop-color="rgb(29.145813%, 57.339478%, 97.227478%)" offset="0.710938"/><stop stop-opacity="1" stop-color="rgb(29.206848%, 57.142639%, 97.28241%)" offset="0.71875"/><stop stop-opacity="1" stop-color="rgb(29.267883%, 56.947327%, 97.337341%)" offset="0.726563"/><stop stop-opacity="1" stop-color="rgb(29.328918%, 56.750488%, 97.392273%)" offset="0.734375"/><stop stop-opacity="1" stop-color="rgb(29.389954%, 56.555176%, 97.447205%)" offset="0.742188"/><stop stop-opacity="1" stop-color="rgb(29.450989%, 56.358337%, 97.502136%)" offset="0.75"/><stop stop-opacity="1" stop-color="rgb(29.512024%, 56.163025%, 97.555542%)" offset="0.757812"/><stop stop-opacity="1" stop-color="rgb(29.573059%, 55.966187%, 97.610474%)" offset="0.765625"/><stop stop-opacity="1" stop-color="rgb(29.664612%, 55.673218%, 97.692871%)" offset="0.78125"/><stop stop-opacity="1" stop-color="rgb(29.756165%, 55.378723%, 97.775269%)" offset="0.789062"/><stop stop-opacity="1" stop-color="rgb(29.8172%, 55.183411%, 97.828674%)" offset="0.796875"/><stop stop-opacity="1" stop-color="rgb(29.878235%, 54.986572%, 97.883606%)" offset="0.804688"/><stop stop-opacity="1" stop-color="rgb(29.93927%, 54.79126%, 97.938538%)" offset="0.8125"/><stop stop-opacity="1" stop-color="rgb(30.000305%, 54.594421%, 97.993469%)" offset="0.820312"/><stop stop-opacity="1" stop-color="rgb(30.06134%, 54.399109%, 98.048401%)" offset="0.828125"/><stop stop-opacity="1" stop-color="rgb(30.122375%, 54.203796%, 98.101807%)" offset="0.835938"/><stop stop-opacity="1" stop-color="rgb(30.183411%, 54.006958%, 98.156738%)" offset="0.84375"/><stop stop-opacity="1" stop-color="rgb(30.244446%, 53.811646%, 98.21167%)" offset="0.851562"/><stop stop-opacity="1" stop-color="rgb(30.305481%, 53.614807%, 98.266602%)" offset="0.859375"/><stop stop-opacity="1" stop-color="rgb(30.366516%, 53.419495%, 98.321533%)" offset="0.867187"/><stop stop-opacity="1" stop-color="rgb(30.427551%, 53.222656%, 98.376465%)" offset="0.875"/><stop stop-opacity="1" stop-color="rgb(30.519104%, 52.929688%, 98.457336%)" offset="0.890625"/><stop stop-opacity="1" stop-color="rgb(30.610657%, 52.635193%, 98.539734%)" offset="0.898438"/><stop stop-opacity="1" stop-color="rgb(30.671692%, 52.43988%, 98.594666%)" offset="0.90625"/><stop stop-opacity="1" stop-color="rgb(30.732727%, 52.243042%, 98.649597%)" offset="0.914062"/><stop stop-opacity="1" stop-color="rgb(30.793762%, 52.047729%, 98.703003%)" offset="0.921875"/><stop stop-opacity="1" stop-color="rgb(30.854797%, 51.850891%, 98.757935%)" offset="0.929688"/><stop stop-opacity="1" stop-color="rgb(30.915833%, 51.655579%, 98.812866%)" offset="0.9375"/><stop stop-opacity="1" stop-color="rgb(30.976868%, 51.460266%, 98.867798%)" offset="0.945312"/><stop stop-opacity="1" stop-color="rgb(31.037903%, 51.263428%, 98.922729%)" offset="0.953125"/><stop stop-opacity="1" stop-color="rgb(31.098938%, 51.068115%, 98.976135%)" offset="0.960938"/><stop stop-opacity="1" stop-color="rgb(31.159973%, 50.871277%, 99.031067%)" offset="0.96875"/><stop stop-opacity="1" stop-color="rgb(31.221008%, 50.675964%, 99.085999%)" offset="0.976563"/><stop stop-opacity="1" stop-color="rgb(31.282043%, 50.479126%, 99.14093%)" offset="0.984375"/><stop stop-opacity="1" stop-color="rgb(31.340027%, 50.289917%, 99.19281%)" offset="1"/></linearGradient><clipPath id="21c80a1e15"><path d="M 204 199 L 208 199 L 208 203.03125 L 204 203.03125 Z M 204 199 " clip-rule="nonzero"/></clipPath><clipPath id="df598a7422"><path d="M 204 197 L 210.789062 197 L 210.789062 203 L 204 203 Z M 204 197 " clip-rule="nonzero"/></clipPath><clipPath id="6ccd6f6e20"><path d="M 204.789062 202.898438 C 204.785156 202.5 204.832031 201.1875 205.480469 199.898438 C 205.683594 199.496094 205.949219 199.09375 206.289062 198.726562 C 207.171875 197.769531 208.570312 197.035156 210.789062 197.035156 L 210.789062 199.28125 C 209.152344 199.28125 207.960938 199.53125 207.097656 199.898438 C 206.789062 200.03125 206.519531 200.179688 206.289062 200.335938 C 204.925781 201.261719 204.792969 202.511719 204.789062 202.898438 Z M 204.789062 202.898438 " clip-rule="nonzero"/></clipPath><linearGradient x1="167.432087" gradientTransform="matrix(-0.0249488, 0, 0, -0.0249079, 214.965119, 199.026455)" y1="-37.771" x2="408.042099" gradientUnits="userSpaceOnUse" y2="-37.771" id="3bba0fa93b"><stop stop-opacity="1" stop-color="rgb(23.919678%, 74.119568%, 92.549133%)" offset="0"/><stop stop-opacity="1" stop-color="rgb(23.919678%, 74.119568%, 92.549133%)" offset="0.03125"/><stop stop-opacity="1" stop-color="rgb(23.953247%, 74.009705%, 92.579651%)" offset="0.046875"/><stop stop-opacity="1" stop-color="rgb(24.01886%, 73.800659%, 92.637634%)" offset="0.0546875"/><stop stop-opacity="1" stop-color="rgb(24.079895%, 73.605347%, 92.692566%)" offset="0.0625"/><stop stop-opacity="1" stop-color="rgb(24.14093%, 73.408508%, 92.747498%)" offset="0.0703125"/><stop stop-opacity="1" stop-color="rgb(24.201965%, 73.213196%, 92.802429%)" offset="0.078125"/><stop stop-opacity="1" stop-color="rgb(24.263%, 73.016357%, 92.855835%)" offset="0.0859375"/><stop stop-opacity="1" stop-color="rgb(24.324036%, 72.821045%, 92.910767%)" offset="0.09375"/><stop stop-opacity="1" stop-color="rgb(24.385071%, 72.625732%, 92.965698%)" offset="0.101562"/><stop stop-opacity="1" stop-color="rgb(24.446106%, 72.428894%, 93.02063%)" offset="0.109375"/><stop stop-opacity="1" stop-color="rgb(24.507141%, 72.233582%, 93.075562%)" offset="0.117188"/><stop stop-opacity="1" stop-color="rgb(24.568176%, 72.036743%, 93.128967%)" offset="0.125"/><stop stop-opacity="1" stop-color="rgb(24.629211%, 71.841431%, 93.183899%)" offset="0.132812"/><stop stop-opacity="1" stop-color="rgb(24.690247%, 71.644592%, 93.238831%)" offset="0.140625"/><stop stop-opacity="1" stop-color="rgb(24.751282%, 71.44928%, 93.293762%)" offset="0.148438"/><stop stop-opacity="1" stop-color="rgb(24.812317%, 71.252441%, 93.348694%)" offset="0.15625"/><stop stop-opacity="1" stop-color="rgb(24.90387%, 70.959473%, 93.429565%)" offset="0.171875"/><stop stop-opacity="1" stop-color="rgb(24.995422%, 70.664978%, 93.511963%)" offset="0.179687"/><stop stop-opacity="1" stop-color="rgb(25.056458%, 70.469666%, 93.566895%)" offset="0.1875"/><stop stop-opacity="1" stop-color="rgb(25.117493%, 70.272827%, 93.621826%)" offset="0.195312"/><stop stop-opacity="1" stop-color="rgb(25.178528%, 70.077515%, 93.676758%)" offset="0.203125"/><stop stop-opacity="1" stop-color="rgb(25.239563%, 69.880676%, 93.730164%)" offset="0.210938"/><stop stop-opacity="1" stop-color="rgb(25.300598%, 69.685364%, 93.785095%)" offset="0.21875"/><stop stop-opacity="1" stop-color="rgb(25.361633%, 69.488525%, 93.840027%)" offset="0.226562"/><stop stop-opacity="1" stop-color="rgb(25.422668%, 69.293213%, 93.894958%)" offset="0.234375"/><stop stop-opacity="1" stop-color="rgb(25.483704%, 69.0979%, 93.94989%)" offset="0.242188"/><stop stop-opacity="1" stop-color="rgb(25.544739%, 68.901062%, 94.003296%)" offset="0.25"/><stop stop-opacity="1" stop-color="rgb(25.605774%, 68.70575%, 94.058228%)" offset="0.257812"/><stop stop-opacity="1" stop-color="rgb(25.666809%, 68.508911%, 94.113159%)" offset="0.265625"/><stop stop-opacity="1" stop-color="rgb(25.727844%, 68.313599%, 94.168091%)" offset="0.273437"/><stop stop-opacity="1" stop-color="rgb(25.788879%, 68.11676%, 94.223022%)" offset="0.28125"/><stop stop-opacity="1" stop-color="rgb(25.880432%, 67.823792%, 94.303894%)" offset="0.296875"/><stop stop-opacity="1" stop-color="rgb(25.971985%, 67.529297%, 94.386292%)" offset="0.304688"/><stop stop-opacity="1" stop-color="rgb(26.03302%, 67.333984%, 94.441223%)" offset="0.3125"/><stop stop-opacity="1" stop-color="rgb(26.094055%, 67.137146%, 94.496155%)" offset="0.320312"/><stop stop-opacity="1" stop-color="rgb(26.15509%, 66.941833%, 94.551086%)" offset="0.328125"/><stop stop-opacity="1" stop-color="rgb(26.216125%, 66.744995%, 94.604492%)" offset="0.335938"/><stop stop-opacity="1" stop-color="rgb(26.277161%, 66.549683%, 94.659424%)" offset="0.34375"/><stop stop-opacity="1" stop-color="rgb(26.338196%, 66.352844%, 94.714355%)" offset="0.351563"/><stop stop-opacity="1" stop-color="rgb(26.399231%, 66.157532%, 94.769287%)" offset="0.359375"/><stop stop-opacity="1" stop-color="rgb(26.460266%, 65.962219%, 94.824219%)" offset="0.367188"/><stop stop-opacity="1" stop-color="rgb(26.521301%, 65.765381%, 94.877625%)" offset="0.375"/><stop stop-opacity="1" stop-color="rgb(26.582336%, 65.570068%, 94.932556%)" offset="0.382812"/><stop stop-opacity="1" stop-color="rgb(26.643372%, 65.37323%, 94.987488%)" offset="0.390625"/><stop stop-opacity="1" stop-color="rgb(26.704407%, 65.177917%, 95.042419%)" offset="0.398437"/><stop stop-opacity="1" stop-color="rgb(26.765442%, 64.981079%, 95.097351%)" offset="0.40625"/><stop stop-opacity="1" stop-color="rgb(26.856995%, 64.68811%, 95.178223%)" offset="0.421875"/><stop stop-opacity="1" stop-color="rgb(26.948547%, 64.393616%, 95.26062%)" offset="0.429688"/><stop stop-opacity="1" stop-color="rgb(27.009583%, 64.198303%, 95.315552%)" offset="0.4375"/><stop stop-opacity="1" stop-color="rgb(27.070618%, 64.001465%, 95.370483%)" offset="0.445312"/><stop stop-opacity="1" stop-color="rgb(27.131653%, 63.806152%, 95.425415%)" offset="0.453125"/><stop stop-opacity="1" stop-color="rgb(27.192688%, 63.609314%, 95.478821%)" offset="0.460938"/><stop stop-opacity="1" stop-color="rgb(27.253723%, 63.414001%, 95.533752%)" offset="0.46875"/><stop stop-opacity="1" stop-color="rgb(27.314758%, 63.217163%, 95.588684%)" offset="0.476563"/><stop stop-opacity="1" stop-color="rgb(27.375793%, 63.021851%, 95.643616%)" offset="0.484375"/><stop stop-opacity="1" stop-color="rgb(27.436829%, 62.826538%, 95.698547%)" offset="0.492188"/><stop stop-opacity="1" stop-color="rgb(27.497864%, 62.6297%, 95.753479%)" offset="0.5"/><stop stop-opacity="1" stop-color="rgb(27.558899%, 62.434387%, 95.806885%)" offset="0.507812"/><stop stop-opacity="1" stop-color="rgb(27.619934%, 62.237549%, 95.861816%)" offset="0.515625"/><stop stop-opacity="1" stop-color="rgb(27.680969%, 62.042236%, 95.916748%)" offset="0.523437"/><stop stop-opacity="1" stop-color="rgb(27.742004%, 61.845398%, 95.97168%)" offset="0.53125"/><stop stop-opacity="1" stop-color="rgb(27.833557%, 61.552429%, 96.052551%)" offset="0.546875"/><stop stop-opacity="1" stop-color="rgb(27.92511%, 61.257935%, 96.134949%)" offset="0.554687"/><stop stop-opacity="1" stop-color="rgb(27.986145%, 61.062622%, 96.18988%)" offset="0.5625"/><stop stop-opacity="1" stop-color="rgb(28.04718%, 60.865784%, 96.244812%)" offset="0.570312"/><stop stop-opacity="1" stop-color="rgb(28.108215%, 60.670471%, 96.299744%)" offset="0.578125"/><stop stop-opacity="1" stop-color="rgb(28.16925%, 60.473633%, 96.353149%)" offset="0.585938"/><stop stop-opacity="1" stop-color="rgb(28.230286%, 60.27832%, 96.408081%)" offset="0.59375"/><stop stop-opacity="1" stop-color="rgb(28.291321%, 60.081482%, 96.463013%)" offset="0.601562"/><stop stop-opacity="1" stop-color="rgb(28.352356%, 59.886169%, 96.517944%)" offset="0.609375"/><stop stop-opacity="1" stop-color="rgb(28.413391%, 59.690857%, 96.572876%)" offset="0.617187"/><stop stop-opacity="1" stop-color="rgb(28.474426%, 59.494019%, 96.627808%)" offset="0.625"/><stop stop-opacity="1" stop-color="rgb(28.535461%, 59.298706%, 96.681213%)" offset="0.632812"/><stop stop-opacity="1" stop-color="rgb(28.596497%, 59.101868%, 96.736145%)" offset="0.640625"/><stop stop-opacity="1" stop-color="rgb(28.657532%, 58.906555%, 96.791077%)" offset="0.648437"/><stop stop-opacity="1" stop-color="rgb(28.718567%, 58.709717%, 96.846008%)" offset="0.65625"/><stop stop-opacity="1" stop-color="rgb(28.81012%, 58.416748%, 96.92688%)" offset="0.671875"/><stop stop-opacity="1" stop-color="rgb(28.901672%, 58.122253%, 97.009277%)" offset="0.679687"/><stop stop-opacity="1" stop-color="rgb(28.962708%, 57.926941%, 97.064209%)" offset="0.6875"/><stop stop-opacity="1" stop-color="rgb(29.023743%, 57.730103%, 97.119141%)" offset="0.695312"/><stop stop-opacity="1" stop-color="rgb(29.084778%, 57.53479%, 97.174072%)" offset="0.703125"/><stop stop-opacity="1" stop-color="rgb(29.145813%, 57.337952%, 97.229004%)" offset="0.710937"/><stop stop-opacity="1" stop-color="rgb(29.206848%, 57.142639%, 97.28241%)" offset="0.71875"/><stop stop-opacity="1" stop-color="rgb(29.267883%, 56.945801%, 97.337341%)" offset="0.726562"/><stop stop-opacity="1" stop-color="rgb(29.328918%, 56.750488%, 97.392273%)" offset="0.734375"/><stop stop-opacity="1" stop-color="rgb(29.389954%, 56.555176%, 97.447205%)" offset="0.742187"/><stop stop-opacity="1" stop-color="rgb(29.450989%, 56.358337%, 97.502136%)" offset="0.75"/><stop stop-opacity="1" stop-color="rgb(29.512024%, 56.163025%, 97.555542%)" offset="0.757812"/><stop stop-opacity="1" stop-color="rgb(29.573059%, 55.966187%, 97.610474%)" offset="0.765625"/><stop stop-opacity="1" stop-color="rgb(29.634094%, 55.770874%, 97.665405%)" offset="0.773437"/><stop stop-opacity="1" stop-color="rgb(29.695129%, 55.574036%, 97.720337%)" offset="0.78125"/><stop stop-opacity="1" stop-color="rgb(29.786682%, 55.281067%, 97.801208%)" offset="0.796875"/><stop stop-opacity="1" stop-color="rgb(29.878235%, 54.986572%, 97.883606%)" offset="0.804687"/><stop stop-opacity="1" stop-color="rgb(29.93927%, 54.79126%, 97.938538%)" offset="0.8125"/><stop stop-opacity="1" stop-color="rgb(30.000305%, 54.594421%, 97.993469%)" offset="0.820312"/><stop stop-opacity="1" stop-color="rgb(30.06134%, 54.399109%, 98.048401%)" offset="0.828125"/><stop stop-opacity="1" stop-color="rgb(30.122375%, 54.202271%, 98.103333%)" offset="0.835938"/><stop stop-opacity="1" stop-color="rgb(30.183411%, 54.006958%, 98.156738%)" offset="0.84375"/><stop stop-opacity="1" stop-color="rgb(30.244446%, 53.81012%, 98.21167%)" offset="0.851562"/><stop stop-opacity="1" stop-color="rgb(30.305481%, 53.614807%, 98.266602%)" offset="0.859375"/><stop stop-opacity="1" stop-color="rgb(30.366516%, 53.419495%, 98.321533%)" offset="0.867187"/><stop stop-opacity="1" stop-color="rgb(30.427551%, 53.222656%, 98.376465%)" offset="0.875"/><stop stop-opacity="1" stop-color="rgb(30.488586%, 53.027344%, 98.429871%)" offset="0.882812"/><stop stop-opacity="1" stop-color="rgb(30.549622%, 52.830505%, 98.484802%)" offset="0.890625"/><stop stop-opacity="1" stop-color="rgb(30.610657%, 52.635193%, 98.539734%)" offset="0.898437"/><stop stop-opacity="1" stop-color="rgb(30.671692%, 52.438354%, 98.594666%)" offset="0.90625"/><stop stop-opacity="1" stop-color="rgb(30.763245%, 52.145386%, 98.675537%)" offset="0.921875"/><stop stop-opacity="1" stop-color="rgb(30.854797%, 51.850891%, 98.757935%)" offset="0.929687"/><stop stop-opacity="1" stop-color="rgb(30.915833%, 51.655579%, 98.812866%)" offset="0.9375"/><stop stop-opacity="1" stop-color="rgb(30.976868%, 51.45874%, 98.867798%)" offset="0.945312"/><stop stop-opacity="1" stop-color="rgb(31.037903%, 51.263428%, 98.922729%)" offset="0.953125"/><stop stop-opacity="1" stop-color="rgb(31.098938%, 51.066589%, 98.977661%)" offset="0.960937"/><stop stop-opacity="1" stop-color="rgb(31.159973%, 50.871277%, 99.031067%)" offset="0.96875"/><stop stop-opacity="1" stop-color="rgb(31.221008%, 50.674438%, 99.085999%)" offset="0.976562"/><stop stop-opacity="1" stop-color="rgb(31.282043%, 50.479126%, 99.14093%)" offset="0.984375"/><stop stop-opacity="1" stop-color="rgb(31.340027%, 50.289917%, 99.19281%)" offset="1"/></linearGradient><clipPath id="490fcc3966"><path d="M 163 97 L 199 97 L 199 110 L 163 110 Z M 163 97 " clip-rule="nonzero"/></clipPath><clipPath id="fa814b1ce2"><path d="M 157.757812 101.078125 L 203.265625 96.375 L 206.117188 123.976562 L 160.609375 128.683594 Z M 157.757812 101.078125 " clip-rule="nonzero"/></clipPath><clipPath id="71e228a3d2"><path d="M 157.757812 101.078125 L 203.265625 96.375 L 206.117188 123.976562 L 160.609375 128.683594 Z M 157.757812 101.078125 " clip-rule="nonzero"/></clipPath><clipPath id="465b63d5d4"><path d="M 163 104 L 200 104 L 200 118 L 163 118 Z M 163 104 " clip-rule="nonzero"/></clipPath><clipPath id="11d16679b6"><path d="M 157.757812 101.078125 L 203.265625 96.375 L 206.117188 123.976562 L 160.609375 128.683594 Z M 157.757812 101.078125 " clip-rule="nonzero"/></clipPath><clipPath id="51af3eb67a"><path d="M 157.757812 101.078125 L 203.265625 96.375 L 206.117188 123.976562 L 160.609375 128.683594 Z M 157.757812 101.078125 " clip-rule="nonzero"/></clipPath><clipPath id="122f013b5d"><path d="M 163 107 L 200 107 L 200 118 L 163 118 Z M 163 107 " clip-rule="nonzero"/></clipPath><clipPath id="6b84f68897"><path d="M 157.757812 101.078125 L 203.265625 96.375 L 206.117188 123.976562 L 160.609375 128.683594 Z M 157.757812 101.078125 " clip-rule="nonzero"/></clipPath><clipPath id="057135e364"><path d="M 157.757812 101.078125 L 203.265625 96.375 L 206.117188 123.976562 L 160.609375 128.683594 Z M 157.757812 101.078125 " clip-rule="nonzero"/></clipPath><clipPath id="d56e9d77a9"><path d="M 160 104 L 206 104 L 206 128 L 160 128 Z M 160 104 " clip-rule="nonzero"/></clipPath><clipPath id="f783d42e5f"><path d="M 157.757812 101.078125 L 203.265625 96.375 L 206.117188 123.976562 L 160.609375 128.683594 Z M 157.757812 101.078125 " clip-rule="nonzero"/></clipPath><clipPath id="6a26f17e3e"><path d="M 157.757812 101.078125 L 203.265625 96.375 L 206.117188 123.976562 L 160.609375 128.683594 Z M 157.757812 101.078125 " clip-rule="nonzero"/></clipPath><clipPath id="91cfc0cef8"><path d="M 165 123 L 175 123 L 175 128 L 165 128 Z M 165 123 " clip-rule="nonzero"/></clipPath><clipPath id="63d163ece1"><path d="M 157.757812 101.078125 L 203.265625 96.375 L 206.117188 123.976562 L 160.609375 128.683594 Z M 157.757812 101.078125 " clip-rule="nonzero"/></clipPath><clipPath id="dde590150d"><path d="M 157.757812 101.078125 L 203.265625 96.375 L 206.117188 123.976562 L 160.609375 128.683594 Z M 157.757812 101.078125 " clip-rule="nonzero"/></clipPath><clipPath id="bf21905fe6"><path d="M 129 202 L 138 202 L 138 212 L 129 212 Z M 129 202 " clip-rule="nonzero"/></clipPath><clipPath id="d5bed00ccb"><path d="M 126.945312 198.703125 L 174.582031 209.058594 L 166.136719 247.902344 L 118.5 237.546875 Z M 126.945312 198.703125 " clip-rule="nonzero"/></clipPath><clipPath id="86d8762fef"><path d="M 126.945312 198.703125 L 174.582031 209.058594 L 166.136719 247.902344 L 118.5 237.546875 Z M 126.945312 198.703125 " clip-rule="nonzero"/></clipPath><clipPath id="bf31d808f5"><path d="M 126.945312 198.703125 L 174.582031 209.058594 L 166.136719 247.902344 L 118.5 237.546875 Z M 126.945312 198.703125 " clip-rule="nonzero"/></clipPath><clipPath id="a5707c7422"><path d="M 128 201 L 139 201 L 139 212 L 128 212 Z M 128 201 " clip-rule="nonzero"/></clipPath><clipPath id="5c635e78ab"><path d="M 126.945312 198.703125 L 174.582031 209.058594 L 166.136719 247.902344 L 118.5 237.546875 Z M 126.945312 198.703125 " clip-rule="nonzero"/></clipPath><clipPath id="3c0326c5eb"><path d="M 126.945312 198.703125 L 174.582031 209.058594 L 166.136719 247.902344 L 118.5 237.546875 Z M 126.945312 198.703125 " clip-rule="nonzero"/></clipPath><clipPath id="9c84dc412d"><path d="M 126.945312 198.703125 L 174.582031 209.058594 L 166.136719 247.902344 L 118.5 237.546875 Z M 126.945312 198.703125 " clip-rule="nonzero"/></clipPath><clipPath id="2e9de69a6e"><path d="M 132 207 L 156 207 L 156 232 L 132 232 Z M 132 207 " clip-rule="nonzero"/></clipPath><clipPath id="01813e2509"><path d="M 126.945312 198.703125 L 174.582031 209.058594 L 166.136719 247.902344 L 118.5 237.546875 Z M 126.945312 198.703125 " clip-rule="nonzero"/></clipPath><clipPath id="31fd05d5e7"><path d="M 126.945312 198.703125 L 174.582031 209.058594 L 166.136719 247.902344 L 118.5 237.546875 Z M 126.945312 198.703125 " clip-rule="nonzero"/></clipPath><clipPath id="1b46058440"><path d="M 126.945312 198.703125 L 174.582031 209.058594 L 166.136719 247.902344 L 118.5 237.546875 Z M 126.945312 198.703125 " clip-rule="nonzero"/></clipPath><clipPath id="3f9ca6e991"><path d="M 132 206 L 156 206 L 156 233 L 132 233 Z M 132 206 " clip-rule="nonzero"/></clipPath><clipPath id="c03e4ea2c6"><path d="M 126.945312 198.703125 L 174.582031 209.058594 L 166.136719 247.902344 L 118.5 237.546875 Z M 126.945312 198.703125 " clip-rule="nonzero"/></clipPath><clipPath id="415d5ab02a"><path d="M 126.945312 198.703125 L 174.582031 209.058594 L 166.136719 247.902344 L 118.5 237.546875 Z M 126.945312 198.703125 " clip-rule="nonzero"/></clipPath><clipPath id="06c244938d"><path d="M 126.945312 198.703125 L 174.582031 209.058594 L 166.136719 247.902344 L 118.5 237.546875 Z M 126.945312 198.703125 " clip-rule="nonzero"/></clipPath><clipPath id="bb86527186"><path d="M 135 210 L 152 210 L 152 229 L 135 229 Z M 135 210 " clip-rule="nonzero"/></clipPath><clipPath id="a91c681986"><path d="M 126.945312 198.703125 L 174.582031 209.058594 L 166.136719 247.902344 L 118.5 237.546875 Z M 126.945312 198.703125 " clip-rule="nonzero"/></clipPath><clipPath id="a24552e1b1"><path d="M 126.945312 198.703125 L 174.582031 209.058594 L 166.136719 247.902344 L 118.5 237.546875 Z M 126.945312 198.703125 " clip-rule="nonzero"/></clipPath><clipPath id="a33567bb8b"><path d="M 126.945312 198.703125 L 174.582031 209.058594 L 166.136719 247.902344 L 118.5 237.546875 Z M 126.945312 198.703125 " clip-rule="nonzero"/></clipPath><clipPath id="31f48812b5"><path d="M 135 210 L 153 210 L 153 229 L 135 229 Z M 135 210 " clip-rule="nonzero"/></clipPath><clipPath id="d1ba339ed1"><path d="M 126.945312 198.703125 L 174.582031 209.058594 L 166.136719 247.902344 L 118.5 237.546875 Z M 126.945312 198.703125 " clip-rule="nonzero"/></clipPath><clipPath id="f5c51d2136"><path d="M 126.945312 198.703125 L 174.582031 209.058594 L 166.136719 247.902344 L 118.5 237.546875 Z M 126.945312 198.703125 " clip-rule="nonzero"/></clipPath><clipPath id="bc9b830572"><path d="M 126.945312 198.703125 L 174.582031 209.058594 L 166.136719 247.902344 L 118.5 237.546875 Z M 126.945312 198.703125 " clip-rule="nonzero"/></clipPath><clipPath id="33726ea0a0"><path d="M 151 228 L 164 228 L 164 244 L 151 244 Z M 151 228 " clip-rule="nonzero"/></clipPath><clipPath id="9ab92dd25d"><path d="M 126.945312 198.703125 L 174.582031 209.058594 L 166.136719 247.902344 L 118.5 237.546875 Z M 126.945312 198.703125 " clip-rule="nonzero"/></clipPath><clipPath id="a84d1a8dc2"><path d="M 126.945312 198.703125 L 174.582031 209.058594 L 166.136719 247.902344 L 118.5 237.546875 Z M 126.945312 198.703125 " clip-rule="nonzero"/></clipPath><clipPath id="17649f9035"><path d="M 126.945312 198.703125 L 174.582031 209.058594 L 166.136719 247.902344 L 118.5 237.546875 Z M 126.945312 198.703125 " clip-rule="nonzero"/></clipPath><clipPath id="7b1f14069c"><path d="M 150 228 L 165 228 L 165 244 L 150 244 Z M 150 228 " clip-rule="nonzero"/></clipPath><clipPath id="bb38670b27"><path d="M 126.945312 198.703125 L 174.582031 209.058594 L 166.136719 247.902344 L 118.5 237.546875 Z M 126.945312 198.703125 " clip-rule="nonzero"/></clipPath><clipPath id="b97d66414c"><path d="M 126.945312 198.703125 L 174.582031 209.058594 L 166.136719 247.902344 L 118.5 237.546875 Z M 126.945312 198.703125 " clip-rule="nonzero"/></clipPath><clipPath id="42d0ff0a32"><path d="M 126.945312 198.703125 L 174.582031 209.058594 L 166.136719 247.902344 L 118.5 237.546875 Z M 126.945312 198.703125 " clip-rule="nonzero"/></clipPath><clipPath id="5f8ef22781"><path d="M 159 239 L 168 239 L 168 247 L 159 247 Z M 159 239 " clip-rule="nonzero"/></clipPath><clipPath id="5a672d9f45"><path d="M 126.945312 198.703125 L 174.582031 209.058594 L 166.136719 247.902344 L 118.5 237.546875 Z M 126.945312 198.703125 " clip-rule="nonzero"/></clipPath><clipPath id="a1e1dfb4d0"><path d="M 126.945312 198.703125 L 174.582031 209.058594 L 166.136719 247.902344 L 118.5 237.546875 Z M 126.945312 198.703125 " clip-rule="nonzero"/></clipPath><clipPath id="43ae294039"><path d="M 126.945312 198.703125 L 174.582031 209.058594 L 166.136719 247.902344 L 118.5 237.546875 Z M 126.945312 198.703125 " clip-rule="nonzero"/></clipPath><clipPath id="7102dfa432"><path d="M 146 224 L 158 224 L 158 235 L 146 235 Z M 146 224 " clip-rule="nonzero"/></clipPath><clipPath id="ce13764eef"><path d="M 126.945312 198.703125 L 174.582031 209.058594 L 166.136719 247.902344 L 118.5 237.546875 Z M 126.945312 198.703125 " clip-rule="nonzero"/></clipPath><clipPath id="96271b342a"><path d="M 126.945312 198.703125 L 174.582031 209.058594 L 166.136719 247.902344 L 118.5 237.546875 Z M 126.945312 198.703125 " clip-rule="nonzero"/></clipPath><clipPath id="21e92a7562"><path d="M 126.945312 198.703125 L 174.582031 209.058594 L 166.136719 247.902344 L 118.5 237.546875 Z M 126.945312 198.703125 " clip-rule="nonzero"/></clipPath><clipPath id="59711a25f9"><path d="M 146 224 L 159 224 L 159 235 L 146 235 Z M 146 224 " clip-rule="nonzero"/></clipPath><clipPath id="7d8328d596"><path d="M 126.945312 198.703125 L 174.582031 209.058594 L 166.136719 247.902344 L 118.5 237.546875 Z M 126.945312 198.703125 " clip-rule="nonzero"/></clipPath><clipPath id="a555190f6d"><path d="M 126.945312 198.703125 L 174.582031 209.058594 L 166.136719 247.902344 L 118.5 237.546875 Z M 126.945312 198.703125 " clip-rule="nonzero"/></clipPath><clipPath id="c4977cff9c"><path d="M 126.945312 198.703125 L 174.582031 209.058594 L 166.136719 247.902344 L 118.5 237.546875 Z M 126.945312 198.703125 " clip-rule="nonzero"/></clipPath><clipPath id="d2dc32a2fe"><path d="M 127 199 L 131 199 L 131 203 L 127 203 Z M 127 199 " clip-rule="nonzero"/></clipPath><clipPath id="732bcec6dc"><path d="M 126.945312 198.703125 L 174.582031 209.058594 L 166.136719 247.902344 L 118.5 237.546875 Z M 126.945312 198.703125 " clip-rule="nonzero"/></clipPath><clipPath id="3a5d8ce8ef"><path d="M 126.945312 198.703125 L 174.582031 209.058594 L 166.136719 247.902344 L 118.5 237.546875 Z M 126.945312 198.703125 " clip-rule="nonzero"/></clipPath><clipPath id="006abad3ea"><path d="M 126.945312 198.703125 L 174.582031 209.058594 L 166.136719 247.902344 L 118.5 237.546875 Z M 126.945312 198.703125 " clip-rule="nonzero"/></clipPath><clipPath id="f74304a7f1"><path d="M 126 198 L 131 198 L 131 204 L 126 204 Z M 126 198 " clip-rule="nonzero"/></clipPath><clipPath id="db1e716c2c"><path d="M 126.945312 198.703125 L 174.582031 209.058594 L 166.136719 247.902344 L 118.5 237.546875 Z M 126.945312 198.703125 " clip-rule="nonzero"/></clipPath><clipPath id="3cc8bb07a4"><path d="M 126.945312 198.703125 L 174.582031 209.058594 L 166.136719 247.902344 L 118.5 237.546875 Z M 126.945312 198.703125 " clip-rule="nonzero"/></clipPath><clipPath id="579eb38597"><path d="M 126.945312 198.703125 L 174.582031 209.058594 L 166.136719 247.902344 L 118.5 237.546875 Z M 126.945312 198.703125 " clip-rule="nonzero"/></clipPath><clipPath id="dffd840269"><path d="M 145 224 L 148 224 L 148 226 L 145 226 Z M 145 224 " clip-rule="nonzero"/></clipPath><clipPath id="99ccae8034"><path d="M 126.945312 198.703125 L 174.582031 209.058594 L 166.136719 247.902344 L 118.5 237.546875 Z M 126.945312 198.703125 " clip-rule="nonzero"/></clipPath><clipPath id="983a62c735"><path d="M 126.945312 198.703125 L 174.582031 209.058594 L 166.136719 247.902344 L 118.5 237.546875 Z M 126.945312 198.703125 " clip-rule="nonzero"/></clipPath><clipPath id="0f1f23e3f5"><path d="M 126.945312 198.703125 L 174.582031 209.058594 L 166.136719 247.902344 L 118.5 237.546875 Z M 126.945312 198.703125 " clip-rule="nonzero"/></clipPath><clipPath id="c89c482e03"><path d="M 145 223 L 148 223 L 148 227 L 145 227 Z M 145 223 " clip-rule="nonzero"/></clipPath><clipPath id="9418d3813c"><path d="M 126.945312 198.703125 L 174.582031 209.058594 L 166.136719 247.902344 L 118.5 237.546875 Z M 126.945312 198.703125 " clip-rule="nonzero"/></clipPath><clipPath id="d031d7d5fb"><path d="M 126.945312 198.703125 L 174.582031 209.058594 L 166.136719 247.902344 L 118.5 237.546875 Z M 126.945312 198.703125 " clip-rule="nonzero"/></clipPath><clipPath id="695d3c4930"><path d="M 126.945312 198.703125 L 174.582031 209.058594 L 166.136719 247.902344 L 118.5 237.546875 Z M 126.945312 198.703125 " clip-rule="nonzero"/></clipPath><clipPath id="0a528ecda6"><path d="M 142 220 L 145 220 L 145 223 L 142 223 Z M 142 220 " clip-rule="nonzero"/></clipPath><clipPath id="ca246300e8"><path d="M 126.945312 198.703125 L 174.582031 209.058594 L 166.136719 247.902344 L 118.5 237.546875 Z M 126.945312 198.703125 " clip-rule="nonzero"/></clipPath><clipPath id="e332212ef4"><path d="M 126.945312 198.703125 L 174.582031 209.058594 L 166.136719 247.902344 L 118.5 237.546875 Z M 126.945312 198.703125 " clip-rule="nonzero"/></clipPath><clipPath id="70fe91cf07"><path d="M 126.945312 198.703125 L 174.582031 209.058594 L 166.136719 247.902344 L 118.5 237.546875 Z M 126.945312 198.703125 " clip-rule="nonzero"/></clipPath><clipPath id="bea06cc73d"><path d="M 139 217 L 142 217 L 142 219 L 139 219 Z M 139 217 " clip-rule="nonzero"/></clipPath><clipPath id="9a75385665"><path d="M 126.945312 198.703125 L 174.582031 209.058594 L 166.136719 247.902344 L 118.5 237.546875 Z M 126.945312 198.703125 " clip-rule="nonzero"/></clipPath><clipPath id="e9b3c4e93d"><path d="M 126.945312 198.703125 L 174.582031 209.058594 L 166.136719 247.902344 L 118.5 237.546875 Z M 126.945312 198.703125 " clip-rule="nonzero"/></clipPath><clipPath id="c161ca05fd"><path d="M 126.945312 198.703125 L 174.582031 209.058594 L 166.136719 247.902344 L 118.5 237.546875 Z M 126.945312 198.703125 " clip-rule="nonzero"/></clipPath><clipPath id="e05bb43884"><path d="M 139 216 L 142 216 L 142 220 L 139 220 Z M 139 216 " clip-rule="nonzero"/></clipPath><clipPath id="890f1777ca"><path d="M 126.945312 198.703125 L 174.582031 209.058594 L 166.136719 247.902344 L 118.5 237.546875 Z M 126.945312 198.703125 " clip-rule="nonzero"/></clipPath><clipPath id="7fe529ed93"><path d="M 126.945312 198.703125 L 174.582031 209.058594 L 166.136719 247.902344 L 118.5 237.546875 Z M 126.945312 198.703125 " clip-rule="nonzero"/></clipPath><clipPath id="83bd810853"><path d="M 126.945312 198.703125 L 174.582031 209.058594 L 166.136719 247.902344 L 118.5 237.546875 Z M 126.945312 198.703125 " clip-rule="nonzero"/></clipPath><clipPath id="5d2d8cd800"><path d="M 130 203 L 136 203 L 136 209 L 130 209 Z M 130 203 " clip-rule="nonzero"/></clipPath><clipPath id="ff6dfeeb41"><path d="M 126.945312 198.703125 L 174.582031 209.058594 L 166.136719 247.902344 L 118.5 237.546875 Z M 126.945312 198.703125 " clip-rule="nonzero"/></clipPath><clipPath id="829a88687f"><path d="M 126.945312 198.703125 L 174.582031 209.058594 L 166.136719 247.902344 L 118.5 237.546875 Z M 126.945312 198.703125 " clip-rule="nonzero"/></clipPath><clipPath id="cd63a75cb9"><path d="M 126.945312 198.703125 L 174.582031 209.058594 L 166.136719 247.902344 L 118.5 237.546875 Z M 126.945312 198.703125 " clip-rule="nonzero"/></clipPath><clipPath id="fc5398aa4b"><path d="M 139 212 L 151 212 L 151 225 L 139 225 Z M 139 212 " clip-rule="nonzero"/></clipPath><clipPath id="ad8b99bd73"><path d="M 126.945312 198.703125 L 174.582031 209.058594 L 166.136719 247.902344 L 118.5 237.546875 Z M 126.945312 198.703125 " clip-rule="nonzero"/></clipPath><clipPath id="1f7513e8d1"><path d="M 126.945312 198.703125 L 174.582031 209.058594 L 166.136719 247.902344 L 118.5 237.546875 Z M 126.945312 198.703125 " clip-rule="nonzero"/></clipPath><clipPath id="b109741861"><path d="M 126.945312 198.703125 L 174.582031 209.058594 L 166.136719 247.902344 L 118.5 237.546875 Z M 126.945312 198.703125 " clip-rule="nonzero"/></clipPath><clipPath id="06accfe051"><path d="M 153 230 L 163 230 L 163 242 L 153 242 Z M 153 230 " clip-rule="nonzero"/></clipPath><clipPath id="cdbcae0966"><path d="M 126.945312 198.703125 L 174.582031 209.058594 L 166.136719 247.902344 L 118.5 237.546875 Z M 126.945312 198.703125 " clip-rule="nonzero"/></clipPath><clipPath id="fc5220a6b7"><path d="M 126.945312 198.703125 L 174.582031 209.058594 L 166.136719 247.902344 L 118.5 237.546875 Z M 126.945312 198.703125 " clip-rule="nonzero"/></clipPath><clipPath id="23bdada2a4"><path d="M 126.945312 198.703125 L 174.582031 209.058594 L 166.136719 247.902344 L 118.5 237.546875 Z M 126.945312 198.703125 " clip-rule="nonzero"/></clipPath><clipPath id="35368673b3"><path d="M 161 240 L 167 240 L 167 245 L 161 245 Z M 161 240 " clip-rule="nonzero"/></clipPath><clipPath id="de1a9f299f"><path d="M 126.945312 198.703125 L 174.582031 209.058594 L 166.136719 247.902344 L 118.5 237.546875 Z M 126.945312 198.703125 " clip-rule="nonzero"/></clipPath><clipPath id="2f584afc64"><path d="M 126.945312 198.703125 L 174.582031 209.058594 L 166.136719 247.902344 L 118.5 237.546875 Z M 126.945312 198.703125 " clip-rule="nonzero"/></clipPath><clipPath id="b7f7d4aba4"><path d="M 126.945312 198.703125 L 174.582031 209.058594 L 166.136719 247.902344 L 118.5 237.546875 Z M 126.945312 198.703125 " clip-rule="nonzero"/></clipPath></defs><path fill="#f6f6f6" d="M 236.585938 196.34375 C 235.882812 196.949219 235.148438 197.535156 234.378906 198.09375 C 233.652344 198.625 232.894531 199.132812 232.109375 199.609375 C 221.703125 205.917969 214.019531 206.402344 214.019531 206.402344 C 214.019531 206.402344 206.042969 195.144531 206.820312 193.105469 C 206.996094 192.644531 212.074219 194.949219 221.019531 188.253906 C 221.964844 187.546875 222.816406 186.863281 223.59375 186.210938 C 224.351562 185.566406 225.035156 184.945312 225.648438 184.355469 C 230.332031 179.847656 230.941406 176.992188 230.941406 176.992188 C 230.941406 176.992188 246.699219 176.703125 247.28125 179.226562 C 247.777344 181.355469 244.035156 189.929688 236.589844 196.34375 Z M 236.585938 196.34375 " fill-opacity="1" fill-rule="nonzero"/><path fill="#f6f6f6" d="M 146.941406 236.285156 C 150.832031 246.542969 157.925781 246.144531 158.785156 244.222656 C 159.644531 242.296875 158.523438 239.933594 156.832031 237.304688 C 155.136719 234.679688 155.425781 228.9375 155.605469 229.144531 C 155.789062 229.351562 157.820312 234.578125 160.140625 234.445312 C 162.457031 234.316406 163.761719 231.066406 162.144531 228.027344 C 160.53125 224.984375 159.175781 223.164062 159.019531 221.1875 C 158.925781 220.027344 159.445312 215.6875 160.15625 211.730469 C 160.171875 211.632812 160.191406 211.535156 160.207031 211.4375 C 160.441406 210.148438 160.695312 208.910156 160.957031 207.847656 C 160.957031 207.835938 160.960938 207.820312 160.964844 207.808594 C 161.167969 206.984375 161.371094 206.269531 161.570312 205.722656 C 161.640625 205.527344 161.710938 205.351562 161.78125 205.203125 C 163.085938 202.394531 167.410156 192.929688 168.269531 191.8125 C 169.128906 190.695312 171.671875 188.175781 171.671875 188.175781 C 171.507812 188.066406 169.847656 187.65625 167.441406 187.863281 C 163.722656 188.183594 158.222656 189.976562 153.75 196.632812 C 152.414062 198.617188 151.210938 200.851562 150.15625 203.238281 C 150.035156 203.523438 149.910156 203.804688 149.792969 204.09375 C 149.433594 204.941406 149.097656 205.808594 148.78125 206.6875 C 148.753906 206.765625 148.726562 206.839844 148.699219 206.917969 C 145.105469 217.011719 144.109375 228.816406 146.941406 236.285156 Z M 146.941406 236.285156 " fill-opacity="1" fill-rule="nonzero"/><path fill="#54a3e6" d="M 148.699219 206.914062 C 150.78125 208.621094 153.046875 210.714844 160.15625 211.730469 C 160.171875 211.632812 160.191406 211.535156 160.207031 211.4375 C 160.441406 210.148438 160.695312 208.910156 160.957031 207.847656 C 159.5625 207.648438 153.113281 206.613281 149.792969 204.09375 C 149.433594 204.941406 149.097656 205.808594 148.78125 206.6875 C 148.753906 206.765625 148.726562 206.839844 148.699219 206.914062 Z M 148.699219 206.914062 " fill-opacity="1" fill-rule="nonzero"/><path fill="#f6f6f6" d="M 161.078125 223.148438 C 165.109375 240.339844 207.625 246.996094 217.210938 229.109375 C 220.210938 223.515625 221.238281 217.230469 221.210938 211.207031 C 221.207031 209.917969 221.152344 208.644531 221.0625 207.390625 C 220.203125 195.753906 215.976562 185.953125 215.542969 185.4375 L 167.472656 186.824219 C 167.472656 186.824219 162.265625 196.382812 160.636719 208.058594 C 160.464844 209.285156 160.332031 210.53125 160.25 211.792969 C 160.007812 215.523438 160.195312 219.382812 161.078125 223.148438 Z M 161.078125 223.148438 " fill-opacity="1" fill-rule="nonzero"/><g clip-path="url(#7ce2ca13cc)"><path fill="#f6f6f6" d="M 196.570312 244.671875 C 196.59375 245.746094 196.628906 246.839844 196.679688 247.925781 C 196.90625 252.644531 197.4375 257.148438 198.59375 258.75 C 201.371094 262.597656 218.046875 263.996094 220.40625 260.5 C 222.769531 257 214.988281 253.621094 214.988281 253.621094 C 215.582031 252.261719 215.722656 249.882812 215.613281 247.160156 C 215.570312 246.117188 215.488281 245.019531 215.382812 243.914062 C 214.789062 237.753906 213.378906 231.199219 213.042969 230.773438 L 196.648438 234.269531 C 196.648438 234.269531 196.449219 239.191406 196.570312 244.671875 Z M 196.570312 244.671875 " fill-opacity="1" fill-rule="nonzero"/></g><path fill="#54a3e6" d="M 196.570312 244.671875 C 196.59375 245.746094 196.628906 246.839844 196.679688 247.925781 C 198.433594 248.308594 200.226562 248.554688 202.027344 248.691406 C 204.144531 248.851562 206.285156 248.820312 208.394531 248.601562 C 210.660156 248.367188 212.890625 247.972656 215.046875 247.332031 C 215.234375 247.277344 215.425781 247.21875 215.613281 247.160156 C 215.570312 246.117188 215.492188 245.019531 215.382812 243.914062 C 215.382812 243.914062 215.382812 243.914062 215.378906 243.914062 C 215.378906 243.914062 215.375 243.914062 215.375 243.917969 C 213.15625 244.679688 210.824219 245.203125 208.453125 245.488281 C 207.957031 245.542969 207.464844 245.582031 206.96875 245.613281 C 204.964844 245.742188 202.949219 245.699219 200.957031 245.488281 C 199.472656 245.308594 198.003906 245.039062 196.570312 244.671875 Z M 196.570312 244.671875 " fill-opacity="1" fill-rule="nonzero"/><g clip-path="url(#b4a2cfed7f)"><path fill="#f6f6f6" d="M 186.082031 244.671875 C 186.058594 245.746094 186.019531 246.839844 185.96875 247.925781 C 185.742188 252.644531 185.210938 257.148438 184.054688 258.75 C 181.277344 262.597656 164.605469 263.996094 162.242188 260.5 C 159.882812 257 167.660156 253.621094 167.660156 253.621094 C 167.070312 252.261719 166.925781 249.882812 167.039062 247.160156 C 167.082031 246.117188 167.160156 245.019531 167.265625 243.914062 C 167.859375 237.753906 169.269531 231.199219 169.605469 230.773438 L 186 234.269531 C 186 234.269531 186.199219 239.191406 186.082031 244.671875 Z M 186.082031 244.671875 " fill-opacity="1" fill-rule="nonzero"/></g><path fill="#54a3e6" d="M 186.082031 244.671875 C 186.058594 245.746094 186.019531 246.839844 185.96875 247.925781 C 184.21875 248.308594 182.425781 248.554688 180.621094 248.691406 C 178.503906 248.851562 176.367188 248.820312 174.257812 248.601562 C 171.988281 248.367188 169.761719 247.972656 167.605469 247.332031 C 167.414062 247.277344 167.226562 247.21875 167.039062 247.160156 C 167.078125 246.117188 167.160156 245.019531 167.265625 243.914062 C 167.265625 243.914062 167.269531 243.914062 167.269531 243.914062 C 167.269531 243.914062 167.273438 243.914062 167.273438 243.917969 C 169.496094 244.679688 171.824219 245.203125 174.199219 245.488281 C 174.691406 245.542969 175.183594 245.582031 175.679688 245.613281 C 177.683594 245.742188 179.699219 245.699219 181.691406 245.488281 C 183.179688 245.308594 184.644531 245.039062 186.082031 244.671875 Z M 186.082031 244.671875 " fill-opacity="1" fill-rule="nonzero"/><path fill="#54a3e6" d="M 193.808594 246.304688 C 193.957031 246.367188 194.101562 246.429688 194.25 246.492188 C 194.183594 246.464844 194.121094 246.4375 194.054688 246.40625 C 193.972656 246.375 193.890625 246.339844 193.808594 246.304688 Z M 193.808594 246.304688 " fill-opacity="1" fill-rule="nonzero"/><path fill="#54a3e6" d="M 160.25 211.792969 C 160.691406 211.914062 161.136719 212.03125 161.582031 212.140625 C 164.835938 212.941406 168.175781 213.324219 171.511719 213.574219 C 174.828125 213.820312 178.152344 214.023438 181.472656 214.210938 C 184.808594 214.402344 188.148438 214.550781 191.488281 214.609375 C 194.835938 214.664062 198.1875 214.625 201.535156 214.4375 C 204.773438 214.257812 208 213.925781 211.203125 213.433594 C 213.929688 213.015625 216.632812 212.460938 219.296875 211.75 C 219.617188 211.664062 219.941406 211.574219 220.261719 211.484375 C 220.578125 211.394531 220.898438 211.300781 221.214844 211.207031 C 221.207031 209.917969 221.152344 208.644531 221.0625 207.390625 C 219.25 207.960938 217.410156 208.449219 215.558594 208.863281 C 213.339844 209.363281 211.097656 209.761719 208.84375 210.070312 C 208.605469 210.101562 208.367188 210.132812 208.128906 210.160156 C 205.519531 210.484375 202.898438 210.691406 200.269531 210.808594 C 197.476562 210.933594 194.679688 210.960938 191.882812 210.917969 C 189.085938 210.878906 186.289062 210.769531 183.492188 210.625 C 180.695312 210.484375 177.902344 210.304688 175.109375 210.121094 C 172.453125 209.949219 169.789062 209.789062 167.148438 209.449219 C 166.207031 209.320312 165.269531 209.164062 164.339844 208.976562 C 163.089844 208.726562 161.855469 208.417969 160.636719 208.058594 C 160.464844 209.28125 160.332031 210.53125 160.25 211.792969 Z M 160.25 211.792969 " fill-opacity="1" fill-rule="nonzero"/><path fill="#f6f6f6" d="M 228.042969 140.691406 C 227.863281 140.703125 227.859375 121.230469 227.859375 121.230469 L 232.429688 120.871094 C 232.429688 120.871094 235.171875 144.691406 234.726562 144.765625 C 234.28125 144.84375 228.042969 140.691406 228.042969 140.691406 Z M 228.042969 140.691406 " fill-opacity="1" fill-rule="nonzero"/><path fill="#f6f6f6" d="M 233.871094 117.75 C 233.871094 118.019531 233.84375 118.289062 233.792969 118.550781 C 233.738281 118.816406 233.660156 119.074219 233.558594 119.320312 C 233.453125 119.570312 233.328125 119.808594 233.179688 120.03125 C 233.027344 120.253906 232.859375 120.460938 232.667969 120.652344 C 232.476562 120.84375 232.269531 121.015625 232.042969 121.164062 C 231.820312 121.3125 231.582031 121.441406 231.332031 121.542969 C 231.082031 121.644531 230.824219 121.722656 230.558594 121.777344 C 230.296875 121.828125 230.027344 121.855469 229.757812 121.855469 C 229.488281 121.855469 229.21875 121.828125 228.957031 121.777344 C 228.691406 121.722656 228.433594 121.644531 228.183594 121.542969 C 227.933594 121.441406 227.699219 121.3125 227.472656 121.164062 C 227.25 121.015625 227.039062 120.84375 226.847656 120.652344 C 226.660156 120.460938 226.488281 120.253906 226.339844 120.03125 C 226.1875 119.808594 226.0625 119.570312 225.957031 119.320312 C 225.855469 119.074219 225.777344 118.816406 225.722656 118.550781 C 225.671875 118.289062 225.644531 118.019531 225.644531 117.75 C 225.644531 117.480469 225.671875 117.214844 225.722656 116.949219 C 225.777344 116.6875 225.855469 116.429688 225.957031 116.179688 C 226.0625 115.929688 226.1875 115.695312 226.339844 115.46875 C 226.488281 115.246094 226.660156 115.039062 226.847656 114.847656 C 227.039062 114.65625 227.25 114.488281 227.472656 114.339844 C 227.699219 114.1875 227.933594 114.0625 228.183594 113.957031 C 228.433594 113.855469 228.691406 113.777344 228.957031 113.726562 C 229.21875 113.671875 229.488281 113.644531 229.757812 113.644531 C 230.027344 113.644531 230.296875 113.671875 230.558594 113.726562 C 230.824219 113.777344 231.082031 113.855469 231.332031 113.957031 C 231.582031 114.0625 231.820312 114.1875 232.042969 114.339844 C 232.269531 114.488281 232.476562 114.65625 232.667969 114.847656 C 232.859375 115.039062 233.027344 115.246094 233.179688 115.46875 C 233.328125 115.695312 233.453125 115.929688 233.558594 116.179688 C 233.660156 116.429688 233.738281 116.6875 233.792969 116.949219 C 233.84375 117.214844 233.871094 117.480469 233.871094 117.75 Z M 233.871094 117.75 " fill-opacity="1" fill-rule="nonzero"/><path fill="#54a3e6" d="M 232.40625 168.375 L 230.503906 168.601562 C 226.066406 169.136719 222.039062 165.976562 221.507812 161.550781 L 219.707031 146.585938 C 219.171875 142.15625 222.335938 138.136719 226.773438 137.605469 L 228.675781 137.378906 C 233.113281 136.84375 237.140625 140.003906 237.671875 144.429688 L 239.472656 159.394531 C 240.007812 163.824219 236.84375 167.84375 232.40625 168.375 Z M 232.40625 168.375 " fill-opacity="1" fill-rule="nonzero"/><path fill="#f6f6f6" d="M 138.800781 150.695312 C 138.976562 150.660156 133.761719 131.898438 133.761719 131.898438 L 129.257812 132.769531 C 129.257812 132.769531 133.003906 156.453125 133.453125 156.40625 C 133.902344 156.363281 138.800781 150.695312 138.800781 150.695312 Z M 138.800781 150.695312 " fill-opacity="1" fill-rule="nonzero"/><g clip-path="url(#1589c89f50)"><path fill="#f6f6f6" d="M 135.113281 129.050781 C 135.113281 129.320312 135.085938 129.585938 135.03125 129.851562 C 134.980469 130.113281 134.902344 130.371094 134.796875 130.621094 C 134.695312 130.871094 134.570312 131.105469 134.417969 131.328125 C 134.269531 131.554688 134.097656 131.761719 133.90625 131.953125 C 133.714844 132.140625 133.507812 132.3125 133.285156 132.460938 C 133.058594 132.613281 132.820312 132.738281 132.574219 132.839844 C 132.324219 132.945312 132.066406 133.023438 131.800781 133.074219 C 131.535156 133.128906 131.269531 133.152344 131 133.152344 C 130.730469 133.152344 130.460938 133.128906 130.195312 133.074219 C 129.929688 133.023438 129.675781 132.945312 129.425781 132.839844 C 129.175781 132.738281 128.9375 132.613281 128.714844 132.460938 C 128.488281 132.3125 128.28125 132.140625 128.089844 131.953125 C 127.898438 131.761719 127.730469 131.554688 127.578125 131.328125 C 127.429688 131.105469 127.300781 130.871094 127.199219 130.621094 C 127.09375 130.371094 127.015625 130.113281 126.964844 129.851562 C 126.910156 129.585938 126.886719 129.320312 126.886719 129.050781 C 126.886719 128.78125 126.910156 128.511719 126.964844 128.25 C 127.015625 127.984375 127.09375 127.726562 127.199219 127.480469 C 127.300781 127.230469 127.429688 126.992188 127.578125 126.769531 C 127.730469 126.546875 127.898438 126.335938 128.089844 126.148438 C 128.28125 125.957031 128.488281 125.785156 128.714844 125.636719 C 128.9375 125.488281 129.175781 125.359375 129.425781 125.257812 C 129.675781 125.15625 129.929688 125.078125 130.195312 125.023438 C 130.460938 124.972656 130.730469 124.945312 131 124.945312 C 131.269531 124.945312 131.535156 124.972656 131.800781 125.023438 C 132.066406 125.078125 132.324219 125.15625 132.574219 125.257812 C 132.820312 125.359375 133.058594 125.488281 133.285156 125.636719 C 133.507812 125.785156 133.714844 125.957031 133.90625 126.148438 C 134.097656 126.335938 134.269531 126.546875 134.417969 126.769531 C 134.570312 126.992188 134.695312 127.230469 134.796875 127.480469 C 134.902344 127.726562 134.980469 127.984375 135.03125 128.25 C 135.085938 128.511719 135.113281 128.78125 135.113281 129.050781 Z M 135.113281 129.050781 " fill-opacity="1" fill-rule="nonzero"/></g><path fill="#54a3e6" d="M 142.023438 178.535156 L 143.914062 178.246094 C 148.332031 177.574219 151.367188 173.457031 150.695312 169.046875 L 148.414062 154.148438 C 147.742188 149.738281 143.613281 146.710938 139.195312 147.382812 L 137.304688 147.671875 C 132.886719 148.34375 129.851562 152.464844 130.523438 156.871094 L 132.804688 171.769531 C 133.476562 176.179688 137.605469 179.207031 142.023438 178.535156 Z M 142.023438 178.535156 " fill-opacity="1" fill-rule="nonzero"/><g clip-path="url(#9edd0c6008)"><path fill="#f6f6f6" d="M 231.601562 153.890625 C 234.699219 177.414062 216.289062 195.085938 190.839844 198.425781 C 165.386719 201.761719 142.527344 189.5 139.429688 165.976562 C 136.332031 142.449219 143.851562 118.300781 179.621094 113.234375 C 215.59375 108.144531 228.503906 130.363281 231.601562 153.886719 Z M 231.601562 153.890625 " fill-opacity="1" fill-rule="nonzero"/></g><path fill="#160e0b" d="M 166.152344 134.117188 C 166.152344 134.117188 150.730469 136.988281 149.167969 150.765625 C 147.695312 163.75 149.28125 185.171875 174.878906 188.671875 C 200.480469 192.171875 219.367188 180.429688 222.40625 163.667969 C 225.445312 146.910156 218.476562 133.125 208.707031 130.925781 C 195.28125 127.902344 166.152344 134.117188 166.152344 134.117188 Z M 166.152344 134.117188 " fill-opacity="1" fill-rule="nonzero"/><path fill="#54a3e6" d="M 174.628906 167.40625 C 174.996094 167.289062 178.171875 169.332031 186.460938 168.570312 C 194.421875 167.835938 196.972656 164.65625 197.867188 165.375 C 199.121094 166.386719 195.347656 176.792969 186.382812 176.992188 C 177.417969 177.195312 172.210938 168.175781 174.628906 167.40625 Z M 174.628906 167.40625 " fill-opacity="1" fill-rule="nonzero"/><path fill="#54a3e6" d="M 209.976562 152.539062 C 210.011719 153.054688 210.011719 153.570312 209.976562 154.082031 C 209.9375 154.59375 209.867188 155.09375 209.757812 155.582031 C 209.648438 156.070312 209.507812 156.535156 209.332031 156.980469 C 209.160156 157.421875 208.953125 157.835938 208.71875 158.222656 C 208.480469 158.605469 208.222656 158.949219 207.933594 159.257812 C 207.648438 159.566406 207.339844 159.832031 207.011719 160.054688 C 206.6875 160.277344 206.34375 160.449219 205.992188 160.578125 C 205.636719 160.703125 205.273438 160.777344 204.90625 160.804688 C 204.535156 160.828125 204.167969 160.804688 203.796875 160.726562 C 203.429688 160.652344 203.066406 160.527344 202.710938 160.351562 C 202.355469 160.179688 202.015625 159.960938 201.6875 159.691406 C 201.363281 159.425781 201.054688 159.121094 200.769531 158.773438 C 200.484375 158.425781 200.222656 158.042969 199.988281 157.628906 C 199.753906 157.210938 199.546875 156.769531 199.371094 156.300781 C 199.199219 155.835938 199.058594 155.347656 198.949219 154.847656 C 198.84375 154.34375 198.769531 153.835938 198.734375 153.316406 C 198.699219 152.800781 198.699219 152.285156 198.734375 151.773438 C 198.773438 151.261719 198.84375 150.761719 198.953125 150.273438 C 199.058594 149.785156 199.203125 149.320312 199.375 148.875 C 199.550781 148.433594 199.757812 148.019531 199.992188 147.632812 C 200.226562 147.25 200.488281 146.90625 200.777344 146.597656 C 201.0625 146.289062 201.371094 146.023438 201.695312 145.800781 C 202.023438 145.578125 202.367188 145.40625 202.71875 145.28125 C 203.074219 145.152344 203.4375 145.078125 203.804688 145.050781 C 204.175781 145.027344 204.542969 145.050781 204.914062 145.128906 C 205.28125 145.203125 205.644531 145.328125 206 145.503906 C 206.351562 145.675781 206.695312 145.894531 207.019531 146.164062 C 207.347656 146.429688 207.65625 146.734375 207.941406 147.082031 C 208.226562 147.429688 208.488281 147.8125 208.722656 148.226562 C 208.957031 148.644531 209.164062 149.085938 209.335938 149.554688 C 209.511719 150.019531 209.652344 150.507812 209.761719 151.007812 C 209.867188 151.511719 209.941406 152.019531 209.976562 152.539062 Z M 209.976562 152.539062 " fill-opacity="1" fill-rule="nonzero"/><path fill="#54a3e6" d="M 172.765625 156.558594 C 172.800781 157.078125 172.800781 157.589844 172.765625 158.105469 C 172.726562 158.617188 172.65625 159.117188 172.546875 159.605469 C 172.441406 160.089844 172.296875 160.558594 172.121094 161 C 171.949219 161.445312 171.742188 161.859375 171.507812 162.242188 C 171.273438 162.628906 171.011719 162.972656 170.722656 163.28125 C 170.4375 163.589844 170.128906 163.855469 169.804688 164.078125 C 169.476562 164.296875 169.132812 164.472656 168.78125 164.597656 C 168.425781 164.722656 168.0625 164.800781 167.695312 164.824219 C 167.324219 164.851562 166.957031 164.828125 166.585938 164.75 C 166.21875 164.675781 165.855469 164.550781 165.5 164.375 C 165.144531 164.203125 164.804688 163.980469 164.480469 163.714844 C 164.152344 163.449219 163.84375 163.144531 163.558594 162.796875 C 163.273438 162.449219 163.011719 162.066406 162.777344 161.648438 C 162.542969 161.234375 162.335938 160.792969 162.164062 160.324219 C 161.988281 159.855469 161.847656 159.371094 161.738281 158.871094 C 161.632812 158.367188 161.558594 157.859375 161.523438 157.339844 C 161.488281 156.824219 161.488281 156.308594 161.523438 155.796875 C 161.5625 155.285156 161.632812 154.785156 161.742188 154.296875 C 161.851562 153.808594 161.992188 153.34375 162.167969 152.898438 C 162.339844 152.453125 162.546875 152.039062 162.78125 151.65625 C 163.015625 151.273438 163.277344 150.925781 163.566406 150.617188 C 163.851562 150.308594 164.160156 150.042969 164.488281 149.824219 C 164.8125 149.601562 165.15625 149.425781 165.507812 149.300781 C 165.863281 149.175781 166.226562 149.101562 166.59375 149.074219 C 166.964844 149.046875 167.332031 149.074219 167.703125 149.148438 C 168.070312 149.226562 168.433594 149.351562 168.789062 149.523438 C 169.144531 149.699219 169.484375 149.917969 169.8125 150.183594 C 170.136719 150.449219 170.445312 150.757812 170.730469 151.105469 C 171.015625 151.453125 171.277344 151.835938 171.511719 152.25 C 171.746094 152.664062 171.953125 153.109375 172.128906 153.574219 C 172.300781 154.042969 172.441406 154.527344 172.550781 155.03125 C 172.65625 155.53125 172.730469 156.042969 172.765625 156.558594 Z M 172.765625 156.558594 " fill-opacity="1" fill-rule="nonzero"/><path fill="#54a3e6" d="M 164.328125 164.429688 Z M 164.332031 164.425781 Z M 160.910156 153.773438 C 160.910156 153.773438 160.914062 153.773438 160.914062 153.773438 C 160.914062 153.773438 160.910156 153.773438 160.910156 153.773438 Z M 160.910156 153.773438 Z M 160.910156 153.773438 " fill-opacity="1" fill-rule="nonzero"/><g clip-path="url(#b978167232)"><path fill="#f6f6f6" d="M 230.457031 176.410156 C 230.457031 176.410156 230.648438 173.789062 230.648438 173.402344 C 230.648438 173.011719 225.980469 170.296875 227.050781 167.285156 C 228.121094 164.277344 231.363281 165.378906 231.363281 165.378906 C 231.363281 165.378906 228.21875 152.535156 229.96875 149.039062 C 231.71875 145.546875 234.636719 145.449219 236.292969 147 C 237.945312 148.554688 238.140625 158.648438 238.140625 158.648438 C 238.140625 158.648438 241.738281 156.609375 245.53125 159.714844 C 249.324219 162.820312 248.644531 177.089844 247.28125 179.226562 C 245.921875 181.359375 231.136719 179.324219 230.457031 176.410156 Z M 230.457031 176.410156 " fill-opacity="1" fill-rule="nonzero"/></g><path fill="#160e0b" d="M 230.457031 176.695312 C 230.449219 176.695312 230.441406 176.695312 230.433594 176.691406 C 230.277344 176.679688 230.160156 176.546875 230.171875 176.390625 C 230.234375 175.539062 230.351562 173.894531 230.367188 173.464844 C 230.28125 173.367188 230.03125 173.15625 229.804688 172.964844 C 228.539062 171.894531 225.90625 169.664062 226.785156 167.191406 C 227.386719 165.5 228.636719 165.023438 229.578125 164.921875 C 230.128906 164.863281 230.632812 164.925781 230.980469 164.992188 C 230.746094 163.976562 230.167969 161.386719 229.730469 158.5625 C 228.96875 153.664062 228.960938 150.417969 229.714844 148.914062 C 230.589844 147.167969 231.859375 146.070312 233.289062 145.816406 C 234.4375 145.609375 235.605469 145.96875 236.484375 146.796875 C 237.234375 147.5 237.765625 149.652344 238.117188 153.382812 C 238.371094 156.078125 238.421875 158.617188 238.421875 158.644531 C 238.425781 158.800781 238.300781 158.929688 238.144531 158.933594 C 237.988281 158.933594 237.859375 158.8125 237.855469 158.65625 C 237.855469 158.628906 237.804688 156.109375 237.550781 153.433594 C 237.117188 148.796875 236.453125 147.542969 236.097656 147.207031 C 235.347656 146.503906 234.359375 146.199219 233.386719 146.371094 C 232.140625 146.59375 231.015625 147.585938 230.222656 149.167969 C 229.53125 150.542969 229.554688 153.761719 230.289062 158.476562 C 230.847656 162.070312 231.628906 165.28125 231.636719 165.3125 C 231.664062 165.414062 231.628906 165.519531 231.554688 165.589844 C 231.476562 165.65625 231.371094 165.679688 231.269531 165.648438 C 231.265625 165.644531 230.492188 165.390625 229.621094 165.488281 C 228.496094 165.613281 227.71875 166.253906 227.316406 167.382812 C 226.996094 168.289062 227.210938 169.25 227.976562 170.316406 C 228.636719 171.238281 229.5625 172.019531 230.171875 172.535156 C 230.742188 173.015625 230.933594 173.179688 230.933594 173.402344 C 230.933594 173.796875 230.746094 176.324219 230.738281 176.433594 C 230.726562 176.582031 230.601562 176.695312 230.453125 176.695312 Z M 230.457031 176.695312 " fill-opacity="1" fill-rule="nonzero"/><path fill="#000000" d="M 231.945312 165.894531 C 233.902344 166.925781 236.027344 168.042969 237.136719 170.050781 C 237.402344 170.535156 237.597656 171.074219 237.582031 171.628906 C 237.570312 172.171875 237.308594 172.648438 236.976562 173.0625 C 236.636719 173.484375 236.253906 173.894531 235.777344 174.160156 C 235.316406 174.421875 234.777344 174.539062 234.25 174.546875 C 233.152344 174.5625 232.082031 174.09375 231.351562 173.277344 C 231.136719 173.039062 230.78125 173.390625 230.996094 173.632812 C 231.722656 174.445312 232.761719 174.9375 233.84375 175.03125 C 234.394531 175.082031 234.964844 175.019531 235.488281 174.835938 C 236.070312 174.632812 236.554688 174.269531 236.976562 173.820312 C 237.382812 173.386719 237.769531 172.90625 237.960938 172.335938 C 238.160156 171.757812 238.101562 171.121094 237.902344 170.550781 C 237.523438 169.445312 236.726562 168.503906 235.851562 167.753906 C 234.753906 166.816406 233.472656 166.132812 232.199219 165.464844 C 231.914062 165.316406 231.660156 165.746094 231.945312 165.894531 Z M 231.945312 165.894531 " fill-opacity="1" fill-rule="nonzero"/><path fill="#000000" d="M 237.710938 158.683594 C 236.796875 159.589844 236.019531 160.636719 235.421875 161.777344 C 234.835938 162.898438 234.371094 164.136719 234.179688 165.386719 C 234.085938 166.003906 234.089844 166.726562 234.601562 167.167969 C 234.84375 167.378906 235.199219 167.027344 234.957031 166.816406 C 234.574219 166.488281 234.59375 165.929688 234.667969 165.472656 C 234.765625 164.890625 234.925781 164.3125 235.113281 163.753906 C 235.5 162.617188 236.058594 161.539062 236.757812 160.566406 C 237.148438 160.019531 237.589844 159.507812 238.066406 159.035156 C 238.292969 158.808594 237.941406 158.457031 237.710938 158.683594 Z M 237.710938 158.683594 " fill-opacity="1" fill-rule="nonzero"/><path fill="#000000" d="M 238.097656 169.84375 C 239.050781 170.183594 240.144531 170.210938 241.074219 169.773438 C 242.015625 169.335938 242.550781 168.417969 242.8125 167.449219 C 242.964844 166.886719 243.039062 166.308594 243.105469 165.734375 C 243.117188 165.628906 243.019531 165.519531 242.921875 165.492188 C 242.742188 165.445312 242.554688 165.539062 242.515625 165.726562 C 242.449219 166.042969 242.929688 166.175781 242.996094 165.863281 L 242.886719 165.964844 L 242.753906 165.964844 L 242.789062 165.972656 C 242.726562 165.894531 242.664062 165.8125 242.605469 165.734375 C 242.5 166.617188 242.378906 167.554688 241.921875 168.332031 C 241.457031 169.117188 240.652344 169.550781 239.75 169.597656 C 239.230469 169.621094 238.71875 169.535156 238.230469 169.363281 C 237.925781 169.253906 237.796875 169.738281 238.097656 169.84375 Z M 238.097656 169.84375 " fill-opacity="1" fill-rule="nonzero"/><path fill="#54a3e6" d="M 236.585938 196.34375 C 235.882812 196.949219 235.148438 197.535156 234.378906 198.09375 C 231.546875 196.207031 228.996094 193.886719 226.886719 191.214844 C 225.777344 189.8125 224.765625 188.339844 223.894531 186.773438 C 223.792969 186.585938 223.691406 186.398438 223.589844 186.210938 C 224.351562 185.566406 225.035156 184.945312 225.648438 184.355469 C 225.9375 184.933594 226.242188 185.507812 226.574219 186.070312 C 227.214844 187.160156 227.921875 188.214844 228.691406 189.21875 C 229.027344 189.644531 229.371094 190.0625 229.726562 190.472656 C 231.054688 192 232.53125 193.398438 234.128906 194.648438 C 234.128906 194.648438 234.132812 194.648438 234.136719 194.652344 C 234.558594 194.976562 234.988281 195.285156 235.429688 195.585938 C 235.808594 195.847656 236.195312 196.101562 236.589844 196.34375 Z M 236.585938 196.34375 " fill-opacity="1" fill-rule="nonzero"/><path fill="#54a3e6" d="M 184.742188 205.605469 L 193.710938 205.605469 C 193.9375 205.605469 194.152344 205.648438 194.359375 205.734375 C 194.566406 205.820312 194.75 205.941406 194.90625 206.097656 C 195.066406 206.257812 195.1875 206.4375 195.273438 206.644531 C 195.359375 206.851562 195.402344 207.066406 195.402344 207.289062 C 195.402344 207.515625 195.359375 207.730469 195.273438 207.9375 C 195.1875 208.140625 195.066406 208.324219 194.90625 208.484375 C 194.75 208.640625 194.566406 208.761719 194.359375 208.847656 C 194.152344 208.933594 193.9375 208.976562 193.710938 208.976562 L 184.742188 208.976562 C 184.519531 208.976562 184.304688 208.933594 184.097656 208.847656 C 183.890625 208.761719 183.707031 208.640625 183.550781 208.484375 C 183.390625 208.324219 183.269531 208.140625 183.183594 207.9375 C 183.097656 207.730469 183.054688 207.515625 183.054688 207.289062 C 183.054688 207.066406 183.097656 206.851562 183.183594 206.644531 C 183.269531 206.4375 183.390625 206.257812 183.550781 206.097656 C 183.707031 205.941406 183.890625 205.820312 184.097656 205.734375 C 184.304688 205.648438 184.519531 205.605469 184.742188 205.605469 Z M 184.742188 205.605469 " fill-opacity="1" fill-rule="nonzero"/><g clip-path="url(#3e107c9615)"><path fill="#1f2b5b" d="M 204.789062 197.261719 L 204.789062 194.039062 L 207.039062 194.039062 C 207.039062 194.039062 207.070312 195.546875 206.492188 196.15625 C 205.917969 196.761719 204.789062 197.261719 204.789062 197.261719 Z M 204.789062 197.261719 " fill-opacity="1" fill-rule="nonzero"/></g><g clip-path="url(#324843a675)"><g clip-path="url(#1ea3079985)"><path fill="url(#8ce722241d)" d="M 201.039062 194.160156 L 201.039062 200.027344 L 207.042969 200.027344 L 207.042969 194.160156 Z M 201.039062 194.160156 " fill-rule="nonzero"/></g></g><g clip-path="url(#21c80a1e15)"><path fill="#1f2b5b" d="M 207.039062 199.800781 L 207.039062 203.023438 L 204.789062 203.023438 C 204.789062 203.023438 204.757812 201.511719 205.332031 200.90625 C 205.910156 200.300781 207.039062 199.800781 207.039062 199.800781 Z M 207.039062 199.800781 " fill-opacity="1" fill-rule="nonzero"/></g><g clip-path="url(#df598a7422)"><g clip-path="url(#6ccd6f6e20)"><path fill="url(#3bba0fa93b)" d="M 210.789062 202.898438 L 210.789062 197.035156 L 204.785156 197.035156 L 204.785156 202.898438 Z M 210.789062 202.898438 " fill-rule="nonzero"/></g></g><g clip-path="url(#490fcc3966)"><g clip-path="url(#fa814b1ce2)"><g clip-path="url(#71e228a3d2)"><path fill="#002d75" d="M 198.859375 105.3125 C 198.894531 105.648438 198.910156 105.984375 198.90625 106.316406 C 198.003906 105.796875 197.054688 105.371094 196.066406 105.050781 C 191.117188 103.4375 186.042969 102.882812 180.992188 103.40625 C 175.9375 103.929688 171.085938 105.507812 166.574219 108.097656 C 165.671875 108.617188 164.828125 109.226562 164.054688 109.917969 C 163.980469 109.597656 163.925781 109.265625 163.890625 108.929688 C 163.410156 104.296875 166.789062 100.140625 171.421875 99.664062 L 189.59375 97.785156 C 194.226562 97.304688 198.382812 100.683594 198.859375 105.3125 Z M 198.859375 105.3125 " fill-opacity="1" fill-rule="nonzero"/></g></g></g><g clip-path="url(#465b63d5d4)"><g clip-path="url(#11d16679b6)"><g clip-path="url(#51af3eb67a)"><path fill="#002d75" d="M 198.765625 107.707031 C 197.84375 107.125 196.808594 106.628906 195.671875 106.257812 C 190.894531 104.699219 185.996094 104.167969 181.125 104.671875 C 176.25 105.175781 171.566406 106.699219 167.207031 109.199219 C 166.167969 109.796875 165.257812 110.492188 164.472656 111.25 C 164.304688 111.410156 164.140625 111.574219 163.984375 111.738281 C 165.535156 115.242188 169.210938 117.507812 173.222656 117.09375 L 180.46875 116.34375 L 180.371094 115.390625 L 178.074219 115.628906 C 177.140625 115.722656 176.300781 114.976562 176.195312 113.960938 C 176.089844 112.945312 176.761719 112.042969 177.695312 111.949219 L 179.992188 111.710938 L 179.753906 109.414062 C 179.65625 108.480469 180.402344 107.636719 181.417969 107.535156 C 182.433594 107.429688 183.335938 108.101562 183.433594 109.035156 L 183.671875 111.332031 L 185.96875 111.09375 C 186.898438 110.996094 187.742188 111.742188 187.84375 112.757812 C 187.949219 113.773438 187.28125 114.675781 186.347656 114.773438 L 184.050781 115.007812 L 184.148438 115.964844 L 191.398438 115.214844 C 195.410156 114.800781 198.542969 111.828125 199.34375 108.082031 C 199.15625 107.953125 198.964844 107.824219 198.765625 107.707031 Z M 198.765625 107.707031 " fill-opacity="1" fill-rule="nonzero"/></g></g></g><g clip-path="url(#122f013b5d)"><g clip-path="url(#6b84f68897)"><g clip-path="url(#057135e364)"><path fill="#ffffff" d="M 199.34375 108.082031 C 199.15625 107.953125 198.964844 107.824219 198.765625 107.707031 C 198.109375 111.296875 195.144531 114.1875 191.332031 114.582031 L 184.082031 115.332031 L 184.214844 116.597656 L 191.460938 115.847656 C 195.648438 115.414062 198.949219 112.367188 199.898438 108.492188 C 199.71875 108.351562 199.535156 108.214844 199.34375 108.082031 Z M 173.15625 116.460938 C 169.34375 116.855469 165.851562 114.632812 164.472656 111.25 C 164.304688 111.410156 164.140625 111.574219 163.984375 111.738281 C 163.824219 111.910156 163.671875 112.078125 163.523438 112.253906 C 165.246094 115.847656 169.097656 118.160156 173.289062 117.726562 L 180.535156 116.976562 L 180.40625 115.710938 Z M 173.15625 116.460938 " fill-opacity="1" fill-rule="nonzero"/></g></g></g><g clip-path="url(#d56e9d77a9)"><g clip-path="url(#f783d42e5f)"><g clip-path="url(#6a26f17e3e)"><path fill="#002d75" d="M 204.503906 114.683594 C 203.78125 112.667969 202.257812 110.3125 199.898438 108.492188 C 199.71875 108.351562 199.535156 108.214844 199.34375 108.082031 C 199.15625 107.953125 198.964844 107.824219 198.765625 107.707031 C 197.84375 107.125 196.808594 106.628906 195.671875 106.257812 C 190.894531 104.699219 185.996094 104.167969 181.125 104.671875 C 176.25 105.175781 171.566406 106.699219 167.207031 109.199219 C 166.167969 109.796875 165.257812 110.492188 164.472656 111.25 C 164.304688 111.410156 164.140625 111.574219 163.984375 111.738281 C 163.824219 111.910156 163.671875 112.078125 163.523438 112.253906 C 161.589844 114.515625 160.582031 117.132812 160.285156 119.253906 C 159.925781 121.804688 160.445312 124.019531 161.71875 125.328125 C 162.433594 126.089844 163.21875 126.632812 164.019531 127.011719 C 164.222656 127.023438 164.714844 127.042969 165.382812 127.019531 C 165.761719 127.007812 166.195312 126.980469 166.671875 126.929688 C 169.070312 126.683594 172.453125 125.863281 174.417969 123.324219 C 174.601562 123.085938 174.769531 122.835938 174.925781 122.570312 C 175.105469 122.269531 175.492188 122.164062 175.796875 122.34375 C 176.101562 122.519531 176.203125 122.910156 176.023438 123.210938 C 174.605469 125.640625 172.261719 126.921875 170.003906 127.59375 C 171.371094 127.328125 172.757812 126.824219 174.0625 126.117188 C 176.863281 124.511719 179.886719 123.527344 183.039062 123.199219 C 186.1875 122.875 189.351562 123.21875 192.4375 124.226562 C 194.222656 124.757812 196.078125 124.949219 197.792969 124.773438 C 199.832031 124.5625 202.621094 123.722656 204.339844 120.925781 C 205.320312 119.382812 205.375 117.109375 204.503906 114.683594 Z M 178.167969 120.660156 C 177.652344 121.300781 176.710938 121.394531 176.074219 120.878906 C 175.433594 120.355469 175.335938 119.417969 175.855469 118.78125 C 176.375 118.144531 177.3125 118.046875 177.953125 118.566406 C 178.589844 119.082031 178.6875 120.023438 178.167969 120.660156 Z M 184.289062 117.304688 C 184.382812 118.238281 183.636719 119.082031 182.621094 119.183594 C 181.609375 119.289062 180.707031 118.621094 180.609375 117.6875 L 180.371094 115.390625 L 178.074219 115.628906 C 177.140625 115.722656 176.300781 114.976562 176.195312 113.960938 C 176.089844 112.945312 176.761719 112.046875 177.695312 111.949219 L 179.992188 111.710938 L 179.753906 109.414062 C 179.65625 108.480469 180.402344 107.640625 181.417969 107.535156 C 182.433594 107.429688 183.335938 108.101562 183.433594 109.035156 L 183.671875 111.332031 L 185.96875 111.09375 C 186.898438 110.996094 187.742188 111.742188 187.84375 112.757812 C 187.949219 113.773438 187.28125 114.675781 186.347656 114.773438 L 184.050781 115.007812 Z M 184.289062 117.304688 " fill-opacity="1" fill-rule="nonzero"/><path fill="#002d75" d="M 204.503906 114.683594 C 203.78125 112.667969 202.257812 110.3125 199.898438 108.492188 C 199.71875 108.351562 199.535156 108.214844 199.34375 108.082031 C 199.15625 107.953125 198.964844 107.824219 198.765625 107.707031 C 197.84375 107.125 196.808594 106.628906 195.671875 106.257812 C 190.894531 104.699219 185.996094 104.167969 181.125 104.671875 C 176.25 105.175781 171.566406 106.699219 167.207031 109.199219 C 166.167969 109.796875 165.257812 110.492188 164.472656 111.25 C 164.304688 111.410156 164.140625 111.574219 163.984375 111.738281 C 163.824219 111.910156 163.671875 112.078125 163.523438 112.253906 C 161.589844 114.515625 160.582031 117.132812 160.285156 119.253906 C 159.925781 121.804688 160.445312 124.019531 161.71875 125.328125 C 162.433594 126.089844 163.21875 126.632812 164.019531 127.011719 C 164.222656 127.023438 164.714844 127.042969 165.382812 127.019531 C 165.761719 127.007812 166.195312 126.980469 166.671875 126.929688 C 169.070312 126.683594 172.453125 125.863281 174.417969 123.324219 C 174.601562 123.085938 174.769531 122.835938 174.925781 122.570312 C 175.105469 122.269531 175.492188 122.164062 175.796875 122.34375 C 176.101562 122.519531 176.203125 122.910156 176.023438 123.210938 C 174.605469 125.640625 172.261719 126.921875 170.003906 127.59375 C 171.371094 127.328125 172.757812 126.824219 174.0625 126.117188 C 176.863281 124.511719 179.886719 123.527344 183.039062 123.199219 C 186.1875 122.875 189.351562 123.21875 192.4375 124.226562 C 194.222656 124.757812 196.078125 124.949219 197.792969 124.773438 C 199.832031 124.5625 202.621094 123.722656 204.339844 120.925781 C 205.320312 119.382812 205.375 117.109375 204.503906 114.683594 Z M 178.167969 120.660156 C 177.652344 121.300781 176.710938 121.394531 176.074219 120.878906 C 175.433594 120.355469 175.335938 119.417969 175.855469 118.78125 C 176.375 118.144531 177.3125 118.046875 177.953125 118.566406 C 178.589844 119.082031 178.6875 120.023438 178.167969 120.660156 Z M 184.289062 117.304688 C 184.382812 118.238281 183.636719 119.082031 182.621094 119.183594 C 181.609375 119.289062 180.707031 118.621094 180.609375 117.6875 L 180.371094 115.390625 L 178.074219 115.628906 C 177.140625 115.722656 176.300781 114.976562 176.195312 113.960938 C 176.089844 112.945312 176.761719 112.046875 177.695312 111.949219 L 179.992188 111.710938 L 179.753906 109.414062 C 179.65625 108.480469 180.402344 107.640625 181.417969 107.535156 C 182.433594 107.429688 183.335938 108.101562 183.433594 109.035156 L 183.671875 111.332031 L 185.96875 111.09375 C 186.898438 110.996094 187.742188 111.742188 187.84375 112.757812 C 187.949219 113.773438 187.28125 114.675781 186.347656 114.773438 L 184.050781 115.007812 Z M 184.289062 117.304688 " fill-opacity="1" fill-rule="nonzero"/></g></g></g><g clip-path="url(#91cfc0cef8)"><g clip-path="url(#63d163ece1)"><g clip-path="url(#dde590150d)"><path fill="#002d75" d="M 174.417969 123.324219 C 172.453125 125.863281 169.070312 126.683594 166.671875 126.929688 C 166.195312 126.980469 165.761719 127.007812 165.382812 127.019531 Z M 174.417969 123.324219 " fill-opacity="1" fill-rule="nonzero"/></g></g></g><g clip-path="url(#bf21905fe6)"><g clip-path="url(#d5bed00ccb)"><g clip-path="url(#86d8762fef)"><g clip-path="url(#bf31d808f5)"><path fill="#b1b7bc" d="M 129.207031 204.175781 C 129.128906 204.082031 129.140625 203.945312 129.234375 203.867188 L 131.449219 202.054688 C 131.542969 201.980469 131.683594 201.992188 131.761719 202.085938 L 137.824219 209.445312 C 137.902344 209.542969 137.890625 209.679688 137.792969 209.757812 L 135.582031 211.566406 C 135.488281 211.644531 135.347656 211.628906 135.273438 211.535156 L 129.207031 204.175781 " fill-opacity="1" fill-rule="nonzero"/></g></g></g></g><g clip-path="url(#a5707c7422)"><g clip-path="url(#5c635e78ab)"><g clip-path="url(#3c0326c5eb)"><g clip-path="url(#9c84dc412d)"><path stroke-linecap="round" transform="matrix(0.0240714, 0.00523292, 0.00521475, -0.0239878, 83.912512, 262.718097)" fill="none" stroke-linejoin="round" d="M 1291.916057 2722.329638 C 1288.008509 2725.385442 1287.294371 2730.929156 1290.339563 2734.850319 L 1362.568571 2826.166107 C 1365.647449 2829.931776 1371.326869 2830.682206 1375.234417 2827.626403 L 1679.187771 2587.137381 C 1683.129005 2583.926084 1683.843143 2578.38237 1680.642996 2574.427403 L 1608.535257 2483.300913 C 1605.490064 2479.379749 1599.776959 2478.784814 1596.024365 2481.87442 Z M 1291.916057 2722.329638 " stroke="#24578f" stroke-width="30" stroke-opacity="1" stroke-miterlimit="10"/></g></g></g></g><g clip-path="url(#2e9de69a6e)"><g clip-path="url(#01813e2509)"><g clip-path="url(#31fd05d5e7)"><g clip-path="url(#1b46058440)"><path fill="#b1b7bc" d="M 132.871094 212.078125 C 132.792969 211.984375 132.808594 211.847656 132.898438 211.769531 L 138.519531 207.171875 C 138.609375 207.097656 138.75 207.109375 138.824219 207.203125 L 155.003906 226.835938 C 155.082031 226.933594 155.070312 227.070312 154.976562 227.148438 L 149.359375 231.742188 C 149.265625 231.820312 149.128906 231.804688 149.050781 231.710938 L 132.871094 212.078125 " fill-opacity="1" fill-rule="nonzero"/></g></g></g></g><g clip-path="url(#3f9ca6e991)"><g clip-path="url(#c03e4ea2c6)"><g clip-path="url(#415d5ab02a)"><g clip-path="url(#06c244938d)"><path stroke-linecap="round" transform="matrix(0.0240714, 0.00523292, 0.00521475, -0.0239878, 83.912512, 262.718097)" fill="none" stroke-linejoin="round" d="M 1505.40967 2439.471768 C 1501.502122 2442.527572 1500.942938 2448.105089 1503.833176 2451.992449 L 1687.164559 2683.652091 C 1690.088483 2687.383957 1695.767902 2688.134387 1699.520496 2685.044781 L 2510.64666 2043.542412 C 2514.587894 2040.331114 2515.302032 2034.7874 2512.256839 2030.866237 L 2329.046725 1799.395892 C 2326.001532 1795.474728 2320.443382 1794.913596 2316.535834 1797.9694 Z M 1505.40967 2439.471768 " stroke="#24578f" stroke-width="30" stroke-opacity="1" stroke-miterlimit="10"/></g></g></g></g><g clip-path="url(#bb86527186)"><g clip-path="url(#a91c681986)"><g clip-path="url(#a24552e1b1)"><g clip-path="url(#a33567bb8b)"><path fill="#72c3ee" d="M 135.929688 214.121094 C 135.875 214.050781 135.882812 213.949219 135.953125 213.894531 L 140.015625 210.570312 C 140.082031 210.515625 140.183594 210.523438 140.238281 210.59375 L 151.945312 224.796875 C 152 224.863281 151.992188 224.964844 151.921875 225.023438 L 147.859375 228.347656 C 147.792969 228.402344 147.691406 228.390625 147.636719 228.324219 L 135.929688 214.121094 " fill-opacity="1" fill-rule="nonzero"/></g></g></g></g><g clip-path="url(#31f48812b5)"><g clip-path="url(#d1ba339ed1)"><g clip-path="url(#f5c51d2136)"><g clip-path="url(#bc9b830572)"><path stroke-linecap="round" transform="matrix(0.0240714, 0.00523292, 0.00521475, -0.0239878, 83.912512, 262.718097)" fill="none" stroke-linejoin="round" d="M 1644.356695 2384.616041 C 1641.580988 2386.941697 1641.015067 2391.052158 1643.332647 2393.837536 L 1775.818743 2561.318547 C 1777.981369 2564.070122 1782.077558 2564.638015 1784.853264 2562.312359 L 2371.733321 2098.242645 C 2374.475341 2096.072483 2375.041262 2091.962022 2372.757368 2089.02115 L 2240.271272 1921.540139 C 2238.108646 1918.788564 2233.978772 1918.376165 2231.236751 1920.546327 Z M 1644.356695 2384.616041 " stroke="#24578f" stroke-width="30" stroke-opacity="1" stroke-miterlimit="10"/></g></g></g></g><g clip-path="url(#33726ea0a0)"><g clip-path="url(#9ab92dd25d)"><g clip-path="url(#a84d1a8dc2)"><g clip-path="url(#17649f9035)"><path fill="#b1b7bc" d="M 151.292969 230.804688 L 153.675781 228.855469 L 163.882812 241.238281 L 161.5 243.191406 L 151.292969 230.804688 " fill-opacity="1" fill-rule="nonzero"/></g></g></g></g><g clip-path="url(#7b1f14069c)"><g clip-path="url(#bb38670b27)"><g clip-path="url(#b97d66414c)"><g clip-path="url(#42d0ff0a32)"><path stroke-linecap="round" transform="matrix(0.0240714, 0.00523292, 0.00521475, -0.0239878, 83.912512, 262.718097)" fill="none" stroke-linejoin="round" d="M 2397.664619 1853.447104 L 2475.377668 1951.658732 L 2987.057633 1547.069013 L 2909.378269 1448.701891 Z M 2397.664619 1853.447104 " stroke="#24578f" stroke-width="30" stroke-opacity="1" stroke-miterlimit="10"/></g></g></g></g><g clip-path="url(#5f8ef22781)"><g clip-path="url(#5a672d9f45)"><g clip-path="url(#a1e1dfb4d0)"><g clip-path="url(#43ae294039)"><path fill="#b1b7bc" d="M 159.851562 244.824219 C 159.777344 244.730469 159.789062 244.589844 159.882812 244.511719 L 165.5 239.917969 C 165.59375 239.839844 165.734375 239.855469 165.808594 239.949219 L 167.023438 241.421875 C 167.101562 241.515625 167.085938 241.652344 166.992188 241.730469 L 161.375 246.324219 C 161.285156 246.402344 161.144531 246.390625 161.066406 246.296875 L 159.851562 244.824219 " fill-opacity="1" fill-rule="nonzero"/><path stroke-linecap="round" transform="matrix(0.0240714, 0.00523292, 0.00521475, -0.0239878, 83.912512, 262.718097)" fill="none" stroke-linejoin="round" d="M 2858.068119 1369.440301 C 2854.315525 1372.529908 2853.567702 1378.229116 2856.612894 1382.15028 L 3039.823008 1613.620624 C 3042.868201 1617.541788 3048.581306 1618.136723 3052.3339 1615.047116 L 3113.22428 1566.938495 C 3117.131829 1563.882692 3117.691012 1558.305175 3114.645819 1554.384011 L 2931.435705 1322.913666 C 2928.545467 1319.026306 2922.866048 1318.275876 2918.9585 1321.33168 Z M 2858.068119 1369.440301 " stroke="#24578f" stroke-width="30" stroke-opacity="1" stroke-miterlimit="10"/></g></g></g></g><g clip-path="url(#7102dfa432)"><g clip-path="url(#ce13764eef)"><g clip-path="url(#96271b342a)"><g clip-path="url(#21e92a7562)"><path fill="#b1b7bc" d="M 146.445312 233.132812 C 146.367188 233.039062 146.378906 232.898438 146.472656 232.824219 L 156.597656 224.535156 C 156.695312 224.457031 156.832031 224.472656 156.910156 224.566406 L 157.890625 225.757812 C 157.96875 225.851562 157.953125 225.988281 157.863281 226.066406 L 147.734375 234.351562 C 147.640625 234.429688 147.5 234.417969 147.425781 234.324219 L 146.445312 233.132812 " fill-opacity="1" fill-rule="nonzero"/></g></g></g></g><g clip-path="url(#59711a25f9)"><g clip-path="url(#7d8328d596)"><g clip-path="url(#a555190f6d)"><g clip-path="url(#c4977cff9c)"><path stroke-linecap="round" transform="matrix(0.0240714, 0.00523292, 0.00521475, -0.0239878, 83.912512, 262.718097)" fill="none" stroke-linejoin="round" d="M 2225.4428 1718.82274 C 2221.535252 1721.878544 2220.787428 1727.577752 2223.866307 1731.343422 L 2554.027182 2148.920304 C 2557.227329 2152.875271 2562.78548 2153.436403 2566.693028 2150.380599 L 2615.860764 2111.439388 C 2619.768312 2108.383585 2620.327496 2102.806068 2617.437257 2098.918707 L 2287.087742 1681.463516 C 2284.042549 1677.542352 2278.36313 1676.791923 2274.610536 1679.881529 Z M 2225.4428 1718.82274 " stroke="#24578f" stroke-width="30" stroke-opacity="1" stroke-miterlimit="10"/></g></g></g></g><g clip-path="url(#d2dc32a2fe)"><g clip-path="url(#732bcec6dc)"><g clip-path="url(#3a5d8ce8ef)"><g clip-path="url(#006abad3ea)"><path fill="#b1b7bc" d="M 130.34375 202.960938 L 127.261719 199.222656 " fill-opacity="1" fill-rule="nonzero"/></g></g></g></g><g clip-path="url(#f74304a7f1)"><g clip-path="url(#db1e716c2c)"><g clip-path="url(#3cc8bb07a4)"><g clip-path="url(#579eb38597)"><path stroke-linecap="round" transform="matrix(0.0240714, 0.00523292, 0.00521475, -0.0239878, 83.912512, 262.718097)" fill="none" stroke-linejoin="round" d="M 1326.531544 2780.525115 L 1172.035173 2902.662601 " stroke="#24578f" stroke-width="30" stroke-opacity="1" stroke-miterlimit="10"/></g></g></g></g><g clip-path="url(#dffd840269)"><g clip-path="url(#99ccae8034)"><g clip-path="url(#983a62c735)"><g clip-path="url(#0f1f23e3f5)"><path fill="#b1b7bc" d="M 147.316406 224.335938 L 145.386719 225.914062 " fill-opacity="1" fill-rule="nonzero"/></g></g></g></g><g clip-path="url(#c89c482e03)"><g clip-path="url(#9418d3813c)"><g clip-path="url(#d031d7d5fb)"><g clip-path="url(#695d3c4930)"><path stroke-linecap="round" transform="matrix(0.0240714, 0.00523292, 0.00521475, -0.0239878, 83.912512, 262.718097)" fill="none" stroke-linejoin="round" d="M 2184.137321 2076.534272 L 2121.198846 1997.015778 " stroke="#24578f" stroke-width="30" stroke-opacity="1" stroke-miterlimit="10"/></g></g></g></g><g clip-path="url(#0a528ecda6)"><g clip-path="url(#ca246300e8)"><g clip-path="url(#e332212ef4)"><g clip-path="url(#70fe91cf07)"><path stroke-linecap="round" transform="matrix(0.0240714, 0.00523292, 0.00521475, -0.0239878, 83.912512, 262.718097)" fill-opacity="1" fill="#b1b7bc" fill-rule="nonzero" stroke-linejoin="round" d="M 2036.856439 2193.080719 L 1973.763009 2113.528423 " stroke="#24578f" stroke-width="30" stroke-opacity="1" stroke-miterlimit="10"/></g></g></g></g><g clip-path="url(#bea06cc73d)"><g clip-path="url(#9a75385665)"><g clip-path="url(#e9b3c4e93d)"><g clip-path="url(#c161ca05fd)"><path fill="#b1b7bc" d="M 141.4375 217.203125 L 139.507812 218.78125 " fill-opacity="1" fill-rule="nonzero"/></g></g></g></g><g clip-path="url(#e05bb43884)"><g clip-path="url(#890f1777ca)"><g clip-path="url(#7fe529ed93)"><g clip-path="url(#83bd810853)"><path stroke-linecap="round" transform="matrix(0.0240714, 0.00523292, 0.00521475, -0.0239878, 83.912512, 262.718097)" fill="none" stroke-linejoin="round" d="M 1889.420602 2309.593364 L 1826.482127 2230.07487 " stroke="#24578f" stroke-width="30" stroke-opacity="1" stroke-miterlimit="10"/></g></g></g></g><g clip-path="url(#5d2d8cd800)"><g clip-path="url(#ff6dfeeb41)"><g clip-path="url(#829a88687f)"><g clip-path="url(#cd63a75cb9)"><path stroke-linecap="round" transform="matrix(0.0240714, 0.00523292, 0.00521475, -0.0239878, 83.912512, 262.718097)" fill="none" stroke-linejoin="round" d="M 1369.285512 2764.448344 L 1556.8613 2609.467732 " stroke="#ffffff" stroke-width="30" stroke-opacity="1" stroke-miterlimit="10"/></g></g></g></g><g clip-path="url(#fc5398aa4b)"><g clip-path="url(#ad8b99bd73)"><g clip-path="url(#1f7513e8d1)"><g clip-path="url(#b109741861)"><path stroke-linecap="round" transform="matrix(0.0240714, 0.00523292, 0.00521475, -0.0239878, 83.912512, 262.718097)" fill="none" stroke-linejoin="round" d="M 1776.734996 2479.93412 L 2286.811518 2089.487633 " stroke="#ffffff" stroke-width="30" stroke-opacity="1" stroke-miterlimit="10"/></g></g></g></g><g clip-path="url(#06accfe051)"><g clip-path="url(#cdbcae0966)"><g clip-path="url(#fc5220a6b7)"><g clip-path="url(#23bdada2a4)"><path stroke-linecap="round" transform="matrix(0.0240714, 0.00523292, 0.00521475, -0.0239878, 83.912512, 262.718097)" fill="none" stroke-linejoin="round" d="M 2486.851039 1869.483311 L 2916.795874 1524.576407 " stroke="#ffffff" stroke-width="30" stroke-opacity="1" stroke-miterlimit="10"/></g></g></g></g><g clip-path="url(#35368673b3)"><g clip-path="url(#de1a9f299f)"><g clip-path="url(#2f584afc64)"><g clip-path="url(#b7f7d4aba4)"><path stroke-linecap="round" transform="matrix(0.0240714, 0.00523292, 0.00521475, -0.0239878, 83.912512, 262.718097)" fill="none" stroke-linejoin="round" d="M 3052.85266 1566.958777 L 3070.167141 1554.451617 L 2949.861816 1406.400648 " stroke="#ffffff" stroke-width="30" stroke-opacity="1" stroke-miterlimit="10"/></g></g></g></g></svg>