<svg xmlns="http://www.w3.org/2000/svg" xmlns:xlink="http://www.w3.org/1999/xlink" width="500" zoomAndPan="magnify" viewBox="0 0 375 374.999991" height="500" preserveAspectRatio="xMidYMid meet" version="1.0"><defs><clipPath id="22508c56ff"><path d="M 165 229 L 187 229 L 187 262.5 L 165 262.5 Z M 165 229 " clip-rule="nonzero"/></clipPath><clipPath id="41cc1975f4"><path d="M 195 229 L 218 229 L 218 262.5 L 195 262.5 Z M 195 229 " clip-rule="nonzero"/></clipPath><clipPath id="0c5bab78ae"><path d="M 223 136 L 243.3125 136 L 243.3125 168 L 223 168 Z M 223 136 " clip-rule="nonzero"/></clipPath><clipPath id="476507261a"><path d="M 131.5625 125 L 140 125 L 140 134 L 131.5625 134 Z M 131.5625 125 " clip-rule="nonzero"/></clipPath><clipPath id="95534fa0e3"><path d="M 143 112.5 L 236 112.5 L 236 199 L 143 199 Z M 143 112.5 " clip-rule="nonzero"/></clipPath><clipPath id="0aa400d758"><path d="M 204 198.496094 L 207 198.496094 L 207 202 L 204 202 Z M 204 198.496094 " clip-rule="nonzero"/></clipPath><clipPath id="fa007da993"><path d="M 200.523438 198.496094 L 207 198.496094 L 207 205 L 200.523438 205 Z M 200.523438 198.496094 " clip-rule="nonzero"/></clipPath><clipPath id="1d0e13bd42"><path d="M 206.523438 198.625 C 206.527344 199.023438 206.480469 200.339844 205.832031 201.625 C 205.628906 202.03125 205.367188 202.433594 205.023438 202.800781 C 204.140625 203.757812 202.742188 204.492188 200.523438 204.492188 L 200.523438 202.246094 C 202.160156 202.246094 203.351562 201.996094 204.21875 201.625 C 204.527344 201.492188 204.792969 201.347656 205.027344 201.191406 C 206.390625 200.265625 206.519531 199.015625 206.523438 198.625 Z M 206.523438 198.625 " clip-rule="nonzero"/></clipPath><linearGradient x1="-0.000270763" gradientTransform="matrix(0.0249488, 0, 0, 0.0249079, 200.5253, 198.504745)" y1="122.636002" x2="240.599735" gradientUnits="userSpaceOnUse" y2="122.636002" id="51de85d5c3"><stop stop-opacity="1" stop-color="rgb(23.919678%, 74.119568%, 92.549133%)" offset="0"/><stop stop-opacity="1" stop-color="rgb(23.919678%, 74.119568%, 92.549133%)" offset="0.03125"/><stop stop-opacity="1" stop-color="rgb(23.953247%, 74.008179%, 92.579651%)" offset="0.046875"/><stop stop-opacity="1" stop-color="rgb(24.01886%, 73.800659%, 92.637634%)" offset="0.0546875"/><stop stop-opacity="1" stop-color="rgb(24.079895%, 73.603821%, 92.692566%)" offset="0.0625"/><stop stop-opacity="1" stop-color="rgb(24.171448%, 73.310852%, 92.774963%)" offset="0.078125"/><stop stop-opacity="1" stop-color="rgb(24.263%, 73.016357%, 92.855835%)" offset="0.0859375"/><stop stop-opacity="1" stop-color="rgb(24.324036%, 72.821045%, 92.910767%)" offset="0.09375"/><stop stop-opacity="1" stop-color="rgb(24.385071%, 72.624207%, 92.965698%)" offset="0.101562"/><stop stop-opacity="1" stop-color="rgb(24.446106%, 72.428894%, 93.02063%)" offset="0.109375"/><stop stop-opacity="1" stop-color="rgb(24.507141%, 72.232056%, 93.075562%)" offset="0.117188"/><stop stop-opacity="1" stop-color="rgb(24.568176%, 72.036743%, 93.128967%)" offset="0.125"/><stop stop-opacity="1" stop-color="rgb(24.629211%, 71.841431%, 93.183899%)" offset="0.132813"/><stop stop-opacity="1" stop-color="rgb(24.690247%, 71.644592%, 93.238831%)" offset="0.140625"/><stop stop-opacity="1" stop-color="rgb(24.751282%, 71.44928%, 93.293762%)" offset="0.148438"/><stop stop-opacity="1" stop-color="rgb(24.812317%, 71.252441%, 93.348694%)" offset="0.15625"/><stop stop-opacity="1" stop-color="rgb(24.873352%, 71.057129%, 93.403625%)" offset="0.164062"/><stop stop-opacity="1" stop-color="rgb(24.934387%, 70.860291%, 93.457031%)" offset="0.171875"/><stop stop-opacity="1" stop-color="rgb(24.995422%, 70.664978%, 93.511963%)" offset="0.179688"/><stop stop-opacity="1" stop-color="rgb(25.056458%, 70.46814%, 93.566895%)" offset="0.1875"/><stop stop-opacity="1" stop-color="rgb(25.14801%, 70.175171%, 93.649292%)" offset="0.203125"/><stop stop-opacity="1" stop-color="rgb(25.239563%, 69.880676%, 93.730164%)" offset="0.210938"/><stop stop-opacity="1" stop-color="rgb(25.300598%, 69.685364%, 93.785095%)" offset="0.21875"/><stop stop-opacity="1" stop-color="rgb(25.361633%, 69.488525%, 93.840027%)" offset="0.226562"/><stop stop-opacity="1" stop-color="rgb(25.422668%, 69.293213%, 93.894958%)" offset="0.234375"/><stop stop-opacity="1" stop-color="rgb(25.483704%, 69.096375%, 93.94989%)" offset="0.242187"/><stop stop-opacity="1" stop-color="rgb(25.544739%, 68.901062%, 94.003296%)" offset="0.25"/><stop stop-opacity="1" stop-color="rgb(25.605774%, 68.70575%, 94.058228%)" offset="0.257812"/><stop stop-opacity="1" stop-color="rgb(25.666809%, 68.508911%, 94.113159%)" offset="0.265625"/><stop stop-opacity="1" stop-color="rgb(25.727844%, 68.313599%, 94.168091%)" offset="0.273438"/><stop stop-opacity="1" stop-color="rgb(25.788879%, 68.11676%, 94.223022%)" offset="0.28125"/><stop stop-opacity="1" stop-color="rgb(25.849915%, 67.921448%, 94.277954%)" offset="0.289063"/><stop stop-opacity="1" stop-color="rgb(25.91095%, 67.724609%, 94.33136%)" offset="0.296875"/><stop stop-opacity="1" stop-color="rgb(26.002502%, 67.431641%, 94.413757%)" offset="0.3125"/><stop stop-opacity="1" stop-color="rgb(26.094055%, 67.137146%, 94.496155%)" offset="0.320312"/><stop stop-opacity="1" stop-color="rgb(26.15509%, 66.941833%, 94.551086%)" offset="0.328125"/><stop stop-opacity="1" stop-color="rgb(26.216125%, 66.744995%, 94.604492%)" offset="0.335938"/><stop stop-opacity="1" stop-color="rgb(26.277161%, 66.549683%, 94.659424%)" offset="0.34375"/><stop stop-opacity="1" stop-color="rgb(26.338196%, 66.352844%, 94.714355%)" offset="0.351562"/><stop stop-opacity="1" stop-color="rgb(26.399231%, 66.157532%, 94.769287%)" offset="0.359375"/><stop stop-opacity="1" stop-color="rgb(26.460266%, 65.962219%, 94.824219%)" offset="0.367188"/><stop stop-opacity="1" stop-color="rgb(26.521301%, 65.765381%, 94.87915%)" offset="0.375"/><stop stop-opacity="1" stop-color="rgb(26.582336%, 65.570068%, 94.932556%)" offset="0.382812"/><stop stop-opacity="1" stop-color="rgb(26.643372%, 65.37323%, 94.987488%)" offset="0.390625"/><stop stop-opacity="1" stop-color="rgb(26.704407%, 65.177917%, 95.042419%)" offset="0.398438"/><stop stop-opacity="1" stop-color="rgb(26.765442%, 64.981079%, 95.097351%)" offset="0.40625"/><stop stop-opacity="1" stop-color="rgb(26.856995%, 64.68811%, 95.178223%)" offset="0.421875"/><stop stop-opacity="1" stop-color="rgb(26.948547%, 64.393616%, 95.26062%)" offset="0.429688"/><stop stop-opacity="1" stop-color="rgb(27.009583%, 64.198303%, 95.315552%)" offset="0.4375"/><stop stop-opacity="1" stop-color="rgb(27.070618%, 64.001465%, 95.370483%)" offset="0.445313"/><stop stop-opacity="1" stop-color="rgb(27.131653%, 63.806152%, 95.425415%)" offset="0.453125"/><stop stop-opacity="1" stop-color="rgb(27.192688%, 63.609314%, 95.478821%)" offset="0.460937"/><stop stop-opacity="1" stop-color="rgb(27.253723%, 63.414001%, 95.533752%)" offset="0.46875"/><stop stop-opacity="1" stop-color="rgb(27.314758%, 63.217163%, 95.588684%)" offset="0.476562"/><stop stop-opacity="1" stop-color="rgb(27.375793%, 63.021851%, 95.643616%)" offset="0.484375"/><stop stop-opacity="1" stop-color="rgb(27.436829%, 62.826538%, 95.698547%)" offset="0.492188"/><stop stop-opacity="1" stop-color="rgb(27.497864%, 62.6297%, 95.753479%)" offset="0.5"/><stop stop-opacity="1" stop-color="rgb(27.558899%, 62.434387%, 95.806885%)" offset="0.507812"/><stop stop-opacity="1" stop-color="rgb(27.619934%, 62.237549%, 95.861816%)" offset="0.515625"/><stop stop-opacity="1" stop-color="rgb(27.680969%, 62.042236%, 95.916748%)" offset="0.523438"/><stop stop-opacity="1" stop-color="rgb(27.742004%, 61.845398%, 95.97168%)" offset="0.53125"/><stop stop-opacity="1" stop-color="rgb(27.833557%, 61.552429%, 96.052551%)" offset="0.546875"/><stop stop-opacity="1" stop-color="rgb(27.92511%, 61.257935%, 96.134949%)" offset="0.554688"/><stop stop-opacity="1" stop-color="rgb(27.986145%, 61.062622%, 96.18988%)" offset="0.5625"/><stop stop-opacity="1" stop-color="rgb(28.04718%, 60.865784%, 96.244812%)" offset="0.570312"/><stop stop-opacity="1" stop-color="rgb(28.108215%, 60.670471%, 96.299744%)" offset="0.578125"/><stop stop-opacity="1" stop-color="rgb(28.16925%, 60.473633%, 96.353149%)" offset="0.585938"/><stop stop-opacity="1" stop-color="rgb(28.230286%, 60.27832%, 96.408081%)" offset="0.59375"/><stop stop-opacity="1" stop-color="rgb(28.291321%, 60.083008%, 96.463013%)" offset="0.601563"/><stop stop-opacity="1" stop-color="rgb(28.352356%, 59.886169%, 96.517944%)" offset="0.609375"/><stop stop-opacity="1" stop-color="rgb(28.413391%, 59.690857%, 96.572876%)" offset="0.617188"/><stop stop-opacity="1" stop-color="rgb(28.474426%, 59.494019%, 96.627808%)" offset="0.625"/><stop stop-opacity="1" stop-color="rgb(28.535461%, 59.298706%, 96.681213%)" offset="0.632813"/><stop stop-opacity="1" stop-color="rgb(28.596497%, 59.101868%, 96.736145%)" offset="0.640625"/><stop stop-opacity="1" stop-color="rgb(28.688049%, 58.808899%, 96.818542%)" offset="0.65625"/><stop stop-opacity="1" stop-color="rgb(28.779602%, 58.514404%, 96.90094%)" offset="0.664062"/><stop stop-opacity="1" stop-color="rgb(28.840637%, 58.319092%, 96.954346%)" offset="0.671875"/><stop stop-opacity="1" stop-color="rgb(28.901672%, 58.122253%, 97.009277%)" offset="0.679688"/><stop stop-opacity="1" stop-color="rgb(28.962708%, 57.926941%, 97.064209%)" offset="0.6875"/><stop stop-opacity="1" stop-color="rgb(29.023743%, 57.730103%, 97.119141%)" offset="0.695313"/><stop stop-opacity="1" stop-color="rgb(29.084778%, 57.53479%, 97.174072%)" offset="0.703125"/><stop stop-opacity="1" stop-color="rgb(29.145813%, 57.339478%, 97.227478%)" offset="0.710938"/><stop stop-opacity="1" stop-color="rgb(29.206848%, 57.142639%, 97.28241%)" offset="0.71875"/><stop stop-opacity="1" stop-color="rgb(29.267883%, 56.947327%, 97.337341%)" offset="0.726563"/><stop stop-opacity="1" stop-color="rgb(29.328918%, 56.750488%, 97.392273%)" offset="0.734375"/><stop stop-opacity="1" stop-color="rgb(29.389954%, 56.555176%, 97.447205%)" offset="0.742188"/><stop stop-opacity="1" stop-color="rgb(29.450989%, 56.358337%, 97.502136%)" offset="0.75"/><stop stop-opacity="1" stop-color="rgb(29.512024%, 56.163025%, 97.555542%)" offset="0.757813"/><stop stop-opacity="1" stop-color="rgb(29.573059%, 55.966187%, 97.610474%)" offset="0.765625"/><stop stop-opacity="1" stop-color="rgb(29.664612%, 55.673218%, 97.692871%)" offset="0.78125"/><stop stop-opacity="1" stop-color="rgb(29.756165%, 55.378723%, 97.775269%)" offset="0.789063"/><stop stop-opacity="1" stop-color="rgb(29.8172%, 55.183411%, 97.828674%)" offset="0.796875"/><stop stop-opacity="1" stop-color="rgb(29.878235%, 54.986572%, 97.883606%)" offset="0.804688"/><stop stop-opacity="1" stop-color="rgb(29.93927%, 54.79126%, 97.938538%)" offset="0.8125"/><stop stop-opacity="1" stop-color="rgb(30.000305%, 54.594421%, 97.993469%)" offset="0.820313"/><stop stop-opacity="1" stop-color="rgb(30.06134%, 54.399109%, 98.048401%)" offset="0.828125"/><stop stop-opacity="1" stop-color="rgb(30.122375%, 54.203796%, 98.101807%)" offset="0.835938"/><stop stop-opacity="1" stop-color="rgb(30.183411%, 54.006958%, 98.156738%)" offset="0.84375"/><stop stop-opacity="1" stop-color="rgb(30.244446%, 53.811646%, 98.21167%)" offset="0.851563"/><stop stop-opacity="1" stop-color="rgb(30.305481%, 53.614807%, 98.266602%)" offset="0.859375"/><stop stop-opacity="1" stop-color="rgb(30.366516%, 53.419495%, 98.321533%)" offset="0.867188"/><stop stop-opacity="1" stop-color="rgb(30.427551%, 53.222656%, 98.376465%)" offset="0.875"/><stop stop-opacity="1" stop-color="rgb(30.519104%, 52.929688%, 98.457336%)" offset="0.890625"/><stop stop-opacity="1" stop-color="rgb(30.610657%, 52.635193%, 98.539734%)" offset="0.898438"/><stop stop-opacity="1" stop-color="rgb(30.671692%, 52.43988%, 98.594666%)" offset="0.90625"/><stop stop-opacity="1" stop-color="rgb(30.732727%, 52.243042%, 98.649597%)" offset="0.914063"/><stop stop-opacity="1" stop-color="rgb(30.793762%, 52.047729%, 98.703003%)" offset="0.921875"/><stop stop-opacity="1" stop-color="rgb(30.854797%, 51.850891%, 98.757935%)" offset="0.929688"/><stop stop-opacity="1" stop-color="rgb(30.915833%, 51.655579%, 98.812866%)" offset="0.9375"/><stop stop-opacity="1" stop-color="rgb(30.976868%, 51.460266%, 98.867798%)" offset="0.945313"/><stop stop-opacity="1" stop-color="rgb(31.037903%, 51.263428%, 98.922729%)" offset="0.953125"/><stop stop-opacity="1" stop-color="rgb(31.098938%, 51.068115%, 98.976135%)" offset="0.960938"/><stop stop-opacity="1" stop-color="rgb(31.159973%, 50.871277%, 99.031067%)" offset="0.96875"/><stop stop-opacity="1" stop-color="rgb(31.221008%, 50.675964%, 99.085999%)" offset="0.976563"/><stop stop-opacity="1" stop-color="rgb(31.282043%, 50.479126%, 99.14093%)" offset="0.984375"/><stop stop-opacity="1" stop-color="rgb(31.340027%, 50.289917%, 99.19281%)" offset="1"/></linearGradient><clipPath id="9ff2e5a59e"><path d="M 204 204 L 207 204 L 207 207.496094 L 204 207.496094 Z M 204 204 " clip-rule="nonzero"/></clipPath><clipPath id="573ea30477"><path d="M 204 201 L 210.273438 201 L 210.273438 207.496094 L 204 207.496094 Z M 204 201 " clip-rule="nonzero"/></clipPath><clipPath id="a92fe81056"><path d="M 204.273438 207.363281 C 204.273438 206.964844 204.316406 205.648438 204.964844 204.363281 C 205.171875 203.960938 205.433594 203.558594 205.773438 203.191406 C 206.65625 202.234375 208.058594 201.5 210.273438 201.5 L 210.273438 203.742188 C 208.640625 203.742188 207.449219 203.992188 206.582031 204.363281 C 206.273438 204.496094 206.007812 204.644531 205.773438 204.800781 C 204.410156 205.722656 204.28125 206.976562 204.273438 207.363281 Z M 204.273438 207.363281 " clip-rule="nonzero"/></clipPath><linearGradient x1="167.432119" gradientTransform="matrix(-0.0249488, 0, 0, -0.0249079, 214.451779, 203.490705)" y1="-37.771" x2="408.042131" gradientUnits="userSpaceOnUse" y2="-37.771" id="6e87ec1855"><stop stop-opacity="1" stop-color="rgb(23.919678%, 74.119568%, 92.549133%)" offset="0"/><stop stop-opacity="1" stop-color="rgb(23.919678%, 74.119568%, 92.549133%)" offset="0.03125"/><stop stop-opacity="1" stop-color="rgb(23.953247%, 74.009705%, 92.579651%)" offset="0.046875"/><stop stop-opacity="1" stop-color="rgb(24.01886%, 73.800659%, 92.637634%)" offset="0.0546875"/><stop stop-opacity="1" stop-color="rgb(24.079895%, 73.605347%, 92.692566%)" offset="0.0625"/><stop stop-opacity="1" stop-color="rgb(24.14093%, 73.408508%, 92.747498%)" offset="0.0703125"/><stop stop-opacity="1" stop-color="rgb(24.201965%, 73.213196%, 92.802429%)" offset="0.078125"/><stop stop-opacity="1" stop-color="rgb(24.263%, 73.016357%, 92.855835%)" offset="0.0859375"/><stop stop-opacity="1" stop-color="rgb(24.324036%, 72.821045%, 92.910767%)" offset="0.09375"/><stop stop-opacity="1" stop-color="rgb(24.385071%, 72.625732%, 92.965698%)" offset="0.101562"/><stop stop-opacity="1" stop-color="rgb(24.446106%, 72.428894%, 93.02063%)" offset="0.109375"/><stop stop-opacity="1" stop-color="rgb(24.507141%, 72.233582%, 93.075562%)" offset="0.117188"/><stop stop-opacity="1" stop-color="rgb(24.568176%, 72.036743%, 93.128967%)" offset="0.125"/><stop stop-opacity="1" stop-color="rgb(24.629211%, 71.841431%, 93.183899%)" offset="0.132812"/><stop stop-opacity="1" stop-color="rgb(24.690247%, 71.644592%, 93.238831%)" offset="0.140625"/><stop stop-opacity="1" stop-color="rgb(24.751282%, 71.44928%, 93.293762%)" offset="0.148438"/><stop stop-opacity="1" stop-color="rgb(24.812317%, 71.252441%, 93.348694%)" offset="0.15625"/><stop stop-opacity="1" stop-color="rgb(24.90387%, 70.959473%, 93.429565%)" offset="0.171875"/><stop stop-opacity="1" stop-color="rgb(24.995422%, 70.664978%, 93.511963%)" offset="0.179688"/><stop stop-opacity="1" stop-color="rgb(25.056458%, 70.469666%, 93.566895%)" offset="0.1875"/><stop stop-opacity="1" stop-color="rgb(25.117493%, 70.272827%, 93.621826%)" offset="0.195312"/><stop stop-opacity="1" stop-color="rgb(25.178528%, 70.077515%, 93.676758%)" offset="0.203125"/><stop stop-opacity="1" stop-color="rgb(25.239563%, 69.880676%, 93.730164%)" offset="0.210938"/><stop stop-opacity="1" stop-color="rgb(25.300598%, 69.685364%, 93.785095%)" offset="0.21875"/><stop stop-opacity="1" stop-color="rgb(25.361633%, 69.488525%, 93.840027%)" offset="0.226563"/><stop stop-opacity="1" stop-color="rgb(25.422668%, 69.293213%, 93.894958%)" offset="0.234375"/><stop stop-opacity="1" stop-color="rgb(25.483704%, 69.0979%, 93.94989%)" offset="0.242188"/><stop stop-opacity="1" stop-color="rgb(25.544739%, 68.901062%, 94.003296%)" offset="0.25"/><stop stop-opacity="1" stop-color="rgb(25.605774%, 68.70575%, 94.058228%)" offset="0.257813"/><stop stop-opacity="1" stop-color="rgb(25.666809%, 68.508911%, 94.113159%)" offset="0.265625"/><stop stop-opacity="1" stop-color="rgb(25.727844%, 68.313599%, 94.168091%)" offset="0.273438"/><stop stop-opacity="1" stop-color="rgb(25.788879%, 68.11676%, 94.223022%)" offset="0.28125"/><stop stop-opacity="1" stop-color="rgb(25.880432%, 67.823792%, 94.303894%)" offset="0.296875"/><stop stop-opacity="1" stop-color="rgb(25.971985%, 67.529297%, 94.386292%)" offset="0.304688"/><stop stop-opacity="1" stop-color="rgb(26.03302%, 67.333984%, 94.441223%)" offset="0.3125"/><stop stop-opacity="1" stop-color="rgb(26.094055%, 67.137146%, 94.496155%)" offset="0.320312"/><stop stop-opacity="1" stop-color="rgb(26.15509%, 66.941833%, 94.551086%)" offset="0.328125"/><stop stop-opacity="1" stop-color="rgb(26.216125%, 66.744995%, 94.604492%)" offset="0.335938"/><stop stop-opacity="1" stop-color="rgb(26.277161%, 66.549683%, 94.659424%)" offset="0.34375"/><stop stop-opacity="1" stop-color="rgb(26.338196%, 66.352844%, 94.714355%)" offset="0.351562"/><stop stop-opacity="1" stop-color="rgb(26.399231%, 66.157532%, 94.769287%)" offset="0.359375"/><stop stop-opacity="1" stop-color="rgb(26.460266%, 65.962219%, 94.824219%)" offset="0.367188"/><stop stop-opacity="1" stop-color="rgb(26.521301%, 65.765381%, 94.877625%)" offset="0.375"/><stop stop-opacity="1" stop-color="rgb(26.582336%, 65.570068%, 94.932556%)" offset="0.382813"/><stop stop-opacity="1" stop-color="rgb(26.643372%, 65.37323%, 94.987488%)" offset="0.390625"/><stop stop-opacity="1" stop-color="rgb(26.704407%, 65.177917%, 95.042419%)" offset="0.398438"/><stop stop-opacity="1" stop-color="rgb(26.765442%, 64.981079%, 95.097351%)" offset="0.40625"/><stop stop-opacity="1" stop-color="rgb(26.856995%, 64.68811%, 95.178223%)" offset="0.421875"/><stop stop-opacity="1" stop-color="rgb(26.948547%, 64.393616%, 95.26062%)" offset="0.429688"/><stop stop-opacity="1" stop-color="rgb(27.009583%, 64.198303%, 95.315552%)" offset="0.4375"/><stop stop-opacity="1" stop-color="rgb(27.070618%, 64.001465%, 95.370483%)" offset="0.445313"/><stop stop-opacity="1" stop-color="rgb(27.131653%, 63.806152%, 95.425415%)" offset="0.453125"/><stop stop-opacity="1" stop-color="rgb(27.192688%, 63.609314%, 95.478821%)" offset="0.460938"/><stop stop-opacity="1" stop-color="rgb(27.253723%, 63.414001%, 95.533752%)" offset="0.46875"/><stop stop-opacity="1" stop-color="rgb(27.314758%, 63.217163%, 95.588684%)" offset="0.476563"/><stop stop-opacity="1" stop-color="rgb(27.375793%, 63.021851%, 95.643616%)" offset="0.484375"/><stop stop-opacity="1" stop-color="rgb(27.436829%, 62.826538%, 95.698547%)" offset="0.492188"/><stop stop-opacity="1" stop-color="rgb(27.497864%, 62.6297%, 95.753479%)" offset="0.5"/><stop stop-opacity="1" stop-color="rgb(27.558899%, 62.434387%, 95.806885%)" offset="0.507813"/><stop stop-opacity="1" stop-color="rgb(27.619934%, 62.237549%, 95.861816%)" offset="0.515625"/><stop stop-opacity="1" stop-color="rgb(27.680969%, 62.042236%, 95.916748%)" offset="0.523438"/><stop stop-opacity="1" stop-color="rgb(27.742004%, 61.845398%, 95.97168%)" offset="0.53125"/><stop stop-opacity="1" stop-color="rgb(27.833557%, 61.552429%, 96.052551%)" offset="0.546875"/><stop stop-opacity="1" stop-color="rgb(27.92511%, 61.257935%, 96.134949%)" offset="0.554688"/><stop stop-opacity="1" stop-color="rgb(27.986145%, 61.062622%, 96.18988%)" offset="0.5625"/><stop stop-opacity="1" stop-color="rgb(28.04718%, 60.865784%, 96.244812%)" offset="0.570312"/><stop stop-opacity="1" stop-color="rgb(28.108215%, 60.670471%, 96.299744%)" offset="0.578125"/><stop stop-opacity="1" stop-color="rgb(28.16925%, 60.473633%, 96.353149%)" offset="0.585938"/><stop stop-opacity="1" stop-color="rgb(28.230286%, 60.27832%, 96.408081%)" offset="0.59375"/><stop stop-opacity="1" stop-color="rgb(28.291321%, 60.081482%, 96.463013%)" offset="0.601562"/><stop stop-opacity="1" stop-color="rgb(28.352356%, 59.886169%, 96.517944%)" offset="0.609375"/><stop stop-opacity="1" stop-color="rgb(28.413391%, 59.690857%, 96.572876%)" offset="0.617188"/><stop stop-opacity="1" stop-color="rgb(28.474426%, 59.494019%, 96.627808%)" offset="0.625"/><stop stop-opacity="1" stop-color="rgb(28.535461%, 59.298706%, 96.681213%)" offset="0.632812"/><stop stop-opacity="1" stop-color="rgb(28.596497%, 59.101868%, 96.736145%)" offset="0.640625"/><stop stop-opacity="1" stop-color="rgb(28.657532%, 58.906555%, 96.791077%)" offset="0.648438"/><stop stop-opacity="1" stop-color="rgb(28.718567%, 58.709717%, 96.846008%)" offset="0.65625"/><stop stop-opacity="1" stop-color="rgb(28.81012%, 58.416748%, 96.92688%)" offset="0.671875"/><stop stop-opacity="1" stop-color="rgb(28.901672%, 58.122253%, 97.009277%)" offset="0.679688"/><stop stop-opacity="1" stop-color="rgb(28.962708%, 57.926941%, 97.064209%)" offset="0.6875"/><stop stop-opacity="1" stop-color="rgb(29.023743%, 57.730103%, 97.119141%)" offset="0.695313"/><stop stop-opacity="1" stop-color="rgb(29.084778%, 57.53479%, 97.174072%)" offset="0.703125"/><stop stop-opacity="1" stop-color="rgb(29.145813%, 57.337952%, 97.229004%)" offset="0.710938"/><stop stop-opacity="1" stop-color="rgb(29.206848%, 57.142639%, 97.28241%)" offset="0.71875"/><stop stop-opacity="1" stop-color="rgb(29.267883%, 56.945801%, 97.337341%)" offset="0.726563"/><stop stop-opacity="1" stop-color="rgb(29.328918%, 56.750488%, 97.392273%)" offset="0.734375"/><stop stop-opacity="1" stop-color="rgb(29.389954%, 56.555176%, 97.447205%)" offset="0.742188"/><stop stop-opacity="1" stop-color="rgb(29.450989%, 56.358337%, 97.502136%)" offset="0.75"/><stop stop-opacity="1" stop-color="rgb(29.512024%, 56.163025%, 97.555542%)" offset="0.757813"/><stop stop-opacity="1" stop-color="rgb(29.573059%, 55.966187%, 97.610474%)" offset="0.765625"/><stop stop-opacity="1" stop-color="rgb(29.634094%, 55.770874%, 97.665405%)" offset="0.773438"/><stop stop-opacity="1" stop-color="rgb(29.695129%, 55.574036%, 97.720337%)" offset="0.78125"/><stop stop-opacity="1" stop-color="rgb(29.786682%, 55.281067%, 97.801208%)" offset="0.796875"/><stop stop-opacity="1" stop-color="rgb(29.878235%, 54.986572%, 97.883606%)" offset="0.804688"/><stop stop-opacity="1" stop-color="rgb(29.93927%, 54.79126%, 97.938538%)" offset="0.8125"/><stop stop-opacity="1" stop-color="rgb(30.000305%, 54.594421%, 97.993469%)" offset="0.820312"/><stop stop-opacity="1" stop-color="rgb(30.06134%, 54.399109%, 98.048401%)" offset="0.828125"/><stop stop-opacity="1" stop-color="rgb(30.122375%, 54.202271%, 98.103333%)" offset="0.835938"/><stop stop-opacity="1" stop-color="rgb(30.183411%, 54.006958%, 98.156738%)" offset="0.84375"/><stop stop-opacity="1" stop-color="rgb(30.244446%, 53.81012%, 98.21167%)" offset="0.851562"/><stop stop-opacity="1" stop-color="rgb(30.305481%, 53.614807%, 98.266602%)" offset="0.859375"/><stop stop-opacity="1" stop-color="rgb(30.366516%, 53.419495%, 98.321533%)" offset="0.867188"/><stop stop-opacity="1" stop-color="rgb(30.427551%, 53.222656%, 98.376465%)" offset="0.875"/><stop stop-opacity="1" stop-color="rgb(30.488586%, 53.027344%, 98.429871%)" offset="0.882812"/><stop stop-opacity="1" stop-color="rgb(30.549622%, 52.830505%, 98.484802%)" offset="0.890625"/><stop stop-opacity="1" stop-color="rgb(30.610657%, 52.635193%, 98.539734%)" offset="0.898438"/><stop stop-opacity="1" stop-color="rgb(30.671692%, 52.438354%, 98.594666%)" offset="0.90625"/><stop stop-opacity="1" stop-color="rgb(30.763245%, 52.145386%, 98.675537%)" offset="0.921875"/><stop stop-opacity="1" stop-color="rgb(30.854797%, 51.850891%, 98.757935%)" offset="0.929688"/><stop stop-opacity="1" stop-color="rgb(30.915833%, 51.655579%, 98.812866%)" offset="0.9375"/><stop stop-opacity="1" stop-color="rgb(30.976868%, 51.45874%, 98.867798%)" offset="0.945313"/><stop stop-opacity="1" stop-color="rgb(31.037903%, 51.263428%, 98.922729%)" offset="0.953125"/><stop stop-opacity="1" stop-color="rgb(31.098938%, 51.066589%, 98.977661%)" offset="0.960938"/><stop stop-opacity="1" stop-color="rgb(31.159973%, 50.871277%, 99.031067%)" offset="0.96875"/><stop stop-opacity="1" stop-color="rgb(31.221008%, 50.674438%, 99.085999%)" offset="0.976562"/><stop stop-opacity="1" stop-color="rgb(31.282043%, 50.479126%, 99.14093%)" offset="0.984375"/><stop stop-opacity="1" stop-color="rgb(31.340027%, 50.289917%, 99.19281%)" offset="1"/></linearGradient><clipPath id="f298ea095d"><path d="M 164 97 L 200 97 L 200 111 L 164 111 Z M 164 97 " clip-rule="nonzero"/></clipPath><clipPath id="c8b3cb1c9a"><path d="M 158.652344 101.394531 L 204.097656 96.101562 L 207.308594 123.664062 L 161.863281 128.957031 Z M 158.652344 101.394531 " clip-rule="nonzero"/></clipPath><clipPath id="3df414deab"><path d="M 158.652344 101.394531 L 204.097656 96.101562 L 207.308594 123.664062 L 161.863281 128.957031 Z M 158.652344 101.394531 " clip-rule="nonzero"/></clipPath><clipPath id="e31010da41"><path d="M 165 104 L 201 104 L 201 118 L 165 118 Z M 165 104 " clip-rule="nonzero"/></clipPath><clipPath id="6318ffb033"><path d="M 158.652344 101.394531 L 204.097656 96.101562 L 207.308594 123.664062 L 161.863281 128.957031 Z M 158.652344 101.394531 " clip-rule="nonzero"/></clipPath><clipPath id="7551c597a3"><path d="M 158.652344 101.394531 L 204.097656 96.101562 L 207.308594 123.664062 L 161.863281 128.957031 Z M 158.652344 101.394531 " clip-rule="nonzero"/></clipPath><clipPath id="3fe8ee4475"><path d="M 164 107 L 201 107 L 201 118 L 164 118 Z M 164 107 " clip-rule="nonzero"/></clipPath><clipPath id="156f7d3e77"><path d="M 158.652344 101.394531 L 204.097656 96.101562 L 207.308594 123.664062 L 161.863281 128.957031 Z M 158.652344 101.394531 " clip-rule="nonzero"/></clipPath><clipPath id="0251a1b306"><path d="M 158.652344 101.394531 L 204.097656 96.101562 L 207.308594 123.664062 L 161.863281 128.957031 Z M 158.652344 101.394531 " clip-rule="nonzero"/></clipPath><clipPath id="46c319cd57"><path d="M 161 104 L 207 104 L 207 128 L 161 128 Z M 161 104 " clip-rule="nonzero"/></clipPath><clipPath id="bad72b8e42"><path d="M 158.652344 101.394531 L 204.097656 96.101562 L 207.308594 123.664062 L 161.863281 128.957031 Z M 158.652344 101.394531 " clip-rule="nonzero"/></clipPath><clipPath id="cbebf819d0"><path d="M 158.652344 101.394531 L 204.097656 96.101562 L 207.308594 123.664062 L 161.863281 128.957031 Z M 158.652344 101.394531 " clip-rule="nonzero"/></clipPath><clipPath id="62af73b5c7"><path d="M 166 123 L 176 123 L 176 128 L 166 128 Z M 166 123 " clip-rule="nonzero"/></clipPath><clipPath id="84889c9fe8"><path d="M 158.652344 101.394531 L 204.097656 96.101562 L 207.308594 123.664062 L 161.863281 128.957031 Z M 158.652344 101.394531 " clip-rule="nonzero"/></clipPath><clipPath id="ea2d337ea3"><path d="M 158.652344 101.394531 L 204.097656 96.101562 L 207.308594 123.664062 L 161.863281 128.957031 Z M 158.652344 101.394531 " clip-rule="nonzero"/></clipPath></defs><path fill="#f6f6f6" d="M 217.898438 222.335938 C 214.347656 237.550781 176.835938 243.441406 168.378906 227.613281 C 165.734375 222.660156 164.828125 217.097656 164.851562 211.765625 C 164.855469 210.628906 164.902344 209.5 164.984375 208.386719 C 165.742188 198.089844 169.46875 189.417969 169.851562 188.960938 L 212.261719 190.1875 C 212.261719 190.1875 216.855469 198.648438 218.292969 208.980469 C 218.441406 210.0625 218.558594 211.167969 218.632812 212.285156 C 218.847656 215.585938 218.679688 219 217.898438 222.335938 Z M 217.898438 222.335938 " fill-opacity="1" fill-rule="nonzero"/><path fill="#54a3e6" d="M 206.511719 193.652344 C 206.542969 193.996094 206.472656 194.347656 206.300781 194.703125 C 206.128906 195.058594 205.863281 195.414062 205.496094 195.765625 C 205.128906 196.121094 204.675781 196.464844 204.128906 196.800781 C 203.582031 197.136719 202.953125 197.460938 202.25 197.765625 C 201.542969 198.074219 200.769531 198.359375 199.933594 198.628906 C 199.09375 198.894531 198.207031 199.132812 197.265625 199.347656 C 196.328125 199.5625 195.359375 199.75 194.355469 199.902344 C 193.351562 200.058594 192.335938 200.179688 191.308594 200.269531 C 190.28125 200.359375 189.257812 200.414062 188.246094 200.433594 C 187.230469 200.457031 186.242188 200.441406 185.28125 200.390625 C 184.320312 200.34375 183.402344 200.257812 182.53125 200.140625 C 181.660156 200.023438 180.847656 199.875 180.101562 199.695312 C 179.351562 199.515625 178.679688 199.304688 178.082031 199.066406 C 177.488281 198.832031 176.980469 198.570312 176.558594 198.285156 C 176.136719 198 175.8125 197.699219 175.582031 197.378906 C 175.351562 197.054688 175.222656 196.722656 175.191406 196.378906 C 175.160156 196.035156 175.230469 195.683594 175.402344 195.328125 C 175.574219 194.972656 175.84375 194.617188 176.207031 194.261719 C 176.574219 193.910156 177.03125 193.566406 177.578125 193.230469 C 178.121094 192.890625 178.75 192.570312 179.453125 192.261719 C 180.160156 191.957031 180.933594 191.667969 181.773438 191.402344 C 182.609375 191.136719 183.5 190.894531 184.4375 190.679688 C 185.375 190.464844 186.347656 190.28125 187.347656 190.125 C 188.351562 189.972656 189.367188 189.847656 190.394531 189.757812 C 191.425781 189.671875 192.445312 189.613281 193.460938 189.59375 C 194.472656 189.574219 195.460938 189.589844 196.421875 189.636719 C 197.386719 189.6875 198.300781 189.769531 199.171875 189.886719 C 200.046875 190.003906 200.855469 190.152344 201.601562 190.335938 C 202.351562 190.515625 203.023438 190.722656 203.621094 190.960938 C 204.214844 191.199219 204.726562 191.460938 205.148438 191.746094 C 205.566406 192.027344 205.894531 192.332031 206.125 192.652344 C 206.351562 192.972656 206.484375 193.304688 206.511719 193.652344 Z M 206.511719 193.652344 " fill-opacity="1" fill-rule="nonzero"/><g clip-path="url(#22508c56ff)"><path fill="#f6f6f6" d="M 186.589844 243.714844 C 186.570312 244.84375 186.539062 245.996094 186.492188 247.140625 C 186.292969 252.105469 185.824219 256.847656 184.804688 258.535156 C 182.351562 262.582031 167.644531 264.054688 165.558594 260.375 C 163.476562 256.691406 170.339844 253.132812 170.339844 253.132812 C 169.816406 251.703125 169.691406 249.199219 169.789062 246.332031 C 169.828125 245.234375 169.898438 244.082031 169.992188 242.914062 C 170.515625 236.429688 171.757812 229.53125 172.054688 229.085938 L 186.519531 232.765625 C 186.519531 232.765625 186.695312 237.941406 186.589844 243.714844 Z M 186.589844 243.714844 " fill-opacity="1" fill-rule="nonzero"/></g><path fill="#54a3e6" d="M 186.589844 243.714844 C 186.570312 244.84375 186.539062 245.996094 186.492188 247.140625 C 184.949219 247.542969 183.367188 247.800781 181.777344 247.945312 C 179.90625 248.113281 178.019531 248.082031 176.160156 247.851562 C 174.160156 247.601562 172.191406 247.1875 170.289062 246.515625 C 170.125 246.453125 169.957031 246.394531 169.789062 246.332031 C 169.828125 245.234375 169.898438 244.082031 169.992188 242.914062 C 169.992188 242.914062 169.992188 242.914062 169.996094 242.914062 C 169.996094 242.917969 170 242.917969 170 242.917969 C 171.957031 243.722656 174.015625 244.273438 176.109375 244.574219 C 176.542969 244.628906 176.980469 244.671875 177.414062 244.707031 C 179.183594 244.839844 180.960938 244.792969 182.722656 244.574219 C 184.03125 244.386719 185.324219 244.097656 186.589844 243.714844 Z M 186.589844 243.714844 " fill-opacity="1" fill-rule="nonzero"/><g clip-path="url(#41cc1975f4)"><path fill="#f6f6f6" d="M 195.84375 243.714844 C 195.867188 244.84375 195.898438 245.996094 195.941406 247.140625 C 196.140625 252.105469 196.609375 256.847656 197.628906 258.535156 C 200.082031 262.582031 214.789062 264.054688 216.875 260.375 C 218.957031 256.691406 212.09375 253.132812 212.09375 253.132812 C 212.617188 251.703125 212.742188 249.199219 212.644531 246.332031 C 212.609375 245.234375 212.539062 244.082031 212.441406 242.914062 C 211.921875 236.429688 210.675781 229.53125 210.378906 229.085938 L 195.914062 232.765625 C 195.914062 232.765625 195.738281 237.941406 195.84375 243.714844 Z M 195.84375 243.714844 " fill-opacity="1" fill-rule="nonzero"/></g><path fill="#54a3e6" d="M 195.84375 243.714844 C 195.867188 244.84375 195.898438 245.996094 195.941406 247.140625 C 197.488281 247.542969 199.070312 247.800781 200.660156 247.945312 C 202.527344 248.113281 204.414062 248.082031 206.277344 247.851562 C 208.277344 247.601562 210.242188 247.1875 212.144531 246.515625 C 212.3125 246.453125 212.476562 246.394531 212.644531 246.332031 C 212.609375 245.234375 212.535156 244.082031 212.441406 242.914062 C 212.4375 242.917969 212.4375 242.917969 212.433594 242.917969 C 210.476562 243.722656 208.421875 244.273438 206.328125 244.574219 C 205.890625 244.628906 205.457031 244.671875 205.019531 244.707031 C 203.253906 244.839844 201.472656 244.792969 199.714844 244.574219 C 198.40625 244.386719 197.109375 244.097656 195.84375 243.714844 Z M 195.84375 243.714844 " fill-opacity="1" fill-rule="nonzero"/><path fill="#54a3e6" d="M 189.027344 242.828125 C 188.898438 242.886719 188.769531 242.941406 188.636719 242.996094 C 188.695312 242.972656 188.753906 242.945312 188.808594 242.921875 C 188.882812 242.890625 188.953125 242.859375 189.027344 242.828125 Z M 189.027344 242.828125 " fill-opacity="1" fill-rule="nonzero"/><path fill="#54a3e6" d="M 218.632812 212.285156 C 218.242188 212.394531 217.851562 212.496094 217.457031 212.59375 C 214.585938 213.304688 211.640625 213.640625 208.699219 213.859375 C 205.769531 214.082031 202.839844 214.257812 199.90625 214.425781 C 196.964844 214.59375 194.019531 214.726562 191.074219 214.777344 C 188.121094 214.828125 185.160156 214.792969 182.210938 214.628906 C 179.355469 214.46875 176.507812 214.171875 173.679688 213.738281 C 171.277344 213.367188 168.890625 212.878906 166.542969 212.25 C 166.257812 212.171875 165.972656 212.09375 165.6875 212.011719 C 165.410156 211.933594 165.128906 211.851562 164.847656 211.765625 C 164.855469 210.628906 164.902344 209.5 164.984375 208.390625 C 166.582031 208.894531 168.203125 209.324219 169.839844 209.695312 C 171.796875 210.136719 173.777344 210.488281 175.761719 210.761719 C 175.972656 210.789062 176.183594 210.816406 176.390625 210.84375 C 178.695312 211.125 181.007812 211.308594 183.328125 211.414062 C 185.789062 211.527344 188.257812 211.550781 190.726562 211.511719 C 193.195312 211.476562 195.660156 211.378906 198.128906 211.253906 C 200.59375 211.125 203.058594 210.96875 205.523438 210.808594 C 207.867188 210.652344 210.214844 210.511719 212.546875 210.214844 C 213.375 210.097656 214.203125 209.960938 215.027344 209.792969 C 216.125 209.570312 217.214844 209.296875 218.292969 208.980469 C 218.441406 210.0625 218.558594 211.167969 218.632812 212.285156 Z M 218.632812 212.285156 " fill-opacity="1" fill-rule="nonzero"/><path fill="#f6f6f6" d="M 231.734375 140.078125 C 231.558594 140.089844 231.34375 120.773438 231.34375 120.773438 L 235.859375 120.363281 C 235.859375 120.363281 238.828125 143.96875 238.390625 144.050781 C 237.949219 144.128906 231.738281 140.078125 231.738281 140.078125 Z M 231.734375 140.078125 " fill-opacity="1" fill-rule="nonzero"/><path fill="#f6f6f6" d="M 237.25 117.296875 C 237.25 117.566406 237.226562 117.832031 237.171875 118.09375 C 237.121094 118.355469 237.042969 118.609375 236.941406 118.855469 C 236.839844 119.105469 236.714844 119.339844 236.566406 119.5625 C 236.417969 119.785156 236.25 119.988281 236.058594 120.179688 C 235.871094 120.367188 235.664062 120.535156 235.445312 120.683594 C 235.222656 120.832031 234.988281 120.957031 234.742188 121.0625 C 234.492188 121.164062 234.238281 121.242188 233.976562 121.292969 C 233.714844 121.34375 233.449219 121.371094 233.183594 121.371094 C 232.917969 121.371094 232.652344 121.34375 232.390625 121.292969 C 232.128906 121.242188 231.875 121.164062 231.625 121.0625 C 231.378906 120.957031 231.144531 120.832031 230.921875 120.683594 C 230.703125 120.535156 230.496094 120.367188 230.308594 120.179688 C 230.117188 119.988281 229.949219 119.785156 229.800781 119.5625 C 229.652344 119.339844 229.527344 119.105469 229.425781 118.855469 C 229.324219 118.609375 229.246094 118.355469 229.195312 118.09375 C 229.140625 117.832031 229.117188 117.566406 229.117188 117.296875 C 229.117188 117.03125 229.140625 116.765625 229.195312 116.503906 C 229.246094 116.242188 229.324219 115.988281 229.425781 115.738281 C 229.527344 115.492188 229.652344 115.257812 229.800781 115.035156 C 229.949219 114.8125 230.117188 114.609375 230.308594 114.417969 C 230.496094 114.230469 230.703125 114.0625 230.921875 113.914062 C 231.144531 113.765625 231.378906 113.636719 231.625 113.535156 C 231.875 113.433594 232.128906 113.355469 232.390625 113.304688 C 232.652344 113.253906 232.917969 113.226562 233.183594 113.226562 C 233.449219 113.226562 233.714844 113.253906 233.976562 113.304688 C 234.238281 113.355469 234.492188 113.433594 234.742188 113.535156 C 234.988281 113.636719 235.222656 113.765625 235.445312 113.914062 C 235.664062 114.0625 235.871094 114.230469 236.058594 114.417969 C 236.25 114.609375 236.417969 114.8125 236.566406 115.035156 C 236.714844 115.257812 236.839844 115.492188 236.941406 115.738281 C 237.042969 115.988281 237.121094 116.242188 237.171875 116.503906 C 237.226562 116.765625 237.25 117.03125 237.25 117.296875 Z M 237.25 117.296875 " fill-opacity="1" fill-rule="nonzero"/><g clip-path="url(#0c5bab78ae)"><path fill="#54a3e6" d="M 236.347656 167.5 L 234.46875 167.746094 C 230.089844 168.320312 226.070312 165.230469 225.496094 160.84375 L 223.550781 146.015625 C 222.976562 141.628906 226.0625 137.605469 230.445312 137.03125 L 232.324219 136.78125 C 236.707031 136.207031 240.726562 139.296875 241.300781 143.683594 L 243.242188 158.511719 C 243.816406 162.898438 240.730469 166.921875 236.347656 167.5 Z M 236.347656 167.5 " fill-opacity="1" fill-rule="nonzero"/></g><path fill="#f6f6f6" d="M 143.578125 150.964844 C 143.753906 150.925781 138.394531 132.367188 138.394531 132.367188 L 133.949219 133.28125 C 133.949219 133.28125 137.910156 156.742188 138.355469 156.691406 C 138.796875 156.640625 143.578125 150.964844 143.578125 150.964844 Z M 143.578125 150.964844 " fill-opacity="1" fill-rule="nonzero"/><g clip-path="url(#476507261a)"><path fill="#f6f6f6" d="M 139.699219 129.574219 C 139.699219 129.839844 139.671875 130.105469 139.621094 130.367188 C 139.566406 130.628906 139.492188 130.882812 139.390625 131.132812 C 139.285156 131.378906 139.160156 131.613281 139.011719 131.835938 C 138.863281 132.058594 138.695312 132.265625 138.507812 132.453125 C 138.316406 132.640625 138.113281 132.8125 137.890625 132.960938 C 137.667969 133.109375 137.433594 133.234375 137.1875 133.335938 C 136.941406 133.4375 136.6875 133.515625 136.425781 133.566406 C 136.160156 133.621094 135.898438 133.644531 135.628906 133.644531 C 135.363281 133.644531 135.097656 133.621094 134.835938 133.566406 C 134.574219 133.515625 134.320312 133.4375 134.074219 133.335938 C 133.828125 133.234375 133.59375 133.109375 133.371094 132.960938 C 133.148438 132.8125 132.941406 132.640625 132.753906 132.453125 C 132.566406 132.265625 132.394531 132.058594 132.246094 131.835938 C 132.097656 131.613281 131.972656 131.378906 131.871094 131.132812 C 131.769531 130.882812 131.691406 130.628906 131.640625 130.367188 C 131.589844 130.105469 131.5625 129.839844 131.5625 129.574219 C 131.5625 129.304688 131.589844 129.039062 131.640625 128.777344 C 131.691406 128.515625 131.769531 128.261719 131.871094 128.015625 C 131.972656 127.769531 132.097656 127.53125 132.246094 127.3125 C 132.394531 127.089844 132.566406 126.882812 132.753906 126.695312 C 132.941406 126.503906 133.148438 126.335938 133.371094 126.1875 C 133.59375 126.039062 133.828125 125.914062 134.074219 125.8125 C 134.320312 125.707031 134.574219 125.632812 134.835938 125.578125 C 135.097656 125.527344 135.363281 125.5 135.628906 125.5 C 135.898438 125.5 136.160156 125.527344 136.425781 125.578125 C 136.6875 125.632812 136.941406 125.707031 137.1875 125.8125 C 137.433594 125.914062 137.667969 126.039062 137.890625 126.1875 C 138.113281 126.335938 138.316406 126.503906 138.507812 126.695312 C 138.695312 126.882812 138.863281 127.089844 139.011719 127.3125 C 139.160156 127.53125 139.285156 127.769531 139.390625 128.015625 C 139.492188 128.261719 139.566406 128.515625 139.621094 128.777344 C 139.671875 129.039062 139.699219 129.304688 139.699219 129.574219 Z M 139.699219 129.574219 " fill-opacity="1" fill-rule="nonzero"/></g><path fill="#54a3e6" d="M 147.066406 178.550781 L 148.9375 178.246094 C 153.296875 177.53125 156.253906 173.414062 155.539062 169.046875 L 153.128906 154.289062 C 152.414062 149.921875 148.296875 146.960938 143.9375 147.675781 L 142.066406 147.980469 C 137.707031 148.695312 134.75 152.816406 135.460938 157.183594 L 137.875 171.941406 C 138.589844 176.308594 142.703125 179.265625 147.066406 178.550781 Z M 147.066406 178.550781 " fill-opacity="1" fill-rule="nonzero"/><g clip-path="url(#95534fa0e3)"><path fill="#f6f6f6" d="M 235.394531 153.132812 C 238.710938 176.441406 220.699219 194.171875 195.5625 197.757812 C 170.425781 201.34375 147.683594 189.425781 144.367188 166.117188 C 141.050781 142.8125 148.226562 118.769531 183.546875 113.359375 C 219.070312 107.917969 232.078125 129.828125 235.394531 153.132812 Z M 235.394531 153.132812 " fill-opacity="1" fill-rule="nonzero"/></g><path fill="#160e0b" d="M 170.453125 134.222656 C 170.453125 134.222656 155.230469 137.234375 153.835938 150.921875 C 152.515625 163.820312 154.320312 185.058594 179.675781 188.253906 C 205.027344 191.449219 223.582031 179.597656 226.40625 162.9375 C 229.230469 146.277344 222.191406 132.675781 212.507812 130.597656 C 199.191406 127.742188 170.453125 134.222656 170.453125 134.222656 Z M 170.453125 134.222656 " fill-opacity="1" fill-rule="nonzero"/><path fill="#54a3e6" d="M 179.195312 167.160156 C 179.554688 167.039062 182.71875 169.03125 190.90625 168.1875 C 198.777344 167.375 201.261719 164.1875 202.15625 164.890625 C 203.410156 165.882812 199.789062 176.25 190.921875 176.546875 C 182.058594 176.839844 176.8125 167.949219 179.195312 167.160156 Z M 179.195312 167.160156 " fill-opacity="1" fill-rule="nonzero"/><path fill="#54a3e6" d="M 213.992188 152.03125 C 214.03125 152.546875 214.039062 153.054688 214.007812 153.566406 C 213.976562 154.074219 213.910156 154.570312 213.808594 155.054688 C 213.707031 155.539062 213.574219 156.003906 213.40625 156.445312 C 213.234375 156.886719 213.039062 157.300781 212.808594 157.683594 C 212.578125 158.066406 212.324219 158.414062 212.046875 158.722656 C 211.765625 159.03125 211.464844 159.300781 211.144531 159.523438 C 210.820312 159.746094 210.484375 159.921875 210.136719 160.050781 C 209.785156 160.179688 209.429688 160.257812 209.066406 160.289062 C 208.699219 160.316406 208.335938 160.296875 207.96875 160.226562 C 207.601562 160.152344 207.242188 160.035156 206.890625 159.863281 C 206.539062 159.695312 206.199219 159.480469 205.871094 159.222656 C 205.546875 158.960938 205.238281 158.660156 204.953125 158.316406 C 204.667969 157.976562 204.402344 157.601562 204.167969 157.191406 C 203.929688 156.78125 203.722656 156.34375 203.546875 155.882812 C 203.367188 155.417969 203.222656 154.9375 203.113281 154.441406 C 203 153.945312 202.921875 153.441406 202.882812 152.925781 C 202.839844 152.414062 202.835938 151.902344 202.867188 151.394531 C 202.898438 150.886719 202.964844 150.390625 203.066406 149.90625 C 203.167969 149.421875 203.300781 148.957031 203.46875 148.515625 C 203.636719 148.070312 203.835938 147.660156 204.066406 147.273438 C 204.292969 146.890625 204.550781 146.546875 204.828125 146.234375 C 205.109375 145.925781 205.410156 145.660156 205.730469 145.4375 C 206.054688 145.214844 206.386719 145.039062 206.738281 144.910156 C 207.085938 144.78125 207.445312 144.699219 207.808594 144.671875 C 208.175781 144.640625 208.539062 144.664062 208.90625 144.734375 C 209.269531 144.804688 209.628906 144.925781 209.984375 145.09375 C 210.335938 145.265625 210.675781 145.480469 211 145.738281 C 211.328125 146 211.632812 146.300781 211.921875 146.640625 C 212.207031 146.984375 212.46875 147.359375 212.707031 147.769531 C 212.945312 148.179688 213.152344 148.617188 213.328125 149.078125 C 213.507812 149.539062 213.652344 150.019531 213.761719 150.519531 C 213.875 151.015625 213.949219 151.519531 213.992188 152.03125 Z M 213.992188 152.03125 " fill-opacity="1" fill-rule="nonzero"/><path fill="#54a3e6" d="M 177.234375 156.421875 C 177.273438 156.933594 177.277344 157.445312 177.25 157.953125 C 177.21875 158.460938 177.152344 158.960938 177.050781 159.445312 C 176.949219 159.929688 176.8125 160.394531 176.644531 160.835938 C 176.476562 161.277344 176.277344 161.691406 176.050781 162.074219 C 175.820312 162.457031 175.566406 162.804688 175.285156 163.113281 C 175.003906 163.421875 174.703125 163.6875 174.382812 163.914062 C 174.0625 164.136719 173.726562 164.3125 173.378906 164.441406 C 173.027344 164.570312 172.671875 164.648438 172.304688 164.679688 C 171.941406 164.707031 171.574219 164.6875 171.210938 164.613281 C 170.84375 164.542969 170.484375 164.425781 170.132812 164.253906 C 169.777344 164.085938 169.441406 163.871094 169.113281 163.609375 C 168.789062 163.351562 168.480469 163.050781 168.195312 162.707031 C 167.90625 162.367188 167.644531 161.988281 167.40625 161.578125 C 167.171875 161.167969 166.964844 160.734375 166.785156 160.269531 C 166.609375 159.808594 166.464844 159.328125 166.351562 158.832031 C 166.242188 158.335938 166.164062 157.828125 166.125 157.316406 C 166.082031 156.804688 166.078125 156.292969 166.105469 155.785156 C 166.136719 155.277344 166.203125 154.78125 166.304688 154.296875 C 166.40625 153.808594 166.542969 153.347656 166.710938 152.902344 C 166.878906 152.460938 167.078125 152.046875 167.304688 151.664062 C 167.535156 151.28125 167.789062 150.933594 168.070312 150.625 C 168.351562 150.316406 168.652344 150.050781 168.972656 149.828125 C 169.292969 149.605469 169.628906 149.425781 169.980469 149.296875 C 170.328125 149.171875 170.683594 149.089844 171.050781 149.0625 C 171.414062 149.03125 171.78125 149.054688 172.144531 149.125 C 172.511719 149.195312 172.871094 149.316406 173.222656 149.484375 C 173.578125 149.652344 173.914062 149.867188 174.242188 150.128906 C 174.566406 150.390625 174.875 150.691406 175.160156 151.03125 C 175.449219 151.375 175.710938 151.75 175.949219 152.160156 C 176.183594 152.570312 176.390625 153.007812 176.570312 153.46875 C 176.746094 153.929688 176.890625 154.410156 177.003906 154.90625 C 177.113281 155.40625 177.191406 155.910156 177.234375 156.421875 Z M 177.234375 156.421875 " fill-opacity="1" fill-rule="nonzero"/><path fill="#54a3e6" d="M 168.976562 164.316406 Z M 168.980469 164.316406 Z M 165.480469 153.78125 C 165.480469 153.78125 165.484375 153.78125 165.484375 153.78125 C 165.484375 153.78125 165.480469 153.78125 165.480469 153.78125 Z M 165.480469 153.78125 Z M 165.480469 153.78125 " fill-opacity="1" fill-rule="nonzero"/><path fill="#f6f6f6" d="M 223.824219 210.539062 C 220.769531 209.984375 217.425781 207.863281 214.484375 205.207031 C 213.558594 204.367188 212.667969 203.476562 211.84375 202.5625 C 211.839844 202.5625 211.839844 202.5625 211.839844 202.5625 C 209.316406 199.769531 207.375 196.785156 206.644531 194.535156 C 206.644531 194.535156 201.121094 192.964844 200.808594 186.703125 C 200.277344 176.078125 210.226562 176.078125 210.226562 176.078125 C 210.226562 176.078125 204.058594 172.027344 204.457031 168.710938 C 204.855469 165.390625 207.042969 165.390625 209.628906 166.054688 C 212.214844 166.71875 217.125 172.359375 217.191406 172.625 C 217.257812 172.890625 218.25 171.628906 221.367188 172.492188 C 224.484375 173.355469 222.363281 185.042969 222.230469 185.175781 C 222.140625 185.261719 225.628906 189.492188 228.292969 193.835938 C 228.871094 194.78125 229.414062 195.730469 229.867188 196.644531 C 230.457031 197.824219 230.90625 198.945312 231.117188 199.914062 C 232.246094 205.09375 230.785156 211.796875 223.824219 210.539062 Z M 223.824219 210.539062 " fill-opacity="1" fill-rule="nonzero"/><path fill="#160e0b" d="M 223.824219 210.863281 C 223.804688 210.863281 223.785156 210.863281 223.765625 210.859375 C 222.070312 210.554688 220.222656 209.769531 218.269531 208.527344 C 216.539062 207.429688 214.730469 205.964844 213.039062 204.289062 C 209.855469 201.132812 207.320312 197.515625 206.386719 194.796875 C 205.964844 194.652344 204.816406 194.199219 203.636719 193.21875 C 202.777344 192.511719 202.082031 191.671875 201.566406 190.726562 C 200.921875 189.542969 200.554688 188.195312 200.480469 186.71875 C 200.316406 183.371094 201.152344 180.707031 202.964844 178.796875 C 204.464844 177.222656 206.355469 176.476562 207.679688 176.132812 C 208.304688 175.96875 208.863281 175.875 209.292969 175.820312 C 208.699219 175.382812 207.828125 174.699219 206.964844 173.875 C 204.90625 171.90625 203.953125 170.15625 204.132812 168.671875 C 204.292969 167.320312 204.746094 166.410156 205.511719 165.886719 C 206.660156 165.097656 208.277344 165.371094 209.710938 165.738281 C 211.144531 166.105469 213.152344 167.855469 214.582031 169.257812 C 215.507812 170.160156 216.238281 170.964844 216.589844 171.363281 C 217.003906 171.832031 217.226562 172.109375 217.351562 172.277344 C 217.878906 172.039062 219.085938 171.523438 221.457031 172.179688 C 222.199219 172.386719 222.734375 173.089844 223.046875 174.269531 C 223.546875 176.164062 223.402344 179.019531 223.191406 181.078125 C 223.0625 182.386719 222.894531 183.464844 222.804688 183.988281 C 222.589844 185.277344 222.535156 185.335938 222.460938 185.40625 C 222.335938 185.535156 222.128906 185.535156 222 185.40625 C 221.898438 185.304688 221.878906 185.152344 221.9375 185.03125 C 222.019531 184.757812 222.421875 182.640625 222.621094 180.152344 C 222.875 176.992188 222.695312 174.71875 222.097656 173.574219 C 221.875 173.148438 221.609375 172.898438 221.28125 172.808594 C 219.105469 172.207031 218.046875 172.679688 217.59375 172.882812 C 217.40625 172.964844 217.246094 173.039062 217.070312 172.953125 C 216.988281 172.910156 216.921875 172.839844 216.886719 172.75 C 216.746094 172.519531 215.570312 171.125 214.019531 169.617188 C 212.125 167.777344 210.539062 166.625 209.550781 166.371094 C 208.332031 166.058594 206.816406 165.78125 205.878906 166.425781 C 205.277344 166.835938 204.917969 167.597656 204.78125 168.75 C 204.632812 170 205.542969 171.609375 207.417969 173.402344 C 208.871094 174.792969 210.390625 175.796875 210.40625 175.804688 C 210.527344 175.886719 210.582031 176.035156 210.539062 176.171875 C 210.5 176.3125 210.371094 176.40625 210.226562 176.40625 C 210.214844 176.40625 209.179688 176.410156 207.824219 176.769531 C 206.585938 177.09375 204.820312 177.789062 203.433594 179.25 C 201.75 181.027344 200.976562 183.527344 201.132812 186.6875 C 201.261719 189.1875 202.242188 191.214844 204.050781 192.714844 C 205.402344 193.835938 206.722656 194.21875 206.734375 194.222656 C 206.839844 194.253906 206.921875 194.332031 206.957031 194.4375 C 207.800781 197.039062 210.367188 200.722656 213.5 203.824219 C 217.039062 207.332031 220.824219 209.664062 223.882812 210.214844 C 224.058594 210.25 224.175781 210.417969 224.144531 210.597656 C 224.117188 210.753906 223.980469 210.863281 223.824219 210.863281 Z M 222 184.945312 Z M 222 184.945312 Z M 216.894531 172.761719 Z M 216.875 172.707031 Z M 216.875 172.707031 " fill-opacity="1" fill-rule="nonzero"/><path fill="#160e0b" d="M 217.152344 173.582031 C 218.945312 175.226562 219.160156 177.796875 219.253906 180.082031 C 219.269531 180.457031 219.855469 180.460938 219.839844 180.082031 C 219.761719 178.121094 219.605469 176.058594 218.539062 174.347656 C 218.269531 173.914062 217.945312 173.511719 217.566406 173.164062 C 217.289062 172.910156 216.871094 173.324219 217.152344 173.582031 Z M 217.152344 173.582031 " fill-opacity="1" fill-rule="nonzero"/><path fill="#160e0b" d="M 207.582031 193.5 C 209.5625 193.253906 211.464844 192.496094 213.058594 191.289062 C 213.28125 191.117188 213.5 190.941406 213.714844 190.753906 C 213.8125 190.667969 213.910156 190.578125 214.007812 190.484375 C 214.097656 190.402344 214.207031 190.25 214.316406 190.199219 L 214.089844 190.230469 L 214.132812 190.238281 L 213.957031 190.101562 L 213.96875 190.121094 L 213.9375 189.894531 L 213.929688 189.917969 L 214.003906 189.785156 L 213.988281 189.804688 L 214.117188 189.726562 L 214.097656 189.734375 L 214.429688 189.867188 L 214.421875 189.851562 C 214.246094 189.515625 213.738281 189.8125 213.914062 190.148438 L 213.921875 190.164062 C 213.984375 190.28125 214.132812 190.328125 214.253906 190.300781 C 214.613281 190.214844 214.578125 189.683594 214.207031 189.65625 C 213.925781 189.636719 213.703125 189.96875 213.515625 190.144531 C 213.121094 190.503906 212.707031 190.835938 212.261719 191.136719 C 211.375 191.738281 210.398438 192.207031 209.371094 192.523438 C 208.789062 192.703125 208.1875 192.835938 207.582031 192.914062 C 207.425781 192.933594 207.289062 193.035156 207.289062 193.207031 C 207.289062 193.351562 207.421875 193.519531 207.582031 193.5 Z M 207.582031 193.5 " fill-opacity="1" fill-rule="nonzero"/><path fill="#54a3e6" d="M 224.722656 197.125 C 224.726562 197.121094 224.726562 197.121094 224.730469 197.117188 C 225.132812 196.800781 225.527344 196.476562 225.914062 196.140625 C 226.75 195.414062 227.542969 194.644531 228.292969 193.835938 C 228.871094 194.78125 229.414062 195.730469 229.867188 196.644531 C 228.421875 198.113281 226.832031 199.441406 225.136719 200.613281 C 223.089844 202.03125 220.867188 203.164062 218.539062 204.035156 C 217.21875 204.527344 215.863281 204.917969 214.484375 205.207031 C 213.558594 204.367188 212.667969 203.476562 211.84375 202.5625 C 211.78125 202.570312 211.71875 202.578125 211.660156 202.585938 C 211.71875 202.578125 211.78125 202.570312 211.839844 202.5625 C 211.839844 202.5625 211.84375 202.5625 211.84375 202.5625 L 211.851562 202.558594 C 214.175781 202.226562 216.449219 201.605469 218.621094 200.707031 " fill-opacity="1" fill-rule="nonzero"/><path fill="#f6f6f6" d="M 179.574219 187.898438 C 179.261719 194.160156 173.738281 195.730469 173.738281 195.730469 C 172.871094 198.410156 170.28125 202.132812 167.035156 205.328125 C 166.257812 206.097656 165.4375 206.835938 164.59375 207.523438 C 161.992188 209.640625 159.171875 211.261719 156.5625 211.734375 C 149.597656 212.996094 148.136719 206.289062 149.265625 201.109375 C 149.671875 199.242188 150.957031 196.824219 152.429688 194.488281 C 153.011719 193.5625 153.621094 192.652344 154.21875 191.796875 C 156.300781 188.800781 158.21875 186.4375 158.152344 186.371094 C 158.019531 186.238281 155.898438 174.550781 159.015625 173.6875 C 162.132812 172.828125 163.128906 174.085938 163.191406 173.820312 C 163.257812 173.554688 168.167969 167.914062 170.753906 167.25 C 173.339844 166.585938 175.53125 166.585938 175.925781 169.90625 C 176.324219 173.222656 170.15625 177.273438 170.15625 177.273438 C 170.15625 177.273438 180.105469 177.273438 179.574219 187.898438 Z M 179.574219 187.898438 " fill-opacity="1" fill-rule="nonzero"/><path fill="#54a3e6" d="M 167.035156 205.328125 C 166.253906 206.097656 165.4375 206.835938 164.59375 207.523438 C 163.449219 206.886719 162.371094 206.136719 161.355469 205.300781 C 160.621094 204.699219 159.9375 204.039062 159.300781 203.332031 C 158.492188 202.429688 157.761719 201.457031 157.023438 200.492188 C 155.609375 198.640625 154.195312 196.792969 152.777344 194.941406 C 152.664062 194.789062 152.546875 194.640625 152.429688 194.488281 C 153.011719 193.5625 153.621094 192.652344 154.21875 191.796875 C 156.148438 194.320312 158.070312 196.851562 160.011719 199.367188 C 160.019531 199.378906 160.027344 199.390625 160.039062 199.402344 C 161.171875 200.859375 162.386719 202.214844 163.835938 203.367188 C 164.835938 204.121094 165.910156 204.777344 167.035156 205.328125 Z M 167.035156 205.328125 " fill-opacity="1" fill-rule="nonzero"/><path fill="#160e0b" d="M 156.558594 212.058594 C 156.40625 212.058594 156.269531 211.949219 156.238281 211.792969 C 156.207031 211.613281 156.324219 211.445312 156.503906 211.410156 C 159.558594 210.859375 163.34375 208.527344 166.886719 205.019531 C 170.015625 201.917969 172.582031 198.234375 173.429688 195.632812 C 173.460938 195.527344 173.546875 195.449219 173.648438 195.417969 C 173.664062 195.414062 175 195.019531 176.351562 193.894531 C 178.148438 192.394531 179.125 190.371094 179.25 187.882812 C 179.40625 184.722656 178.632812 182.222656 176.949219 180.445312 C 175.5625 178.984375 173.796875 178.289062 172.558594 177.964844 C 171.203125 177.605469 170.167969 177.601562 170.15625 177.601562 C 170.011719 177.601562 169.886719 177.507812 169.84375 177.367188 C 169.804688 177.230469 169.859375 177.082031 169.976562 177 C 169.992188 176.992188 171.519531 175.984375 172.972656 174.59375 C 174.84375 172.800781 175.753906 171.195312 175.601562 169.945312 C 175.464844 168.792969 175.105469 168.03125 174.503906 167.621094 C 173.566406 166.976562 172.050781 167.253906 170.835938 167.566406 C 169.847656 167.820312 168.257812 168.972656 166.363281 170.8125 C 164.816406 172.320312 163.640625 173.714844 163.496094 173.945312 C 163.464844 174.035156 163.398438 174.109375 163.3125 174.148438 C 163.136719 174.234375 162.976562 174.160156 162.789062 174.078125 C 162.335938 173.875 161.277344 173.402344 159.101562 174.003906 C 158.777344 174.09375 158.511719 174.34375 158.289062 174.769531 C 157.6875 175.914062 157.507812 178.191406 157.761719 181.347656 C 157.960938 183.835938 158.363281 185.957031 158.445312 186.226562 C 158.507812 186.347656 158.484375 186.5 158.382812 186.601562 C 158.257812 186.730469 158.050781 186.730469 157.921875 186.601562 C 157.851562 186.53125 157.792969 186.472656 157.578125 185.183594 C 157.492188 184.660156 157.324219 183.582031 157.191406 182.277344 C 156.984375 180.214844 156.839844 177.359375 157.335938 175.464844 C 157.648438 174.285156 158.183594 173.582031 158.929688 173.375 C 161.296875 172.71875 162.507812 173.234375 163.035156 173.472656 C 163.15625 173.304688 163.382812 173.027344 163.792969 172.558594 C 164.148438 172.160156 164.878906 171.355469 165.800781 170.453125 C 167.230469 169.050781 169.238281 167.300781 170.671875 166.933594 C 172.105469 166.566406 173.726562 166.296875 174.875 167.082031 C 175.640625 167.605469 176.089844 168.515625 176.253906 169.867188 C 176.429688 171.351562 175.476562 173.101562 173.417969 175.070312 C 172.554688 175.894531 171.683594 176.578125 171.089844 177.015625 C 171.523438 177.070312 172.078125 177.164062 172.703125 177.328125 C 174.027344 177.671875 175.921875 178.417969 177.417969 179.992188 C 179.234375 181.902344 180.070312 184.566406 179.902344 187.914062 C 179.828125 189.390625 179.464844 190.738281 178.820312 191.921875 C 178.300781 192.867188 177.605469 193.707031 176.75 194.414062 C 175.566406 195.394531 174.417969 195.847656 173.996094 195.992188 C 173.0625 198.710938 170.53125 202.328125 167.34375 205.484375 C 165.652344 207.160156 163.84375 208.625 162.117188 209.722656 C 160.164062 210.964844 158.3125 211.75 156.621094 212.054688 C 156.601562 212.058594 156.582031 212.058594 156.5625 212.058594 Z M 158.382812 186.140625 C 158.382812 186.140625 158.382812 186.140625 158.386719 186.140625 C 158.386719 186.140625 158.386719 186.140625 158.382812 186.140625 Z M 158.382812 186.140625 Z M 163.488281 173.957031 Z M 163.511719 173.902344 Z M 163.511719 173.902344 " fill-opacity="1" fill-rule="nonzero"/><path fill="#160e0b" d="M 162.816406 174.359375 C 161.382812 175.671875 160.847656 177.621094 160.65625 179.496094 C 160.597656 180.085938 160.566406 180.683594 160.542969 181.277344 C 160.527344 181.65625 161.117188 181.652344 161.132812 181.277344 C 161.222656 178.992188 161.4375 176.417969 163.234375 174.777344 C 163.511719 174.519531 163.09375 174.105469 162.816406 174.359375 Z M 162.816406 174.359375 " fill-opacity="1" fill-rule="nonzero"/><path fill="#160e0b" d="M 172.800781 194.105469 C 170.683594 193.84375 168.640625 192.914062 167.046875 191.5 C 166.925781 191.390625 166.808594 191.285156 166.695312 191.171875 C 166.585938 191.066406 166.480469 190.921875 166.328125 190.871094 C 166.148438 190.808594 165.933594 190.890625 165.878906 191.089844 C 165.832031 191.261719 165.957031 191.453125 166.128906 191.492188 C 166.25 191.523438 166.398438 191.476562 166.460938 191.359375 L 166.46875 191.34375 C 166.644531 191.007812 166.136719 190.710938 165.960938 191.046875 L 165.953125 191.0625 L 166.285156 190.925781 L 166.265625 190.921875 L 166.394531 190.996094 L 166.378906 190.980469 L 166.453125 191.109375 L 166.445312 191.089844 C 166.433594 191.164062 166.425781 191.238281 166.414062 191.316406 L 166.425781 191.296875 C 166.367188 191.339844 166.308594 191.386719 166.25 191.429688 L 166.292969 191.421875 L 166.066406 191.394531 C 166.15625 191.433594 166.242188 191.554688 166.316406 191.625 C 166.40625 191.710938 166.496094 191.796875 166.589844 191.878906 C 166.773438 192.042969 166.964844 192.203125 167.160156 192.355469 C 167.550781 192.660156 167.957031 192.941406 168.382812 193.195312 C 169.242188 193.703125 170.171875 194.101562 171.132812 194.367188 C 171.679688 194.519531 172.238281 194.625 172.800781 194.695312 C 172.957031 194.714844 173.09375 194.546875 173.09375 194.402344 C 173.09375 194.226562 172.960938 194.125 172.800781 194.105469 Z M 172.800781 194.105469 " fill-opacity="1" fill-rule="nonzero"/><path fill="#54a3e6" d="M 187.441406 206.355469 L 195.472656 206.355469 C 195.632812 206.355469 195.789062 206.386719 195.941406 206.449219 C 196.089844 206.511719 196.222656 206.597656 196.335938 206.714844 C 196.453125 206.828125 196.539062 206.960938 196.601562 207.113281 C 196.664062 207.261719 196.695312 207.417969 196.695312 207.582031 L 196.695312 207.984375 C 196.695312 208.144531 196.664062 208.304688 196.601562 208.453125 C 196.539062 208.601562 196.453125 208.734375 196.335938 208.851562 C 196.222656 208.964844 196.089844 209.054688 195.941406 209.117188 C 195.789062 209.179688 195.632812 209.210938 195.472656 209.210938 L 187.441406 209.210938 C 187.28125 209.210938 187.125 209.179688 186.972656 209.117188 C 186.824219 209.054688 186.691406 208.964844 186.574219 208.851562 C 186.460938 208.734375 186.371094 208.601562 186.308594 208.453125 C 186.25 208.304688 186.21875 208.144531 186.21875 207.984375 L 186.21875 207.582031 C 186.21875 207.417969 186.25 207.261719 186.308594 207.113281 C 186.371094 206.960938 186.460938 206.828125 186.574219 206.714844 C 186.691406 206.597656 186.824219 206.511719 186.972656 206.449219 C 187.125 206.386719 187.28125 206.355469 187.441406 206.355469 Z M 187.441406 206.355469 " fill-opacity="1" fill-rule="nonzero"/><path fill="#54a3e6" d="M 205.214844 202.574219 C 205.269531 202.582031 205.324219 202.589844 205.378906 202.597656 C 205.242188 202.578125 205.105469 202.558594 204.96875 202.542969 C 205.050781 202.554688 205.128906 202.5625 205.210938 202.574219 C 205.210938 202.574219 205.214844 202.574219 205.214844 202.574219 Z M 205.214844 202.574219 " fill-opacity="1" fill-rule="nonzero"/><path fill="#54a3e6" d="M 167.808594 205.6875 C 167.878906 205.714844 167.949219 205.746094 168.019531 205.777344 C 167.898438 205.726562 167.773438 205.671875 167.652344 205.621094 C 167.703125 205.644531 167.757812 205.664062 167.808594 205.6875 Z M 167.808594 205.6875 " fill-opacity="1" fill-rule="nonzero"/><path fill="#54a3e6" d="M 172.53125 206.957031 C 172.394531 206.9375 172.257812 206.917969 172.121094 206.902344 C 172.191406 206.910156 172.257812 206.917969 172.328125 206.925781 C 172.394531 206.9375 172.464844 206.949219 172.53125 206.957031 Z M 172.53125 206.957031 " fill-opacity="1" fill-rule="nonzero"/><g clip-path="url(#0aa400d758)"><path fill="#1f2b5b" d="M 204.273438 201.726562 L 204.273438 198.503906 L 206.527344 198.503906 C 206.527344 198.503906 206.554688 200.011719 205.980469 200.621094 C 205.402344 201.226562 204.273438 201.726562 204.273438 201.726562 Z M 204.273438 201.726562 " fill-opacity="1" fill-rule="nonzero"/></g><g clip-path="url(#fa007da993)"><g clip-path="url(#1d0e13bd42)"><path fill="url(#51de85d5c3)" d="M 200.523438 198.625 L 200.523438 204.492188 L 206.527344 204.492188 L 206.527344 198.625 Z M 200.523438 198.625 " fill-rule="nonzero"/></g></g><g clip-path="url(#9ff2e5a59e)"><path fill="#1f2b5b" d="M 206.527344 204.265625 L 206.527344 207.484375 L 204.273438 207.484375 C 204.273438 207.484375 204.242188 205.976562 204.820312 205.371094 C 205.394531 204.761719 206.527344 204.265625 206.527344 204.265625 Z M 206.527344 204.265625 " fill-opacity="1" fill-rule="nonzero"/></g><g clip-path="url(#573ea30477)"><g clip-path="url(#a92fe81056)"><path fill="url(#6e87ec1855)" d="M 210.273438 207.363281 L 210.273438 201.5 L 204.273438 201.5 L 204.273438 207.363281 Z M 210.273438 207.363281 " fill-rule="nonzero"/></g></g><g clip-path="url(#f298ea095d)"><g clip-path="url(#c8b3cb1c9a)"><g clip-path="url(#3df414deab)"><path fill="#002d75" d="M 199.808594 105.09375 C 199.847656 105.429688 199.867188 105.765625 199.867188 106.097656 C 198.960938 105.589844 198.003906 105.175781 197.011719 104.867188 C 192.042969 103.316406 186.960938 102.832031 181.917969 103.417969 C 176.871094 104.007812 172.039062 105.648438 167.558594 108.296875 C 166.664062 108.824219 165.828125 109.449219 165.0625 110.152344 C 164.984375 109.828125 164.925781 109.5 164.886719 109.164062 C 164.351562 104.539062 167.671875 100.339844 172.296875 99.800781 L 190.445312 97.6875 C 195.070312 97.148438 199.269531 100.472656 199.808594 105.09375 Z M 199.808594 105.09375 " fill-opacity="1" fill-rule="nonzero"/></g></g></g><g clip-path="url(#e31010da41)"><g clip-path="url(#6318ffb033)"><g clip-path="url(#7551c597a3)"><path fill="#002d75" d="M 199.746094 107.488281 C 198.8125 106.917969 197.777344 106.4375 196.632812 106.078125 C 191.832031 104.585938 186.929688 104.113281 182.066406 104.679688 C 177.195312 105.25 172.53125 106.832031 168.207031 109.390625 C 167.175781 110 166.277344 110.707031 165.5 111.476562 C 165.332031 111.636719 165.175781 111.804688 165.019531 111.972656 C 166.613281 115.453125 170.316406 117.671875 174.324219 117.207031 L 181.5625 116.363281 L 181.453125 115.410156 L 179.15625 115.675781 C 178.226562 115.785156 177.375 115.050781 177.257812 114.035156 C 177.136719 113.019531 177.796875 112.113281 178.730469 112.003906 L 181.023438 111.734375 L 180.757812 109.441406 C 180.648438 108.511719 181.382812 107.660156 182.394531 107.539062 C 183.410156 107.421875 184.320312 108.082031 184.429688 109.015625 L 184.699219 111.308594 L 186.992188 111.039062 C 187.921875 110.933594 188.773438 111.664062 188.890625 112.679688 C 189.007812 113.695312 188.351562 114.605469 187.417969 114.714844 L 185.125 114.980469 L 185.234375 115.933594 L 192.472656 115.089844 C 196.484375 114.625 199.574219 111.613281 200.328125 107.859375 C 200.136719 107.730469 199.945312 107.605469 199.746094 107.488281 Z M 199.746094 107.488281 " fill-opacity="1" fill-rule="nonzero"/></g></g></g><g clip-path="url(#3fe8ee4475)"><g clip-path="url(#156f7d3e77)"><g clip-path="url(#0251a1b306)"><path fill="#ffffff" d="M 200.328125 107.859375 C 200.136719 107.730469 199.945312 107.605469 199.746094 107.488281 C 199.132812 111.089844 196.207031 114.015625 192.398438 114.460938 L 185.164062 115.304688 L 185.308594 116.566406 L 192.546875 115.722656 C 196.730469 115.234375 199.988281 112.144531 200.886719 108.261719 C 200.707031 108.121094 200.519531 107.988281 200.328125 107.859375 Z M 174.25 116.574219 C 170.441406 117.015625 166.921875 114.839844 165.5 111.476562 C 165.332031 111.636719 165.171875 111.804688 165.019531 111.972656 C 164.863281 112.140625 164.710938 112.316406 164.566406 112.492188 C 166.335938 116.066406 170.214844 118.324219 174.398438 117.835938 L 181.636719 116.992188 L 181.488281 115.730469 Z M 174.25 116.574219 " fill-opacity="1" fill-rule="nonzero"/></g></g></g><g clip-path="url(#46c319cd57)"><g clip-path="url(#bad72b8e42)"><g clip-path="url(#cbebf819d0)"><path fill="#002d75" d="M 205.574219 114.390625 C 204.824219 112.386719 203.269531 110.046875 200.886719 108.261719 C 200.707031 108.121094 200.519531 107.988281 200.328125 107.859375 C 200.136719 107.730469 199.945312 107.605469 199.746094 107.488281 C 198.8125 106.917969 197.777344 106.4375 196.632812 106.082031 C 191.832031 104.585938 186.929688 104.113281 182.066406 104.679688 C 177.195312 105.25 172.53125 106.832031 168.207031 109.390625 C 167.175781 110 166.277344 110.707031 165.5 111.476562 C 165.332031 111.636719 165.175781 111.804688 165.019531 111.972656 C 164.863281 112.144531 164.710938 112.316406 164.566406 112.492188 C 162.660156 114.777344 161.6875 117.410156 161.414062 119.535156 C 161.089844 122.089844 161.640625 124.296875 162.925781 125.589844 C 163.65625 126.339844 164.445312 126.875 165.25 127.242188 C 165.457031 127.253906 165.945312 127.265625 166.613281 127.234375 C 166.992188 127.214844 167.429688 127.183594 167.902344 127.125 C 170.296875 126.847656 173.671875 125.988281 175.601562 123.421875 C 175.78125 123.179688 175.945312 122.929688 176.101562 122.660156 C 176.273438 122.355469 176.660156 122.25 176.96875 122.421875 C 177.273438 122.59375 177.378906 122.980469 177.207031 123.289062 C 175.820312 125.730469 173.492188 127.046875 171.242188 127.746094 C 172.609375 127.464844 173.984375 126.941406 175.28125 126.21875 C 178.0625 124.574219 181.070312 123.550781 184.21875 123.183594 C 187.363281 122.816406 190.53125 123.121094 193.628906 124.085938 C 195.421875 124.597656 197.28125 124.765625 198.992188 124.566406 C 201.027344 124.328125 203.808594 123.453125 205.492188 120.636719 C 206.449219 119.078125 206.476562 116.804688 205.574219 114.390625 Z M 179.316406 120.710938 C 178.808594 121.355469 177.871094 121.464844 177.226562 120.953125 C 176.578125 120.441406 176.46875 119.503906 176.980469 118.859375 C 177.492188 118.214844 178.429688 118.105469 179.074219 118.617188 C 179.71875 119.125 179.828125 120.0625 179.316406 120.710938 Z M 185.390625 117.277344 C 185.5 118.207031 184.765625 119.058594 183.75 119.175781 C 182.738281 119.292969 181.828125 118.636719 181.71875 117.703125 L 181.453125 115.410156 L 179.15625 115.675781 C 178.226562 115.785156 177.375 115.050781 177.257812 114.035156 C 177.136719 113.019531 177.796875 112.113281 178.730469 112.003906 L 181.023438 111.734375 L 180.757812 109.441406 C 180.648438 108.511719 181.382812 107.660156 182.394531 107.539062 C 183.410156 107.421875 184.320312 108.082031 184.429688 109.015625 L 184.699219 111.308594 L 186.992188 111.042969 C 187.921875 110.933594 188.773438 111.667969 188.890625 112.679688 C 189.007812 113.695312 188.351562 114.605469 187.417969 114.714844 L 185.125 114.980469 Z M 185.390625 117.277344 " fill-opacity="1" fill-rule="nonzero"/><path fill="#002d75" d="M 205.574219 114.390625 C 204.824219 112.386719 203.269531 110.046875 200.886719 108.261719 C 200.707031 108.121094 200.519531 107.988281 200.328125 107.859375 C 200.136719 107.730469 199.945312 107.605469 199.746094 107.488281 C 198.8125 106.917969 197.777344 106.4375 196.632812 106.082031 C 191.832031 104.585938 186.929688 104.113281 182.066406 104.679688 C 177.195312 105.25 172.53125 106.832031 168.207031 109.390625 C 167.175781 110 166.277344 110.707031 165.5 111.476562 C 165.332031 111.636719 165.175781 111.804688 165.019531 111.972656 C 164.863281 112.144531 164.710938 112.316406 164.566406 112.492188 C 162.660156 114.777344 161.6875 117.410156 161.414062 119.535156 C 161.089844 122.089844 161.640625 124.296875 162.925781 125.589844 C 163.65625 126.339844 164.445312 126.875 165.25 127.242188 C 165.457031 127.253906 165.945312 127.265625 166.613281 127.234375 C 166.992188 127.214844 167.429688 127.183594 167.902344 127.125 C 170.296875 126.847656 173.671875 125.988281 175.601562 123.421875 C 175.78125 123.179688 175.945312 122.929688 176.101562 122.660156 C 176.273438 122.355469 176.660156 122.25 176.96875 122.421875 C 177.273438 122.59375 177.378906 122.980469 177.207031 123.289062 C 175.820312 125.730469 173.492188 127.046875 171.242188 127.746094 C 172.609375 127.464844 173.984375 126.941406 175.28125 126.21875 C 178.0625 124.574219 181.070312 123.550781 184.21875 123.183594 C 187.363281 122.816406 190.53125 123.121094 193.628906 124.085938 C 195.421875 124.597656 197.28125 124.765625 198.992188 124.566406 C 201.027344 124.328125 203.808594 123.453125 205.492188 120.636719 C 206.449219 119.078125 206.476562 116.804688 205.574219 114.390625 Z M 179.316406 120.710938 C 178.808594 121.355469 177.871094 121.464844 177.226562 120.953125 C 176.578125 120.441406 176.46875 119.503906 176.980469 118.859375 C 177.492188 118.214844 178.429688 118.105469 179.074219 118.617188 C 179.71875 119.125 179.828125 120.0625 179.316406 120.710938 Z M 185.390625 117.277344 C 185.5 118.207031 184.765625 119.058594 183.75 119.175781 C 182.738281 119.292969 181.828125 118.636719 181.71875 117.703125 L 181.453125 115.410156 L 179.15625 115.675781 C 178.226562 115.785156 177.375 115.050781 177.257812 114.035156 C 177.136719 113.019531 177.796875 112.113281 178.730469 112.003906 L 181.023438 111.734375 L 180.757812 109.441406 C 180.648438 108.511719 181.382812 107.660156 182.394531 107.539062 C 183.410156 107.421875 184.320312 108.082031 184.429688 109.015625 L 184.699219 111.308594 L 186.992188 111.042969 C 187.921875 110.933594 188.773438 111.667969 188.890625 112.679688 C 189.007812 113.695312 188.351562 114.605469 187.417969 114.714844 L 185.125 114.980469 Z M 185.390625 117.277344 " fill-opacity="1" fill-rule="nonzero"/></g></g></g><g clip-path="url(#62af73b5c7)"><g clip-path="url(#84889c9fe8)"><g clip-path="url(#ea2d337ea3)"><path fill="#002d75" d="M 175.597656 123.417969 C 173.667969 125.988281 170.296875 126.847656 167.902344 127.125 C 167.429688 127.183594 166.992188 127.214844 166.613281 127.234375 Z M 175.597656 123.417969 " fill-opacity="1" fill-rule="nonzero"/></g></g></g></svg>