<svg xmlns="http://www.w3.org/2000/svg" xmlns:xlink="http://www.w3.org/1999/xlink" width="500" zoomAndPan="magnify" viewBox="0 0 375 374.999991" height="500" preserveAspectRatio="xMidYMid meet" version="1.0"><defs><clipPath id="859a1b870d"><path d="M 143 112.5 L 236 112.5 L 236 192 L 143 192 Z M 143 112.5 " clip-rule="nonzero"/></clipPath><clipPath id="f9da5c3ffc"><path d="M 236 205 L 256.25 205 L 256.25 229 L 236 229 Z M 236 205 " clip-rule="nonzero"/></clipPath><clipPath id="2654ee6edb"><path d="M 198 225 L 246 225 L 246 262.5 L 198 262.5 Z M 198 225 " clip-rule="nonzero"/></clipPath><clipPath id="a5bebbc4f7"><path d="M 202 192.730469 L 205 192.730469 L 205 196 L 202 196 Z M 202 192.730469 " clip-rule="nonzero"/></clipPath><clipPath id="5459326fc4"><path d="M 198.75 192.730469 L 205 192.730469 L 205 199 L 198.75 199 Z M 198.75 192.730469 " clip-rule="nonzero"/></clipPath><clipPath id="36e70778a7"><path d="M 204.75 192.863281 C 204.753906 193.261719 204.707031 194.578125 204.058594 195.863281 C 203.855469 196.265625 203.59375 196.667969 203.25 197.035156 C 202.367188 197.992188 200.96875 198.726562 198.75 198.726562 L 198.75 196.484375 C 200.386719 196.484375 201.578125 196.234375 202.445312 195.863281 C 202.753906 195.730469 203.019531 195.582031 203.253906 195.425781 C 204.617188 194.503906 204.746094 193.25 204.75 192.863281 Z M 204.75 192.863281 " clip-rule="nonzero"/></clipPath><linearGradient x1="0.0000368225" gradientTransform="matrix(0.0249488, 0, 0, 0.0249079, 198.75169, 192.740585)" y1="122.636002" x2="240.600043" gradientUnits="userSpaceOnUse" y2="122.636002" id="0e5b2c0f91"><stop stop-opacity="1" stop-color="rgb(23.919678%, 74.119568%, 92.549133%)" offset="0"/><stop stop-opacity="1" stop-color="rgb(23.919678%, 74.119568%, 92.549133%)" offset="0.03125"/><stop stop-opacity="1" stop-color="rgb(23.953247%, 74.008179%, 92.579651%)" offset="0.046875"/><stop stop-opacity="1" stop-color="rgb(24.01886%, 73.800659%, 92.637634%)" offset="0.0546875"/><stop stop-opacity="1" stop-color="rgb(24.079895%, 73.603821%, 92.692566%)" offset="0.0625"/><stop stop-opacity="1" stop-color="rgb(24.171448%, 73.310852%, 92.774963%)" offset="0.078125"/><stop stop-opacity="1" stop-color="rgb(24.263%, 73.016357%, 92.855835%)" offset="0.0859375"/><stop stop-opacity="1" stop-color="rgb(24.324036%, 72.821045%, 92.910767%)" offset="0.09375"/><stop stop-opacity="1" stop-color="rgb(24.385071%, 72.624207%, 92.965698%)" offset="0.101562"/><stop stop-opacity="1" stop-color="rgb(24.446106%, 72.428894%, 93.02063%)" offset="0.109375"/><stop stop-opacity="1" stop-color="rgb(24.507141%, 72.232056%, 93.075562%)" offset="0.117187"/><stop stop-opacity="1" stop-color="rgb(24.568176%, 72.036743%, 93.128967%)" offset="0.125"/><stop stop-opacity="1" stop-color="rgb(24.629211%, 71.841431%, 93.183899%)" offset="0.132812"/><stop stop-opacity="1" stop-color="rgb(24.690247%, 71.644592%, 93.238831%)" offset="0.140625"/><stop stop-opacity="1" stop-color="rgb(24.751282%, 71.44928%, 93.293762%)" offset="0.148437"/><stop stop-opacity="1" stop-color="rgb(24.812317%, 71.252441%, 93.348694%)" offset="0.15625"/><stop stop-opacity="1" stop-color="rgb(24.873352%, 71.057129%, 93.403625%)" offset="0.164062"/><stop stop-opacity="1" stop-color="rgb(24.934387%, 70.860291%, 93.457031%)" offset="0.171875"/><stop stop-opacity="1" stop-color="rgb(24.995422%, 70.664978%, 93.511963%)" offset="0.179688"/><stop stop-opacity="1" stop-color="rgb(25.056458%, 70.46814%, 93.566895%)" offset="0.1875"/><stop stop-opacity="1" stop-color="rgb(25.14801%, 70.175171%, 93.649292%)" offset="0.203125"/><stop stop-opacity="1" stop-color="rgb(25.239563%, 69.880676%, 93.730164%)" offset="0.210938"/><stop stop-opacity="1" stop-color="rgb(25.300598%, 69.685364%, 93.785095%)" offset="0.21875"/><stop stop-opacity="1" stop-color="rgb(25.361633%, 69.488525%, 93.840027%)" offset="0.226562"/><stop stop-opacity="1" stop-color="rgb(25.422668%, 69.293213%, 93.894958%)" offset="0.234375"/><stop stop-opacity="1" stop-color="rgb(25.483704%, 69.096375%, 93.94989%)" offset="0.242188"/><stop stop-opacity="1" stop-color="rgb(25.544739%, 68.901062%, 94.004822%)" offset="0.25"/><stop stop-opacity="1" stop-color="rgb(25.605774%, 68.70575%, 94.058228%)" offset="0.257812"/><stop stop-opacity="1" stop-color="rgb(25.666809%, 68.508911%, 94.113159%)" offset="0.265625"/><stop stop-opacity="1" stop-color="rgb(25.727844%, 68.313599%, 94.168091%)" offset="0.273437"/><stop stop-opacity="1" stop-color="rgb(25.788879%, 68.11676%, 94.223022%)" offset="0.28125"/><stop stop-opacity="1" stop-color="rgb(25.849915%, 67.921448%, 94.277954%)" offset="0.289063"/><stop stop-opacity="1" stop-color="rgb(25.91095%, 67.724609%, 94.33136%)" offset="0.296875"/><stop stop-opacity="1" stop-color="rgb(26.002502%, 67.431641%, 94.413757%)" offset="0.3125"/><stop stop-opacity="1" stop-color="rgb(26.094055%, 67.137146%, 94.496155%)" offset="0.320312"/><stop stop-opacity="1" stop-color="rgb(26.15509%, 66.941833%, 94.551086%)" offset="0.328125"/><stop stop-opacity="1" stop-color="rgb(26.216125%, 66.744995%, 94.604492%)" offset="0.335937"/><stop stop-opacity="1" stop-color="rgb(26.277161%, 66.549683%, 94.659424%)" offset="0.34375"/><stop stop-opacity="1" stop-color="rgb(26.338196%, 66.352844%, 94.714355%)" offset="0.351563"/><stop stop-opacity="1" stop-color="rgb(26.399231%, 66.157532%, 94.769287%)" offset="0.359375"/><stop stop-opacity="1" stop-color="rgb(26.460266%, 65.962219%, 94.824219%)" offset="0.367188"/><stop stop-opacity="1" stop-color="rgb(26.521301%, 65.765381%, 94.87915%)" offset="0.375"/><stop stop-opacity="1" stop-color="rgb(26.582336%, 65.570068%, 94.932556%)" offset="0.382812"/><stop stop-opacity="1" stop-color="rgb(26.643372%, 65.37323%, 94.987488%)" offset="0.390625"/><stop stop-opacity="1" stop-color="rgb(26.704407%, 65.177917%, 95.042419%)" offset="0.398437"/><stop stop-opacity="1" stop-color="rgb(26.765442%, 64.981079%, 95.097351%)" offset="0.40625"/><stop stop-opacity="1" stop-color="rgb(26.856995%, 64.68811%, 95.178223%)" offset="0.421875"/><stop stop-opacity="1" stop-color="rgb(26.948547%, 64.393616%, 95.26062%)" offset="0.429688"/><stop stop-opacity="1" stop-color="rgb(27.009583%, 64.198303%, 95.315552%)" offset="0.4375"/><stop stop-opacity="1" stop-color="rgb(27.070618%, 64.001465%, 95.370483%)" offset="0.445312"/><stop stop-opacity="1" stop-color="rgb(27.131653%, 63.806152%, 95.425415%)" offset="0.453125"/><stop stop-opacity="1" stop-color="rgb(27.192688%, 63.609314%, 95.478821%)" offset="0.460937"/><stop stop-opacity="1" stop-color="rgb(27.253723%, 63.414001%, 95.533752%)" offset="0.46875"/><stop stop-opacity="1" stop-color="rgb(27.314758%, 63.217163%, 95.588684%)" offset="0.476563"/><stop stop-opacity="1" stop-color="rgb(27.375793%, 63.021851%, 95.643616%)" offset="0.484375"/><stop stop-opacity="1" stop-color="rgb(27.436829%, 62.826538%, 95.698547%)" offset="0.492188"/><stop stop-opacity="1" stop-color="rgb(27.497864%, 62.6297%, 95.753479%)" offset="0.5"/><stop stop-opacity="1" stop-color="rgb(27.558899%, 62.434387%, 95.806885%)" offset="0.507812"/><stop stop-opacity="1" stop-color="rgb(27.619934%, 62.237549%, 95.861816%)" offset="0.515625"/><stop stop-opacity="1" stop-color="rgb(27.680969%, 62.042236%, 95.916748%)" offset="0.523438"/><stop stop-opacity="1" stop-color="rgb(27.742004%, 61.845398%, 95.97168%)" offset="0.53125"/><stop stop-opacity="1" stop-color="rgb(27.833557%, 61.552429%, 96.052551%)" offset="0.546875"/><stop stop-opacity="1" stop-color="rgb(27.92511%, 61.257935%, 96.134949%)" offset="0.554688"/><stop stop-opacity="1" stop-color="rgb(27.986145%, 61.062622%, 96.18988%)" offset="0.5625"/><stop stop-opacity="1" stop-color="rgb(28.04718%, 60.865784%, 96.244812%)" offset="0.570312"/><stop stop-opacity="1" stop-color="rgb(28.108215%, 60.670471%, 96.299744%)" offset="0.578125"/><stop stop-opacity="1" stop-color="rgb(28.16925%, 60.473633%, 96.353149%)" offset="0.585938"/><stop stop-opacity="1" stop-color="rgb(28.230286%, 60.27832%, 96.408081%)" offset="0.59375"/><stop stop-opacity="1" stop-color="rgb(28.291321%, 60.083008%, 96.463013%)" offset="0.601562"/><stop stop-opacity="1" stop-color="rgb(28.352356%, 59.886169%, 96.517944%)" offset="0.609375"/><stop stop-opacity="1" stop-color="rgb(28.413391%, 59.690857%, 96.572876%)" offset="0.617188"/><stop stop-opacity="1" stop-color="rgb(28.474426%, 59.494019%, 96.627808%)" offset="0.625"/><stop stop-opacity="1" stop-color="rgb(28.535461%, 59.298706%, 96.681213%)" offset="0.632812"/><stop stop-opacity="1" stop-color="rgb(28.596497%, 59.101868%, 96.736145%)" offset="0.640625"/><stop stop-opacity="1" stop-color="rgb(28.688049%, 58.808899%, 96.818542%)" offset="0.65625"/><stop stop-opacity="1" stop-color="rgb(28.779602%, 58.514404%, 96.90094%)" offset="0.664062"/><stop stop-opacity="1" stop-color="rgb(28.840637%, 58.319092%, 96.954346%)" offset="0.671875"/><stop stop-opacity="1" stop-color="rgb(28.901672%, 58.122253%, 97.009277%)" offset="0.679688"/><stop stop-opacity="1" stop-color="rgb(28.962708%, 57.926941%, 97.064209%)" offset="0.6875"/><stop stop-opacity="1" stop-color="rgb(29.023743%, 57.730103%, 97.119141%)" offset="0.695312"/><stop stop-opacity="1" stop-color="rgb(29.084778%, 57.53479%, 97.174072%)" offset="0.703125"/><stop stop-opacity="1" stop-color="rgb(29.145813%, 57.339478%, 97.227478%)" offset="0.710938"/><stop stop-opacity="1" stop-color="rgb(29.206848%, 57.142639%, 97.28241%)" offset="0.71875"/><stop stop-opacity="1" stop-color="rgb(29.267883%, 56.947327%, 97.337341%)" offset="0.726562"/><stop stop-opacity="1" stop-color="rgb(29.328918%, 56.750488%, 97.392273%)" offset="0.734375"/><stop stop-opacity="1" stop-color="rgb(29.389954%, 56.555176%, 97.447205%)" offset="0.742188"/><stop stop-opacity="1" stop-color="rgb(29.450989%, 56.358337%, 97.502136%)" offset="0.75"/><stop stop-opacity="1" stop-color="rgb(29.512024%, 56.163025%, 97.555542%)" offset="0.757812"/><stop stop-opacity="1" stop-color="rgb(29.573059%, 55.966187%, 97.610474%)" offset="0.765625"/><stop stop-opacity="1" stop-color="rgb(29.664612%, 55.673218%, 97.692871%)" offset="0.78125"/><stop stop-opacity="1" stop-color="rgb(29.756165%, 55.378723%, 97.775269%)" offset="0.789062"/><stop stop-opacity="1" stop-color="rgb(29.8172%, 55.183411%, 97.828674%)" offset="0.796875"/><stop stop-opacity="1" stop-color="rgb(29.878235%, 54.986572%, 97.883606%)" offset="0.804688"/><stop stop-opacity="1" stop-color="rgb(29.93927%, 54.79126%, 97.938538%)" offset="0.8125"/><stop stop-opacity="1" stop-color="rgb(30.000305%, 54.594421%, 97.993469%)" offset="0.820312"/><stop stop-opacity="1" stop-color="rgb(30.06134%, 54.399109%, 98.048401%)" offset="0.828125"/><stop stop-opacity="1" stop-color="rgb(30.122375%, 54.203796%, 98.101807%)" offset="0.835938"/><stop stop-opacity="1" stop-color="rgb(30.183411%, 54.006958%, 98.156738%)" offset="0.84375"/><stop stop-opacity="1" stop-color="rgb(30.244446%, 53.811646%, 98.21167%)" offset="0.851562"/><stop stop-opacity="1" stop-color="rgb(30.305481%, 53.614807%, 98.266602%)" offset="0.859375"/><stop stop-opacity="1" stop-color="rgb(30.366516%, 53.419495%, 98.321533%)" offset="0.867188"/><stop stop-opacity="1" stop-color="rgb(30.427551%, 53.222656%, 98.376465%)" offset="0.875"/><stop stop-opacity="1" stop-color="rgb(30.519104%, 52.929688%, 98.457336%)" offset="0.890625"/><stop stop-opacity="1" stop-color="rgb(30.610657%, 52.635193%, 98.539734%)" offset="0.898438"/><stop stop-opacity="1" stop-color="rgb(30.671692%, 52.43988%, 98.594666%)" offset="0.90625"/><stop stop-opacity="1" stop-color="rgb(30.732727%, 52.243042%, 98.649597%)" offset="0.914062"/><stop stop-opacity="1" stop-color="rgb(30.793762%, 52.047729%, 98.703003%)" offset="0.921875"/><stop stop-opacity="1" stop-color="rgb(30.854797%, 51.850891%, 98.757935%)" offset="0.929688"/><stop stop-opacity="1" stop-color="rgb(30.915833%, 51.655579%, 98.812866%)" offset="0.9375"/><stop stop-opacity="1" stop-color="rgb(30.976868%, 51.460266%, 98.867798%)" offset="0.945312"/><stop stop-opacity="1" stop-color="rgb(31.037903%, 51.263428%, 98.922729%)" offset="0.953125"/><stop stop-opacity="1" stop-color="rgb(31.098938%, 51.068115%, 98.976135%)" offset="0.960938"/><stop stop-opacity="1" stop-color="rgb(31.159973%, 50.871277%, 99.031067%)" offset="0.96875"/><stop stop-opacity="1" stop-color="rgb(31.221008%, 50.675964%, 99.085999%)" offset="0.976562"/><stop stop-opacity="1" stop-color="rgb(31.282043%, 50.479126%, 99.14093%)" offset="0.984375"/><stop stop-opacity="1" stop-color="rgb(31.340027%, 50.289917%, 99.19281%)" offset="1"/></linearGradient><clipPath id="6b26f0f43f"><path d="M 202 198 L 205 198 L 205 201.730469 L 202 201.730469 Z M 202 198 " clip-rule="nonzero"/></clipPath><clipPath id="7e086cb4bc"><path d="M 202 195 L 208.5 195 L 208.5 201.730469 L 202 201.730469 Z M 202 195 " clip-rule="nonzero"/></clipPath><clipPath id="5c2b4fb6ad"><path d="M 202.5 201.601562 C 202.496094 201.203125 202.542969 199.886719 203.191406 198.601562 C 203.398438 198.195312 203.660156 197.792969 204 197.425781 C 204.882812 196.46875 206.285156 195.734375 208.5 195.734375 L 208.5 197.980469 C 206.867188 197.980469 205.675781 198.230469 204.808594 198.601562 C 204.5 198.734375 204.234375 198.878906 204 199.035156 C 202.636719 199.960938 202.507812 201.210938 202.5 201.601562 Z M 202.5 201.601562 " clip-rule="nonzero"/></clipPath><linearGradient x1="167.432212" gradientTransform="matrix(-0.0249488, 0, 0, -0.0249079, 212.678179, 197.726545)" y1="-37.771" x2="408.042224" gradientUnits="userSpaceOnUse" y2="-37.771" id="efee827709"><stop stop-opacity="1" stop-color="rgb(23.919678%, 74.119568%, 92.549133%)" offset="0"/><stop stop-opacity="1" stop-color="rgb(23.919678%, 74.119568%, 92.549133%)" offset="0.03125"/><stop stop-opacity="1" stop-color="rgb(23.953247%, 74.009705%, 92.579651%)" offset="0.046875"/><stop stop-opacity="1" stop-color="rgb(24.01886%, 73.800659%, 92.637634%)" offset="0.0546875"/><stop stop-opacity="1" stop-color="rgb(24.079895%, 73.605347%, 92.692566%)" offset="0.0625"/><stop stop-opacity="1" stop-color="rgb(24.14093%, 73.408508%, 92.747498%)" offset="0.0703125"/><stop stop-opacity="1" stop-color="rgb(24.201965%, 73.213196%, 92.802429%)" offset="0.078125"/><stop stop-opacity="1" stop-color="rgb(24.263%, 73.016357%, 92.855835%)" offset="0.0859375"/><stop stop-opacity="1" stop-color="rgb(24.324036%, 72.821045%, 92.910767%)" offset="0.09375"/><stop stop-opacity="1" stop-color="rgb(24.385071%, 72.624207%, 92.965698%)" offset="0.101562"/><stop stop-opacity="1" stop-color="rgb(24.446106%, 72.428894%, 93.02063%)" offset="0.109375"/><stop stop-opacity="1" stop-color="rgb(24.507141%, 72.233582%, 93.075562%)" offset="0.117187"/><stop stop-opacity="1" stop-color="rgb(24.568176%, 72.036743%, 93.128967%)" offset="0.125"/><stop stop-opacity="1" stop-color="rgb(24.629211%, 71.841431%, 93.183899%)" offset="0.132812"/><stop stop-opacity="1" stop-color="rgb(24.690247%, 71.644592%, 93.238831%)" offset="0.140625"/><stop stop-opacity="1" stop-color="rgb(24.751282%, 71.44928%, 93.293762%)" offset="0.148437"/><stop stop-opacity="1" stop-color="rgb(24.812317%, 71.252441%, 93.348694%)" offset="0.15625"/><stop stop-opacity="1" stop-color="rgb(24.90387%, 70.959473%, 93.429565%)" offset="0.171875"/><stop stop-opacity="1" stop-color="rgb(24.995422%, 70.664978%, 93.511963%)" offset="0.179688"/><stop stop-opacity="1" stop-color="rgb(25.056458%, 70.469666%, 93.566895%)" offset="0.1875"/><stop stop-opacity="1" stop-color="rgb(25.117493%, 70.272827%, 93.621826%)" offset="0.195312"/><stop stop-opacity="1" stop-color="rgb(25.178528%, 70.077515%, 93.676758%)" offset="0.203125"/><stop stop-opacity="1" stop-color="rgb(25.239563%, 69.880676%, 93.730164%)" offset="0.210937"/><stop stop-opacity="1" stop-color="rgb(25.300598%, 69.685364%, 93.785095%)" offset="0.21875"/><stop stop-opacity="1" stop-color="rgb(25.361633%, 69.488525%, 93.840027%)" offset="0.226562"/><stop stop-opacity="1" stop-color="rgb(25.422668%, 69.293213%, 93.894958%)" offset="0.234375"/><stop stop-opacity="1" stop-color="rgb(25.483704%, 69.0979%, 93.94989%)" offset="0.242188"/><stop stop-opacity="1" stop-color="rgb(25.544739%, 68.901062%, 94.003296%)" offset="0.25"/><stop stop-opacity="1" stop-color="rgb(25.605774%, 68.70575%, 94.058228%)" offset="0.257812"/><stop stop-opacity="1" stop-color="rgb(25.666809%, 68.508911%, 94.113159%)" offset="0.265625"/><stop stop-opacity="1" stop-color="rgb(25.727844%, 68.313599%, 94.168091%)" offset="0.273437"/><stop stop-opacity="1" stop-color="rgb(25.788879%, 68.11676%, 94.223022%)" offset="0.28125"/><stop stop-opacity="1" stop-color="rgb(25.880432%, 67.823792%, 94.303894%)" offset="0.296875"/><stop stop-opacity="1" stop-color="rgb(25.971985%, 67.529297%, 94.386292%)" offset="0.304688"/><stop stop-opacity="1" stop-color="rgb(26.03302%, 67.333984%, 94.441223%)" offset="0.3125"/><stop stop-opacity="1" stop-color="rgb(26.094055%, 67.137146%, 94.496155%)" offset="0.320312"/><stop stop-opacity="1" stop-color="rgb(26.15509%, 66.941833%, 94.551086%)" offset="0.328125"/><stop stop-opacity="1" stop-color="rgb(26.216125%, 66.744995%, 94.604492%)" offset="0.335937"/><stop stop-opacity="1" stop-color="rgb(26.277161%, 66.549683%, 94.659424%)" offset="0.34375"/><stop stop-opacity="1" stop-color="rgb(26.338196%, 66.352844%, 94.714355%)" offset="0.351562"/><stop stop-opacity="1" stop-color="rgb(26.399231%, 66.157532%, 94.769287%)" offset="0.359375"/><stop stop-opacity="1" stop-color="rgb(26.460266%, 65.962219%, 94.824219%)" offset="0.367187"/><stop stop-opacity="1" stop-color="rgb(26.521301%, 65.765381%, 94.877625%)" offset="0.375"/><stop stop-opacity="1" stop-color="rgb(26.582336%, 65.570068%, 94.932556%)" offset="0.382812"/><stop stop-opacity="1" stop-color="rgb(26.643372%, 65.37323%, 94.987488%)" offset="0.390625"/><stop stop-opacity="1" stop-color="rgb(26.704407%, 65.177917%, 95.042419%)" offset="0.398437"/><stop stop-opacity="1" stop-color="rgb(26.765442%, 64.981079%, 95.097351%)" offset="0.40625"/><stop stop-opacity="1" stop-color="rgb(26.856995%, 64.68811%, 95.178223%)" offset="0.421875"/><stop stop-opacity="1" stop-color="rgb(26.948547%, 64.393616%, 95.26062%)" offset="0.429688"/><stop stop-opacity="1" stop-color="rgb(27.009583%, 64.198303%, 95.315552%)" offset="0.4375"/><stop stop-opacity="1" stop-color="rgb(27.070618%, 64.001465%, 95.370483%)" offset="0.445312"/><stop stop-opacity="1" stop-color="rgb(27.131653%, 63.806152%, 95.425415%)" offset="0.453125"/><stop stop-opacity="1" stop-color="rgb(27.192688%, 63.609314%, 95.478821%)" offset="0.460937"/><stop stop-opacity="1" stop-color="rgb(27.253723%, 63.414001%, 95.533752%)" offset="0.46875"/><stop stop-opacity="1" stop-color="rgb(27.314758%, 63.217163%, 95.588684%)" offset="0.476562"/><stop stop-opacity="1" stop-color="rgb(27.375793%, 63.021851%, 95.643616%)" offset="0.484375"/><stop stop-opacity="1" stop-color="rgb(27.436829%, 62.826538%, 95.698547%)" offset="0.492188"/><stop stop-opacity="1" stop-color="rgb(27.497864%, 62.6297%, 95.753479%)" offset="0.5"/><stop stop-opacity="1" stop-color="rgb(27.558899%, 62.434387%, 95.806885%)" offset="0.507812"/><stop stop-opacity="1" stop-color="rgb(27.619934%, 62.237549%, 95.861816%)" offset="0.515625"/><stop stop-opacity="1" stop-color="rgb(27.680969%, 62.042236%, 95.916748%)" offset="0.523438"/><stop stop-opacity="1" stop-color="rgb(27.742004%, 61.845398%, 95.97168%)" offset="0.53125"/><stop stop-opacity="1" stop-color="rgb(27.833557%, 61.552429%, 96.052551%)" offset="0.546875"/><stop stop-opacity="1" stop-color="rgb(27.92511%, 61.257935%, 96.134949%)" offset="0.554688"/><stop stop-opacity="1" stop-color="rgb(27.986145%, 61.062622%, 96.18988%)" offset="0.5625"/><stop stop-opacity="1" stop-color="rgb(28.04718%, 60.865784%, 96.244812%)" offset="0.570313"/><stop stop-opacity="1" stop-color="rgb(28.108215%, 60.670471%, 96.299744%)" offset="0.578125"/><stop stop-opacity="1" stop-color="rgb(28.16925%, 60.473633%, 96.353149%)" offset="0.585938"/><stop stop-opacity="1" stop-color="rgb(28.230286%, 60.27832%, 96.408081%)" offset="0.59375"/><stop stop-opacity="1" stop-color="rgb(28.291321%, 60.081482%, 96.463013%)" offset="0.601563"/><stop stop-opacity="1" stop-color="rgb(28.352356%, 59.886169%, 96.517944%)" offset="0.609375"/><stop stop-opacity="1" stop-color="rgb(28.413391%, 59.690857%, 96.572876%)" offset="0.617188"/><stop stop-opacity="1" stop-color="rgb(28.474426%, 59.494019%, 96.627808%)" offset="0.625"/><stop stop-opacity="1" stop-color="rgb(28.535461%, 59.298706%, 96.681213%)" offset="0.632812"/><stop stop-opacity="1" stop-color="rgb(28.596497%, 59.101868%, 96.736145%)" offset="0.640625"/><stop stop-opacity="1" stop-color="rgb(28.657532%, 58.906555%, 96.791077%)" offset="0.648437"/><stop stop-opacity="1" stop-color="rgb(28.718567%, 58.709717%, 96.846008%)" offset="0.65625"/><stop stop-opacity="1" stop-color="rgb(28.81012%, 58.416748%, 96.92688%)" offset="0.671875"/><stop stop-opacity="1" stop-color="rgb(28.901672%, 58.122253%, 97.009277%)" offset="0.679687"/><stop stop-opacity="1" stop-color="rgb(28.962708%, 57.926941%, 97.064209%)" offset="0.6875"/><stop stop-opacity="1" stop-color="rgb(29.023743%, 57.730103%, 97.119141%)" offset="0.695312"/><stop stop-opacity="1" stop-color="rgb(29.084778%, 57.53479%, 97.174072%)" offset="0.703125"/><stop stop-opacity="1" stop-color="rgb(29.145813%, 57.337952%, 97.229004%)" offset="0.710938"/><stop stop-opacity="1" stop-color="rgb(29.206848%, 57.142639%, 97.28241%)" offset="0.71875"/><stop stop-opacity="1" stop-color="rgb(29.267883%, 56.945801%, 97.337341%)" offset="0.726562"/><stop stop-opacity="1" stop-color="rgb(29.328918%, 56.750488%, 97.392273%)" offset="0.734375"/><stop stop-opacity="1" stop-color="rgb(29.389954%, 56.555176%, 97.447205%)" offset="0.742188"/><stop stop-opacity="1" stop-color="rgb(29.450989%, 56.358337%, 97.502136%)" offset="0.75"/><stop stop-opacity="1" stop-color="rgb(29.512024%, 56.163025%, 97.555542%)" offset="0.757812"/><stop stop-opacity="1" stop-color="rgb(29.573059%, 55.966187%, 97.610474%)" offset="0.765625"/><stop stop-opacity="1" stop-color="rgb(29.634094%, 55.770874%, 97.665405%)" offset="0.773438"/><stop stop-opacity="1" stop-color="rgb(29.695129%, 55.574036%, 97.720337%)" offset="0.78125"/><stop stop-opacity="1" stop-color="rgb(29.786682%, 55.281067%, 97.801208%)" offset="0.796875"/><stop stop-opacity="1" stop-color="rgb(29.878235%, 54.986572%, 97.883606%)" offset="0.804688"/><stop stop-opacity="1" stop-color="rgb(29.93927%, 54.79126%, 97.938538%)" offset="0.8125"/><stop stop-opacity="1" stop-color="rgb(30.000305%, 54.594421%, 97.993469%)" offset="0.820313"/><stop stop-opacity="1" stop-color="rgb(30.06134%, 54.399109%, 98.048401%)" offset="0.828125"/><stop stop-opacity="1" stop-color="rgb(30.122375%, 54.202271%, 98.103333%)" offset="0.835938"/><stop stop-opacity="1" stop-color="rgb(30.183411%, 54.006958%, 98.156738%)" offset="0.84375"/><stop stop-opacity="1" stop-color="rgb(30.244446%, 53.81012%, 98.21167%)" offset="0.851563"/><stop stop-opacity="1" stop-color="rgb(30.305481%, 53.614807%, 98.266602%)" offset="0.859375"/><stop stop-opacity="1" stop-color="rgb(30.366516%, 53.419495%, 98.321533%)" offset="0.867188"/><stop stop-opacity="1" stop-color="rgb(30.427551%, 53.222656%, 98.376465%)" offset="0.875"/><stop stop-opacity="1" stop-color="rgb(30.488586%, 53.027344%, 98.429871%)" offset="0.882812"/><stop stop-opacity="1" stop-color="rgb(30.549622%, 52.830505%, 98.484802%)" offset="0.890625"/><stop stop-opacity="1" stop-color="rgb(30.610657%, 52.635193%, 98.539734%)" offset="0.898437"/><stop stop-opacity="1" stop-color="rgb(30.671692%, 52.438354%, 98.594666%)" offset="0.90625"/><stop stop-opacity="1" stop-color="rgb(30.763245%, 52.145386%, 98.675537%)" offset="0.921875"/><stop stop-opacity="1" stop-color="rgb(30.854797%, 51.850891%, 98.757935%)" offset="0.929687"/><stop stop-opacity="1" stop-color="rgb(30.915833%, 51.655579%, 98.812866%)" offset="0.9375"/><stop stop-opacity="1" stop-color="rgb(30.976868%, 51.45874%, 98.867798%)" offset="0.945312"/><stop stop-opacity="1" stop-color="rgb(31.037903%, 51.263428%, 98.922729%)" offset="0.953125"/><stop stop-opacity="1" stop-color="rgb(31.098938%, 51.066589%, 98.977661%)" offset="0.960937"/><stop stop-opacity="1" stop-color="rgb(31.159973%, 50.871277%, 99.031067%)" offset="0.96875"/><stop stop-opacity="1" stop-color="rgb(31.221008%, 50.674438%, 99.085999%)" offset="0.976562"/><stop stop-opacity="1" stop-color="rgb(31.282043%, 50.479126%, 99.14093%)" offset="0.984375"/><stop stop-opacity="1" stop-color="rgb(31.340027%, 50.289917%, 99.19281%)" offset="1"/></linearGradient><clipPath id="e971615e1d"><path d="M 172 96 L 208 96 L 208 109 L 172 109 Z M 172 96 " clip-rule="nonzero"/></clipPath><clipPath id="d63ea98094"><path d="M 167.996094 95.867188 L 213.621094 99.242188 L 211.570312 126.917969 L 165.945312 123.539062 Z M 167.996094 95.867188 " clip-rule="nonzero"/></clipPath><clipPath id="59ba296959"><path d="M 167.996094 95.867188 L 213.621094 99.242188 L 211.570312 126.917969 L 165.945312 123.539062 Z M 167.996094 95.867188 " clip-rule="nonzero"/></clipPath><clipPath id="a383ea8cbc"><path d="M 172 103 L 208 103 L 208 116 L 172 116 Z M 172 103 " clip-rule="nonzero"/></clipPath><clipPath id="535445a615"><path d="M 167.996094 95.867188 L 213.621094 99.242188 L 211.570312 126.917969 L 165.945312 123.539062 Z M 167.996094 95.867188 " clip-rule="nonzero"/></clipPath><clipPath id="203ed8b6b7"><path d="M 167.996094 95.867188 L 213.621094 99.242188 L 211.570312 126.917969 L 165.945312 123.539062 Z M 167.996094 95.867188 " clip-rule="nonzero"/></clipPath><clipPath id="91e6a57c0d"><path d="M 171 107 L 209 107 L 209 117 L 171 117 Z M 171 107 " clip-rule="nonzero"/></clipPath><clipPath id="4467b4e8ca"><path d="M 167.996094 95.867188 L 213.621094 99.242188 L 211.570312 126.917969 L 165.945312 123.539062 Z M 167.996094 95.867188 " clip-rule="nonzero"/></clipPath><clipPath id="e21e934cc4"><path d="M 167.996094 95.867188 L 213.621094 99.242188 L 211.570312 126.917969 L 165.945312 123.539062 Z M 167.996094 95.867188 " clip-rule="nonzero"/></clipPath><clipPath id="fd27c3ddc7"><path d="M 166 103 L 212 103 L 212 127 L 166 127 Z M 166 103 " clip-rule="nonzero"/></clipPath><clipPath id="ee33328008"><path d="M 167.996094 95.867188 L 213.621094 99.242188 L 211.570312 126.917969 L 165.945312 123.539062 Z M 167.996094 95.867188 " clip-rule="nonzero"/></clipPath><clipPath id="049ca99431"><path d="M 167.996094 95.867188 L 213.621094 99.242188 L 211.570312 126.917969 L 165.945312 123.539062 Z M 167.996094 95.867188 " clip-rule="nonzero"/></clipPath><clipPath id="94b45badf5"><path d="M 170 120 L 181 120 L 181 123 L 170 123 Z M 170 120 " clip-rule="nonzero"/></clipPath><clipPath id="4cdad4acf0"><path d="M 167.996094 95.867188 L 213.621094 99.242188 L 211.570312 126.917969 L 165.945312 123.539062 Z M 167.996094 95.867188 " clip-rule="nonzero"/></clipPath><clipPath id="3c87a20583"><path d="M 167.996094 95.867188 L 213.621094 99.242188 L 211.570312 126.917969 L 165.945312 123.539062 Z M 167.996094 95.867188 " clip-rule="nonzero"/></clipPath><clipPath id="727294f0ec"><path d="M 106 127 L 115 127 L 115 138 L 106 138 Z M 106 127 " clip-rule="nonzero"/></clipPath><clipPath id="b5158867ef"><path d="M 106.164062 123.285156 L 149.78125 145.054688 L 132.03125 180.621094 L 88.410156 158.851562 Z M 106.164062 123.285156 " clip-rule="nonzero"/></clipPath><clipPath id="f14d43340e"><path d="M 106.164062 123.285156 L 149.78125 145.054688 L 132.03125 180.621094 L 88.410156 158.851562 Z M 106.164062 123.285156 " clip-rule="nonzero"/></clipPath><clipPath id="6e8a137d6f"><path d="M 106.164062 123.285156 L 149.78125 145.054688 L 132.03125 180.621094 L 88.410156 158.851562 Z M 106.164062 123.285156 " clip-rule="nonzero"/></clipPath><clipPath id="e1d65228d5"><path d="M 106 127 L 115 127 L 115 139 L 106 139 Z M 106 127 " clip-rule="nonzero"/></clipPath><clipPath id="be636e963f"><path d="M 106.164062 123.285156 L 149.78125 145.054688 L 132.03125 180.621094 L 88.410156 158.851562 Z M 106.164062 123.285156 " clip-rule="nonzero"/></clipPath><clipPath id="bc268bb2f9"><path d="M 106.164062 123.285156 L 149.78125 145.054688 L 132.03125 180.621094 L 88.410156 158.851562 Z M 106.164062 123.285156 " clip-rule="nonzero"/></clipPath><clipPath id="416901be06"><path d="M 106.164062 123.285156 L 149.78125 145.054688 L 132.03125 180.621094 L 88.410156 158.851562 Z M 106.164062 123.285156 " clip-rule="nonzero"/></clipPath><clipPath id="10188275de"><path d="M 108 134 L 127 134 L 127 161 L 108 161 Z M 108 134 " clip-rule="nonzero"/></clipPath><clipPath id="2c986da238"><path d="M 106.164062 123.285156 L 149.78125 145.054688 L 132.03125 180.621094 L 88.410156 158.851562 Z M 106.164062 123.285156 " clip-rule="nonzero"/></clipPath><clipPath id="29b9f7c573"><path d="M 106.164062 123.285156 L 149.78125 145.054688 L 132.03125 180.621094 L 88.410156 158.851562 Z M 106.164062 123.285156 " clip-rule="nonzero"/></clipPath><clipPath id="89ceeaa2e6"><path d="M 106.164062 123.285156 L 149.78125 145.054688 L 132.03125 180.621094 L 88.410156 158.851562 Z M 106.164062 123.285156 " clip-rule="nonzero"/></clipPath><clipPath id="a9a3fdc409"><path d="M 108 133 L 127 133 L 127 162 L 108 162 Z M 108 133 " clip-rule="nonzero"/></clipPath><clipPath id="b6b4e30548"><path d="M 106.164062 123.285156 L 149.78125 145.054688 L 132.03125 180.621094 L 88.410156 158.851562 Z M 106.164062 123.285156 " clip-rule="nonzero"/></clipPath><clipPath id="7a6f2cebb2"><path d="M 106.164062 123.285156 L 149.78125 145.054688 L 132.03125 180.621094 L 88.410156 158.851562 Z M 106.164062 123.285156 " clip-rule="nonzero"/></clipPath><clipPath id="fc9d17fb68"><path d="M 106.164062 123.285156 L 149.78125 145.054688 L 132.03125 180.621094 L 88.410156 158.851562 Z M 106.164062 123.285156 " clip-rule="nonzero"/></clipPath><clipPath id="6140867218"><path d="M 111 137 L 124 137 L 124 158 L 111 158 Z M 111 137 " clip-rule="nonzero"/></clipPath><clipPath id="3f724f1aec"><path d="M 106.164062 123.285156 L 149.78125 145.054688 L 132.03125 180.621094 L 88.410156 158.851562 Z M 106.164062 123.285156 " clip-rule="nonzero"/></clipPath><clipPath id="90d55b1bac"><path d="M 106.164062 123.285156 L 149.78125 145.054688 L 132.03125 180.621094 L 88.410156 158.851562 Z M 106.164062 123.285156 " clip-rule="nonzero"/></clipPath><clipPath id="e948330b3f"><path d="M 106.164062 123.285156 L 149.78125 145.054688 L 132.03125 180.621094 L 88.410156 158.851562 Z M 106.164062 123.285156 " clip-rule="nonzero"/></clipPath><clipPath id="ef0404bab3"><path d="M 110 137 L 125 137 L 125 158 L 110 158 Z M 110 137 " clip-rule="nonzero"/></clipPath><clipPath id="9f1abbad7c"><path d="M 106.164062 123.285156 L 149.78125 145.054688 L 132.03125 180.621094 L 88.410156 158.851562 Z M 106.164062 123.285156 " clip-rule="nonzero"/></clipPath><clipPath id="ca01c5faf4"><path d="M 106.164062 123.285156 L 149.78125 145.054688 L 132.03125 180.621094 L 88.410156 158.851562 Z M 106.164062 123.285156 " clip-rule="nonzero"/></clipPath><clipPath id="b5808bcb3c"><path d="M 106.164062 123.285156 L 149.78125 145.054688 L 132.03125 180.621094 L 88.410156 158.851562 Z M 106.164062 123.285156 " clip-rule="nonzero"/></clipPath><clipPath id="fc8c710989"><path d="M 121 159 L 132 159 L 132 175 L 121 175 Z M 121 159 " clip-rule="nonzero"/></clipPath><clipPath id="ddae539bf2"><path d="M 106.164062 123.285156 L 149.78125 145.054688 L 132.03125 180.621094 L 88.410156 158.851562 Z M 106.164062 123.285156 " clip-rule="nonzero"/></clipPath><clipPath id="717424d565"><path d="M 106.164062 123.285156 L 149.78125 145.054688 L 132.03125 180.621094 L 88.410156 158.851562 Z M 106.164062 123.285156 " clip-rule="nonzero"/></clipPath><clipPath id="2d9c9c151d"><path d="M 106.164062 123.285156 L 149.78125 145.054688 L 132.03125 180.621094 L 88.410156 158.851562 Z M 106.164062 123.285156 " clip-rule="nonzero"/></clipPath><clipPath id="92b4723a01"><path d="M 121 158 L 132 158 L 132 176 L 121 176 Z M 121 158 " clip-rule="nonzero"/></clipPath><clipPath id="0b68a72a70"><path d="M 106.164062 123.285156 L 149.78125 145.054688 L 132.03125 180.621094 L 88.410156 158.851562 Z M 106.164062 123.285156 " clip-rule="nonzero"/></clipPath><clipPath id="fc2ee6a8e4"><path d="M 106.164062 123.285156 L 149.78125 145.054688 L 132.03125 180.621094 L 88.410156 158.851562 Z M 106.164062 123.285156 " clip-rule="nonzero"/></clipPath><clipPath id="c1c293639e"><path d="M 106.164062 123.285156 L 149.78125 145.054688 L 132.03125 180.621094 L 88.410156 158.851562 Z M 106.164062 123.285156 " clip-rule="nonzero"/></clipPath><clipPath id="203200e7e7"><path d="M 126 172 L 135 172 L 135 178 L 126 178 Z M 126 172 " clip-rule="nonzero"/></clipPath><clipPath id="1a802c3e2c"><path d="M 106.164062 123.285156 L 149.78125 145.054688 L 132.03125 180.621094 L 88.410156 158.851562 Z M 106.164062 123.285156 " clip-rule="nonzero"/></clipPath><clipPath id="8ebd3f6afa"><path d="M 106.164062 123.285156 L 149.78125 145.054688 L 132.03125 180.621094 L 88.410156 158.851562 Z M 106.164062 123.285156 " clip-rule="nonzero"/></clipPath><clipPath id="05579c8e91"><path d="M 106.164062 123.285156 L 149.78125 145.054688 L 132.03125 180.621094 L 88.410156 158.851562 Z M 106.164062 123.285156 " clip-rule="nonzero"/></clipPath><clipPath id="a3c8636c22"><path d="M 126 172 L 135 172 L 135 179 L 126 179 Z M 126 172 " clip-rule="nonzero"/></clipPath><clipPath id="0dfe4b99c0"><path d="M 106.164062 123.285156 L 149.78125 145.054688 L 132.03125 180.621094 L 88.410156 158.851562 Z M 106.164062 123.285156 " clip-rule="nonzero"/></clipPath><clipPath id="431c301852"><path d="M 106.164062 123.285156 L 149.78125 145.054688 L 132.03125 180.621094 L 88.410156 158.851562 Z M 106.164062 123.285156 " clip-rule="nonzero"/></clipPath><clipPath id="5675e6121e"><path d="M 106.164062 123.285156 L 149.78125 145.054688 L 132.03125 180.621094 L 88.410156 158.851562 Z M 106.164062 123.285156 " clip-rule="nonzero"/></clipPath><clipPath id="0cbb04de3b"><path d="M 116 155 L 130 155 L 130 163 L 116 163 Z M 116 155 " clip-rule="nonzero"/></clipPath><clipPath id="5c0a5fc4e1"><path d="M 106.164062 123.285156 L 149.78125 145.054688 L 132.03125 180.621094 L 88.410156 158.851562 Z M 106.164062 123.285156 " clip-rule="nonzero"/></clipPath><clipPath id="f2adfd0e56"><path d="M 106.164062 123.285156 L 149.78125 145.054688 L 132.03125 180.621094 L 88.410156 158.851562 Z M 106.164062 123.285156 " clip-rule="nonzero"/></clipPath><clipPath id="2a2a603313"><path d="M 106.164062 123.285156 L 149.78125 145.054688 L 132.03125 180.621094 L 88.410156 158.851562 Z M 106.164062 123.285156 " clip-rule="nonzero"/></clipPath><clipPath id="b8b3e25da2"><path d="M 116 155 L 130 155 L 130 164 L 116 164 Z M 116 155 " clip-rule="nonzero"/></clipPath><clipPath id="dcda6dbcfa"><path d="M 106.164062 123.285156 L 149.78125 145.054688 L 132.03125 180.621094 L 88.410156 158.851562 Z M 106.164062 123.285156 " clip-rule="nonzero"/></clipPath><clipPath id="749dd79d7c"><path d="M 106.164062 123.285156 L 149.78125 145.054688 L 132.03125 180.621094 L 88.410156 158.851562 Z M 106.164062 123.285156 " clip-rule="nonzero"/></clipPath><clipPath id="3ac540c059"><path d="M 106.164062 123.285156 L 149.78125 145.054688 L 132.03125 180.621094 L 88.410156 158.851562 Z M 106.164062 123.285156 " clip-rule="nonzero"/></clipPath><clipPath id="2ec00d5c71"><path d="M 106 123 L 109 123 L 109 129 L 106 129 Z M 106 123 " clip-rule="nonzero"/></clipPath><clipPath id="e407ec26b6"><path d="M 106.164062 123.285156 L 149.78125 145.054688 L 132.03125 180.621094 L 88.410156 158.851562 Z M 106.164062 123.285156 " clip-rule="nonzero"/></clipPath><clipPath id="82c269022e"><path d="M 106.164062 123.285156 L 149.78125 145.054688 L 132.03125 180.621094 L 88.410156 158.851562 Z M 106.164062 123.285156 " clip-rule="nonzero"/></clipPath><clipPath id="a33fa6c54e"><path d="M 106.164062 123.285156 L 149.78125 145.054688 L 132.03125 180.621094 L 88.410156 158.851562 Z M 106.164062 123.285156 " clip-rule="nonzero"/></clipPath><clipPath id="fa8d178bce"><path d="M 105 123 L 109 123 L 109 129 L 105 129 Z M 105 123 " clip-rule="nonzero"/></clipPath><clipPath id="7af1b2ef51"><path d="M 106.164062 123.285156 L 149.78125 145.054688 L 132.03125 180.621094 L 88.410156 158.851562 Z M 106.164062 123.285156 " clip-rule="nonzero"/></clipPath><clipPath id="2cd531be04"><path d="M 106.164062 123.285156 L 149.78125 145.054688 L 132.03125 180.621094 L 88.410156 158.851562 Z M 106.164062 123.285156 " clip-rule="nonzero"/></clipPath><clipPath id="994ab5d8e4"><path d="M 106.164062 123.285156 L 149.78125 145.054688 L 132.03125 180.621094 L 88.410156 158.851562 Z M 106.164062 123.285156 " clip-rule="nonzero"/></clipPath><clipPath id="86f65b0cc4"><path d="M 117 153 L 120 153 L 120 155 L 117 155 Z M 117 153 " clip-rule="nonzero"/></clipPath><clipPath id="d90c87b2fb"><path d="M 106.164062 123.285156 L 149.78125 145.054688 L 132.03125 180.621094 L 88.410156 158.851562 Z M 106.164062 123.285156 " clip-rule="nonzero"/></clipPath><clipPath id="a102ce6de5"><path d="M 106.164062 123.285156 L 149.78125 145.054688 L 132.03125 180.621094 L 88.410156 158.851562 Z M 106.164062 123.285156 " clip-rule="nonzero"/></clipPath><clipPath id="5c384b4640"><path d="M 106.164062 123.285156 L 149.78125 145.054688 L 132.03125 180.621094 L 88.410156 158.851562 Z M 106.164062 123.285156 " clip-rule="nonzero"/></clipPath><clipPath id="243b3dbdbd"><path d="M 116 152 L 120 152 L 120 155 L 116 155 Z M 116 152 " clip-rule="nonzero"/></clipPath><clipPath id="d7b038dd25"><path d="M 106.164062 123.285156 L 149.78125 145.054688 L 132.03125 180.621094 L 88.410156 158.851562 Z M 106.164062 123.285156 " clip-rule="nonzero"/></clipPath><clipPath id="4c5718dc07"><path d="M 106.164062 123.285156 L 149.78125 145.054688 L 132.03125 180.621094 L 88.410156 158.851562 Z M 106.164062 123.285156 " clip-rule="nonzero"/></clipPath><clipPath id="ac4ddbfe58"><path d="M 106.164062 123.285156 L 149.78125 145.054688 L 132.03125 180.621094 L 88.410156 158.851562 Z M 106.164062 123.285156 " clip-rule="nonzero"/></clipPath><clipPath id="e102d26c67"><path d="M 115 148 L 118 148 L 118 151 L 115 151 Z M 115 148 " clip-rule="nonzero"/></clipPath><clipPath id="d8da6f1109"><path d="M 106.164062 123.285156 L 149.78125 145.054688 L 132.03125 180.621094 L 88.410156 158.851562 Z M 106.164062 123.285156 " clip-rule="nonzero"/></clipPath><clipPath id="1ba340c8d6"><path d="M 106.164062 123.285156 L 149.78125 145.054688 L 132.03125 180.621094 L 88.410156 158.851562 Z M 106.164062 123.285156 " clip-rule="nonzero"/></clipPath><clipPath id="742a535abc"><path d="M 106.164062 123.285156 L 149.78125 145.054688 L 132.03125 180.621094 L 88.410156 158.851562 Z M 106.164062 123.285156 " clip-rule="nonzero"/></clipPath><clipPath id="e6c4187960"><path d="M 114 148 L 118 148 L 118 151 L 114 151 Z M 114 148 " clip-rule="nonzero"/></clipPath><clipPath id="fa22fa689c"><path d="M 106.164062 123.285156 L 149.78125 145.054688 L 132.03125 180.621094 L 88.410156 158.851562 Z M 106.164062 123.285156 " clip-rule="nonzero"/></clipPath><clipPath id="a1e9d171f3"><path d="M 106.164062 123.285156 L 149.78125 145.054688 L 132.03125 180.621094 L 88.410156 158.851562 Z M 106.164062 123.285156 " clip-rule="nonzero"/></clipPath><clipPath id="d34a296c71"><path d="M 106.164062 123.285156 L 149.78125 145.054688 L 132.03125 180.621094 L 88.410156 158.851562 Z M 106.164062 123.285156 " clip-rule="nonzero"/></clipPath><clipPath id="d42b18fec5"><path d="M 113 144 L 116 144 L 116 146 L 113 146 Z M 113 144 " clip-rule="nonzero"/></clipPath><clipPath id="1d4e7303a6"><path d="M 106.164062 123.285156 L 149.78125 145.054688 L 132.03125 180.621094 L 88.410156 158.851562 Z M 106.164062 123.285156 " clip-rule="nonzero"/></clipPath><clipPath id="6ace4a0833"><path d="M 106.164062 123.285156 L 149.78125 145.054688 L 132.03125 180.621094 L 88.410156 158.851562 Z M 106.164062 123.285156 " clip-rule="nonzero"/></clipPath><clipPath id="4f35503488"><path d="M 106.164062 123.285156 L 149.78125 145.054688 L 132.03125 180.621094 L 88.410156 158.851562 Z M 106.164062 123.285156 " clip-rule="nonzero"/></clipPath><clipPath id="9806f85e06"><path d="M 113 144 L 117 144 L 117 147 L 113 147 Z M 113 144 " clip-rule="nonzero"/></clipPath><clipPath id="3327679df9"><path d="M 106.164062 123.285156 L 149.78125 145.054688 L 132.03125 180.621094 L 88.410156 158.851562 Z M 106.164062 123.285156 " clip-rule="nonzero"/></clipPath><clipPath id="6edaa3f965"><path d="M 106.164062 123.285156 L 149.78125 145.054688 L 132.03125 180.621094 L 88.410156 158.851562 Z M 106.164062 123.285156 " clip-rule="nonzero"/></clipPath><clipPath id="ab8256b9ba"><path d="M 106.164062 123.285156 L 149.78125 145.054688 L 132.03125 180.621094 L 88.410156 158.851562 Z M 106.164062 123.285156 " clip-rule="nonzero"/></clipPath><clipPath id="dc966e34d9"><path d="M 108 128 L 112 128 L 112 135 L 108 135 Z M 108 128 " clip-rule="nonzero"/></clipPath><clipPath id="2b0ecb0167"><path d="M 106.164062 123.285156 L 149.78125 145.054688 L 132.03125 180.621094 L 88.410156 158.851562 Z M 106.164062 123.285156 " clip-rule="nonzero"/></clipPath><clipPath id="42ba2f3410"><path d="M 106.164062 123.285156 L 149.78125 145.054688 L 132.03125 180.621094 L 88.410156 158.851562 Z M 106.164062 123.285156 " clip-rule="nonzero"/></clipPath><clipPath id="3c1a4820d9"><path d="M 106.164062 123.285156 L 149.78125 145.054688 L 132.03125 180.621094 L 88.410156 158.851562 Z M 106.164062 123.285156 " clip-rule="nonzero"/></clipPath><clipPath id="8dbfcdecde"><path d="M 114 139 L 123 139 L 123 155 L 114 155 Z M 114 139 " clip-rule="nonzero"/></clipPath><clipPath id="e4e27e2f62"><path d="M 106.164062 123.285156 L 149.78125 145.054688 L 132.03125 180.621094 L 88.410156 158.851562 Z M 106.164062 123.285156 " clip-rule="nonzero"/></clipPath><clipPath id="5c50e8b9cf"><path d="M 106.164062 123.285156 L 149.78125 145.054688 L 132.03125 180.621094 L 88.410156 158.851562 Z M 106.164062 123.285156 " clip-rule="nonzero"/></clipPath><clipPath id="d5da274b77"><path d="M 106.164062 123.285156 L 149.78125 145.054688 L 132.03125 180.621094 L 88.410156 158.851562 Z M 106.164062 123.285156 " clip-rule="nonzero"/></clipPath><clipPath id="b5b57bff48"><path d="M 123 160 L 131 160 L 131 174 L 123 174 Z M 123 160 " clip-rule="nonzero"/></clipPath><clipPath id="059625dc23"><path d="M 106.164062 123.285156 L 149.78125 145.054688 L 132.03125 180.621094 L 88.410156 158.851562 Z M 106.164062 123.285156 " clip-rule="nonzero"/></clipPath><clipPath id="f8a78a90c1"><path d="M 106.164062 123.285156 L 149.78125 145.054688 L 132.03125 180.621094 L 88.410156 158.851562 Z M 106.164062 123.285156 " clip-rule="nonzero"/></clipPath><clipPath id="5a23f87404"><path d="M 106.164062 123.285156 L 149.78125 145.054688 L 132.03125 180.621094 L 88.410156 158.851562 Z M 106.164062 123.285156 " clip-rule="nonzero"/></clipPath><clipPath id="35ef488d3d"><path d="M 128 173 L 134 173 L 134 177 L 128 177 Z M 128 173 " clip-rule="nonzero"/></clipPath><clipPath id="139d156079"><path d="M 106.164062 123.285156 L 149.78125 145.054688 L 132.03125 180.621094 L 88.410156 158.851562 Z M 106.164062 123.285156 " clip-rule="nonzero"/></clipPath><clipPath id="8c31fc5b2f"><path d="M 106.164062 123.285156 L 149.78125 145.054688 L 132.03125 180.621094 L 88.410156 158.851562 Z M 106.164062 123.285156 " clip-rule="nonzero"/></clipPath><clipPath id="fc29c38de4"><path d="M 106.164062 123.285156 L 149.78125 145.054688 L 132.03125 180.621094 L 88.410156 158.851562 Z M 106.164062 123.285156 " clip-rule="nonzero"/></clipPath></defs><path fill="#f6f6f6" d="M 216.308594 227.28125 C 213.003906 231.53125 207.386719 234.566406 199.710938 235.835938 C 199.699219 235.835938 199.691406 235.839844 199.679688 235.839844 C 193.339844 236.886719 186.695312 236.984375 180.953125 234.320312 C 176.410156 232.210938 172.4375 228.371094 169.636719 221.902344 C 169.289062 221.101562 168.960938 220.261719 168.648438 219.378906 C 168.503906 218.960938 168.359375 218.535156 168.222656 218.101562 C 167.695312 216.425781 167.308594 214.761719 167.042969 213.125 C 166.625 210.566406 166.507812 208.074219 166.601562 205.691406 C 166.894531 198.300781 169.238281 191.953125 171.136719 187.949219 C 172.496094 185.085938 173.628906 183.421875 173.628906 183.421875 L 210.859375 183.328125 C 210.859375 183.328125 211.113281 184.027344 211.535156 185.234375 C 212.570312 188.199219 214.613281 194.21875 216.402344 200.507812 C 217.179688 203.242188 217.910156 206.023438 218.488281 208.628906 C 218.964844 210.78125 219.339844 212.808594 219.550781 214.585938 C 219.726562 216.074219 219.789062 217.386719 219.707031 218.445312 C 219.441406 221.75 218.289062 224.734375 216.308594 227.28125 Z M 216.308594 227.28125 " fill-opacity="1" fill-rule="nonzero"/><path fill="#f6f6f6" d="M 128.886719 187.550781 C 128.574219 187.714844 126.164062 189.101562 121.230469 179.941406 C 116.292969 170.78125 120.367188 165.082031 125.90625 162.871094 C 131.449219 160.664062 134.46875 165.992188 134.46875 165.992188 C 134.46875 165.992188 137.292969 166.113281 139.074219 168.566406 C 140.851562 171.015625 138.941406 179.207031 138.941406 179.207031 Z M 128.886719 187.550781 " fill-opacity="1" fill-rule="nonzero"/><path fill="#f6f6f6" d="M 184.175781 232.90625 C 184.175781 232.90625 177.710938 235.175781 172.035156 240.363281 C 170.835938 241.460938 169.671875 242.6875 168.609375 244.050781 C 168.40625 244.3125 168.210938 244.570312 168.019531 244.828125 C 165.007812 248.859375 163.484375 252.175781 162.046875 254.339844 C 161.792969 254.722656 161.542969 255.070312 161.285156 255.378906 C 161.277344 255.390625 161.265625 255.402344 161.257812 255.414062 C 161.242188 255.429688 161.226562 255.449219 161.210938 255.464844 C 161.195312 255.484375 161.183594 255.5 161.167969 255.515625 C 161.152344 255.535156 161.136719 255.550781 161.121094 255.566406 C 161.035156 255.667969 160.945312 255.765625 160.851562 255.855469 C 160.835938 255.871094 160.820312 255.886719 160.808594 255.902344 C 160.730469 255.976562 160.652344 256.046875 160.574219 256.117188 C 160.546875 256.136719 160.523438 256.160156 160.496094 256.183594 C 160.355469 256.300781 160.210938 256.410156 160.0625 256.503906 C 160.042969 256.519531 160.023438 256.53125 160.003906 256.542969 C 159.984375 256.554688 159.964844 256.566406 159.945312 256.578125 C 159.941406 256.582031 159.9375 256.582031 159.933594 256.585938 C 159.914062 256.597656 159.894531 256.609375 159.875 256.621094 C 159.851562 256.632812 159.828125 256.644531 159.808594 256.65625 C 159.785156 256.667969 159.761719 256.679688 159.742188 256.691406 C 159.738281 256.691406 159.738281 256.691406 159.738281 256.691406 C 159.703125 256.710938 159.667969 256.726562 159.632812 256.746094 C 159.617188 256.753906 159.605469 256.757812 159.589844 256.765625 C 159.570312 256.773438 159.546875 256.785156 159.527344 256.792969 C 159.503906 256.804688 159.480469 256.8125 159.460938 256.820312 C 159.449219 256.828125 159.4375 256.832031 159.425781 256.835938 C 159.402344 256.84375 159.382812 256.851562 159.363281 256.859375 C 159.339844 256.871094 159.3125 256.878906 159.289062 256.886719 C 159.058594 256.96875 158.820312 257.027344 158.566406 257.066406 C 158.546875 257.066406 158.53125 257.070312 158.515625 257.070312 C 158.488281 257.074219 158.460938 257.078125 158.433594 257.082031 C 158.40625 257.085938 158.382812 257.085938 158.355469 257.089844 C 158.183594 257.105469 158.007812 257.109375 157.824219 257.105469 C 153.523438 257.011719 140.085938 248.550781 136.84375 242.613281 C 136.75 242.445312 136.664062 242.277344 136.578125 242.117188 C 136.5625 242.082031 136.546875 242.046875 136.527344 242.015625 C 136.488281 241.933594 136.449219 241.855469 136.410156 241.777344 C 136.390625 241.738281 136.371094 241.699219 136.355469 241.660156 C 136.296875 241.539062 136.238281 241.417969 136.1875 241.300781 C 136.164062 241.253906 136.144531 241.207031 136.125 241.160156 C 136.027344 240.945312 135.941406 240.730469 135.863281 240.527344 C 135.859375 240.519531 135.859375 240.515625 135.855469 240.507812 C 135.570312 239.757812 135.390625 239.070312 135.300781 238.441406 C 134.867188 235.324219 136.75 233.632812 139.65625 232.46875 C 143.660156 230.871094 151.023438 234.144531 151.023438 234.144531 C 151.023438 234.144531 152.558594 232.613281 154.851562 230.632812 C 156.207031 229.460938 157.824219 228.132812 159.550781 226.875 C 162.945312 224.394531 166.746094 222.171875 169.753906 221.890625 C 176.878906 221.230469 184.53125 232.359375 184.175781 232.90625 Z M 184.175781 232.90625 " fill-opacity="1" fill-rule="nonzero"/><path fill="#54a3e6" d="M 143.957031 137.53125 C 143.679688 137.40625 139.988281 134.703125 135.757812 137.964844 C 131.53125 141.222656 129.699219 153.699219 133.351562 161.261719 C 137.007812 168.820312 144.527344 165.351562 144.539062 164.925781 C 144.554688 164.496094 143.957031 137.53125 143.957031 137.53125 Z M 143.957031 137.53125 " fill-opacity="1" fill-rule="nonzero"/><path fill="#f6f6f6" d="M 141.273438 137.296875 C 141.054688 137.503906 134.78125 141.785156 135.492188 152.648438 C 136.203125 163.507812 140.378906 166.554688 146.226562 164.8125 C 152.074219 163.070312 152.386719 151.1875 151.679688 146.964844 C 150.972656 142.742188 148.257812 140.304688 148.257812 140.304688 L 151.636719 121.269531 L 147.667969 119.976562 Z M 141.273438 137.296875 " fill-opacity="1" fill-rule="nonzero"/><path fill="#f6f6f6" d="M 153.21875 115.257812 C 153.585938 115.625 153.867188 116.046875 154.066406 116.527344 C 154.265625 117.003906 154.363281 117.503906 154.363281 118.019531 C 154.363281 118.539062 154.265625 119.035156 154.066406 119.511719 C 153.867188 119.992188 153.585938 120.414062 153.21875 120.78125 C 152.851562 121.144531 152.429688 121.429688 151.949219 121.625 C 151.46875 121.824219 150.972656 121.921875 150.453125 121.921875 C 149.933594 121.921875 149.433594 121.824219 148.957031 121.625 C 148.476562 121.429688 148.054688 121.144531 147.6875 120.78125 C 147.320312 120.414062 147.039062 119.992188 146.839844 119.511719 C 146.640625 119.035156 146.542969 118.539062 146.542969 118.019531 C 146.542969 117.503906 146.640625 117.003906 146.839844 116.527344 C 147.039062 116.046875 147.320312 115.625 147.6875 115.257812 C 148.054688 114.894531 148.476562 114.609375 148.957031 114.414062 C 149.433594 114.214844 149.933594 114.117188 150.453125 114.117188 C 150.972656 114.117188 151.46875 114.214844 151.949219 114.414062 C 152.429688 114.609375 152.851562 114.894531 153.21875 115.257812 Z M 153.21875 115.257812 " fill-opacity="1" fill-rule="nonzero"/><path fill="#4ac95b" d="M 231.011719 140.183594 C 231.074219 140.171875 231.054688 140.078125 230.996094 140.089844 C 230.933594 140.097656 230.949219 140.195312 231.011719 140.183594 Z M 231.011719 140.183594 " fill-opacity="1" fill-rule="nonzero"/><g clip-path="url(#859a1b870d)"><path fill="#f6f6f6" d="M 146.574219 173.496094 C 146.5625 173.480469 146.511719 173.335938 146.425781 173.074219 C 145.257812 169.429688 137.984375 142.847656 155.246094 126.199219 C 173.746094 108.359375 202.25 110.183594 218.535156 121.195312 C 234.820312 132.207031 242.597656 159.621094 226.9375 176.761719 C 222.089844 182.066406 215.398438 185.597656 208.128906 187.859375 C 191.90625 192.90625 172.804688 191.609375 164.945312 189.492188 C 148.035156 184.9375 146.574219 173.496094 146.574219 173.496094 Z M 146.574219 173.496094 " fill-opacity="1" fill-rule="nonzero"/></g><path fill="#1e1915" d="M 149.152344 173.289062 C 146.773438 168.582031 142.460938 142.179688 154.203125 136.246094 C 165.941406 130.3125 197.796875 128.402344 205.046875 136.382812 C 212.296875 144.363281 213.808594 173.050781 201.902344 178.671875 C 189.996094 184.289062 156.566406 187.953125 149.152344 173.289062 Z M 149.152344 173.289062 " fill-opacity="1" fill-rule="nonzero"/><path fill="#54a3e6" d="M 175.488281 171.578125 C 174.164062 171.578125 172.917969 171.421875 171.773438 171.105469 C 170.605469 170.785156 169.539062 170.300781 168.597656 169.664062 C 167.152344 168.6875 166.382812 167.613281 166.050781 167.0625 L 166.042969 167.050781 C 165.796875 166.636719 165.929688 166.101562 166.34375 165.855469 C 166.757812 165.605469 167.292969 165.742188 167.542969 166.152344 L 167.550781 166.167969 C 167.757812 166.511719 168.367188 167.402344 169.578125 168.222656 C 171.363281 169.425781 173.640625 169.960938 176.347656 169.8125 C 178.78125 169.675781 180.847656 169.039062 182.316406 167.96875 C 183.296875 167.253906 183.761719 166.527344 183.898438 166.25 C 183.925781 166 184.058594 165.765625 184.28125 165.617188 C 184.589844 165.410156 185 165.421875 185.296875 165.640625 C 185.414062 165.726562 185.789062 166.0625 185.605469 166.671875 C 185.46875 167.128906 184.832031 168.273438 183.410156 169.332031 C 181.632812 170.648438 179.289062 171.394531 176.445312 171.554688 C 176.121094 171.570312 175.804688 171.578125 175.488281 171.578125 Z M 185.25 167.070312 Z M 185.25 167.070312 " fill-opacity="1" fill-rule="nonzero"/><path fill="#54a3e6" d="M 189.542969 144.652344 C 189.941406 144.6875 190.332031 144.773438 190.714844 144.914062 C 191.097656 145.054688 191.464844 145.246094 191.8125 145.484375 C 192.164062 145.726562 192.492188 146.015625 192.796875 146.347656 C 193.105469 146.679688 193.382812 147.054688 193.628906 147.464844 C 193.878906 147.878906 194.09375 148.320312 194.277344 148.796875 C 194.460938 149.269531 194.605469 149.769531 194.714844 150.289062 C 194.824219 150.808594 194.894531 151.339844 194.929688 151.886719 C 194.960938 152.429688 194.953125 152.976562 194.90625 153.527344 C 194.859375 154.074219 194.773438 154.617188 194.648438 155.148438 C 194.527344 155.679688 194.367188 156.191406 194.167969 156.6875 C 193.972656 157.179688 193.746094 157.644531 193.484375 158.082031 C 193.222656 158.519531 192.9375 158.921875 192.621094 159.285156 C 192.304688 159.648438 191.96875 159.972656 191.613281 160.246094 C 191.253906 160.523438 190.882812 160.75 190.496094 160.929688 C 190.109375 161.109375 189.714844 161.234375 189.316406 161.308594 C 188.914062 161.382812 188.515625 161.402344 188.117188 161.367188 C 187.714844 161.335938 187.324219 161.246094 186.945312 161.109375 C 186.5625 160.96875 186.195312 160.777344 185.84375 160.535156 C 185.492188 160.292969 185.164062 160.007812 184.859375 159.671875 C 184.554688 159.339844 184.277344 158.96875 184.027344 158.554688 C 183.777344 158.144531 183.5625 157.699219 183.378906 157.222656 C 183.199219 156.75 183.050781 156.25 182.941406 155.730469 C 182.832031 155.210938 182.761719 154.679688 182.730469 154.132812 C 182.699219 153.589844 182.707031 153.042969 182.753906 152.492188 C 182.800781 151.945312 182.886719 151.40625 183.007812 150.871094 C 183.132812 150.339844 183.292969 149.828125 183.488281 149.335938 C 183.683594 148.839844 183.914062 148.375 184.171875 147.9375 C 184.433594 147.5 184.722656 147.097656 185.039062 146.734375 C 185.351562 146.371094 185.6875 146.050781 186.046875 145.773438 C 186.40625 145.496094 186.777344 145.269531 187.164062 145.089844 C 187.550781 144.910156 187.941406 144.785156 188.34375 144.710938 C 188.742188 144.636719 189.144531 144.617188 189.542969 144.652344 Z M 189.542969 144.652344 " fill-opacity="1" fill-rule="nonzero"/><path fill="#54a3e6" d="M 166.898438 154.097656 C 166.90625 154.648438 166.878906 155.195312 166.808594 155.734375 C 166.742188 156.277344 166.636719 156.804688 166.496094 157.3125 C 166.355469 157.824219 166.179688 158.3125 165.96875 158.773438 C 165.757812 159.234375 165.519531 159.660156 165.25 160.054688 C 164.980469 160.449219 164.683594 160.800781 164.363281 161.113281 C 164.042969 161.425781 163.703125 161.6875 163.347656 161.902344 C 162.988281 162.121094 162.621094 162.285156 162.238281 162.398438 C 161.855469 162.511719 161.46875 162.574219 161.078125 162.578125 C 160.6875 162.585938 160.300781 162.535156 159.914062 162.433594 C 159.53125 162.335938 159.15625 162.179688 158.792969 161.976562 C 158.425781 161.769531 158.082031 161.515625 157.75 161.214844 C 157.421875 160.914062 157.113281 160.574219 156.832031 160.1875 C 156.550781 159.800781 156.296875 159.382812 156.074219 158.929688 C 155.847656 158.472656 155.65625 157.992188 155.5 157.488281 C 155.34375 156.980469 155.222656 156.457031 155.136719 155.917969 C 155.050781 155.378906 155.003906 154.835938 154.996094 154.285156 C 154.988281 153.734375 155.015625 153.1875 155.085938 152.644531 C 155.152344 152.105469 155.257812 151.578125 155.398438 151.066406 C 155.539062 150.554688 155.714844 150.070312 155.925781 149.609375 C 156.136719 149.148438 156.375 148.71875 156.644531 148.324219 C 156.914062 147.929688 157.210938 147.578125 157.53125 147.269531 C 157.851562 146.957031 158.191406 146.691406 158.546875 146.476562 C 158.90625 146.261719 159.273438 146.09375 159.65625 145.980469 C 160.039062 145.867188 160.425781 145.808594 160.816406 145.800781 C 161.207031 145.796875 161.59375 145.84375 161.980469 145.945312 C 162.363281 146.046875 162.738281 146.199219 163.101562 146.40625 C 163.46875 146.609375 163.8125 146.863281 164.144531 147.164062 C 164.472656 147.464844 164.78125 147.808594 165.0625 148.191406 C 165.34375 148.578125 165.597656 149 165.824219 149.453125 C 166.046875 149.90625 166.238281 150.386719 166.394531 150.894531 C 166.554688 151.402344 166.675781 151.921875 166.757812 152.460938 C 166.84375 153 166.890625 153.546875 166.898438 154.097656 Z M 166.898438 154.097656 " fill-opacity="1" fill-rule="nonzero"/><path fill="#54a3e6" d="M 233.851562 139.320312 C 233.574219 139.195312 229.882812 136.492188 225.652344 139.753906 C 221.421875 143.011719 219.589844 155.488281 223.246094 163.050781 C 226.898438 170.609375 234.421875 167.140625 234.433594 166.714844 C 234.445312 166.285156 233.851562 139.320312 233.851562 139.320312 Z M 233.851562 139.320312 " fill-opacity="1" fill-rule="nonzero"/><path fill="#f6f6f6" d="M 231.167969 139.085938 C 230.949219 139.292969 224.671875 143.578125 225.382812 154.4375 C 226.09375 165.296875 230.273438 168.34375 236.121094 166.605469 C 241.96875 164.859375 242.28125 152.980469 241.570312 148.757812 C 240.863281 144.535156 238.152344 142.09375 238.152344 142.09375 L 241.53125 123.058594 L 237.5625 121.765625 L 231.167969 139.089844 Z M 231.167969 139.085938 " fill-opacity="1" fill-rule="nonzero"/><path fill="#f6f6f6" d="M 243.109375 117.050781 C 243.476562 117.414062 243.761719 117.835938 243.957031 118.316406 C 244.15625 118.792969 244.257812 119.292969 244.257812 119.808594 C 244.257812 120.328125 244.15625 120.824219 243.957031 121.304688 C 243.761719 121.78125 243.476562 122.203125 243.109375 122.570312 C 242.746094 122.933594 242.320312 123.21875 241.84375 123.414062 C 241.363281 123.613281 240.863281 123.710938 240.34375 123.710938 C 239.828125 123.710938 239.328125 123.613281 238.847656 123.414062 C 238.371094 123.21875 237.945312 122.933594 237.582031 122.570312 C 237.214844 122.203125 236.929688 121.78125 236.734375 121.304688 C 236.535156 120.824219 236.433594 120.328125 236.433594 119.808594 C 236.433594 119.292969 236.535156 118.792969 236.734375 118.316406 C 236.929688 117.835938 237.214844 117.414062 237.582031 117.050781 C 237.945312 116.683594 238.371094 116.402344 238.847656 116.203125 C 239.328125 116.003906 239.828125 115.90625 240.34375 115.90625 C 240.863281 115.90625 241.363281 116.003906 241.84375 116.203125 C 242.320312 116.402344 242.746094 116.683594 243.109375 117.050781 Z M 243.109375 117.050781 " fill-opacity="1" fill-rule="nonzero"/><path fill="#f6f6f6" d="M 252.136719 206.273438 C 252.113281 206.328125 252.039062 206.414062 251.910156 206.519531 C 250.300781 207.898438 240.691406 213.199219 238.582031 211.78125 C 238.242188 211.550781 237.914062 211.121094 237.582031 210.558594 C 237.089844 209.726562 236.578125 208.601562 235.960938 207.382812 C 235.121094 205.71875 234.085938 203.882812 232.652344 202.382812 C 231.074219 200.734375 229.007812 199.492188 226.183594 199.332031 C 222.523438 199.128906 219.128906 199.71875 216.402344 200.507812 C 212.746094 201.5625 210.28125 202.964844 209.96875 203.265625 C 209.417969 203.792969 205.207031 187.378906 205.691406 187.433594 C 205.882812 187.457031 208.066406 186.355469 211.535156 185.234375 C 216.777344 183.542969 224.953125 181.808594 233.621094 183.847656 C 238.726562 185.046875 242.4375 188.238281 245.09375 191.640625 C 246.507812 193.453125 247.625 195.328125 248.496094 196.996094 C 249.652344 199.214844 250.371094 201.066406 250.769531 201.914062 C 252.03125 204.601562 252.417969 205.523438 252.136719 206.273438 Z M 252.136719 206.273438 " fill-opacity="1" fill-rule="nonzero"/><g clip-path="url(#f9da5c3ffc)"><path fill="#f6f6f6" d="M 238.890625 208.199219 C 238.351562 208.625 234.617188 215.632812 236.835938 219.40625 C 239.050781 223.175781 240.953125 219.382812 240.953125 219.382812 C 240.953125 219.382812 242.300781 221.292969 242.269531 221.582031 C 242.234375 221.871094 239.683594 224.515625 242.828125 227.023438 C 245.972656 229.527344 251.035156 228.929688 254.636719 223.078125 C 258.238281 217.230469 254.96875 208.941406 252.726562 207.121094 C 250.480469 205.304688 249.460938 205.679688 248.847656 205.902344 C 248.234375 206.125 238.890625 208.199219 238.890625 208.199219 Z M 238.890625 208.199219 " fill-opacity="1" fill-rule="nonzero"/></g><g clip-path="url(#2654ee6edb)"><path fill="#f6f6f6" d="M 236.078125 262.335938 C 228.578125 261.097656 227.8125 252.308594 227.984375 251.644531 C 228.121094 251.128906 226.285156 252.445312 220.070312 251.910156 C 218.265625 251.753906 216.085938 251.441406 213.476562 250.882812 C 213.339844 250.855469 213.203125 250.824219 213.066406 250.789062 C 205.132812 248.847656 201.449219 240.820312 199.679688 235.839844 C 198.945312 233.773438 198.542969 232.230469 198.300781 231.863281 L 215.5625 225.605469 C 215.5625 225.605469 215.800781 226.269531 216.308594 227.28125 C 217.136719 228.933594 218.6875 231.511719 221.113281 233.660156 C 221.363281 233.882812 221.628906 234.085938 221.90625 234.265625 C 223.507812 235.304688 225.542969 235.6875 227.710938 235.722656 C 231.0625 235.777344 234.730469 235 237.566406 234.542969 C 242.554688 233.738281 243.984375 244.460938 245.59375 250.996094 C 247.203125 257.53125 243.578125 263.574219 236.078125 262.335938 Z M 236.078125 262.335938 " fill-opacity="1" fill-rule="nonzero"/></g><path fill="#000000" d="M 161.691406 253.039062 C 161.976562 253.851562 161.808594 254.753906 161.257812 255.414062 C 160.3125 256.535156 159.296875 257.140625 157.824219 257.105469 C 153.523438 257.011719 140.085938 248.550781 136.84375 242.613281 C 136.433594 241.867188 136.109375 241.171875 135.863281 240.527344 C 135.390625 239.285156 135.984375 237.890625 137.21875 237.386719 C 137.226562 237.386719 137.230469 237.382812 137.238281 237.378906 C 143.507812 234.847656 158.789062 244.785156 161.691406 253.039062 Z M 161.691406 253.039062 " fill-opacity="1" fill-rule="nonzero"/><path fill="#f6f6f6" d="M 173.796875 204.359375 C 173.753906 204.746094 162.164062 207.640625 147.359375 204.304688 C 146.796875 204.179688 146.25 204.035156 145.710938 203.878906 C 143.5 203.234375 141.5 202.339844 139.699219 201.300781 C 130.414062 195.929688 126.449219 186.59375 126.449219 186.59375 L 139.847656 178.136719 C 139.847656 178.136719 141.191406 180.09375 144.777344 182.695312 C 146.144531 183.683594 147.835938 184.769531 149.902344 185.875 C 150.878906 186.398438 151.941406 186.929688 153.089844 187.453125 C 163.054688 192 172.285156 187.472656 172.695312 187.324219 C 172.695312 187.324219 173.84375 203.972656 173.796875 204.359375 Z M 173.796875 204.359375 " fill-opacity="1" fill-rule="nonzero"/><path fill="#1e1915" d="M 133.484375 166.761719 C 132.082031 167.152344 130.644531 167.578125 129.441406 168.425781 C 128.355469 169.195312 127.480469 170.339844 127.277344 171.679688 C 127.175781 172.335938 127.234375 172.996094 127.496094 173.609375 C 127.761719 174.222656 128.226562 174.753906 128.773438 175.152344 C 130.003906 176.042969 131.640625 176.183594 133.105469 175.992188 C 133.984375 175.875 134.835938 175.636719 135.644531 175.273438 C 135.734375 175.234375 135.820312 175.179688 135.914062 175.15625 C 136.007812 175.132812 136.085938 175.125 136.167969 175.074219 C 136.367188 174.949219 136.46875 174.683594 136.34375 174.472656 C 136.070312 174.007812 135.34375 174.503906 135.722656 174.941406 C 136.003906 175.265625 136.472656 174.792969 136.195312 174.46875 L 136.179688 174.449219 L 136.277344 174.683594 L 136.277344 174.664062 L 136.234375 174.832031 L 136.246094 174.8125 L 136.128906 174.933594 L 136.035156 174.957031 L 135.800781 174.859375 L 135.820312 174.878906 L 135.734375 174.730469 L 135.746094 174.769531 L 135.746094 174.589844 C 135.757812 174.527344 135.890625 174.503906 135.765625 174.507812 C 135.738281 174.507812 135.710938 174.519531 135.6875 174.527344 C 135.605469 174.550781 135.535156 174.59375 135.460938 174.628906 C 135.304688 174.699219 135.148438 174.769531 134.988281 174.832031 C 134.6875 174.945312 134.378906 175.046875 134.066406 175.128906 C 133.4375 175.292969 132.792969 175.382812 132.140625 175.394531 C 130.953125 175.417969 129.699219 175.15625 128.8125 174.320312 C 128.027344 173.585938 127.730469 172.550781 127.992188 171.507812 C 128.253906 170.46875 128.980469 169.546875 129.882812 168.933594 C 131.019531 168.160156 132.351562 167.769531 133.664062 167.40625 C 134.078125 167.289062 133.902344 166.644531 133.484375 166.761719 Z M 133.484375 166.761719 " fill-opacity="1" fill-rule="nonzero"/><path fill="#1e1915" d="M 133.019531 176.054688 C 134.359375 177.417969 134.207031 179.492188 134.074219 181.242188 C 134.0625 181.421875 134.238281 181.574219 134.410156 181.574219 C 134.601562 181.574219 134.730469 181.421875 134.746094 181.242188 C 134.894531 179.292969 134.96875 177.085938 133.492188 175.582031 C 133.1875 175.273438 132.714844 175.746094 133.019531 176.054688 Z M 133.019531 176.054688 " fill-opacity="1" fill-rule="nonzero"/><path fill="#54a3e6" d="M 227.460938 207.289062 C 227.464844 207.296875 227.46875 207.304688 227.472656 207.3125 C 227.472656 207.3125 227.476562 207.316406 227.476562 207.320312 C 227.46875 207.308594 227.464844 207.300781 227.460938 207.289062 Z M 227.460938 207.289062 " fill-opacity="1" fill-rule="nonzero"/><path fill="#54a3e6" d="M 219.550781 214.589844 C 219.304688 214.667969 219.058594 214.746094 218.816406 214.824219 C 216.25 215.628906 213.652344 216.328125 211.039062 216.941406 C 208.558594 217.523438 206.0625 218.023438 203.554688 218.445312 C 201.054688 218.867188 198.542969 219.207031 196.023438 219.472656 C 193.5 219.738281 190.972656 219.921875 188.441406 220.03125 C 185.664062 220.148438 182.882812 220.1875 180.101562 220.136719 C 177.558594 220.085938 175.011719 219.957031 172.476562 219.75 C 171.199219 219.648438 169.921875 219.523438 168.648438 219.378906 C 168.503906 218.960938 168.359375 218.535156 168.222656 218.101562 C 167.695312 216.425781 167.308594 214.761719 167.042969 213.125 C 169.621094 213.46875 172.210938 213.726562 174.808594 213.902344 C 178.28125 214.140625 181.761719 214.226562 185.242188 214.167969 C 187.410156 214.113281 189.582031 214.003906 191.746094 213.839844 C 195.835938 213.523438 199.90625 213.003906 203.941406 212.277344 C 207.789062 211.585938 211.609375 210.71875 215.363281 209.636719 C 215.371094 209.632812 215.375 209.632812 215.382812 209.628906 C 216.253906 209.371094 217.121094 209.09375 217.980469 208.804688 C 218.148438 208.746094 218.320312 208.6875 218.488281 208.628906 C 218.964844 210.78125 219.339844 212.808594 219.550781 214.585938 Z M 219.550781 214.589844 " fill-opacity="1" fill-rule="nonzero"/><path fill="#54a3e6" d="M 227.710938 235.71875 C 227.222656 237.582031 226.65625 239.425781 225.972656 241.226562 C 224.960938 243.894531 223.6875 246.457031 222.183594 248.882812 C 221.546875 249.910156 220.855469 250.910156 220.109375 251.863281 C 220.097656 251.878906 220.085938 251.894531 220.070312 251.910156 C 218.265625 251.753906 216.085938 251.441406 213.476562 250.882812 C 213.339844 250.855469 213.203125 250.824219 213.066406 250.789062 C 213.164062 250.695312 213.261719 250.601562 213.355469 250.503906 C 213.679688 250.164062 213.996094 249.8125 214.304688 249.457031 C 215.679688 247.867188 216.882812 246.140625 217.933594 244.320312 C 217.9375 244.320312 217.9375 244.316406 217.941406 244.3125 C 218.316406 243.628906 218.671875 242.933594 219.007812 242.226562 C 220.21875 239.671875 221.164062 236.992188 221.90625 234.265625 C 223.507812 235.300781 225.542969 235.683594 227.710938 235.71875 Z M 227.710938 235.71875 " fill-opacity="1" fill-rule="nonzero"/><path fill="#54a3e6" d="M 172.035156 240.363281 C 170.835938 241.460938 169.671875 242.6875 168.609375 244.050781 C 168.40625 244.3125 168.210938 244.570312 168.019531 244.828125 C 166.96875 243.917969 165.941406 242.984375 164.9375 242.023438 C 163.15625 240.320312 161.429688 238.566406 159.792969 236.726562 C 158.3125 235.0625 156.898438 233.339844 155.554688 231.5625 C 155.324219 231.253906 155.085938 230.941406 154.855469 230.632812 C 156.207031 229.460938 157.828125 228.132812 159.550781 226.875 C 159.820312 227.234375 160.09375 227.589844 160.363281 227.949219 C 162.828125 231.199219 165.535156 234.265625 168.449219 237.121094 C 168.453125 237.121094 168.457031 237.125 168.460938 237.128906 C 168.957031 237.605469 169.460938 238.078125 169.972656 238.542969 C 170.648438 239.164062 171.335938 239.769531 172.035156 240.363281 Z M 172.035156 240.363281 " fill-opacity="1" fill-rule="nonzero"/><path fill="#54a3e6" d="M 227.472656 207.3125 C 227.472656 207.3125 227.472656 207.316406 227.476562 207.320312 C 227.46875 207.308594 227.464844 207.300781 227.460938 207.289062 C 227.464844 207.296875 227.46875 207.304688 227.472656 207.3125 Z M 227.472656 207.3125 " fill-opacity="1" fill-rule="nonzero"/><path fill="#54a3e6" d="M 248.496094 196.996094 C 247.472656 198.175781 246.386719 199.304688 245.269531 200.390625 C 244 201.625 242.65625 202.785156 241.25 203.863281 C 239.65625 205.085938 237.976562 206.175781 236.25 207.210938 C 236.15625 207.269531 236.058594 207.324219 235.960938 207.382812 C 235.121094 205.71875 234.085938 203.882812 232.652344 202.382812 C 233.003906 202.1875 233.351562 201.988281 233.699219 201.78125 C 234.316406 201.398438 234.925781 201.003906 235.523438 200.59375 C 237.90625 198.960938 240.128906 197.101562 242.160156 195.054688 C 242.863281 194.320312 243.539062 193.558594 244.191406 192.78125 C 244.5 192.40625 244.804688 192.03125 245.09375 191.640625 C 246.511719 193.457031 247.625 195.328125 248.496094 196.996094 Z M 248.496094 196.996094 " fill-opacity="1" fill-rule="nonzero"/><path fill="#54a3e6" d="M 145.671875 203.035156 C 145.679688 203.316406 145.695312 203.597656 145.714844 203.878906 C 143.503906 203.234375 141.5 202.339844 139.699219 201.300781 C 139.734375 199.992188 139.839844 198.6875 140.019531 197.390625 C 140.355469 195 140.929688 192.632812 141.652344 190.324219 C 142.476562 187.695312 143.550781 185.15625 144.777344 182.695312 C 146.144531 183.683594 147.835938 184.769531 149.902344 185.875 C 148.574219 188.65625 147.464844 191.539062 146.679688 194.515625 C 146.550781 195.058594 146.429688 195.605469 146.324219 196.15625 C 145.882812 198.417969 145.652344 200.726562 145.671875 203.035156 Z M 145.671875 203.035156 " fill-opacity="1" fill-rule="nonzero"/><path fill="#54a3e6" d="M 182.699219 205.019531 L 197.835938 203.847656 C 198.09375 203.828125 198.34375 203.859375 198.589844 203.9375 C 198.835938 204.019531 199.054688 204.140625 199.25 204.308594 C 199.449219 204.476562 199.605469 204.675781 199.722656 204.90625 C 199.835938 205.132812 199.90625 205.378906 199.925781 205.632812 L 199.925781 205.636719 C 199.945312 205.890625 199.914062 206.144531 199.835938 206.386719 C 199.753906 206.632812 199.632812 206.851562 199.464844 207.046875 C 199.296875 207.246094 199.097656 207.402344 198.867188 207.515625 C 198.636719 207.632812 198.394531 207.703125 198.136719 207.722656 L 183 208.890625 C 182.742188 208.914062 182.488281 208.882812 182.246094 208.800781 C 182 208.722656 181.777344 208.597656 181.582031 208.429688 C 181.386719 208.265625 181.230469 208.066406 181.113281 207.835938 C 180.996094 207.605469 180.925781 207.363281 180.90625 207.105469 C 180.886719 206.847656 180.917969 206.597656 180.996094 206.351562 C 181.078125 206.109375 181.203125 205.886719 181.371094 205.691406 C 181.539062 205.496094 181.734375 205.339844 181.964844 205.222656 C 182.195312 205.105469 182.441406 205.039062 182.699219 205.019531 Z M 182.699219 205.019531 " fill-opacity="1" fill-rule="nonzero"/><g clip-path="url(#a5bebbc4f7)"><path fill="#1f2b5b" d="M 202.5 195.960938 L 202.5 192.742188 L 204.753906 192.742188 C 204.753906 192.742188 204.78125 194.25 204.207031 194.855469 C 203.628906 195.464844 202.5 195.960938 202.5 195.960938 Z M 202.5 195.960938 " fill-opacity="1" fill-rule="nonzero"/></g><g clip-path="url(#5459326fc4)"><g clip-path="url(#36e70778a7)"><path fill="url(#0e5b2c0f91)" d="M 198.75 192.863281 L 198.75 198.726562 L 204.753906 198.726562 L 204.753906 192.863281 Z M 198.75 192.863281 " fill-rule="nonzero"/></g></g><g clip-path="url(#6b26f0f43f)"><path fill="#1f2b5b" d="M 204.753906 198.5 L 204.753906 201.722656 L 202.5 201.722656 C 202.5 201.722656 202.46875 200.214844 203.046875 199.605469 C 203.621094 199 204.753906 198.5 204.753906 198.5 Z M 204.753906 198.5 " fill-opacity="1" fill-rule="nonzero"/></g><g clip-path="url(#7e086cb4bc)"><g clip-path="url(#5c2b4fb6ad)"><path fill="url(#efee827709)" d="M 208.5 201.601562 L 208.5 195.734375 L 202.496094 195.734375 L 202.496094 201.601562 Z M 208.5 201.601562 " fill-rule="nonzero"/></g></g><g clip-path="url(#e971615e1d)"><g clip-path="url(#d63ea98094)"><g clip-path="url(#59ba296959)"><path fill="#002d75" d="M 207.710938 107.269531 C 207.6875 107.605469 207.644531 107.9375 207.578125 108.261719 C 206.785156 107.59375 205.921875 107.007812 205.007812 106.515625 C 200.417969 104.058594 195.523438 102.621094 190.457031 102.246094 C 185.390625 101.871094 180.335938 102.570312 175.4375 104.328125 C 174.457031 104.675781 173.519531 105.132812 172.636719 105.675781 C 172.621094 105.34375 172.625 105.011719 172.652344 104.671875 C 172.996094 100.03125 177.050781 96.53125 181.695312 96.875 L 199.917969 98.226562 C 204.558594 98.570312 208.054688 102.625 207.710938 107.269531 Z M 207.710938 107.269531 " fill-opacity="1" fill-rule="nonzero"/></g></g></g><g clip-path="url(#a383ea8cbc)"><g clip-path="url(#535445a615)"><g clip-path="url(#203ed8b6b7)"><path fill="#002d75" d="M 207.199219 109.605469 C 206.390625 108.871094 205.460938 108.203125 204.40625 107.636719 C 199.976562 105.261719 195.25 103.875 190.363281 103.511719 C 185.476562 103.152344 180.597656 103.828125 175.867188 105.523438 C 174.738281 105.929688 173.722656 106.453125 172.816406 107.0625 C 172.621094 107.1875 172.433594 107.320312 172.25 107.457031 C 173.160156 111.175781 176.378906 114.054688 180.398438 114.351562 L 187.667969 114.890625 L 187.738281 113.933594 L 185.433594 113.761719 C 184.5 113.691406 183.800781 112.808594 183.878906 111.792969 C 183.953125 110.773438 184.773438 110.003906 185.707031 110.074219 L 188.011719 110.246094 L 188.183594 107.941406 C 188.25 107.007812 189.132812 106.308594 190.152344 106.382812 C 191.167969 106.460938 191.9375 107.28125 191.871094 108.214844 L 191.699219 110.515625 L 194.003906 110.6875 C 194.9375 110.757812 195.632812 111.636719 195.558594 112.65625 C 195.484375 113.675781 194.664062 114.445312 193.730469 114.375 L 191.425781 114.207031 L 191.355469 115.164062 L 198.621094 115.699219 C 202.648438 116 206.253906 113.625 207.699219 110.078125 C 207.539062 109.917969 207.371094 109.757812 207.199219 109.605469 Z M 207.199219 109.605469 " fill-opacity="1" fill-rule="nonzero"/></g></g></g><g clip-path="url(#91e6a57c0d)"><g clip-path="url(#4467b4e8ca)"><g clip-path="url(#e21e934cc4)"><path fill="#ffffff" d="M 207.699219 110.078125 C 207.539062 109.917969 207.371094 109.757812 207.199219 109.605469 C 205.917969 113.027344 202.492188 115.347656 198.667969 115.066406 L 191.402344 114.527344 L 191.308594 115.796875 L 198.574219 116.335938 C 202.773438 116.644531 206.558594 114.226562 208.175781 110.578125 C 208.019531 110.410156 207.863281 110.246094 207.699219 110.078125 Z M 180.445312 113.71875 C 176.625 113.433594 173.578125 110.632812 172.816406 107.0625 C 172.621094 107.1875 172.433594 107.320312 172.25 107.457031 C 172.0625 107.59375 171.882812 107.734375 171.707031 107.878906 C 172.769531 111.722656 176.15625 114.675781 180.351562 114.984375 L 187.621094 115.523438 L 187.714844 114.253906 Z M 180.445312 113.71875 " fill-opacity="1" fill-rule="nonzero"/></g></g></g><g clip-path="url(#fd27c3ddc7)"><g clip-path="url(#ee33328008)"><g clip-path="url(#049ca99431)"><path fill="#002d75" d="M 211.617188 117.484375 C 211.257812 115.375 210.175781 112.785156 208.175781 110.582031 C 208.019531 110.410156 207.863281 110.246094 207.699219 110.078125 C 207.539062 109.917969 207.371094 109.757812 207.199219 109.605469 C 206.390625 108.871094 205.460938 108.203125 204.40625 107.636719 C 199.976562 105.261719 195.25 103.875 190.363281 103.511719 C 185.476562 103.152344 180.597656 103.828125 175.867188 105.523438 C 174.738281 105.929688 173.722656 106.453125 172.816406 107.0625 C 172.621094 107.1875 172.433594 107.320312 172.25 107.457031 C 172.0625 107.59375 171.882812 107.734375 171.707031 107.878906 C 169.402344 109.765625 167.949219 112.167969 167.28125 114.203125 C 166.480469 116.648438 166.605469 118.921875 167.625 120.433594 C 168.199219 121.308594 168.875 121.984375 169.59375 122.496094 C 169.792969 122.542969 170.273438 122.648438 170.933594 122.742188 L 170.9375 122.742188 C 171.3125 122.796875 171.746094 122.847656 172.222656 122.882812 C 174.625 123.058594 178.101562 122.851562 180.480469 120.695312 C 180.703125 120.496094 180.914062 120.277344 181.113281 120.042969 C 181.34375 119.777344 181.742188 119.746094 182.011719 119.972656 C 182.277344 120.199219 182.3125 120.601562 182.082031 120.867188 C 180.257812 123.007812 177.726562 123.859375 175.382812 124.121094 C 176.777344 124.101562 178.230469 123.851562 179.640625 123.382812 C 182.679688 122.292969 185.828125 121.855469 188.988281 122.089844 C 192.144531 122.324219 195.199219 123.21875 198.058594 124.753906 C 199.722656 125.59375 201.519531 126.109375 203.234375 126.234375 C 205.28125 126.386719 208.175781 126.050781 210.359375 123.601562 C 211.59375 122.253906 212.050781 120.023438 211.617188 117.484375 Z M 184.640625 118.734375 C 184.019531 119.269531 183.078125 119.203125 182.542969 118.578125 C 182.003906 117.953125 182.074219 117.011719 182.699219 116.476562 C 183.320312 115.941406 184.261719 116.007812 184.796875 116.632812 C 185.335938 117.253906 185.265625 118.199219 184.640625 118.734375 Z M 191.253906 116.507812 C 191.1875 117.445312 190.304688 118.140625 189.285156 118.066406 C 188.269531 117.988281 187.5 117.171875 187.566406 116.234375 L 187.738281 113.933594 L 185.433594 113.761719 C 184.5 113.691406 183.800781 112.808594 183.878906 111.792969 C 183.953125 110.773438 184.773438 110.003906 185.707031 110.074219 L 188.011719 110.246094 L 188.183594 107.941406 C 188.25 107.007812 189.132812 106.308594 190.152344 106.382812 C 191.167969 106.460938 191.9375 107.28125 191.871094 108.214844 L 191.699219 110.519531 L 194.003906 110.6875 C 194.9375 110.757812 195.632812 111.636719 195.558594 112.65625 C 195.484375 113.675781 194.664062 114.445312 193.730469 114.375 L 191.425781 114.207031 Z M 191.253906 116.507812 " fill-opacity="1" fill-rule="nonzero"/><path fill="#002d75" d="M 211.617188 117.484375 C 211.257812 115.375 210.175781 112.785156 208.175781 110.582031 C 208.019531 110.410156 207.863281 110.246094 207.699219 110.078125 C 207.539062 109.917969 207.371094 109.757812 207.199219 109.605469 C 206.390625 108.871094 205.460938 108.203125 204.40625 107.636719 C 199.976562 105.261719 195.25 103.875 190.363281 103.511719 C 185.476562 103.152344 180.597656 103.828125 175.867188 105.523438 C 174.738281 105.929688 173.722656 106.453125 172.816406 107.0625 C 172.621094 107.1875 172.433594 107.320312 172.25 107.457031 C 172.0625 107.59375 171.882812 107.734375 171.707031 107.878906 C 169.402344 109.765625 167.949219 112.167969 167.28125 114.203125 C 166.480469 116.648438 166.605469 118.921875 167.625 120.433594 C 168.199219 121.308594 168.875 121.984375 169.59375 122.496094 C 169.792969 122.542969 170.273438 122.648438 170.933594 122.742188 L 170.9375 122.742188 C 171.3125 122.796875 171.746094 122.847656 172.222656 122.882812 C 174.625 123.058594 178.101562 122.851562 180.480469 120.695312 C 180.703125 120.496094 180.914062 120.277344 181.113281 120.042969 C 181.34375 119.777344 181.742188 119.746094 182.011719 119.972656 C 182.277344 120.199219 182.3125 120.601562 182.082031 120.867188 C 180.257812 123.007812 177.726562 123.859375 175.382812 124.121094 C 176.777344 124.101562 178.230469 123.851562 179.640625 123.382812 C 182.679688 122.292969 185.828125 121.855469 188.988281 122.089844 C 192.144531 122.324219 195.199219 123.21875 198.058594 124.753906 C 199.722656 125.59375 201.519531 126.109375 203.234375 126.234375 C 205.28125 126.386719 208.175781 126.050781 210.359375 123.601562 C 211.59375 122.253906 212.050781 120.023438 211.617188 117.484375 Z M 184.640625 118.734375 C 184.019531 119.269531 183.078125 119.203125 182.542969 118.578125 C 182.003906 117.953125 182.074219 117.011719 182.699219 116.476562 C 183.320312 115.941406 184.261719 116.007812 184.796875 116.632812 C 185.335938 117.253906 185.265625 118.199219 184.640625 118.734375 Z M 191.253906 116.507812 C 191.1875 117.445312 190.304688 118.140625 189.285156 118.066406 C 188.269531 117.988281 187.5 117.171875 187.566406 116.234375 L 187.738281 113.933594 L 185.433594 113.761719 C 184.5 113.691406 183.800781 112.808594 183.878906 111.792969 C 183.953125 110.773438 184.773438 110.003906 185.707031 110.074219 L 188.011719 110.246094 L 188.183594 107.941406 C 188.25 107.007812 189.132812 106.308594 190.152344 106.382812 C 191.167969 106.460938 191.9375 107.28125 191.871094 108.214844 L 191.699219 110.519531 L 194.003906 110.6875 C 194.9375 110.757812 195.632812 111.636719 195.558594 112.65625 C 195.484375 113.675781 194.664062 114.445312 193.730469 114.375 L 191.425781 114.207031 Z M 191.253906 116.507812 " fill-opacity="1" fill-rule="nonzero"/></g></g></g><g clip-path="url(#94b45badf5)"><g clip-path="url(#4cdad4acf0)"><g clip-path="url(#3c87a20583)"><path fill="#002d75" d="M 180.480469 120.695312 C 178.101562 122.851562 174.625 123.058594 172.222656 122.882812 C 171.746094 122.847656 171.3125 122.796875 170.9375 122.742188 Z M 180.480469 120.695312 " fill-opacity="1" fill-rule="nonzero"/></g></g></g><g clip-path="url(#727294f0ec)"><g clip-path="url(#b5158867ef)"><g clip-path="url(#f14d43340e)"><g clip-path="url(#6e8a137d6f)"><path fill="#b1b7bc" d="M 107.007812 129.144531 C 106.953125 129.035156 107 128.90625 107.113281 128.851562 L 109.703125 127.644531 C 109.8125 127.589844 109.945312 127.640625 109.996094 127.75 L 114.0625 136.375 C 114.113281 136.488281 114.066406 136.617188 113.957031 136.671875 L 111.363281 137.878906 C 111.257812 137.929688 111.125 137.882812 111.074219 137.773438 L 107.007812 129.144531 " fill-opacity="1" fill-rule="nonzero"/></g></g></g></g><g clip-path="url(#e1d65228d5)"><g clip-path="url(#be636e963f)"><g clip-path="url(#bc268bb2f9)"><g clip-path="url(#416901be06)"><path stroke-linecap="round" transform="matrix(0.0220408, 0.0110009, 0.0109627, -0.0219643, 48.688492, 174.72781)" fill="none" stroke-linejoin="round" d="M 1291.905095 2722.390542 C 1287.935894 2725.382232 1287.301572 2730.933433 1290.424757 2734.987526 L 1362.611087 2826.096516 C 1365.592389 2830.079546 1371.337013 2830.644765 1375.164331 2827.582012 L 1679.22552 2587.18893 C 1683.123653 2583.9838 1683.757976 2578.432599 1680.776674 2574.449568 L 1608.448461 2483.269516 C 1605.538226 2479.499925 1599.864418 2478.79233 1596.0371 2481.855082 Z M 1291.905095 2722.390542 " stroke="#24578f" stroke-width="30" stroke-opacity="1" stroke-miterlimit="10"/></g></g></g></g><g clip-path="url(#10188275de)"><g clip-path="url(#2c986da238)"><g clip-path="url(#29b9f7c573)"><g clip-path="url(#89ceeaa2e6)"><path fill="#b1b7bc" d="M 108.609375 137.707031 C 108.558594 137.597656 108.605469 137.46875 108.714844 137.414062 L 115.292969 134.34375 C 115.402344 134.292969 115.53125 134.339844 115.582031 134.449219 L 126.429688 157.464844 C 126.480469 157.574219 126.433594 157.707031 126.324219 157.757812 L 119.75 160.828125 C 119.640625 160.878906 119.507812 160.832031 119.457031 160.722656 L 108.609375 137.707031 " fill-opacity="1" fill-rule="nonzero"/></g></g></g></g><g clip-path="url(#a9a3fdc409)"><g clip-path="url(#b6b4e30548)"><g clip-path="url(#7a6f2cebb2)"><g clip-path="url(#fc9d17fb68)"><path stroke-linecap="round" transform="matrix(0.0220408, 0.0110009, 0.0109627, -0.0219643, 48.688492, 174.72781)" fill="none" stroke-linejoin="round" d="M 1505.305106 2439.435092 C 1501.477788 2442.497845 1500.843465 2448.049046 1503.824767 2452.032076 L 1687.094479 2683.609799 C 1690.146597 2687.450453 1695.678522 2688.086986 1699.50584 2685.024233 L 2510.760824 2043.477567 C 2514.588141 2040.414814 2515.29328 2034.721237 2512.241162 2030.880583 L 2329.113333 1799.373923 C 2326.061215 1795.533269 2320.387407 1794.825674 2316.56009 1797.888426 Z M 1505.305106 2439.435092 " stroke="#24578f" stroke-width="30" stroke-opacity="1" stroke-miterlimit="10"/></g></g></g></g><g clip-path="url(#6140867218)"><g clip-path="url(#3f724f1aec)"><g clip-path="url(#90d55b1bac)"><g clip-path="url(#e948330b3f)"><path fill="#72c3ee" d="M 111.074219 140.4375 C 111.039062 140.359375 111.070312 140.265625 111.152344 140.226562 L 115.90625 138.007812 C 115.988281 137.96875 116.082031 138.003906 116.121094 138.082031 L 123.964844 154.734375 C 124.003906 154.8125 123.96875 154.90625 123.890625 154.945312 L 119.132812 157.167969 C 119.054688 157.203125 118.957031 157.167969 118.921875 157.089844 L 111.074219 140.4375 " fill-opacity="1" fill-rule="nonzero"/></g></g></g></g><g clip-path="url(#ef0404bab3)"><g clip-path="url(#9f1abbad7c)"><g clip-path="url(#ca01c5faf4)"><g clip-path="url(#b5808bcb3c)"><path stroke-linecap="round" transform="matrix(0.0220408, 0.0110009, 0.0109627, -0.0219643, 48.688492, 174.72781)" fill="none" stroke-linejoin="round" d="M 1644.333406 2384.75376 C 1641.640146 2386.961744 1641.075632 2390.947299 1643.347017 2393.863384 L 1775.795224 2561.216691 C 1778.066608 2564.132776 1782.10914 2564.556879 1784.944283 2562.419957 L 2371.732523 2098.158899 C 2374.567667 2096.021978 2374.990297 2091.96536 2372.860795 2089.120338 L 2240.341521 1921.553591 C 2238.141204 1918.850946 2233.95679 1918.355781 2231.263529 1920.563765 Z M 1644.333406 2384.75376 " stroke="#24578f" stroke-width="30" stroke-opacity="1" stroke-miterlimit="10"/></g></g></g></g><g clip-path="url(#fc8c710989)"><g clip-path="url(#ddae539bf2)"><g clip-path="url(#717424d565)"><g clip-path="url(#2d9c9c151d)"><path fill="#b1b7bc" d="M 121.851562 160.394531 L 124.640625 159.089844 L 131.484375 173.609375 L 128.695312 174.914062 L 121.851562 160.394531 " fill-opacity="1" fill-rule="nonzero"/></g></g></g></g><g clip-path="url(#92b4723a01)"><g clip-path="url(#0b68a72a70)"><g clip-path="url(#fc2ee6a8e4)"><g clip-path="url(#c1c293639e)"><path stroke-linecap="round" transform="matrix(0.0220408, 0.0110009, 0.0109627, -0.0219643, 48.688492, 174.72781)" fill="none" stroke-linejoin="round" d="M 2397.585806 1853.4094 L 2475.237773 1951.702007 L 2987.038613 1546.986972 L 2909.386645 1448.694364 Z M 2397.585806 1853.4094 " stroke="#24578f" stroke-width="30" stroke-opacity="1" stroke-miterlimit="10"/></g></g></g></g><g clip-path="url(#203200e7e7)"><g clip-path="url(#1a802c3e2c)"><g clip-path="url(#8ebd3f6afa)"><g clip-path="url(#05579c8e91)"><path fill="#b1b7bc" d="M 126.695312 176.089844 C 126.644531 175.980469 126.691406 175.847656 126.804688 175.796875 L 133.378906 172.726562 C 133.488281 172.675781 133.621094 172.722656 133.671875 172.832031 L 134.484375 174.558594 C 134.535156 174.667969 134.488281 174.796875 134.378906 174.851562 L 127.804688 177.921875 C 127.695312 177.972656 127.5625 177.925781 127.507812 177.816406 L 126.695312 176.089844 " fill-opacity="1" fill-rule="nonzero"/></g></g></g></g><g clip-path="url(#a3c8636c22)"><g clip-path="url(#0dfe4b99c0)"><g clip-path="url(#431c301852)"><g clip-path="url(#5675e6121e)"><path stroke-linecap="round" transform="matrix(0.0220408, 0.0110009, 0.0109627, -0.0219643, 48.688492, 174.72781)" fill="none" stroke-linejoin="round" d="M 2858.058111 1369.454823 C 2854.230794 1372.517575 2853.525655 1378.211153 2856.719656 1382.122869 L 3039.847485 1613.629529 C 3042.899603 1617.470183 3048.573411 1618.177778 3052.400728 1615.115026 L 3113.212916 1566.965246 C 3117.040234 1563.902493 3117.674557 1558.351293 3114.693254 1554.368262 L 2931.565425 1322.861602 C 2928.513307 1319.020948 2922.839499 1318.313353 2918.870299 1321.305043 Z M 2858.058111 1369.454823 " stroke="#24578f" stroke-width="30" stroke-opacity="1" stroke-miterlimit="10"/></g></g></g></g><g clip-path="url(#0cbb04de3b)"><g clip-path="url(#5c0a5fc4e1)"><g clip-path="url(#f2adfd0e56)"><g clip-path="url(#2a2a603313)"><path fill="#b1b7bc" d="M 116.582031 161.457031 C 116.527344 161.347656 116.574219 161.214844 116.6875 161.164062 L 128.539062 155.625 C 128.652344 155.574219 128.78125 155.621094 128.835938 155.730469 L 129.492188 157.128906 C 129.542969 157.238281 129.496094 157.367188 129.386719 157.421875 L 117.53125 162.957031 C 117.421875 163.011719 117.289062 162.960938 117.238281 162.851562 L 116.582031 161.457031 " fill-opacity="1" fill-rule="nonzero"/></g></g></g></g><g clip-path="url(#b8b3e25da2)"><g clip-path="url(#dcda6dbcfa)"><g clip-path="url(#749dd79d7c)"><g clip-path="url(#3ac540c059)"><path stroke-linecap="round" transform="matrix(0.0220408, 0.0110009, 0.0109627, -0.0219643, 48.688492, 174.72781)" fill="none" stroke-linejoin="round" d="M 2225.447606 1718.819532 C 2221.478405 1721.811222 2220.773267 1727.5048 2223.967268 1731.416516 L 2554.023411 2148.910999 C 2557.217412 2152.822715 2562.749337 2153.459248 2566.718537 2150.467558 L 2615.906889 2111.434974 C 2619.734207 2108.372221 2620.36853 2102.821021 2617.387228 2098.83799 L 2287.118385 1681.414822 C 2284.137083 1677.431791 2278.39246 1676.866572 2274.565142 1679.929325 Z M 2225.447606 1718.819532 " stroke="#24578f" stroke-width="30" stroke-opacity="1" stroke-miterlimit="10"/></g></g></g></g><g clip-path="url(#2ec00d5c71)"><g clip-path="url(#e407ec26b6)"><g clip-path="url(#82c269022e)"><g clip-path="url(#a33fa6c54e)"><path fill="#b1b7bc" d="M 108.40625 128.25 L 106.34375 123.867188 " fill-opacity="1" fill-rule="nonzero"/></g></g></g></g><g clip-path="url(#fa8d178bce)"><g clip-path="url(#7af1b2ef51)"><g clip-path="url(#2cd531be04)"><g clip-path="url(#994ab5d8e4)"><path stroke-linecap="round" transform="matrix(0.0220408, 0.0110009, 0.0109627, -0.0219643, 48.688492, 174.72781)" fill="none" stroke-linejoin="round" d="M 1326.482388 2780.435301 L 1172.112989 2902.661665 " stroke="#24578f" stroke-width="30" stroke-opacity="1" stroke-miterlimit="10"/></g></g></g></g><g clip-path="url(#86f65b0cc4)"><g clip-path="url(#d90c87b2fb)"><g clip-path="url(#a102ce6de5)"><g clip-path="url(#5c384b4640)"><path fill="#b1b7bc" d="M 119.59375 153.144531 L 117.332031 154.199219 " fill-opacity="1" fill-rule="nonzero"/></g></g></g></g><g clip-path="url(#243b3dbdbd)"><g clip-path="url(#d7b038dd25)"><g clip-path="url(#4c5718dc07)"><g clip-path="url(#ac4ddbfe58)"><path stroke-linecap="round" transform="matrix(0.0220408, 0.0110009, 0.0109627, -0.0219643, 48.688492, 174.72781)" fill="none" stroke-linejoin="round" d="M 2184.143538 2076.587584 L 2121.113561 1997.000555 " stroke="#24578f" stroke-width="30" stroke-opacity="1" stroke-miterlimit="10"/></g></g></g></g><g clip-path="url(#e102d26c67)"><g clip-path="url(#d8da6f1109)"><g clip-path="url(#1ba340c8d6)"><g clip-path="url(#742a535abc)"><path fill="#b1b7bc" d="M 117.625 148.964844 L 115.363281 150.019531 " fill-opacity="1" fill-rule="nonzero"/></g></g></g></g><g clip-path="url(#e6c4187960)"><g clip-path="url(#fa22fa689c)"><g clip-path="url(#a1e9d171f3)"><g clip-path="url(#d34a296c71)"><path stroke-linecap="round" transform="matrix(0.0220408, 0.0110009, 0.0109627, -0.0219643, 48.688492, 174.72781)" fill="none" stroke-linejoin="round" d="M 2036.861745 2193.115827 L 1973.831768 2113.528798 " stroke="#24578f" stroke-width="30" stroke-opacity="1" stroke-miterlimit="10"/></g></g></g></g><g clip-path="url(#d42b18fec5)"><g clip-path="url(#1d4e7303a6)"><g clip-path="url(#6ace4a0833)"><g clip-path="url(#4f35503488)"><path fill="#b1b7bc" d="M 115.652344 144.785156 L 113.394531 145.839844 " fill-opacity="1" fill-rule="nonzero"/></g></g></g></g><g clip-path="url(#9806f85e06)"><g clip-path="url(#3327679df9)"><g clip-path="url(#6edaa3f965)"><g clip-path="url(#ab8256b9ba)"><path stroke-linecap="round" transform="matrix(0.0220408, 0.0110009, 0.0109627, -0.0219643, 48.688492, 174.72781)" fill="none" stroke-linejoin="round" d="M 1889.43807 2309.573008 L 1826.549976 2230.057041 " stroke="#24578f" stroke-width="30" stroke-opacity="1" stroke-miterlimit="10"/></g></g></g></g><g clip-path="url(#dc966e34d9)"><g clip-path="url(#2b0ecb0167)"><g clip-path="url(#42ba2f3410)"><g clip-path="url(#3c1a4820d9)"><path stroke-linecap="round" transform="matrix(0.0220408, 0.0110009, 0.0109627, -0.0219643, 48.688492, 174.72781)" fill="none" stroke-linejoin="round" d="M 1369.304622 2764.535369 L 1556.839663 2609.479046 " stroke="#ffffff" stroke-width="30" stroke-opacity="1" stroke-miterlimit="10"/></g></g></g></g><g clip-path="url(#8dbfcdecde)"><g clip-path="url(#e4e27e2f62)"><g clip-path="url(#5c50e8b9cf)"><g clip-path="url(#d5da274b77)"><path stroke-linecap="round" transform="matrix(0.0220408, 0.0110009, 0.0109627, -0.0219643, 48.688492, 174.72781)" fill="none" stroke-linejoin="round" d="M 1776.730552 2479.876205 L 2286.697729 2089.537491 " stroke="#ffffff" stroke-width="30" stroke-opacity="1" stroke-miterlimit="10"/></g></g></g></g><g clip-path="url(#b5b57bff48)"><g clip-path="url(#059625dc23)"><g clip-path="url(#f8a78a90c1)"><g clip-path="url(#5a23f87404)"><path stroke-linecap="round" transform="matrix(0.0220408, 0.0110009, 0.0109627, -0.0219643, 48.688492, 174.72781)" fill="none" stroke-linejoin="round" d="M 2486.880861 1869.499938 L 2916.886434 1524.478097 " stroke="#ffffff" stroke-width="30" stroke-opacity="1" stroke-miterlimit="10"/></g></g></g></g><g clip-path="url(#35ef488d3d)"><g clip-path="url(#139d156079)"><g clip-path="url(#8c31fc5b2f)"><g clip-path="url(#fc29c38de4)"><path stroke-linecap="round" transform="matrix(0.0220408, 0.0110009, 0.0109627, -0.0219643, 48.688492, 174.72781)" fill="none" stroke-linejoin="round" d="M 3052.792169 1566.937093 L 3070.157861 1554.471128 L 2949.920893 1406.394422 " stroke="#ffffff" stroke-width="30" stroke-opacity="1" stroke-miterlimit="10"/></g></g></g></g></svg>