<svg xmlns="http://www.w3.org/2000/svg" xmlns:xlink="http://www.w3.org/1999/xlink" width="500" zoomAndPan="magnify" viewBox="0 0 375 374.999991" height="500" preserveAspectRatio="xMidYMid meet" version="1.0"><defs><clipPath id="614f3e93e3"><path d="M 191 231 L 218 231 L 218 262.5 L 191 262.5 Z M 191 231 " clip-rule="nonzero"/></clipPath><clipPath id="4083b4eab9"><path d="M 156 231 L 183 231 L 183 262.5 L 156 262.5 Z M 156 231 " clip-rule="nonzero"/></clipPath><clipPath id="2600c89acd"><path d="M 232 118 L 240.6875 118 L 240.6875 127 L 232 127 Z M 232 118 " clip-rule="nonzero"/></clipPath><clipPath id="0286d223c7"><path d="M 222 141 L 240.6875 141 L 240.6875 173 L 222 173 Z M 222 141 " clip-rule="nonzero"/></clipPath><clipPath id="6109498a46"><path d="M 134.1875 118 L 143 118 L 143 127 L 134.1875 127 Z M 134.1875 118 " clip-rule="nonzero"/></clipPath><clipPath id="ee7eccec7c"><path d="M 134.1875 141 L 153 141 L 153 173 L 134.1875 173 Z M 134.1875 141 " clip-rule="nonzero"/></clipPath><clipPath id="d00dea8e1b"><path d="M 142 112.5 L 234 112.5 L 234 198 L 142 198 Z M 142 112.5 " clip-rule="nonzero"/></clipPath><clipPath id="88043f242d"><path d="M 199 201.597656 L 202 201.597656 L 202 205 L 199 205 Z M 199 201.597656 " clip-rule="nonzero"/></clipPath><clipPath id="b8c41b8249"><path d="M 195.648438 201.597656 L 202 201.597656 L 202 208 L 195.648438 208 Z M 195.648438 201.597656 " clip-rule="nonzero"/></clipPath><clipPath id="0eb8c2f35b"><path d="M 201.648438 201.730469 C 201.652344 202.128906 201.605469 203.445312 200.957031 204.730469 C 200.75 205.132812 200.488281 205.535156 200.148438 205.90625 C 199.265625 206.859375 197.863281 207.597656 195.648438 207.597656 L 195.648438 205.351562 C 197.28125 205.351562 198.472656 205.101562 199.339844 204.730469 C 199.648438 204.597656 199.917969 204.449219 200.148438 204.292969 C 201.511719 203.371094 201.640625 202.121094 201.648438 201.730469 Z M 201.648438 201.730469 " clip-rule="nonzero"/></clipPath><linearGradient x1="-0.000310716" gradientTransform="matrix(0.0249488, 0, 0, 0.0249079, 195.64787, 201.608635)" y1="122.636002" x2="240.599695" gradientUnits="userSpaceOnUse" y2="122.636002" id="ecd5a082ea"><stop stop-opacity="1" stop-color="rgb(23.919678%, 74.119568%, 92.549133%)" offset="0"/><stop stop-opacity="1" stop-color="rgb(23.919678%, 74.119568%, 92.549133%)" offset="0.03125"/><stop stop-opacity="1" stop-color="rgb(23.953247%, 74.008179%, 92.579651%)" offset="0.046875"/><stop stop-opacity="1" stop-color="rgb(24.01886%, 73.800659%, 92.637634%)" offset="0.0546875"/><stop stop-opacity="1" stop-color="rgb(24.079895%, 73.603821%, 92.692566%)" offset="0.0625"/><stop stop-opacity="1" stop-color="rgb(24.171448%, 73.310852%, 92.774963%)" offset="0.078125"/><stop stop-opacity="1" stop-color="rgb(24.263%, 73.016357%, 92.855835%)" offset="0.0859375"/><stop stop-opacity="1" stop-color="rgb(24.324036%, 72.821045%, 92.910767%)" offset="0.09375"/><stop stop-opacity="1" stop-color="rgb(24.385071%, 72.624207%, 92.965698%)" offset="0.101562"/><stop stop-opacity="1" stop-color="rgb(24.446106%, 72.428894%, 93.02063%)" offset="0.109375"/><stop stop-opacity="1" stop-color="rgb(24.507141%, 72.232056%, 93.075562%)" offset="0.117187"/><stop stop-opacity="1" stop-color="rgb(24.568176%, 72.036743%, 93.128967%)" offset="0.125"/><stop stop-opacity="1" stop-color="rgb(24.629211%, 71.841431%, 93.183899%)" offset="0.132812"/><stop stop-opacity="1" stop-color="rgb(24.690247%, 71.644592%, 93.238831%)" offset="0.140625"/><stop stop-opacity="1" stop-color="rgb(24.751282%, 71.44928%, 93.293762%)" offset="0.148437"/><stop stop-opacity="1" stop-color="rgb(24.812317%, 71.252441%, 93.348694%)" offset="0.15625"/><stop stop-opacity="1" stop-color="rgb(24.873352%, 71.057129%, 93.403625%)" offset="0.164062"/><stop stop-opacity="1" stop-color="rgb(24.934387%, 70.860291%, 93.457031%)" offset="0.171875"/><stop stop-opacity="1" stop-color="rgb(25.02594%, 70.567322%, 93.539429%)" offset="0.1875"/><stop stop-opacity="1" stop-color="rgb(25.117493%, 70.272827%, 93.621826%)" offset="0.195312"/><stop stop-opacity="1" stop-color="rgb(25.178528%, 70.077515%, 93.676758%)" offset="0.203125"/><stop stop-opacity="1" stop-color="rgb(25.239563%, 69.880676%, 93.730164%)" offset="0.210938"/><stop stop-opacity="1" stop-color="rgb(25.300598%, 69.685364%, 93.785095%)" offset="0.21875"/><stop stop-opacity="1" stop-color="rgb(25.361633%, 69.488525%, 93.840027%)" offset="0.226562"/><stop stop-opacity="1" stop-color="rgb(25.422668%, 69.293213%, 93.894958%)" offset="0.234375"/><stop stop-opacity="1" stop-color="rgb(25.483704%, 69.096375%, 93.94989%)" offset="0.242187"/><stop stop-opacity="1" stop-color="rgb(25.544739%, 68.901062%, 94.003296%)" offset="0.25"/><stop stop-opacity="1" stop-color="rgb(25.605774%, 68.70575%, 94.058228%)" offset="0.257812"/><stop stop-opacity="1" stop-color="rgb(25.666809%, 68.508911%, 94.113159%)" offset="0.265625"/><stop stop-opacity="1" stop-color="rgb(25.727844%, 68.313599%, 94.168091%)" offset="0.273438"/><stop stop-opacity="1" stop-color="rgb(25.788879%, 68.11676%, 94.223022%)" offset="0.28125"/><stop stop-opacity="1" stop-color="rgb(25.849915%, 67.921448%, 94.277954%)" offset="0.289062"/><stop stop-opacity="1" stop-color="rgb(25.91095%, 67.724609%, 94.33136%)" offset="0.296875"/><stop stop-opacity="1" stop-color="rgb(26.002502%, 67.431641%, 94.413757%)" offset="0.3125"/><stop stop-opacity="1" stop-color="rgb(26.094055%, 67.137146%, 94.496155%)" offset="0.320312"/><stop stop-opacity="1" stop-color="rgb(26.15509%, 66.941833%, 94.551086%)" offset="0.328125"/><stop stop-opacity="1" stop-color="rgb(26.216125%, 66.744995%, 94.604492%)" offset="0.335937"/><stop stop-opacity="1" stop-color="rgb(26.277161%, 66.549683%, 94.659424%)" offset="0.34375"/><stop stop-opacity="1" stop-color="rgb(26.338196%, 66.352844%, 94.714355%)" offset="0.351562"/><stop stop-opacity="1" stop-color="rgb(26.399231%, 66.157532%, 94.769287%)" offset="0.359375"/><stop stop-opacity="1" stop-color="rgb(26.460266%, 65.962219%, 94.824219%)" offset="0.367187"/><stop stop-opacity="1" stop-color="rgb(26.521301%, 65.765381%, 94.87915%)" offset="0.375"/><stop stop-opacity="1" stop-color="rgb(26.582336%, 65.570068%, 94.932556%)" offset="0.382812"/><stop stop-opacity="1" stop-color="rgb(26.643372%, 65.37323%, 94.987488%)" offset="0.390625"/><stop stop-opacity="1" stop-color="rgb(26.704407%, 65.177917%, 95.042419%)" offset="0.398437"/><stop stop-opacity="1" stop-color="rgb(26.765442%, 64.981079%, 95.097351%)" offset="0.40625"/><stop stop-opacity="1" stop-color="rgb(26.856995%, 64.68811%, 95.178223%)" offset="0.421875"/><stop stop-opacity="1" stop-color="rgb(26.948547%, 64.393616%, 95.26062%)" offset="0.429687"/><stop stop-opacity="1" stop-color="rgb(27.009583%, 64.198303%, 95.315552%)" offset="0.4375"/><stop stop-opacity="1" stop-color="rgb(27.070618%, 64.001465%, 95.370483%)" offset="0.445312"/><stop stop-opacity="1" stop-color="rgb(27.131653%, 63.806152%, 95.425415%)" offset="0.453125"/><stop stop-opacity="1" stop-color="rgb(27.192688%, 63.609314%, 95.478821%)" offset="0.460937"/><stop stop-opacity="1" stop-color="rgb(27.253723%, 63.414001%, 95.533752%)" offset="0.46875"/><stop stop-opacity="1" stop-color="rgb(27.314758%, 63.218689%, 95.588684%)" offset="0.476562"/><stop stop-opacity="1" stop-color="rgb(27.375793%, 63.021851%, 95.643616%)" offset="0.484375"/><stop stop-opacity="1" stop-color="rgb(27.436829%, 62.826538%, 95.698547%)" offset="0.492187"/><stop stop-opacity="1" stop-color="rgb(27.497864%, 62.6297%, 95.753479%)" offset="0.5"/><stop stop-opacity="1" stop-color="rgb(27.558899%, 62.434387%, 95.806885%)" offset="0.507812"/><stop stop-opacity="1" stop-color="rgb(27.619934%, 62.237549%, 95.861816%)" offset="0.515625"/><stop stop-opacity="1" stop-color="rgb(27.680969%, 62.042236%, 95.916748%)" offset="0.523438"/><stop stop-opacity="1" stop-color="rgb(27.742004%, 61.845398%, 95.97168%)" offset="0.53125"/><stop stop-opacity="1" stop-color="rgb(27.833557%, 61.552429%, 96.052551%)" offset="0.546875"/><stop stop-opacity="1" stop-color="rgb(27.92511%, 61.257935%, 96.134949%)" offset="0.554688"/><stop stop-opacity="1" stop-color="rgb(27.986145%, 61.062622%, 96.18988%)" offset="0.5625"/><stop stop-opacity="1" stop-color="rgb(28.04718%, 60.865784%, 96.244812%)" offset="0.570312"/><stop stop-opacity="1" stop-color="rgb(28.108215%, 60.670471%, 96.299744%)" offset="0.578125"/><stop stop-opacity="1" stop-color="rgb(28.16925%, 60.473633%, 96.353149%)" offset="0.585938"/><stop stop-opacity="1" stop-color="rgb(28.230286%, 60.27832%, 96.408081%)" offset="0.59375"/><stop stop-opacity="1" stop-color="rgb(28.291321%, 60.083008%, 96.463013%)" offset="0.601562"/><stop stop-opacity="1" stop-color="rgb(28.352356%, 59.886169%, 96.517944%)" offset="0.609375"/><stop stop-opacity="1" stop-color="rgb(28.413391%, 59.690857%, 96.572876%)" offset="0.617188"/><stop stop-opacity="1" stop-color="rgb(28.474426%, 59.494019%, 96.627808%)" offset="0.625"/><stop stop-opacity="1" stop-color="rgb(28.535461%, 59.298706%, 96.681213%)" offset="0.632812"/><stop stop-opacity="1" stop-color="rgb(28.596497%, 59.101868%, 96.736145%)" offset="0.640625"/><stop stop-opacity="1" stop-color="rgb(28.688049%, 58.808899%, 96.818542%)" offset="0.65625"/><stop stop-opacity="1" stop-color="rgb(28.779602%, 58.514404%, 96.90094%)" offset="0.664062"/><stop stop-opacity="1" stop-color="rgb(28.840637%, 58.319092%, 96.954346%)" offset="0.671875"/><stop stop-opacity="1" stop-color="rgb(28.901672%, 58.122253%, 97.009277%)" offset="0.679688"/><stop stop-opacity="1" stop-color="rgb(28.962708%, 57.926941%, 97.064209%)" offset="0.6875"/><stop stop-opacity="1" stop-color="rgb(29.023743%, 57.730103%, 97.119141%)" offset="0.695312"/><stop stop-opacity="1" stop-color="rgb(29.084778%, 57.53479%, 97.174072%)" offset="0.703125"/><stop stop-opacity="1" stop-color="rgb(29.145813%, 57.339478%, 97.227478%)" offset="0.710938"/><stop stop-opacity="1" stop-color="rgb(29.206848%, 57.142639%, 97.28241%)" offset="0.71875"/><stop stop-opacity="1" stop-color="rgb(29.267883%, 56.947327%, 97.337341%)" offset="0.726562"/><stop stop-opacity="1" stop-color="rgb(29.328918%, 56.750488%, 97.392273%)" offset="0.734375"/><stop stop-opacity="1" stop-color="rgb(29.389954%, 56.555176%, 97.447205%)" offset="0.742188"/><stop stop-opacity="1" stop-color="rgb(29.450989%, 56.358337%, 97.502136%)" offset="0.75"/><stop stop-opacity="1" stop-color="rgb(29.542542%, 56.065369%, 97.583008%)" offset="0.765625"/><stop stop-opacity="1" stop-color="rgb(29.634094%, 55.770874%, 97.665405%)" offset="0.773437"/><stop stop-opacity="1" stop-color="rgb(29.695129%, 55.575562%, 97.720337%)" offset="0.78125"/><stop stop-opacity="1" stop-color="rgb(29.756165%, 55.378723%, 97.775269%)" offset="0.789062"/><stop stop-opacity="1" stop-color="rgb(29.8172%, 55.183411%, 97.828674%)" offset="0.796875"/><stop stop-opacity="1" stop-color="rgb(29.878235%, 54.986572%, 97.883606%)" offset="0.804688"/><stop stop-opacity="1" stop-color="rgb(29.93927%, 54.79126%, 97.938538%)" offset="0.8125"/><stop stop-opacity="1" stop-color="rgb(30.000305%, 54.594421%, 97.993469%)" offset="0.820312"/><stop stop-opacity="1" stop-color="rgb(30.06134%, 54.399109%, 98.048401%)" offset="0.828125"/><stop stop-opacity="1" stop-color="rgb(30.122375%, 54.203796%, 98.101807%)" offset="0.835938"/><stop stop-opacity="1" stop-color="rgb(30.183411%, 54.006958%, 98.156738%)" offset="0.84375"/><stop stop-opacity="1" stop-color="rgb(30.244446%, 53.811646%, 98.21167%)" offset="0.851562"/><stop stop-opacity="1" stop-color="rgb(30.305481%, 53.614807%, 98.266602%)" offset="0.859375"/><stop stop-opacity="1" stop-color="rgb(30.366516%, 53.419495%, 98.321533%)" offset="0.867187"/><stop stop-opacity="1" stop-color="rgb(30.427551%, 53.222656%, 98.376465%)" offset="0.875"/><stop stop-opacity="1" stop-color="rgb(30.519104%, 52.929688%, 98.457336%)" offset="0.890625"/><stop stop-opacity="1" stop-color="rgb(30.610657%, 52.635193%, 98.539734%)" offset="0.898437"/><stop stop-opacity="1" stop-color="rgb(30.671692%, 52.43988%, 98.594666%)" offset="0.90625"/><stop stop-opacity="1" stop-color="rgb(30.732727%, 52.243042%, 98.649597%)" offset="0.914062"/><stop stop-opacity="1" stop-color="rgb(30.793762%, 52.047729%, 98.703003%)" offset="0.921875"/><stop stop-opacity="1" stop-color="rgb(30.854797%, 51.850891%, 98.757935%)" offset="0.929687"/><stop stop-opacity="1" stop-color="rgb(30.915833%, 51.655579%, 98.812866%)" offset="0.9375"/><stop stop-opacity="1" stop-color="rgb(30.976868%, 51.460266%, 98.867798%)" offset="0.945312"/><stop stop-opacity="1" stop-color="rgb(31.037903%, 51.263428%, 98.922729%)" offset="0.953125"/><stop stop-opacity="1" stop-color="rgb(31.098938%, 51.068115%, 98.976135%)" offset="0.960938"/><stop stop-opacity="1" stop-color="rgb(31.159973%, 50.871277%, 99.031067%)" offset="0.96875"/><stop stop-opacity="1" stop-color="rgb(31.221008%, 50.675964%, 99.085999%)" offset="0.976562"/><stop stop-opacity="1" stop-color="rgb(31.282043%, 50.479126%, 99.14093%)" offset="0.984375"/><stop stop-opacity="1" stop-color="rgb(31.340027%, 50.289917%, 99.19281%)" offset="1"/></linearGradient><clipPath id="dc7b109554"><path d="M 199 207 L 202 207 L 202 210.597656 L 199 210.597656 Z M 199 207 " clip-rule="nonzero"/></clipPath><clipPath id="8fe3c8027c"><path d="M 199 204 L 205.398438 204 L 205.398438 210.597656 L 199 210.597656 Z M 199 204 " clip-rule="nonzero"/></clipPath><clipPath id="9aaa714800"><path d="M 199.398438 210.46875 C 199.394531 210.070312 199.441406 208.753906 200.089844 207.46875 C 200.292969 207.0625 200.554688 206.664062 200.898438 206.292969 C 201.78125 205.339844 203.179688 204.601562 205.398438 204.601562 L 205.398438 206.847656 C 203.761719 206.847656 202.570312 207.097656 201.707031 207.46875 C 201.398438 207.601562 201.128906 207.746094 200.898438 207.90625 C 199.53125 208.828125 199.402344 210.078125 199.398438 210.46875 Z M 199.398438 210.46875 " clip-rule="nonzero"/></clipPath><linearGradient x1="167.432559" gradientTransform="matrix(-0.0249488, 0, 0, -0.0249079, 209.574359, 206.594605)" y1="-37.771" x2="408.042571" gradientUnits="userSpaceOnUse" y2="-37.771" id="03073435b6"><stop stop-opacity="1" stop-color="rgb(23.919678%, 74.119568%, 92.549133%)" offset="0"/><stop stop-opacity="1" stop-color="rgb(23.919678%, 74.119568%, 92.549133%)" offset="0.03125"/><stop stop-opacity="1" stop-color="rgb(23.953247%, 74.009705%, 92.579651%)" offset="0.046875"/><stop stop-opacity="1" stop-color="rgb(24.01886%, 73.800659%, 92.637634%)" offset="0.0546875"/><stop stop-opacity="1" stop-color="rgb(24.079895%, 73.605347%, 92.692566%)" offset="0.0625"/><stop stop-opacity="1" stop-color="rgb(24.14093%, 73.408508%, 92.747498%)" offset="0.0703125"/><stop stop-opacity="1" stop-color="rgb(24.201965%, 73.213196%, 92.802429%)" offset="0.078125"/><stop stop-opacity="1" stop-color="rgb(24.263%, 73.016357%, 92.855835%)" offset="0.0859375"/><stop stop-opacity="1" stop-color="rgb(24.324036%, 72.821045%, 92.910767%)" offset="0.09375"/><stop stop-opacity="1" stop-color="rgb(24.385071%, 72.624207%, 92.965698%)" offset="0.101562"/><stop stop-opacity="1" stop-color="rgb(24.446106%, 72.428894%, 93.02063%)" offset="0.109375"/><stop stop-opacity="1" stop-color="rgb(24.507141%, 72.233582%, 93.075562%)" offset="0.117188"/><stop stop-opacity="1" stop-color="rgb(24.568176%, 72.036743%, 93.128967%)" offset="0.125"/><stop stop-opacity="1" stop-color="rgb(24.629211%, 71.841431%, 93.183899%)" offset="0.132813"/><stop stop-opacity="1" stop-color="rgb(24.690247%, 71.644592%, 93.238831%)" offset="0.140625"/><stop stop-opacity="1" stop-color="rgb(24.751282%, 71.44928%, 93.293762%)" offset="0.148438"/><stop stop-opacity="1" stop-color="rgb(24.812317%, 71.252441%, 93.348694%)" offset="0.15625"/><stop stop-opacity="1" stop-color="rgb(24.90387%, 70.959473%, 93.429565%)" offset="0.171875"/><stop stop-opacity="1" stop-color="rgb(24.995422%, 70.664978%, 93.511963%)" offset="0.179688"/><stop stop-opacity="1" stop-color="rgb(25.056458%, 70.469666%, 93.566895%)" offset="0.1875"/><stop stop-opacity="1" stop-color="rgb(25.117493%, 70.272827%, 93.621826%)" offset="0.195312"/><stop stop-opacity="1" stop-color="rgb(25.178528%, 70.077515%, 93.676758%)" offset="0.203125"/><stop stop-opacity="1" stop-color="rgb(25.239563%, 69.880676%, 93.730164%)" offset="0.210938"/><stop stop-opacity="1" stop-color="rgb(25.300598%, 69.685364%, 93.785095%)" offset="0.21875"/><stop stop-opacity="1" stop-color="rgb(25.361633%, 69.488525%, 93.840027%)" offset="0.226563"/><stop stop-opacity="1" stop-color="rgb(25.422668%, 69.293213%, 93.894958%)" offset="0.234375"/><stop stop-opacity="1" stop-color="rgb(25.483704%, 69.0979%, 93.94989%)" offset="0.242188"/><stop stop-opacity="1" stop-color="rgb(25.544739%, 68.901062%, 94.003296%)" offset="0.25"/><stop stop-opacity="1" stop-color="rgb(25.605774%, 68.70575%, 94.058228%)" offset="0.257813"/><stop stop-opacity="1" stop-color="rgb(25.666809%, 68.508911%, 94.113159%)" offset="0.265625"/><stop stop-opacity="1" stop-color="rgb(25.727844%, 68.313599%, 94.168091%)" offset="0.273438"/><stop stop-opacity="1" stop-color="rgb(25.788879%, 68.11676%, 94.223022%)" offset="0.28125"/><stop stop-opacity="1" stop-color="rgb(25.880432%, 67.823792%, 94.303894%)" offset="0.296875"/><stop stop-opacity="1" stop-color="rgb(25.971985%, 67.529297%, 94.386292%)" offset="0.304688"/><stop stop-opacity="1" stop-color="rgb(26.03302%, 67.333984%, 94.441223%)" offset="0.3125"/><stop stop-opacity="1" stop-color="rgb(26.094055%, 67.137146%, 94.496155%)" offset="0.320312"/><stop stop-opacity="1" stop-color="rgb(26.15509%, 66.941833%, 94.551086%)" offset="0.328125"/><stop stop-opacity="1" stop-color="rgb(26.216125%, 66.744995%, 94.604492%)" offset="0.335938"/><stop stop-opacity="1" stop-color="rgb(26.277161%, 66.549683%, 94.659424%)" offset="0.34375"/><stop stop-opacity="1" stop-color="rgb(26.338196%, 66.352844%, 94.714355%)" offset="0.351562"/><stop stop-opacity="1" stop-color="rgb(26.399231%, 66.157532%, 94.769287%)" offset="0.359375"/><stop stop-opacity="1" stop-color="rgb(26.460266%, 65.962219%, 94.824219%)" offset="0.367187"/><stop stop-opacity="1" stop-color="rgb(26.521301%, 65.765381%, 94.877625%)" offset="0.375"/><stop stop-opacity="1" stop-color="rgb(26.582336%, 65.570068%, 94.932556%)" offset="0.382813"/><stop stop-opacity="1" stop-color="rgb(26.643372%, 65.37323%, 94.987488%)" offset="0.390625"/><stop stop-opacity="1" stop-color="rgb(26.704407%, 65.177917%, 95.042419%)" offset="0.398438"/><stop stop-opacity="1" stop-color="rgb(26.765442%, 64.981079%, 95.097351%)" offset="0.40625"/><stop stop-opacity="1" stop-color="rgb(26.856995%, 64.68811%, 95.178223%)" offset="0.421875"/><stop stop-opacity="1" stop-color="rgb(26.948547%, 64.393616%, 95.26062%)" offset="0.429688"/><stop stop-opacity="1" stop-color="rgb(27.009583%, 64.198303%, 95.315552%)" offset="0.4375"/><stop stop-opacity="1" stop-color="rgb(27.070618%, 64.001465%, 95.370483%)" offset="0.445312"/><stop stop-opacity="1" stop-color="rgb(27.131653%, 63.806152%, 95.425415%)" offset="0.453125"/><stop stop-opacity="1" stop-color="rgb(27.192688%, 63.609314%, 95.478821%)" offset="0.460938"/><stop stop-opacity="1" stop-color="rgb(27.253723%, 63.414001%, 95.533752%)" offset="0.46875"/><stop stop-opacity="1" stop-color="rgb(27.314758%, 63.217163%, 95.588684%)" offset="0.476562"/><stop stop-opacity="1" stop-color="rgb(27.375793%, 63.021851%, 95.643616%)" offset="0.484375"/><stop stop-opacity="1" stop-color="rgb(27.436829%, 62.826538%, 95.698547%)" offset="0.492188"/><stop stop-opacity="1" stop-color="rgb(27.497864%, 62.6297%, 95.753479%)" offset="0.5"/><stop stop-opacity="1" stop-color="rgb(27.558899%, 62.434387%, 95.806885%)" offset="0.507812"/><stop stop-opacity="1" stop-color="rgb(27.619934%, 62.237549%, 95.861816%)" offset="0.515625"/><stop stop-opacity="1" stop-color="rgb(27.680969%, 62.042236%, 95.916748%)" offset="0.523438"/><stop stop-opacity="1" stop-color="rgb(27.742004%, 61.845398%, 95.97168%)" offset="0.53125"/><stop stop-opacity="1" stop-color="rgb(27.833557%, 61.552429%, 96.052551%)" offset="0.546875"/><stop stop-opacity="1" stop-color="rgb(27.92511%, 61.257935%, 96.134949%)" offset="0.554688"/><stop stop-opacity="1" stop-color="rgb(27.986145%, 61.062622%, 96.18988%)" offset="0.5625"/><stop stop-opacity="1" stop-color="rgb(28.04718%, 60.865784%, 96.244812%)" offset="0.570312"/><stop stop-opacity="1" stop-color="rgb(28.108215%, 60.670471%, 96.299744%)" offset="0.578125"/><stop stop-opacity="1" stop-color="rgb(28.16925%, 60.473633%, 96.353149%)" offset="0.585938"/><stop stop-opacity="1" stop-color="rgb(28.230286%, 60.27832%, 96.408081%)" offset="0.59375"/><stop stop-opacity="1" stop-color="rgb(28.291321%, 60.081482%, 96.463013%)" offset="0.601562"/><stop stop-opacity="1" stop-color="rgb(28.352356%, 59.886169%, 96.517944%)" offset="0.609375"/><stop stop-opacity="1" stop-color="rgb(28.413391%, 59.690857%, 96.572876%)" offset="0.617188"/><stop stop-opacity="1" stop-color="rgb(28.474426%, 59.494019%, 96.627808%)" offset="0.625"/><stop stop-opacity="1" stop-color="rgb(28.535461%, 59.298706%, 96.681213%)" offset="0.632812"/><stop stop-opacity="1" stop-color="rgb(28.596497%, 59.101868%, 96.736145%)" offset="0.640625"/><stop stop-opacity="1" stop-color="rgb(28.657532%, 58.906555%, 96.791077%)" offset="0.648438"/><stop stop-opacity="1" stop-color="rgb(28.718567%, 58.709717%, 96.846008%)" offset="0.65625"/><stop stop-opacity="1" stop-color="rgb(28.81012%, 58.416748%, 96.92688%)" offset="0.671875"/><stop stop-opacity="1" stop-color="rgb(28.901672%, 58.122253%, 97.009277%)" offset="0.679688"/><stop stop-opacity="1" stop-color="rgb(28.962708%, 57.926941%, 97.064209%)" offset="0.6875"/><stop stop-opacity="1" stop-color="rgb(29.023743%, 57.730103%, 97.119141%)" offset="0.695313"/><stop stop-opacity="1" stop-color="rgb(29.084778%, 57.53479%, 97.174072%)" offset="0.703125"/><stop stop-opacity="1" stop-color="rgb(29.145813%, 57.337952%, 97.229004%)" offset="0.710938"/><stop stop-opacity="1" stop-color="rgb(29.206848%, 57.142639%, 97.28241%)" offset="0.71875"/><stop stop-opacity="1" stop-color="rgb(29.267883%, 56.945801%, 97.337341%)" offset="0.726562"/><stop stop-opacity="1" stop-color="rgb(29.328918%, 56.750488%, 97.392273%)" offset="0.734375"/><stop stop-opacity="1" stop-color="rgb(29.389954%, 56.555176%, 97.447205%)" offset="0.742188"/><stop stop-opacity="1" stop-color="rgb(29.450989%, 56.358337%, 97.502136%)" offset="0.75"/><stop stop-opacity="1" stop-color="rgb(29.512024%, 56.163025%, 97.555542%)" offset="0.757812"/><stop stop-opacity="1" stop-color="rgb(29.573059%, 55.966187%, 97.610474%)" offset="0.765625"/><stop stop-opacity="1" stop-color="rgb(29.634094%, 55.770874%, 97.665405%)" offset="0.773438"/><stop stop-opacity="1" stop-color="rgb(29.695129%, 55.574036%, 97.720337%)" offset="0.78125"/><stop stop-opacity="1" stop-color="rgb(29.786682%, 55.281067%, 97.801208%)" offset="0.796875"/><stop stop-opacity="1" stop-color="rgb(29.878235%, 54.986572%, 97.883606%)" offset="0.804687"/><stop stop-opacity="1" stop-color="rgb(29.93927%, 54.79126%, 97.938538%)" offset="0.8125"/><stop stop-opacity="1" stop-color="rgb(30.000305%, 54.594421%, 97.993469%)" offset="0.820312"/><stop stop-opacity="1" stop-color="rgb(30.06134%, 54.399109%, 98.048401%)" offset="0.828125"/><stop stop-opacity="1" stop-color="rgb(30.122375%, 54.202271%, 98.103333%)" offset="0.835938"/><stop stop-opacity="1" stop-color="rgb(30.183411%, 54.006958%, 98.156738%)" offset="0.84375"/><stop stop-opacity="1" stop-color="rgb(30.244446%, 53.81012%, 98.21167%)" offset="0.851562"/><stop stop-opacity="1" stop-color="rgb(30.305481%, 53.614807%, 98.266602%)" offset="0.859375"/><stop stop-opacity="1" stop-color="rgb(30.366516%, 53.419495%, 98.321533%)" offset="0.867188"/><stop stop-opacity="1" stop-color="rgb(30.427551%, 53.222656%, 98.376465%)" offset="0.875"/><stop stop-opacity="1" stop-color="rgb(30.488586%, 53.027344%, 98.429871%)" offset="0.882812"/><stop stop-opacity="1" stop-color="rgb(30.549622%, 52.830505%, 98.484802%)" offset="0.890625"/><stop stop-opacity="1" stop-color="rgb(30.610657%, 52.635193%, 98.539734%)" offset="0.898438"/><stop stop-opacity="1" stop-color="rgb(30.671692%, 52.438354%, 98.594666%)" offset="0.90625"/><stop stop-opacity="1" stop-color="rgb(30.763245%, 52.145386%, 98.677063%)" offset="0.921875"/><stop stop-opacity="1" stop-color="rgb(30.854797%, 51.850891%, 98.757935%)" offset="0.929688"/><stop stop-opacity="1" stop-color="rgb(30.915833%, 51.655579%, 98.812866%)" offset="0.9375"/><stop stop-opacity="1" stop-color="rgb(30.976868%, 51.45874%, 98.867798%)" offset="0.945312"/><stop stop-opacity="1" stop-color="rgb(31.037903%, 51.263428%, 98.922729%)" offset="0.953125"/><stop stop-opacity="1" stop-color="rgb(31.098938%, 51.066589%, 98.977661%)" offset="0.960938"/><stop stop-opacity="1" stop-color="rgb(31.159973%, 50.871277%, 99.031067%)" offset="0.96875"/><stop stop-opacity="1" stop-color="rgb(31.221008%, 50.674438%, 99.085999%)" offset="0.976562"/><stop stop-opacity="1" stop-color="rgb(31.282043%, 50.479126%, 99.14093%)" offset="0.984375"/><stop stop-opacity="1" stop-color="rgb(31.340027%, 50.289917%, 99.19281%)" offset="1"/></linearGradient><clipPath id="63bc6dab5d"><path d="M 172 97.457031 L 208 97.457031 L 208 107 L 172 107 Z M 172 97.457031 " clip-rule="nonzero"/></clipPath><clipPath id="6d79418b09"><path d="M 167 103 L 212.457031 103 L 212.457031 125.207031 L 167 125.207031 Z M 167 103 " clip-rule="nonzero"/></clipPath></defs><path fill="#f6f6f6" d="M 210.097656 218.109375 C 210.050781 219.136719 209.980469 220.152344 209.886719 221.144531 C 209.46875 225.5 208.578125 229.410156 207.339844 232.140625 C 207.296875 232.238281 207.25 232.335938 207.203125 232.433594 C 205.445312 236.113281 199.070312 239.367188 191.523438 240.820312 C 188.636719 241.378906 185.578125 241.671875 182.542969 241.628906 C 176.21875 241.539062 169.984375 239.980469 165.574219 236.269531 C 164.058594 235 162.761719 233.472656 161.746094 231.664062 C 159.640625 227.910156 158.660156 223.832031 158.402344 219.78125 C 158.332031 218.714844 158.316406 217.648438 158.339844 216.59375 C 158.621094 204.320312 164.625 193.167969 164.625 193.167969 C 164.816406 191.34375 194.738281 184.910156 203.273438 192.589844 C 208.648438 197.429688 210.523438 208.398438 210.097656 218.109375 Z M 210.097656 218.109375 " fill-opacity="1" fill-rule="nonzero"/><path fill="#54a3e6" d="M 210.097656 218.109375 C 210.050781 219.136719 209.980469 220.152344 209.886719 221.144531 C 208.5 221.375 207.105469 221.582031 205.710938 221.761719 C 203.398438 222.066406 201.078125 222.296875 198.753906 222.46875 C 196.421875 222.640625 194.085938 222.753906 191.75 222.824219 C 189.414062 222.894531 187.078125 222.921875 184.738281 222.921875 C 182.363281 222.917969 179.984375 222.898438 177.605469 222.828125 C 175.195312 222.757812 172.78125 222.628906 170.382812 222.371094 C 167.964844 222.117188 165.558594 221.753906 163.191406 221.199219 C 161.570312 220.820312 159.96875 220.351562 158.402344 219.78125 C 158.332031 218.714844 158.316406 217.648438 158.339844 216.59375 C 158.859375 216.796875 159.382812 216.992188 159.910156 217.171875 C 162.789062 218.15625 165.777344 218.800781 168.789062 219.214844 C 169.011719 219.242188 169.234375 219.269531 169.457031 219.296875 C 171.949219 219.597656 174.453125 219.75 176.960938 219.835938 C 179.425781 219.921875 181.890625 219.945312 184.359375 219.949219 C 186.789062 219.953125 189.21875 219.929688 191.648438 219.855469 C 194.066406 219.785156 196.480469 219.667969 198.890625 219.484375 C 201.226562 219.3125 203.558594 219.078125 205.882812 218.769531 C 206.9375 218.625 207.992188 218.46875 209.042969 218.292969 C 209.394531 218.234375 209.746094 218.171875 210.097656 218.109375 Z M 210.097656 218.109375 " fill-opacity="1" fill-rule="nonzero"/><g clip-path="url(#614f3e93e3)"><path fill="#f6f6f6" d="M 217.242188 260.851562 C 215.515625 263.21875 194.992188 262.707031 193.011719 261.363281 C 191.027344 260.019531 191.925781 258.804688 192.117188 254.066406 C 192.164062 252.925781 192.140625 251.421875 192.082031 249.789062 C 192.046875 248.828125 192 247.820312 191.941406 246.8125 C 191.820312 244.644531 191.660156 242.492188 191.523438 240.824219 C 191.382812 239.121094 191.261719 237.925781 191.222656 237.746094 L 191.605469 237.492188 C 191.777344 235.308594 204.027344 231.175781 207.339844 232.140625 C 207.722656 232.253906 207.988281 232.433594 208.101562 232.691406 C 208.777344 234.25 208.660156 240.5625 208.472656 245.074219 C 208.425781 246.296875 208.367188 247.382812 208.324219 248.210938 C 208.269531 249.222656 208.226562 249.84375 208.226562 249.84375 C 208.226562 249.84375 211.105469 249.332031 213.917969 250.675781 C 216.730469 252.019531 218.96875 258.484375 217.242188 260.851562 Z M 217.242188 260.851562 " fill-opacity="1" fill-rule="nonzero"/></g><g clip-path="url(#4083b4eab9)"><path fill="#f6f6f6" d="M 182.109375 248.574219 C 182.027344 250.527344 181.988281 252.351562 182.042969 253.683594 C 182.234375 258.417969 183.132812 259.636719 181.148438 260.980469 C 179.167969 262.324219 158.644531 262.835938 156.917969 260.46875 C 155.191406 258.097656 157.429688 251.636719 160.242188 250.292969 C 163.054688 248.945312 165.933594 249.460938 165.933594 249.460938 C 165.933594 249.460938 165.871094 248.523438 165.796875 247.082031 C 165.75 246.191406 165.699219 245.101562 165.65625 243.925781 C 165.5625 241.453125 165.5 238.582031 165.574219 236.269531 C 165.632812 234.4375 165.777344 232.957031 166.0625 232.304688 C 167.148438 229.808594 182.363281 234.675781 182.554688 237.105469 L 182.941406 237.363281 C 182.890625 237.582031 182.722656 239.3125 182.542969 241.628906 C 182.449219 242.835938 182.351562 244.199219 182.269531 245.59375 C 182.207031 246.585938 182.152344 247.597656 182.113281 248.578125 Z M 182.109375 248.574219 " fill-opacity="1" fill-rule="nonzero"/></g><path fill="#f6f6f6" d="M 222.035156 225.378906 C 222.035156 225.378906 225.777344 234.785156 216.425781 234.738281 C 207.078125 234.691406 201.179688 227.777344 202.234375 222.785156 C 203.289062 217.792969 213.726562 212.417969 213.535156 212.464844 C 213.4375 212.488281 212.496094 211.242188 210.882812 209.800781 C 210.355469 209.332031 209.753906 208.839844 209.089844 208.363281 C 207.71875 207.390625 206.074219 206.484375 204.199219 205.984375 C 198.636719 204.496094 200.027344 195.421875 201.273438 194.75 C 201.40625 194.679688 205.0625 190.671875 215.660156 195.855469 C 217.4375 196.726562 219.054688 197.621094 220.511719 198.539062 C 221.265625 199.011719 221.980469 199.492188 222.652344 199.976562 C 228.398438 204.105469 231.089844 208.480469 231.195312 212.273438 C 231.339844 217.359375 224.675781 224.371094 222.035156 225.378906 Z M 222.035156 225.378906 " fill-opacity="1" fill-rule="nonzero"/><path fill="#160e0b" d="M 215.785156 219.992188 C 216.394531 220.191406 216.917969 220.609375 217.417969 221 C 217.929688 221.398438 218.421875 221.828125 218.890625 222.277344 C 219.828125 223.179688 220.671875 224.175781 221.402344 225.25 C 221.601562 225.542969 222.078125 225.265625 221.878906 224.972656 C 220.679688 223.210938 219.199219 221.660156 217.5 220.375 C 217.015625 220.007812 216.515625 219.652344 215.933594 219.460938 C 215.597656 219.347656 215.453125 219.878906 215.789062 219.992188 Z M 215.785156 219.992188 " fill-opacity="1" fill-rule="nonzero"/><path fill="#160e0b" d="M 214.757812 212.277344 C 215.351562 212.128906 215.839844 211.746094 216.375 211.46875 C 216.894531 211.199219 217.445312 211 218.011719 210.859375 C 218.578125 210.71875 219.160156 210.648438 219.742188 210.640625 C 220.035156 210.636719 220.332031 210.652344 220.621094 210.683594 C 220.792969 210.699219 221.21875 210.695312 221.328125 210.867188 C 221.515625 211.164062 221.992188 210.886719 221.800781 210.589844 C 221.632812 210.328125 221.363281 210.238281 221.070312 210.191406 C 220.753906 210.140625 220.4375 210.109375 220.121094 210.097656 C 219.46875 210.070312 218.8125 210.128906 218.171875 210.261719 C 217.535156 210.390625 216.914062 210.601562 216.324219 210.882812 C 215.75 211.15625 215.230469 211.59375 214.609375 211.746094 C 214.265625 211.828125 214.414062 212.359375 214.757812 212.277344 Z M 214.757812 212.277344 " fill-opacity="1" fill-rule="nonzero"/><path fill="#160e0b" d="M 209.492188 215.035156 C 207.273438 216.109375 205.816406 218.308594 205.015625 220.578125 C 204.1875 222.933594 204.003906 225.660156 204.96875 228.003906 C 205.570312 229.457031 206.605469 230.582031 207.695312 231.6875 C 207.945312 231.9375 208.332031 231.550781 208.085938 231.296875 C 207.160156 230.363281 206.242188 229.414062 205.664062 228.214844 C 205.144531 227.144531 204.898438 225.953125 204.875 224.765625 C 204.820312 222.398438 205.566406 219.960938 206.917969 218.019531 C 207.652344 216.964844 208.609375 216.070312 209.769531 215.507812 C 210.085938 215.355469 209.808594 214.878906 209.492188 215.035156 Z M 209.492188 215.035156 " fill-opacity="1" fill-rule="nonzero"/><path fill="#f6f6f6" d="M 155.285156 212.464844 C 155.09375 212.417969 165.53125 217.792969 166.585938 222.785156 C 167.640625 227.777344 161.742188 234.691406 152.394531 234.738281 C 143.042969 234.785156 146.785156 225.378906 146.785156 225.378906 C 144.144531 224.371094 137.480469 217.359375 137.625 212.273438 C 137.71875 209.027344 139.699219 205.355469 143.871094 201.773438 C 144.570312 201.171875 145.335938 200.574219 146.164062 199.980469 C 148.128906 198.5625 150.457031 197.179688 153.160156 195.855469 C 163.757812 190.671875 167.414062 194.679688 167.546875 194.75 C 168.792969 195.421875 170.183594 204.496094 164.621094 205.984375 C 163.054688 206.402344 161.644531 207.105469 160.425781 207.894531 C 159.730469 208.34375 159.097656 208.820312 158.53125 209.292969 C 156.554688 210.933594 155.394531 212.492188 155.289062 212.464844 Z M 155.285156 212.464844 " fill-opacity="1" fill-rule="nonzero"/><path fill="#160e0b" d="M 152.886719 219.460938 C 152.375 219.628906 151.929688 219.921875 151.496094 220.242188 C 151.0625 220.5625 150.660156 220.882812 150.261719 221.230469 C 149.460938 221.925781 148.71875 222.6875 148.042969 223.507812 C 147.652344 223.976562 147.285156 224.46875 146.941406 224.972656 C 146.742188 225.265625 147.21875 225.542969 147.417969 225.25 C 148.148438 224.175781 148.992188 223.179688 149.929688 222.277344 C 150.398438 221.828125 150.890625 221.398438 151.402344 221 C 151.902344 220.609375 152.425781 220.191406 153.035156 219.988281 C 153.367188 219.878906 153.226562 219.347656 152.886719 219.460938 Z M 152.886719 219.460938 " fill-opacity="1" fill-rule="nonzero"/><path fill="#160e0b" d="M 154.210938 211.746094 C 153.589844 211.59375 153.070312 211.152344 152.496094 210.882812 C 151.90625 210.601562 151.285156 210.390625 150.648438 210.261719 C 150.007812 210.128906 149.351562 210.070312 148.699219 210.097656 C 148.382812 210.109375 148.066406 210.140625 147.75 210.191406 C 147.457031 210.238281 147.1875 210.328125 147.019531 210.589844 C 146.828125 210.886719 147.304688 211.164062 147.492188 210.867188 C 147.597656 210.703125 148 210.703125 148.167969 210.6875 C 148.46875 210.652344 148.773438 210.636719 149.078125 210.640625 C 149.660156 210.648438 150.242188 210.71875 150.808594 210.859375 C 151.375 211 151.925781 211.199219 152.445312 211.46875 C 152.980469 211.746094 153.46875 212.128906 154.0625 212.273438 C 154.40625 212.359375 154.554688 211.828125 154.210938 211.746094 Z M 154.210938 211.746094 " fill-opacity="1" fill-rule="nonzero"/><path fill="#160e0b" d="M 159.050781 215.507812 C 161.148438 216.527344 162.53125 218.601562 163.285156 220.75 C 164.074219 223.007812 164.253906 225.582031 163.332031 227.828125 C 162.773438 229.199219 161.757812 230.261719 160.734375 231.296875 C 160.488281 231.550781 160.875 231.9375 161.125 231.6875 C 162.085938 230.714844 163.046875 229.714844 163.644531 228.46875 C 164.195312 227.324219 164.464844 226.0625 164.496094 224.796875 C 164.558594 222.320312 163.78125 219.746094 162.359375 217.71875 C 161.574219 216.601562 160.566406 215.632812 159.328125 215.035156 C 159.011719 214.878906 158.734375 215.355469 159.050781 215.507812 Z M 159.050781 215.507812 " fill-opacity="1" fill-rule="nonzero"/><path fill="#54a3e6" d="M 157.683594 216.328125 C 157.75 216.355469 157.816406 216.386719 157.882812 216.414062 C 157.765625 216.363281 157.648438 216.3125 157.527344 216.265625 C 157.582031 216.285156 157.632812 216.308594 157.683594 216.328125 Z M 157.683594 216.328125 " fill-opacity="1" fill-rule="nonzero"/><path fill="#54a3e6" d="M 189.808594 246.585938 C 189.890625 246.597656 189.976562 246.609375 190.058594 246.621094 C 189.925781 246.601562 189.796875 246.585938 189.664062 246.566406 C 189.710938 246.574219 189.757812 246.578125 189.808594 246.585938 Z M 189.808594 246.585938 " fill-opacity="1" fill-rule="nonzero"/><path fill="#54a3e6" d="M 208.472656 245.074219 C 208.421875 246.292969 208.367188 247.382812 208.324219 248.210938 C 205.089844 249.109375 201.753906 249.652344 198.40625 249.851562 C 196.296875 249.980469 194.183594 249.953125 192.082031 249.789062 C 192.046875 248.828125 192 247.820312 191.941406 246.8125 C 192.066406 246.824219 192.191406 246.832031 192.316406 246.84375 C 195.390625 247.070312 198.484375 246.980469 201.542969 246.585938 C 202.363281 246.472656 203.175781 246.339844 203.988281 246.183594 C 205.5 245.890625 207 245.519531 208.472656 245.074219 Z M 208.472656 245.074219 " fill-opacity="1" fill-rule="nonzero"/><path fill="#54a3e6" d="M 182.265625 245.59375 C 182.207031 246.585938 182.152344 247.597656 182.109375 248.578125 C 181.039062 248.695312 179.964844 248.777344 178.882812 248.8125 C 176.277344 248.890625 173.679688 248.695312 171.105469 248.292969 C 169.3125 248.011719 167.535156 247.605469 165.796875 247.082031 C 165.75 246.191406 165.699219 245.101562 165.65625 243.925781 C 167.902344 244.664062 170.210938 245.195312 172.550781 245.527344 C 173.265625 245.617188 173.984375 245.691406 174.707031 245.746094 C 177.226562 245.933594 179.757812 245.882812 182.265625 245.59375 Z M 182.265625 245.59375 " fill-opacity="1" fill-rule="nonzero"/><path fill="#54a3e6" d="M 182.945312 245.507812 C 182.835938 245.523438 182.726562 245.539062 182.617188 245.550781 C 182.625 245.550781 182.628906 245.550781 182.632812 245.546875 C 182.738281 245.535156 182.839844 245.523438 182.945312 245.507812 Z M 182.945312 245.507812 " fill-opacity="1" fill-rule="nonzero"/><path fill="#54a3e6" d="M 184.058594 187.992188 C 185.394531 188.125 186.714844 188.292969 188.015625 188.496094 C 189.316406 188.699219 190.578125 188.9375 191.796875 189.203125 C 193.015625 189.46875 194.167969 189.761719 195.257812 190.082031 C 196.347656 190.402344 197.347656 190.742188 198.265625 191.101562 C 199.183594 191.460938 199.996094 191.835938 200.707031 192.222656 C 201.417969 192.609375 202.011719 193 202.488281 193.398438 C 202.964844 193.796875 203.3125 194.195312 203.539062 194.589844 C 203.761719 194.984375 203.855469 195.371094 203.816406 195.746094 C 203.78125 196.125 203.613281 196.484375 203.316406 196.828125 C 203.019531 197.171875 202.597656 197.492188 202.050781 197.789062 C 201.507812 198.085938 200.847656 198.351562 200.074219 198.589844 C 199.300781 198.832031 198.429688 199.035156 197.460938 199.207031 C 196.492188 199.378906 195.441406 199.515625 194.308594 199.613281 C 193.179688 199.710938 191.992188 199.773438 190.742188 199.792969 C 189.496094 199.816406 188.214844 199.796875 186.898438 199.742188 C 185.582031 199.683594 184.257812 199.589844 182.921875 199.457031 C 181.585938 199.324219 180.269531 199.15625 178.964844 198.949219 C 177.664062 198.746094 176.40625 198.511719 175.1875 198.246094 C 173.96875 197.976562 172.8125 197.683594 171.722656 197.367188 C 170.636719 197.046875 169.632812 196.707031 168.714844 196.347656 C 167.796875 195.984375 166.984375 195.613281 166.273438 195.226562 C 165.5625 194.839844 164.96875 194.445312 164.492188 194.046875 C 164.015625 193.648438 163.667969 193.253906 163.445312 192.855469 C 163.21875 192.460938 163.125 192.078125 163.164062 191.699219 C 163.203125 191.324219 163.367188 190.964844 163.664062 190.621094 C 163.964844 190.277344 164.382812 189.957031 164.929688 189.660156 C 165.476562 189.363281 166.132812 189.09375 166.90625 188.855469 C 167.679688 188.617188 168.550781 188.410156 169.519531 188.238281 C 170.492188 188.066406 171.539062 187.933594 172.671875 187.832031 C 173.800781 187.734375 174.992188 187.675781 176.238281 187.652344 C 177.484375 187.632812 178.765625 187.648438 180.082031 187.707031 C 181.398438 187.765625 182.726562 187.859375 184.058594 187.992188 Z M 184.058594 187.992188 " fill-opacity="1" fill-rule="nonzero"/><path fill="#f6f6f6" d="M 231.714844 145.140625 C 231.539062 145.132812 233.828125 126.039062 233.828125 126.039062 L 238.339844 126.222656 C 238.339844 126.222656 238.210938 149.902344 237.765625 149.925781 C 237.320312 149.945312 231.714844 145.140625 231.714844 145.140625 Z M 231.714844 145.140625 " fill-opacity="1" fill-rule="nonzero"/><g clip-path="url(#2600c89acd)"><path fill="#f6f6f6" d="M 240.144531 122.851562 C 240.144531 123.117188 240.117188 123.378906 240.066406 123.640625 C 240.011719 123.902344 239.9375 124.15625 239.835938 124.402344 C 239.734375 124.648438 239.609375 124.878906 239.460938 125.101562 C 239.3125 125.324219 239.144531 125.527344 238.957031 125.714844 C 238.769531 125.90625 238.566406 126.074219 238.34375 126.21875 C 238.121094 126.367188 237.890625 126.492188 237.644531 126.59375 C 237.398438 126.695312 237.144531 126.773438 236.882812 126.824219 C 236.625 126.878906 236.359375 126.902344 236.09375 126.902344 C 235.828125 126.902344 235.566406 126.878906 235.304688 126.824219 C 235.042969 126.773438 234.789062 126.695312 234.546875 126.59375 C 234.300781 126.492188 234.066406 126.367188 233.84375 126.21875 C 233.625 126.074219 233.417969 125.90625 233.230469 125.714844 C 233.042969 125.527344 232.875 125.324219 232.726562 125.101562 C 232.582031 124.878906 232.457031 124.648438 232.355469 124.402344 C 232.25 124.15625 232.175781 123.902344 232.125 123.640625 C 232.070312 123.378906 232.046875 123.117188 232.046875 122.851562 C 232.046875 122.585938 232.070312 122.320312 232.125 122.058594 C 232.175781 121.796875 232.25 121.542969 232.355469 121.300781 C 232.457031 121.054688 232.582031 120.820312 232.726562 120.597656 C 232.875 120.375 233.042969 120.171875 233.230469 119.984375 C 233.417969 119.796875 233.625 119.628906 233.84375 119.480469 C 234.066406 119.332031 234.300781 119.207031 234.546875 119.105469 C 234.789062 119.003906 235.042969 118.925781 235.304688 118.875 C 235.566406 118.824219 235.828125 118.796875 236.09375 118.796875 C 236.359375 118.796875 236.625 118.824219 236.882812 118.875 C 237.144531 118.925781 237.398438 119.003906 237.644531 119.105469 C 237.890625 119.207031 238.121094 119.332031 238.34375 119.480469 C 238.566406 119.628906 238.769531 119.796875 238.957031 119.984375 C 239.144531 120.171875 239.3125 120.375 239.460938 120.597656 C 239.609375 120.820312 239.734375 121.054688 239.835938 121.300781 C 239.9375 121.542969 240.011719 121.796875 240.066406 122.058594 C 240.117188 122.320312 240.144531 122.585938 240.144531 122.851562 Z M 240.144531 122.851562 " fill-opacity="1" fill-rule="nonzero"/></g><g clip-path="url(#0286d223c7)"><path fill="#54a3e6" d="M 232.714844 172.796875 L 230.828125 172.796875 C 226.429688 172.796875 222.863281 169.226562 222.867188 164.820312 L 222.871094 149.9375 C 222.871094 145.535156 226.4375 141.964844 230.835938 141.964844 L 232.722656 141.964844 C 237.121094 141.96875 240.6875 145.539062 240.683594 149.941406 L 240.679688 164.828125 C 240.679688 169.230469 237.113281 172.800781 232.714844 172.796875 Z M 232.714844 172.796875 " fill-opacity="1" fill-rule="nonzero"/></g><path fill="#f6f6f6" d="M 143.316406 144.4375 C 143.492188 144.425781 140.605469 125.414062 140.605469 125.414062 L 136.105469 125.738281 C 136.105469 125.738281 136.972656 149.402344 137.417969 149.410156 C 137.863281 149.417969 143.316406 144.4375 143.316406 144.4375 Z M 143.316406 144.4375 " fill-opacity="1" fill-rule="nonzero"/><g clip-path="url(#6109498a46)"><path fill="#f6f6f6" d="M 142.292969 122.296875 C 142.292969 122.5625 142.265625 122.828125 142.214844 123.089844 C 142.160156 123.347656 142.085938 123.601562 141.984375 123.847656 C 141.882812 124.09375 141.757812 124.328125 141.609375 124.550781 C 141.460938 124.769531 141.292969 124.976562 141.105469 125.164062 C 140.917969 125.351562 140.714844 125.519531 140.492188 125.667969 C 140.269531 125.816406 140.039062 125.941406 139.792969 126.042969 C 139.546875 126.144531 139.292969 126.222656 139.03125 126.273438 C 138.773438 126.324219 138.507812 126.351562 138.242188 126.351562 C 137.976562 126.351562 137.714844 126.324219 137.453125 126.273438 C 137.191406 126.222656 136.9375 126.144531 136.691406 126.042969 C 136.449219 125.941406 136.214844 125.816406 135.992188 125.667969 C 135.773438 125.519531 135.566406 125.351562 135.378906 125.164062 C 135.191406 124.976562 135.023438 124.769531 134.875 124.550781 C 134.726562 124.328125 134.601562 124.09375 134.5 123.847656 C 134.398438 123.601562 134.324219 123.347656 134.269531 123.089844 C 134.21875 122.828125 134.195312 122.5625 134.195312 122.296875 C 134.195312 122.03125 134.21875 121.769531 134.269531 121.507812 C 134.324219 121.246094 134.398438 120.992188 134.5 120.746094 C 134.601562 120.5 134.726562 120.265625 134.875 120.046875 C 135.023438 119.824219 135.191406 119.621094 135.378906 119.429688 C 135.566406 119.242188 135.773438 119.074219 135.992188 118.925781 C 136.214844 118.777344 136.449219 118.65625 136.691406 118.550781 C 136.9375 118.449219 137.191406 118.375 137.453125 118.320312 C 137.714844 118.269531 137.976562 118.242188 138.242188 118.242188 C 138.507812 118.242188 138.773438 118.269531 139.03125 118.320312 C 139.292969 118.375 139.546875 118.449219 139.792969 118.550781 C 140.039062 118.65625 140.269531 118.777344 140.492188 118.925781 C 140.714844 119.074219 140.917969 119.242188 141.105469 119.429688 C 141.292969 119.621094 141.460938 119.824219 141.609375 120.046875 C 141.757812 120.265625 141.882812 120.5 141.984375 120.746094 C 142.085938 120.992188 142.160156 121.246094 142.214844 121.507812 C 142.265625 121.769531 142.292969 122.03125 142.292969 122.296875 Z M 142.292969 122.296875 " fill-opacity="1" fill-rule="nonzero"/></g><g clip-path="url(#ee7eccec7c)"><path fill="#54a3e6" d="M 143.183594 172.117188 L 145.066406 172.054688 C 149.460938 171.917969 152.914062 168.234375 152.777344 163.835938 L 152.304688 148.957031 C 152.167969 144.554688 148.492188 141.101562 144.09375 141.238281 L 142.210938 141.296875 C 137.8125 141.4375 134.363281 145.117188 134.5 149.519531 L 134.96875 164.398438 C 135.109375 168.800781 138.785156 172.253906 143.183594 172.117188 Z M 143.183594 172.117188 " fill-opacity="1" fill-rule="nonzero"/></g><g clip-path="url(#d00dea8e1b)"><path fill="#f6f6f6" d="M 233.632812 158.5 C 233.886719 181.929688 213.816406 197.089844 188.546875 197.367188 C 163.277344 197.640625 142.382812 182.925781 142.128906 159.496094 C 141.875 136.066406 152.070312 113.269531 187.625 112.519531 C 223.382812 111.761719 233.378906 135.070312 233.632812 158.5 Z M 233.632812 158.5 " fill-opacity="1" fill-rule="nonzero"/></g><path fill="#160e0b" d="M 172 131.40625 C 172 131.40625 156.589844 132.402344 153.4375 145.730469 C 150.46875 158.285156 149.496094 179.476562 174.101562 185.921875 C 198.707031 192.371094 218.550781 183.082031 223.496094 167.007812 C 228.441406 150.933594 223.253906 136.597656 213.96875 133.289062 C 201.203125 128.742188 172 131.40625 172 131.40625 Z M 172 131.40625 " fill-opacity="1" fill-rule="nonzero"/><path fill="#54a3e6" d="M 176.359375 165.042969 C 176.730469 164.972656 179.597656 167.351562 187.785156 167.578125 C 195.65625 167.796875 198.523438 164.976562 199.3125 165.789062 C 200.421875 166.929688 195.503906 176.6875 186.71875 175.828125 C 177.933594 174.96875 173.90625 165.515625 176.359375 165.042969 Z M 176.359375 165.042969 " fill-opacity="1" fill-rule="nonzero"/><path fill="#54a3e6" d="M 166.648438 160.910156 C 166.648438 160.910156 166.644531 160.910156 166.644531 160.910156 C 166.644531 160.910156 166.648438 160.910156 166.648438 160.910156 Z M 166.648438 160.910156 Z M 164.5625 150.0625 Z M 164.5625 150.0625 Z M 164.5625 150.0625 " fill-opacity="1" fill-rule="nonzero"/><path fill="#54a3e6" d="M 210.269531 210.578125 C 210.328125 210.5 210.386719 210.421875 210.449219 210.34375 C 210.425781 210.371094 210.40625 210.402344 210.382812 210.429688 C 210.34375 210.480469 210.304688 210.527344 210.269531 210.578125 Z M 210.269531 210.578125 " fill-opacity="1" fill-rule="nonzero"/><path fill="#54a3e6" d="M 222.652344 199.976562 C 220.828125 200.976562 219.085938 202.121094 217.433594 203.386719 C 216.882812 203.816406 216.34375 204.257812 215.816406 204.714844 C 214.027344 206.265625 212.375 207.96875 210.882812 209.804688 C 210.355469 209.332031 209.753906 208.839844 209.089844 208.367188 C 209.675781 207.636719 210.289062 206.925781 210.925781 206.234375 C 213.304688 203.660156 216.027344 201.386719 218.972656 199.484375 C 219.476562 199.15625 219.992188 198.839844 220.511719 198.539062 C 221.265625 199.011719 221.980469 199.492188 222.652344 199.976562 Z M 222.652344 199.976562 " fill-opacity="1" fill-rule="nonzero"/><path fill="#54a3e6" d="M 160.421875 207.894531 C 159.730469 208.34375 159.09375 208.820312 158.53125 209.292969 C 158.011719 208.835938 157.484375 208.394531 156.941406 207.96875 C 156.441406 207.585938 155.933594 207.21875 155.414062 206.863281 C 153.515625 205.5625 151.488281 204.449219 149.371094 203.542969 C 148.871094 203.335938 148.367188 203.136719 147.859375 202.953125 C 146.554688 202.480469 145.222656 202.085938 143.871094 201.773438 C 144.570312 201.171875 145.335938 200.574219 146.164062 199.980469 C 146.621094 200.109375 147.078125 200.25 147.535156 200.402344 C 150.660156 201.433594 153.65625 202.890625 156.386719 204.734375 C 157.800781 205.695312 159.15625 206.746094 160.425781 207.894531 Z M 160.421875 207.894531 " fill-opacity="1" fill-rule="nonzero"/><path fill="#54a3e6" d="M 210.683594 156.25 C 210.667969 156.128906 210.183594 153.21875 206.597656 152.183594 C 204.773438 151.65625 203.042969 151.925781 201.453125 152.984375 C 200.207031 153.8125 199.507812 154.835938 199.5 154.847656 L 199.503906 154.84375 C 198.507812 154.183594 198.414062 152.75 199.316406 151.96875 C 199.585938 151.742188 199.882812 151.507812 200.214844 151.28125 C 202.328125 149.84375 204.738281 149.457031 207.179688 150.160156 C 209.742188 150.902344 211.121094 152.414062 211.828125 153.550781 C 211.855469 153.597656 211.886719 153.648438 211.914062 153.695312 C 212.53125 154.742188 211.886719 156.078125 210.683594 156.242188 C 210.683594 156.242188 210.683594 156.25 210.683594 156.25 Z M 210.683594 156.25 " fill-opacity="1" fill-rule="nonzero"/><path fill="#54a3e6" d="M 166.167969 156.667969 C 166.183594 156.542969 166.667969 153.636719 170.253906 152.601562 C 172.078125 152.074219 173.808594 152.34375 175.398438 153.402344 C 176.644531 154.230469 177.34375 155.253906 177.347656 155.265625 L 177.347656 155.261719 C 178.34375 154.601562 178.4375 153.167969 177.535156 152.386719 C 177.265625 152.160156 176.96875 151.925781 176.636719 151.699219 C 174.523438 150.261719 172.113281 149.875 169.671875 150.578125 C 167.109375 151.316406 165.730469 152.828125 165.023438 153.96875 C 164.996094 154.015625 164.964844 154.066406 164.9375 154.113281 C 164.320312 155.160156 164.964844 156.496094 166.167969 156.660156 C 166.167969 156.660156 166.164062 156.667969 166.164062 156.667969 Z M 166.167969 156.667969 " fill-opacity="1" fill-rule="nonzero"/><g clip-path="url(#88043f242d)"><path fill="#1f2b5b" d="M 199.394531 204.832031 L 199.394531 201.609375 L 201.648438 201.609375 C 201.648438 201.609375 201.679688 203.117188 201.101562 203.722656 C 200.527344 204.332031 199.394531 204.832031 199.394531 204.832031 Z M 199.394531 204.832031 " fill-opacity="1" fill-rule="nonzero"/></g><g clip-path="url(#b8c41b8249)"><g clip-path="url(#0eb8c2f35b)"><path fill="url(#ecd5a082ea)" d="M 195.648438 201.730469 L 195.648438 207.597656 L 201.652344 207.597656 L 201.652344 201.730469 Z M 195.648438 201.730469 " fill-rule="nonzero"/></g></g><g clip-path="url(#dc7b109554)"><path fill="#1f2b5b" d="M 201.648438 207.367188 L 201.648438 210.589844 L 199.398438 210.589844 C 199.398438 210.589844 199.367188 209.082031 199.941406 208.472656 C 200.519531 207.867188 201.648438 207.367188 201.648438 207.367188 Z M 201.648438 207.367188 " fill-opacity="1" fill-rule="nonzero"/></g><g clip-path="url(#8fe3c8027c)"><g clip-path="url(#9aaa714800)"><path fill="url(#03073435b6)" d="M 205.398438 210.46875 L 205.398438 204.601562 L 199.394531 204.601562 L 199.394531 210.46875 Z M 205.398438 210.46875 " fill-rule="nonzero"/></g></g><g clip-path="url(#63bc6dab5d)"><path fill="#002d75" d="M 207.160156 105.894531 C 207.160156 106.230469 207.136719 106.566406 207.097656 106.894531 C 206.257812 106.289062 205.355469 105.765625 204.40625 105.34375 C 199.648438 103.230469 194.660156 102.15625 189.582031 102.15625 C 184.5 102.15625 179.511719 103.230469 174.753906 105.34375 C 173.804688 105.765625 172.902344 106.289062 172.0625 106.894531 C 172.019531 106.566406 172 106.230469 172 105.894531 C 172 101.238281 175.789062 97.449219 180.445312 97.449219 L 198.714844 97.449219 C 203.371094 97.449219 207.160156 101.238281 207.160156 105.894531 Z M 207.160156 105.894531 " fill-opacity="1" fill-rule="nonzero"/></g><path fill="#002d75" d="M 206.820312 108.261719 C 205.957031 107.589844 204.984375 106.992188 203.890625 106.503906 C 199.296875 104.464844 194.480469 103.429688 189.582031 103.429688 C 184.679688 103.429688 179.863281 104.464844 175.269531 106.503906 C 174.175781 106.992188 173.203125 107.589844 172.339844 108.261719 C 172.15625 108.402344 171.980469 108.550781 171.808594 108.699219 C 172.988281 112.339844 176.410156 114.972656 180.445312 114.972656 L 187.730469 114.972656 L 187.730469 114.015625 L 185.421875 114.015625 C 184.484375 114.015625 183.722656 113.1875 183.722656 112.164062 C 183.722656 111.144531 184.484375 110.316406 185.421875 110.316406 L 187.730469 110.316406 L 187.730469 108.007812 C 187.730469 107.070312 188.558594 106.308594 189.578125 106.308594 C 190.601562 106.308594 191.429688 107.070312 191.429688 108.007812 L 191.429688 110.316406 L 193.738281 110.316406 C 194.675781 110.316406 195.4375 111.144531 195.4375 112.164062 C 195.4375 113.1875 194.675781 114.015625 193.738281 114.015625 L 191.429688 114.015625 L 191.429688 114.972656 L 198.714844 114.972656 C 202.753906 114.972656 206.171875 112.339844 207.351562 108.699219 C 207.179688 108.546875 207.003906 108.402344 206.820312 108.261719 Z M 206.820312 108.261719 " fill-opacity="1" fill-rule="nonzero"/><path fill="#ffffff" d="M 207.351562 108.699219 C 207.179688 108.546875 207.003906 108.402344 206.820312 108.261719 C 205.792969 111.769531 202.550781 114.339844 198.714844 114.339844 L 191.429688 114.339844 L 191.429688 115.609375 L 198.714844 115.609375 C 202.925781 115.609375 206.519531 112.917969 207.863281 109.164062 C 207.699219 109.003906 207.527344 108.851562 207.351562 108.699219 Z M 180.445312 114.339844 C 176.609375 114.339844 173.367188 111.769531 172.339844 108.261719 C 172.15625 108.402344 171.980469 108.550781 171.808594 108.699219 C 171.628906 108.851562 171.460938 109.003906 171.296875 109.164062 C 172.640625 112.917969 176.234375 115.609375 180.445312 115.609375 L 187.730469 115.609375 L 187.730469 114.339844 Z M 180.445312 114.339844 " fill-opacity="1" fill-rule="nonzero"/><g clip-path="url(#6d79418b09)"><path fill="#002d75" d="M 211.808594 115.796875 C 211.292969 113.714844 210.023438 111.214844 207.863281 109.164062 C 207.699219 109.003906 207.527344 108.851562 207.351562 108.699219 C 207.179688 108.546875 207.003906 108.402344 206.820312 108.261719 C 205.957031 107.589844 204.984375 106.992188 203.890625 106.503906 C 199.296875 104.464844 194.480469 103.429688 189.582031 103.429688 C 184.679688 103.429688 179.863281 104.464844 175.269531 106.503906 C 174.175781 106.992188 173.203125 107.589844 172.339844 108.261719 C 172.15625 108.402344 171.980469 108.550781 171.808594 108.699219 C 171.628906 108.851562 171.460938 109.003906 171.296875 109.164062 C 169.136719 111.214844 167.867188 113.714844 167.351562 115.792969 C 166.734375 118.292969 167.023438 120.550781 168.152344 121.984375 C 168.789062 122.8125 169.511719 123.433594 170.269531 123.894531 C 170.472656 123.925781 170.957031 123.996094 171.625 124.042969 C 172.003906 124.066406 172.4375 124.085938 172.917969 124.085938 C 175.328125 124.085938 178.777344 123.621094 180.992188 121.292969 C 181.199219 121.078125 181.394531 120.847656 181.578125 120.597656 C 181.785156 120.316406 182.179688 120.253906 182.464844 120.460938 C 182.75 120.667969 182.808594 121.066406 182.601562 121.347656 C 180.941406 123.617188 178.476562 124.652344 176.164062 125.089844 C 177.550781 124.964844 178.980469 124.605469 180.351562 124.035156 C 183.300781 122.726562 186.410156 122.058594 189.578125 122.058594 C 192.746094 122.058594 195.859375 122.726562 198.824219 124.042969 C 200.542969 124.757812 202.371094 125.140625 204.09375 125.140625 C 206.144531 125.140625 209.007812 124.59375 211.003906 121.988281 C 212.136719 120.550781 212.425781 118.296875 211.808594 115.796875 Z M 184.996094 119.03125 C 184.417969 119.613281 183.472656 119.613281 182.890625 119.03125 C 182.308594 118.449219 182.308594 117.503906 182.890625 116.925781 C 183.472656 116.34375 184.417969 116.34375 184.996094 116.925781 C 185.578125 117.503906 185.578125 118.449219 184.996094 119.03125 Z M 191.429688 116.324219 C 191.429688 117.261719 190.601562 118.023438 189.578125 118.023438 C 188.558594 118.023438 187.730469 117.261719 187.730469 116.324219 L 187.730469 114.015625 L 185.421875 114.015625 C 184.484375 114.015625 183.722656 113.1875 183.722656 112.164062 C 183.722656 111.144531 184.484375 110.316406 185.421875 110.316406 L 187.730469 110.316406 L 187.730469 108.007812 C 187.730469 107.070312 188.558594 106.308594 189.578125 106.308594 C 190.601562 106.308594 191.429688 107.070312 191.429688 108.007812 L 191.429688 110.316406 L 193.738281 110.316406 C 194.675781 110.316406 195.4375 111.144531 195.4375 112.164062 C 195.4375 113.1875 194.675781 114.015625 193.738281 114.015625 L 191.429688 114.015625 Z M 191.429688 116.324219 " fill-opacity="1" fill-rule="nonzero"/><path fill="#002d75" d="M 211.808594 115.796875 C 211.292969 113.714844 210.023438 111.214844 207.863281 109.164062 C 207.699219 109.003906 207.527344 108.851562 207.351562 108.699219 C 207.179688 108.546875 207.003906 108.402344 206.820312 108.261719 C 205.957031 107.589844 204.984375 106.992188 203.890625 106.503906 C 199.296875 104.464844 194.480469 103.429688 189.582031 103.429688 C 184.679688 103.429688 179.863281 104.464844 175.269531 106.503906 C 174.175781 106.992188 173.203125 107.589844 172.339844 108.261719 C 172.15625 108.402344 171.980469 108.550781 171.808594 108.699219 C 171.628906 108.851562 171.460938 109.003906 171.296875 109.164062 C 169.136719 111.214844 167.867188 113.714844 167.351562 115.792969 C 166.734375 118.292969 167.023438 120.550781 168.152344 121.984375 C 168.789062 122.8125 169.511719 123.433594 170.269531 123.894531 C 170.472656 123.925781 170.957031 123.996094 171.625 124.042969 C 172.003906 124.066406 172.4375 124.085938 172.917969 124.085938 C 175.328125 124.085938 178.777344 123.621094 180.992188 121.292969 C 181.199219 121.078125 181.394531 120.847656 181.578125 120.597656 C 181.785156 120.316406 182.179688 120.253906 182.464844 120.460938 C 182.75 120.667969 182.808594 121.066406 182.601562 121.347656 C 180.941406 123.617188 178.476562 124.652344 176.164062 125.089844 C 177.550781 124.964844 178.980469 124.605469 180.351562 124.035156 C 183.300781 122.726562 186.410156 122.058594 189.578125 122.058594 C 192.746094 122.058594 195.859375 122.726562 198.824219 124.042969 C 200.542969 124.757812 202.371094 125.140625 204.09375 125.140625 C 206.144531 125.140625 209.007812 124.59375 211.003906 121.988281 C 212.136719 120.550781 212.425781 118.296875 211.808594 115.796875 Z M 184.996094 119.03125 C 184.417969 119.613281 183.472656 119.613281 182.890625 119.03125 C 182.308594 118.449219 182.308594 117.503906 182.890625 116.925781 C 183.472656 116.34375 184.417969 116.34375 184.996094 116.925781 C 185.578125 117.503906 185.578125 118.449219 184.996094 119.03125 Z M 191.429688 116.324219 C 191.429688 117.261719 190.601562 118.023438 189.578125 118.023438 C 188.558594 118.023438 187.730469 117.261719 187.730469 116.324219 L 187.730469 114.015625 L 185.421875 114.015625 C 184.484375 114.015625 183.722656 113.1875 183.722656 112.164062 C 183.722656 111.144531 184.484375 110.316406 185.421875 110.316406 L 187.730469 110.316406 L 187.730469 108.007812 C 187.730469 107.070312 188.558594 106.308594 189.578125 106.308594 C 190.601562 106.308594 191.429688 107.070312 191.429688 108.007812 L 191.429688 110.316406 L 193.738281 110.316406 C 194.675781 110.316406 195.4375 111.144531 195.4375 112.164062 C 195.4375 113.1875 194.675781 114.015625 193.738281 114.015625 L 191.429688 114.015625 Z M 191.429688 116.324219 " fill-opacity="1" fill-rule="nonzero"/></g><path fill="#002d75" d="M 180.992188 121.292969 C 178.777344 123.621094 175.328125 124.085938 172.917969 124.085938 C 172.4375 124.085938 172.003906 124.066406 171.625 124.042969 Z M 180.992188 121.292969 " fill-opacity="1" fill-rule="nonzero"/></svg>