<svg width="82" height="53" viewBox="0 0 82 53" fill="none" xmlns="http://www.w3.org/2000/svg">
<mask id="mask0_3_137" style="mask-type:luminance" maskUnits="userSpaceOnUse" x="0" y="0" width="82" height="53">
<path d="M0 17.0455L73.5944 -6.22028e-08L81.7933 35.3987L8.19886 52.4443L0 17.0455Z" fill="white"/>
</mask>
<g mask="url(#mask0_3_137)">
<path d="M77.2465 20.4991C75.6409 17.3412 72.6665 13.7917 68.4265 11.297C68.1043 11.1067 67.7695 10.9194 67.4299 10.7398C67.098 10.565 66.7613 10.3979 66.4135 10.2401C64.7726 9.47445 62.9848 8.87529 61.0444 8.50352C52.8915 6.9283 44.756 7.05765 36.8743 8.88318C28.9862 10.7102 21.6222 14.1707 14.9921 19.1699C13.4127 20.3569 12.0704 21.681 10.9332 23.0901C10.6902 23.3848 10.4612 23.6829 10.2415 23.992C10.0077 24.2978 9.79563 24.6119 9.58988 24.9244C6.87839 29.0292 5.76882 33.5312 5.71362 37.0671C5.65224 41.3197 6.95878 44.8449 9.30804 46.7246C10.6426 47.8261 12.0369 48.5561 13.428 49.0154C13.7665 48.99 14.572 48.9226 15.6628 48.7428C16.2827 48.6456 16.9925 48.5077 17.7593 48.3301C21.6373 47.4319 27.014 45.3985 29.7116 40.8333C29.9632 40.4042 30.1915 39.9606 30.3938 39.4899C30.6221 38.9602 31.2336 38.7126 31.7696 38.9394C32.3056 39.1663 32.5483 39.7855 32.3215 40.3215C30.4946 44.5857 26.9158 47.1762 23.3565 48.7356C25.5426 48.024 27.7091 46.913 29.7027 45.4843C33.959 42.2734 38.7131 40.0398 43.8105 38.8592C48.9079 37.6785 54.1662 37.5931 59.4288 38.6126C62.4607 39.1223 65.5434 39.0506 68.3152 38.4087C71.615 37.6444 76.0183 35.6974 78.2606 30.7675C79.5476 28.0323 79.1713 24.2917 77.2465 20.4991ZM35.3111 35.702C34.5963 36.8476 33.0753 37.1999 31.9233 36.4866C30.7685 35.7607 30.4176 34.246 31.1372 33.0926C31.8568 31.9392 33.3779 31.5869 34.525 32.3079C35.6784 33.0275 36.0307 34.5486 35.3111 35.702ZM44.6541 28.9486C45.0035 30.4571 43.9534 31.9851 42.3067 32.3665C40.6662 32.7464 39.0513 31.8357 38.702 30.3272L37.8401 26.6063L34.1255 27.4667C32.6171 27.8161 31.0828 26.7675 30.7029 25.127C30.3215 23.4803 31.2399 21.8702 32.7484 21.5208L36.463 20.6605L35.6012 16.9396C35.2518 15.4311 36.3004 13.8968 37.9409 13.5169C39.5876 13.1355 41.204 14.0525 41.5534 15.561L42.4152 19.2819L46.1298 18.4215C47.6382 18.0721 49.171 19.1144 49.5524 20.7612C49.9324 22.4016 49.0154 24.018 47.5069 24.3674L43.7923 25.2277L44.6541 28.9486Z" fill="#002D75"/>
<path d="M77.2465 20.4991C75.6409 17.3412 72.6665 13.7917 68.4265 11.297C68.1043 11.1067 67.7695 10.9194 67.4299 10.7398C67.098 10.565 66.7613 10.3979 66.4135 10.2401C64.7726 9.47445 62.9848 8.87529 61.0444 8.50352C52.8915 6.9283 44.756 7.05765 36.8743 8.88318C28.9862 10.7102 21.6222 14.1707 14.9921 19.1699C13.4127 20.3569 12.0704 21.681 10.9332 23.0901C10.6902 23.3848 10.4612 23.6829 10.2415 23.992C10.0077 24.2978 9.79563 24.6119 9.58988 24.9244C6.87839 29.0292 5.76882 33.5312 5.71362 37.0671C5.65224 41.3197 6.95878 44.8449 9.30804 46.7246C10.6426 47.8261 12.0369 48.5561 13.428 49.0154C13.7665 48.99 14.572 48.9226 15.6628 48.7428C16.2827 48.6456 16.9925 48.5077 17.7593 48.3301C21.6373 47.4319 27.014 45.3985 29.7116 40.8333C29.9632 40.4042 30.1915 39.9606 30.3938 39.4899C30.6221 38.9602 31.2336 38.7126 31.7696 38.9394C32.3056 39.1663 32.5483 39.7855 32.3215 40.3215C30.4946 44.5857 26.9158 47.1762 23.3565 48.7356C25.5426 48.024 27.7091 46.913 29.7027 45.4843C33.959 42.2734 38.7131 40.0398 43.8105 38.8592C48.9079 37.6785 54.1662 37.5931 59.4288 38.6126C62.4607 39.1223 65.5434 39.0506 68.3152 38.4087C71.615 37.6444 76.0183 35.6974 78.2606 30.7675C79.5476 28.0323 79.1713 24.2917 77.2465 20.4991ZM35.3111 35.702C34.5963 36.8476 33.0753 37.1999 31.9233 36.4866C30.7685 35.7607 30.4176 34.246 31.1372 33.0926C31.8568 31.9392 33.3779 31.5869 34.525 32.3079C35.6784 33.0275 36.0307 34.5486 35.3111 35.702ZM44.6541 28.9486C45.0035 30.4571 43.9534 31.9851 42.3067 32.3665C40.6662 32.7464 39.0513 31.8357 38.702 30.3272L37.8401 26.6063L34.1255 27.4667C32.6171 27.8161 31.0828 26.7675 30.7029 25.127C30.3215 23.4803 31.2399 21.8702 32.7484 21.5208L36.463 20.6605L35.6012 16.9396C35.2518 15.4311 36.3004 13.8968 37.9409 13.5169C39.5876 13.1355 41.204 14.0525 41.5534 15.561L42.4152 19.2819L46.1298 18.4215C47.6382 18.0721 49.171 19.1144 49.5524 20.7612C49.9324 22.4016 49.0154 24.018 47.5069 24.3674L43.7923 25.2277L44.6541 28.9486Z" fill="#002D75"/>
</g>
</svg>
