<svg width="144" height="127" viewBox="0 0 144 127" fill="none" xmlns="http://www.w3.org/2000/svg">
<mask id="mask0_3_16" style="mask-type:luminance" maskUnits="userSpaceOnUse" x="0" y="0" width="144" height="127">
<path d="M0 27.9463L120.659 8.51716e-07L143.392 98.151L22.7332 126.097L0 27.9463Z" fill="white"/>
</mask>
<g mask="url(#mask0_3_16)">
<path d="M134.852 98.4485C134.852 98.4485 134.588 98.4236 134.094 98.379C129.136 97.9313 100.808 95.2276 83.0091 90.5754C82.4935 90.4366 81.9856 90.3026 81.4826 90.1608C79.159 89.5069 76.9054 88.7839 74.7418 88.0201C59.4106 82.5579 48.5795 74.795 48.5795 74.795C48.5795 74.795 44.1488 78.1391 37.7839 74.9908C31.419 71.8426 28.4286 65.2505 27.0504 63.4174C25.6785 61.5828 13.6004 61.6452 10.1884 60.0382C6.77649 58.4311 4.86711 55.7343 8.29198 50.5636C11.3005 46.0257 23.4383 50.9958 26.3505 52.275C24.7188 51.5204 20.1985 49.3025 15.9187 46.0356C10.57 41.9566 7.38971 38.0044 12.2379 33.6895C16.7779 29.6446 32.3379 41.8419 34.1342 43.3927C32.8081 41.9847 24.1884 31.7031 23.7009 28.6835C23.1784 25.4271 27.3351 21.0141 31.4647 22.1172C35.6006 23.2188 49.0724 41.211 48.859 40.4326C48.6394 39.6556 48.0745 25.6939 51.5147 23.4203C54.9501 21.1544 56.9204 23.7709 59.4892 28.0567C62.0594 32.3487 61.9096 48.0853 61.9096 48.0853C61.9096 48.0853 69.3968 53.02 79.6244 57.863C81.8192 58.9043 84.1378 59.9368 86.5371 60.9175C89.1121 61.9701 91.7788 62.9617 94.4773 63.8333C106.662 67.7463 123.049 69.7917 131.506 70.535C134.813 70.8287 136.902 70.9277 137.058 70.8584L134.846 98.45L134.852 98.4485Z" fill="#F6F6F6"/>
</g>
</svg>
