<svg width="62" height="30" viewBox="0 0 62 30" fill="none" xmlns="http://www.w3.org/2000/svg">
<mask id="mask0_3_130" style="mask-type:luminance" maskUnits="userSpaceOnUse" x="0" y="0" width="62" height="30">
<path d="M0 13.4163L57.9252 2.15188e-07L61.5588 15.6881L3.63358 29.1044L0 13.4163Z" fill="white"/>
</mask>
<g mask="url(#mask0_3_130)">
<path d="M60.1737 13.7843C60.3003 14.3311 60.3864 14.8741 60.4473 15.4229C58.8688 14.7554 57.2219 14.2495 55.5373 13.9244C47.0943 12.2972 38.6691 12.434 30.4982 14.3265C22.321 16.2205 14.6936 19.8016 7.82569 24.9751C6.45559 26.0077 5.19876 27.1862 4.07452 28.4797C3.88164 27.9614 3.72647 27.4345 3.59982 26.8876C1.86455 19.3956 6.55065 11.893 14.0427 10.1578L43.439 3.34917C50.9311 1.6139 58.4384 6.29226 60.1737 13.7843Z" fill="#002D75"/>
</g>
</svg>
