<svg width="135" height="123" viewBox="0 0 135 123" fill="none" xmlns="http://www.w3.org/2000/svg">
<mask id="mask0_3_11" style="mask-type:luminance" maskUnits="userSpaceOnUse" x="0" y="0" width="135" height="123">
<path d="M0 25.9985L112.249 7.42336e-07L134.609 96.542L22.3605 122.54L0 25.9985Z" fill="white"/>
</mask>
<g mask="url(#mask0_3_11)">
<path d="M116.963 30.7761C114.831 33.8925 104.379 39.9489 104.117 42.2214C103.851 44.5017 104.599 51.7058 100.701 57.6352C96.7977 63.5722 91.2908 62.9272 91.2908 62.9272C91.2908 62.9272 86.6785 73.2934 77.7338 84.6829C76.3126 86.4955 74.7845 88.3329 73.1409 90.1573C71.9997 91.4348 70.8024 92.6989 69.5553 93.948C62.0457 101.469 53.9705 107.491 48.0006 111.51C42.6102 115.142 38.9289 117.147 38.9289 117.147L24.6994 104.576L18.4985 99.1047C18.7243 99.0789 21.0303 97.7699 24.4435 95.4364C27.0963 93.6232 30.4156 91.1988 33.9501 88.2743C36.4968 86.1745 39.1575 83.8231 41.7687 81.2581C43.2574 79.7941 44.7238 78.2624 46.1442 76.6752C47.4226 75.2466 48.6594 73.7814 49.8449 72.2949C50.4816 71.4984 51.1043 70.6986 51.7144 69.9016C53.2887 67.835 54.7615 65.7588 56.125 63.7543C57.1963 62.175 58.2043 60.6369 59.1282 59.1647C63.6182 52.0453 66.2885 46.6189 66.2885 46.6189C66.2885 46.6189 62.7101 40.6332 60.3357 35.1567C59.1425 32.4066 58.2506 29.7854 58.2672 28.1127C58.2637 28.0407 58.2666 27.9672 58.2694 27.8937C58.3235 23.6096 58.6519 20.6528 61.4886 20.1481C61.8764 20.0781 62.315 20.056 62.8044 20.0818C66.9212 20.3004 73.4801 32.6355 73.6873 33.4153C73.8944 34.1951 76.4297 11.8597 79.4404 8.81807C82.4511 5.77639 88.2699 7.48164 89.4576 10.5509C90.5629 13.4074 88.322 26.635 87.8917 28.5227C88.6568 26.2793 95.9189 7.88219 101.878 9.07812C108.238 10.3468 107.501 15.3717 104.942 21.5934C102.888 26.5923 100.096 30.8084 99.0836 32.2682C100.929 29.7149 108.908 19.2445 113.809 21.6458C119.373 24.3702 119.091 27.6674 116.963 30.7761Z" fill="#F6F6F6"/>
</g>
</svg>
