<svg width="69" height="75" viewBox="0 0 69 75" fill="none" xmlns="http://www.w3.org/2000/svg">
<mask id="mask0_3_5" style="mask-type:luminance" maskUnits="userSpaceOnUse" x="0" y="0" width="69" height="75">
<path d="M0.000488281 12.6711L54.7076 0.000122178L68.9333 61.42L14.2262 74.0909L0.000488281 12.6711Z" fill="white"/>
</mask>
<g mask="url(#mask0_3_5)">
<path d="M50.515 60.9826C39.0289 71.4641 26.6861 70.8129 21.6772 68.344C19.7935 67.4161 18.7589 65.9802 17.9265 63.9876C16.5534 60.6897 15.7294 55.874 12.535 49.3159C11.8036 47.8165 11.0628 46.0477 10.3344 44.1038C9.51204 41.8969 8.69188 39.471 7.91037 36.9832C5.55563 29.4757 3.52248 21.3837 2.42749 16.942C1.96417 15.056 1.67109 13.8192 1.60029 13.5707L2.18838 13.0504C2.20304 12.0271 31.3148 7.99303 33.1061 7.57814C33.8352 7.40927 35.1835 10.5142 36.5177 14.2448C37.1938 16.1346 37.8735 18.1825 38.4562 20.0409C39.5451 23.484 40.3462 26.2852 40.3462 26.2852C40.3462 26.2852 34.6744 28.1882 39.8928 26.5293C40.7316 26.2621 41.7393 26.1811 42.8554 26.2537C48.53 26.6215 57.0623 31.0359 60.741 36.111C60.8572 36.2695 60.9671 36.4295 61.077 36.5895C65.2152 42.876 62.0026 50.5074 50.5165 60.9889L50.515 60.9826Z" fill="#F6F6F6"/>
</g>
</svg>
