<svg width="201" height="44" viewBox="0 0 201 44" fill="none" xmlns="http://www.w3.org/2000/svg">
<g clip-path="url(#clip0_309_485)">
<mask id="mask0_309_485" style="mask-type:luminance" maskUnits="userSpaceOnUse" x="22" y="0" width="11" height="15">
<path d="M22.5 0.092041H32.9208V14.8487H22.5V0.092041Z" fill="white"/>
</mask>
<g mask="url(#mask0_309_485)">
<path d="M22.9062 14.4779V0.111816H32.8773C32.8773 0.111816 33.0111 6.83572 30.4602 9.54422C27.9112 12.2527 22.9062 14.4779 22.9062 14.4779Z" fill="#1F2B5B"/>
</g>
<mask id="mask1_309_485" style="mask-type:luminance" maskUnits="userSpaceOnUse" x="6" y="0" width="27" height="28">
<path d="M6.31641 0.495605H32.9267V27.2211H6.31641V0.495605Z" fill="white"/>
</mask>
<g mask="url(#mask1_309_485)">
<mask id="mask2_309_485" style="mask-type:luminance" maskUnits="userSpaceOnUse" x="6" y="0" width="27" height="27">
<path d="M32.8801 0.6521C32.8917 2.42877 32.6843 8.29817 29.8155 14.0284C28.9103 15.8302 27.7453 17.6204 26.2353 19.2656C22.3275 23.5284 16.1285 26.8092 6.3125 26.8092V16.7968C13.5505 16.7968 18.8229 15.6813 22.659 14.0284C24.0255 13.4387 25.2118 12.7814 26.2392 12.0816C32.2773 7.96565 32.8549 2.38817 32.8801 0.6521Z" fill="white"/>
</mask>
<g mask="url(#mask2_309_485)">
<path d="M6.3125 0.6521V26.8092H32.8917V0.6521H6.3125Z" fill="url(#paint0_linear_309_485)"/>
</g>
</g>
<mask id="mask3_309_485" style="mask-type:luminance" maskUnits="userSpaceOnUse" x="22" y="25" width="11" height="16">
<path d="M22.5 25.7365H32.9208V40.1799H22.5V25.7365Z" fill="white"/>
</mask>
<g mask="url(#mask3_309_485)">
<path d="M32.8785 25.7906V40.1568H22.9075C22.9075 40.1568 22.7737 33.4329 25.3246 30.7243C27.8736 28.0158 32.8785 25.7906 32.8785 25.7906Z" fill="#1F2B5B"/>
</g>
<mask id="mask4_309_485" style="mask-type:luminance" maskUnits="userSpaceOnUse" x="22" y="13" width="28" height="28">
<path d="M22.5 13.3641H49.4824V40.0896H22.5V13.3641Z" fill="white"/>
</mask>
<g mask="url(#mask4_309_485)">
<mask id="mask5_309_485" style="mask-type:luminance" maskUnits="userSpaceOnUse" x="22" y="13" width="28" height="27">
<path d="M22.9028 39.615C22.8911 37.8383 23.0966 31.9689 25.9654 26.2387C26.8707 24.4369 28.0376 22.6448 29.5456 21.0015C33.4554 16.7386 39.6544 13.4579 49.4704 13.4579V23.4703C42.2324 23.4703 36.9619 24.5858 33.1239 26.2387C31.7573 26.8284 30.5711 27.4837 29.5437 28.1836C23.5056 32.2995 22.928 37.8789 22.9028 39.615Z" fill="white"/>
</mask>
<g mask="url(#mask5_309_485)">
<path d="M49.4738 39.615V13.4579H22.8945V39.615H49.4738Z" fill="url(#paint1_linear_309_485)"/>
</g>
</g>
<mask id="mask6_309_485" style="mask-type:luminance" maskUnits="userSpaceOnUse" x="58" y="3" width="100" height="34">
<path d="M157.872 3.97668H58.2305V36.1139H157.872V3.97668Z" fill="white"/>
</mask>
<g mask="url(#mask6_309_485)">
<path d="M60.1406 27.6832V9.01892H65.8493L67.4139 20.406L68.9863 9.01892H74.7337V27.6832H71.31V14.2335L69.1567 27.6832H65.8028L63.5178 14.2335V27.6832H60.1406Z" fill="#1F2B5B"/>
<path d="M75.9492 27.6832V9.01892H83.4394V12.6266H79.7601V16.2575H83.2845V19.7725H79.7601V24.0523H83.6795V27.6832H75.9492Z" fill="#1F2B5B"/>
<path d="M84.4844 9.01892H89.6431C90.9792 9.01892 91.9823 9.38973 92.6484 10.1314C93.3184 10.8691 93.6631 11.9623 93.6786 13.4146L93.7173 22.1442C93.7328 23.9828 93.4114 25.3656 92.7569 26.2927C92.1062 27.2197 91.0237 27.6832 89.5114 27.6832H84.4844V9.01892ZM88.9072 24.3845C89.5888 24.3845 89.9297 24.0504 89.9297 23.3802V13.7622C89.9297 13.3412 89.8948 13.0245 89.829 12.812C89.767 12.6015 89.6469 12.4605 89.4727 12.3871C89.2964 12.3157 89.0273 12.279 88.6671 12.279H88.2488V24.3845H88.9072Z" fill="#1F2B5B"/>
<path d="M94.6055 27.6832V9.01892H98.2227V27.6832H94.6055Z" fill="#1F2B5B"/>
<path d="M103.649 27.853C102.285 27.853 101.193 27.4281 100.372 26.5783C99.5512 25.7246 99.1406 24.5504 99.1406 23.0556V14.4496C99.1406 12.6013 99.5085 11.205 100.248 10.2625C100.992 9.32 102.156 8.84875 103.742 8.84875C105.12 8.84875 106.23 9.22536 107.072 9.97665C107.913 10.7299 108.335 11.8153 108.335 13.2367V16.4504H104.609V13.6925C104.609 13.1575 104.541 12.7887 104.408 12.5878C104.278 12.3831 104.055 12.2788 103.742 12.2788C103.405 12.2788 103.176 12.3947 103.052 12.6264C102.928 12.8582 102.866 13.1981 102.866 13.6462V23.0092C102.866 23.5036 102.938 23.8648 103.083 24.0907C103.227 24.3128 103.447 24.4229 103.742 24.4229C104.319 24.4229 104.609 23.9517 104.609 23.0092V19.6487H108.374V23.1637C108.374 26.2905 106.797 27.853 103.649 27.853Z" fill="#1F2B5B"/>
<path d="M113.632 27.853C112.124 27.853 110.977 27.3952 110.193 26.4779C109.407 25.5566 109.016 24.2646 109.016 22.5998V13.7157C109.016 12.1088 109.407 10.896 110.193 10.0771C110.977 9.2582 112.124 8.84875 113.632 8.84875C115.144 8.84875 116.291 9.2582 117.071 10.0771C117.855 10.896 118.249 12.1088 118.249 13.7157V22.5998C118.249 24.28 117.855 25.574 117.071 26.4856C116.291 27.3972 115.144 27.853 113.632 27.853ZM113.632 24.4229C113.967 24.4229 114.192 24.28 114.306 23.9903C114.424 23.7025 114.484 23.295 114.484 22.7697V13.6462C114.484 13.2444 114.43 12.918 114.321 12.665C114.213 12.4082 113.99 12.2788 113.655 12.2788C113.03 12.2788 112.718 12.75 112.718 13.6925V22.7929C112.718 23.3298 112.782 23.7354 112.912 24.0135C113.045 24.2877 113.285 24.4229 113.632 24.4229Z" fill="#1F2B5B"/>
<path d="M119.32 27.6832V9.01892H123.069V24.5081H126.919V27.6832H119.32Z" fill="#1F2B5B"/>
<path d="M131.999 27.853C130.491 27.853 129.344 27.3952 128.56 26.4779C127.774 25.5566 127.383 24.2646 127.383 22.5998V13.7157C127.383 12.1088 127.774 10.896 128.56 10.0771C129.344 9.2582 130.491 8.84875 131.999 8.84875C133.512 8.84875 134.658 9.2582 135.438 10.0771C136.223 10.896 136.616 12.1088 136.616 13.7157V22.5998C136.616 24.28 136.223 25.574 135.438 26.4856C134.658 27.3972 133.512 27.853 131.999 27.853ZM131.999 24.4229C132.334 24.4229 132.559 24.28 132.673 23.9903C132.791 23.7025 132.851 23.295 132.851 22.7697V13.6462C132.851 13.2444 132.797 12.918 132.689 12.665C132.58 12.4082 132.358 12.2788 132.023 12.2788C131.397 12.2788 131.085 12.75 131.085 13.6925V22.7929C131.085 23.3298 131.149 23.7354 131.279 24.0135C131.413 24.2877 131.653 24.4229 131.999 24.4229Z" fill="#1F2B5B"/>
<path d="M141.544 27.853C140.19 27.853 139.183 27.3798 138.523 26.4315C137.86 25.4852 137.531 24.0483 137.531 22.1208V14.0865C137.531 12.3618 137.915 11.0582 138.685 10.1775C139.454 9.29296 140.602 8.84875 142.132 8.84875C143.366 8.84875 144.324 9.09596 145.006 9.59038C145.688 10.0809 146.156 10.7955 146.416 11.738C146.679 12.6805 146.811 13.8914 146.811 15.3689H143.155V13.6925C143.155 13.2444 143.093 12.8968 142.969 12.6496C142.845 12.4024 142.622 12.2788 142.303 12.2788C141.59 12.2788 141.234 12.7423 141.234 13.6693V22.7079C141.234 23.2757 141.305 23.7025 141.451 23.9903C141.594 24.28 141.85 24.4229 142.217 24.4229C142.578 24.4229 142.831 24.28 142.977 23.9903C143.12 23.7025 143.193 23.2757 143.193 22.7079V20.035H142.194V16.8213H146.764V27.683H145.262L144.634 26.1225C143.968 27.2774 142.938 27.853 141.544 27.853Z" fill="#1F2B5B"/>
<path d="M150.072 27.6828V21.5335L147.09 9.01855H150.792L151.838 15.3456L152.884 9.01855H156.586L153.604 21.5335V27.6828H150.072Z" fill="#1F2B5B"/>
</g>
</g>
<defs>
<linearGradient id="paint0_linear_309_485" x1="6.31226" y1="13.7303" x2="32.8914" y2="13.7303" gradientUnits="userSpaceOnUse">
<stop stop-color="#3DBDEC"/>
<stop offset="0.03125" stop-color="#3DBDEC"/>
<stop offset="0.046875" stop-color="#3DBDEC"/>
<stop offset="0.0546875" stop-color="#3DBCEC"/>
<stop offset="0.0625" stop-color="#3DBCEC"/>
<stop offset="0.078125" stop-color="#3EBBED"/>
<stop offset="0.0859375" stop-color="#3EBAED"/>
<stop offset="0.09375" stop-color="#3EBAED"/>
<stop offset="0.101563" stop-color="#3EB9ED"/>
<stop offset="0.109375" stop-color="#3EB9ED"/>
<stop offset="0.117188" stop-color="#3EB8ED"/>
<stop offset="0.125" stop-color="#3FB8ED"/>
<stop offset="0.132813" stop-color="#3FB7EE"/>
<stop offset="0.140625" stop-color="#3FB7EE"/>
<stop offset="0.148438" stop-color="#3FB6EE"/>
<stop offset="0.15625" stop-color="#3FB6EE"/>
<stop offset="0.164062" stop-color="#3FB5EE"/>
<stop offset="0.171875" stop-color="#40B5EE"/>
<stop offset="0.179688" stop-color="#40B4EE"/>
<stop offset="0.1875" stop-color="#40B4EF"/>
<stop offset="0.203125" stop-color="#40B3EF"/>
<stop offset="0.210938" stop-color="#40B2EF"/>
<stop offset="0.21875" stop-color="#41B2EF"/>
<stop offset="0.226563" stop-color="#41B1EF"/>
<stop offset="0.234375" stop-color="#41B1EF"/>
<stop offset="0.242188" stop-color="#41B0F0"/>
<stop offset="0.25" stop-color="#41B0F0"/>
<stop offset="0.257812" stop-color="#41AFF0"/>
<stop offset="0.265625" stop-color="#41AFF0"/>
<stop offset="0.273438" stop-color="#42AEF0"/>
<stop offset="0.28125" stop-color="#42AEF0"/>
<stop offset="0.289063" stop-color="#42ADF0"/>
<stop offset="0.296875" stop-color="#42ADF1"/>
<stop offset="0.3125" stop-color="#42ACF1"/>
<stop offset="0.320312" stop-color="#43ABF1"/>
<stop offset="0.328125" stop-color="#43ABF1"/>
<stop offset="0.335938" stop-color="#43AAF1"/>
<stop offset="0.34375" stop-color="#43AAF1"/>
<stop offset="0.351562" stop-color="#43A9F2"/>
<stop offset="0.359375" stop-color="#43A9F2"/>
<stop offset="0.367188" stop-color="#43A8F2"/>
<stop offset="0.375" stop-color="#44A8F2"/>
<stop offset="0.382813" stop-color="#44A7F2"/>
<stop offset="0.390625" stop-color="#44A7F2"/>
<stop offset="0.398438" stop-color="#44A6F2"/>
<stop offset="0.40625" stop-color="#44A6F2"/>
<stop offset="0.421875" stop-color="#44A5F3"/>
<stop offset="0.429688" stop-color="#45A4F3"/>
<stop offset="0.4375" stop-color="#45A4F3"/>
<stop offset="0.445313" stop-color="#45A3F3"/>
<stop offset="0.453125" stop-color="#45A3F3"/>
<stop offset="0.460938" stop-color="#45A2F3"/>
<stop offset="0.46875" stop-color="#45A2F4"/>
<stop offset="0.476563" stop-color="#46A1F4"/>
<stop offset="0.484375" stop-color="#46A1F4"/>
<stop offset="0.492188" stop-color="#46A0F4"/>
<stop offset="0.5" stop-color="#46A0F4"/>
<stop offset="0.507813" stop-color="#469FF4"/>
<stop offset="0.515625" stop-color="#469FF4"/>
<stop offset="0.523438" stop-color="#479EF5"/>
<stop offset="0.53125" stop-color="#479EF5"/>
<stop offset="0.546875" stop-color="#479DF5"/>
<stop offset="0.554688" stop-color="#479CF5"/>
<stop offset="0.5625" stop-color="#479CF5"/>
<stop offset="0.570312" stop-color="#489BF5"/>
<stop offset="0.578125" stop-color="#489BF6"/>
<stop offset="0.585937" stop-color="#489AF6"/>
<stop offset="0.59375" stop-color="#489AF6"/>
<stop offset="0.601563" stop-color="#4899F6"/>
<stop offset="0.609375" stop-color="#4899F6"/>
<stop offset="0.617188" stop-color="#4898F6"/>
<stop offset="0.625" stop-color="#4998F6"/>
<stop offset="0.632812" stop-color="#4997F7"/>
<stop offset="0.640625" stop-color="#4997F7"/>
<stop offset="0.65625" stop-color="#4996F7"/>
<stop offset="0.664062" stop-color="#4995F7"/>
<stop offset="0.671875" stop-color="#4A95F7"/>
<stop offset="0.679687" stop-color="#4A94F7"/>
<stop offset="0.6875" stop-color="#4A94F8"/>
<stop offset="0.695313" stop-color="#4A93F8"/>
<stop offset="0.703125" stop-color="#4A93F8"/>
<stop offset="0.710938" stop-color="#4A92F8"/>
<stop offset="0.71875" stop-color="#4A92F8"/>
<stop offset="0.726562" stop-color="#4B91F8"/>
<stop offset="0.734375" stop-color="#4B91F8"/>
<stop offset="0.742188" stop-color="#4B90F8"/>
<stop offset="0.75" stop-color="#4B90F9"/>
<stop offset="0.757812" stop-color="#4B8FF9"/>
<stop offset="0.765625" stop-color="#4B8FF9"/>
<stop offset="0.78125" stop-color="#4C8EF9"/>
<stop offset="0.789063" stop-color="#4C8DF9"/>
<stop offset="0.796875" stop-color="#4C8DF9"/>
<stop offset="0.804688" stop-color="#4C8CFA"/>
<stop offset="0.8125" stop-color="#4C8CFA"/>
<stop offset="0.820312" stop-color="#4D8BFA"/>
<stop offset="0.828125" stop-color="#4D8BFA"/>
<stop offset="0.835938" stop-color="#4D8AFA"/>
<stop offset="0.84375" stop-color="#4D8AFA"/>
<stop offset="0.851562" stop-color="#4D89FA"/>
<stop offset="0.859375" stop-color="#4D89FB"/>
<stop offset="0.867188" stop-color="#4D88FB"/>
<stop offset="0.875" stop-color="#4E88FB"/>
<stop offset="0.890625" stop-color="#4E87FB"/>
<stop offset="0.898438" stop-color="#4E86FB"/>
<stop offset="0.90625" stop-color="#4E86FB"/>
<stop offset="0.914062" stop-color="#4E85FC"/>
<stop offset="0.921875" stop-color="#4F85FC"/>
<stop offset="0.929688" stop-color="#4F84FC"/>
<stop offset="0.9375" stop-color="#4F84FC"/>
<stop offset="0.945312" stop-color="#4F83FC"/>
<stop offset="0.953125" stop-color="#4F83FC"/>
<stop offset="0.960938" stop-color="#4F82FC"/>
<stop offset="0.96875" stop-color="#4F82FD"/>
<stop offset="0.976563" stop-color="#5081FD"/>
<stop offset="0.984375" stop-color="#5081FD"/>
<stop offset="1" stop-color="#5080FD"/>
</linearGradient>
<linearGradient id="paint1_linear_309_485" x1="49.4741" y1="26.537" x2="22.8938" y2="26.537" gradientUnits="userSpaceOnUse">
<stop stop-color="#3DBDEC"/>
<stop offset="0.03125" stop-color="#3DBDEC"/>
<stop offset="0.046875" stop-color="#3DBDEC"/>
<stop offset="0.0546875" stop-color="#3DBCEC"/>
<stop offset="0.0625" stop-color="#3DBCEC"/>
<stop offset="0.0703125" stop-color="#3EBBED"/>
<stop offset="0.078125" stop-color="#3EBBED"/>
<stop offset="0.0859375" stop-color="#3EBAED"/>
<stop offset="0.09375" stop-color="#3EBAED"/>
<stop offset="0.101562" stop-color="#3EB9ED"/>
<stop offset="0.109375" stop-color="#3EB9ED"/>
<stop offset="0.117187" stop-color="#3EB8ED"/>
<stop offset="0.125" stop-color="#3FB8ED"/>
<stop offset="0.132812" stop-color="#3FB7EE"/>
<stop offset="0.140625" stop-color="#3FB7EE"/>
<stop offset="0.148437" stop-color="#3FB6EE"/>
<stop offset="0.15625" stop-color="#3FB6EE"/>
<stop offset="0.171875" stop-color="#40B5EE"/>
<stop offset="0.179688" stop-color="#40B4EE"/>
<stop offset="0.1875" stop-color="#40B4EF"/>
<stop offset="0.195312" stop-color="#40B3EF"/>
<stop offset="0.203125" stop-color="#40B3EF"/>
<stop offset="0.210937" stop-color="#40B2EF"/>
<stop offset="0.21875" stop-color="#41B2EF"/>
<stop offset="0.226562" stop-color="#41B1EF"/>
<stop offset="0.234375" stop-color="#41B1EF"/>
<stop offset="0.242187" stop-color="#41B0F0"/>
<stop offset="0.25" stop-color="#41B0F0"/>
<stop offset="0.257812" stop-color="#41AFF0"/>
<stop offset="0.265625" stop-color="#41AFF0"/>
<stop offset="0.273438" stop-color="#42AEF0"/>
<stop offset="0.28125" stop-color="#42AEF0"/>
<stop offset="0.296875" stop-color="#42ADF0"/>
<stop offset="0.304687" stop-color="#42ACF1"/>
<stop offset="0.3125" stop-color="#42ACF1"/>
<stop offset="0.320312" stop-color="#43ABF1"/>
<stop offset="0.328125" stop-color="#43ABF1"/>
<stop offset="0.335937" stop-color="#43AAF1"/>
<stop offset="0.34375" stop-color="#43AAF1"/>
<stop offset="0.351562" stop-color="#43A9F2"/>
<stop offset="0.359375" stop-color="#43A9F2"/>
<stop offset="0.367188" stop-color="#43A8F2"/>
<stop offset="0.375" stop-color="#44A8F2"/>
<stop offset="0.382812" stop-color="#44A7F2"/>
<stop offset="0.390625" stop-color="#44A7F2"/>
<stop offset="0.398438" stop-color="#44A6F2"/>
<stop offset="0.40625" stop-color="#44A6F2"/>
<stop offset="0.421875" stop-color="#44A5F3"/>
<stop offset="0.429687" stop-color="#45A4F3"/>
<stop offset="0.4375" stop-color="#45A4F3"/>
<stop offset="0.445312" stop-color="#45A3F3"/>
<stop offset="0.453125" stop-color="#45A3F3"/>
<stop offset="0.460937" stop-color="#45A2F3"/>
<stop offset="0.46875" stop-color="#45A2F4"/>
<stop offset="0.476562" stop-color="#46A1F4"/>
<stop offset="0.484375" stop-color="#46A1F4"/>
<stop offset="0.492187" stop-color="#46A0F4"/>
<stop offset="0.5" stop-color="#46A0F4"/>
<stop offset="0.507812" stop-color="#469FF4"/>
<stop offset="0.515625" stop-color="#469FF4"/>
<stop offset="0.523438" stop-color="#479EF5"/>
<stop offset="0.53125" stop-color="#479EF5"/>
<stop offset="0.546875" stop-color="#479DF5"/>
<stop offset="0.554688" stop-color="#479CF5"/>
<stop offset="0.5625" stop-color="#479CF5"/>
<stop offset="0.570312" stop-color="#489BF5"/>
<stop offset="0.578125" stop-color="#489BF6"/>
<stop offset="0.585938" stop-color="#489AF6"/>
<stop offset="0.59375" stop-color="#489AF6"/>
<stop offset="0.601562" stop-color="#4899F6"/>
<stop offset="0.609375" stop-color="#4899F6"/>
<stop offset="0.617188" stop-color="#4898F6"/>
<stop offset="0.625" stop-color="#4998F6"/>
<stop offset="0.632812" stop-color="#4997F7"/>
<stop offset="0.640625" stop-color="#4997F7"/>
<stop offset="0.648437" stop-color="#4996F7"/>
<stop offset="0.65625" stop-color="#4996F7"/>
<stop offset="0.671875" stop-color="#4995F7"/>
<stop offset="0.679687" stop-color="#4A94F7"/>
<stop offset="0.6875" stop-color="#4A94F8"/>
<stop offset="0.695312" stop-color="#4A93F8"/>
<stop offset="0.703125" stop-color="#4A93F8"/>
<stop offset="0.710937" stop-color="#4A92F8"/>
<stop offset="0.71875" stop-color="#4A92F8"/>
<stop offset="0.726562" stop-color="#4B91F8"/>
<stop offset="0.734375" stop-color="#4B91F8"/>
<stop offset="0.742188" stop-color="#4B90F8"/>
<stop offset="0.75" stop-color="#4B90F9"/>
<stop offset="0.757812" stop-color="#4B8FF9"/>
<stop offset="0.765625" stop-color="#4B8FF9"/>
<stop offset="0.773438" stop-color="#4C8EF9"/>
<stop offset="0.78125" stop-color="#4C8EF9"/>
<stop offset="0.796875" stop-color="#4C8DF9"/>
<stop offset="0.804687" stop-color="#4C8CFA"/>
<stop offset="0.8125" stop-color="#4C8CFA"/>
<stop offset="0.820312" stop-color="#4D8BFA"/>
<stop offset="0.828125" stop-color="#4D8BFA"/>
<stop offset="0.835938" stop-color="#4D8AFA"/>
<stop offset="0.84375" stop-color="#4D8AFA"/>
<stop offset="0.851562" stop-color="#4D89FA"/>
<stop offset="0.859375" stop-color="#4D89FB"/>
<stop offset="0.867188" stop-color="#4D88FB"/>
<stop offset="0.875" stop-color="#4E88FB"/>
<stop offset="0.882812" stop-color="#4E87FB"/>
<stop offset="0.890625" stop-color="#4E87FB"/>
<stop offset="0.898438" stop-color="#4E86FB"/>
<stop offset="0.90625" stop-color="#4E86FB"/>
<stop offset="0.921875" stop-color="#4E85FC"/>
<stop offset="0.929688" stop-color="#4F84FC"/>
<stop offset="0.9375" stop-color="#4F84FC"/>
<stop offset="0.945312" stop-color="#4F83FC"/>
<stop offset="0.953125" stop-color="#4F83FC"/>
<stop offset="0.960938" stop-color="#4F82FC"/>
<stop offset="0.96875" stop-color="#4F82FD"/>
<stop offset="0.976562" stop-color="#5081FD"/>
<stop offset="0.984375" stop-color="#5081FD"/>
<stop offset="1" stop-color="#5080FD"/>
</linearGradient>
<clipPath id="clip0_309_485">
<rect width="151.97" height="40.4594" fill="white" transform="translate(6 0.00134277)"/>
</clipPath>
</defs>
</svg>
