<svg width="36" height="71" viewBox="0 0 36 71" fill="none" xmlns="http://www.w3.org/2000/svg">
<path d="M26.7679 69.7798C26.2636 69.89 25.741 69.9779 25.2033 70.0296C24.2314 70.1222 23.1984 70.1231 22.1108 70.0306C22.0155 70.0196 21.914 70.01 21.8202 70.0052C20.336 69.8589 18.9873 69.2971 17.7598 68.4291C10.9729 63.6303 7.98168 49.4292 7.82276 43.6249C7.63496 36.7811 11.1168 32.1137 11.1168 32.1137L0.293647 3.99827L-2.76428e-06 3.2451L5.80463 1.34904e-05L6.29901 0.819274L19.6566 22.8643L20.4279 24.136L21.1126 25.2622C21.518 25.5259 32.6383 30.3343 34.8655 47.613C36.6742 61.6841 33.3022 68.3127 26.7616 69.7812L26.7679 69.7798Z" fill="#F6F6F6"/>
</svg>
