<svg width="13" height="13" viewBox="0 0 13 13" fill="none" xmlns="http://www.w3.org/2000/svg">
<path d="M9.51984 0.951742C10.2228 1.38494 10.8156 1.94299 11.2969 2.61961C11.7781 3.29623 12.108 4.03438 12.2943 4.8389C12.4821 5.6497 12.5103 6.45773 12.3756 7.27701C12.2408 8.09629 11.9537 8.85815 11.5128 9.5563C11.0796 10.2593 10.5278 10.8507 9.85119 11.3319C9.18086 11.8116 8.44416 12.1478 7.63965 12.3342C6.83513 12.5205 6.02565 12.5424 5.21265 12.4062C4.39337 12.2715 3.6378 11.9829 2.93964 11.542C2.23667 11.1088 1.64384 10.5507 1.16262 9.87409C0.68141 9.19747 0.351504 8.45932 0.163711 7.64852C-0.0226272 6.844 -0.050839 6.03597 0.0839042 5.21669C0.218647 4.39741 0.505764 3.63555 0.946705 2.9374C1.37991 2.23442 1.93167 1.64305 2.60829 1.16184C3.27862 0.682079 4.01532 0.345888 4.81983 0.15955C5.62435 -0.0267872 6.43384 -0.0487136 7.24683 0.0874853C8.06611 0.222228 8.82169 0.5108 9.51984 0.951742Z" fill="#F6F6F6"/>
</svg>
