<svg width="35" height="25" viewBox="0 0 35 25" fill="none" xmlns="http://www.w3.org/2000/svg">
<path d="M34.945 6.21424C34.7207 6.24633 34.4978 6.28471 34.2764 6.32938C32.0098 6.89408 29.8098 7.7745 27.6581 8.66358C25.4813 9.55849 23.3466 10.5496 21.2497 11.618C21.2386 11.6272 21.2212 11.6379 21.2087 11.6408C19.0891 12.7542 17.0073 13.945 14.9666 15.1991C11.0671 17.6056 7.32153 20.2479 3.70133 23.0599C3.2746 23.3905 2.84933 23.7275 2.43034 24.0629C1.60166 21.8575 0.781506 19.4316 -1.07649e-05 16.9438C4.90957 13.151 10.0501 9.66903 15.4792 6.68973C19.5684 4.4446 23.7865 2.44116 28.1605 0.825417C28.948 0.537059 29.7433 0.253531 30.5521 -2.76951e-05C31.6347 3.44457 32.4358 6.24575 32.4358 6.24575C32.4358 6.24575 26.764 8.14881 31.9824 6.48983C32.8212 6.22271 33.8289 6.14163 34.945 6.21424Z" fill="#54A3E6"/>
</svg>
