<svg width="58" height="24" viewBox="0 0 58 24" fill="none" xmlns="http://www.w3.org/2000/svg">
<path d="M56.172 2.82916C54.5311 2.06353 52.7433 1.46437 50.8029 1.0926C42.6501 -0.482624 34.5145 -0.35327 26.6328 1.47226C18.7448 3.29924 11.3808 6.7598 4.75063 11.759C3.17127 12.946 1.82896 14.2701 0.691763 15.6792C0.448761 15.9739 0.219787 16.2719 9.15258e-06 16.5811C3.25494 21.9994 9.74203 24.9604 16.2347 23.4566L27.9568 20.7416L27.5987 19.1954L23.8841 20.0558C22.3756 20.4052 20.8414 19.3566 20.4614 17.7161C20.08 16.0693 20.997 14.453 22.5055 14.1036L26.2201 13.2433L25.3597 9.52865C25.0103 8.02018 26.0589 6.48592 27.6994 6.10597C29.3461 5.72456 30.9625 6.64157 31.3119 8.15004L32.1722 11.8646L35.8868 11.0043C37.3953 10.6549 38.9296 11.7035 39.311 13.3503C39.6909 14.9907 38.7739 16.6071 37.2655 16.9565L33.5508 17.8168L33.909 19.363L45.631 16.648C52.13 15.1427 56.6485 9.63266 57.1884 3.32885C56.8565 3.15406 56.5198 2.98701 56.172 2.82916Z" fill="#002D75"/>
</svg>
