<svg width="59" height="23" viewBox="0 0 59 23" fill="none" xmlns="http://www.w3.org/2000/svg">
<path d="M57.84 0.499683C57.5081 0.324895 57.1714 0.157849 56.8236 6.4948e-08C56.4764 6.02077 52.2175 11.3648 46.0453 12.7943L34.3232 15.5093L34.7978 17.5583L46.5199 14.8433C53.2954 13.274 58.0734 7.59787 58.8366 1.05693C58.5144 0.866658 58.1796 0.679299 57.84 0.499683ZM16.649 19.6029C10.4769 21.0325 4.30218 18.1051 1.34333 12.85C1.10033 13.1447 0.871357 13.4428 0.651579 13.752C0.417774 14.0578 0.205739 14.3718 -1.33845e-05 14.6843C3.56111 20.2237 10.3481 23.2213 17.1236 21.6519L28.8457 18.9369L28.3711 16.8879L16.649 19.6029Z" fill="white"/>
</svg>
