<svg width="24" height="16" viewBox="0 0 24 16" fill="none" xmlns="http://www.w3.org/2000/svg">
<path d="M1.8009 15.4236C0.87345 15.4794 0.0735356 14.7707 0.017664 13.8432C0.000519577 13.5691 -0.360149 7.03675 3.22282 3.03472C4.894 1.1576 7.11666 0.146114 9.82795 0.0148255C13.5948 -0.162283 16.9554 1.25141 19.5539 4.09322C21.4996 6.23195 22.6172 8.74129 22.984 10.2391C23.0466 10.5094 23.0865 10.7386 23.1002 10.9407C23.1662 11.9121 22.6237 12.5146 22.0905 12.7573C21.2527 13.1434 20.2529 12.7723 19.8654 11.9283C19.7389 11.6397 19.6942 11.3322 19.7259 11.0401C19.5726 10.4067 18.8597 8.47253 17.3708 6.70482C15.3974 4.36058 12.9143 3.24697 9.99168 3.38085C8.19044 3.46692 6.79776 4.0875 5.72856 5.27552C3.08723 8.22503 3.36959 13.59 3.37495 13.6418C3.425 14.5441 2.76361 15.3198 1.87924 15.4187C1.85264 15.4182 1.8275 15.424 1.8009 15.4236Z" fill="#54A3E6"/>
</svg>
