<svg width="13" height="13" viewBox="0 0 13 13" fill="none" xmlns="http://www.w3.org/2000/svg">
<path d="M9.52139 0.948151C10.2195 1.38909 10.8124 1.94715 11.2936 2.62376C11.7733 3.2941 12.111 4.03708 12.2973 4.84159C12.4851 5.65239 12.507 6.46188 12.3723 7.28116C12.2376 8.10044 11.949 8.85602 11.5158 9.559C11.0763 10.2634 10.5245 10.8548 9.8542 11.3346C9.17758 11.8158 8.44088 12.152 7.63637 12.3383C6.83185 12.5246 6.02236 12.5466 5.20937 12.4104C4.39637 12.2742 3.63451 11.9871 2.93636 11.5461C2.23193 11.1066 1.64685 10.5534 1.16563 9.87679C0.684415 9.20017 0.348223 8.46347 0.16043 7.65267C-0.0259078 6.84815 -0.0492896 6.03239 0.0869088 5.21939C0.221654 4.40011 0.502482 3.6397 0.941969 2.93527C1.37663 2.23857 1.93468 1.64575 2.60355 1.1597C3.27388 0.679945 4.01204 0.350038 4.81655 0.163701C5.62107 -0.022637 6.4291 -0.0508484 7.24838 0.0838945C8.06283 0.226378 8.81841 0.514951 9.52139 0.948151Z" fill="#F6F6F6"/>
</svg>
