<svg width="95" height="47" viewBox="0 0 95 47" fill="none" xmlns="http://www.w3.org/2000/svg">
<path d="M94.3251 6.90294C92.6638 8.47976 90.9609 10.0199 89.229 11.5203C86.0923 14.2468 82.8438 16.8336 79.4883 19.2731C76.1266 21.7139 72.6641 24.0059 69.1072 26.1476C65.313 28.437 61.4108 30.5461 57.433 32.5005C53.711 34.3295 49.9056 35.9989 46.0406 37.4968C42.152 39.0067 38.2023 40.3387 34.1929 41.4991C29.9602 42.7245 25.6683 43.7517 21.3406 44.5951C17.0002 45.4415 12.5911 46.1912 8.16556 46.3553C7.0176 46.4026 5.86572 46.4045 4.70995 46.3609C3.02314 43.8245 1.44411 41.2101 -1.47119e-05 38.5777C1.63624 38.9802 3.30861 39.1955 4.99248 39.2889C6.41132 39.3245 7.83008 39.2741 9.24349 39.1719C14.1592 38.8082 19.0638 37.9106 23.8775 36.8487C26.3679 36.2785 28.8438 35.6454 31.2973 34.9447C35.838 33.648 40.3123 32.1216 44.6978 30.384C48.9355 28.6939 53.0951 26.8099 57.1627 24.7287C59.4607 23.5276 61.733 22.2729 63.9641 20.9548C68.1402 18.4843 72.1836 15.8127 76.0881 12.9414C79.8974 10.1453 83.5692 7.15578 87.0812 3.99136C88.2994 2.87477 89.5007 1.74225 90.6835 0.587494C90.8826 0.38907 91.0831 0.196929 91.2759 -3.9189e-05C92.4949 2.26066 93.5065 4.56939 94.3251 6.90294Z" fill="#54A3E6"/>
</svg>
