<svg width="20" height="10" viewBox="0 0 20 10" fill="none" xmlns="http://www.w3.org/2000/svg">
<path d="M0.625794 1.35693C3.25986 0.806444 5.89536 1.43443 8.35077 2.42862C9.58622 2.93054 10.7889 3.51954 11.9818 4.12402C13.1734 4.72221 14.3741 5.33151 15.4767 6.08936C16.6675 6.91289 17.7641 7.93042 18.3841 9.26362C18.5154 9.54447 18.8081 9.72171 19.1136 9.61121C19.3814 9.50944 19.5847 9.15772 19.4535 8.87687C18.2182 6.20273 15.6043 4.69559 13.0944 3.40937C10.5832 2.11686 7.99212 0.822958 5.20049 0.264253C3.65812 -0.0473825 2.06132 -0.107999 0.520426 0.215782C0.217277 0.279373 -0.0277127 0.5083 0.00253546 0.83904C0.0274208 1.11804 0.321188 1.41424 0.625794 1.35693Z" fill="#1E1915"/>
</svg>
