<svg width="6" height="14" viewBox="0 0 6 14" fill="none" xmlns="http://www.w3.org/2000/svg">
<path d="M0.210325 0.472882C-0.300777 2.32635 0.216736 4.2462 0.730276 6.03453C1.23607 7.81802 1.76073 9.59715 2.61314 11.2474C3.09456 12.1822 3.6823 13.0329 4.39039 13.8026C4.60238 14.0317 5.01529 13.9559 5.19742 13.7415C5.41628 13.4855 5.34203 13.165 5.13004 12.9359C3.64467 11.3264 2.86925 9.20795 2.23992 7.14844C1.91556 6.09112 1.58055 5.01641 1.35675 3.9358C1.12667 2.85665 1.03633 1.75176 1.33527 0.669278C1.41869 0.371814 1.14716 0.0572243 0.870997 0.00860538C0.540188 -0.0472253 0.293745 0.175419 0.210325 0.472882Z" fill="#1E1915"/>
</svg>
