<svg width="59" height="24" viewBox="0 0 59 24" fill="none" xmlns="http://www.w3.org/2000/svg">
<path d="M27.8438 0.888265C29.7755 0.593187 31.698 0.373068 33.6176 0.226457C35.5296 0.0750135 37.3995 -0.000471879 39.2274 -4.00281e-06C41.0553 0.000463874 42.8006 0.0730503 44.4632 0.217756C46.1273 0.368746 47.6807 0.585108 49.1264 0.879412C50.5643 1.16889 51.8649 1.52327 53.0282 1.94256C54.1867 2.36959 55.191 2.84559 56.0236 3.38121C56.864 3.92165 57.5222 4.50431 58.0058 5.13402C58.4831 5.76519 58.7767 6.43228 58.8865 7.13531C58.9901 7.8398 58.9055 8.56135 58.6344 9.30627C58.3632 10.0512 57.9088 10.8055 57.2633 11.5642C56.6242 12.3215 55.8114 13.0727 54.8265 13.824C53.8401 14.569 52.7023 15.2895 51.4147 15.9917C50.1207 16.6953 48.7053 17.3609 47.1574 17.9976C45.6081 18.6279 43.9625 19.2144 42.2191 19.7506C40.4758 20.2868 38.6676 20.7719 36.7917 21.1931C34.9158 21.6144 33.019 21.9742 31.0859 22.263C29.1543 22.5581 27.2318 22.7782 25.3121 22.9248C23.4002 23.0763 21.5302 23.1517 19.7023 23.1513C17.8744 23.1508 16.1292 23.0782 14.4665 22.9335C12.8024 22.7825 11.249 22.5662 9.80482 22.2781C8.36547 21.9824 7.06486 21.628 5.90153 21.2087C4.73819 20.7894 3.73874 20.3057 2.90608 19.7701C2.06714 19.2359 1.40755 18.647 0.92396 18.0172C0.44665 17.3861 0.15307 16.719 0.0432182 16.016C-0.0588927 15.3178 0.0178983 14.5914 0.295353 13.845C0.566524 13.1001 1.02242 12.3521 1.66641 11.5871C2.30557 10.8297 3.11833 10.0786 4.10471 9.33358C5.08963 8.58228 6.22738 7.86181 7.51506 7.1596C8.80902 6.45593 10.2244 5.79036 11.7723 5.1537C13.3216 4.52333 14.9672 3.93689 16.7106 3.40066C18.4539 2.86442 20.2621 2.3794 22.138 1.95815C24.0077 1.53836 25.9107 1.17706 27.8438 0.888265Z" fill="#54A3E6"/>
</svg>
