<svg width="108" height="103" viewBox="0 0 108 103" fill="none" xmlns="http://www.w3.org/2000/svg">
<path d="M101.207 78.2785C98.8425 82.6538 95.8865 86.4179 92.5299 89.2814C88.3267 92.8642 83.3179 95.9713 77.8655 98.307C67.3234 102.828 55.1101 104.452 43.7753 101.004C40.9887 100.153 38.2513 98.9989 35.6059 97.499C27.7704 93.0622 20.5889 85.3018 14.7669 76.5775C13.0738 74.0425 11.4962 71.4344 10.0507 68.7957C7.39921 63.9529 5.19501 59.0396 3.5307 54.3987C1.68462 49.2303 0.514857 44.4085 0.18332 40.4324C-0.264374 35.1255 0.153543 30.4393 0.942519 26.5547C1.20791 25.2415 1.52029 24.0169 1.84821 22.888C3.52892 17.2206 5.79676 14.0596 6.21279 14.2546C6.54029 14.4105 16.0186 11.7583 26.6683 8.70224C40.6288 4.70059 56.6062 1.12805e-05 56.6062 1.12805e-05C56.6062 1.12805e-05 61.1687 0.598883 67.5865 2.86073C68.5525 3.1999 69.5601 3.5758 70.6045 3.99616C73.3786 5.10857 76.3871 6.5177 79.452 8.28464C84.4491 11.1603 89.6018 14.9933 94.1616 20.0696C95.7782 21.874 97.3248 23.8336 98.7574 25.9588C99.7034 27.3555 100.557 28.7804 101.333 30.2165C102.546 32.4786 103.557 34.7874 104.376 37.1209C105.645 40.7143 106.466 44.3719 106.886 48.0162C108.148 58.9822 105.796 69.7852 101.207 78.2785Z" fill="#F6F6F6"/>
</svg>
