<svg width="25" height="18" viewBox="0 0 25 18" fill="none" xmlns="http://www.w3.org/2000/svg">
<path d="M23.2725 13.2786C22.336 13.4956 21.3863 12.9407 21.1224 12.0018C21.1108 11.9515 19.4902 6.413 15.7699 4.3608C14.2678 3.53654 12.6332 3.39858 10.7815 3.95328C7.76426 4.85079 5.64637 6.85787 4.47714 9.92998C3.59793 12.2528 3.55956 14.4604 3.63508 15.1581C3.76781 15.4452 3.82948 15.7687 3.80025 16.1C3.71255 17.0938 2.82965 17.8281 1.84067 17.7326C1.21875 17.678 0.45146 17.2531 0.17937 16.2499C0.117304 16.0391 0.0730981 15.791 0.0453014 15.4995C-0.118504 13.8487 0.12818 10.9108 1.34208 8.0601C2.96383 4.25405 5.87333 1.63316 9.7526 0.483012C12.5402 -0.34807 15.1527 -0.105478 17.515 1.20166C22.5667 3.99847 24.5122 10.7399 24.5981 11.0246C24.8677 11.9886 24.3105 12.9852 23.3527 13.2534C23.3227 13.267 23.2976 13.2728 23.2725 13.2786Z" fill="#54A3E6"/>
</svg>
