<svg width="73" height="55" viewBox="0 0 73 55" fill="none" xmlns="http://www.w3.org/2000/svg">
<path d="M53.6627 54.2049C52.7576 54.4145 51.6549 54.2858 50.4143 53.9043C44.0223 51.9544 33.8197 43.3308 27.6859 39.4932C27.3066 39.2566 26.8992 39.0132 26.4793 38.7727C24.3549 37.5495 21.8297 36.3397 19.2165 35.2363C12.7519 32.5151 5.73017 30.4196 2.71836 30.2828C2.63229 30.2829 2.54621 30.2829 2.46642 30.2815C-1.73344 30.2477 0.0238226 1.26473 3.32459 0.533339C3.69542 0.447449 5.45729 0.1056 8.39783 0.0205493C12.1072 -0.0902638 17.6923 0.205555 24.7108 1.94417C24.9633 2.0049 25.2235 2.07046 25.4774 2.13747C27.8019 2.73814 29.7711 3.43436 31.4439 4.16611C39.1645 7.56331 40.5611 11.8491 40.5611 11.8491C40.5611 11.8491 48.9998 -0.410004 61.5141 1.3537C65.3 1.88743 67.8556 3.05708 69.5814 4.70372C73.5454 8.49417 73.0461 14.8018 72.8117 21.6243C72.4805 31.4029 59.1628 52.9045 53.6627 54.2049Z" fill="#F6F6F6"/>
</svg>
