<svg width="27" height="27" viewBox="0 0 27 27" fill="none" xmlns="http://www.w3.org/2000/svg">
<path d="M26.0194 20.9287C24.5982 22.7413 23.0701 24.5786 21.4265 26.403C19.8473 25.4178 18.3067 24.3706 16.8015 23.2756C13.3042 20.728 10.0348 17.8495 7.05494 14.7053C4.50532 12.0177 2.13062 9.17039 -9.48229e-06 6.14734C1.5743 4.08074 3.04851 2.01083 4.41057 4.47089e-06C6.30659 2.92507 8.43218 5.69763 10.739 8.30901C11.5715 9.21552 12.4199 10.1051 13.2968 10.9748C16.671 14.3059 20.3688 17.2904 24.3285 19.8898C24.3348 19.8884 24.3425 19.8932 24.3425 19.8932C24.9013 20.2472 25.4587 20.595 26.0194 20.9287Z" fill="#54A3E6"/>
</svg>
