<svg width="13" height="37" viewBox="0 0 13 37" fill="none" xmlns="http://www.w3.org/2000/svg">
<path d="M7.28782 36.8285C5.16347 35.6053 2.63824 34.3955 0.0250942 33.2921C0.0197329 33.2404 0.0206586 33.1872 0.0215823 33.134C-0.133678 25.8588 0.545686 18.5558 2.14642 11.4566C3.02147 7.57184 4.14755 3.74152 5.51934 -2.01526e-05C5.77182 0.0607084 6.03203 0.126264 6.28596 0.193278C8.6105 0.793945 10.5782 1.48388 12.2525 2.22192C11.7275 3.61503 11.2397 5.02601 10.7863 6.44227C10.345 7.88223 9.94573 9.3323 9.58228 10.7939C8.18058 16.4364 7.3525 22.211 7.10909 28.0223C7.02053 30.9567 7.07898 33.8967 7.28782 36.8285Z" fill="#54A3E6"/>
</svg>
