<svg width="20" height="20" viewBox="0 0 20 20" fill="none" xmlns="http://www.w3.org/2000/svg">
<path d="M19.2863 14.9999V17.8571C19.2863 18.236 19.1358 18.5993 18.8679 18.8672C18.5999 19.1352 18.2366 19.2857 17.8577 19.2857H15.0006M15.0006 0.714233H17.8577C18.2366 0.714233 18.5999 0.864743 18.8679 1.13265C19.1358 1.40056 19.2863 1.76392 19.2863 2.1428V4.99995M0.714844 4.99995V2.1428C0.714844 1.76392 0.865354 1.40056 1.13326 1.13265C1.40117 0.864743 1.76453 0.714233 2.14342 0.714233H5.00056M5.00056 19.2857H2.14342C1.76453 19.2857 1.40117 19.1352 1.13326 18.8672C0.865354 18.5993 0.714844 18.236 0.714844 17.8571V14.9999" stroke="#4147D5" stroke-linecap="round" stroke-linejoin="round"/>
<path d="M9.99926 9.2857C10.757 9.2857 11.4837 8.98468 12.0196 8.44886C12.5554 7.91304 12.8564 7.18632 12.8564 6.42855C12.8564 5.67079 12.5554 4.94407 12.0196 4.40825C11.4837 3.87243 10.757 3.57141 9.99926 3.57141C9.2415 3.57141 8.51478 3.87243 7.97896 4.40825C7.44314 4.94407 7.14212 5.67079 7.14212 6.42855C7.14212 7.18632 7.44314 7.91304 7.97896 8.44886C8.51478 8.98468 9.2415 9.2857 9.99926 9.2857ZM15.4321 15.7143C15.0629 14.5636 14.3378 13.5598 13.3614 12.8477C12.385 12.1356 11.2078 11.7519 9.99926 11.7519C8.79078 11.7519 7.6135 12.1356 6.63711 12.8477C5.66072 13.5598 4.93565 14.5636 4.56641 15.7143H15.4321Z" fill="#D7E0FF"/>
<path d="M9.99926 9.2857C10.757 9.2857 11.4837 8.98468 12.0196 8.44886C12.5554 7.91304 12.8564 7.18632 12.8564 6.42855C12.8564 5.67079 12.5554 4.94407 12.0196 4.40825C11.4837 3.87243 10.757 3.57141 9.99926 3.57141C9.2415 3.57141 8.51478 3.87243 7.97896 4.40825C7.44314 4.94407 7.14212 5.67079 7.14212 6.42855C7.14212 7.18632 7.44314 7.91304 7.97896 8.44886C8.51478 8.98468 9.2415 9.2857 9.99926 9.2857ZM15.4321 15.7143C15.0629 14.5636 14.3378 13.5598 13.3614 12.8477C12.385 12.1356 11.2078 11.7519 9.99926 11.7519C8.79078 11.7519 7.6135 12.1356 6.63711 12.8477C5.66072 13.5598 4.93565 14.5636 4.56641 15.7143H15.4321Z" stroke="#4147D5" stroke-linecap="round" stroke-linejoin="round"/>
</svg>
