<svg width="44" height="44" viewBox="0 0 44 44" fill="none" xmlns="http://www.w3.org/2000/svg">
<g clip-path="url(#clip0_72_11653)">
<path fill-rule="evenodd" clip-rule="evenodd" d="M9.02345 13.1428L12.9704 16.2592C13.2494 16.4795 13.6516 16.4448 13.8887 16.18L19.8225 9.5535C20.8142 8.44612 22.5158 8.35229 23.6231 9.34392C23.6744 9.3898 23.7238 9.43763 23.7714 9.48731L30.1947 16.1938C30.4408 16.4508 30.8443 16.4717 31.1157 16.2417L34.7723 13.1428C35.5025 12.524 36.5962 12.6142 37.215 13.3445C37.5776 13.7724 37.7108 14.3493 37.5723 14.8928L33.172 32.1654C32.9322 33.1064 32.0848 33.765 31.1137 33.765H12.3783C11.4072 33.765 10.5598 33.1064 10.3201 32.1654L5.97777 15.1207C5.71639 14.0947 6.33622 13.0511 7.36221 12.7897C7.94073 12.6423 8.5549 12.7729 9.02345 13.1428Z" fill="#FFC800"/>
<path fill-rule="evenodd" clip-rule="evenodd" d="M11.5022 17.5L12.7538 18.6443C13.1867 19.0401 13.8584 19.01 14.2542 18.5771C14.2708 18.5589 14.2868 18.5402 14.3021 18.5209L17.4169 14.5979C17.8791 14.0158 18.7256 13.9186 19.3077 14.3807C19.6018 14.6143 19.785 14.9601 19.8129 15.3346L20.9171 30.1444C20.9723 30.8856 20.4163 31.5312 19.6751 31.5865C19.6418 31.589 19.6084 31.5902 19.575 31.5902H14.3556C13.7347 31.5902 13.1944 31.1655 13.0479 30.5621L10.0793 18.3417C9.96665 17.878 10.2513 17.4107 10.7151 17.298C10.9947 17.2301 11.2898 17.3058 11.5022 17.5Z" fill="#FFDE00"/>
</g>
<defs>
<clipPath id="clip0_72_11653">
<rect width="32.4367" height="29.6161" fill="white" transform="translate(5.40625 6.81641)"/>
</clipPath>
</defs>
</svg>
