<svg width="44" height="44" viewBox="0 0 44 44" fill="none" xmlns="http://www.w3.org/2000/svg">
<path d="M22.1267 35.3046C27.9763 35.3046 32.7183 30.6045 32.7183 24.8066C32.7183 19.0087 27.9763 14.3086 22.1267 14.3086C16.2772 14.3086 11.5352 19.0087 11.5352 24.8066C11.5352 30.6045 16.2772 35.3046 22.1267 35.3046Z" fill="#FF9600"/>
<path fill-rule="evenodd" clip-rule="evenodd" d="M23.64 9.62656L30.3516 18.2375C30.564 18.51 30.6957 18.8368 30.7315 19.1805C30.7673 19.5242 30.7059 19.871 30.5542 20.1815C30.4025 20.492 30.1666 20.7536 29.8735 20.9366C29.5803 21.1196 29.2417 21.2165 28.8961 21.2164H15.2674C14.9219 21.2165 14.5833 21.1197 14.2902 20.9368C13.9971 20.754 13.7612 20.4925 13.6094 20.1821C13.4576 19.8717 13.3961 19.525 13.4317 19.1814C13.4674 18.8377 13.5988 18.511 13.8111 18.2384L20.5226 9.62656C20.7075 9.38961 20.944 9.19792 21.2141 9.06609C21.4841 8.93425 21.7807 8.86572 22.0813 8.86572C22.3819 8.86572 22.6785 8.93425 22.9486 9.06609C23.2187 9.19792 23.4551 9.38961 23.64 9.62656Z" fill="#FF9600"/>
<path fill-rule="evenodd" clip-rule="evenodd" d="M14.582 13.1923L28.1454 21.926C28.4695 22.1347 28.72 22.4398 28.8618 22.7983C29.0036 23.1567 29.0295 23.5506 28.9359 23.9246C28.8423 24.2986 28.6339 24.6338 28.34 24.8832C28.0461 25.1327 27.6814 25.2838 27.2972 25.3153L13.5308 26.445C13.2768 26.4659 13.0213 26.4339 12.7803 26.3511C12.5393 26.2682 12.3181 26.1364 12.1306 25.9638C11.9431 25.7913 11.7934 25.5817 11.6909 25.3484C11.5884 25.1151 11.5354 24.8631 11.5352 24.6083V14.8543C11.5353 14.4993 11.631 14.1508 11.8123 13.8455C11.9936 13.5402 12.2538 13.2894 12.5655 13.1194C12.8772 12.9493 13.2289 12.8664 13.5837 12.8792C13.9386 12.8921 14.2834 13.0002 14.582 13.1923Z" fill="#FF9600"/>
<path d="M22.1684 31.0269C24.6647 31.0269 26.6883 29.0329 26.6883 26.5731C26.6883 24.1134 24.6647 22.1194 22.1684 22.1194C19.6721 22.1194 17.6484 24.1134 17.6484 26.5731C17.6484 29.0329 19.6721 31.0269 22.1684 31.0269Z" fill="#FFC800"/>
<path fill-rule="evenodd" clip-rule="evenodd" d="M22.7753 20.1299L25.627 23.7681C25.7186 23.8846 25.7756 24.0246 25.7914 24.172C25.8072 24.3194 25.7812 24.4683 25.7164 24.6016C25.6515 24.7349 25.5505 24.8473 25.4248 24.9259C25.2992 25.0045 25.1539 25.0462 25.0057 25.0461H19.2121C19.0638 25.0462 18.9186 25.0045 18.7929 24.9259C18.6672 24.8473 18.5662 24.7349 18.5014 24.6016C18.4366 24.4683 18.4106 24.3194 18.4264 24.172C18.4422 24.0246 18.4991 23.8846 18.5907 23.7681L21.4425 20.1299C21.5218 20.0289 21.623 19.9473 21.7384 19.8912C21.8538 19.8351 21.9805 19.8059 22.1089 19.8059C22.2372 19.8059 22.3639 19.8351 22.4794 19.8912C22.5948 19.9473 22.696 20.0289 22.7753 20.1299Z" fill="#FFC800"/>
</svg>
