<svg width="13" height="20" viewBox="0 0 13 20" fill="none" xmlns="http://www.w3.org/2000/svg">
<path d="M11.9286 19.0714L6.21429 13.3571L0.5 19.0714V1.92857C0.5 1.54969 0.65051 1.18633 0.918419 0.918419C1.18633 0.65051 1.54969 0.5 1.92857 0.5H10.5C10.8789 0.5 11.2422 0.65051 11.5102 0.918419C11.7781 1.18633 11.9286 1.54969 11.9286 1.92857V19.0714Z" fill="#D7E0FF"/>
<path d="M11.9286 19.0714L6.21429 13.3571L0.5 19.0714V1.92857C0.5 1.54969 0.65051 1.18633 0.918419 0.918419C1.18633 0.65051 1.54969 0.5 1.92857 0.5H10.5C10.8789 0.5 11.2422 0.65051 11.5102 0.918419C11.7781 1.18633 11.9286 1.54969 11.9286 1.92857V19.0714Z" stroke="#4147D5" stroke-linecap="round" stroke-linejoin="round"/>
</svg>
