<svg width="44" height="44" viewBox="0 0 44 44" fill="none" xmlns="http://www.w3.org/2000/svg">
<path fill-rule="evenodd" clip-rule="evenodd" d="M10.534 20.7361C10.534 14.4854 15.6012 9.41821 21.8518 9.41821C28.1025 9.41821 33.1697 14.4854 33.1697 20.7361V21.0791C35.2127 22.0768 36.6201 24.1748 36.6201 26.6015C36.6201 29.9936 33.8702 32.7435 30.4781 32.7435H13.0873C9.69518 32.7435 6.94531 29.9936 6.94531 26.6015C6.94531 24.1204 8.41644 21.9829 10.534 21.0138V20.7361Z" fill="#9069CD"/>
<path fill-rule="evenodd" clip-rule="evenodd" d="M13.0722 26.3291C11.4478 26.009 10.2227 24.5769 10.2227 22.8586C10.2227 21.1108 11.4904 19.659 13.1566 19.3727C13.8043 15.3332 17.3056 12.2471 21.5278 12.2471C25.7499 12.2471 29.2512 15.3333 29.8989 19.3728C31.5647 19.6595 32.832 21.1111 32.832 22.8586C32.832 24.5766 31.6072 26.0086 29.9832 26.3289C29.661 30.7173 25.9985 34.1777 21.5278 34.1777C17.0571 34.1777 13.3945 30.7175 13.0722 26.3291Z" fill="#F3AD6D"/>
<path fill-rule="evenodd" clip-rule="evenodd" d="M18.6641 20.1155C18.6641 19.5438 19.1276 19.0803 19.6993 19.0803C20.2709 19.0803 20.7344 19.5438 20.7344 20.1155V22.876C20.7344 23.4476 20.2709 23.9111 19.6993 23.9111C19.1276 23.9111 18.6641 23.4476 18.6641 22.876V20.1155Z" fill="#BF8034"/>
<path fill-rule="evenodd" clip-rule="evenodd" d="M22.2695 20.1155C22.2695 19.5438 22.733 19.0803 23.3047 19.0803C23.8764 19.0803 24.3398 19.5438 24.3398 20.1155V22.876C24.3398 23.4476 23.8764 23.9111 23.3047 23.9111C22.733 23.9111 22.2695 23.4476 22.2695 22.876V20.1155Z" fill="#BF8034"/>
<path d="M18.7064 25.4705H24.5183C24.8782 25.4705 25.17 25.7622 25.17 26.1222V26.4601C25.17 28.4249 23.5772 30.0177 21.6124 30.0177C19.6475 30.0177 18.0547 28.4249 18.0547 26.4601V26.1222C18.0547 25.7622 18.3465 25.4705 18.7064 25.4705Z" fill="white"/>
<path fill-rule="evenodd" clip-rule="evenodd" d="M24.207 12.0313L24.6932 12.6062V14.5515L22.1759 17.1604L18.643 19.0172L14.7129 19.6805H12.4609V18.4868L13.7416 15.8558L15.5079 13.579L19.3497 11.6777H22.6616L24.207 12.0313Z" fill="#9069CD"/>
<path d="M10.9062 20.0465H13.8578C17.5167 20.0216 23.3402 19.5014 25.2375 12.8054C25.3345 12.4123 25.4279 11.9578 25.5175 11.4419" stroke="#9069CD" stroke-width="1.86787"/>
</svg>
