<svg width="20" height="20" viewBox="0 0 20 20" fill="none" xmlns="http://www.w3.org/2000/svg">
<path d="M8.59672 0.714337C7.55495 0.700297 6.52077 0.893359 5.55424 1.28231C4.58771 1.67127 3.70807 2.24836 2.96642 2.98009C2.22476 3.71181 1.63587 4.58359 1.23392 5.54479C0.831981 6.506 0.625 7.53748 0.625 8.57934C0.625 9.6212 0.831981 10.6527 1.23392 11.6139C1.63587 12.5751 2.22476 13.4469 2.96642 14.1786C3.70807 14.9103 4.58771 15.4874 5.55424 15.8764C6.52077 16.2653 7.55495 16.4584 8.59672 16.4443C10.6643 16.4165 12.6377 15.5756 14.09 14.1036C15.5422 12.6317 16.3564 10.6471 16.3564 8.57934C16.3564 6.51158 15.5422 4.52699 14.09 3.05504C12.6377 1.5831 10.6643 0.742203 8.59672 0.714337Z" fill="#D7E0FF"/>
<path d="M13.5064 11.5172L19.2564 14.0086L13.5064 16.5001L7.75781 14.0086L13.5064 11.5172Z" fill="white"/>
<path d="M10.3743 17.8558C10.3743 17.8558 11.3229 19.1129 13.5086 19.1129C15.6943 19.1129 16.6486 17.8558 16.6486 17.8558V15.1429H10.3672L10.3743 17.8558Z" fill="white"/>
<path d="M16.2401 10.4544C16.5968 8.99897 16.5304 7.47194 16.0487 6.05301C15.5669 4.63408 14.6899 3.38228 13.5207 2.44494C12.3516 1.50759 10.9391 0.923709 9.44934 0.762003C7.95961 0.600296 6.45468 0.867494 5.11167 1.53215C3.76865 2.19681 2.64344 3.23127 1.86845 4.51379C1.09346 5.7963 0.70095 7.27351 0.737104 8.77156C0.773258 10.2696 1.23658 11.7262 2.07253 12.9698C2.90848 14.2134 4.08229 15.1924 5.4558 15.7915M0.734375 8.58008H16.4644" stroke="#4147D5" stroke-linecap="round" stroke-linejoin="round"/>
<path d="M6.26174 12.2101C5.86684 11.0373 5.63421 9.81593 5.57031 8.58007C5.71863 5.70351 6.77831 2.94874 8.59603 0.714355C10.4132 2.94892 11.4724 5.70368 11.6203 8.58007C11.5932 9.08448 11.5393 9.58709 11.4589 10.0858M13.5132 11.6829L19.2703 14.1772L13.5132 16.6715L7.75603 14.1772L13.5132 11.6829Z" stroke="#4147D5" stroke-linecap="round" stroke-linejoin="round"/>
<path d="M10.3692 15.3144L10.375 18.0287C10.375 18.0287 11.325 19.2858 13.5135 19.2858C15.7021 19.2858 16.6564 18.0287 16.6564 18.0287V15.3144M7.75781 18.5644V14.1772" stroke="#4147D5" stroke-linecap="round" stroke-linejoin="round"/>
</svg>
