<svg width="20" height="20" viewBox="0 0 20 20" fill="none" xmlns="http://www.w3.org/2000/svg">
<path d="M1.2743 17.9986C1.36287 18.4357 2.0243 18.7872 2.84573 18.8357C3.47111 18.8768 4.09758 18.8992 4.7243 18.9029C5.35102 18.8992 5.97749 18.8768 6.60287 18.8357C7.42572 18.7872 8.08858 18.4357 8.1743 17.9986C8.24001 17.6757 8.29573 17.3429 8.29573 17.0057C8.28807 16.6717 8.24788 16.3391 8.17572 16.0129C8.08715 15.5757 7.42572 15.2243 6.60287 15.1757C5.97749 15.1346 5.35102 15.1122 4.7243 15.1086C4.09805 15.1123 3.47206 15.1347 2.84715 15.1757C2.0243 15.2243 1.36144 15.5757 1.2743 16.0129C1.20122 16.339 1.16102 16.6716 1.1543 17.0057C1.1543 17.3443 1.20858 17.6757 1.2743 17.9986ZM18.7586 2.05431C18.6714 1.61717 18.0072 1.26574 17.1829 1.21717C16.5565 1.176 15.9291 1.15361 15.3014 1.15002C14.66 1.15002 14.0314 1.18145 13.4186 1.21717C12.5943 1.26574 11.9314 1.61717 11.8429 2.05431C11.7698 2.38042 11.7296 2.71304 11.7229 3.04717C11.7229 3.38431 11.7786 3.71717 11.8429 4.04002C11.9314 4.47717 12.5943 4.8286 13.4186 4.87717C14.0329 4.91288 14.6614 4.94431 15.3014 4.94431C15.9414 4.94431 16.5714 4.91288 17.1829 4.87717C18.0086 4.8286 18.6714 4.47717 18.76 4.0386C18.8321 3.7128 18.8723 3.38075 18.88 3.04717C18.8724 2.7131 18.8307 2.38058 18.7586 2.05431Z" fill="white"/>
<path d="M1.2743 9.14574C1.36287 10.3557 2.0243 11.33 2.84573 11.4643C3.45715 11.5643 4.08573 11.65 4.7243 11.65C5.3643 11.65 5.99144 11.5643 6.60287 11.4643C7.42572 11.33 8.08858 10.3557 8.1743 9.14574C8.24863 8.23231 8.28914 7.31645 8.29573 6.40002C8.29573 5.46574 8.24001 4.54717 8.17572 3.65431C8.08715 2.44431 7.42572 1.47145 6.60144 1.33574C5.98144 1.22214 5.35311 1.16002 4.72287 1.15002C4.0843 1.15002 3.45573 1.23574 2.84573 1.33574C2.02287 1.47145 1.36001 2.44431 1.27287 3.65431C1.19949 4.56777 1.15994 5.48364 1.1543 6.40002C1.1543 7.33574 1.20858 8.25288 1.2743 9.14574ZM18.7586 10.9115C18.6714 9.70288 18.0072 8.73003 17.1829 8.59574C16.5619 8.48198 15.9326 8.41986 15.3014 8.41003C14.66 8.41003 14.0314 8.49574 13.4186 8.59574C12.5943 8.73003 11.9314 9.70288 11.8429 10.9115C11.769 11.8244 11.729 12.7398 11.7229 13.6557C11.7229 14.59 11.7786 15.5072 11.8429 16.4C11.9314 17.61 12.5943 18.5829 13.4186 18.7172C14.0329 18.8172 14.6614 18.9029 15.3014 18.9029C15.9414 18.9029 16.5714 18.8172 17.1829 18.7172C18.0086 18.5829 18.6714 17.61 18.76 16.4C18.8243 15.5072 18.88 14.59 18.88 13.6572C18.88 12.7215 18.8229 11.8043 18.7586 10.9115Z" fill="#D7E0FF"/>
<path d="M1.27377 9.14574C1.36234 10.3557 2.02377 11.33 2.8452 11.4643C3.45806 11.5643 4.0852 11.65 4.72377 11.65C5.36377 11.65 5.99092 11.5643 6.60234 11.4643C7.4252 11.33 8.08806 10.3557 8.17377 9.14574C8.24811 8.23231 8.28861 7.31645 8.2952 6.40002C8.2952 5.46574 8.23949 4.54717 8.1752 3.65431C8.08663 2.44431 7.4252 1.47145 6.60092 1.33574C5.98092 1.22214 5.35258 1.16002 4.72234 1.15002C4.08377 1.15002 3.45663 1.23574 2.8452 1.33574C2.02234 1.47145 1.35949 2.44431 1.27377 3.65431C1.19944 4.56774 1.15893 5.4836 1.15234 6.40002C1.15234 7.33574 1.20949 8.25288 1.27377 9.14574ZM18.7581 10.9115C18.6709 9.70288 18.0081 8.73003 17.1823 8.59574C16.5614 8.48198 15.9321 8.41986 15.3009 8.41002C14.6595 8.41002 14.0309 8.49574 13.4181 8.59574C12.5938 8.73003 11.9309 9.70288 11.8423 10.9115C11.7685 11.8244 11.7285 12.7398 11.7223 13.6557C11.7223 14.59 11.7781 15.5072 11.8423 16.4C11.9309 17.61 12.5938 18.5829 13.4181 18.7172C14.0323 18.8172 14.6609 18.9029 15.3009 18.9029C15.9409 18.9029 16.5709 18.8172 17.1823 18.7172C18.0081 18.5829 18.6709 17.61 18.7595 16.4C18.8238 15.5072 18.8795 14.59 18.8795 13.6572C18.8795 12.7215 18.8223 11.8043 18.7581 10.9115ZM1.27377 17.9986C1.36234 18.4357 2.02377 18.7872 2.8452 18.8357C3.47058 18.8768 4.09705 18.8992 4.72377 18.9029C5.35049 18.8992 5.97696 18.8768 6.60234 18.8357C7.4252 18.7872 8.08806 18.4357 8.17377 17.9986C8.23949 17.6757 8.2952 17.3429 8.2952 17.0057C8.28755 16.6717 8.24736 16.3391 8.1752 16.0129C8.08663 15.5757 7.4252 15.2243 6.60234 15.1757C5.97696 15.1346 5.35049 15.1122 4.72377 15.1086C4.09753 15.1123 3.47154 15.1347 2.84663 15.1757C2.02377 15.2243 1.36092 15.5757 1.27377 16.0129C1.20069 16.339 1.16049 16.6716 1.15377 17.0057C1.15377 17.3443 1.20806 17.6757 1.27377 17.9986ZM18.7581 2.05431C18.6709 1.61717 18.0066 1.26574 17.1823 1.21717C16.556 1.176 15.9286 1.15361 15.3009 1.15002C14.6595 1.15002 14.0309 1.18145 13.4181 1.21717C12.5938 1.26574 11.9309 1.61717 11.8423 2.05431C11.7693 2.38042 11.7291 2.71304 11.7223 3.04717C11.7223 3.38431 11.7781 3.71717 11.8423 4.04002C11.9309 4.47717 12.5938 4.8286 13.4181 4.87717C14.0323 4.91288 14.6609 4.94431 15.3009 4.94431C15.9409 4.94431 16.5709 4.91288 17.1823 4.87717C18.0081 4.8286 18.6709 4.47717 18.7595 4.0386C18.8316 3.71279 18.8717 3.38075 18.8795 3.04717C18.8718 2.7131 18.8302 2.38058 18.7581 2.05431Z" stroke="#4147D5" stroke-linecap="round" stroke-linejoin="round"/>
</svg>
