<svg width="20" height="20" viewBox="0 0 20 20" fill="none" xmlns="http://www.w3.org/2000/svg">
<path d="M1.9863 15.0714C5.07029 15.4897 7.90807 16.9819 10.0006 19.2857C12.0931 16.9819 14.9309 15.4897 18.0149 15.0714C18.3659 15.0326 18.6901 14.8651 18.9249 14.6013C19.1597 14.3374 19.2884 13.996 19.2863 13.6428V2.14283C19.2863 1.93835 19.2423 1.73626 19.1575 1.55021C19.0726 1.36417 18.9488 1.19851 18.7944 1.06443C18.64 0.930353 18.4587 0.830984 18.2626 0.773037C18.0665 0.715091 17.8602 0.699919 17.6577 0.728547C14.7087 1.21799 12.011 2.68766 10.0006 4.89998C7.99018 2.68766 5.29243 1.21799 2.34344 0.728547C2.14097 0.699919 1.93472 0.715091 1.73862 0.773037C1.54251 0.830984 1.36114 0.930353 1.20675 1.06443C1.05235 1.19851 0.928546 1.36417 0.843688 1.55021C0.75883 1.73626 0.714901 1.93835 0.71487 2.14283V13.6428C0.712728 13.996 0.84148 14.3374 1.07628 14.6013C1.31107 14.8651 1.63527 15.0326 1.9863 15.0714Z" fill="#D7E0FF"/>
<path d="M10.0006 19.2857C7.90807 16.9819 5.07029 15.4897 1.9863 15.0714C1.63527 15.0326 1.31107 14.8651 1.07628 14.6013C0.84148 14.3374 0.712728 13.996 0.71487 13.6428V2.14283C0.714901 1.93835 0.75883 1.73626 0.843688 1.55021C0.928546 1.36417 1.05235 1.19851 1.20675 1.06443C1.36114 0.930353 1.54251 0.830984 1.73862 0.773037C1.93472 0.715091 2.14097 0.699919 2.34344 0.728547C5.29243 1.21799 7.99018 2.68766 10.0006 4.89998M10.0006 19.2857V4.89998M10.0006 19.2857C12.0931 16.9819 14.9309 15.4897 18.0149 15.0714C18.3659 15.0326 18.6901 14.8651 18.9249 14.6013C19.1597 14.3374 19.2884 13.996 19.2863 13.6428V2.14283C19.2863 1.93835 19.2423 1.73626 19.1575 1.55021C19.0726 1.36417 18.9488 1.19851 18.7944 1.06443C18.64 0.930353 18.4587 0.830984 18.2626 0.773037C18.0665 0.715091 17.8602 0.699919 17.6577 0.728547C14.7087 1.21799 12.011 2.68766 10.0006 4.89998" stroke="#4147D5" stroke-linecap="round" stroke-linejoin="round"/>
</svg>
