<svg width="20" height="20" viewBox="0 0 20 20" fill="none" xmlns="http://www.w3.org/2000/svg">
<path d="M4.28739 19.2857H16.4302V15H4.28739C3.71907 15 3.17402 15.2258 2.77216 15.6276C2.3703 16.0295 2.14453 16.5745 2.14453 17.1429C2.14453 17.7112 2.3703 18.2562 2.77216 18.6581C3.17402 19.0599 3.71907 19.2857 4.28739 19.2857Z" fill="white"/>
<path d="M2.7731 15.6285C2.37112 16.03 2.14503 16.5747 2.14453 17.1428V2.79995C2.15943 2.24159 2.39175 1.71111 2.79201 1.32153C3.19227 0.931939 3.72883 0.714035 4.28739 0.714234H16.4302C16.8091 0.714234 17.1725 0.864743 17.4404 1.13265C17.7083 1.40056 17.8588 1.76392 17.8588 2.1428V13.5714C17.8588 13.9503 17.7083 14.3136 17.4404 14.5815C17.1725 14.8494 16.8091 14.9999 16.4302 14.9999H4.28739C3.71926 15.0004 3.17458 15.2265 2.7731 15.6285Z" fill="#D7E0FF"/>
<path d="M17.8588 19.2857H4.28739C3.71907 19.2857 3.17402 19.0599 2.77216 18.658C2.3703 18.2562 2.14453 17.7111 2.14453 17.1428C2.14453 16.5745 2.3703 16.0294 2.77216 15.6276C3.17402 15.2257 3.71907 14.9999 4.28739 14.9999H16.4302C16.8091 14.9999 17.1725 14.8494 17.4404 14.5815C17.7083 14.3136 17.8588 13.9503 17.8588 13.5714V2.14281C17.8588 1.76392 17.7083 1.40056 17.4404 1.13265C17.1725 0.864743 16.8091 0.714234 16.4302 0.714234H4.28739C3.72883 0.714035 3.19227 0.931939 2.79201 1.32153C2.39175 1.71111 2.15943 2.24159 2.14453 2.79995V17.0857" stroke="#4147D5" stroke-linecap="round" stroke-linejoin="round"/>
<path d="M7.85938 5.79142C7.85938 5.3676 7.98505 4.9533 8.22051 4.60091C8.45597 4.24852 8.79064 3.97386 9.1822 3.81168C9.57375 3.64949 10.0046 3.60705 10.4203 3.68973C10.836 3.77242 11.2178 3.9765 11.5175 4.27619C11.8171 4.57587 12.0212 4.95769 12.1039 5.37337C12.1866 5.78904 12.1442 6.2199 11.982 6.61145C11.8198 7.00301 11.5451 7.33768 11.1927 7.57314C10.8403 7.8086 10.426 7.93427 10.0022 7.93427V8.64856M16.4308 15V19.2857M10.0022 11.5943C9.90751 11.5943 9.81667 11.5566 9.74969 11.4897C9.68272 11.4227 9.64509 11.3319 9.64509 11.2371C9.64509 11.1424 9.68272 11.0516 9.74969 10.9846C9.81667 10.9176 9.90751 10.88 10.0022 10.88C10.097 10.88 10.1878 10.9176 10.2548 10.9846C10.3217 11.0516 10.3594 11.1424 10.3594 11.2371C10.3594 11.3319 10.3217 11.4227 10.2548 11.4897C10.1878 11.5566 10.097 11.5943 10.0022 11.5943Z" stroke="#4147D5" stroke-linecap="round" stroke-linejoin="round"/>
</svg>
