<svg width="20" height="20" viewBox="0 0 20 20" fill="none" xmlns="http://www.w3.org/2000/svg">
<path d="M8.10938 17.7971C8.29227 18.1394 8.5647 18.4256 8.89757 18.6252C9.23045 18.8248 9.61127 18.9302 9.99937 18.9302C10.3875 18.9302 10.7683 18.8248 11.1012 18.6252C11.4341 18.4256 11.7065 18.1394 11.8894 17.7971" stroke="#4147D5" stroke-linecap="round" stroke-linejoin="round"/>
<path d="M6.08755 2.69141C6.86114 1.91777 7.84676 1.39092 8.91979 1.17747C9.99281 0.964016 11.105 1.07356 12.1158 1.49224C13.1266 1.91092 13.9905 2.61993 14.5983 3.52961C15.2061 4.4393 15.5305 5.50879 15.5304 6.60283C15.5304 7.46569 15.6733 8.27569 15.8876 9.10569C15.9476 9.29426 16.0128 9.47188 16.0833 9.63855C16.4147 10.4171 17.3276 10.6843 18.009 11.1871C19.0247 11.94 18.829 13.55 17.9833 14.1757C17.9833 14.1757 16.619 15.3571 9.99898 15.3571C3.37898 15.3571 2.01469 14.1757 2.01469 14.1757C1.16898 13.55 0.971837 11.94 1.98898 11.1871C2.67041 10.6843 3.58327 10.4171 3.91469 9.63855C4.24469 8.86141 4.46755 7.86712 4.46755 6.60283C4.46755 5.13569 5.05041 3.72855 6.08755 2.69141Z" fill="#D7E0FF"/>
<path d="M6.08755 2.69141C6.86114 1.91777 7.84676 1.39092 8.91979 1.17747C9.99281 0.964016 11.105 1.07356 12.1158 1.49224C13.1266 1.91092 13.9905 2.61993 14.5983 3.52961C15.2061 4.4393 15.5305 5.50879 15.5304 6.60283C15.5304 7.46569 15.6733 8.27569 15.8876 9.10569C15.9476 9.29426 16.0128 9.47188 16.0833 9.63855C16.4147 10.4171 17.3276 10.6843 18.009 11.1871C19.0247 11.94 18.829 13.55 17.9833 14.1757C17.9833 14.1757 16.619 15.3571 9.99898 15.3571C3.37898 15.3571 2.01469 14.1757 2.01469 14.1757C1.16898 13.55 0.971837 11.94 1.98898 11.1871C2.67041 10.6843 3.58327 10.4171 3.91469 9.63855C4.24469 8.86141 4.46755 7.86712 4.46755 6.60283C4.46755 5.13569 5.05041 3.72855 6.08755 2.69141Z" stroke="#4147D5" stroke-linecap="round" stroke-linejoin="round"/>
</svg>
